<svg id="tren" xmlns="http://www.w3.org/2000/svg" width="68.169" height="54.456" viewBox="0 0 68.169 54.456">
  <path id="Trazado_126564" data-name="Trazado 126564" d="M441.17,357.273a1.008,1.008,0,1,0-1.8.9l1.856,3.7a1.008,1.008,0,0,0,1.8-.9Z" transform="translate(-380.776 -316.079)" fill="#12263f"/>
  <path id="Trazado_126565" data-name="Trazado 126565" d="M67.446,98.555,63.311,90.43A3.331,3.331,0,0,0,60.7,88.475V86.191h1.2a3.223,3.223,0,0,0,3.219-3.22V75.808A3.221,3.221,0,0,0,61.9,72.592H60.7V71.328a2.854,2.854,0,0,0-2.853-2.85H55.984V61.16h.943a2.906,2.906,0,0,0,2.9-2.9v-1.9a2.906,2.906,0,0,0-2.9-2.9H44.163a2.906,2.906,0,0,0-2.9,2.9v1.9a2.906,2.906,0,0,0,2.9,2.9h.943v7.318h-4.9V65.772a2.581,2.581,0,0,0-2.577-2.578h-1.86a2.583,2.583,0,0,0-2.581,2.578v2.706H27.363V59.344a3.965,3.965,0,0,0-.808-7.847H5.169a3.965,3.965,0,0,0-.8,7.848V88.4H2.253A2.256,2.256,0,0,0,0,90.652v3.94a2.256,2.256,0,0,0,2.253,2.254H5.416a10.11,10.11,0,0,0,20.12,0h6.642a10.11,10.11,0,0,0,20.12,0h1.452c.3,0,.608,0,.77.013.057.095.138.251.212.393.086.165.186.358.31.582l.012.021.786,1.348c.946,1.708,2.175,1.853,3.476,2.006.283.033.575.068.894.119l5.078.812a7.354,7.354,0,0,0,1.144.122,1.672,1.672,0,0,0,1.454-.625C68.438,100.876,68.127,99.894,67.446,98.555ZM60.7,74.607h1.2a1.2,1.2,0,0,1,1.2,1.2v7.164a1.2,1.2,0,0,1-1.2,1.2H60.7ZM44.163,59.144a.887.887,0,0,1-.886-.887v-1.9a.887.887,0,0,1,.886-.887H56.927a.887.887,0,0,1,.886.887v1.9a.887.887,0,0,1-.886.887H44.163Zm9.805,2.016v7.318H47.121V61.16ZM35.207,65.772a.571.571,0,0,1,.565-.562h1.86a.562.562,0,0,1,.562.562v2.706H35.207ZM3.219,55.46a1.951,1.951,0,0,1,1.95-1.947H26.555a1.949,1.949,0,1,1,0,3.9H5.169a1.953,1.953,0,0,1-1.95-1.951ZM16.149,81.873h0l9.194-.034V88.4H6.381V81.835h5.874a1.008,1.008,0,0,0,0-2.016H6.381V59.427H25.347v20.4l-9.2.034a1.008,1.008,0,0,0,0,2.016Zm-.675,22.064a8.107,8.107,0,0,1-8.03-7.091h2.565a5.558,5.558,0,0,0,10.934,0h2.565A8.109,8.109,0,0,1,15.473,103.937Zm-3.4-7.091h6.8a3.544,3.544,0,0,1-6.8,0Zm30.162,7.091A8.109,8.109,0,0,1,34.2,96.846H36.77a5.558,5.558,0,0,0,10.934,0h2.565a8.107,8.107,0,0,1-8.03,7.091Zm-3.4-7.091h6.8a3.544,3.544,0,0,1-6.8,0Zm26.767,3.3-5.078-.812c-.36-.058-.688-.1-.977-.13-1.186-.14-1.505-.177-1.951-.988l-.012-.021L56.8,96.85c-.113-.2-.2-.38-.283-.531-.705-1.352-1.123-1.49-2.729-1.49H2.253a.241.241,0,0,1-.237-.238v-3.94a.241.241,0,0,1,.237-.238h33.96a1.008,1.008,0,1,0,0-2.016H27.362v-17.9H57.843a.847.847,0,0,1,.837.834V88.4H40.82a1.008,1.008,0,0,0,0,2.016H59.689c1.263,0,1.532.351,1.826.929l4.135,8.126c.16.314.269.555.342.737q-.17-.023-.387-.057Z" transform="translate(0 -51.497)" fill="#12263f"/>
  <path id="Trazado_126566" data-name="Trazado 126566" d="M316.547,229.722H324.9a1.008,1.008,0,0,0,0-2.016h-8.349a1.008,1.008,0,1,0,0,2.016Z" transform="translate(-273.527 -204.245)" fill="#12263f"/>
  <path id="Trazado_126567" data-name="Trazado 126567" d="M316.547,271.195H324.9a1.008,1.008,0,0,0,0-2.016h-8.349a1.008,1.008,0,1,0,0,2.016Z" transform="translate(-273.527 -240.196)" fill="#12263f"/>
  <path id="Trazado_126568" data-name="Trazado 126568" d="M79.05,134.995v-9a2.3,2.3,0,0,0-2.3-2.3H67.078a2.3,2.3,0,0,0-2.3,2.3v9a2.3,2.3,0,0,0,2.3,2.3h9.674A2.3,2.3,0,0,0,79.05,134.995Zm-12.255,0v-9a.286.286,0,0,1,.282-.283h9.674a.286.286,0,0,1,.282.283v9a.286.286,0,0,1-.282.283H67.078A.286.286,0,0,1,66.8,134.995Z" transform="translate(-56.155 -114.085)" fill="#12263f"/>
</svg>
