<svg xmlns="http://www.w3.org/2000/svg" width="72.74" height="50.898" viewBox="0 0 72.74 50.898">
  <g id="nube" transform="translate(0.001 -72.101)">
    <g id="Grupo_86932" data-name="Grupo 86932" transform="translate(-0.001 72.101)">
      <path id="Trazado_126592" data-name="Trazado 126592" d="M72.687,105.967A15.807,15.807,0,0,0,53.3,91.918,15.857,15.857,0,0,0,41.081,77.349c-.11-.027-.222-.048-.332-.07a10.873,10.873,0,0,0-19.783,2.955A9.7,9.7,0,0,0,7.274,89.07a9.881,9.881,0,0,0,.084,1.287A8.464,8.464,0,0,0,2.7,104.944c-.147.168-.3.334-.431.511A10.784,10.784,0,0,0,0,112.093,10.918,10.918,0,0,0,10.909,123H56.955c.45,0,.886-.013,1.311-.052A15.752,15.752,0,0,0,72.687,105.967ZM3.957,94.746a6.058,6.058,0,0,1,4.528-2.04H8.58a1.077,1.077,0,0,1,.121,0,1.21,1.21,0,0,0,1.292-1.55,7.366,7.366,0,0,1-.3-2.085,7.278,7.278,0,0,1,7.27-7.27,7.119,7.119,0,0,1,4.188,1.333,1.212,1.212,0,0,0,1.915-.88,8.525,8.525,0,0,1,8.949-7.716,8.393,8.393,0,0,1,5.427,2.416c-.076,0-.15.012-.227.013h-.048a16.155,16.155,0,0,0-1.684.133l-.065.011a15.453,15.453,0,0,0-1.623.308l-.09.023a15.427,15.427,0,0,0-1.527.467l-.141.051q-.709.265-1.387.6c-.07.034-.141.065-.21.1-.419.213-.828.447-1.227.7-.091.056-.183.108-.271.165-.376.242-.739.514-1.091.794-.1.075-.2.142-.29.219a16.075,16.075,0,0,0-1.253,1.141,14.887,14.887,0,0,0-2.53,3.415v-.007l-.01.015a1.3,1.3,0,0,0-.1.177,15.115,15.115,0,0,0-1.229,2.992,15.652,15.652,0,0,0-.537,2.751,13.529,13.529,0,0,0-.1,1.69v.242a12.246,12.246,0,0,0-7.657.946,13.022,13.022,0,0,0-1.51.869,7.146,7.146,0,0,0-.82.617,11.621,11.621,0,0,0-1.282,1.173,11.018,11.018,0,0,0-1.076,1.318,12.047,12.047,0,0,0-1.779,3.8,9.657,9.657,0,0,0-1.546.619,11.3,11.3,0,0,0-1.51.91c-.051.035-.111.061-.161.1A6.059,6.059,0,0,1,3.957,94.746Zm54.1,25.786c-.364.034-.727.044-1.1.044H10.909a8.492,8.492,0,0,1-8.482-8.482,8.4,8.4,0,0,1,1.767-5.172A7.881,7.881,0,0,1,5.3,105.74a8.63,8.63,0,0,1,1.927-1.281,7.913,7.913,0,0,1,1.757-.629,1.212,1.212,0,0,0,.9-.937,9.664,9.664,0,0,1,1.56-3.626,8.687,8.687,0,0,1,.848-1.046,9.853,9.853,0,0,1,1.091-.992,5.454,5.454,0,0,1,.606-.452,10.466,10.466,0,0,1,1.212-.7,9.986,9.986,0,0,1,.942-.385c.233-.082.47-.148.709-.212.08-.022.158-.048.242-.068.254-.062.511-.108.768-.149.073-.011.145-.027.218-.036.231-.032.464-.05.7-.064.121-.007.233-.017.35-.019.228-.007.453,0,.679,0a1.793,1.793,0,0,1,.242.011c.227.015.45.04.671.07.084.011.168.019.251.033.228.038.453.088.676.143.07.017.142.029.212.047a8.667,8.667,0,0,1,.848.275,1.212,1.212,0,0,0,1.637-1.294,12.515,12.515,0,0,1-.11-1.722,11.581,11.581,0,0,1,.078-1.407,13.6,13.6,0,0,1,.456-2.35,12.632,12.632,0,0,1,1.072-2.587c.008-.016.017-.032.024-.047s.029-.051.042-.078a12.482,12.482,0,0,1,2.125-2.862,13.254,13.254,0,0,1,9.532-4c.4,0,.806.023,1.195.055.348.034.686.076,1.021.142l.069.011a6.806,6.806,0,0,1,.682.121,13.414,13.414,0,0,1,10.362,13c0,.262-.012.523-.023.784a1.212,1.212,0,0,0,1.621,1.192,13.118,13.118,0,0,1,4.46-.765,13.329,13.329,0,0,1,1.1,26.615Z" transform="translate(0.001 -72.101)" fill="#12263f"/>
    </g>
  </g>
</svg>
