<svg xmlns="http://www.w3.org/2000/svg" width="274.388" height="69.122" viewBox="0 0 274.388 69.122">
  <g id="Grupo_90705" data-name="Grupo 90705" transform="translate(-719.224 -867.471)">
    <g id="Grupo_90593" data-name="Grupo 90593" transform="translate(719.224 867.471)">
      <g id="Grupo_90570" data-name="Grupo 90570" transform="translate(0 42.127)">
        <path id="Trazado_134286" data-name="Trazado 134286" d="M780.17,903.934h-7.022v5.045H728.237a9.449,9.449,0,0,1-6.68-2.767h0a6.261,6.261,0,0,1-1.833-4.426v-1.937a.98.98,0,0,1,.979-.979H729.5l5.4-6.193H758.38l12.711,4.359h9.08Z" transform="translate(-719.038 -891.991)"/>
        <path id="Trazado_134287" data-name="Trazado 134287" d="M773.335,909.85H728.423a10.07,10.07,0,0,1-7.164-2.968,6.9,6.9,0,0,1-2.035-4.912v-1.937a1.668,1.668,0,0,1,1.664-1.666h8.481l5.2-5.957a.686.686,0,0,1,.517-.235h23.483a.676.676,0,0,1,.222.037l12.6,4.32h8.966a.685.685,0,0,1,.686.686v6.9a.685.685,0,0,1-.686.686h-6.336v4.357A.686.686,0,0,1,773.335,909.85Zm-52.446-10.11a.293.293,0,0,0-.292.294v1.937a5.533,5.533,0,0,0,1.633,3.94,8.7,8.7,0,0,0,6.194,2.567h44.226v-4.357a.685.685,0,0,1,.686-.686h6.336v-5.529h-8.394a.649.649,0,0,1-.222-.038l-12.6-4.319H735.395l-5.2,5.958a.69.69,0,0,1-.517.233Z" transform="translate(-719.224 -892.177)"/>
      </g>
      <g id="Grupo_90571" data-name="Grupo 90571" transform="translate(117.099 4.116)">
        <rect id="Rectángulo_7046" data-name="Rectángulo 7046" width="150.591" height="45.274" transform="translate(0.686 0.685)" fill="#fff"/>
        <path id="Trazado_134288" data-name="Trazado 134288" d="M955.854,911.117H805.263a.686.686,0,0,1-.686-.686V865.157a.685.685,0,0,1,.686-.686H955.854a.685.685,0,0,1,.686.686v45.274A.686.686,0,0,1,955.854,911.117Zm-149.9-1.372H955.168v-43.9H805.949Z" transform="translate(-804.577 -864.471)"/>
      </g>
      <g id="Grupo_90572" data-name="Grupo 90572" transform="translate(110.803)">
        <rect id="Rectángulo_7047" data-name="Rectángulo 7047" width="162.212" height="49.39" transform="translate(0.687 0.685)" fill="#fff"/>
        <path id="Trazado_134289" data-name="Trazado 134289" d="M962.887,912.233H800.674a.686.686,0,0,1-.686-.686v-49.39a.685.685,0,0,1,.686-.686H962.887a.685.685,0,0,1,.686.686v49.39A.686.686,0,0,1,962.887,912.233ZM801.36,910.861H962.2V862.843H801.36Z" transform="translate(-799.988 -861.471)"/>
      </g>
      <g id="Grupo_90573" data-name="Grupo 90573" transform="translate(84.173 49.39)">
        <rect id="Rectángulo_7048" data-name="Rectángulo 7048" width="175.285" height="7.99" transform="translate(0.686 0.685)"/>
        <path id="Trazado_134290" data-name="Trazado 134290" d="M956.549,906.832H781.263a.686.686,0,0,1-.686-.686v-7.989a.685.685,0,0,1,.686-.686H956.549a.685.685,0,0,1,.686.686v7.989A.686.686,0,0,1,956.549,906.832Zm-174.6-1.372H955.863v-6.617H781.949Z" transform="translate(-780.577 -897.471)"/>
      </g>
      <g id="Grupo_90574" data-name="Grupo 90574" transform="translate(6.941 17.667)">
        <path id="Trazado_134291" data-name="Trazado 134291" d="M724.783,895.19h0a6.536,6.536,0,0,1,6.537-6.536h31.474l8.271-12.408a3.127,3.127,0,0,1,2.6-1.392h30.77s7.5-.969,9.2,28.811H769.209l-7.626-8.232Z" transform="translate(-724.097 -874.161)" fill="#fff"/>
        <path id="Trazado_134292" data-name="Trazado 134292" d="M813.823,904.537H769.4a.682.682,0,0,1-.5-.221l-7.424-8.012-36.5-.24a.687.687,0,0,1-.682-.686,7.231,7.231,0,0,1,7.223-7.223h31.106l8.068-12.1a3.8,3.8,0,0,1,3.172-1.7h30.77a3.584,3.584,0,0,1,2.481,1.039c2.771,2.3,6.3,9.1,7.4,28.418a.687.687,0,0,1-.685.726ZM769.7,903.166h43.4c-1.159-18.947-4.706-24.8-6.734-26.6-.981-.874-1.641-.853-1.674-.841l-30.836,0a2.429,2.429,0,0,0-2.03,1.088l-8.273,12.406a.686.686,0,0,1-.571.306H731.506a5.86,5.86,0,0,0-5.812,5.171l36.078.236a.688.688,0,0,1,.5.219Z" transform="translate(-724.283 -874.348)"/>
      </g>
      <g id="Grupo_90575" data-name="Grupo 90575" transform="translate(1.372 38.011)">
        <path id="Trazado_134293" data-name="Trazado 134293" d="M720.724,900.088v-2.771a8.019,8.019,0,0,1,5.386-7.576l.182-.064h36.8l7.626,8.474,1.634,2.221a1.19,1.19,0,0,1-.959,1.895h-5.637l-7.749-8.474H734.524l-5.4,6.231Z" transform="translate(-720.038 -888.991)" fill="#fff"/>
        <path id="Trazado_134294" data-name="Trazado 134294" d="M771.58,903.138h-5.637a.681.681,0,0,1-.506-.224l-7.544-8.249H735.025l-5.2,5.993a.686.686,0,0,1-.513.237l-8.4.064a.557.557,0,0,1-.49-.2.683.683,0,0,1-.2-.486V897.5a8.716,8.716,0,0,1,5.847-8.225l.184-.063a.7.7,0,0,1,.224-.037h36.8a.693.693,0,0,1,.512.226l7.625,8.473,1.677,2.276a1.875,1.875,0,0,1-1.512,2.985Zm-5.334-1.372h5.334a.5.5,0,0,0,.406-.8l-1.634-2.225-7.378-8.192-36.454.025A7.342,7.342,0,0,0,721.6,897.5v2.08l7.4-.056,5.2-6a.682.682,0,0,1,.519-.237h23.483a.686.686,0,0,1,.508.222Z" transform="translate(-720.224 -889.177)"/>
      </g>
      <g id="Grupo_90576" data-name="Grupo 90576" transform="translate(93.826 20.821)">
        <rect id="Rectángulo_7049" data-name="Rectángulo 7049" width="8.989" height="18.884" transform="translate(0.686 0.686)" fill="#fff"/>
        <path id="Trazado_134295" data-name="Trazado 134295" d="M797.288,896.9H788.3a.686.686,0,0,1-.686-.686V877.333a.686.686,0,0,1,.686-.686h8.989a.686.686,0,0,1,.686.686v18.885A.686.686,0,0,1,797.288,896.9Zm-8.3-1.372H796.6V878.019h-7.617Z" transform="translate(-787.613 -876.647)"/>
      </g>
      <g id="Grupo_90577" data-name="Grupo 90577" transform="translate(93.826 38.011)">
        <rect id="Rectángulo_7050" data-name="Rectángulo 7050" width="11.653" height="2.421" transform="translate(0.686 0.685)" fill="#fff"/>
        <path id="Trazado_134296" data-name="Trazado 134296" d="M799.951,892.969H788.3a.685.685,0,0,1-.686-.686v-2.42a.685.685,0,0,1,.686-.686h11.652a.685.685,0,0,1,.686.686v2.42A.685.685,0,0,1,799.951,892.969ZM788.985,891.6h10.28v-1.048h-10.28Z" transform="translate(-787.613 -889.177)"/>
      </g>
      <g id="Grupo_90578" data-name="Grupo 90578" transform="translate(96.004 1.937)">
        <rect id="Rectángulo_7051" data-name="Rectángulo 7051" width="4.632" height="18.884" transform="translate(0.686 0.685)" fill="#fff"/>
        <path id="Trazado_134297" data-name="Trazado 134297" d="M794.519,883.138h-4.632a.685.685,0,0,1-.686-.686V863.569a.685.685,0,0,1,.686-.686h4.632a.685.685,0,0,1,.686.686v18.883A.685.685,0,0,1,794.519,883.138Zm-3.946-1.372h3.26V864.255h-3.26Z" transform="translate(-789.201 -862.883)"/>
      </g>
      <g id="Grupo_90579" data-name="Grupo 90579" transform="translate(93.826 49.39)">
        <rect id="Rectángulo_7052" data-name="Rectángulo 7052" width="22.225" height="9.039" transform="translate(0.686 0.685)" fill="#fff"/>
        <path id="Trazado_134298" data-name="Trazado 134298" d="M810.523,907.881H788.3a.686.686,0,0,1-.686-.686v-9.038a.685.685,0,0,1,.686-.686h22.224a.684.684,0,0,1,.686.686V907.2A.685.685,0,0,1,810.523,907.881Zm-21.538-1.372h20.852v-7.666H788.985Z" transform="translate(-787.613 -897.471)"/>
      </g>
      <g id="Grupo_90580" data-name="Grupo 90580" transform="translate(96.738 49.39)">
        <rect id="Rectángulo_7053" data-name="Rectángulo 7053" width="2.913" height="9.039" transform="translate(0.686 0.685)" fill="#fff"/>
        <path id="Trazado_134299" data-name="Trazado 134299" d="M793.335,907.881h-2.913a.686.686,0,0,1-.686-.686v-9.038a.685.685,0,0,1,.686-.686h2.913a.684.684,0,0,1,.686.686V907.2A.685.685,0,0,1,793.335,907.881Zm-2.227-1.372h1.541v-7.666h-1.541Z" transform="translate(-789.736 -897.471)"/>
      </g>
      <g id="Grupo_90581" data-name="Grupo 90581" transform="translate(109.431 49.39)">
        <rect id="Rectángulo_7054" data-name="Rectángulo 7054" width="2.913" height="9.039" transform="translate(0.687 0.685)" fill="#fff"/>
        <path id="Trazado_134300" data-name="Trazado 134300" d="M802.588,907.881h-2.914a.686.686,0,0,1-.686-.686v-9.038a.685.685,0,0,1,.686-.686h2.914a.685.685,0,0,1,.686.686V907.2A.685.685,0,0,1,802.588,907.881Zm-2.228-1.372H801.9v-7.666H800.36Z" transform="translate(-798.988 -897.471)"/>
      </g>
      <g id="Grupo_90582" data-name="Grupo 90582" transform="translate(60.446 46.484)">
        <rect id="Rectángulo_7055" data-name="Rectángulo 7055" width="23.726" height="8.595" transform="translate(0.686 0.686)" fill="#fff"/>
        <path id="Trazado_134301" data-name="Trazado 134301" d="M787.7,905.319H763.969a.685.685,0,0,1-.686-.686v-8.594a.685.685,0,0,1,.686-.686H787.7a.685.685,0,0,1,.686.686v8.594A.685.685,0,0,1,787.7,905.319Zm-23.04-1.372h22.354v-7.222H764.655Z" transform="translate(-763.283 -895.353)"/>
      </g>
      <g id="Grupo_90583" data-name="Grupo 90583" transform="translate(60.446 55.078)">
        <path id="Trazado_134302" data-name="Trazado 134302" d="M796.1,902.118H763.783v5.811h6.658v-1.937H796.1Z" transform="translate(-763.097 -901.431)" fill="#fff"/>
        <path id="Trazado_134303" data-name="Trazado 134303" d="M770.627,908.8h-6.658a.686.686,0,0,1-.686-.686V902.3a.686.686,0,0,1,.686-.686H796.29a.686.686,0,0,1,.686.686v3.874a.685.685,0,0,1-.686.686H771.313v1.251A.686.686,0,0,1,770.627,908.8Zm-5.972-1.372h5.286v-1.251a.685.685,0,0,1,.686-.686H795.6v-2.5H764.655Z" transform="translate(-763.283 -901.617)"/>
      </g>
      <g id="Grupo_90584" data-name="Grupo 90584" transform="translate(14.002 44.305)">
        <ellipse id="Elipse_4209" data-name="Elipse 4209" cx="15.555" cy="11.722" rx="15.555" ry="11.722" transform="translate(0.686 0.686)"/>
        <path id="Trazado_134304" data-name="Trazado 134304" d="M745.672,918.581c-8.957,0-16.242-5.566-16.242-12.408s7.285-12.408,16.242-12.408,16.24,5.565,16.24,12.408S754.627,918.581,745.672,918.581Zm0-23.444c-8.2,0-14.87,4.95-14.87,11.036s6.67,11.036,14.87,11.036,14.868-4.951,14.868-11.036S753.87,895.137,745.672,895.137Z" transform="translate(-729.43 -893.765)"/>
      </g>
      <g id="Grupo_90585" data-name="Grupo 90585" transform="translate(19.328 48.318)">
        <ellipse id="Elipse_4210" data-name="Elipse 4210" cx="10.229" cy="7.708" rx="10.229" ry="7.708" transform="translate(0.686 0.686)" fill="#fff"/>
        <path id="Trazado_134305" data-name="Trazado 134305" d="M744.228,913.48c-6.019,0-10.917-3.766-10.917-8.395s4.9-8.395,10.917-8.395,10.914,3.766,10.914,8.395S750.246,913.48,744.228,913.48Zm0-15.418c-5.263,0-9.545,3.15-9.545,7.023s4.282,7.023,9.545,7.023,9.542-3.151,9.542-7.023S749.49,898.062,744.228,898.062Z" transform="translate(-733.312 -896.69)"/>
      </g>
      <g id="Grupo_90586" data-name="Grupo 90586" transform="translate(26.134 53.448)">
        <ellipse id="Elipse_4211" data-name="Elipse 4211" cx="3.423" cy="2.58" rx="3.423" ry="2.58" transform="translate(0.686 0.685)" fill="#fff"/>
        <path id="Trazado_134306" data-name="Trazado 134306" d="M742.383,906.959c-2.266,0-4.11-1.465-4.11-3.265s1.844-3.265,4.11-3.265,4.109,1.464,4.109,3.265S744.648,906.959,742.383,906.959Zm0-5.158c-1.484,0-2.738.867-2.738,1.893s1.254,1.893,2.738,1.893,2.737-.867,2.737-1.893S743.866,901.8,742.383,901.8Z" transform="translate(-738.273 -900.429)"/>
      </g>
      <g id="Grupo_90587" data-name="Grupo 90587" transform="translate(203.4 44.305)">
        <ellipse id="Elipse_4212" data-name="Elipse 4212" cx="15.555" cy="11.722" rx="15.555" ry="11.722" transform="translate(0.686 0.686)"/>
        <path id="Trazado_134307" data-name="Trazado 134307" d="M883.722,918.581c-8.955,0-16.241-5.566-16.241-12.408s7.286-12.408,16.241-12.408,16.241,5.565,16.241,12.408S892.678,918.581,883.722,918.581Zm0-23.444c-8.2,0-14.869,4.95-14.869,11.036s6.672,11.036,14.869,11.036,14.869-4.951,14.869-11.036S891.921,895.137,883.722,895.137Z" transform="translate(-867.481 -893.765)"/>
      </g>
      <g id="Grupo_90588" data-name="Grupo 90588" transform="translate(208.725 48.318)">
        <ellipse id="Elipse_4213" data-name="Elipse 4213" cx="10.229" cy="7.708" rx="10.229" ry="7.708" transform="translate(0.687 0.686)" fill="#fff"/>
        <path id="Trazado_134308" data-name="Trazado 134308" d="M882.278,913.48c-6.017,0-10.915-3.766-10.915-8.395s4.9-8.395,10.915-8.395,10.915,3.766,10.915,8.395S888.3,913.48,882.278,913.48Zm0-15.418c-5.263,0-9.543,3.15-9.543,7.023s4.281,7.023,9.543,7.023,9.543-3.151,9.543-7.023S887.541,898.062,882.278,898.062Z" transform="translate(-871.363 -896.69)"/>
      </g>
      <g id="Grupo_90589" data-name="Grupo 90589" transform="translate(215.532 53.448)">
        <ellipse id="Elipse_4214" data-name="Elipse 4214" cx="3.423" cy="2.58" rx="3.423" ry="2.58" transform="translate(0.686 0.685)" fill="#fff"/>
        <path id="Trazado_134309" data-name="Trazado 134309" d="M880.433,906.959c-2.265,0-4.109-1.465-4.109-3.265s1.844-3.265,4.109-3.265,4.109,1.464,4.109,3.265S882.7,906.959,880.433,906.959Zm0-5.158c-1.483,0-2.737.867-2.737,1.893s1.254,1.893,2.737,1.893,2.737-.867,2.737-1.893S881.916,901.8,880.433,901.8Z" transform="translate(-876.324 -900.429)"/>
      </g>
      <g id="Grupo_90590" data-name="Grupo 90590" transform="translate(61.091 20.821)">
        <rect id="Rectángulo_7056" data-name="Rectángulo 7056" width="23.081" height="10.33" transform="translate(0.687 0.686)" fill="#fff"/>
        <path id="Trazado_134310" data-name="Trazado 134310" d="M787.52,888.35H764.439a.686.686,0,0,1-.686-.686V877.333a.686.686,0,0,1,.686-.686H787.52a.685.685,0,0,1,.686.686v10.331A.685.685,0,0,1,787.52,888.35Zm-22.4-1.372h21.71v-8.959h-21.71Z" transform="translate(-763.753 -876.647)"/>
      </g>
      <g id="Grupo_90591" data-name="Grupo 90591" transform="translate(49.148 20.014)">
        <path id="Trazado_134311" data-name="Trazado 134311" d="M755.547,887.7H764.1V876.559h-2.421Z" transform="translate(-754.861 -875.873)" fill="#fff"/>
        <path id="Trazado_134312" data-name="Trazado 134312" d="M764.288,888.568h-8.554a.685.685,0,0,1-.6-1.017l6.134-11.139a.686.686,0,0,1,.6-.354h2.42a.685.685,0,0,1,.686.686v11.137A.685.685,0,0,1,764.288,888.568Zm-7.393-1.372H763.6v-9.765h-1.329Z" transform="translate(-755.047 -876.059)"/>
      </g>
      <g id="Grupo_90592" data-name="Grupo 90592" transform="translate(237.668 57.379)">
        <path id="Trazado_134313" data-name="Trazado 134313" d="M892.959,903.794v4.439h2.26v3.551" transform="translate(-892.273 -903.108)" fill="#fff"/>
        <path id="Trazado_134314" data-name="Trazado 134314" d="M895.4,912.655a.685.685,0,0,1-.686-.686V909.1h-1.574a.685.685,0,0,1-.686-.686V903.98a.686.686,0,1,1,1.372,0v3.752H895.4a.685.685,0,0,1,.686.686v3.551A.685.685,0,0,1,895.4,912.655Z" transform="translate(-892.459 -903.294)"/>
      </g>
    </g>
  </g>
</svg>
