<svg id="Grupo_90775" data-name="Grupo 90775" xmlns="http://www.w3.org/2000/svg" width="448.906" height="102.071" viewBox="0 0 448.906 102.071">
  <g id="Grupo_90738" data-name="Grupo 90738" transform="translate(91.156 74.705)">
    <rect id="Rectángulo_7109" data-name="Rectángulo 7109" width="115.734" height="9.386" transform="translate(0.822 0.822)"/>
    <path id="Trazado_134480" data-name="Trazado 134480" d="M1807.2,1092.419H1691.467a.821.821,0,0,1-.822-.823v-9.387a.821.821,0,0,1,.822-.823H1807.2a.822.822,0,0,1,.822.823v9.387A.823.823,0,0,1,1807.2,1092.419Zm-114.912-1.645h114.089v-7.742H1692.289Z" transform="translate(-1690.644 -1081.387)"/>
  </g>
  <g id="Grupo_90739" data-name="Grupo 90739" transform="translate(0 63.479)">
    <path id="Trazado_134481" data-name="Trazado 134481" d="M1693.019,1096.884h-50.706l-6.58-2.661v-10.064h10.95l7.437-9.1h23.031l17.225,6.58h6v9.338h-7.161Z" transform="translate(-1634.909 -1074.24)"/>
    <path id="Trazado_134482" data-name="Trazado 134482" d="M1693.342,1098.03h-50.707a.85.85,0,0,1-.308-.059l-6.58-2.662a.824.824,0,0,1-.515-.763v-10.063a.822.822,0,0,1,.823-.823h10.558l7.191-8.795a.824.824,0,0,1,.636-.3h23.031a.793.793,0,0,1,.295.056l17.082,6.524h5.848a.822.822,0,0,1,.823.823v9.337a.821.821,0,0,1-.823.823h-6.365l-.166,5.109A.824.824,0,0,1,1693.342,1098.03Zm-50.546-1.645h49.748l.168-5.108a.823.823,0,0,1,.823-.8h6.338v-7.692H1694.7a.794.794,0,0,1-.295-.054l-17.082-6.526h-22.488l-7.192,8.794a.819.819,0,0,1-.635.3h-10.127v8.686Z" transform="translate(-1635.232 -1074.563)"/>
  </g>
  <g id="Grupo_90740" data-name="Grupo 90740" transform="translate(361.525 72.364)">
    <circle id="Elipse_4263" data-name="Elipse 4263" cx="14.031" cy="14.031" r="14.031" transform="translate(0.822 0.822)"/>
    <path id="Trazado_134483" data-name="Trazado 134483" d="M1869.85,1109.67a14.853,14.853,0,1,1,14.855-14.853A14.87,14.87,0,0,1,1869.85,1109.67Zm0-28.061a13.208,13.208,0,1,0,13.21,13.208A13.222,13.222,0,0,0,1869.85,1081.609Z" transform="translate(-1854.997 -1079.964)"/>
  </g>
  <g id="Grupo_90741" data-name="Grupo 90741" transform="translate(172.158 72.364)">
    <circle id="Elipse_4264" data-name="Elipse 4264" cx="14.031" cy="14.031" r="14.031" transform="translate(0.822 0.822)"/>
    <path id="Trazado_134484" data-name="Trazado 134484" d="M1754.737,1109.67a14.853,14.853,0,1,1,14.853-14.853A14.87,14.87,0,0,1,1754.737,1109.67Zm0-28.061a13.208,13.208,0,1,0,13.208,13.208A13.221,13.221,0,0,0,1754.737,1081.609Z" transform="translate(-1739.884 -1079.964)"/>
  </g>
  <g id="Grupo_90742" data-name="Grupo 90742" transform="translate(18.29 72.364)">
    <circle id="Elipse_4265" data-name="Elipse 4265" cx="14.031" cy="14.031" r="14.031" transform="translate(0.822 0.822)"/>
    <path id="Trazado_134485" data-name="Trazado 134485" d="M1661.2,1109.67a14.853,14.853,0,1,1,14.853-14.853A14.869,14.869,0,0,1,1661.2,1109.67Zm0-28.061a13.208,13.208,0,1,0,13.208,13.208A13.221,13.221,0,0,0,1661.2,1081.609Z" transform="translate(-1646.35 -1079.964)"/>
  </g>
  <g id="Grupo_90743" data-name="Grupo 90743" transform="translate(403.632 72.364)">
    <circle id="Elipse_4266" data-name="Elipse 4266" cx="14.031" cy="14.031" r="14.031" transform="translate(0.822 0.822)"/>
    <path id="Trazado_134486" data-name="Trazado 134486" d="M1895.446,1109.67a14.853,14.853,0,1,1,14.853-14.853A14.87,14.87,0,0,1,1895.446,1109.67Zm0-28.061a13.208,13.208,0,1,0,13.208,13.208A13.222,13.222,0,0,0,1895.446,1081.609Z" transform="translate(-1880.593 -1079.964)"/>
  </g>
  <g id="Grupo_90744" data-name="Grupo 90744" transform="translate(367.041 77.879)">
    <circle id="Elipse_4267" data-name="Elipse 4267" cx="8.516" cy="8.516" r="8.516" transform="translate(0.822 0.823)" fill="#fff"/>
    <path id="Trazado_134487" data-name="Trazado 134487" d="M1867.687,1101.992a9.338,9.338,0,1,1,9.337-9.337A9.347,9.347,0,0,1,1867.687,1101.992Zm0-17.031a7.693,7.693,0,1,0,7.692,7.694A7.7,7.7,0,0,0,1867.687,1084.961Z" transform="translate(-1858.35 -1083.316)"/>
  </g>
  <g id="Grupo_90745" data-name="Grupo 90745" transform="translate(371.879 82.718)">
    <circle id="Elipse_4268" data-name="Elipse 4268" cx="3.677" cy="3.677" r="3.677" transform="translate(0.822 0.822)" fill="#fff"/>
    <path id="Trazado_134488" data-name="Trazado 134488" d="M1865.79,1095.258a4.5,4.5,0,1,1,4.5-4.5A4.507,4.507,0,0,1,1865.79,1095.258Zm0-7.355a2.855,2.855,0,1,0,2.855,2.854A2.857,2.857,0,0,0,1865.79,1087.9Z" transform="translate(-1861.291 -1086.258)"/>
  </g>
  <g id="Grupo_90746" data-name="Grupo 90746" transform="translate(177.672 77.879)">
    <circle id="Elipse_4269" data-name="Elipse 4269" cx="8.516" cy="8.516" r="8.516" transform="translate(0.823 0.823)" fill="#fff"/>
    <path id="Trazado_134489" data-name="Trazado 134489" d="M1752.575,1101.992a9.338,9.338,0,1,1,9.339-9.337A9.349,9.349,0,0,1,1752.575,1101.992Zm0-17.031a7.693,7.693,0,1,0,7.694,7.694A7.7,7.7,0,0,0,1752.575,1084.961Z" transform="translate(-1743.236 -1083.316)"/>
  </g>
  <g id="Grupo_90747" data-name="Grupo 90747" transform="translate(182.512 82.718)">
    <circle id="Elipse_4270" data-name="Elipse 4270" cx="3.677" cy="3.677" r="3.677" transform="translate(0.822 0.822)" fill="#fff"/>
    <path id="Trazado_134490" data-name="Trazado 134490" d="M1750.677,1095.258a4.5,4.5,0,1,1,4.5-4.5A4.506,4.506,0,0,1,1750.677,1095.258Zm0-7.355a2.855,2.855,0,1,0,2.854,2.854A2.857,2.857,0,0,0,1750.677,1087.9Z" transform="translate(-1746.178 -1086.258)"/>
  </g>
  <g id="Grupo_90748" data-name="Grupo 90748" transform="translate(23.804 77.879)">
    <circle id="Elipse_4271" data-name="Elipse 4271" cx="8.516" cy="8.516" r="8.516" transform="translate(0.824 0.823)" fill="#fff"/>
    <path id="Trazado_134491" data-name="Trazado 134491" d="M1659.041,1101.992a9.338,9.338,0,1,1,9.339-9.337A9.348,9.348,0,0,1,1659.041,1101.992Zm0-17.031a7.693,7.693,0,1,0,7.694,7.694A7.7,7.7,0,0,0,1659.041,1084.961Z" transform="translate(-1649.702 -1083.316)"/>
  </g>
  <g id="Grupo_90749" data-name="Grupo 90749" transform="translate(28.644 82.718)">
    <circle id="Elipse_4272" data-name="Elipse 4272" cx="3.677" cy="3.677" r="3.677" transform="translate(0.822 0.822)" fill="#fff"/>
    <path id="Trazado_134492" data-name="Trazado 134492" d="M1657.143,1095.258a4.5,4.5,0,1,1,4.5-4.5A4.506,4.506,0,0,1,1657.143,1095.258Zm0-7.355a2.855,2.855,0,1,0,2.854,2.854A2.857,2.857,0,0,0,1657.143,1087.9Z" transform="translate(-1652.644 -1086.258)"/>
  </g>
  <g id="Grupo_90750" data-name="Grupo 90750" transform="translate(409.146 77.879)">
    <circle id="Elipse_4273" data-name="Elipse 4273" cx="8.516" cy="8.516" r="8.516" transform="translate(0.824 0.823)" fill="#fff"/>
    <path id="Trazado_134493" data-name="Trazado 134493" d="M1893.284,1101.992a9.338,9.338,0,1,1,9.339-9.337A9.349,9.349,0,0,1,1893.284,1101.992Zm0-17.031a7.693,7.693,0,1,0,7.694,7.694A7.7,7.7,0,0,0,1893.284,1084.961Z" transform="translate(-1883.945 -1083.316)"/>
  </g>
  <g id="Grupo_90751" data-name="Grupo 90751" transform="translate(413.986 82.718)">
    <circle id="Elipse_4274" data-name="Elipse 4274" cx="3.677" cy="3.677" r="3.677" transform="translate(0.822 0.822)" fill="#fff"/>
    <path id="Trazado_134494" data-name="Trazado 134494" d="M1891.386,1095.258a4.5,4.5,0,1,1,4.5-4.5A4.506,4.506,0,0,1,1891.386,1095.258Zm0-7.355a2.855,2.855,0,1,0,2.854,2.854A2.857,2.857,0,0,0,1891.386,1087.9Z" transform="translate(-1886.887 -1086.258)"/>
  </g>
  <g id="Grupo_90752" data-name="Grupo 90752" transform="translate(225.47 70.06)">
    <path id="Trazado_134495" data-name="Trazado 134495" d="M1772.791,1079.063h6.58v14.031h6.967v-14.031h5.806" transform="translate(-1771.969 -1078.24)" fill="#fff"/>
    <path id="Trazado_134496" data-name="Trazado 134496" d="M1786.66,1094.24h-6.967a.823.823,0,0,1-.823-.822v-13.21h-5.758a.823.823,0,1,1,0-1.645h6.58a.823.823,0,0,1,.823.823v13.21h5.322v-13.21a.823.823,0,0,1,.822-.823h5.807a.823.823,0,0,1,0,1.645h-4.985v13.21A.822.822,0,0,1,1786.66,1094.24Z" transform="translate(-1772.291 -1078.563)"/>
  </g>
  <g id="Grupo_90757" data-name="Grupo 90757" transform="translate(101.026 73.495)">
    <g id="Grupo_90753" data-name="Grupo 90753">
      <rect id="Rectángulo_7110" data-name="Rectángulo 7110" width="23.611" height="11.806" transform="translate(0.822 0.823)" fill="#fff"/>
      <path id="Trazado_134497" data-name="Trazado 134497" d="M1721.078,1094.1h-23.611a.822.822,0,0,1-.823-.823v-11.807a.822.822,0,0,1,.823-.823h23.611a.823.823,0,0,1,.822.823v11.807A.823.823,0,0,1,1721.078,1094.1Zm-22.789-1.645h21.966V1082.3h-21.966Z" transform="translate(-1696.644 -1080.651)"/>
    </g>
    <g id="Grupo_90756" data-name="Grupo 90756" transform="translate(3.048)">
      <g id="Grupo_90754" data-name="Grupo 90754">
        <rect id="Rectángulo_7111" data-name="Rectángulo 7111" width="3" height="11.806" transform="translate(0.822 0.823)" fill="#fff"/>
        <path id="Trazado_134498" data-name="Trazado 134498" d="M1702.318,1094.1h-3a.823.823,0,0,1-.823-.823v-11.807a.823.823,0,0,1,.823-.823h3a.822.822,0,0,1,.822.823v11.807A.822.822,0,0,1,1702.318,1094.1Zm-2.177-1.645h1.354V1082.3h-1.354Z" transform="translate(-1698.497 -1080.651)"/>
      </g>
      <g id="Grupo_90755" data-name="Grupo 90755" transform="translate(14.514)">
        <rect id="Rectángulo_7112" data-name="Rectángulo 7112" width="3" height="11.806" transform="translate(0.823 0.823)" fill="#fff"/>
        <path id="Trazado_134499" data-name="Trazado 134499" d="M1711.143,1094.1h-3a.823.823,0,0,1-.822-.823v-11.807a.823.823,0,0,1,.822-.823h3a.823.823,0,0,1,.823.823v11.807A.823.823,0,0,1,1711.143,1094.1Zm-2.178-1.645h1.356V1082.3h-1.356Z" transform="translate(-1707.32 -1080.651)"/>
      </g>
    </g>
  </g>
  <g id="Grupo_90758" data-name="Grupo 90758" transform="translate(129.087)">
    <rect id="Rectángulo_7113" data-name="Rectángulo 7113" width="318.173" height="70.06" transform="translate(0.824 0.822)" fill="#fff"/>
    <path id="Trazado_134500" data-name="Trazado 134500" d="M2032.7,1107.68H1714.525a.822.822,0,0,1-.823-.822V1036.8a.822.822,0,0,1,.823-.823H2032.7a.821.821,0,0,1,.823.823v70.06A.821.821,0,0,1,2032.7,1107.68Zm-317.351-1.645h316.528V1037.62H1715.347Z" transform="translate(-1713.702 -1035.975)"/>
  </g>
  <g id="Grupo_90759" data-name="Grupo 90759" transform="translate(135.283 4.644)">
    <rect id="Rectángulo_7114" data-name="Rectángulo 7114" width="305.787" height="65.415" transform="translate(0.821 0.823)" fill="#fff"/>
    <path id="Trazado_134501" data-name="Trazado 134501" d="M2024.077,1105.859H1718.291a.821.821,0,0,1-.823-.823V1039.62a.821.821,0,0,1,.823-.823h305.786a.822.822,0,0,1,.823.823v65.416A.822.822,0,0,1,2024.077,1105.859Zm-304.963-1.645h304.141v-63.771H1719.113Z" transform="translate(-1717.468 -1038.798)"/>
  </g>
  <g id="Grupo_90760" data-name="Grupo 90760" transform="translate(436.811 70.06)">
    <path id="Trazado_134502" data-name="Trazado 134502" d="M1901.261,1079.063v20.012l2.323,4.838" transform="translate(-1900.44 -1078.24)" fill="#fff"/>
    <path id="Trazado_134503" data-name="Trazado 134503" d="M1903.906,1105.058a.825.825,0,0,1-.742-.465l-2.321-4.838a.807.807,0,0,1-.081-.355v-20.014a.822.822,0,1,1,1.645,0v19.825l2.241,4.668a.826.826,0,0,1-.385,1.1A.84.84,0,0,1,1903.906,1105.058Z" transform="translate(-1900.762 -1078.563)"/>
  </g>
  <g id="Grupo_90761" data-name="Grupo 90761" transform="translate(395.78 70.06)">
    <path id="Trazado_134504" data-name="Trazado 134504" d="M1876.32,1079.063v20.012l2.323,4.838" transform="translate(-1875.497 -1078.24)" fill="#fff"/>
    <path id="Trazado_134505" data-name="Trazado 134505" d="M1878.965,1105.058a.829.829,0,0,1-.742-.465l-2.323-4.838a.831.831,0,0,1-.081-.355v-20.014a.823.823,0,0,1,1.645,0v19.825l2.244,4.668a.823.823,0,0,1-.744,1.179Z" transform="translate(-1875.82 -1078.563)"/>
  </g>
  <g id="Grupo_90762" data-name="Grupo 90762" transform="translate(359.783 70.06)">
    <path id="Trazado_134506" data-name="Trazado 134506" d="M1854.438,1079.063v2.3h40.256v-2.3" transform="translate(-1853.615 -1078.24)" fill="#fff"/>
    <path id="Trazado_134507" data-name="Trazado 134507" d="M1895.015,1082.513H1854.76a.822.822,0,0,1-.823-.823v-2.3a.823.823,0,0,1,1.645,0v1.482h38.609v-1.482a.823.823,0,1,1,1.645,0v2.3A.821.821,0,0,1,1895.015,1082.513Z" transform="translate(-1853.938 -1078.563)"/>
  </g>
  <g id="Grupo_90763" data-name="Grupo 90763" transform="translate(141.863 70.06)">
    <path id="Trazado_134508" data-name="Trazado 134508" d="M1721.967,1079.063v2.3h33.675v-2.3" transform="translate(-1721.146 -1078.24)" fill="#fff"/>
    <path id="Trazado_134509" data-name="Trazado 134509" d="M1755.965,1082.513h-33.674a.822.822,0,0,1-.822-.823v-2.3a.822.822,0,1,1,1.645,0v1.482h32.029v-1.482a.823.823,0,1,1,1.645,0v2.3A.823.823,0,0,1,1755.965,1082.513Z" transform="translate(-1721.468 -1078.563)"/>
  </g>
  <g id="Grupo_90764" data-name="Grupo 90764" transform="translate(401.212 70.06)">
    <path id="Trazado_134510" data-name="Trazado 134510" d="M1879.622,1079.063v2.3h40.256v-2.3" transform="translate(-1878.799 -1078.24)" fill="#fff"/>
    <path id="Trazado_134511" data-name="Trazado 134511" d="M1920.2,1082.513h-40.256a.823.823,0,0,1-.823-.823v-2.3a.822.822,0,1,1,1.645,0v1.482h38.612v-1.482a.822.822,0,1,1,1.645,0v2.3A.823.823,0,0,1,1920.2,1082.513Z" transform="translate(-1879.122 -1078.563)"/>
  </g>
  <g id="Grupo_90765" data-name="Grupo 90765" transform="translate(64.641 70.06)">
    <path id="Trazado_134512" data-name="Trazado 134512" d="M1714.218,1079.063h-39.191v12.58h26.515v-7.935h12.677Z" transform="translate(-1674.203 -1078.24)" fill="#fff"/>
    <path id="Trazado_134513" data-name="Trazado 134513" d="M1701.864,1092.788h-26.515a.823.823,0,0,1-.822-.823v-12.58a.823.823,0,0,1,.822-.823h39.192a.823.823,0,0,1,.822.823v4.646a.823.823,0,0,1-.822.823h-11.854v7.112A.823.823,0,0,1,1701.864,1092.788Zm-25.693-1.645h24.87v-7.112a.821.821,0,0,1,.823-.823h11.854v-3h-37.547Z" transform="translate(-1674.526 -1078.563)"/>
  </g>
  <g id="Grupo_90766" data-name="Grupo 90766" transform="translate(64.641 82.639)">
    <path id="Trazado_134514" data-name="Trazado 134514" d="M1710.153,1088.162v3.193h-28.16v4.355h-6.967v-9h26.515v1.451Z" transform="translate(-1674.203 -1085.887)" fill="#fff"/>
    <path id="Trazado_134515" data-name="Trazado 134515" d="M1682.317,1096.855h-6.968a.823.823,0,0,1-.822-.823v-9a.823.823,0,0,1,.822-.822h26.515a.823.823,0,0,1,.822.822v.63h7.789a.821.821,0,0,1,.822.823v3.191a.821.821,0,0,1-.822.823h-27.336v3.534A.823.823,0,0,1,1682.317,1096.855Zm-6.146-1.645h5.323v-3.534a.822.822,0,0,1,.822-.823h27.336v-1.546h-7.789a.822.822,0,0,1-.823-.823v-.63h-24.87Z" transform="translate(-1674.526 -1086.21)"/>
  </g>
  <g id="Grupo_90767" data-name="Grupo 90767" transform="translate(8.709 27.675)">
    <path id="Trazado_134516" data-name="Trazado 134516" d="M1736.15,1095.683s-.979-21.537-8.058-40.031a3.714,3.714,0,0,0-3.478-2.354H1692.76a4.015,4.015,0,0,0-3.649,2.341l-7.442,16.239-32.485,2.249a7.843,7.843,0,0,0-6.9,5.368l-1.253,3.8H1674.4a11.2,11.2,0,0,1,8.888,4.387l6.123,8Z" transform="translate(-1640.204 -1052.475)" fill="#fff"/>
    <path id="Trazado_134517" data-name="Trazado 134517" d="M1736.472,1096.828h-46.739a.823.823,0,0,1-.655-.322l-6.123-8a10.426,10.426,0,0,0-8.233-4.067h-33.373a.821.821,0,0,1-.78-1.079l1.252-3.8a8.626,8.626,0,0,1,7.63-5.929l32-2.216,7.241-15.794a4.84,4.84,0,0,1,4.394-2.821h31.855a4.55,4.55,0,0,1,4.244,2.882c7.046,18.4,8.1,40.072,8.112,40.289a.821.821,0,0,1-.821.859Zm-46.333-1.645H1735.6c-.273-4.182-1.795-22.828-7.954-38.915a2.9,2.9,0,0,0-2.708-1.824h-31.855a3.194,3.194,0,0,0-2.9,1.86l-7.444,16.24a.826.826,0,0,1-.691.479l-32.485,2.249a6.99,6.99,0,0,0-6.181,4.8l-.9,2.722h32.235a12.09,12.09,0,0,1,9.541,4.711Z" transform="translate(-1640.526 -1052.798)"/>
  </g>
  <g id="Grupo_90768" data-name="Grupo 90768" transform="translate(2.517 57.672)">
    <path id="Trazado_134518" data-name="Trazado 134518" d="M1637.261,1087.354h7.355l8.516-10.015h23.031l9.1,11.226h8.128v-4.646h-1.548l-6.5-8.484a9.945,9.945,0,0,0-7.9-3.9h-33.987l-2.221,1.179a7.48,7.48,0,0,0-3.973,6.607Z" transform="translate(-1636.44 -1070.71)" fill="#fff"/>
    <path id="Trazado_134519" data-name="Trazado 134519" d="M1693.709,1089.711h-8.128a.826.826,0,0,1-.64-.306l-8.849-10.92h-22.258l-8.27,9.727a.822.822,0,0,1-.627.288h-7.354a.821.821,0,0,1-.823-.823v-8.033a8.284,8.284,0,0,1,4.407-7.333l2.222-1.181a.824.824,0,0,1,.385-.1h33.987a10.839,10.839,0,0,1,8.556,4.226l6.248,8.161h1.142a.823.823,0,0,1,.823.823v4.646A.823.823,0,0,1,1693.709,1089.711Zm-7.737-1.645h6.914v-3h-.725a.823.823,0,0,1-.655-.323l-6.495-8.485a9.188,9.188,0,0,0-7.248-3.58h-33.781l-2.041,1.084a6.648,6.648,0,0,0-3.534,5.883v7.21h6.151l8.268-9.725a.828.828,0,0,1,.627-.29h23.031a.826.826,0,0,1,.64.306Z" transform="translate(-1636.762 -1071.033)"/>
  </g>
  <g id="Grupo_90769" data-name="Grupo 90769" transform="translate(102.574 6.58)">
    <rect id="Rectángulo_7115" data-name="Rectángulo 7115" width="6.387" height="25.547" transform="translate(0.823 0.822)" fill="#fff"/>
    <path id="Trazado_134520" data-name="Trazado 134520" d="M1704.8,1067.166h-6.388a.823.823,0,0,1-.822-.823V1040.8a.822.822,0,0,1,.822-.822h6.388a.822.822,0,0,1,.823.822v25.546A.823.823,0,0,1,1704.8,1067.166Zm-5.565-1.645h4.743v-23.9h-4.743Z" transform="translate(-1697.585 -1039.975)"/>
  </g>
  <g id="Grupo_90770" data-name="Grupo 90770" transform="translate(101.026 32.126)">
    <rect id="Rectángulo_7116" data-name="Rectángulo 7116" width="10.838" height="24.192" transform="translate(0.822 0.823)" fill="#fff"/>
    <path id="Trazado_134521" data-name="Trazado 134521" d="M1708.3,1081.341h-10.838a.822.822,0,0,1-.823-.822v-24.192a.822.822,0,0,1,.823-.823H1708.3a.822.822,0,0,1,.823.823v24.192A.822.822,0,0,1,1708.3,1081.341Zm-10.015-1.645h9.193v-22.547h-9.193Z" transform="translate(-1696.644 -1055.504)"/>
  </g>
  <g id="Grupo_90771" data-name="Grupo 90771" transform="translate(101.026 56.318)">
    <rect id="Rectángulo_7117" data-name="Rectángulo 7117" width="13.548" height="3.532" transform="translate(0.822 0.823)" fill="#fff"/>
    <path id="Trazado_134522" data-name="Trazado 134522" d="M1711.014,1075.387h-13.547a.821.821,0,0,1-.823-.822v-3.532a.822.822,0,0,1,.823-.823h13.547a.823.823,0,0,1,.823.823v3.532A.822.822,0,0,1,1711.014,1075.387Zm-12.725-1.645h11.9v-1.887h-11.9Z" transform="translate(-1696.644 -1070.21)"/>
  </g>
  <g id="Grupo_90772" data-name="Grupo 90772" transform="translate(65.997 32.126)">
    <path id="Trazado_134523" data-name="Trazado 134523" d="M1675.85,1070.326h20.9a4.258,4.258,0,0,0,4.257-4.257V1056h-24Z" transform="translate(-1675.028 -1055.181)" fill="#fff"/>
    <path id="Trazado_134524" data-name="Trazado 134524" d="M1697.075,1071.471h-20.9a.821.821,0,0,1-.819-.888l1.161-14.322a.82.82,0,0,1,.819-.757h24a.823.823,0,0,1,.822.823v10.064A5.085,5.085,0,0,1,1697.075,1071.471Zm-20.011-1.645h20.011a3.44,3.44,0,0,0,3.435-3.435v-9.242h-22.417Z" transform="translate(-1675.35 -1055.504)"/>
  </g>
  <g id="Grupo_90773" data-name="Grupo 90773" transform="translate(52.835 30.965)">
    <path id="Trazado_134525" data-name="Trazado 134525" d="M1667.85,1070.781h9.677l1.936-15.483H1675.2Z" transform="translate(-1667.027 -1054.475)" fill="#fff"/>
    <path id="Trazado_134526" data-name="Trazado 134526" d="M1677.849,1071.926h-9.676a.822.822,0,0,1-.744-1.176l7.355-15.483a.82.82,0,0,1,.742-.469h4.257a.822.822,0,0,1,.816.923l-1.933,15.483A.825.825,0,0,1,1677.849,1071.926Zm-8.375-1.645h7.65l1.729-13.838h-2.8Z" transform="translate(-1667.349 -1054.798)"/>
  </g>
  <g id="Grupo_90774" data-name="Grupo 90774" transform="translate(206.89 84.092)">
    <path id="Trazado_134527" data-name="Trazado 134527" d="M1761.5,1087.592v10.819h2.323" transform="translate(-1760.675 -1086.771)" fill="#fff"/>
    <path id="Trazado_134528" data-name="Trazado 134528" d="M1764.14,1099.556h-2.321a.823.823,0,0,1-.822-.823v-10.818a.822.822,0,1,1,1.645,0v10h1.5a.823.823,0,1,1,0,1.645Z" transform="translate(-1760.997 -1087.093)"/>
  </g>
</svg>
