<svg id="Grupo_90737" data-name="Grupo 90737" xmlns="http://www.w3.org/2000/svg" width="417.941" height="91.639" viewBox="0 0 417.941 91.639">
  <g id="Grupo_90708" data-name="Grupo 90708" transform="translate(84.381 67.447)">
    <rect id="Rectángulo_7099" data-name="Rectángulo 7099" width="109.735" height="8.516" transform="translate(0.823 0.823)"/>
    <path id="Trazado_134445" data-name="Trazado 134445" d="M1797.084,985.017H1687.348a.822.822,0,0,1-.823-.822V975.68a.823.823,0,0,1,.823-.823h109.735a.822.822,0,0,1,.823.823v8.515A.821.821,0,0,1,1797.084,985.017Zm-108.913-1.645h108.09V976.5h-108.09Z" transform="translate(-1686.526 -974.857)"/>
  </g>
  <g id="Grupo_90709" data-name="Grupo 90709" transform="translate(0 57.093)">
    <path id="Trazado_134446" data-name="Trazado 134446" d="M1637.667,974.869h-1.935v9.387l6,4.379h48.384v-6.883h6.483V973.9h-7.234l-12.8-4.838h-25.256Z" transform="translate(-1634.909 -968.24)"/>
    <path id="Trazado_134447" data-name="Trazado 134447" d="M1690.439,989.779h-48.384a.816.816,0,0,1-.485-.158l-6-4.379a.828.828,0,0,1-.339-.665v-9.385a.822.822,0,0,1,.823-.823h1.768l13.489-5.74a.8.8,0,0,1,.321-.068h25.258a.791.791,0,0,1,.289.054l12.659,4.784h7.082a.822.822,0,0,1,.822.823v7.85a.821.821,0,0,1-.822.823h-5.661v6.06A.823.823,0,0,1,1690.439,989.779Zm-48.117-1.645h47.294v-6.061a.823.823,0,0,1,.823-.822h5.66v-6.205h-6.411a.84.84,0,0,1-.291-.053l-12.657-4.786H1651.8l-13.49,5.741a.829.829,0,0,1-.322.066h-1.112v8.145Z" transform="translate(-1635.232 -968.563)"/>
  </g>
  <g id="Grupo_90710" data-name="Grupo 90710" transform="translate(368.686 61.931)">
    <circle id="Elipse_4254" data-name="Elipse 4254" cx="14.031" cy="14.031" r="14.031" transform="translate(0.822 0.823)"/>
    <path id="Trazado_134448" data-name="Trazado 134448" d="M1874.2,1001.212a14.854,14.854,0,1,1,14.853-14.855A14.869,14.869,0,0,1,1874.2,1001.212Zm0-28.063a13.209,13.209,0,1,0,13.208,13.208A13.222,13.222,0,0,0,1874.2,973.149Z" transform="translate(-1859.35 -971.504)"/>
  </g>
  <g id="Grupo_90711" data-name="Grupo 90711" transform="translate(159.402 61.931)">
    <circle id="Elipse_4255" data-name="Elipse 4255" cx="14.031" cy="14.031" r="14.031" transform="translate(0.823 0.823)"/>
    <path id="Trazado_134449" data-name="Trazado 134449" d="M1746.985,1001.212a14.854,14.854,0,1,1,14.853-14.855A14.871,14.871,0,0,1,1746.985,1001.212Zm0-28.063a13.209,13.209,0,1,0,13.208,13.208A13.223,13.223,0,0,0,1746.985,973.149Z" transform="translate(-1732.13 -971.504)"/>
  </g>
  <g id="Grupo_90712" data-name="Grupo 90712" transform="translate(15.579 61.931)">
    <circle id="Elipse_4256" data-name="Elipse 4256" cx="14.031" cy="14.031" r="14.031" transform="translate(0.824 0.823)"/>
    <path id="Trazado_134450" data-name="Trazado 134450" d="M1659.557,1001.212a14.854,14.854,0,1,1,14.855-14.855A14.871,14.871,0,0,1,1659.557,1001.212Zm0-28.063a13.209,13.209,0,1,0,13.21,13.208A13.224,13.224,0,0,0,1659.557,973.149Z" transform="translate(-1644.702 -971.504)"/>
  </g>
  <g id="Grupo_90713" data-name="Grupo 90713" transform="translate(122.122)">
    <rect id="Rectángulo_7100" data-name="Rectángulo 7100" width="294.175" height="61.931" transform="translate(0.821 0.823)" fill="#fff"/>
    <path id="Trazado_134451" data-name="Trazado 134451" d="M2004.464,997.433H1710.291a.822.822,0,0,1-.823-.822V934.68a.822.822,0,0,1,.823-.823h294.174a.823.823,0,0,1,.823.823v61.932A.823.823,0,0,1,2004.464,997.433Zm-293.351-1.645h292.529V935.5H1711.113Z" transform="translate(-1709.468 -933.857)"/>
  </g>
  <g id="Grupo_90714" data-name="Grupo 90714" transform="translate(127.928 3.871)">
    <rect id="Rectángulo_7101" data-name="Rectángulo 7101" width="283.724" height="58.061" transform="translate(0.822 0.823)" fill="#fff"/>
    <path id="Trazado_134452" data-name="Trazado 134452" d="M1997.544,995.916H1713.82a.823.823,0,0,1-.822-.822V937.033a.823.823,0,0,1,.822-.823h283.724a.823.823,0,0,1,.823.823v58.061A.823.823,0,0,1,1997.544,995.916Zm-282.9-1.645h282.079V937.855H1714.642Z" transform="translate(-1712.997 -936.21)"/>
  </g>
  <g id="Grupo_90715" data-name="Grupo 90715" transform="translate(400.426 61.931)">
    <path id="Trazado_134453" data-name="Trazado 134453" d="M1881.853,995.229v-6.58h-2.709V972" transform="translate(-1878.322 -971.182)" fill="#fff"/>
    <path id="Trazado_134454" data-name="Trazado 134454" d="M1882.176,996.374a.823.823,0,0,1-.823-.823v-5.758h-1.887a.822.822,0,0,1-.822-.823V972.327a.822.822,0,1,1,1.645,0v15.822h1.887a.823.823,0,0,1,.823.822v6.58A.823.823,0,0,1,1882.176,996.374Z" transform="translate(-1878.644 -971.504)"/>
  </g>
  <g id="Grupo_90716" data-name="Grupo 90716" transform="translate(374.201 67.447)">
    <circle id="Elipse_4257" data-name="Elipse 4257" cx="8.516" cy="8.516" r="8.516" transform="translate(0.824 0.823)" fill="#fff"/>
    <path id="Trazado_134455" data-name="Trazado 134455" d="M1872.041,993.533a9.338,9.338,0,1,1,9.339-9.339A9.35,9.35,0,0,1,1872.041,993.533Zm0-17.031a7.693,7.693,0,1,0,7.694,7.693A7.7,7.7,0,0,0,1872.041,976.5Z" transform="translate(-1862.702 -974.857)"/>
  </g>
  <g id="Grupo_90717" data-name="Grupo 90717" transform="translate(379.04 72.285)">
    <circle id="Elipse_4258" data-name="Elipse 4258" cx="3.677" cy="3.677" r="3.677" transform="translate(0.822 0.823)" fill="#fff"/>
    <path id="Trazado_134456" data-name="Trazado 134456" d="M1870.143,986.8a4.5,4.5,0,1,1,4.5-4.5A4.506,4.506,0,0,1,1870.143,986.8Zm0-7.355A2.855,2.855,0,1,0,1873,982.3,2.857,2.857,0,0,0,1870.143,979.443Z" transform="translate(-1865.644 -977.798)"/>
  </g>
  <g id="Grupo_90718" data-name="Grupo 90718" transform="translate(164.918 67.447)">
    <circle id="Elipse_4259" data-name="Elipse 4259" cx="8.516" cy="8.516" r="8.516" transform="translate(0.823 0.823)" fill="#fff"/>
    <path id="Trazado_134457" data-name="Trazado 134457" d="M1744.822,993.533a9.338,9.338,0,1,1,9.337-9.339A9.35,9.35,0,0,1,1744.822,993.533Zm0-17.031a7.693,7.693,0,1,0,7.692,7.693A7.7,7.7,0,0,0,1744.822,976.5Z" transform="translate(-1735.483 -974.857)"/>
  </g>
  <g id="Grupo_90719" data-name="Grupo 90719" transform="translate(169.758 72.285)">
    <circle id="Elipse_4260" data-name="Elipse 4260" cx="3.677" cy="3.677" r="3.677" transform="translate(0.822 0.823)" fill="#fff"/>
    <path id="Trazado_134458" data-name="Trazado 134458" d="M1742.924,986.8a4.5,4.5,0,1,1,4.5-4.5A4.506,4.506,0,0,1,1742.924,986.8Zm0-7.355a2.855,2.855,0,1,0,2.854,2.854A2.857,2.857,0,0,0,1742.924,979.443Z" transform="translate(-1738.425 -977.798)"/>
  </g>
  <g id="Grupo_90720" data-name="Grupo 90720" transform="translate(21.096 67.447)">
    <circle id="Elipse_4261" data-name="Elipse 4261" cx="8.516" cy="8.516" r="8.516" transform="translate(0.822 0.823)" fill="#fff"/>
    <path id="Trazado_134459" data-name="Trazado 134459" d="M1657.393,993.533a9.338,9.338,0,1,1,9.337-9.339A9.35,9.35,0,0,1,1657.393,993.533Zm0-17.031a7.693,7.693,0,1,0,7.692,7.693A7.7,7.7,0,0,0,1657.393,976.5Z" transform="translate(-1648.056 -974.857)"/>
  </g>
  <g id="Grupo_90721" data-name="Grupo 90721" transform="translate(25.934 72.285)">
    <circle id="Elipse_4262" data-name="Elipse 4262" cx="3.677" cy="3.677" r="3.677" transform="translate(0.822 0.823)" fill="#fff"/>
    <path id="Trazado_134460" data-name="Trazado 134460" d="M1655.5,986.8a4.5,4.5,0,1,1,4.5-4.5A4.507,4.507,0,0,1,1655.5,986.8Zm0-7.355a2.855,2.855,0,1,0,2.856,2.854A2.857,2.857,0,0,0,1655.5,979.443Z" transform="translate(-1650.997 -977.798)"/>
  </g>
  <g id="Grupo_90722" data-name="Grupo 90722" transform="translate(209.6 61.931)">
    <path id="Trazado_134461" data-name="Trazado 134461" d="M1763.144,972h6.58v14.031h6.967V972h5.806" transform="translate(-1762.321 -971.182)" fill="#fff"/>
    <path id="Trazado_134462" data-name="Trazado 134462" d="M1777.014,987.18h-6.967a.821.821,0,0,1-.823-.822V973.149h-5.758a.823.823,0,1,1,0-1.645h6.58a.823.823,0,0,1,.823.823v13.208h5.322V972.327a.823.823,0,0,1,.823-.823h5.805a.823.823,0,1,1,0,1.645h-4.983v13.208A.822.822,0,0,1,1777.014,987.18Z" transform="translate(-1762.644 -971.504)"/>
  </g>
  <g id="Grupo_90723" data-name="Grupo 90723" transform="translate(189.665 75.962)">
    <path id="Trazado_134463" data-name="Trazado 134463" d="M1755.478,990.694v-5.613h-4.451v-4.548" transform="translate(-1750.204 -979.71)" fill="#fff"/>
    <path id="Trazado_134464" data-name="Trazado 134464" d="M1755.8,991.84a.823.823,0,0,1-.823-.823v-4.791h-3.629a.823.823,0,0,1-.823-.823v-4.548a.823.823,0,1,1,1.645,0v3.726h3.629a.821.821,0,0,1,.823.822v5.613A.822.822,0,0,1,1755.8,991.84Z" transform="translate(-1750.526 -980.033)"/>
  </g>
  <g id="Grupo_90728" data-name="Grupo 90728" transform="translate(92.704 65.802)">
    <g id="Grupo_90724" data-name="Grupo 90724">
      <rect id="Rectángulo_7102" data-name="Rectángulo 7102" width="23.611" height="11.806" transform="translate(0.823 0.823)" fill="#fff"/>
      <path id="Trazado_134465" data-name="Trazado 134465" d="M1716.019,987.307h-23.611a.822.822,0,0,1-.823-.823v-11.8a.823.823,0,0,1,.823-.823h23.611a.823.823,0,0,1,.823.823v11.8A.822.822,0,0,1,1716.019,987.307Zm-22.789-1.645H1715.2V975.5H1693.23Z" transform="translate(-1691.585 -973.857)"/>
    </g>
    <g id="Grupo_90727" data-name="Grupo 90727" transform="translate(3.048)">
      <g id="Grupo_90725" data-name="Grupo 90725">
        <rect id="Rectángulo_7103" data-name="Rectángulo 7103" width="3" height="11.806" transform="translate(0.822 0.823)" fill="#fff"/>
        <path id="Trazado_134466" data-name="Trazado 134466" d="M1697.261,987.307h-3a.821.821,0,0,1-.823-.823v-11.8a.822.822,0,0,1,.823-.823h3a.823.823,0,0,1,.822.823v11.8A.822.822,0,0,1,1697.261,987.307Zm-2.178-1.645h1.356V975.5h-1.356Z" transform="translate(-1693.438 -973.857)"/>
      </g>
      <g id="Grupo_90726" data-name="Grupo 90726" transform="translate(14.516)">
        <rect id="Rectángulo_7104" data-name="Rectángulo 7104" width="3" height="11.806" transform="translate(0.822 0.823)" fill="#fff"/>
        <path id="Trazado_134467" data-name="Trazado 134467" d="M1706.083,987.307h-3a.821.821,0,0,1-.822-.823v-11.8a.822.822,0,0,1,.822-.823h3a.823.823,0,0,1,.823.823v11.8A.822.822,0,0,1,1706.083,987.307Zm-2.176-1.645h1.354V975.5h-1.354Z" transform="translate(-1702.262 -973.857)"/>
      </g>
    </g>
  </g>
  <g id="Grupo_90729" data-name="Grupo 90729" transform="translate(95.752 3.871)">
    <rect id="Rectángulo_7105" data-name="Rectángulo 7105" width="6.629" height="23.224" transform="translate(0.822 0.823)" fill="#fff"/>
    <path id="Trazado_134468" data-name="Trazado 134468" d="M1700.89,961.08h-6.629a.822.822,0,0,1-.823-.823V937.033a.822.822,0,0,1,.823-.823h6.629a.823.823,0,0,1,.823.823v23.225A.823.823,0,0,1,1700.89,961.08Zm-5.807-1.645h4.984v-21.58h-4.984Z" transform="translate(-1693.438 -936.21)"/>
  </g>
  <g id="Grupo_90730" data-name="Grupo 90730" transform="translate(94.541 27.096)">
    <rect id="Rectángulo_7106" data-name="Rectángulo 7106" width="9.967" height="22.45" transform="translate(0.824 0.822)" fill="#fff"/>
    <path id="Trazado_134469" data-name="Trazado 134469" d="M1703.493,974.423h-9.969a.823.823,0,0,1-.822-.823V951.15a.823.823,0,0,1,.822-.822h9.969a.823.823,0,0,1,.823.822V973.6A.823.823,0,0,1,1703.493,974.423Zm-9.146-1.645h8.324V951.973h-8.324Z" transform="translate(-1692.702 -950.328)"/>
  </g>
  <g id="Grupo_90731" data-name="Grupo 90731" transform="translate(94.541 49.546)">
    <rect id="Rectángulo_7107" data-name="Rectángulo 7107" width="13.064" height="3.871" transform="translate(0.824 0.822)" fill="#fff"/>
    <path id="Trazado_134470" data-name="Trazado 134470" d="M1706.59,969.491h-13.065a.823.823,0,0,1-.822-.823V964.8a.822.822,0,0,1,.822-.823h13.065a.822.822,0,0,1,.822.823v3.871A.823.823,0,0,1,1706.59,969.491Zm-12.243-1.645h11.42V965.62h-11.42Z" transform="translate(-1692.702 -963.975)"/>
  </g>
  <g id="Grupo_90732" data-name="Grupo 90732" transform="translate(7.742 23.876)">
    <path id="Trazado_134471" data-name="Trazado 134471" d="M1640.438,976.474v-2.05a7.121,7.121,0,0,1,6.643-7.105l32.258-2.167,5.682-13.837a3.905,3.905,0,0,1,3.612-2.42h32.219s6-2.323,9.1,38.029h2.274V990.8h-15.145v6.483h-23.514V986.926h-7.234l-7.281-10.451Z" transform="translate(-1639.615 -948.048)" fill="#fff"/>
    <path id="Trazado_134472" data-name="Trazado 134472" d="M1717.4,998.425h-23.514a.823.823,0,0,1-.823-.823v-9.531h-6.411a.824.824,0,0,1-.674-.352l-7.038-10.1h-38.18a.821.821,0,0,1-.822-.823v-2.051a7.964,7.964,0,0,1,7.411-7.924l31.746-2.132,5.486-13.363a4.714,4.714,0,0,1,4.374-2.93h32.122a1.994,1.994,0,0,1,1.457.354c2.665,1.678,6.291,9.592,8.5,37.675h1.512a.822.822,0,0,1,.823.823v3.871a.821.821,0,0,1-.823.823h-14.322V997.6A.822.822,0,0,1,1717.4,998.425Zm-22.692-1.645h21.869v-5.661a.823.823,0,0,1,.823-.823h14.322v-2.226h-1.451a.822.822,0,0,1-.821-.76c-2.831-36.905-8.03-37.293-8.094-37.293h0a.328.328,0,0,1-.183.025h-32.219a3.073,3.073,0,0,0-2.851,1.911l-5.682,13.835a.826.826,0,0,1-.707.508l-32.256,2.167a6.312,6.312,0,0,0-5.876,6.282v1.229h37.787a.823.823,0,0,1,.675.352l7.037,10.1h6.8a.822.822,0,0,1,.823.823Z" transform="translate(-1639.938 -948.371)"/>
  </g>
  <g id="Grupo_90733" data-name="Grupo 90733" transform="translate(60.867 72.285)">
    <path id="Trazado_134473" data-name="Trazado 134473" d="M1672.732,987.056h5.225V983.62h26.611V978.3h-31.837Z" transform="translate(-1671.91 -977.475)" fill="#fff"/>
    <path id="Trazado_134474" data-name="Trazado 134474" d="M1678.279,988.2h-5.224a.823.823,0,0,1-.823-.823V978.62a.822.822,0,0,1,.823-.822h31.837a.822.822,0,0,1,.823.822v5.322a.822.822,0,0,1-.823.822H1679.1v2.614A.822.822,0,0,1,1678.279,988.2Zm-4.4-1.645h3.579v-2.614a.823.823,0,0,1,.823-.823h25.789v-3.677h-30.191Z" transform="translate(-1672.232 -977.798)"/>
  </g>
  <g id="Grupo_90734" data-name="Grupo 90734" transform="translate(1.934 51.48)">
    <path id="Trazado_134475" data-name="Trazado 134475" d="M1642.714,965.651l-2.65,1.678a6.793,6.793,0,0,0-3.155,5.736v5.554h8.321l5.323-7.355h25.257l7.74,10.354h7.355V976.1h-2.3l-7.281-10.451Z" transform="translate(-1636.085 -964.829)" fill="#fff"/>
    <path id="Trazado_134476" data-name="Trazado 134476" d="M1691.228,982.763h-7.354a.825.825,0,0,1-.66-.329l-7.493-10.025H1651.3l-5.075,7.013a.822.822,0,0,1-.666.34h-8.324a.822.822,0,0,1-.822-.823v-5.552a7.576,7.576,0,0,1,3.54-6.43l2.648-1.678a.835.835,0,0,1,.441-.128h38.609a.823.823,0,0,1,.675.352l7.037,10.1h1.869a.822.822,0,0,1,.822.823v5.516A.821.821,0,0,1,1691.228,982.763Zm-6.942-1.645h6.12v-3.871h-1.476a.824.824,0,0,1-.674-.352l-7.038-10.1h-37.943l-2.446,1.551a5.938,5.938,0,0,0-2.775,5.041v4.729h7.082l5.073-7.011a.824.824,0,0,1,.666-.342h25.258a.826.826,0,0,1,.658.33Z" transform="translate(-1636.408 -965.151)"/>
  </g>
  <g id="Grupo_90735" data-name="Grupo 90735" transform="translate(61.931 27.096)">
    <rect id="Rectángulo_7108" data-name="Rectángulo 7108" width="23.611" height="12.773" transform="translate(0.823 0.822)" fill="#fff"/>
    <path id="Trazado_134477" data-name="Trazado 134477" d="M1697.313,964.747H1673.7a.823.823,0,0,1-.822-.823V951.15a.823.823,0,0,1,.822-.822h23.612a.822.822,0,0,1,.822.822v12.774A.822.822,0,0,1,1697.313,964.747Zm-22.789-1.645h21.967V951.973h-21.967Z" transform="translate(-1672.879 -950.328)"/>
  </g>
  <g id="Grupo_90736" data-name="Grupo 90736" transform="translate(50.125 27.096)">
    <path id="Trazado_134478" data-name="Trazado 134478" d="M1666.2,963.6h9.1V950.828h-3.29Z" transform="translate(-1665.379 -950.006)" fill="#fff"/>
    <path id="Trazado_134479" data-name="Trazado 134479" d="M1675.622,964.747h-9.1a.824.824,0,0,1-.749-1.163l5.807-12.774a.821.821,0,0,1,.749-.482h3.29a.822.822,0,0,1,.822.822v12.774A.822.822,0,0,1,1675.622,964.747ZM1667.8,963.1h7V951.973h-1.936Z" transform="translate(-1665.702 -950.328)"/>
  </g>
</svg>
