<svg id="Grupo_91059" data-name="Grupo 91059" xmlns="http://www.w3.org/2000/svg" width="537.306" height="98.001" viewBox="0 0 537.306 98.001">
  <g id="Grupo_91015" data-name="Grupo 91015" transform="translate(347.714 69.004)">
    <ellipse id="Elipse_4353" data-name="Elipse 4353" cx="16.231" cy="13.087" rx="16.231" ry="13.087" transform="translate(0.873 0.873)"/>
    <path id="Trazado_134802" data-name="Trazado 134802" d="M2910.068,1310.347c-9.433,0-17.106-6.263-17.106-13.959s7.673-13.96,17.106-13.96,17.1,6.263,17.1,13.96S2919.5,1310.347,2910.068,1310.347Zm0-26.172c-8.469,0-15.359,5.477-15.359,12.213s6.89,12.213,15.359,12.213,15.358-5.478,15.358-12.213S2918.535,1284.175,2910.068,1284.175Z" transform="translate(-2892.962 -1282.428)"/>
  </g>
  <g id="Grupo_91016" data-name="Grupo 91016" transform="translate(354.094 74.15)">
    <ellipse id="Elipse_4354" data-name="Elipse 4354" cx="9.851" cy="7.942" rx="9.851" ry="7.942" transform="translate(0.874 0.873)" fill="#fff"/>
    <path id="Trazado_134803" data-name="Trazado 134803" d="M2907.341,1303c-5.914,0-10.726-3.956-10.726-8.816s4.812-8.814,10.726-8.814,10.723,3.954,10.723,8.814S2913.255,1303,2907.341,1303Zm0-15.884c-4.951,0-8.979,3.17-8.979,7.068s4.028,7.07,8.979,7.07,8.976-3.172,8.976-7.07S2912.292,1287.121,2907.341,1287.121Z" transform="translate(-2896.616 -1285.374)"/>
  </g>
  <g id="Grupo_91017" data-name="Grupo 91017" transform="translate(359.691 78.661)">
    <ellipse id="Elipse_4355" data-name="Elipse 4355" cx="4.254" cy="3.43" rx="4.254" ry="3.43" transform="translate(0.874 0.874)" fill="#fff"/>
    <path id="Trazado_134804" data-name="Trazado 134804" d="M2904.948,1296.563c-2.828,0-5.127-1.932-5.127-4.3s2.3-4.3,5.127-4.3,5.125,1.931,5.125,4.3S2907.776,1296.563,2904.948,1296.563Zm0-6.86c-1.865,0-3.381,1.146-3.381,2.557s1.516,2.557,3.381,2.557,3.379-1.146,3.379-2.557S2906.812,1289.7,2904.948,1289.7Z" transform="translate(-2899.821 -1287.957)"/>
  </g>
  <g id="Grupo_91018" data-name="Grupo 91018" transform="translate(496.64 70.082)">
    <ellipse id="Elipse_4356" data-name="Elipse 4356" cx="16.231" cy="13.087" rx="16.231" ry="13.087" transform="translate(0.875 0.873)"/>
    <path id="Trazado_134805" data-name="Trazado 134805" d="M2995.341,1310.964c-9.431,0-17.1-6.263-17.1-13.959s7.674-13.96,17.1-13.96,17.1,6.263,17.1,13.96S3004.773,1310.964,2995.341,1310.964Zm0-26.172c-8.467,0-15.358,5.479-15.358,12.213s6.891,12.213,15.358,12.213S3010.7,1303.74,3010.7,1297,3003.809,1284.791,2995.341,1284.791Z" transform="translate(-2978.236 -1283.045)"/>
  </g>
  <g id="Grupo_91019" data-name="Grupo 91019" transform="translate(503.024 75.225)">
    <ellipse id="Elipse_4357" data-name="Elipse 4357" cx="9.851" cy="7.942" rx="9.851" ry="7.942" transform="translate(0.872 0.874)" fill="#fff"/>
    <path id="Trazado_134806" data-name="Trazado 134806" d="M2992.613,1303.622c-5.912,0-10.722-3.956-10.722-8.816s4.81-8.816,10.722-8.816,10.725,3.956,10.725,8.816S2998.526,1303.622,2992.613,1303.622Zm0-15.886c-4.95,0-8.975,3.172-8.975,7.07s4.025,7.07,8.975,7.07,8.978-3.17,8.978-7.07S2997.564,1287.736,2992.613,1287.736Z" transform="translate(-2981.891 -1285.99)"/>
  </g>
  <g id="Grupo_91020" data-name="Grupo 91020" transform="translate(508.619 79.738)">
    <ellipse id="Elipse_4358" data-name="Elipse 4358" cx="4.254" cy="3.43" rx="4.254" ry="3.43" transform="translate(0.873 0.874)" fill="#fff"/>
    <path id="Trazado_134807" data-name="Trazado 134807" d="M2990.221,1297.18c-2.828,0-5.126-1.931-5.126-4.3s2.3-4.3,5.126-4.3,5.127,1.932,5.127,4.3S2993.048,1297.18,2990.221,1297.18Zm0-6.86c-1.864,0-3.38,1.146-3.38,2.557s1.516,2.557,3.38,2.557,3.381-1.146,3.381-2.557S2992.086,1290.32,2990.221,1290.32Z" transform="translate(-2985.095 -1288.574)"/>
  </g>
  <g id="Grupo_91021" data-name="Grupo 91021" transform="translate(332.659)">
    <rect id="Rectángulo_7189" data-name="Rectángulo 7189" width="202.902" height="66.953" transform="translate(0.872 0.874)" fill="#fff"/>
    <path id="Trazado_134808" data-name="Trazado 134808" d="M3088.116,1311.618h-202.9a.872.872,0,0,1-.873-.873V1243.79a.872.872,0,0,1,.873-.873h202.9a.872.872,0,0,1,.873.873v66.954A.872.872,0,0,1,3088.116,1311.618Zm-202.027-1.746h201.154v-65.208H2886.089Z" transform="translate(-2884.343 -1242.917)"/>
  </g>
  <g id="Grupo_91022" data-name="Grupo 91022" transform="translate(339.591 4.185)">
    <rect id="Rectángulo_7190" data-name="Rectángulo 7190" width="189.039" height="62.771" transform="translate(0.872 0.872)" fill="#fff"/>
    <path id="Trazado_134809" data-name="Trazado 134809" d="M3078.222,1309.829H2889.185a.873.873,0,0,1-.874-.873v-62.77a.871.871,0,0,1,.874-.873h189.037a.872.872,0,0,1,.873.873v62.77A.873.873,0,0,1,3078.222,1309.829Zm-188.164-1.746h187.291v-61.023H2890.058Z" transform="translate(-2888.312 -1245.313)"/>
  </g>
  <g id="Grupo_91023" data-name="Grupo 91023" transform="translate(308.831 66.352)">
    <rect id="Rectángulo_7191" data-name="Rectángulo 7191" width="14.177" height="2.987" transform="translate(0.874 0.874)"/>
    <path id="Trazado_134810" data-name="Trazado 134810" d="M2885.75,1285.644h-14.177a.874.874,0,0,1-.873-.873v-2.988a.874.874,0,0,1,.873-.873h14.177a.872.872,0,0,1,.873.873v2.988A.872.872,0,0,1,2885.75,1285.644Zm-13.3-1.746h12.431v-1.242h-12.431Z" transform="translate(-2870.699 -1280.909)"/>
  </g>
  <g id="Grupo_91024" data-name="Grupo 91024" transform="translate(311.4 69.34)">
    <rect id="Rectángulo_7192" data-name="Rectángulo 7192" width="9.041" height="1.758" transform="translate(0.873 0.873)"/>
    <path id="Trazado_134811" data-name="Trazado 134811" d="M2882.085,1286.125h-9.042a.874.874,0,0,1-.873-.873v-1.759a.874.874,0,0,1,.873-.873h9.042a.874.874,0,0,1,.873.873v1.759A.873.873,0,0,1,2882.085,1286.125Zm-8.168-1.746,7.295-.012Z" transform="translate(-2872.17 -1282.62)"/>
  </g>
  <g id="Grupo_91025" data-name="Grupo 91025" transform="translate(323.302 67.176)">
    <rect id="Rectángulo_7193" data-name="Rectángulo 7193" width="62.475" height="1.348" transform="translate(0.873 0.873)"/>
    <rect id="Rectángulo_7194" data-name="Rectángulo 7194" width="64.22" height="3.096" rx="0.5"/>
  </g>
  <g id="Grupo_91026" data-name="Grupo 91026" transform="translate(383.363 70.877)">
    <path id="Trazado_134812" data-name="Trazado 134812" d="M2913.875,1284v14.639h1.9v5.034" transform="translate(-2913.002 -1283.127)" fill="#fff"/>
    <path id="Trazado_134813" data-name="Trazado 134813" d="M2916.149,1304.921a.873.873,0,0,1-.873-.873v-4.162h-1.027a.874.874,0,0,1-.873-.873v-14.639a.873.873,0,0,1,1.747,0v13.766h1.027a.872.872,0,0,1,.873.873v5.035A.874.874,0,0,1,2916.149,1304.921Z" transform="translate(-2913.375 -1283.5)"/>
  </g>
  <g id="Grupo_91027" data-name="Grupo 91027" transform="translate(531.662 69.179)">
    <path id="Trazado_134814" data-name="Trazado 134814" d="M2998.79,1283.028v15.487h1.9v5.034" transform="translate(-2997.916 -1282.155)" fill="#fff"/>
    <path id="Trazado_134815" data-name="Trazado 134815" d="M3001.064,1304.8a.872.872,0,0,1-.873-.873v-4.16h-1.029a.873.873,0,0,1-.873-.873V1283.4a.873.873,0,1,1,1.746,0v14.615h1.029a.872.872,0,0,1,.873.873v5.033A.872.872,0,0,1,3001.064,1304.8Z" transform="translate(-2998.289 -1282.528)"/>
  </g>
  <g id="Grupo_91028" data-name="Grupo 91028" transform="translate(493.909 66.911)">
    <path id="Trazado_134816" data-name="Trazado 134816" d="M3018.844,1285.138h-41.3a.873.873,0,0,1-.873-.873v-1.914a.873.873,0,1,1,1.746,0v1.041h39.552V1282.1a.873.873,0,1,1,1.747,0v2.162A.873.873,0,0,1,3018.844,1285.138Z" transform="translate(-2976.672 -1281.229)"/>
  </g>
  <g id="Grupo_91029" data-name="Grupo 91029" transform="translate(126.222 68.921)">
    <rect id="Rectángulo_7195" data-name="Rectángulo 7195" width="186.219" height="10.067" transform="translate(0.872 0.872)"/>
    <path id="Trazado_134817" data-name="Trazado 134817" d="M2953.232,1294.193H2767.013a.873.873,0,0,1-.873-.873v-10.067a.873.873,0,0,1,.873-.873h186.219a.874.874,0,0,1,.873.873v10.067A.874.874,0,0,1,2953.232,1294.193Zm-185.345-1.747h184.472v-8.32H2767.886Z" transform="translate(-2766.14 -1282.38)"/>
  </g>
  <g id="Grupo_91030" data-name="Grupo 91030" transform="translate(0 59.327)">
    <path id="Trazado_134818" data-name="Trazado 134818" d="M2796.506,1281.856V1292.1h-8.464v4.943h-89.147l-4.528-5.033v-7.942h1.793l15.807-6.684h62.149l12.719,4.315Z" transform="translate(-2693.493 -1276.514)"/>
    <path id="Trazado_134819" data-name="Trazado 134819" d="M2788.415,1298.293h-89.146a.878.878,0,0,1-.65-.29l-4.528-5.034a.877.877,0,0,1-.224-.583v-7.943a.874.874,0,0,1,.874-.873h1.614l15.646-6.615a.876.876,0,0,1,.339-.068h62.149a.9.9,0,0,1,.281.045l12.587,4.27,9.534.152a.873.873,0,0,1,.861.873v10.248a.873.873,0,0,1-.873.873h-7.591v4.071A.873.873,0,0,1,2788.415,1298.293Zm-88.756-1.746h87.883v-4.071a.873.873,0,0,1,.873-.873h7.591v-8.514l-8.811-.141a.87.87,0,0,1-.267-.045l-12.582-4.268h-61.828l-15.646,6.616a.91.91,0,0,1-.339.068h-.919v6.734Z" transform="translate(-2693.867 -1276.887)"/>
  </g>
  <g id="Grupo_91031" data-name="Grupo 91031" transform="translate(217.534 66.011)">
    <ellipse id="Elipse_4359" data-name="Elipse 4359" cx="13.916" cy="12.975" rx="13.916" ry="12.975" transform="translate(0.873 0.873)"/>
    <path id="Trazado_134820" data-name="Trazado 134820" d="M2833.215,1308.411c-8.156,0-14.791-6.212-14.791-13.848s6.634-13.85,14.791-13.85,14.787,6.212,14.787,13.85S2841.369,1308.411,2833.215,1308.411Zm0-25.951c-7.194,0-13.044,5.428-13.044,12.1s5.851,12.1,13.044,12.1,13.041-5.428,13.041-12.1S2840.407,1282.46,2833.215,1282.46Z" transform="translate(-2818.424 -1280.714)"/>
  </g>
  <g id="Grupo_91032" data-name="Grupo 91032" transform="translate(17.69 66.011)">
    <ellipse id="Elipse_4360" data-name="Elipse 4360" cx="13.916" cy="12.975" rx="13.916" ry="12.975" transform="translate(0.874 0.873)"/>
    <path id="Trazado_134821" data-name="Trazado 134821" d="M2718.787,1308.411c-8.156,0-14.791-6.212-14.791-13.848s6.635-13.85,14.791-13.85,14.791,6.212,14.791,13.85S2726.943,1308.411,2718.787,1308.411Zm0-25.951c-7.192,0-13.044,5.428-13.044,12.1s5.852,12.1,13.044,12.1,13.044-5.428,13.044-12.1S2725.979,1282.46,2718.787,1282.46Z" transform="translate(-2703.996 -1280.714)"/>
  </g>
  <g id="Grupo_91033" data-name="Grupo 91033" transform="translate(55.353 66.011)">
    <ellipse id="Elipse_4361" data-name="Elipse 4361" cx="13.916" cy="12.975" rx="13.916" ry="12.975" transform="translate(0.872 0.873)"/>
    <path id="Trazado_134822" data-name="Trazado 134822" d="M2740.348,1308.411c-8.154,0-14.787-6.212-14.787-13.848s6.633-13.85,14.787-13.85,14.791,6.212,14.791,13.85S2748.5,1308.411,2740.348,1308.411Zm0-25.951c-7.192,0-13.041,5.428-13.041,12.1s5.849,12.1,13.041,12.1,13.045-5.428,13.045-12.1S2747.54,1282.46,2740.348,1282.46Z" transform="translate(-2725.561 -1280.714)"/>
  </g>
  <g id="Grupo_91034" data-name="Grupo 91034" transform="translate(255.529 66.011)">
    <ellipse id="Elipse_4362" data-name="Elipse 4362" cx="13.916" cy="12.975" rx="13.916" ry="12.975" transform="translate(0.874 0.873)"/>
    <path id="Trazado_134823" data-name="Trazado 134823" d="M2854.968,1308.411c-8.154,0-14.79-6.212-14.79-13.848s6.635-13.85,14.79-13.85,14.791,6.212,14.791,13.85S2863.124,1308.411,2854.968,1308.411Zm0-25.951c-7.192,0-13.043,5.428-13.043,12.1s5.851,12.1,13.043,12.1,13.044-5.428,13.044-12.1S2862.162,1282.46,2854.968,1282.46Z" transform="translate(-2840.179 -1280.714)"/>
  </g>
  <g id="Grupo_91035" data-name="Grupo 91035" transform="translate(286.834 77.56)">
    <path id="Trazado_134824" data-name="Trazado 134824" d="M2858.6,1287.827v5.65h2.641V1298" transform="translate(-2857.73 -1286.953)" fill="#fff"/>
    <path id="Trazado_134825" data-name="Trazado 134825" d="M2861.62,1299.243a.872.872,0,0,1-.873-.873v-3.645h-1.77a.873.873,0,0,1-.873-.873V1288.2a.873.873,0,1,1,1.746,0v4.778h1.769a.872.872,0,0,1,.873.873v4.518A.871.871,0,0,1,2861.62,1299.243Z" transform="translate(-2858.104 -1287.327)"/>
  </g>
  <g id="Grupo_91039" data-name="Grupo 91039" transform="translate(136.332 68.921)">
    <g id="Grupo_91036" data-name="Grupo 91036">
      <rect id="Rectángulo_7196" data-name="Rectángulo 7196" width="23.576" height="11.57" transform="translate(0.872 0.872)" fill="#fff"/>
      <path id="Trazado_134826" data-name="Trazado 134826" d="M2796.378,1295.7H2772.8a.872.872,0,0,1-.873-.873v-11.57a.872.872,0,0,1,.873-.873h23.576a.873.873,0,0,1,.873.873v11.57A.873.873,0,0,1,2796.378,1295.7Zm-22.7-1.747H2795.5v-9.824h-21.829Z" transform="translate(-2771.929 -1282.38)"/>
    </g>
    <g id="Grupo_91037" data-name="Grupo 91037" transform="translate(3.09)">
      <rect id="Rectángulo_7197" data-name="Rectángulo 7197" width="3.09" height="11.57" transform="translate(0.873 0.872)" fill="#fff"/>
      <path id="Trazado_134827" data-name="Trazado 134827" d="M2777.662,1295.7h-3.091a.874.874,0,0,1-.874-.873v-11.57a.874.874,0,0,1,.874-.873h3.091a.874.874,0,0,1,.873.873v11.57A.874.874,0,0,1,2777.662,1295.7Zm-2.218-1.747h1.344v-9.824h-1.344Z" transform="translate(-2773.698 -1282.38)"/>
    </g>
    <g id="Grupo_91038" data-name="Grupo 91038" transform="translate(16.555)">
      <rect id="Rectángulo_7198" data-name="Rectángulo 7198" width="3.09" height="11.57" transform="translate(0.874 0.872)" fill="#fff"/>
      <path id="Trazado_134828" data-name="Trazado 134828" d="M2785.372,1295.7h-3.091a.874.874,0,0,1-.873-.873v-11.57a.874.874,0,0,1,.873-.873h3.091a.873.873,0,0,1,.873.873v11.57A.874.874,0,0,1,2785.372,1295.7Zm-2.218-1.747h1.345v-9.824h-1.345Z" transform="translate(-2781.408 -1282.38)"/>
    </g>
  </g>
  <g id="Grupo_91040" data-name="Grupo 91040" transform="translate(102.139 74.043)">
    <path id="Trazado_134829" data-name="Trazado 134829" d="M2787.043,1285.813H2752.85v7.4h5.687v-2.466h28.506Z" transform="translate(-2751.977 -1284.939)" fill="#fff"/>
    <path id="Trazado_134830" data-name="Trazado 134830" d="M2758.909,1294.457h-5.686a.872.872,0,0,1-.874-.873v-7.4a.872.872,0,0,1,.874-.873h34.194a.873.873,0,0,1,.873.873v4.932a.873.873,0,0,1-.873.873h-27.635v1.593A.872.872,0,0,1,2758.909,1294.457Zm-4.812-1.746h3.939v-1.593a.873.873,0,0,1,.873-.873h27.635v-3.186H2754.1Z" transform="translate(-2752.35 -1285.313)"/>
  </g>
  <g id="Grupo_91041" data-name="Grupo 91041" transform="translate(102.139 63.795)">
    <path id="Trazado_134831" data-name="Trazado 134831" d="M2790.611,1279.946H2752.85v10.248h24.082v-5.124h13.679Z" transform="translate(-2751.977 -1279.071)" fill="#fff"/>
    <path id="Trazado_134832" data-name="Trazado 134832" d="M2777.307,1291.44h-24.083a.871.871,0,0,1-.874-.873v-10.248a.872.872,0,0,1,.874-.873h37.762a.873.873,0,0,1,.873.873v5.126a.873.873,0,0,1-.873.873H2778.18v4.249A.872.872,0,0,1,2777.307,1291.44Zm-23.21-1.747h22.336v-4.249a.873.873,0,0,1,.874-.873h12.806v-3.38H2754.1Z" transform="translate(-2752.35 -1279.445)"/>
  </g>
  <g id="Grupo_91042" data-name="Grupo 91042" transform="translate(221.869 70.052)">
    <ellipse id="Elipse_4363" data-name="Elipse 4363" cx="9.582" cy="8.934" rx="9.582" ry="8.934" transform="translate(0.873 0.874)" fill="#fff"/>
    <path id="Trazado_134833" data-name="Trazado 134833" d="M2831.363,1302.643c-5.765,0-10.456-4.4-10.456-9.807s4.691-9.808,10.456-9.808,10.453,4.4,10.453,9.808S2837.126,1302.643,2831.363,1302.643Zm0-17.868c-4.8,0-8.71,3.617-8.71,8.062s3.908,8.06,8.71,8.06,8.707-3.617,8.707-8.06S2836.164,1284.774,2831.363,1284.774Z" transform="translate(-2820.906 -1283.028)"/>
  </g>
  <g id="Grupo_91043" data-name="Grupo 91043" transform="translate(227.526 75.327)">
    <ellipse id="Elipse_4364" data-name="Elipse 4364" cx="3.925" cy="3.66" rx="3.925" ry="3.66" transform="translate(0.873 0.873)" fill="#fff"/>
    <path id="Trazado_134834" data-name="Trazado 134834" d="M2828.944,1295.114a4.54,4.54,0,1,1,4.8-4.532A4.676,4.676,0,0,1,2828.944,1295.114Zm0-7.319a2.8,2.8,0,1,0,3.05,2.787A2.932,2.932,0,0,0,2828.944,1287.795Z" transform="translate(-2824.145 -1286.048)"/>
  </g>
  <g id="Grupo_91044" data-name="Grupo 91044" transform="translate(22.026 70.052)">
    <ellipse id="Elipse_4365" data-name="Elipse 4365" cx="9.582" cy="8.934" rx="9.582" ry="8.934" transform="translate(0.872 0.874)" fill="#fff"/>
    <path id="Trazado_134835" data-name="Trazado 134835" d="M2716.933,1302.643c-5.765,0-10.454-4.4-10.454-9.807s4.689-9.808,10.454-9.808,10.455,4.4,10.455,9.808S2722.7,1302.643,2716.933,1302.643Zm0-17.868c-4.8,0-8.708,3.617-8.708,8.062s3.907,8.06,8.708,8.06,8.708-3.617,8.708-8.06S2721.734,1284.774,2716.933,1284.774Z" transform="translate(-2706.479 -1283.028)"/>
  </g>
  <g id="Grupo_91045" data-name="Grupo 91045" transform="translate(27.682 75.327)">
    <ellipse id="Elipse_4366" data-name="Elipse 4366" cx="3.925" cy="3.66" rx="3.925" ry="3.66" transform="translate(0.874 0.873)" fill="#fff"/>
    <path id="Trazado_134836" data-name="Trazado 134836" d="M2714.516,1295.114a4.54,4.54,0,1,1,4.8-4.532A4.676,4.676,0,0,1,2714.516,1295.114Zm0-7.319a2.8,2.8,0,1,0,3.051,2.787A2.932,2.932,0,0,0,2714.516,1287.795Z" transform="translate(-2709.717 -1286.048)"/>
  </g>
  <g id="Grupo_91046" data-name="Grupo 91046" transform="translate(59.685 70.052)">
    <ellipse id="Elipse_4367" data-name="Elipse 4367" cx="9.582" cy="8.934" rx="9.582" ry="8.934" transform="translate(0.874 0.874)" fill="#fff"/>
    <path id="Trazado_134837" data-name="Trazado 134837" d="M2738.5,1302.643c-5.763,0-10.454-4.4-10.454-9.807s4.691-9.808,10.454-9.808,10.456,4.4,10.456,9.808S2744.262,1302.643,2738.5,1302.643Zm0-17.868c-4.8,0-8.708,3.617-8.708,8.062s3.907,8.06,8.708,8.06,8.709-3.617,8.709-8.06S2743.3,1284.774,2738.5,1284.774Z" transform="translate(-2728.042 -1283.028)"/>
  </g>
  <g id="Grupo_91047" data-name="Grupo 91047" transform="translate(65.342 75.327)">
    <ellipse id="Elipse_4368" data-name="Elipse 4368" cx="3.925" cy="3.66" rx="3.925" ry="3.66" transform="translate(0.873 0.873)" fill="#fff"/>
    <path id="Trazado_134838" data-name="Trazado 134838" d="M2736.079,1295.114a4.54,4.54,0,1,1,4.8-4.532A4.676,4.676,0,0,1,2736.079,1295.114Zm0-7.319a2.8,2.8,0,1,0,3.053,2.787A2.932,2.932,0,0,0,2736.079,1287.795Z" transform="translate(-2731.281 -1286.048)"/>
  </g>
  <g id="Grupo_91048" data-name="Grupo 91048" transform="translate(259.863 70.052)">
    <ellipse id="Elipse_4369" data-name="Elipse 4369" cx="9.582" cy="8.934" rx="9.582" ry="8.934" transform="translate(0.874 0.874)" fill="#fff"/>
    <path id="Trazado_134839" data-name="Trazado 134839" d="M2853.116,1302.643c-5.764,0-10.455-4.4-10.455-9.807s4.691-9.808,10.455-9.808,10.456,4.4,10.456,9.808S2858.881,1302.643,2853.116,1302.643Zm0-17.868c-4.8,0-8.708,3.617-8.708,8.062s3.907,8.06,8.708,8.06,8.709-3.617,8.709-8.06S2857.917,1284.774,2853.116,1284.774Z" transform="translate(-2842.661 -1283.028)"/>
  </g>
  <g id="Grupo_91049" data-name="Grupo 91049" transform="translate(265.52 75.327)">
    <ellipse id="Elipse_4370" data-name="Elipse 4370" cx="3.925" cy="3.66" rx="3.925" ry="3.66" transform="translate(0.874 0.873)" fill="#fff"/>
    <path id="Trazado_134840" data-name="Trazado 134840" d="M2850.7,1295.114a4.54,4.54,0,1,1,4.8-4.532A4.677,4.677,0,0,1,2850.7,1295.114Zm0-7.319a2.8,2.8,0,1,0,3.055,2.787A2.933,2.933,0,0,0,2850.7,1287.795Z" transform="translate(-2845.9 -1286.048)"/>
  </g>
  <g id="Grupo_91050" data-name="Grupo 91050" transform="translate(136.332 52.752)">
    <rect id="Rectángulo_7199" data-name="Rectángulo 7199" width="11.167" height="3.185" transform="translate(0.872 0.873)" fill="#fff"/>
    <path id="Trazado_134841" data-name="Trazado 134841" d="M2783.967,1278.052H2772.8a.871.871,0,0,1-.873-.873V1274a.872.872,0,0,1,.873-.873h11.165a.872.872,0,0,1,.873.873v3.184A.871.871,0,0,1,2783.967,1278.052Zm-10.292-1.747h9.419v-1.437h-9.419Z" transform="translate(-2771.929 -1273.122)"/>
  </g>
  <g id="Grupo_91051" data-name="Grupo 91051" transform="translate(137.695 29.987)">
    <rect id="Rectángulo_7200" data-name="Rectángulo 7200" width="7.976" height="22.765" transform="translate(0.873 0.873)" fill="#fff"/>
    <path id="Trazado_134842" data-name="Trazado 134842" d="M2781.557,1284.6h-7.975a.874.874,0,0,1-.873-.873V1260.96a.874.874,0,0,1,.873-.873h7.975a.873.873,0,0,1,.873.873v22.765A.873.873,0,0,1,2781.557,1284.6Zm-7.1-1.746h6.228v-21.019h-6.228Z" transform="translate(-2772.709 -1260.087)"/>
  </g>
  <g id="Grupo_91052" data-name="Grupo 91052" transform="translate(139.09 6.317)">
    <rect id="Rectángulo_7201" data-name="Rectángulo 7201" width="5.185" height="23.67" transform="translate(0.873 0.873)" fill="#fff"/>
    <path id="Trazado_134843" data-name="Trazado 134843" d="M2779.567,1271.95h-5.186a.872.872,0,0,1-.873-.873v-23.67a.872.872,0,0,1,.873-.873h5.186a.874.874,0,0,1,.873.873v23.67A.874.874,0,0,1,2779.567,1271.95Zm-4.312-1.746h3.439V1248.28h-3.439Z" transform="translate(-2773.508 -1246.534)"/>
  </g>
  <g id="Grupo_91053" data-name="Grupo 91053" transform="translate(1.792 27.05)">
    <path id="Trazado_134844" data-name="Trazado 134844" d="M2695.393,1298.785v-1.439c0-10.779,8.025-19.519,17.924-19.519l65.186-2.056,8.773-16.848h37.153s4.921-2.054,9.072,36.573h-47.434l-6.9-9.45H2711.2l-7.094,12.739Z" transform="translate(-2694.52 -1258.033)" fill="#fff"/>
    <path id="Trazado_134845" data-name="Trazado 134845" d="M2704.479,1300.031h-8.713a.871.871,0,0,1-.874-.873v-1.439c0-11.244,8.432-20.392,18.8-20.392l64.647-2.038,8.539-16.394a.867.867,0,0,1,.773-.472h37.062a1.731,1.731,0,0,1,1.165.262c3.409,2.019,6.476,14.843,8.866,37.091a.873.873,0,0,1-.868.966h-47.432a.873.873,0,0,1-.706-.358l-6.645-9.094h-67l-6.846,12.292A.871.871,0,0,1,2704.479,1300.031Zm-7.84-1.747h7.326l6.846-12.292a.873.873,0,0,1,.762-.449h67.962a.872.872,0,0,1,.706.358l6.643,9.094H2832.9c-3.533-32.2-7.517-34.66-7.966-34.837a.885.885,0,0,1-.133.01H2788.18l-8.53,16.378a.868.868,0,0,1-.748.47l-65.185,2.056c-9.431,0-17.079,8.364-17.079,18.645Zm128.258-38.138Zm.231-.04h0Zm0,0h0Zm0,0h0Zm0,0,0,0Zm0,0h0Z" transform="translate(-2694.893 -1258.406)"/>
  </g>
  <g id="Grupo_91054" data-name="Grupo 91054" transform="translate(1.792 54.395)">
    <path id="Trazado_134846" data-name="Trazado 134846" d="M2789.823,1288.741h-8.49l-7.983-9.246H2711.2l-7.094,7.6h-8.713v-9.041a3.36,3.36,0,0,1,3.208-3.493h80.562Z" transform="translate(-2694.52 -1273.69)" fill="#fff"/>
    <path id="Trazado_134847" data-name="Trazado 134847" d="M2790.2,1289.987h-8.491a.881.881,0,0,1-.663-.3l-7.719-8.944h-61.371l-6.837,7.325a.865.865,0,0,1-.638.277h-8.713a.871.871,0,0,1-.874-.873v-9.041a4.234,4.234,0,0,1,4.08-4.366h80.563a.877.877,0,0,1,.7.349l10.661,14.176a.874.874,0,0,1-.7,1.4Zm-8.093-1.746h6.343l-9.349-12.431h-80.126a2.491,2.491,0,0,0-2.333,2.62v8.168h7.459l6.837-7.325a.87.87,0,0,1,.638-.278h62.149a.875.875,0,0,1,.662.3Z" transform="translate(-2694.893 -1274.063)"/>
  </g>
  <g id="Grupo_91055" data-name="Grupo 91055" transform="translate(154.239)">
    <rect id="Rectángulo_7202" data-name="Rectángulo 7202" width="172.918" height="66.011" transform="translate(0.873 0.874)" fill="#fff"/>
    <path id="Trazado_134848" data-name="Trazado 134848" d="M2955.972,1310.674H2783.055a.872.872,0,0,1-.873-.873V1243.79a.873.873,0,0,1,.873-.873h172.917a.872.872,0,0,1,.873.873V1309.8A.872.872,0,0,1,2955.972,1310.674Zm-172.044-1.746H2955.1v-64.264H2783.928Z" transform="translate(-2782.182 -1242.917)"/>
  </g>
  <g id="Grupo_91056" data-name="Grupo 91056" transform="translate(161.599 4.235)">
    <rect id="Rectángulo_7203" data-name="Rectángulo 7203" width="158.201" height="61.777" transform="translate(0.872 0.872)" fill="#fff"/>
    <path id="Trazado_134849" data-name="Trazado 134849" d="M2945.469,1308.864h-158.2a.872.872,0,0,1-.874-.873v-61.776a.871.871,0,0,1,.874-.873h158.2a.873.873,0,0,1,.873.873v61.776A.874.874,0,0,1,2945.469,1308.864Zm-157.327-1.746H2944.6v-60.029H2788.143Z" transform="translate(-2786.396 -1245.342)"/>
  </g>
  <g id="Grupo_91057" data-name="Grupo 91057" transform="translate(103.108 29.987)">
    <rect id="Rectángulo_7204" data-name="Rectángulo 7204" width="24.527" height="13.314" transform="translate(0.874 0.873)" fill="#fff"/>
    <path id="Trazado_134850" data-name="Trazado 134850" d="M2778.306,1275.146h-24.528a.873.873,0,0,1-.873-.873V1260.96a.874.874,0,0,1,.873-.873h24.528a.872.872,0,0,1,.873.873v13.313A.872.872,0,0,1,2778.306,1275.146Zm-23.654-1.746h22.781v-11.567h-22.781Z" transform="translate(-2752.905 -1260.087)"/>
  </g>
  <g id="Grupo_91058" data-name="Grupo 91058" transform="translate(91.222 29.987)">
    <path id="Trazado_134851" data-name="Trazado 134851" d="M2746.6,1273.9h7.358l1.887-13.314h-4.622Z" transform="translate(-2745.727 -1259.714)" fill="#fff"/>
    <path id="Trazado_134852" data-name="Trazado 134852" d="M2754.331,1275.146h-7.358a.873.873,0,0,1-.826-1.159l4.621-13.313a.877.877,0,0,1,.826-.587h4.625a.874.874,0,0,1,.864,1L2755.2,1274.4A.876.876,0,0,1,2754.331,1275.146Zm-6.13-1.746h5.37l1.64-11.567h-3Z" transform="translate(-2746.099 -1260.087)"/>
  </g>
</svg>
