<svg id="Grupo_90855" data-name="Grupo 90855" xmlns="http://www.w3.org/2000/svg" width="472.131" height="103.912" viewBox="0 0 472.131 103.912">
  <g id="Grupo_90814" data-name="Grupo 90814" transform="translate(155.893 70.254)">
    <path id="Trazado_134578" data-name="Trazado 134578" d="M1730.5,1294.24v6.3h35.32v-6.3" transform="translate(-1729.675 -1293.416)" fill="#fff"/>
    <path id="Trazado_134579" data-name="Trazado 134579" d="M1766.14,1301.683h-35.321a.822.822,0,0,1-.822-.823v-6.3a.822.822,0,1,1,1.645,0v5.476h33.676v-5.476a.822.822,0,1,1,1.645,0v6.3A.822.822,0,0,1,1766.14,1301.683Z" transform="translate(-1729.997 -1293.739)"/>
  </g>
  <g id="Grupo_90815" data-name="Grupo 90815" transform="translate(91.156 76.544)">
    <rect id="Rectángulo_7127" data-name="Rectángulo 7127" width="134.507" height="9.386" transform="translate(0.822 0.823)"/>
    <path id="Trazado_134580" data-name="Trazado 134580" d="M1825.973,1308.595H1691.467a.822.822,0,0,1-.822-.823v-9.387a.821.821,0,0,1,.822-.822h134.506a.822.822,0,0,1,.823.822v9.387A.822.822,0,0,1,1825.973,1308.595Zm-133.683-1.645H1825.15v-7.742H1692.289Z" transform="translate(-1690.644 -1297.563)"/>
  </g>
  <g id="Grupo_90816" data-name="Grupo 90816" transform="translate(0 65.319)">
    <path id="Trazado_134581" data-name="Trazado 134581" d="M1693.019,1313.061h-50.706l-6.58-2.661v-10.064h10.95l7.437-9.1h23.031l17.225,6.58h6v9.338h-7.161Z" transform="translate(-1634.909 -1290.416)"/>
    <path id="Trazado_134582" data-name="Trazado 134582" d="M1693.342,1314.206h-50.707a.853.853,0,0,1-.308-.059l-6.58-2.66a.826.826,0,0,1-.515-.763v-10.064a.822.822,0,0,1,.823-.823h10.558l7.191-8.794a.823.823,0,0,1,.636-.3h23.031a.825.825,0,0,1,.295.054l17.082,6.526h5.848a.822.822,0,0,1,.823.822v9.339a.822.822,0,0,1-.823.822h-6.365l-.166,5.108A.824.824,0,0,1,1693.342,1314.206Zm-50.546-1.645h49.748l.168-5.108a.823.823,0,0,1,.823-.795h6.338v-7.694H1694.7a.794.794,0,0,1-.295-.054l-17.082-6.526h-22.488l-7.192,8.794a.819.819,0,0,1-.635.3h-10.127v8.688Z" transform="translate(-1635.232 -1290.739)"/>
  </g>
  <g id="Grupo_90817" data-name="Grupo 90817" transform="translate(431.598 72.559)">
    <circle id="Elipse_4287" data-name="Elipse 4287" cx="14.031" cy="14.031" r="14.031" transform="translate(0.822 0.823)"/>
    <path id="Trazado_134583" data-name="Trazado 134583" d="M1912.446,1324.848a14.854,14.854,0,1,1,14.854-14.855A14.872,14.872,0,0,1,1912.446,1324.848Zm0-28.063a13.209,13.209,0,1,0,13.208,13.208A13.221,13.221,0,0,0,1912.446,1296.785Z" transform="translate(-1897.593 -1295.14)"/>
  </g>
  <g id="Grupo_90818" data-name="Grupo 90818" transform="translate(389.697 72.559)">
    <circle id="Elipse_4288" data-name="Elipse 4288" cx="14.031" cy="14.031" r="14.031" transform="translate(0.823 0.823)"/>
    <path id="Trazado_134584" data-name="Trazado 134584" d="M1886.975,1324.848a14.854,14.854,0,1,1,14.855-14.855A14.871,14.871,0,0,1,1886.975,1324.848Zm0-28.063a13.209,13.209,0,1,0,13.21,13.208A13.223,13.223,0,0,0,1886.975,1296.785Z" transform="translate(-1872.122 -1295.14)"/>
  </g>
  <g id="Grupo_90819" data-name="Grupo 90819" transform="translate(188.214 72.559)">
    <circle id="Elipse_4289" data-name="Elipse 4289" cx="14.031" cy="14.031" r="14.031" transform="translate(0.822 0.823)"/>
    <path id="Trazado_134585" data-name="Trazado 134585" d="M1764.5,1324.848a14.854,14.854,0,1,1,14.853-14.855A14.871,14.871,0,0,1,1764.5,1324.848Zm0-28.063a13.209,13.209,0,1,0,13.208,13.208A13.221,13.221,0,0,0,1764.5,1296.785Z" transform="translate(-1749.644 -1295.14)"/>
  </g>
  <g id="Grupo_90820" data-name="Grupo 90820" transform="translate(147.958 72.559)">
    <circle id="Elipse_4290" data-name="Elipse 4290" cx="14.031" cy="14.031" r="14.031" transform="translate(0.823 0.823)"/>
    <path id="Trazado_134586" data-name="Trazado 134586" d="M1740.026,1324.848a14.854,14.854,0,1,1,14.855-14.855A14.871,14.871,0,0,1,1740.026,1324.848Zm0-28.063a13.209,13.209,0,1,0,13.21,13.208A13.221,13.221,0,0,0,1740.026,1296.785Z" transform="translate(-1725.173 -1295.14)"/>
  </g>
  <g id="Grupo_90821" data-name="Grupo 90821" transform="translate(18.29 74.204)">
    <circle id="Elipse_4291" data-name="Elipse 4291" cx="14.031" cy="14.031" r="14.031" transform="translate(0.822 0.823)"/>
    <path id="Trazado_134587" data-name="Trazado 134587" d="M1661.2,1325.848a14.854,14.854,0,1,1,14.853-14.855A14.871,14.871,0,0,1,1661.2,1325.848Zm0-28.063a13.209,13.209,0,1,0,13.208,13.208A13.221,13.221,0,0,0,1661.2,1297.785Z" transform="translate(-1646.35 -1296.14)"/>
  </g>
  <g id="Grupo_90822" data-name="Grupo 90822" transform="translate(243.758 71.405)">
    <path id="Trazado_134588" data-name="Trazado 134588" d="M1783.909,1294.94h6.58v15.183h6.967V1294.94h5.806" transform="translate(-1783.085 -1294.116)" fill="#fff"/>
    <path id="Trazado_134589" data-name="Trazado 134589" d="M1797.779,1311.268h-6.968a.823.823,0,0,1-.823-.823v-14.361h-5.758a.822.822,0,1,1,0-1.645h6.58a.822.822,0,0,1,.823.823v14.361h5.323v-14.361a.822.822,0,0,1,.822-.823h5.805a.822.822,0,1,1,0,1.645H1798.6v14.361A.823.823,0,0,1,1797.779,1311.268Z" transform="translate(-1783.408 -1294.439)"/>
  </g>
  <g id="Grupo_90823" data-name="Grupo 90823" transform="translate(437.112 78.074)">
    <circle id="Elipse_4292" data-name="Elipse 4292" cx="8.516" cy="8.516" r="8.516" transform="translate(0.824 0.822)" fill="#fff"/>
    <path id="Trazado_134590" data-name="Trazado 134590" d="M1910.284,1317.169a9.338,9.338,0,1,1,9.339-9.339A9.35,9.35,0,0,1,1910.284,1317.169Zm0-17.031a7.693,7.693,0,1,0,7.694,7.692A7.7,7.7,0,0,0,1910.284,1300.138Z" transform="translate(-1900.945 -1298.493)"/>
  </g>
  <g id="Grupo_90824" data-name="Grupo 90824" transform="translate(441.952 82.912)">
    <circle id="Elipse_4293" data-name="Elipse 4293" cx="3.677" cy="3.677" r="3.677" transform="translate(0.822 0.823)" fill="#fff"/>
    <path id="Trazado_134591" data-name="Trazado 134591" d="M1908.386,1310.433a4.5,4.5,0,1,1,4.5-4.5A4.5,4.5,0,0,1,1908.386,1310.433Zm0-7.354a2.854,2.854,0,1,0,2.854,2.854A2.857,2.857,0,0,0,1908.386,1303.079Z" transform="translate(-1903.887 -1301.434)"/>
  </g>
  <g id="Grupo_90825" data-name="Grupo 90825" transform="translate(464.777 70.254)">
    <path id="Trazado_134592" data-name="Trazado 134592" d="M1918.261,1294.24v20.012l2.323,4.838" transform="translate(-1917.44 -1293.416)" fill="#fff"/>
    <path id="Trazado_134593" data-name="Trazado 134593" d="M1920.906,1320.236a.825.825,0,0,1-.742-.467l-2.321-4.84a.8.8,0,0,1-.081-.355v-20.012a.822.822,0,1,1,1.645,0v19.826l2.241,4.67a.822.822,0,0,1-.742,1.178Z" transform="translate(-1917.762 -1293.739)"/>
  </g>
  <g id="Grupo_90826" data-name="Grupo 90826" transform="translate(429.178 70.254)">
    <path id="Trazado_134594" data-name="Trazado 134594" d="M1896.622,1294.24v2.3h40.256v-2.3" transform="translate(-1895.799 -1293.416)" fill="#fff"/>
    <path id="Trazado_134595" data-name="Trazado 134595" d="M1937.2,1297.689h-40.256a.823.823,0,0,1-.823-.822v-2.3a.823.823,0,0,1,1.645,0v1.482h38.611v-1.482a.823.823,0,1,1,1.645,0v2.3A.823.823,0,0,1,1937.2,1297.689Z" transform="translate(-1896.122 -1293.739)"/>
  </g>
  <g id="Grupo_90827" data-name="Grupo 90827" transform="translate(395.213 78.074)">
    <circle id="Elipse_4294" data-name="Elipse 4294" cx="8.516" cy="8.516" r="8.516" transform="translate(0.823 0.822)" fill="#fff"/>
    <path id="Trazado_134596" data-name="Trazado 134596" d="M1884.813,1317.169a9.338,9.338,0,1,1,9.339-9.339A9.349,9.349,0,0,1,1884.813,1317.169Zm0-17.031a7.693,7.693,0,1,0,7.694,7.692A7.7,7.7,0,0,0,1884.813,1300.138Z" transform="translate(-1875.475 -1298.493)"/>
  </g>
  <g id="Grupo_90828" data-name="Grupo 90828" transform="translate(400.051 82.912)">
    <circle id="Elipse_4295" data-name="Elipse 4295" cx="3.677" cy="3.677" r="3.677" transform="translate(0.823 0.823)" fill="#fff"/>
    <path id="Trazado_134597" data-name="Trazado 134597" d="M1882.915,1310.433a4.5,4.5,0,1,1,4.5-4.5A4.506,4.506,0,0,1,1882.915,1310.433Zm0-7.354a2.854,2.854,0,1,0,2.856,2.854A2.857,2.857,0,0,0,1882.915,1303.079Z" transform="translate(-1878.416 -1301.434)"/>
  </g>
  <g id="Grupo_90829" data-name="Grupo 90829" transform="translate(422.876 70.254)">
    <path id="Trazado_134598" data-name="Trazado 134598" d="M1892.791,1294.24v20.012l2.322,4.838" transform="translate(-1891.969 -1293.416)" fill="#fff"/>
    <path id="Trazado_134599" data-name="Trazado 134599" d="M1895.435,1320.236a.826.826,0,0,1-.742-.467l-2.321-4.84a.825.825,0,0,1-.081-.355v-20.012a.823.823,0,0,1,1.645,0v19.826l2.24,4.67a.822.822,0,0,1-.742,1.178Z" transform="translate(-1892.291 -1293.739)"/>
  </g>
  <g id="Grupo_90830" data-name="Grupo 90830" transform="translate(387.277 70.254)">
    <path id="Trazado_134600" data-name="Trazado 134600" d="M1871.151,1294.24v2.3h40.255v-2.3" transform="translate(-1870.328 -1293.416)" fill="#fff"/>
    <path id="Trazado_134601" data-name="Trazado 134601" d="M1911.73,1297.689h-40.256a.823.823,0,0,1-.823-.822v-2.3a.823.823,0,0,1,1.645,0v1.482h38.611v-1.482a.823.823,0,0,1,1.645,0v2.3A.823.823,0,0,1,1911.73,1297.689Z" transform="translate(-1870.651 -1293.739)"/>
  </g>
  <g id="Grupo_90831" data-name="Grupo 90831" transform="translate(193.73 78.074)">
    <circle id="Elipse_4296" data-name="Elipse 4296" cx="8.516" cy="8.516" r="8.516" transform="translate(0.822 0.822)" fill="#fff"/>
    <path id="Trazado_134602" data-name="Trazado 134602" d="M1762.334,1317.169a9.338,9.338,0,1,1,9.339-9.339A9.348,9.348,0,0,1,1762.334,1317.169Zm0-17.031a7.693,7.693,0,1,0,7.694,7.692A7.7,7.7,0,0,0,1762.334,1300.138Z" transform="translate(-1752.997 -1298.493)"/>
  </g>
  <g id="Grupo_90832" data-name="Grupo 90832" transform="translate(198.568 82.912)">
    <circle id="Elipse_4297" data-name="Elipse 4297" cx="3.677" cy="3.677" r="3.677" transform="translate(0.822 0.823)" fill="#fff"/>
    <path id="Trazado_134603" data-name="Trazado 134603" d="M1760.437,1310.433a4.5,4.5,0,1,1,4.5-4.5A4.5,4.5,0,0,1,1760.437,1310.433Zm0-7.354a2.854,2.854,0,1,0,2.854,2.854A2.857,2.857,0,0,0,1760.437,1303.079Z" transform="translate(-1755.938 -1301.434)"/>
  </g>
  <g id="Grupo_90833" data-name="Grupo 90833" transform="translate(225.662 76.23)">
    <path id="Trazado_134604" data-name="Trazado 134604" d="M1775.553,1322.546a.826.826,0,0,1-.733-.451l-2.323-4.58a.834.834,0,0,1-.089-.372v-18.949a.823.823,0,1,1,1.645,0v18.752l2.235,4.4a.824.824,0,0,1-.362,1.107A.847.847,0,0,1,1775.553,1322.546Z" transform="translate(-1772.408 -1297.372)"/>
  </g>
  <g id="Grupo_90834" data-name="Grupo 90834" transform="translate(153.474 78.074)">
    <circle id="Elipse_4298" data-name="Elipse 4298" cx="8.516" cy="8.516" r="8.516" transform="translate(0.823 0.822)" fill="#fff"/>
    <path id="Trazado_134605" data-name="Trazado 134605" d="M1737.863,1317.169a9.338,9.338,0,1,1,9.339-9.339A9.349,9.349,0,0,1,1737.863,1317.169Zm0-17.031a7.693,7.693,0,1,0,7.694,7.692A7.7,7.7,0,0,0,1737.863,1300.138Z" transform="translate(-1728.526 -1298.493)"/>
  </g>
  <g id="Grupo_90835" data-name="Grupo 90835" transform="translate(158.313 82.912)">
    <circle id="Elipse_4299" data-name="Elipse 4299" cx="3.677" cy="3.677" r="3.677" transform="translate(0.821 0.823)" fill="#fff"/>
    <path id="Trazado_134606" data-name="Trazado 134606" d="M1735.966,1310.433a4.5,4.5,0,1,1,4.5-4.5A4.5,4.5,0,0,1,1735.966,1310.433Zm0-7.354a2.854,2.854,0,1,0,2.855,2.854A2.856,2.856,0,0,0,1735.966,1303.079Z" transform="translate(-1731.468 -1301.434)"/>
  </g>
  <g id="Grupo_90836" data-name="Grupo 90836" transform="translate(182.298 76.553)">
    <path id="Trazado_134607" data-name="Trazado 134607" d="M1749.193,1324.065a.827.827,0,0,1-.742-.466l-2.323-4.84a.8.8,0,0,1-.081-.357v-20.012a.823.823,0,0,1,1.645,0v19.825l2.242,4.67a.825.825,0,0,1-.385,1.1A.839.839,0,0,1,1749.193,1324.065Z" transform="translate(-1746.048 -1297.568)"/>
  </g>
  <g id="Grupo_90837" data-name="Grupo 90837" transform="translate(23.804 79.72)">
    <circle id="Elipse_4300" data-name="Elipse 4300" cx="8.516" cy="8.516" r="8.516" transform="translate(0.824 0.822)" fill="#fff"/>
    <path id="Trazado_134608" data-name="Trazado 134608" d="M1659.041,1318.169a9.338,9.338,0,1,1,9.339-9.339A9.35,9.35,0,0,1,1659.041,1318.169Zm0-17.031a7.693,7.693,0,1,0,7.694,7.692A7.7,7.7,0,0,0,1659.041,1301.138Z" transform="translate(-1649.702 -1299.493)"/>
  </g>
  <g id="Grupo_90838" data-name="Grupo 90838" transform="translate(28.644 84.557)">
    <circle id="Elipse_4301" data-name="Elipse 4301" cx="3.677" cy="3.677" r="3.677" transform="translate(0.822 0.823)" fill="#fff"/>
    <path id="Trazado_134609" data-name="Trazado 134609" d="M1657.143,1311.433a4.5,4.5,0,1,1,4.5-4.5A4.5,4.5,0,0,1,1657.143,1311.433Zm0-7.354a2.854,2.854,0,1,0,2.854,2.854A2.857,2.857,0,0,0,1657.143,1304.079Z" transform="translate(-1652.644 -1302.434)"/>
  </g>
  <g id="Grupo_90843" data-name="Grupo 90843" transform="translate(106.784 75.335)">
    <g id="Grupo_90839" data-name="Grupo 90839">
      <rect id="Rectángulo_7128" data-name="Rectángulo 7128" width="23.611" height="11.806" transform="translate(0.822 0.822)" fill="#fff"/>
      <path id="Trazado_134610" data-name="Trazado 134610" d="M1724.578,1310.278h-23.611a.822.822,0,0,1-.823-.823v-11.8a.822.822,0,0,1,.823-.823h23.611a.823.823,0,0,1,.822.823v11.8A.823.823,0,0,1,1724.578,1310.278Zm-22.789-1.645h21.966v-10.16h-21.966Z" transform="translate(-1700.144 -1296.828)"/>
    </g>
    <g id="Grupo_90842" data-name="Grupo 90842" transform="translate(3.048)">
      <g id="Grupo_90840" data-name="Grupo 90840">
        <rect id="Rectángulo_7129" data-name="Rectángulo 7129" width="3" height="11.806" transform="translate(0.822 0.822)" fill="#fff"/>
        <path id="Trazado_134611" data-name="Trazado 134611" d="M1705.818,1310.278h-3a.823.823,0,0,1-.822-.823v-11.8a.823.823,0,0,1,.822-.823h3a.822.822,0,0,1,.823.823v11.8A.822.822,0,0,1,1705.818,1310.278Zm-2.177-1.645H1705v-10.16h-1.354Z" transform="translate(-1701.997 -1296.828)"/>
      </g>
      <g id="Grupo_90841" data-name="Grupo 90841" transform="translate(14.514)">
        <rect id="Rectángulo_7130" data-name="Rectángulo 7130" width="3" height="11.806" transform="translate(0.823 0.822)" fill="#fff"/>
        <path id="Trazado_134612" data-name="Trazado 134612" d="M1714.643,1310.278h-3a.823.823,0,0,1-.823-.823v-11.8a.823.823,0,0,1,.823-.823h3a.823.823,0,0,1,.823.823v11.8A.823.823,0,0,1,1714.643,1310.278Zm-2.178-1.645h1.355v-10.16h-1.355Z" transform="translate(-1710.82 -1296.828)"/>
      </g>
    </g>
  </g>
  <g id="Grupo_90844" data-name="Grupo 90844" transform="translate(64.641 71.899)">
    <path id="Trazado_134613" data-name="Trazado 134613" d="M1714.218,1295.24h-39.191v12.579h26.515v-7.935h12.677Z" transform="translate(-1674.203 -1294.416)" fill="#fff"/>
    <path id="Trazado_134614" data-name="Trazado 134614" d="M1701.864,1308.965h-26.515a.823.823,0,0,1-.822-.823v-12.581a.823.823,0,0,1,.822-.823h39.192a.823.823,0,0,1,.822.823v4.646a.822.822,0,0,1-.822.823h-11.854v7.113A.823.823,0,0,1,1701.864,1308.965Zm-25.693-1.645h24.87v-7.113a.821.821,0,0,1,.823-.822h11.854v-3h-37.547Z" transform="translate(-1674.526 -1294.739)"/>
  </g>
  <g id="Grupo_90845" data-name="Grupo 90845" transform="translate(64.641 84.48)">
    <path id="Trazado_134615" data-name="Trazado 134615" d="M1710.153,1304.338v3.193h-28.16v4.354h-6.967v-9h26.515v1.452Z" transform="translate(-1674.203 -1302.065)" fill="#fff"/>
    <path id="Trazado_134616" data-name="Trazado 134616" d="M1682.317,1313.031h-6.968a.822.822,0,0,1-.822-.823v-9a.822.822,0,0,1,.822-.823h26.515a.822.822,0,0,1,.822.823v.629h7.789a.821.821,0,0,1,.822.822v3.193a.823.823,0,0,1-.822.823h-27.336v3.532A.822.822,0,0,1,1682.317,1313.031Zm-6.146-1.645h5.323v-3.532a.822.822,0,0,1,.822-.823h27.336v-1.548h-7.789a.822.822,0,0,1-.823-.823v-.629h-24.87Z" transform="translate(-1674.526 -1302.387)"/>
  </g>
  <g id="Grupo_90846" data-name="Grupo 90846" transform="translate(8.709 29.516)">
    <path id="Trazado_134617" data-name="Trazado 134617" d="M1738.084,1311.858s1.224-21.536-6-40.031a3.788,3.788,0,0,0-3.548-2.353h-34.726a4.1,4.1,0,0,0-3.721,2.339l-7.594,16.24-33.146,2.249a7.973,7.973,0,0,0-7.044,5.366l-1.279,3.8h34.052a11.5,11.5,0,0,1,9.068,4.389l6.248,8Z" transform="translate(-1640.204 -1268.652)" fill="#fff"/>
    <path id="Trazado_134618" data-name="Trazado 134618" d="M1738.406,1313h-47.69a.819.819,0,0,1-.647-.316l-6.248-8a10.744,10.744,0,0,0-8.419-4.073h-34.054a.82.82,0,0,1-.778-1.084l1.278-3.8a8.766,8.766,0,0,1,7.768-5.926l32.661-2.216,7.39-15.8a4.936,4.936,0,0,1,4.466-2.815h34.726a4.628,4.628,0,0,1,4.315,2.877c7.205,18.448,6.067,40.159,6.054,40.376A.821.821,0,0,1,1738.406,1313Zm-47.288-1.645h46.5c.127-4.006.332-22.755-5.977-38.909a2.973,2.973,0,0,0-2.782-1.829h-34.726a3.282,3.282,0,0,0-2.974,1.865l-7.6,16.238a.825.825,0,0,1-.689.474l-33.146,2.249a7.125,7.125,0,0,0-6.322,4.808l-.913,2.718H1675.4a12.4,12.4,0,0,1,9.715,4.7Z" transform="translate(-1640.526 -1268.975)"/>
  </g>
  <g id="Grupo_90847" data-name="Grupo 90847" transform="translate(2.517 59.513)">
    <path id="Trazado_134619" data-name="Trazado 134619" d="M1637.261,1303.532h7.355l8.516-10.017h23.031l9.1,11.226h8.128V1300.1h-1.548l-6.5-8.484a9.95,9.95,0,0,0-7.9-3.9h-33.987l-2.221,1.181a7.481,7.481,0,0,0-3.973,6.607Z" transform="translate(-1636.44 -1286.887)" fill="#fff"/>
    <path id="Trazado_134620" data-name="Trazado 134620" d="M1693.709,1305.886h-8.128a.825.825,0,0,1-.64-.3l-8.849-10.922h-22.258l-8.27,9.727a.818.818,0,0,1-.627.289h-7.354a.822.822,0,0,1-.823-.822v-8.036a8.284,8.284,0,0,1,4.407-7.332l2.222-1.179a.8.8,0,0,1,.385-.1h33.987a10.843,10.843,0,0,1,8.556,4.224l6.248,8.161h1.142a.823.823,0,0,1,.823.822v4.646A.822.822,0,0,1,1693.709,1305.886Zm-7.737-1.645h6.914v-3h-.725a.823.823,0,0,1-.655-.323l-6.495-8.483a9.182,9.182,0,0,0-7.248-3.58h-33.781l-2.041,1.084a6.643,6.643,0,0,0-3.534,5.879v7.214h6.151l8.268-9.727a.827.827,0,0,1,.627-.29h23.031a.825.825,0,0,1,.64.306Z" transform="translate(-1636.762 -1287.21)"/>
  </g>
  <g id="Grupo_90848" data-name="Grupo 90848" transform="translate(106.639 8.419)">
    <rect id="Rectángulo_7131" data-name="Rectángulo 7131" width="6.387" height="25.547" transform="translate(0.822 0.823)" fill="#fff"/>
    <path id="Trazado_134621" data-name="Trazado 134621" d="M1707.264,1283.344h-6.386a.822.822,0,0,1-.823-.823v-25.548a.822.822,0,0,1,.823-.823h6.386a.823.823,0,0,1,.823.823v25.548A.823.823,0,0,1,1707.264,1283.344Zm-5.563-1.645h4.741v-23.9H1701.7Z" transform="translate(-1700.056 -1256.151)"/>
  </g>
  <g id="Grupo_90849" data-name="Grupo 90849" transform="translate(105.089 33.967)">
    <rect id="Rectángulo_7132" data-name="Rectángulo 7132" width="10.838" height="24.192" transform="translate(0.823 0.822)" fill="#fff"/>
    <path id="Trazado_134622" data-name="Trazado 134622" d="M1710.774,1297.518h-10.838a.823.823,0,0,1-.823-.823V1272.5a.822.822,0,0,1,.823-.822h10.838a.821.821,0,0,1,.823.822V1296.7A.822.822,0,0,1,1710.774,1297.518Zm-10.015-1.645h9.193v-22.547h-9.193Z" transform="translate(-1699.114 -1271.681)"/>
  </g>
  <g id="Grupo_90850" data-name="Grupo 90850" transform="translate(105.089 58.159)">
    <rect id="Rectángulo_7133" data-name="Rectángulo 7133" width="13.548" height="3.532" transform="translate(0.823 0.822)" fill="#fff"/>
    <path id="Trazado_134623" data-name="Trazado 134623" d="M1713.485,1291.562h-13.549a.822.822,0,0,1-.823-.823v-3.53a.822.822,0,0,1,.823-.822h13.549a.822.822,0,0,1,.823.822v3.53A.822.822,0,0,1,1713.485,1291.562Zm-12.726-1.645h11.9v-1.885h-11.9Z" transform="translate(-1699.114 -1286.387)"/>
  </g>
  <g id="Grupo_90851" data-name="Grupo 90851" transform="translate(67.931 33.967)">
    <path id="Trazado_134624" data-name="Trazado 134624" d="M1677.026,1286.5h21.545a4.326,4.326,0,0,0,4.389-4.259v-10.063h-24.737Z" transform="translate(-1676.204 -1271.358)" fill="#fff"/>
    <path id="Trazado_134625" data-name="Trazado 134625" d="M1698.894,1287.648h-21.545a.821.821,0,0,1-.819-.892l1.2-14.322a.821.821,0,0,1,.819-.753h24.737a.821.821,0,0,1,.822.822v10.063A5.154,5.154,0,0,1,1698.894,1287.648Zm-20.65-1.645h20.65a3.509,3.509,0,0,0,3.567-3.437v-9.24H1679.3Z" transform="translate(-1676.526 -1271.681)"/>
  </g>
  <g id="Grupo_90852" data-name="Grupo 90852" transform="translate(54.235 32.806)">
    <path id="Trazado_134626" data-name="Trazado 134626" d="M1668.7,1286.958h9.677l1.935-15.483h-4.258Z" transform="translate(-1667.878 -1270.653)" fill="#fff"/>
    <path id="Trazado_134627" data-name="Trazado 134627" d="M1678.7,1288.1h-9.678a.821.821,0,0,1-.742-1.176l7.355-15.483a.82.82,0,0,1,.742-.469h4.257a.821.821,0,0,1,.816.923l-1.935,15.483A.822.822,0,0,1,1678.7,1288.1Zm-8.377-1.645h7.651l1.727-13.838h-2.8Z" transform="translate(-1668.2 -1270.975)"/>
  </g>
  <g id="Grupo_90853" data-name="Grupo 90853" transform="translate(142.442)">
    <rect id="Rectángulo_7134" data-name="Rectángulo 7134" width="328.043" height="70.254" transform="translate(0.823 0.824)" fill="#fff"/>
    <path id="Trazado_134628" data-name="Trazado 134628" d="M2050.687,1322.932H1722.642a.821.821,0,0,1-.822-.822v-70.254a.823.823,0,0,1,.822-.822h328.044a.822.822,0,0,1,.822.822v70.254A.821.821,0,0,1,2050.687,1322.932Zm-327.222-1.645h326.4v-68.609h-326.4Z" transform="translate(-1721.82 -1251.033)"/>
  </g>
  <g id="Grupo_90854" data-name="Grupo 90854" transform="translate(149.693 7.248)">
    <rect id="Rectángulo_7135" data-name="Rectángulo 7135" width="313.544" height="63.005" transform="translate(0.821 0.824)" fill="#fff"/>
    <path id="Trazado_134629" data-name="Trazado 134629" d="M2040.593,1320.09H1727.051a.821.821,0,0,1-.823-.823v-63.006a.822.822,0,0,1,.823-.823h313.542a.822.822,0,0,1,.822.823v63.006A.821.821,0,0,1,2040.593,1320.09Zm-312.72-1.645h311.9v-61.361h-311.9Z" transform="translate(-1726.228 -1255.439)"/>
  </g>
</svg>
