<svg xmlns="http://www.w3.org/2000/svg" width="88.828" height="44.993" viewBox="0 0 88.828 44.993">
  <g id="agua-de-mar" transform="translate(0.005 -110.743)">
    <path id="Trazado_126593" data-name="Trazado 126593" d="M48.419,120.743a10,10,0,0,0,7.826-3.968,9.7,9.7,0,0,0,15.653,0,9.7,9.7,0,0,0,15.653,0,9.7,9.7,0,0,0,15.653,0,10,10,0,0,0,7.826,3.968c4.39,0,7.631-2.431,9.125-6.846a1.979,1.979,0,0,0-3.749-1.269c-.947,2.8-2.706,4.157-5.376,4.157a6.506,6.506,0,0,1-5.917-4.7,1.979,1.979,0,0,0-1.878-1.343h-.056a1.979,1.979,0,0,0-1.884,1.344,6.075,6.075,0,0,1-11.835,0,1.978,1.978,0,0,0-1.878-1.343h-.056a1.979,1.979,0,0,0-1.884,1.344,6.075,6.075,0,0,1-11.835,0,1.978,1.978,0,0,0-1.878-1.343h-.056a1.979,1.979,0,0,0-1.884,1.344,6.506,6.506,0,0,1-5.917,4.7,6.506,6.506,0,0,1-5.917-4.7,1.979,1.979,0,0,0-1.878-1.343H56.22a1.979,1.979,0,0,0-1.884,1.344,6.506,6.506,0,0,1-5.917,4.7c-2.671,0-4.429-1.36-5.376-4.157a1.979,1.979,0,0,0-3.749,1.269C40.788,118.312,44.029,120.743,48.419,120.743Z" transform="translate(-31.436 0)" fill="#12263f"/>
    <path id="Trazado_126594" data-name="Trazado 126594" d="M17.053,205.18a10,10,0,0,0,7.826,3.968,10,10,0,0,0,7.826-3.968,9.7,9.7,0,0,0,15.652,0,9.7,9.7,0,0,0,15.652,0,10,10,0,0,0,7.826,3.968c4.39,0,7.631-2.431,9.125-6.846a1.979,1.979,0,1,0-3.749-1.269c-.947,2.8-2.706,4.157-5.376,4.157a6.506,6.506,0,0,1-5.917-4.7,1.979,1.979,0,0,0-1.878-1.343h-.056a1.979,1.979,0,0,0-1.884,1.344,6.506,6.506,0,0,1-5.917,4.7,6.506,6.506,0,0,1-5.917-4.7,1.978,1.978,0,0,0-1.878-1.343h-.056a1.979,1.979,0,0,0-1.884,1.344,6.506,6.506,0,0,1-5.917,4.7,6.506,6.506,0,0,1-5.917-4.7,1.979,1.979,0,0,0-1.878-1.343H32.68a1.979,1.979,0,0,0-1.884,1.344,6.506,6.506,0,0,1-5.917,4.7,6.506,6.506,0,0,1-5.917-4.7,1.979,1.979,0,0,0-1.878-1.343h-.056a1.979,1.979,0,0,0-1.884,1.344,6.506,6.506,0,0,1-5.917,4.7c-2.671,0-4.429-1.36-5.376-4.157A1.979,1.979,0,1,0,.1,202.3c1.495,4.415,4.735,6.846,9.125,6.846A10,10,0,0,0,17.053,205.18Z" transform="translate(0 -70.908)" fill="#12263f"/>
    <path id="Trazado_126595" data-name="Trazado 126595" d="M118.915,288.2a1.979,1.979,0,0,0-2.509,1.24c-.947,2.8-2.706,4.157-5.376,4.157a6.506,6.506,0,0,1-5.917-4.7,1.979,1.979,0,0,0-1.879-1.343h-.056a1.979,1.979,0,0,0-1.883,1.344,6.075,6.075,0,0,1-11.835,0,1.978,1.978,0,0,0-1.879-1.343h-.055a1.979,1.979,0,0,0-1.883,1.344,6.075,6.075,0,0,1-11.835,0,1.979,1.979,0,0,0-1.879-1.343h-.055a1.978,1.978,0,0,0-1.883,1.344,6.506,6.506,0,0,1-5.917,4.7,6.506,6.506,0,0,1-5.917-4.7,1.979,1.979,0,0,0-1.879-1.343H56.22a1.978,1.978,0,0,0-1.883,1.344,6.506,6.506,0,0,1-5.917,4.7c-2.671,0-4.429-1.36-5.376-4.157a1.979,1.979,0,1,0-3.749,1.269c1.495,4.415,4.735,6.846,9.125,6.846a10,10,0,0,0,7.826-3.968,9.7,9.7,0,0,0,15.653,0,9.7,9.7,0,0,0,15.653,0,9.7,9.7,0,0,0,15.653,0,10,10,0,0,0,7.826,3.968c4.39,0,7.631-2.431,9.125-6.846A1.979,1.979,0,0,0,118.915,288.2Z" transform="translate(-31.437 -141.815)" fill="#12263f"/>
  </g>
</svg>
