<svg xmlns="http://www.w3.org/2000/svg" width="157" height="157" viewBox="0 0 157 157">
  <g id="Grupo_91069" data-name="Grupo 91069" transform="translate(-469 -2045)">
    <circle id="Elipse_4057" data-name="Elipse 4057" cx="78.5" cy="78.5" r="78.5" transform="translate(469 2045)" fill="#ffba5b"/>
    <g id="cow" transform="translate(495 2032.011)">
      <path id="Trazado_100516" data-name="Trazado 100516" d="M115.315,338.277a6.152,6.152,0,0,1-6.152-6.152v25.292h8.086v-19.14Z" transform="translate(-86.776 -225.024)" fill="#d88a55"/>
      <path id="Trazado_100517" data-name="Trazado 100517" d="M109.163,332.125v25.292h4.1V337.925A6.153,6.153,0,0,1,109.163,332.125Z" transform="translate(-86.776 -225.024)" fill="#c57a44"/>
      <path id="Trazado_100518" data-name="Trazado 100518" d="M356.106,362.122h8.086v19.14h-8.086Z" transform="translate(-283.076 -248.869)" fill="#d88a55"/>
      <path id="Trazado_100519" data-name="Trazado 100519" d="M356.106,362.122h4.1v19.14h-4.1Z" transform="translate(-283.076 -248.869)" fill="#c57a44"/>
      <path id="Trazado_100520" data-name="Trazado 100520" d="M356.106,424.2h8.086v6.409h-8.086Z" transform="translate(-283.076 -298.218)" fill="#32569d"/>
      <path id="Trazado_100521" data-name="Trazado 100521" d="M356.106,424.2h4.1v6.409h-4.1Z" transform="translate(-283.076 -298.218)" fill="#303a78"/>
      <path id="Trazado_100522" data-name="Trazado 100522" d="M169.708,118.24H138.665a7.66,7.66,0,0,1-8.3,2.434l-.269-.087v10.508a15.715,15.715,0,0,1-2.289,8.161,7.537,7.537,0,0,1,.378,2.356v.571a7.625,7.625,0,0,1-7.6,7.6H109.162V162.1a6.152,6.152,0,0,0,6.152,6.152h7.969a2.051,2.051,0,0,1,2.051,2.051v17.089h8.086V170.305a2.051,2.051,0,0,1,2.051-2.051h38.456a2.051,2.051,0,0,1,2.051,2.051v17.089h8.086v-54.8a14.354,14.354,0,0,0-14.354-14.354Z" transform="translate(-86.775 -55.002)" fill="#ea9b58"/>
      <path id="Trazado_100523" data-name="Trazado 100523" d="M115.315,284.377V272.059h-6.152v12.318a6.152,6.152,0,0,0,6.152,6.152h6.152A6.152,6.152,0,0,1,115.315,284.377Z" transform="translate(-86.776 -177.276)" fill="#d88a55"/>
      <path id="Trazado_100524" data-name="Trazado 100524" d="M80.639,64.344V59.226a2.686,2.686,0,0,0-2.678-2.678h-.2a2.686,2.686,0,0,0-2.678,2.678v5.118Z" transform="translate(-59.684 -5.962)" fill="#e7b795"/>
      <path id="Trazado_100525" data-name="Trazado 100525" d="M171.6,64.344V59.226a2.686,2.686,0,0,0-2.678-2.678h-.2a2.686,2.686,0,0,0-2.678,2.678v5.118Z" transform="translate(-131.993 -5.962)" fill="#e7b795"/>
      <path id="Trazado_100526" data-name="Trazado 100526" d="M220.132,94.561h-7.883v7.485a7.875,7.875,0,0,0,9.817-4.748,2.046,2.046,0,0,0-1.933-2.737Z" transform="translate(-168.721 -36.179)" fill="#f6a96c"/>
      <path id="Trazado_100527" data-name="Trazado 100527" d="M17.432,94.561H9.549A2.045,2.045,0,0,0,7.616,97.3a7.875,7.875,0,0,0,9.817,4.748V94.561Z" transform="translate(-5.953 -36.179)" fill="#f6a96c"/>
      <path id="Trazado_100528" data-name="Trazado 100528" d="M11.718,97.3a2.045,2.045,0,0,1,1.933-2.737h-4.1A2.046,2.046,0,0,0,7.616,97.3a7.875,7.875,0,0,0,9.432,4.863A7.887,7.887,0,0,1,11.718,97.3Z" transform="translate(-5.953 -36.178)" fill="#ea9b58"/>
      <path id="Trazado_100529" data-name="Trazado 100529" d="M55.973,94.561v17.711a15.893,15.893,0,0,0,2.413,8.425,7.631,7.631,0,0,1,7.306-5.511H78.3a7.631,7.631,0,0,1,7.306,5.511,15.892,15.892,0,0,0,2.413-8.425V94.561Z" transform="translate(-44.494 -36.179)" fill="#d88a55"/>
      <path id="Trazado_100530" data-name="Trazado 100530" d="M62.539,115.877a15.912,15.912,0,0,1-.413-3.605V94.561H55.973v17.711a15.893,15.893,0,0,0,2.413,8.425A7.662,7.662,0,0,1,62.539,115.877Z" transform="translate(-44.494 -36.179)" fill="#c57a44"/>
      <path id="Trazado_100531" data-name="Trazado 100531" d="M86.507,210.907H73.9a7.625,7.625,0,0,1-7.6-7.6v-.571a7.625,7.625,0,0,1,7.6-7.6H86.507a7.625,7.625,0,0,1,7.6,7.6v.571A7.625,7.625,0,0,1,86.507,210.907Z" transform="translate(-52.698 -116.125)" fill="#edcab2"/>
      <path id="Trazado_100532" data-name="Trazado 100532" d="M70.8,203.306v-.571a7.625,7.625,0,0,1,7.6-7.6H73.9a7.625,7.625,0,0,0-7.6,7.6v.571a7.625,7.625,0,0,0,7.6,7.6h4.512A7.625,7.625,0,0,1,70.8,203.306Z" transform="translate(-52.698 -116.125)" fill="#e7b795"/>
      <path id="Trazado_100533" data-name="Trazado 100533" d="M109.163,424.2h8.086v6.409h-8.086Z" transform="translate(-86.776 -298.218)" fill="#32569d"/>
      <path id="Trazado_100534" data-name="Trazado 100534" d="M109.163,424.2h4.1v6.409h-4.1Z" transform="translate(-86.776 -298.218)" fill="#303a78"/>
      <path id="Trazado_100535" data-name="Trazado 100535" d="M434.961,424.2h8.086v6.409h-8.086Z" transform="translate(-345.76 -298.218)" fill="#32569d"/>
      <path id="Trazado_100536" data-name="Trazado 100536" d="M434.961,424.2h4.1v6.409h-4.1Z" transform="translate(-345.76 -298.218)" fill="#303a78"/>
      <path id="Trazado_100537" data-name="Trazado 100537" d="M188.018,424.2H196.1v6.409h-8.086Z" transform="translate(-149.459 -298.218)" fill="#32569d"/>
      <path id="Trazado_100538" data-name="Trazado 100538" d="M188.018,424.2h4.1v6.409h-4.1Z" transform="translate(-149.459 -298.218)" fill="#303a78"/>
      <path id="Trazado_100539" data-name="Trazado 100539" d="M103.462,130.855H98.825V95.249a1.538,1.538,0,0,0-3.076,0v29.2h-5.01V115.3a3.593,3.593,0,0,0-3.589-3.589H60.977a1.538,1.538,0,1,0,0,3.076H71.491v16.064H69.347v-2.71a1.538,1.538,0,1,0-3.076,0v2.71H64.426v-2.71a1.538,1.538,0,1,0-3.076,0v2.71H59.5v-2.71a1.538,1.538,0,1,0-3.076,0v2.71H54.583v-2.71a1.538,1.538,0,1,0-3.076,0v2.71H48.182V115.3a.513.513,0,0,1,.512-.512h4.967a1.538,1.538,0,1,0,0-3.076H48.695a3.593,3.593,0,0,0-3.589,3.589v9.142H40.1V115.3a3.593,3.593,0,0,0-3.589-3.589H28.539a4.619,4.619,0,0,1-4.614-4.614V96.321h9.884a9.151,9.151,0,0,0,9.141-9.141v-.571a9.146,9.146,0,0,0-.187-1.843,17.433,17.433,0,0,0,2.3-8.673,1.538,1.538,0,0,0-3.076,0,14.382,14.382,0,0,1-.9,5,9.131,9.131,0,0,0-7.285-3.628H21.2A9.13,9.13,0,0,0,13.912,81.1a14.383,14.383,0,0,1-.9-5V59.92H41.989v8.909a1.538,1.538,0,1,0,3.076,0V67.743c.3.028.594.048.9.048a9.445,9.445,0,0,0,6.894-3.015H82.933A12.831,12.831,0,0,1,95.749,77.592V88a1.538,1.538,0,0,0,3.076,0V77.592A15.91,15.91,0,0,0,82.933,61.7H54.768l.018-.046a3.554,3.554,0,0,0-.419-3.264,3.6,3.6,0,0,0-2.956-1.546H41.147v-3.58a4.221,4.221,0,0,0-4.216-4.216h-.2a4.221,4.221,0,0,0-4.216,4.216v3.58H22.493v-3.58a4.221,4.221,0,0,0-4.216-4.216h-.2a4.221,4.221,0,0,0-4.216,4.216v3.58H3.6A3.6,3.6,0,0,0,.639,58.39,3.555,3.555,0,0,0,.22,61.654a9.449,9.449,0,0,0,8.824,6.137c.3,0,.6-.019.9-.048v8.35a17.431,17.431,0,0,0,2.3,8.673,9.146,9.146,0,0,0-.187,1.843v.571a9.15,9.15,0,0,0,8.792,9.132v34.543H18.9v-2.71a1.538,1.538,0,0,0-3.076,0v2.71H14.6v-2.71a1.538,1.538,0,0,0-3.076,0v2.71h-2a1.538,1.538,0,1,0,0,3.076h93.942a1.538,1.538,0,0,0,0-3.076ZM45.066,59.92h6.345a.522.522,0,0,1,.431.227.46.46,0,0,1,.06.437,6.326,6.326,0,0,1-6.836,4.066ZM35.59,53.264a1.141,1.141,0,0,1,1.14-1.14h.2a1.141,1.141,0,0,1,1.14,1.14v3.58H35.59v-3.58Zm-18.654,0a1.141,1.141,0,0,1,1.14-1.14h.2a1.141,1.141,0,0,1,1.14,1.14v3.58h-2.48v-3.58Zm-7,11.386A6.326,6.326,0,0,1,3.1,60.583a.461.461,0,0,1,.06-.437A.522.522,0,0,1,3.6,59.92H9.941ZM15.133,87.18v-.571A6.071,6.071,0,0,1,21.2,80.545H33.809a6.071,6.071,0,0,1,6.064,6.064v.571a6.071,6.071,0,0,1-6.064,6.064H21.2a6.071,6.071,0,0,1-6.064-6.064Zm13.8,43.674h-5.01v-3.333h5.01Zm0-6.409h-5.01v-11.2a7.65,7.65,0,0,0,4.614,1.542h.4Zm8.086,6.409h-5.01V114.791h4.5a.513.513,0,0,1,.512.512Zm8.086,0H40.1v-3.333h5.01Zm34.471,0h-5.01v-3.333h5.01Zm0-6.409h-5.01v-9.655h5.01Zm8.086,6.409h-5.01V114.791h4.5a.513.513,0,0,1,.512.512Zm8.086,0h-5.01v-3.333h5.01Z" transform="translate(0)" fill="#12263f"/>
      <path id="Trazado_100540" data-name="Trazado 100540" d="M93.443,144.1v3.092a1.538,1.538,0,0,0,3.076,0V144.1a1.538,1.538,0,0,0-3.076,0Z" transform="translate(-74.28 -74.332)" fill="#12263f"/>
      <path id="Trazado_100541" data-name="Trazado 100541" d="M159.779,144.1v3.092a1.538,1.538,0,0,0,3.076,0V144.1a1.538,1.538,0,0,0-3.076,0Z" transform="translate(-127.012 -74.332)" fill="#12263f"/>
      <path id="Trazado_100542" data-name="Trazado 100542" d="M98.613,222.5H96.152a1.538,1.538,0,0,0,0,3.076h2.461a1.538,1.538,0,0,0,0-3.076Z" transform="translate(-75.211 -137.882)" fill="#12263f"/>
      <path id="Trazado_100543" data-name="Trazado 100543" d="M152.146,224.04a1.538,1.538,0,0,0-1.538-1.538h-2.461a1.538,1.538,0,0,0,0,3.076h2.461A1.538,1.538,0,0,0,152.146,224.04Z" transform="translate(-116.543 -137.882)" fill="#12263f"/>
    </g>
  </g>
</svg>
