<svg xmlns="http://www.w3.org/2000/svg" width="157" height="157" viewBox="0 0 157 157">
  <g id="Grupo_91071" data-name="Grupo 91071" transform="translate(-974 -2045)">
    <circle id="Elipse_4059" data-name="Elipse 4059" cx="78.5" cy="78.5" r="78.5" transform="translate(974 2045)" fill="#ffba5b"/>
    <g id="filled_outline" data-name="filled outline" transform="translate(977.742 2063.004)">
      <g id="Grupo_53797" data-name="Grupo 53797" transform="translate(33.479 52.976)">
        <path id="Trazado_100560" data-name="Trazado 100560" d="M119.12,239.026v-8.6l-6.924,2.308a2.58,2.58,0,0,1-3.4-2.448v-13.62H50.322v30.6A23.174,23.174,0,0,1,40,266.545H119.12a23.175,23.175,0,0,1-10.32-19.283v-.116a4.791,4.791,0,0,1,2.649-4.285Z" transform="translate(-40.003 -216.667)" fill="#7a4922"/>
        <path id="Trazado_100561" data-name="Trazado 100561" d="M101.717,450.039c-.739,1.767-1.566,3.514-2.473,5.206H96.03a1.459,1.459,0,0,1,.181-.592A57.751,57.751,0,0,0,99,448.9a1.475,1.475,0,1,1,2.722,1.135Z" transform="translate(-85.705 -405.367)" fill="#7a4922"/>
        <path id="Trazado_100562" data-name="Trazado 100562" d="M213.877,434.416A50.414,50.414,0,0,1,212.2,439.8l-1.076,2.871h-3.09a1.448,1.448,0,0,1,.088-.394l1.318-3.512a47.175,47.175,0,0,0,1.581-5.068,1.475,1.475,0,1,1,2.86.721Z" transform="translate(-177.066 -392.792)" fill="#7a4922"/>
        <path id="Trazado_100563" data-name="Trazado 100563" d="M324.632,409.566H321.5l-.188-.422a64.105,64.105,0,0,1-4.638-15.428,1.474,1.474,0,1,1,2.908-.487A61.093,61.093,0,0,0,324,407.947l.509,1.144A1.471,1.471,0,0,1,324.632,409.566Z" transform="translate(-265.668 -359.688)" fill="#7a4922"/>
        <path id="Trazado_100564" data-name="Trazado 100564" d="M385.207,442.04h-3.214a60.055,60.055,0,0,1-3.638-8.228,1.474,1.474,0,1,1,2.777-.988,57.357,57.357,0,0,0,3.894,8.624A1.458,1.458,0,0,1,385.207,442.04Z" transform="translate(-315.923 -392.162)" fill="#7a4922"/>
      </g>
      <circle id="Elipse_4065" data-name="Elipse 4065" cx="4.3" cy="4.3" r="4.3" transform="translate(107.437 66.736)" fill="#f6bb92"/>
      <ellipse id="Elipse_4066" data-name="Elipse 4066" cx="29.239" cy="10.32" rx="29.239" ry="10.32" transform="translate(43.799 42.657)" fill="#f6bb92"/>
      <path id="Trazado_100565" data-name="Trazado 100565" d="M277.9,34.667,272,38.6l5.9,1.474Z" transform="translate(-195.768 -15.23)" fill="#ffc864"/>
      <path id="Trazado_100566" data-name="Trazado 100566" d="M304,31.365v10.32a8.846,8.846,0,0,0,8.845,8.845h1.474a10.02,10.02,0,0,0,9.943-8.777l.377-3.017-10.32-2.949V29.651a5.657,5.657,0,0,0-8.8-4.708L304,25.96Z" transform="translate(-221.871 -6.522)" fill="#eae9e4"/>
      <path id="Trazado_100567" data-name="Trazado 100567" d="M398.878,65.234,399.371,64l5.9,4.423-3.6,4.315A12.59,12.59,0,0,1,392,77.268l.457-.608a49.98,49.98,0,0,0,6.421-11.426Z" transform="translate(-293.654 -39.157)" fill="#f7a014"/>
      <path id="Trazado_100568" data-name="Trazado 100568" d="M360,88v3.812a5.033,5.033,0,0,0,5.033,5.033,6.168,6.168,0,0,0,5.517-3.409l1.244-2.488Z" transform="translate(-267.551 -58.734)" fill="#a3612d"/>
      <path id="Trazado_100569" data-name="Trazado 100569" d="M111.737,65.262a5.751,5.751,0,0,0-3.934,1.553,1.479,1.479,0,0,0-.3.066l-2.293.765a1.106,1.106,0,0,1-1.456-1.049V52.976c0-2.239-1.415-5.373-7.838-8.032a11.512,11.512,0,0,0,6.957-6.109,14.048,14.048,0,0,0,6.28-4.311l3.6-4.315a1.474,1.474,0,0,0-.247-2.123l-5.9-4.423a1.474,1.474,0,0,0-2.253.632l-.494,1.235a48.706,48.706,0,0,1-2.1,4.544l-7.834-1.959V23.129A7.132,7.132,0,0,0,82.834,17.2l-7.42,4.947a1.474,1.474,0,0,0,.461,2.657l4.78,1.2v9.169a10.385,10.385,0,0,0,2.064,6.192c.112.15.229.295.35.438a80.71,80.71,0,0,0-10.03-.61c-7.973,0-15.49,1.1-21.166,3.106-7.892,2.785-9.549,6.261-9.549,8.688v30.6a21.657,21.657,0,0,1-9.663,18.056,1.474,1.474,0,0,0,.818,2.7H112.6a1.474,1.474,0,0,0,.818-2.7,21.657,21.657,0,0,1-9.663-18.055v-.116a3.3,3.3,0,0,1,1.834-2.967l7.671-3.836a1.484,1.484,0,0,0,.159-.094,5.774,5.774,0,0,0-1.679-11.3ZM105.582,31.6a1.472,1.472,0,0,0-.891-.786c.6-1.191,1.169-2.407,1.677-3.638l3.119,2.34-2.6,3.123a11.106,11.106,0,0,1-2.219,2.027l.9-1.791a1.474,1.474,0,0,0,.021-1.276ZM80.655,22.955l-.832-.208.832-.555Zm13.268,8.2L102.1,33.2l-.421.843a4.669,4.669,0,0,1-4.2,2.595,3.559,3.559,0,0,1-3.559-3.559ZM83.6,24.843V20.226l.866-.578a4.183,4.183,0,0,1,6.505,3.481v9.948a6.508,6.508,0,0,0,6.508,6.508,7.726,7.726,0,0,0,1.557-.159,8.564,8.564,0,0,1-6.591,3.108H90.975A7.371,7.371,0,0,1,83.6,35.163Zm9.323,22.124-1.951,1.464V46.356Q91.984,46.644,92.926,46.967Zm-40.073.1c5.369-1.895,12.537-2.938,20.185-2.938a71.643,71.643,0,0,1,14.988,1.488v2.009a47.152,47.152,0,0,0-5.713-1.05,1.474,1.474,0,1,0-.369,2.925,40.182,40.182,0,0,1,6.081,1.186v.691H86.552a1.474,1.474,0,1,0,0,2.948H89.5a1.474,1.474,0,0,0,1.474-1.474v-.737l.25-.187c.869.475,1.225.869,1.225,1.047,0,0-.119.513-1.6,1.247a24.158,24.158,0,0,1-6.04,1.788,1.474,1.474,0,1,0,.536,2.9c4.516-.834,9.882-2.513,10.044-5.783a1.469,1.469,0,0,0,.008-.151,3.715,3.715,0,0,0-1.675-2.921l2.387-1.79c2.985,1.458,4.694,3.14,4.694,4.711,0,2.023-2.834,4.232-7.58,5.907-5.369,1.894-12.537,2.938-20.184,2.938s-14.816-1.044-20.185-2.939c-4.747-1.675-7.58-3.884-7.58-5.907s2.834-4.232,7.58-5.907Zm51.413,30.783a6.231,6.231,0,0,0-3.464,5.6v.116a24.593,24.593,0,0,0,7.6,17.808h-6.3a57.311,57.311,0,0,1-3.415-7.742,1.474,1.474,0,1,0-2.778.987,60.263,60.263,0,0,0,2.877,6.755H91.877l-.065-.145a61.1,61.1,0,0,1-4.424-14.718A1.474,1.474,0,1,0,84.48,87a64.045,64.045,0,0,0,4.183,14.376H68.086l.524-1.4A50.485,50.485,0,0,0,70.291,94.6a1.474,1.474,0,1,0-2.86-.719,47.432,47.432,0,0,1-1.582,5.068l-.912,2.433H57.9a64.112,64.112,0,0,0,3.912-12.867,1.474,1.474,0,0,0-2.9-.556,61.14,61.14,0,0,1-4.165,13.278l-.065.145H47.778c.612-1.225,1.188-2.474,1.713-3.732a1.474,1.474,0,1,0-2.721-1.135c-.689,1.652-1.466,3.287-2.308,4.867H37.67a24.594,24.594,0,0,0,7.6-17.808V58.24a22.091,22.091,0,0,0,6.6,3.424c5.676,2,13.193,3.107,21.166,3.107s15.49-1.1,21.166-3.107a22.091,22.091,0,0,0,6.6-3.424V66.6a4.031,4.031,0,0,0,5.187,3.889c-.017.181-.027.365-.027.55a5.77,5.77,0,0,0,2.472,4.733Zm7.471-3.991a2.826,2.826,0,1,1,2.826-2.826,2.826,2.826,0,0,1-2.826,2.826Z" transform="translate(0)" fill="#12263f"/>
      <path id="Trazado_100570" data-name="Trazado 100570" d="M209.471,182.572a1.469,1.469,0,0,0,.15-.008c1.392-.141,2.849-.241,4.331-.3a1.474,1.474,0,1,0-.112-2.946c-1.543.058-3.062.163-4.515.31a1.474,1.474,0,0,0,.147,2.941Z" transform="translate(-143.56 -133.226)" fill="#12263f"/>
      <path id="Trazado_100571" data-name="Trazado 100571" d="M137.474,193.089a1.474,1.474,0,0,0,1.474-1.474c0-.224,1.081-1.6,6.217-2.746a1.474,1.474,0,1,0-.64-2.878c-5.657,1.258-8.526,3.15-8.526,5.624A1.474,1.474,0,0,0,137.474,193.089Z" transform="translate(-84.83 -138.638)" fill="#12263f"/>
      <path id="Trazado_100572" data-name="Trazado 100572" d="M160.075,228.009a1.474,1.474,0,0,0,.928,1.867c4.089,1.373,10.171,2.16,16.686,2.16.506,0,1.011,0,1.5-.014a1.475,1.475,0,0,0-.055-2.948c-.472.009-.958.013-1.446.013-6.209,0-11.949-.731-15.748-2.007a1.474,1.474,0,0,0-1.867.929Z" transform="translate(-104.406 -172.122)" fill="#12263f"/>
      <path id="Trazado_100573" data-name="Trazado 100573" d="M214.07,203.461a14.593,14.593,0,0,1-1.981-.357q.279-.073.627-.144a1.474,1.474,0,1,0-.585-2.89c-2.74.555-4.13,1.576-4.13,3.035,0,1.732,1.926,2.838,5.725,3.286a1.509,1.509,0,0,0,.174.01,1.474,1.474,0,0,0,.171-2.939Z" transform="translate(-143.562 -150.127)" fill="#12263f"/>
      <path id="Trazado_100574" data-name="Trazado 100574" d="M265.3,201.721a14.43,14.43,0,0,1,2.016.367,1.474,1.474,0,0,0,1.022,2.758c2.011-.584,3.031-1.515,3.031-2.767,0-1.732-1.926-2.838-5.725-3.286a1.474,1.474,0,1,0-.345,2.928Z" transform="translate(-189.241 -149.102)" fill="#12263f"/>
      <path id="Trazado_100575" data-name="Trazado 100575" d="M126.771,304a1.474,1.474,0,0,0-1.474,1.474v3.987a57.079,57.079,0,0,1-2.357,16.237,1.474,1.474,0,1,0,2.828.834,60.016,60.016,0,0,0,2.478-17.072v-3.987A1.474,1.474,0,0,0,126.771,304Z" transform="translate(-74.127 -234.93)" fill="#12263f"/>
      <path id="Trazado_100576" data-name="Trazado 100576" d="M183.543,336a1.474,1.474,0,0,0-1.474,1.474,61.194,61.194,0,0,1-.424,7.185,1.474,1.474,0,0,0,1.289,1.65,1.491,1.491,0,0,0,.176.01,1.474,1.474,0,0,0,1.462-1.3,64.237,64.237,0,0,0,.447-7.545A1.474,1.474,0,0,0,183.543,336Z" transform="translate(-122.054 -261.033)" fill="#12263f"/>
      <path id="Trazado_100577" data-name="Trazado 100577" d="M231.89,368a1.474,1.474,0,0,0-1.474,1.474,47.4,47.4,0,0,1-.346,5.71,1.474,1.474,0,0,0,1.284,1.651,1.5,1.5,0,0,0,.18.011,1.474,1.474,0,0,0,1.462-1.3,50.442,50.442,0,0,0,.369-6.075A1.474,1.474,0,0,0,231.89,368Z" transform="translate(-161.555 -287.136)" fill="#12263f"/>
      <path id="Trazado_100578" data-name="Trazado 100578" d="M268.878,401.3a1.474,1.474,0,1,0-2.927.356,50.4,50.4,0,0,0,1.981,9.113,1.474,1.474,0,1,0,2.81-.891A47.428,47.428,0,0,1,268.878,401.3Z" transform="translate(-190.825 -313.238)" fill="#12263f"/>
      <path id="Trazado_100579" data-name="Trazado 100579" d="M314.948,337.474a1.474,1.474,0,1,0-2.948,0c0,2.007.1,4.037.285,6.036a1.474,1.474,0,0,0,1.465,1.335c.046,0,.093,0,.141-.007a1.474,1.474,0,0,0,1.329-1.607C315.041,341.326,314.948,339.388,314.948,337.474Z" transform="translate(-228.397 -261.033)" fill="#12263f"/>
      <path id="Trazado_100580" data-name="Trazado 100580" d="M362.949,309.461v-3.987a1.474,1.474,0,1,0-2.949,0v3.987a60.1,60.1,0,0,0,1.665,14.041,1.474,1.474,0,1,0,2.869-.681A57.171,57.171,0,0,1,362.949,309.461Z" transform="translate(-267.551 -234.93)" fill="#12263f"/>
      <circle id="Elipse_4067" data-name="Elipse 4067" cx="1.5" cy="1.5" r="1.5" transform="translate(85.006 19.997)" fill="#12263f"/>
    </g>
  </g>
</svg>
