<svg xmlns="http://www.w3.org/2000/svg" width="157" height="157" viewBox="0 0 157 157">
  <g id="Grupo_91070" data-name="Grupo 91070" transform="translate(-722 -2045)">
    <circle id="Elipse_4058" data-name="Elipse 4058" cx="78.5" cy="78.5" r="78.5" transform="translate(722 2045)" fill="#ffba5b"/>
    <g id="Filled_outline" data-name="Filled outline" transform="translate(748 2073)">
      <path id="Trazado_100544" data-name="Trazado 100544" d="M57.359,40l-6.795,6.795H3V58.686l6.795,1.7L8.207,63.561a3.674,3.674,0,0,0,3.287,5.317H82.839A13.022,13.022,0,0,0,94.73,60.385L101.525,45.1V40Z" transform="translate(0.699 23.756)" fill="#8b3123"/>
      <path id="Trazado_100545" data-name="Trazado 100545" d="M3,48v5.1l6.795,1.7H94.73L97.751,48Z" transform="translate(0.699 29.346)" fill="#dc6c54"/>
      <path id="Trazado_100546" data-name="Trazado 100546" d="M42,40H58.987v6.795H42Z" transform="translate(27.948 23.756)" fill="#dc6c54"/>
      <path id="Trazado_100547" data-name="Trazado 100547" d="M38,40h6.795v6.795H41.4A3.4,3.4,0,0,1,38,43.4Z" transform="translate(25.154 23.756)" fill="#fff69a"/>
      <path id="Trazado_100548" data-name="Trazado 100548" d="M3.4,0h3.4V6.795H0V3.4A3.4,3.4,0,0,1,3.4,0Z" transform="translate(93.73 70.551) rotate(180)" fill="#fff69a"/>
      <path id="Trazado_100549" data-name="Trazado 100549" d="M44.782,49.782H68.564V26H21V56.577H37.987Z" transform="translate(13.276 13.974)" fill="#f9bb4b"/>
      <path id="Trazado_100550" data-name="Trazado 100550" d="M34,30H59.481V40.192H34Z" transform="translate(22.359 16.769)" fill="#fff69a"/>
      <path id="Trazado_100551" data-name="Trazado 100551" d="M21,30H36.288V40.192H21Z" transform="translate(13.276 16.769)" fill="#fff69a"/>
      <path id="Trazado_100552" data-name="Trazado 100552" d="M24,39h3.4v3.4H24Z" transform="translate(15.372 23.058)" fill="#f4f4e6"/>
      <path id="Trazado_100553" data-name="Trazado 100553" d="M28,39h3.4v3.4H28Z" transform="translate(18.166 23.058)" fill="#f4f4e6"/>
      <path id="Trazado_100554" data-name="Trazado 100554" d="M24.1,22H73.359v6.795H19V27.1A5.1,5.1,0,0,1,24.1,22Z" transform="translate(11.878 11.179)" fill="#8b3123"/>
      <path id="Trazado_100555" data-name="Trazado 100555" d="M32,18H52.385v6.795H32Z" transform="translate(20.961 8.385)" fill="#dc6c54"/>
      <path id="Trazado_100556" data-name="Trazado 100556" d="M35.878,32.481,7,12.1,10.4,7,46.07,32.481Z" transform="translate(3.494 0.699)" fill="#2d75bb"/>
      <path id="Trazado_100557" data-name="Trazado 100557" d="M102.224,62.058h-5.1v-3.4h3.4v-3.4H83.538V41.673h1.7a1.7,1.7,0,0,0,1.7-1.7V33.179a1.7,1.7,0,0,0-1.7-1.7H75.045v-5.1a1.7,1.7,0,0,0-1.7-1.7H64.852v-3.4h5.1v-3.4H56.359v3.4h5.1v3.4H52.961a1.7,1.7,0,0,0-1.7,1.7v5.1H50.108L14.878,6.318a1.678,1.678,0,0,0-1.294-.289,1.7,1.7,0,0,0-1.106.727l-3.4,5.1a1.7,1.7,0,0,0,.433,2.331l4.378,3.092V32.9C13.084,35.281,6.911,53.246,2.34,59.34a1.7,1.7,0,0,0,.416,2.433A25.1,25.1,0,0,0,15.59,65.455a25.1,25.1,0,0,0,12.834-3.683,1.7,1.7,0,0,0,.416-2.433C24.27,53.248,18.1,35.281,17.288,32.9V19.671L34.333,31.7a6.8,6.8,0,0,0-5.154,6.572v1.7a1.7,1.7,0,0,0,1.7,1.7h1.7V68.852H3.7a1.7,1.7,0,0,0-1.7,1.7V82.442A1.7,1.7,0,0,0,3.288,84.09l4.739,1.189-.64,1.281a5.373,5.373,0,0,0,4.806,7.773H83.538a14.609,14.609,0,0,0,13.444-9.5l6.795-15.288a1.7,1.7,0,0,0,.146-.69v-5.1a1.7,1.7,0,0,0-1.7-1.7Zm-88.333-.083a22.554,22.554,0,0,1-7.743-2.208c.455-.725.917-1.529,1.381-2.4a20.765,20.765,0,0,0,6.362,1.76Zm0-6.261a17.254,17.254,0,0,1-4.833-1.359c.471-.984.938-2,1.4-3.041a14.439,14.439,0,0,0,3.436.946Zm0-6.883a11.2,11.2,0,0,1-2.1-.649c.749-1.806,1.457-3.6,2.1-5.278Zm76.442,9.83h3.4v3.4h-3.4Zm-1.7,6.795h3.4v1.7a1.7,1.7,0,0,1-1.7,1.7h-1.7Zm-1.7-6.795v3.4h-3.4v-3.4Zm-28.878,3.4a1.7,1.7,0,0,0-1.2.5l-6.3,6.3H35.974V58.66h13.59a1.7,1.7,0,0,0,1.7-1.7V46.769a1.7,1.7,0,0,0-1.7-1.7H35.974v-3.4H80.141v3.4H56.359a1.7,1.7,0,0,0-1.7,1.7V56.961a1.7,1.7,0,0,0,1.7,1.7H80.141v3.4Zm10.192,3.4v3.4h-1.7a1.7,1.7,0,0,1-1.7-1.7v-1.7ZM35.974,55.263V48.468H47.865v6.795Zm44.166-6.795v6.795H58.057V48.468ZM71.647,65.455h13.59v3.4H71.647ZM54.66,28.083H71.647v3.4H54.66ZM25.035,59.778a22.352,22.352,0,0,1-7.746,2.2v-2.8a17.232,17.232,0,0,0,6.384-1.762C24.129,58.268,24.593,59.061,25.035,59.778Zm-2.9-5.4a13.98,13.98,0,0,1-4.846,1.386V52.319a12.159,12.159,0,0,0,3.467-.944c.454,1.026.914,2.03,1.379,3Zm-2.718-6.124a8.893,8.893,0,0,1-2.128.652v-6c.651,1.7,1.369,3.527,2.13,5.349ZM12.824,12.36,14.331,10.1l29.933,21.38H39.91Zm23.15,22.518H83.538v3.4H32.577A3.4,3.4,0,0,1,35.974,34.878ZM83.538,90.936H12.192a1.977,1.977,0,0,1-1.767-2.861l1.118-2.236H92.557a10.79,10.79,0,0,1-9.018,5.1Zm10.788-8.494H10.7L5.4,81.115V79.045H95.835Zm6.2-13.95-3.18,7.155H5.4v-3.4H51.263a1.7,1.7,0,0,0,1.2-.5l6.3-6.3h2.694v1.7a5.1,5.1,0,0,0,5.1,5.1H90.333a5.1,5.1,0,0,0,5.1-5.1v-1.7h5.1Z" transform="translate(0 0)" fill="#12263f"/>
      <path id="Trazado_100558" data-name="Trazado 100558" d="M24,39h3.4v3.4H24Z" transform="translate(15.372 23.058)" fill="#12263f"/>
      <path id="Trazado_100559" data-name="Trazado 100559" d="M28,39h3.4v3.4H28Z" transform="translate(18.166 23.058)" fill="#12263f"/>
    </g>
  </g>
</svg>
