<svg xmlns="http://www.w3.org/2000/svg" width="157" height="157" viewBox="0 0 157 157">
  <g id="Grupo_91068" data-name="Grupo 91068" transform="translate(-51 -60)">
    <circle id="senior-man-working-in-the-field-with-chest-of-vegetables" cx="78.5" cy="78.5" r="78.5" transform="translate(51 60)" fill="#ffba5b"/>
    <g id="filled_outline" transform="translate(69 78)">
      <path id="Trazado_100581" data-name="Trazado 100581" d="M39.571,141.432a7.364,7.364,0,0,0-12.627,4.928,5.889,5.889,0,1,0,8.314,7.516,7.37,7.37,0,0,0,3.288-1.283,5.889,5.889,0,1,0,1.025-11.16Z" transform="translate(-6.526 -100.54)" fill="#02a437"/>
      <path id="Trazado_100582" data-name="Trazado 100582" d="M76.149,181.016a1.472,1.472,0,0,1-1.372-.937L72.1,173.221a1.472,1.472,0,0,1,2.743-1.07l2.677,6.857a1.472,1.472,0,0,1-1.371,2.008Z" transform="translate(-45.694 -126.65)" fill="#027e2a"/>
      <path id="Trazado_100583" data-name="Trazado 100583" d="M102.923,180.2c-.045,0-.091,0-.136-.006a1.472,1.472,0,0,1-1.331-1.6h0a11.418,11.418,0,0,1,2.883-6.573,1.472,1.472,0,0,1,2.2,1.956l-.016.018a8.457,8.457,0,0,0-2.135,4.868A1.472,1.472,0,0,1,102.923,180.2Z" transform="translate(-69.724 -126.906)" fill="#027e2a"/>
      <path id="Trazado_100584" data-name="Trazado 100584" d="M47.747,206.119a1.467,1.467,0,0,1-.987-.38,8.455,8.455,0,0,0-4.867-2.135,1.472,1.472,0,0,1,.269-2.932,11.421,11.421,0,0,1,6.572,2.882,1.472,1.472,0,0,1-.987,2.565Z" transform="translate(-20.036 -150.682)" fill="#027e2a"/>
      <path id="Trazado_100585" data-name="Trazado 100585" d="M89.033,242.056l-10.972,4.282-10.575-21.2a8.067,8.067,0,0,1,3.618-10.819q.327-.163.667-.3a8.067,8.067,0,0,1,10.447,4.582q.133.341.235.692Z" transform="translate(-41.318 -161.131)" fill="#fd9226"/>
      <path id="Trazado_100586" data-name="Trazado 100586" d="M272,24h5.889V65.222H272Z" transform="translate(-208.889 -6.528)" fill="#026a23"/>
      <path id="Trazado_100587" data-name="Trazado 100587" d="M235.614,99.5a12.7,12.7,0,0,0-.7-2.589L228.417,80,224,81.472l6.307,16.4a15.816,15.816,0,0,1,1.054,5.681v5.225Z" transform="translate(-169.722 -52.222)" fill="#027226"/>
      <path id="Trazado_100588" data-name="Trazado 100588" d="M261.355,125.225a5.6,5.6,0,0,1,0,6.717l-.02.028a6.257,6.257,0,0,1-5.006,2.5h-2.576a6.257,6.257,0,0,1-5.006-2.5l-.02-.028a5.6,5.6,0,0,1,0-6.717l1.9-2.53v-13.92l4.253-9.279.164-.357L262.4,80l4.417,1.472-6.307,16.4a15.816,15.816,0,0,0-1.054,5.681v19.144Z" transform="translate(-188.985 -52.222)" fill="#027e2a"/>
      <path id="Trazado_100589" data-name="Trazado 100589" d="M261.355,236.362l-.02.028a6.231,6.231,0,0,1-2.37,1.919l-8.8-.55a6.2,6.2,0,0,1-1.415-1.369l-.02-.028a5.6,5.6,0,0,1,0-6.717l.131-.175,1.767-.883,8.833-20.617v19.144l1.9,2.53A5.6,5.6,0,0,1,261.355,236.362Z" transform="translate(-188.985 -156.642)" fill="#027e2a"/>
      <g id="Grupo_53798" data-name="Grupo 53798" transform="translate(26.405 60.787)">
        <path id="Trazado_100590" data-name="Trazado 100590" d="M74.014,280.838a1.472,1.472,0,0,1-.536-2.844l2.743-1.07a1.472,1.472,0,1,1,1.07,2.743l-2.742,1.07A1.471,1.471,0,0,1,74.014,280.838Z" transform="translate(-72.54 -273.611)" fill="#e78244"/>
        <path id="Trazado_100591" data-name="Trazado 100591" d="M118.731,263.388a1.472,1.472,0,0,1-.536-2.844l2.743-1.07a1.472,1.472,0,0,1,1.07,2.743l-2.742,1.07A1.475,1.475,0,0,1,118.731,263.388Z" transform="translate(-109.028 -259.373)" fill="#e78244"/>
        <path id="Trazado_100592" data-name="Trazado 100592" d="M86.875,308.14a1.472,1.472,0,0,1-.536-2.844l3.888-1.472a1.472,1.472,0,0,1,1.07,2.743l-3.889,1.472A1.474,1.474,0,0,1,86.875,308.14Z" transform="translate(-83.034 -295.561)" fill="#e78244"/>
        <path id="Trazado_100593" data-name="Trazado 100593" d="M137.818,292.667a1.472,1.472,0,0,1-.536-2.844l1.372-.535a1.472,1.472,0,0,1,1.07,2.743l-1.372.535A1.476,1.476,0,0,1,137.818,292.667Z" transform="translate(-124.602 -283.7)" fill="#e78244"/>
      </g>
      <path id="Trazado_100594" data-name="Trazado 100594" d="M189,200h3.494a6.257,6.257,0,0,1,5.6,3.46l1.215,2.429h-3.494a6.257,6.257,0,0,1-5.6-3.459Z" transform="translate(-141.163 -150.139)" fill="#02a437"/>
      <path id="Trazado_100595" data-name="Trazado 100595" d="M221.105,225.776a1.472,1.472,0,0,1-1.472-1.472,10.479,10.479,0,0,1,8.4-10.248l.143-.029a1.472,1.472,0,0,1,.577,2.887l-.143.029a7.527,7.527,0,0,0-6.034,7.361,1.472,1.472,0,0,1-1.472,1.472Z" transform="translate(-166.159 -161.561)" fill="#8f6934"/>
      <path id="Trazado_100596" data-name="Trazado 100596" d="M261.355,236.362l-.02.028a6.231,6.231,0,0,1-2.37,1.919l-8.8-.55a6.2,6.2,0,0,1-1.415-1.369l-.02-.028a5.6,5.6,0,0,1,0-6.717l.131-.175,1.767-.883,8.833-20.617v19.144l1.9,2.53A5.6,5.6,0,0,1,261.355,236.362Z" transform="translate(-188.985 -156.642)" fill="#cbcbcb"/>
      <path id="Trazado_100597" data-name="Trazado 100597" d="M173.1,254a4.348,4.348,0,0,1,3.618,1.936,1.988,1.988,0,0,0,3.307,0,4.348,4.348,0,0,1,7.013-.3l.346.432a9.569,9.569,0,0,1,.642,11.05l-2.873,4.6a3.04,3.04,0,0,1-4.728.538,2.9,2.9,0,0,0-4.108,0,3.04,3.04,0,0,1-4.728-.538l-2.873-4.6a9.569,9.569,0,0,1,.642-11.05l.346-.432A4.348,4.348,0,0,1,173.1,254Z" transform="translate(-123.429 -194.202)" fill="#e82f3e"/>
      <path id="Trazado_100598" data-name="Trazado 100598" d="M194.312,287.4a1.468,1.468,0,0,1-1.041-.431,4.355,4.355,0,0,1-.818-5.034l.541-1.082a1.472,1.472,0,0,1,2.633,1.317l-.541,1.082a1.414,1.414,0,0,0,.265,1.635,1.472,1.472,0,0,1-1.04,2.514Z" transform="translate(-143.604 -215.459)" fill="#ff6268"/>
      <path id="Trazado_100599" data-name="Trazado 100599" d="M24,392h85.389v8.833H24Z" transform="translate(-6.528 -306.806)" fill="#ea9d2d"/>
      <path id="Trazado_100600" data-name="Trazado 100600" d="M52.417,410.944H49.472a1.472,1.472,0,1,1,0-2.944h2.944a1.472,1.472,0,1,1,0,2.944Z" transform="translate(-26.111 -319.861)" fill="#c38325"/>
      <path id="Trazado_100601" data-name="Trazado 100601" d="M436.417,410.944h-2.944a1.472,1.472,0,1,1,0-2.944h2.944a1.472,1.472,0,1,1,0,2.944Z" transform="translate(-339.445 -319.861)" fill="#c38325"/>
      <path id="Trazado_100602" data-name="Trazado 100602" d="M24,440h85.389v8.833H24Z" transform="translate(-6.528 -345.973)" fill="#fbb540"/>
      <path id="Trazado_100603" data-name="Trazado 100603" d="M52.417,458.944H49.472a1.472,1.472,0,1,1,0-2.944h2.944a1.472,1.472,0,1,1,0,2.944Z" transform="translate(-26.111 -359.028)" fill="#c38325"/>
      <path id="Trazado_100604" data-name="Trazado 100604" d="M244.417,410.944h-2.944a1.472,1.472,0,1,1,0-2.944h2.944a1.472,1.472,0,1,1,0,2.944Z" transform="translate(-182.778 -319.861)" fill="#c38325"/>
      <path id="Trazado_100605" data-name="Trazado 100605" d="M244.417,458.944h-2.944a1.472,1.472,0,1,1,0-2.944h2.944a1.472,1.472,0,1,1,0,2.944Z" transform="translate(-182.778 -359.028)" fill="#c38325"/>
      <path id="Trazado_100606" data-name="Trazado 100606" d="M436.417,458.944h-2.944a1.472,1.472,0,1,1,0-2.944h2.944a1.472,1.472,0,1,1,0,2.944Z" transform="translate(-339.445 -359.028)" fill="#c38325"/>
      <path id="Trazado_100607" data-name="Trazado 100607" d="M352,289.472l1.294,1.294a10.663,10.663,0,0,1,3.123,7.54h4.417v-1.472a10.663,10.663,0,0,0-3.123-7.54L356.417,288Z" transform="translate(-274.167 -221.945)" fill="#027e2a"/>
      <path id="Trazado_100608" data-name="Trazado 100608" d="M408.833,289.472l-1.294,1.294a10.663,10.663,0,0,0-3.123,7.54H400v-1.472a10.663,10.663,0,0,1,3.123-7.54L404.417,288Z" transform="translate(-313.334 -221.945)" fill="#027e2a"/>
      <path id="Trazado_100609" data-name="Trazado 100609" d="M341.126,160.554a5.51,5.51,0,0,0-1.99-4.244,5.518,5.518,0,0,0-5-6.784,11.039,11.039,0,0,0-19.137,0,5.519,5.519,0,0,0-5,6.784,5.518,5.518,0,0,0-.741,7.741,7.361,7.361,0,0,0,11,9.306,9.153,9.153,0,0,0,4.316-1.761,9.153,9.153,0,0,0,4.316,1.761,7.361,7.361,0,0,0,11-9.306A5.5,5.5,0,0,0,341.126,160.554Z" transform="translate(-238.266 -104.436)" fill="#02a437"/>
      <path id="Trazado_100610" data-name="Trazado 100610" d="M377.167,173.881a1.472,1.472,0,0,1-1.388-.982,2.946,2.946,0,0,0-5.554,0,1.472,1.472,0,1,1-2.776-.981,5.891,5.891,0,0,1,11.107,0,1.472,1.472,0,0,1-1.388,1.963Z" transform="translate(-286.703 -124.02)" fill="#027e2a"/>
      <path id="Trazado_100611" data-name="Trazado 100611" d="M338.417,216.833a4.417,4.417,0,0,1,0-8.833,1.472,1.472,0,1,1,0,2.944,1.472,1.472,0,0,0,0,2.944,1.472,1.472,0,1,1,0,2.944Z" transform="translate(-259.479 -156.667)" fill="#027e2a"/>
      <path id="Trazado_100612" data-name="Trazado 100612" d="M24,344h85.389v8.833H24Z" transform="translate(-6.528 -267.639)" fill="#fbb540"/>
      <path id="Trazado_100613" data-name="Trazado 100613" d="M52.417,362.944H49.472a1.472,1.472,0,1,1,0-2.944h2.944a1.472,1.472,0,1,1,0,2.944Z" transform="translate(-26.111 -280.695)" fill="#c38325"/>
      <path id="Trazado_100614" data-name="Trazado 100614" d="M436.417,362.944h-2.944a1.472,1.472,0,1,1,0-2.944h2.944a1.472,1.472,0,1,1,0,2.944Z" transform="translate(-339.445 -280.695)" fill="#c38325"/>
      <path id="Trazado_100615" data-name="Trazado 100615" d="M244.417,362.944h-2.944a1.472,1.472,0,1,1,0-2.944h2.944a1.472,1.472,0,1,1,0,2.944Z" transform="translate(-182.778 -280.695)" fill="#c38325"/>
      <path id="Trazado_100616" data-name="Trazado 100616" d="M49.472,410.944h2.944a1.472,1.472,0,1,0,0-2.944H49.472a1.472,1.472,0,1,0,0,2.944Z" transform="translate(-26.111 -319.861)" fill="#12263f"/>
      <path id="Trazado_100617" data-name="Trazado 100617" d="M433.472,410.944h2.944a1.472,1.472,0,1,0,0-2.944h-2.944a1.472,1.472,0,1,0,0,2.944Z" transform="translate(-339.445 -319.861)" fill="#12263f"/>
      <path id="Trazado_100618" data-name="Trazado 100618" d="M49.472,458.944h2.944a1.472,1.472,0,1,0,0-2.944H49.472a1.472,1.472,0,1,0,0,2.944Z" transform="translate(-26.111 -359.028)" fill="#12263f"/>
      <path id="Trazado_100619" data-name="Trazado 100619" d="M241.472,410.944h2.944a1.472,1.472,0,1,0,0-2.944h-2.944a1.472,1.472,0,1,0,0,2.944Z" transform="translate(-182.778 -319.861)" fill="#12263f"/>
      <path id="Trazado_100620" data-name="Trazado 100620" d="M241.472,458.944h2.944a1.472,1.472,0,1,0,0-2.944h-2.944a1.472,1.472,0,1,0,0,2.944Z" transform="translate(-182.778 -359.028)" fill="#12263f"/>
      <path id="Trazado_100621" data-name="Trazado 100621" d="M433.472,458.944h2.944a1.472,1.472,0,1,0,0-2.944h-2.944a1.472,1.472,0,1,0,0,2.944Z" transform="translate(-339.445 -359.028)" fill="#12263f"/>
      <path id="Trazado_100622" data-name="Trazado 100622" d="M122.848,260.31a1.472,1.472,0,0,0-1.907-.836l-2.743,1.07a1.472,1.472,0,0,0,1.07,2.743l2.743-1.07a1.472,1.472,0,0,0,.836-1.907Z" transform="translate(-82.626 -198.585)" fill="#12263f"/>
      <path id="Trazado_100623" data-name="Trazado 100623" d="M102.452,51.346a6.988,6.988,0,0,0-5.7-7.629,12.509,12.509,0,0,0-20.9,0,6.927,6.927,0,0,0-2.342.885l5.7-14.823a1.472,1.472,0,0,0-.845-1.9l-.063-.023-4.417-1.472a1.472,1.472,0,0,0-1.84.868l-1.57,4.083V17.472A1.472,1.472,0,0,0,69,16H63.111a1.472,1.472,0,0,0-1.472,1.472V31.333l-1.57-4.083a1.472,1.472,0,0,0-1.84-.868l-4.417,1.472a1.472,1.472,0,0,0-.931,1.862c.007.021.015.042.023.063l6.307,16.4a14.3,14.3,0,0,1,.957,5.153v1.663a10.423,10.423,0,0,0-1.422.672l-.5-1a7.687,7.687,0,0,0-6.913-4.273H47.837a1.472,1.472,0,0,0-1.317,2.131l1.215,2.429a7.687,7.687,0,0,0,6.914,4.273h.4a10.418,10.418,0,0,0-1.222,2.842,5.82,5.82,0,0,0-8.693.447l-.346.432a11,11,0,0,0-.923,1.35l-1.311-4.534a9.562,9.562,0,0,0-3.8-5.233,7.362,7.362,0,0,0-5.233-13.2,8.836,8.836,0,0,0-14.515,5.664,7.414,7.414,0,0,0-2.5,8.611,7.335,7.335,0,0,0,7.594,4.65,9.561,9.561,0,0,0,.752,6.42l5.1,10.222H17.472A1.472,1.472,0,0,0,16,76.361v26.5a1.472,1.472,0,0,0,1.472,1.472h85.389a1.472,1.472,0,0,0,1.472-1.472v-26.5a1.472,1.472,0,0,0-1.472-1.472h-9.22a9.144,9.144,0,0,1,1.02-2.958c.156.008.313.014.47.014a8.835,8.835,0,0,0,8.175-12.181,6.99,6.99,0,0,0-.855-8.416ZM86.414,72.427a12.026,12.026,0,0,0-1.044-2.994c.317-.151.627-.317.928-.5a10.68,10.68,0,0,0,1.117.584,12.078,12.078,0,0,0-1,2.908Zm-3.892-2.076a9.144,9.144,0,0,1,1.2,4.538H82.161a12.076,12.076,0,0,0-1.08-3.715A8.829,8.829,0,0,0,82.522,70.351Zm-4.363,1.567a9.144,9.144,0,0,1,1.027,2.971H74.8a7.047,7.047,0,0,0-1.258-2.769l-1.57-2.095a8.787,8.787,0,0,0,5.488,1.92Q77.815,71.944,78.159,71.918Zm-12.31,1.775a11.056,11.056,0,0,0,.889-9.943l2.037-5.019a7.027,7.027,0,0,0,.515,1.033A8.829,8.829,0,0,0,69,65.63v4.842a1.472,1.472,0,0,0,.294.883l1.9,2.531a4.115,4.115,0,0,1,.552,1H65.1Zm8.436-44.073,1.62.54L70.153,45.118a17.211,17.211,0,0,0-1.116,5.139L64.837,60.6l-.075-.094A5.829,5.829,0,0,0,63.111,59.1V56.873Zm-9.7,9.2V18.944h2.944V38.419a1.474,1.474,0,0,0,.06.413l-1.532,3.984L64.576,38.97A1.473,1.473,0,0,0,64.583,38.819ZM56.2,30.159l1.619-.54,6,15.6a11.231,11.231,0,0,1,.537,1.869l-1.307,2.852a17.21,17.21,0,0,0-1.094-4.817Zm3.962,26.393v1.776a5.812,5.812,0,0,0-2.791.74,7.491,7.491,0,0,1,2.791-2.825Zm-9.8-4.919-.15-.3h1.112a4.758,4.758,0,0,1,4.28,2.645l.15.3H54.648A4.758,4.758,0,0,1,50.369,51.633ZM47.083,62.782l.346-.432a2.875,2.875,0,0,1,4.637.2,3.46,3.46,0,0,0,5.757,0,2.879,2.879,0,0,1,3.334-1.123l.028.01a2.867,2.867,0,0,1,1.277.912l.346.432a8.108,8.108,0,0,1,.544,9.35l-1.722,2.757H48.263L46.54,72.132a8.108,8.108,0,0,1,.543-9.35Zm-4.7,4.49-.01-.03.01.012c0,.007,0,.013,0,.019ZM19.248,52.526a4.441,4.441,0,0,1,1.9-5.43,1.472,1.472,0,0,0,.737-1.232,5.89,5.89,0,0,1,10.1-3.942,1.472,1.472,0,0,0,1.377.407,4.416,4.416,0,1,1,1.6,8.678l-.154-.027A8.463,8.463,0,0,1,36.8,47.09,1.472,1.472,0,0,0,34.631,45.1l-.017.018a11.429,11.429,0,0,0-2.724,5.471,1.466,1.466,0,0,0-.666.23L29.149,45.5a1.472,1.472,0,0,0-2.743,1.07l2.075,5.316a1.473,1.473,0,0,0-.646.282,11.43,11.43,0,0,0-5.709-2.18,1.472,1.472,0,0,0-.269,2.932,8.463,8.463,0,0,1,4.094,1.516c-.033.041-.063.083-.1.124a4.4,4.4,0,0,1-6.607-2.036ZM32.181,72.764l2.488-.971a1.472,1.472,0,0,0-1.06-2.747l-.01,0-2.737,1.068-1.32-2.646,1.615-.63a1.472,1.472,0,1,0-1.07-2.743l-1.865.728-.736-1.475a6.521,6.521,0,0,1-.252-5.316c1.615-3.817,6.346-4.629,9.073-3.54a6.521,6.521,0,0,1,3.415,4.081l2.343,8.105c.009.032.021.063.032.094a1.472,1.472,0,0,0-1.641-.4l-1.372.535a1.472,1.472,0,0,0,1.07,2.743l1.372-.535a1.468,1.468,0,0,0,.85-.878,11.015,11.015,0,0,0,1.666,5.453l.748,1.2H33.241Zm69.207,19.791H18.944V86.666h82.444Zm0,8.833H18.944V95.5h82.444Zm0-17.667H18.944V77.833h82.444ZM90.667,74.889H89.105a9.16,9.16,0,0,1,1.136-4.424,8.77,8.77,0,0,0,1.467.791,12.07,12.07,0,0,0-1.041,3.633Zm9.806-16.207a1.472,1.472,0,0,0-.157,1.634A5.891,5.891,0,0,1,95.132,69a5.828,5.828,0,0,1-3.613-1.241,1.472,1.472,0,0,0-.713-.3,7.711,7.711,0,0,1-3.623-1.478,1.472,1.472,0,0,0-1.768,0,7.711,7.711,0,0,1-3.623,1.478,1.472,1.472,0,0,0-.713.3A5.828,5.828,0,0,1,77.465,69a5.891,5.891,0,0,1-5.184-8.685,1.472,1.472,0,0,0-.157-1.634,4.043,4.043,0,0,1-.361-4.609l0-.006a4.061,4.061,0,0,1,.9-1.061,1.472,1.472,0,0,0,.49-1.47,4.047,4.047,0,0,1,3.668-4.976,1.472,1.472,0,0,0,1.179-.734,9.567,9.567,0,0,1,16.586,0,1.472,1.472,0,0,0,1.179.734,4.046,4.046,0,0,1,3.668,4.976,1.472,1.472,0,0,0,.49,1.471,4.04,4.04,0,0,1,1.46,3.113,4,4,0,0,1-.916,2.563Z" fill="#12263f"/>
      <path id="Trazado_100624" data-name="Trazado 100624" d="M373,168a5.9,5.9,0,0,0-5.553,3.926,1.472,1.472,0,1,0,2.776.981,2.946,2.946,0,0,1,5.554,0,1.472,1.472,0,1,0,2.776-.981A5.9,5.9,0,0,0,373,168Z" transform="translate(-286.703 -124.028)" fill="#12263f"/>
      <path id="Trazado_100625" data-name="Trazado 100625" d="M338.417,210.944a1.472,1.472,0,1,0,0-2.944,4.417,4.417,0,0,0,0,8.833,1.472,1.472,0,1,0,0-2.944,1.472,1.472,0,0,1,0-2.944Z" transform="translate(-259.479 -156.667)" fill="#12263f"/>
      <path id="Trazado_100626" data-name="Trazado 100626" d="M52.417,360H49.472a1.472,1.472,0,1,0,0,2.944h2.944a1.472,1.472,0,1,0,0-2.944Z" transform="translate(-26.111 -280.695)" fill="#12263f"/>
      <path id="Trazado_100627" data-name="Trazado 100627" d="M433.472,362.944h2.944a1.472,1.472,0,1,0,0-2.944h-2.944a1.472,1.472,0,1,0,0,2.944Z" transform="translate(-339.445 -280.695)" fill="#12263f"/>
      <path id="Trazado_100628" data-name="Trazado 100628" d="M244.417,360h-2.944a1.472,1.472,0,1,0,0,2.944h2.944a1.472,1.472,0,1,0,0-2.944Z" transform="translate(-182.778 -280.695)" fill="#12263f"/>
      <path id="Trazado_100629" data-name="Trazado 100629" d="M194.312,287.405a1.472,1.472,0,0,0,1.041-2.513,1.414,1.414,0,0,1-.265-1.635l.541-1.082a1.472,1.472,0,0,0-2.633-1.317l-.542,1.082a4.355,4.355,0,0,0,.817,5.034A1.468,1.468,0,0,0,194.312,287.405Z" transform="translate(-143.604 -215.461)" fill="#12263f"/>
    </g>
  </g>
</svg>
