<svg xmlns="http://www.w3.org/2000/svg" width="49" height="49" viewBox="0 0 49 49">
  <g id="banco" transform="translate(0 0.001)">
    <g id="Grupo_86854" data-name="Grupo 86854" transform="translate(0.957 0.956)">
      <path id="Trazado_126329" data-name="Trazado 126329" d="M136,196h22.969v21.629H136Z" transform="translate(-123.941 -178.199)" fill="#ff7d95"/>
      <path id="Trazado_126330" data-name="Trazado 126330" d="M52.683,31.629V27.8h4.4V23.973H54.6L33.543,10,12.488,23.973H10V27.8h4.4v3.828h1.914V45.6H14.4v3.828H12.2v3.828H54.884V49.429h-2.2V45.6H50.769V31.629ZM45.027,45.6H43.113v3.828H23.973V45.6H22.059V31.629h1.914V27.8H43.113v3.828h1.914Z" transform="translate(-10 -10)" fill="#eefaff"/>
      <path id="Trazado_126331" data-name="Trazado 126331" d="M57.086,462v3.828H10V462Z" transform="translate(-10 -418.742)" fill="#a0e5a5"/>
      <path id="Trazado_126332" data-name="Trazado 126332" d="M207.484,281.742v8.23H196v-8.23a5.742,5.742,0,0,1,11.484,0Z" transform="translate(-178.199 -250.543)" fill="#6d92ac"/>
      <ellipse id="Elipse_4187" data-name="Elipse 4187" cx="7.449" cy="7.946" rx="7.449" ry="7.946" transform="translate(15.928 6.327)" fill="#ffda8f"/>
    </g>
    <g id="Grupo_86855" data-name="Grupo 86855" transform="translate(0 -0.001)">
      <path id="Trazado_126333" data-name="Trazado 126333" d="M48.043,13.972h-2.2L25.029.159a.957.957,0,0,0-1.058,0L3.157,13.972H.957A.957.957,0,0,0,0,14.929v3.828a.957.957,0,0,0,.957.957H4.4v2.871a.957.957,0,0,0,.957.957h.957V35.6H5.359a.957.957,0,0,0-.957.957v2.871H3.158a.957.957,0,0,0-.957.957v2.871H.957A.957.957,0,0,0,0,44.214v3.828A.957.957,0,0,0,.957,49H20.193a.957.957,0,1,0,0-1.914H1.914V45.171H47.086v1.914H28.806a.957.957,0,1,0,0,1.914H48.043A.957.957,0,0,0,49,48.042V44.214a.957.957,0,0,0-.957-.957H46.8V40.386a.957.957,0,0,0-.957-.957H44.6V36.558a.957.957,0,0,0-.957-.957h-.957V23.542h.957a.957.957,0,0,0,.957-.957V19.714h3.445A.957.957,0,0,0,49,18.757V14.929A.957.957,0,0,0,48.043,13.972ZM24.5,2.1,42.382,13.972H33.06a8.613,8.613,0,0,0-17.119,0H6.618Zm9.57,21.437h.957V35.6H34.07a.957.957,0,0,0-.957.957v2.871H31.2V32.155a6.7,6.7,0,1,0-13.4,0v7.273H15.887V36.558a.957.957,0,0,0-.957-.957h-.957V23.542h.957a.957.957,0,0,0,.957-.957V19.714h1.451a8.615,8.615,0,0,0,14.325,0h1.451v2.871A.957.957,0,0,0,34.07,23.542Zm8.613,13.973v1.914H35.027V37.515ZM36.941,35.6V23.542h3.828V35.6Zm-7.656-3.445v7.273h-9.57V32.155a4.785,4.785,0,1,1,9.57,0ZM6.316,21.628V19.714h7.656v1.914Zm5.742,1.914V35.6H8.23V23.542Zm12.458-7.7a.957.957,0,1,1-.007,1.914,1.712,1.712,0,0,1-1.234-.723.957.957,0,0,0-1.467,1.23,3.966,3.966,0,0,0,1.735,1.242v2.049a6.7,6.7,0,0,1,0-13.259v1.976a2.87,2.87,0,0,0,.973,5.571Zm2.366-4.7a3.689,3.689,0,0,0-1.425-.886V8.3a6.7,6.7,0,0,1,0,13.259V19.517a2.872,2.872,0,0,0-.941-5.585.957.957,0,0,1-.01-1.914h.007a1.539,1.539,0,0,1,1.038.5.957.957,0,0,0,1.331-1.375ZM1.914,17.8V15.886H15.941a8.637,8.637,0,0,0,.438,1.914Zm4.4,19.715h7.656v1.914H6.316Zm38.568,3.828v1.914H4.115V41.343Zm-2.2-19.715H35.027V19.714h7.656Zm4.4-3.828H32.62a8.629,8.629,0,0,0,.438-1.914H47.086Z" transform="translate(0 0.001)"/>
      <circle id="Elipse_4188" data-name="Elipse 4188" cx="0.993" cy="0.993" r="0.993" transform="translate(23.837 47.012)"/>
    </g>
  </g>
</svg>
