<svg xmlns="http://www.w3.org/2000/svg" width="37.178" height="53" viewBox="0 0 37.178 53">
  <g id="luz-de-la-calle" transform="translate(-22.44 -4.75)">
    <path id="Trazado_126478" data-name="Trazado 126478" d="M59.5,62.251h4.025v26.5H59.5Z" transform="translate(-20.485 -31.783)" fill="#c3c7cb"/>
    <path id="Trazado_126479" data-name="Trazado 126479" d="M61.75,31.96,59.63,50.968a2.679,2.679,0,0,1-2.666,2.388H47.456a2.679,2.679,0,0,1-2.666-2.388L42.67,31.96Z" transform="translate(-11.182 -15.04)" fill="#e7a52e"/>
    <path id="Trazado_126480" data-name="Trazado 126480" d="M63.684,9.765H61V7.842a1.342,1.342,0,1,1,2.684,0Z" transform="translate(-21.314 -0.967)" fill="#c3c7cb"/>
    <path id="Trazado_126481" data-name="Trazado 126481" d="M60.983,23.039H35.4l8.762-9.616h8.06Z" transform="translate(-7.164 -4.794)" fill="#e7ecf1"/>
    <path id="Trazado_126482" data-name="Trazado 126482" d="M52.917,79.8h9.914v2.684H52.917Z" transform="translate(-16.846 -41.482)" fill="#e7ecf1"/>
    <path id="Trazado_126483" data-name="Trazado 126483" d="M80.344,65.466a.781.781,0,0,0-.865.691l-.14,1.262a.782.782,0,0,0,.691.865.727.727,0,0,0,.089,0,.782.782,0,0,0,.777-.7l.141-1.262a.783.783,0,0,0-.693-.865Z" transform="translate(-31.448 -33.557)"/>
    <path id="Trazado_126484" data-name="Trazado 126484" d="M60.015,19.028a.783.783,0,0,0,.579-1.31L51.83,8.1a.784.784,0,0,0-.579-.255h-1.9V6.874a2.124,2.124,0,1,0-4.249,0v.972H43.194a.784.784,0,0,0-.579.255l-2.894,3.176a.783.783,0,0,0,1.157,1.054l2.661-2.92h7.368l7.335,8.051H36.2l2.59-2.843a.783.783,0,1,0-1.158-1.054l-3.783,4.152a.783.783,0,0,0,.579,1.311h2.7l1.894,16.985a3.456,3.456,0,0,0,2.46,2.944V41a.782.782,0,0,0,.783.783h2.16V44.22a.783.783,0,1,0,1.565,0V41.782h2.46v14.4h-2.46V47.646a.783.783,0,1,0-1.565,0v9.322a.783.783,0,0,0,.783.783h4.025a.783.783,0,0,0,.783-.783V41.782H52.18A.782.782,0,0,0,52.963,41V38.951a3.453,3.453,0,0,0,2.293-2.192.783.783,0,0,0-1.482-.506,1.9,1.9,0,0,1-1.782,1.279H48.006v-18.5h7.735l-1.2,10.756a.783.783,0,0,0,.691.865.845.845,0,0,0,.089,0,.783.783,0,0,0,.777-.7l1.219-10.929ZM46.664,6.874a.559.559,0,0,1,1.118,0v.972H46.664ZM43.049,40.216V39.1H51.4v1.118Zm3.392-2.684H42.458a1.894,1.894,0,0,1-1.876-1.691L38.706,19.028h7.735Z" transform="translate(-6.195)"/>
    <path id="Trazado_126485" data-name="Trazado 126485" d="M73.287,23.512a.783.783,0,0,0,.578-1.31l-3.872-4.249a.783.783,0,0,0-1.158,1.054l3.872,4.249a.782.782,0,0,0,.579.256Z" transform="translate(-25.542 -7.167)"/>
    <path id="Trazado_126486" data-name="Trazado 126486" d="M23.223,55.7H28.33a.783.783,0,1,0,0-1.565H23.223a.783.783,0,1,0,0,1.565Z" transform="translate(0 -27.295)"/>
    <path id="Trazado_126487" data-name="Trazado 126487" d="M28.738,65.765l-5.911,3.514a.783.783,0,1,0,.8,1.346l5.91-3.512a.783.783,0,0,0-.8-1.348Z" transform="translate(-0.002 -33.665)"/>
    <path id="Trazado_126488" data-name="Trazado 126488" d="M96.53,54.131H91.423a.783.783,0,0,0,0,1.565H96.53a.783.783,0,0,0,0-1.565Z" transform="translate(-37.697 -27.295)"/>
    <path id="Trazado_126489" data-name="Trazado 126489" d="M95.934,69.279l-5.911-3.514a.783.783,0,1,0-.8,1.348l5.913,3.512a.783.783,0,1,0,.8-1.346Z" transform="translate(-36.703 -33.665)"/>
    <path id="Trazado_126490" data-name="Trazado 126490" d="M22.826,36.206l4.754,2.822a.783.783,0,0,0,.8-1.346l-4.754-2.822a.783.783,0,0,0-.8,1.346Z" transform="translate(-0.002 -16.582)"/>
    <path id="Trazado_126491" data-name="Trazado 126491" d="M91.54,38.751a.781.781,0,0,0,1.073.274L97.367,36.2a.783.783,0,1,0-.8-1.346l-4.754,2.822A.783.783,0,0,0,91.54,38.751Z" transform="translate(-38.134 -16.58)"/>
  </g>
</svg>
