<svg xmlns="http://www.w3.org/2000/svg" width="52" height="46.587" viewBox="0 0 52 46.587">
  <g id="tienda" transform="translate(0 -26.651)">
    <rect id="Rect치ngulo_6980" data-name="Rect치ngulo 6980" width="43.199" height="36.974" transform="translate(4.401 34.361)" fill="#e9eaeb"/>
    <rect id="Rect치ngulo_6981" data-name="Rect치ngulo 6981" width="5.484" height="36.974" transform="translate(42.115 34.361)" fill="#b9bbc1"/>
    <path id="Trazado_126304" data-name="Trazado 126304" d="M85.347,41.1h-43.5v-6.07a.878.878,0,0,1,.878-.878H84.469a.878.878,0,0,1,.878.878V41.1Z" transform="translate(-37.597 -6.738)" fill="#fdc74f"/>
    <path id="Trazado_126305" data-name="Trazado 126305" d="M420.759,34.151h-4.606V38.72h5.484V35.029A.878.878,0,0,0,420.759,34.151Z" transform="translate(-373.887 -6.738)" fill="#fca629"/>
    <path id="Trazado_126306" data-name="Trazado 126306" d="M11.487,153.14h0a3.6,3.6,0,0,1-3.6-3.6v-2.933h7.2v2.933A3.6,3.6,0,0,1,11.487,153.14Z" transform="translate(-7.086 -107.773)" fill="#e60d28"/>
    <path id="Trazado_126307" data-name="Trazado 126307" d="M82.376,153.14h0a3.6,3.6,0,0,1-3.6-3.6v-2.933h7.2v2.933A3.6,3.6,0,0,1,82.376,153.14Z" transform="translate(-70.775 -107.773)" fill="#f2f2f2"/>
    <path id="Trazado_126308" data-name="Trazado 126308" d="M153.266,153.14h0a3.6,3.6,0,0,1-3.6-3.6v-2.933h7.2v2.933A3.6,3.6,0,0,1,153.266,153.14Z" transform="translate(-134.466 -107.773)" fill="#e60d28"/>
    <path id="Trazado_126309" data-name="Trazado 126309" d="M224.155,153.14h0a3.6,3.6,0,0,1-3.6-3.6v-2.933h7.2v2.933A3.6,3.6,0,0,1,224.155,153.14Z" transform="translate(-198.155 -107.773)" fill="#f2f2f2"/>
    <path id="Trazado_126310" data-name="Trazado 126310" d="M295.045,153.14h0a3.6,3.6,0,0,1-3.6-3.6v-2.933h7.2v2.933A3.6,3.6,0,0,1,295.045,153.14Z" transform="translate(-261.845 -107.773)" fill="#e60d28"/>
    <path id="Trazado_126311" data-name="Trazado 126311" d="M365.934,153.14h0a3.6,3.6,0,0,1-3.6-3.6v-2.933h7.2v2.933A3.6,3.6,0,0,1,365.934,153.14Z" transform="translate(-325.534 -107.773)" fill="#f2f2f2"/>
    <path id="Trazado_126312" data-name="Trazado 126312" d="M436.823,153.14h0a3.6,3.6,0,0,1-3.6-3.6v-2.933h7.2v2.933A3.6,3.6,0,0,1,436.823,153.14Z" transform="translate(-389.224 -107.773)" fill="#e60d28"/>
    <path id="Trazado_126313" data-name="Trazado 126313" d="M15.087,85.992h-7.2l3.445-6.852h6.215Z" transform="translate(-7.086 -47.158)" fill="#fc502a"/>
    <path id="Trazado_126314" data-name="Trazado 126314" d="M85.976,85.992h-7.2l2.461-6.852h6.215Z" transform="translate(-70.775 -47.158)" fill="#fff"/>
    <path id="Trazado_126315" data-name="Trazado 126315" d="M156.866,85.992h-7.2l1.477-6.852h6.215Z" transform="translate(-134.466 -47.158)" fill="#fc502a"/>
    <path id="Trazado_126316" data-name="Trazado 126316" d="M227.755,85.992h-7.2l.492-6.852h6.215Z" transform="translate(-198.155 -47.158)" fill="#fff"/>
    <path id="Trazado_126317" data-name="Trazado 126317" d="M294.29,85.992h-7.2L286.6,79.14h6.215Z" transform="translate(-257.49 -47.158)" fill="#fc502a"/>
    <path id="Trazado_126318" data-name="Trazado 126318" d="M356.471,85.992h-7.2L347.8,79.14h6.215Z" transform="translate(-312.472 -47.158)" fill="#fff"/>
    <path id="Trazado_126319" data-name="Trazado 126319" d="M418.653,85.992h-7.2l-2.461-6.852h6.215Z" transform="translate(-367.454 -47.158)" fill="#fc502a"/>
    <path id="Trazado_126320" data-name="Trazado 126320" d="M56.332,433.349H9.144A1.644,1.644,0,0,0,7.5,434.993V437.4a.466.466,0,0,0,.466.466H57.511a.466.466,0,0,0,.466-.466v-2.409A1.644,1.644,0,0,0,56.332,433.349Z" transform="translate(-6.738 -365.393)" fill="#8b8996"/>
    <path id="Trazado_126321" data-name="Trazado 126321" d="M454.191,433.349h-3.857v4.52h5.035a.466.466,0,0,0,.466-.466v-2.409A1.644,1.644,0,0,0,454.191,433.349Z" transform="translate(-404.597 -365.393)" fill="#706f7f"/>
    <path id="Trazado_126322" data-name="Trazado 126322" d="M224.829,266.246H202.655a.655.655,0,0,1-.655-.655v-12.2a.655.655,0,0,1,.655-.655h22.174a.655.655,0,0,1,.655.655v12.2A.655.655,0,0,1,224.829,266.246Z" transform="translate(-181.484 -203.122)" fill="#00c6c8"/>
    <path id="Trazado_126323" data-name="Trazado 126323" d="M383.9,252.735h-4.846v13.511H383.9a.655.655,0,0,0,.655-.655v-12.2A.655.655,0,0,0,383.9,252.735Z" transform="translate(-340.559 -203.122)" fill="#0fb0c0"/>
    <path id="Trazado_126324" data-name="Trazado 126324" d="M81.844,271.079H71.727V253.39a.655.655,0,0,1,.655-.655h8.806a.655.655,0,0,1,.655.655v17.689Z" transform="translate(-64.442 -203.122)" fill="#00c6c8"/>
    <path id="Trazado_126325" data-name="Trazado 126325" d="M122.015,252.735h-4.846v18.344h5.5V253.39A.655.655,0,0,0,122.015,252.735Z" transform="translate(-105.269 -203.122)" fill="#0fb0c0"/>
    <path id="Trazado_126326" data-name="Trazado 126326" d="M136.762,329.15a.762.762,0,0,0,.762-.762v-1.371a.762.762,0,0,0-1.523,0v1.371A.762.762,0,0,0,136.762,329.15Z" transform="translate(-122.187 -269.175)"/>
    <path id="Trazado_126327" data-name="Trazado 126327" d="M49.594,67.195H48.361V46.061a4.368,4.368,0,0,0,3.6-4.294V38.834c0-.015,0-.03,0-.044s0-.016,0-.025a.764.764,0,0,0-.013-.088v0a.75.75,0,0,0-.023-.081l-.007-.02c-.008-.023-.018-.045-.028-.067l-.005-.012-3.368-6.7v-3.5a1.642,1.642,0,0,0-1.64-1.64H12.234a.762.762,0,0,0,0,1.523H46.872a.116.116,0,0,1,.116.116V31.22H5.012V28.291a.116.116,0,0,1,.116-.116H8.69a.762.762,0,1,0,0-1.523H5.128a1.642,1.642,0,0,0-1.64,1.64v3.5L.12,38.492.115,38.5c-.01.022-.02.044-.028.067l-.007.02a.75.75,0,0,0-.023.081v0a.745.745,0,0,0-.013.088c0,.008,0,.016,0,.025s0,.029,0,.044v2.933a4.368,4.368,0,0,0,3.6,4.294V67.195H2.406A2.409,2.409,0,0,0,0,69.6V72.01a1.229,1.229,0,0,0,1.228,1.228H50.772A1.229,1.229,0,0,0,52,72.01V69.6A2.409,2.409,0,0,0,49.594,67.195Zm.843-25.428a2.838,2.838,0,0,1-5.676,0V39.6h5.676v2.171Zm-3.153-9.023,2.679,5.329H44.535l-1.914-5.329Zm-6.282,0,1.914,5.329h-5.5l-1.148-5.329ZM43.238,39.6v2.171a2.838,2.838,0,1,1-5.676,0V39.6Zm-8.53-6.852,1.148,5.329H30.309l-.383-5.329Zm1.33,6.852v2.171a2.838,2.838,0,1,1-5.676,0V39.6ZM23.6,32.744h4.8l.383,5.329H23.219ZM23.162,39.6h5.676v2.171a2.838,2.838,0,1,1-5.676,0ZM26,46.128a4.36,4.36,0,0,0,3.6-1.9,4.357,4.357,0,0,0,7.2,0,4.357,4.357,0,0,0,7.2,0,4.369,4.369,0,0,0,2.838,1.835V67.195H18.163V50.268a1.418,1.418,0,0,0-1.417-1.417H7.94a1.418,1.418,0,0,0-1.417,1.417V67.195H5.163V46.061A4.369,4.369,0,0,0,8,44.226a4.357,4.357,0,0,0,7.2,0,4.357,4.357,0,0,0,7.2,0A4.359,4.359,0,0,0,26,46.128Zm-9.36,4.246v16.82H8.046V50.374ZM8.762,41.767V39.6h5.676v2.171a2.838,2.838,0,1,1-5.676,0Zm8.53-9.023h4.782l-.383,5.329H16.144ZM15.962,39.6h5.676v2.171a2.838,2.838,0,1,1-5.676,0V39.6Zm-.229-6.852-1.148,5.329h-5.5L11,32.744Zm-11.018,0H9.379L7.465,38.072H2.037ZM1.563,41.767V39.6H7.239v2.171a2.838,2.838,0,1,1-5.676,0ZM50.477,71.714H1.523V69.6a.883.883,0,0,1,.882-.882H49.594a.883.883,0,0,1,.882.882v2.114Z"/>
    <path id="Trazado_126328" data-name="Trazado 126328" d="M194.5,246.652v12.2a1.418,1.418,0,0,0,1.417,1.417H218.09a1.418,1.418,0,0,0,1.417-1.417v-12.2a1.418,1.418,0,0,0-1.417-1.417h-9.315a.762.762,0,0,0,0,1.523h9.208v11.988h-21.96V246.758h9.166a.762.762,0,0,0,0-1.523h-9.273A1.418,1.418,0,0,0,194.5,246.652Z" transform="translate(-174.746 -196.384)"/>
  </g>
</svg>
