<svg xmlns="http://www.w3.org/2000/svg" width="52.667" height="52.667" viewBox="0 0 52.667 52.667">
  <g id="transporte" transform="translate(0)">
    <path id="Trazado_126457" data-name="Trazado 126457" d="M47.8,273.656,46.044,264H33.756L32,273.656l7.9-2.633Z" transform="translate(-28.489 -235.033)" fill="#f7ec2f"/>
    <path id="Trazado_126458" data-name="Trazado 126458" d="M14.736,343.8c1.9,0,1.9-1.756,3.8-1.756s1.9,1.756,3.8,1.756c1.533,0,1.842-1.129,2.9-1.571l3.829-10.718L18.533,328,8,331.511l3.826,10.715c1.063.439,1.371,1.574,2.91,1.574Z" transform="translate(-7.122 -292.011)" fill="#3f4e56"/>
    <path id="Trazado_126459" data-name="Trazado 126459" d="M123.358,90.9a9.9,9.9,0,0,0-7-2.9H88l5.267,5.27,32.478.019Z" transform="translate(-78.345 -78.344)" fill="#f5fafc"/>
    <path id="Trazado_126460" data-name="Trazado 126460" d="M168.811,136.384l-.333-.333L136,136.032l.217.217a11.228,11.228,0,0,0,7.94,3.291h1.586l.779-1.756h5.263l-1.228,1.756H167.5a1.849,1.849,0,0,0,1.307-3.156Z" transform="translate(-121.078 -121.106)" fill="#1493b0"/>
    <path id="Trazado_126461" data-name="Trazado 126461" d="M88,232h3.511v3.511H88Z" transform="translate(-78.345 -206.544)" fill="#ed4720"/>
    <path id="Trazado_126462" data-name="Trazado 126462" d="M232,304v15.8h4.389a2.633,2.633,0,1,1,5.267,0h7.9V304Z" transform="translate(-206.544 -270.644)" fill="#d3d3d3"/>
    <circle id="Elipse_4191" data-name="Elipse 4191" cx="2.5" cy="2.5" r="2.5" transform="translate(30 46.667)" fill="#3f4e56"/>
    <path id="Trazado_126463" data-name="Trazado 126463" d="M398.144,336H392v12.289a2.633,2.633,0,1,1,5.267,0h3.511v-7.022Z" transform="translate(-348.989 -299.133)" fill="#55d5f2"/>
    <ellipse id="Elipse_4192" data-name="Elipse 4192" cx="3" cy="2.5" rx="3" ry="2.5" transform="translate(43 46.667)" fill="#3f4e56"/>
    <g id="Grupo_86883" data-name="Grupo 86883" transform="translate(9.655 0.878)">
      <path id="Trazado_126464" data-name="Trazado 126464" d="M92.389,8H88v8.778h7.022Z" transform="translate(-88 -8)" fill="#55d5f2"/>
      <path id="Trazado_126465" data-name="Trazado 126465" d="M216,24l1.756,7.022h5.267L218.633,24Z" transform="translate(-201.956 -22.244)" fill="#55d5f2"/>
      <path id="Trazado_126466" data-name="Trazado 126466" d="M203.444,152l-3.508,7.9,2.632.878L208.709,152Z" transform="translate(-187.654 -136.2)" fill="#55d5f2"/>
    </g>
    <path id="Trazado_126467" data-name="Trazado 126467" d="M22.822,451.511a3.4,3.4,0,0,1-2.5-1.11,1.643,1.643,0,0,0-2.61,0,3.36,3.36,0,0,1-4.993,0,1.645,1.645,0,0,0-2.611,0,3.366,3.366,0,0,1-5,0,1.7,1.7,0,0,0-1.308-.645A1.706,1.706,0,0,0,2.5,450.4a3.406,3.406,0,0,1-2.5,1.11v-1.756a1.707,1.707,0,0,0,1.309-.645,3.366,3.366,0,0,1,5,0,1.647,1.647,0,0,0,2.615,0,3.363,3.363,0,0,1,4.995,0,1.643,1.643,0,0,0,2.609,0,3.361,3.361,0,0,1,4.993,0,1.7,1.7,0,0,0,1.305.645v1.756Z" transform="translate(0 -398.844)" fill="#1493b0"/>
    <path id="Trazado_126468" data-name="Trazado 126468" d="M424,336v5.267h5.267L426.633,336Z" transform="translate(-377.478 -299.133)" fill="#f5fafc"/>
    <path id="Trazado_126469" data-name="Trazado 126469" d="M5.406,248.99l-3.4-9.52,8.528-2.841v12.062a3.5,3.5,0,0,1,1.756,0V236.629l8.528,2.842L17.415,249a3.1,3.1,0,0,1,1.605-.419,3.56,3.56,0,0,1,.4.025l3.351-9.385a.878.878,0,0,0-.549-1.128l-2.14-.714-1.663-9.144a.877.877,0,0,0-.863-.721H14.044v-2.633a.878.878,0,0,0-.878-.878H9.655a.878.878,0,0,0-.878.878v2.633H5.267a.879.879,0,0,0-.864.721L2.74,237.376l-2.14.714a.878.878,0,0,0-.549,1.128L3.4,248.6a3.67,3.67,0,0,1,.4-.025,3.112,3.112,0,0,1,1.6.413Zm5.127-23.235h1.756v1.756H10.533Zm-.878,3.511h7.168l1.359,7.476-6.493-2.165a.892.892,0,0,0-.278-.045.882.882,0,0,0-.277.045l-6.493,2.165L6,229.267Z" transform="translate(0 -199.422)"/>
    <path id="Trazado_126470" data-name="Trazado 126470" d="M80.058,9.943c.01.027.017.055.029.082a.861.861,0,0,0,.17.253l5.483,5.486A12.027,12.027,0,0,0,94.3,19.311h.236l-2.181,4.91a.878.878,0,0,0,.525,1.189l2.632.878a.9.9,0,0,0,.278.045.877.877,0,0,0,.719-.375l4.65-6.647H117.65a2.727,2.727,0,0,0,1.927-4.654l-2.719-2.721a10.708,10.708,0,0,0-7.622-3.158h-6.8L98.3,2.168a.881.881,0,0,0-.745-.413H94.922a.878.878,0,0,0-.851,1.091l1.483,5.931h-7L86.108.626A.879.879,0,0,0,85.267,0H80.878A.878.878,0,0,0,80,.878V9.656c0,.019.01.035.011.054A.884.884,0,0,0,80.058,9.943Zm1.7-8.187h2.858L86.72,8.778H81.756ZM97.069,3.511l3.292,5.267h-3L96.047,3.511Zm-.391,7.022h12.558a8.94,8.94,0,0,1,5.331,1.756h-6.477v1.756h8.392l.9.9.954.954a.971.971,0,0,1-.685,1.657H102.389l.262-.375a.878.878,0,0,0-.719-1.381H96.668a.93.93,0,0,0-.8.521l-.548,1.234H94.3a10.26,10.26,0,0,1-6.874-2.63c-.149-.133-.3-.262-.445-.4L83,10.533H96.678ZM94.354,24.051l2.885-6.5h3.007l-4.8,6.86Z" transform="translate(-71.222)"/>
    <path id="Trazado_126471" data-name="Trazado 126471" d="M72,288h7.022v1.756H72Z" transform="translate(-64.1 -256.4)"/>
    <path id="Trazado_126472" data-name="Trazado 126472" d="M176,112h1.755v1.756H176Z" transform="translate(-156.689 -99.711)"/>
    <path id="Trazado_126473" data-name="Trazado 126473" d="M208,112h1.755v1.756H208Z" transform="translate(-185.178 -99.711)"/>
    <path id="Trazado_126474" data-name="Trazado 126474" d="M240,112h1.755v1.756H240Z" transform="translate(-213.667 -99.711)"/>
    <path id="Trazado_126475" data-name="Trazado 126475" d="M272,112h1.755v1.756H272Z" transform="translate(-242.156 -99.711)"/>
    <path id="Trazado_126476" data-name="Trazado 126476" d="M304.008,112h1.755v1.756h-1.755Z" transform="translate(-270.652 -99.711)"/>
    <path id="Trazado_126477" data-name="Trazado 126477" d="M252,305.263,249.363,300a.879.879,0,0,0-.786-.485h-5.267v-2.633a.878.878,0,0,0-.878-.878H224.878a.878.878,0,0,0-.878.878v15.8a.878.878,0,0,0,.878.878h3.636a3.494,3.494,0,0,0,6.773,0h6.394a3.494,3.494,0,0,0,6.773,0h2.758a.878.878,0,0,0,.878-.878v-7.022c0-.01-.006-.018-.006-.027a.887.887,0,0,0-.086-.365Zm-3.654,6.182c-.02-.053-.033-.108-.055-.159a3.47,3.47,0,0,0-.3-.553c-.025-.038-.057-.07-.083-.107a3.691,3.691,0,0,0-.312-.379c-.051-.053-.107-.1-.161-.149a3.734,3.734,0,0,0-.315-.261c-.065-.047-.132-.09-.2-.133a3.49,3.49,0,0,0-.352-.191c-.072-.034-.143-.068-.218-.1a3.468,3.468,0,0,0-.416-.129c-.068-.018-.133-.04-.2-.053a3.412,3.412,0,0,0-.659-.068,3.473,3.473,0,0,0-.63.064c-.05.009-.1.018-.147.03a3.433,3.433,0,0,0-.583.182c-.008,0-.014.008-.022.011a3.492,3.492,0,0,0-.372.185v-8.371h1.756v4.389a.878.878,0,0,0,.878.878h4.389V311.8h-1.866a3.68,3.68,0,0,0-.126-.355Zm-3.276,2.988a1.756,1.756,0,1,1,1.756-1.756A1.757,1.757,0,0,1,245.067,314.433Zm-9.891-2.988c-.02-.053-.033-.108-.055-.159a3.47,3.47,0,0,0-.3-.553c-.025-.038-.057-.07-.083-.107a3.7,3.7,0,0,0-.312-.379c-.051-.053-.107-.1-.162-.149a3.729,3.729,0,0,0-.315-.261c-.065-.047-.132-.09-.2-.133a3.487,3.487,0,0,0-.352-.191c-.072-.034-.143-.068-.218-.1a3.468,3.468,0,0,0-.416-.129c-.068-.018-.133-.04-.2-.053a3.412,3.412,0,0,0-.659-.068,3.467,3.467,0,0,0-.658.067c-.069.013-.134.036-.2.053a3.521,3.521,0,0,0-.416.129c-.075.029-.146.063-.218.1a3.5,3.5,0,0,0-.352.191c-.068.042-.135.085-.2.133a3.2,3.2,0,0,0-.315.261c-.054.05-.111.1-.161.149a3.5,3.5,0,0,0-.312.379c-.026.037-.059.069-.083.107a3.469,3.469,0,0,0-.3.553c-.022.052-.036.106-.055.159a3.529,3.529,0,0,0-.124.355h-2.746V297.756h15.8V311.8H235.3a3.451,3.451,0,0,0-.125-.355Zm-3.276,2.988a1.756,1.756,0,1,1,1.756-1.756A1.757,1.757,0,0,1,231.9,314.433Zm17.891-9.656h-2.969v-3.511h1.213Z" transform="translate(-199.422 -263.522)"/>
  </g>
</svg>
