<svg xmlns="http://www.w3.org/2000/svg" width="762.422" height="502.252" viewBox="0 0 762.422 502.252">
  <g id="Grupo_86916" data-name="Grupo 86916" transform="translate(-457 -1742.203)">
    <circle id="Elipse_4115" data-name="Elipse 4115" cx="177.573" cy="177.573" r="177.573" transform="translate(600.046 1993.329) rotate(-45)" fill="#675d84"/>
    <circle id="Elipse_4116" data-name="Elipse 4116" cx="105.334" cy="105.334" r="105.334" transform="translate(702.207 1993.33) rotate(-45)" opacity="0.2" style="mix-blend-mode: multiply;isolation: isolate"/>
    <ellipse id="Elipse_4117" data-name="Elipse 4117" cx="97.867" cy="97.866" rx="97.867" ry="97.866" transform="translate(733.684 2066.489) rotate(-76.91)" fill="#ff7758"/>
    <ellipse id="Elipse_4118" data-name="Elipse 4118" cx="74.902" cy="74.902" rx="74.902" ry="74.902" transform="translate(765.335 2055.399) rotate(-80.871)" opacity="0.2" style="mix-blend-mode: multiply;isolation: isolate"/>
    <ellipse id="Elipse_4119" data-name="Elipse 4119" cx="67.487" cy="67.487" rx="67.487" ry="67.487" transform="matrix(0.921, -0.39, 0.39, 0.921, 762.721, 1957.477)" fill="#ffba5b"/>
    <ellipse id="Elipse_4120" data-name="Elipse 4120" cx="33.629" cy="33.629" rx="33.629" ry="33.629" transform="translate(812.59 2021.138) rotate(-80.783)" opacity="0.2" style="mix-blend-mode: multiply;isolation: isolate"/>
    <ellipse id="Elipse_4121" data-name="Elipse 4121" cx="29.094" cy="29.094" rx="29.094" ry="29.094" transform="translate(822.078 1964.234)" fill="#c3b5ec"/>
    <g id="Grupo_81894" data-name="Grupo 81894" transform="translate(457 1804.854)">
      <g id="Grupo_81893" data-name="Grupo 81893" transform="translate(0)">
        <circle id="Elipse_4122" data-name="Elipse 4122" cx="18.805" cy="18.805" r="18.805" transform="translate(357.386 147.308)" fill="#fff"/>
        <path id="Trazado_116169" data-name="Trazado 116169" d="M311.274,333.368,179.164,199.3a4.584,4.584,0,0,0-3.248-1.344H41.087" transform="translate(60.485 -174.358)" fill="none" stroke="#c3b5ec" stroke-linecap="round" stroke-linejoin="round" stroke-width="1.5"/>
        <g id="Grupo_81892" data-name="Grupo 81892">
          <rect id="Rectángulo_6934" data-name="Rectángulo 6934" width="217.736" height="78.457" rx="3.373" fill="#c3b5ec"/>
          <path id="Trazado_134878" data-name="Trazado 134878" d="M-24.917-5.581h-8.936L-35.859,0h-2.9l8.145-21.328h2.461L-20,0h-2.886ZM-33-7.881h7.251l-3.633-9.976ZM-10.972.293a6.925,6.925,0,0,1-5.244-2.117,7.856,7.856,0,0,1-2.021-5.662v-.5a9.511,9.511,0,0,1,.9-4.211,7.028,7.028,0,0,1,2.52-2.9,6.335,6.335,0,0,1,3.508-1.047,5.936,5.936,0,0,1,4.8,2.036A8.816,8.816,0,0,1-4.79-8.276v1.128H-15.527a5.634,5.634,0,0,0,1.37,3.787,4.305,4.305,0,0,0,3.333,1.443A4.72,4.72,0,0,0-8.394-2.5,6.11,6.11,0,0,0-6.65-4.058L-5-2.769A6.656,6.656,0,0,1-10.972.293Zm-.337-14.209a3.615,3.615,0,0,0-2.754,1.194,5.8,5.8,0,0,0-1.377,3.347H-7.5V-9.58a5.162,5.162,0,0,0-1.113-3.2A3.4,3.4,0,0,0-11.309-13.916Zm1.318-8.555h3.281l-3.926,4.307-2.183-.007Zm16,9.053a8.121,8.121,0,0,0-1.333-.1A3.571,3.571,0,0,0,1.055-11.25V0h-2.71V-15.85H.981l.044,1.831A4.22,4.22,0,0,1,4.8-16.143a2.769,2.769,0,0,1,1.2.205ZM14.795.293A6.925,6.925,0,0,1,9.551-1.824,7.856,7.856,0,0,1,7.529-7.485v-.5a9.511,9.511,0,0,1,.9-4.211,7.028,7.028,0,0,1,2.52-2.9,6.335,6.335,0,0,1,3.508-1.047,5.936,5.936,0,0,1,4.8,2.036,8.816,8.816,0,0,1,1.714,5.83v1.128H10.239a5.634,5.634,0,0,0,1.37,3.787,4.305,4.305,0,0,0,3.333,1.443A4.72,4.72,0,0,0,17.373-2.5a6.11,6.11,0,0,0,1.743-1.553l1.655,1.289A6.656,6.656,0,0,1,14.795.293Zm-.337-14.209A3.615,3.615,0,0,0,11.7-12.722a5.8,5.8,0,0,0-1.377,3.347h7.939V-9.58a5.162,5.162,0,0,0-1.113-3.2A3.4,3.4,0,0,0,14.458-13.916Zm8.936,5.845a9.362,9.362,0,0,1,.916-4.189,6.83,6.83,0,0,1,2.549-2.871,6.938,6.938,0,0,1,3.728-1.011A6.684,6.684,0,0,1,35.823-13.9a8.623,8.623,0,0,1,2,5.962v.19A9.443,9.443,0,0,1,36.936-3.6,6.729,6.729,0,0,1,34.4-.732,7.018,7.018,0,0,1,30.615.293a6.667,6.667,0,0,1-5.222-2.241,8.579,8.579,0,0,1-2-5.933Zm2.725.322a6.781,6.781,0,0,0,1.223,4.233,3.914,3.914,0,0,0,3.274,1.6A3.891,3.891,0,0,0,33.9-3.538a7.415,7.415,0,0,0,1.216-4.534A6.769,6.769,0,0,0,33.875-12.3a3.935,3.935,0,0,0-3.289-1.619,3.891,3.891,0,0,0-3.237,1.6A7.36,7.36,0,0,0,26.118-7.749Z" transform="translate(101.851 33.358)" fill="#12263f"/>
          <path id="Trazado_134879" data-name="Trazado 134879" d="M-24.285-8.425a9.844,9.844,0,0,1-1.876,6.443A6.484,6.484,0,0,1-31.45.283,6.518,6.518,0,0,1-36.774-2a9.829,9.829,0,0,1-1.883-6.429v-3.767a9.844,9.844,0,0,1,1.876-6.443,6.5,6.5,0,0,1,5.3-2.266,6.5,6.5,0,0,1,5.31,2.28,9.854,9.854,0,0,1,1.883,6.443ZM-29.057-12.8a7.353,7.353,0,0,0-.581-3.321,1.941,1.941,0,0,0-1.841-1.1,1.9,1.9,0,0,0-1.791,1.02,6.927,6.927,0,0,0-.6,3.087v5.268a7.409,7.409,0,0,0,.581,3.377A1.948,1.948,0,0,0-31.45-3.4a1.922,1.922,0,0,0,1.8-1.041A7.073,7.073,0,0,0-29.057-7.7Zm9.006,18.352-2.407-1.133.481-.963A7.853,7.853,0,0,0-20.943-.057V-3.6h3.823l-.014,3.073a7.681,7.681,0,0,1-.835,3.313A8.419,8.419,0,0,1-20.051,5.551ZM.4,0H-13.99V-3.115l6.627-6.967q2.45-2.79,2.45-4.432a3.083,3.083,0,0,0-.581-2.025,2.073,2.073,0,0,0-1.685-.694,2.1,2.1,0,0,0-1.77.927,3.812,3.812,0,0,0-.68,2.315h-4.786a6.771,6.771,0,0,1,.949-3.5,6.653,6.653,0,0,1,2.634-2.513,7.824,7.824,0,0,1,3.767-.906,7.7,7.7,0,0,1,5.147,1.543A5.51,5.51,0,0,1-.113-14.939a6.436,6.436,0,0,1-.453,2.372,10.4,10.4,0,0,1-1.409,2.421,35.491,35.491,0,0,1-3.08,3.391L-7.717-3.682H.4ZM17.12-8.425a9.844,9.844,0,0,1-1.876,6.443A6.484,6.484,0,0,1,9.955.283,6.518,6.518,0,0,1,4.63-2,9.829,9.829,0,0,1,2.747-8.425v-3.767a9.844,9.844,0,0,1,1.876-6.443,6.5,6.5,0,0,1,5.3-2.266,6.5,6.5,0,0,1,5.31,2.28,9.854,9.854,0,0,1,1.883,6.443ZM12.348-12.8a7.353,7.353,0,0,0-.581-3.321,1.941,1.941,0,0,0-1.841-1.1A1.9,1.9,0,0,0,8.135-16.2a6.927,6.927,0,0,0-.6,3.087v5.268a7.409,7.409,0,0,0,.581,3.377A1.948,1.948,0,0,0,9.955-3.4a1.922,1.922,0,0,0,1.8-1.041A7.073,7.073,0,0,0,12.348-7.7Zm7.264-3.852a4.047,4.047,0,0,1,1.246-3.087A4.672,4.672,0,0,1,24.2-20.915a4.678,4.678,0,0,1,3.356,1.168,4.154,4.154,0,0,1,1.232,3.165v1.02a4.025,4.025,0,0,1-1.232,3.073,4.655,4.655,0,0,1-3.328,1.161,4.781,4.781,0,0,1-3.349-1.154,4.066,4.066,0,0,1-1.267-3.165Zm3.073,1.087a1.712,1.712,0,0,0,.411,1.189,1.445,1.445,0,0,0,1.133.457q1.487,0,1.487-1.885v-.844a1.8,1.8,0,0,0-.4-1.2,1.381,1.381,0,0,0-1.119-.471,1.411,1.411,0,0,0-1.1.457,1.8,1.8,0,0,0-.411,1.245Zm6.726,10.51a4.007,4.007,0,0,1,1.253-3.087A4.712,4.712,0,0,1,34-9.3a4.762,4.762,0,0,1,3.356,1.147,4.132,4.132,0,0,1,1.246,3.2v.991A4.042,4.042,0,0,1,37.369-.878,4.675,4.675,0,0,1,34.027.283,4.781,4.781,0,0,1,30.678-.871a4.066,4.066,0,0,1-1.267-3.165Zm3.059,1.087a1.674,1.674,0,0,0,.453,1.161,1.436,1.436,0,0,0,1.1.5A1.3,1.3,0,0,0,35.514-3.6l.014-1.449a1.732,1.732,0,0,0-.411-1.2A1.428,1.428,0,0,0,34-6.712a1.439,1.439,0,0,0-1.09.429,1.71,1.71,0,0,0-.439,1.161ZM25.134-1.543,22.911-2.662,32.979-18.776,35.2-17.658Z" transform="translate(137.595 63.628)" fill="#12263f"/>
          <g id="avion" transform="translate(19.688 39.229)">
            <path id="Trazado_126569" data-name="Trazado 126569" d="M159.944,201.885l0-.007a4.438,4.438,0,0,0-1.39-2.351l-1.24-1.095a17.382,17.382,0,0,0-11.51-4.352h-4.2a.888.888,0,0,0,0,1.777h4.2a15.609,15.609,0,0,1,7.341,1.832H147.6a1.8,1.8,0,0,0-1.065,3.248l1.7,1.247a3.918,3.918,0,0,0,2.335.766h7.7a2.666,2.666,0,0,1-1.525,2.3l-2.187,1.024a24.4,24.4,0,0,1-10.291,2.291h-7.146l2.574-1.284a1.3,1.3,0,0,0-.58-2.461H123.9a2.088,2.088,0,0,0-1.514.654l-2.9,3.079a8.661,8.661,0,0,1-3.1-.731L114,206.777a.888.888,0,1,0-.717,1.626l2.38,1.049a10.459,10.459,0,0,0,2.3.715l-3.3,3.5a1.779,1.779,0,0,0,1.3,3h3.065a7.939,7.939,0,0,0,3.526-.831l11-5.487h10.708a26.192,26.192,0,0,0,11.045-2.459l2.187-1.023a4.428,4.428,0,0,0,2.445-4.98Zm-38.178,12.359a6.153,6.153,0,0,1-2.733.644h-3.065l0,0s-.005-.009,0-.009l7.711-8.186a.3.3,0,0,1,.22-.1h13.189Zm27.519-13.49-1.7-1.248-.011-.008a.114.114,0,0,1,.006-.03.068.068,0,0,1,.017,0h8.187c.117.1.234.2.349.3l1.24,1.094a2.668,2.668,0,0,1,.3.316h-7.11a2.154,2.154,0,0,1-1.283-.421Z" transform="translate(-99.401 -186.167)" fill="#12263f"/>
            <path id="Trazado_126570" data-name="Trazado 126570" d="M10.2,139.933H4.825a2.371,2.371,0,0,0-1.786.811l-.546.625a3.972,3.972,0,0,1-.319-1.553v-1.084a1.771,1.771,0,0,1,1.77-1.768H38.053a.888.888,0,1,0,0-1.777H16.128l-6.156-6.311a5.342,5.342,0,0,0-3.8-1.6H4.061A1.472,1.472,0,0,0,2.7,129.318l2.477,5.869H3.944A3.55,3.55,0,0,0,.4,138.732v1.084a5.766,5.766,0,0,0,.84,2.989l-.841.962a1.591,1.591,0,0,0,1.2,2.638H3.287A4.115,4.115,0,0,0,5.069,146l.406-.2,4.618,2.036a.888.888,0,0,0,.717-1.626l-3.235-1.426,3.365-1.628a1.7,1.7,0,0,0-.739-3.223ZM4.52,129.05H6.169A3.556,3.556,0,0,1,8.7,130.117l4.946,5.07H7.11Zm.57,14.963-.049.024L4.3,144.4a2.328,2.328,0,0,1-1.008.231H2l2.373-2.715a.6.6,0,0,1,.448-.2H9.849Z" transform="translate(0 -127.273)" fill="#12263f"/>
            <path id="Trazado_126571" data-name="Trazado 126571" d="M309.786,227.016v.328a2.47,2.47,0,0,0,2.467,2.467h1.673a2.47,2.47,0,0,0,2.467-2.467v-.328a2.47,2.47,0,0,0-2.467-2.467h-1.673A2.47,2.47,0,0,0,309.786,227.016Zm1.777,0a.691.691,0,0,1,.69-.69h1.673a.691.691,0,0,1,.69.69v.328a.691.691,0,0,1-.69.69h-1.673a.691.691,0,0,1-.69-.69Z" transform="translate(-273.089 -213.026)" fill="#12263f"/>
            <path id="Trazado_126572" data-name="Trazado 126572" d="M232.388,224.55a2.47,2.47,0,0,0-2.467,2.467v.328a2.47,2.47,0,0,0,2.467,2.467h1.673a2.47,2.47,0,0,0,2.467-2.467v-.328a2.47,2.47,0,0,0-2.467-2.467Zm2.363,2.467v.328a.691.691,0,0,1-.69.69h-1.673a.691.691,0,0,1-.69-.69v-.328a.691.691,0,0,1,.69-.69h1.673A.691.691,0,0,1,234.751,227.017Z" transform="translate(-202.685 -213.027)" fill="#12263f"/>
            <path id="Trazado_126573" data-name="Trazado 126573" d="M152.524,224.55a2.47,2.47,0,0,0-2.467,2.467v.328a2.47,2.47,0,0,0,2.467,2.467H154.2a2.47,2.47,0,0,0,2.467-2.467v-.328a2.47,2.47,0,0,0-2.467-2.467Zm2.363,2.467v.328a.691.691,0,0,1-.69.69h-1.673a.691.691,0,0,1-.69-.69v-.328a.691.691,0,0,1,.69-.69H154.2A.691.691,0,0,1,154.887,227.017Z" transform="translate(-132.281 -213.027)" fill="#12263f"/>
          </g>
        </g>
        <path id="Trazado_116170" data-name="Trazado 116170" d="M158.131,250.224a10.847,10.847,0,1,1-10.847-10.847A10.848,10.848,0,0,1,158.131,250.224Z" transform="translate(228.906 -84.111)" fill="#c3b5ec"/>
      </g>
    </g>
    <g id="Grupo_81897" data-name="Grupo 81897" transform="translate(511.432 2013.453)">
      <g id="Grupo_81896" data-name="Grupo 81896" transform="translate(0 0)">
        <circle id="Elipse_4123" data-name="Elipse 4123" cx="18.805" cy="18.805" r="18.805" transform="translate(275.027)" fill="#fff"/>
        <path id="Trazado_116171" data-name="Trazado 116171" d="M282.321,267.924,179.164,376.137a4.584,4.584,0,0,1-3.248,1.344H41.087" transform="translate(6.053 -242.928)" fill="none" stroke="#ffba5b" stroke-linecap="round" stroke-linejoin="round" stroke-width="1.5"/>
        <g id="Grupo_81895" data-name="Grupo 81895" transform="translate(0 110.96)">
          <rect id="Rectángulo_6935" data-name="Rectángulo 6935" width="163.304" height="79.615" rx="3.373" fill="#ffba5b"/>
          <path id="Trazado_134882" data-name="Trazado 134882" d="M-28.667-9.419h-8.95V0H-40.43V-21.328h13.213v2.3h-10.4v7.31h8.95ZM-21.328,0h-2.71V-22.5h2.71ZM-7.207-1.567A5.756,5.756,0,0,1-11.851.293a4.927,4.927,0,0,1-3.86-1.472,6.372,6.372,0,0,1-1.34-4.358V-15.85h2.71V-5.61q0,3.6,2.93,3.6,3.105,0,4.131-2.314V-15.85h2.71V0H-7.148ZM4.775-3.677,8.7-15.85H11.47L5.786,0H3.721L-2.021-15.85H.747ZM17.021,0h-2.71V-15.85h2.71Zm-2.93-20.054a1.618,1.618,0,0,1,.4-1.113,1.512,1.512,0,0,1,1.194-.454,1.536,1.536,0,0,1,1.2.454,1.6,1.6,0,0,1,.41,1.113,1.548,1.548,0,0,1-.41,1.1,1.564,1.564,0,0,1-1.2.439,1.54,1.54,0,0,1-1.194-.439A1.564,1.564,0,0,1,14.092-20.054ZM31.143,0a5.693,5.693,0,0,1-.381-1.67A6.046,6.046,0,0,1,26.25.293,5.6,5.6,0,0,1,22.4-1.033a4.289,4.289,0,0,1-1.5-3.362A4.481,4.481,0,0,1,22.786-8.24a8.875,8.875,0,0,1,5.3-1.37h2.637v-1.245a3.044,3.044,0,0,0-.85-2.263,3.415,3.415,0,0,0-2.5-.842,3.952,3.952,0,0,0-2.432.732,2.158,2.158,0,0,0-.981,1.772H21.226a3.74,3.74,0,0,1,.842-2.292,5.749,5.749,0,0,1,2.285-1.75,7.688,7.688,0,0,1,3.171-.645,6.266,6.266,0,0,1,4.292,1.37A4.941,4.941,0,0,1,33.428-11v7.295a8.919,8.919,0,0,0,.557,3.472V0Zm-4.5-2.065a4.763,4.763,0,0,0,2.417-.659,3.987,3.987,0,0,0,1.655-1.714V-7.69H28.594q-4.98,0-4.98,2.915a2.467,2.467,0,0,0,.85,1.992A3.266,3.266,0,0,0,26.646-2.065ZM40.62,0H37.91V-22.5h2.71Z" transform="translate(78.836 33.105)" fill="#12263f"/>
          <path id="Trazado_134883" data-name="Trazado 134883" d="M-28.023,0h-4.786V-15.236l-4.7,1.374v-3.625l9.048-3.129h.439Zm7.972,5.551-2.407-1.133.481-.963A7.853,7.853,0,0,0-20.943-.057V-3.6h3.823l-.014,3.073a7.681,7.681,0,0,1-.835,3.313A8.419,8.419,0,0,1-20.051,5.551ZM-9.629-12.305h2.251A2.341,2.341,0,0,0-4.7-14.925a2.265,2.265,0,0,0-.637-1.664,2.416,2.416,0,0,0-1.8-.644,2.587,2.587,0,0,0-1.65.552,1.685,1.685,0,0,0-.7,1.374h-4.772a4.885,4.885,0,0,1,.906-2.9A5.985,5.985,0,0,1-10.84-20.2a8.593,8.593,0,0,1,3.533-.715A8.443,8.443,0,0,1-1.9-19.343,5.225,5.225,0,0,1,.071-15.024,4.355,4.355,0,0,1-.743-12.51a5.8,5.8,0,0,1-2.372,1.919A5.543,5.543,0,0,1-.538-8.786,4.755,4.755,0,0,1,.4-5.792,5.32,5.32,0,0,1-1.728-1.374,8.816,8.816,0,0,1-7.307.283a9.143,9.143,0,0,1-3.76-.772,5.89,5.89,0,0,1-2.627-2.138,5.559,5.559,0,0,1-.892-3.108h4.8A2.149,2.149,0,0,0-9.02-4.092,2.7,2.7,0,0,0-7.137-3.4a2.828,2.828,0,0,0,2.011-.7,2.343,2.343,0,0,0,.75-1.791A2.739,2.739,0,0,0-5.154-8.1a3.256,3.256,0,0,0-2.152-.651H-9.629ZM17.12-8.425a9.844,9.844,0,0,1-1.876,6.443A6.484,6.484,0,0,1,9.955.283,6.518,6.518,0,0,1,4.63-2,9.829,9.829,0,0,1,2.747-8.425v-3.767a9.844,9.844,0,0,1,1.876-6.443,6.5,6.5,0,0,1,5.3-2.266,6.5,6.5,0,0,1,5.31,2.28,9.854,9.854,0,0,1,1.883,6.443ZM12.348-12.8a7.353,7.353,0,0,0-.581-3.321,1.941,1.941,0,0,0-1.841-1.1A1.9,1.9,0,0,0,8.135-16.2a6.927,6.927,0,0,0-.6,3.087v5.268a7.409,7.409,0,0,0,.581,3.377A1.948,1.948,0,0,0,9.955-3.4a1.922,1.922,0,0,0,1.8-1.041A7.073,7.073,0,0,0,12.348-7.7Zm7.264-3.852a4.047,4.047,0,0,1,1.246-3.087A4.672,4.672,0,0,1,24.2-20.915a4.678,4.678,0,0,1,3.356,1.168,4.154,4.154,0,0,1,1.232,3.165v1.02a4.025,4.025,0,0,1-1.232,3.073,4.655,4.655,0,0,1-3.328,1.161,4.781,4.781,0,0,1-3.349-1.154,4.066,4.066,0,0,1-1.267-3.165Zm3.073,1.087a1.712,1.712,0,0,0,.411,1.189,1.445,1.445,0,0,0,1.133.457q1.487,0,1.487-1.885v-.844a1.8,1.8,0,0,0-.4-1.2,1.381,1.381,0,0,0-1.119-.471,1.411,1.411,0,0,0-1.1.457,1.8,1.8,0,0,0-.411,1.245Zm6.726,10.51a4.007,4.007,0,0,1,1.253-3.087A4.712,4.712,0,0,1,34-9.3a4.762,4.762,0,0,1,3.356,1.147,4.132,4.132,0,0,1,1.246,3.2v.991A4.042,4.042,0,0,1,37.369-.878,4.675,4.675,0,0,1,34.027.283,4.781,4.781,0,0,1,30.678-.871a4.066,4.066,0,0,1-1.267-3.165Zm3.059,1.087a1.674,1.674,0,0,0,.453,1.161,1.436,1.436,0,0,0,1.1.5A1.3,1.3,0,0,0,35.514-3.6l.014-1.449a1.732,1.732,0,0,0-.411-1.2A1.428,1.428,0,0,0,34-6.712a1.439,1.439,0,0,0-1.09.429,1.71,1.71,0,0,0-.439,1.161ZM25.134-1.543,22.911-2.662,32.979-18.776,35.2-17.658Z" transform="translate(103.79 66.849)" fill="#12263f"/>
          <g id="barco-de-carga" transform="translate(14.458 40.007)">
            <path id="Trazado_126574" data-name="Trazado 126574" d="M98.555,92.355a.528.528,0,0,0-.528.528v.452a.528.528,0,1,0,1.056,0v-.452A.528.528,0,0,0,98.555,92.355Z" transform="translate(-91.124 -86.665)" fill="#12263f"/>
            <path id="Trazado_126575" data-name="Trazado 126575" d="M98.555,122.117a.528.528,0,0,0-.528.528v.452a.528.528,0,0,0,1.056,0v-.452A.528.528,0,0,0,98.555,122.117Z" transform="translate(-91.124 -114.331)" fill="#12263f"/>
            <path id="Trazado_126576" data-name="Trazado 126576" d="M60.553,190.629v-.452a.528.528,0,1,0-1.056,0v.452a.528.528,0,1,0,1.056,0Z" transform="translate(-55.307 -177.107)" fill="#12263f"/>
            <path id="Trazado_126577" data-name="Trazado 126577" d="M99.083,190.629v-.452a.528.528,0,1,0-1.056,0v.452a.528.528,0,1,0,1.056,0Z" transform="translate(-91.124 -177.107)" fill="#12263f"/>
            <path id="Trazado_126578" data-name="Trazado 126578" d="M137.085,191.158a.528.528,0,0,0,.528-.528v-.452a.528.528,0,0,0-1.056,0v.452A.528.528,0,0,0,137.085,191.158Z" transform="translate(-126.94 -177.107)" fill="#12263f"/>
            <path id="Trazado_126579" data-name="Trazado 126579" d="M35.528,42.448c-2.393,0-2.577-1.6-4.822-2.023.6-3.149,2.81-5.889,5.179-8.067a.528.528,0,0,0-.357-.917h-.511V24.88a.528.528,0,0,0-.528-.528H22.509a.528.528,0,0,0-.528.528V27.9H18.032v-9.86l8.589-3.469V17.7H24.153a.528.528,0,0,0-.528.528v3.545a.528.528,0,0,0,.528.528h1.757a.528.528,0,1,0,0-1.056H24.682V18.761h4.934V21.25H28.022a.528.528,0,0,0,0,1.056h2.121a.528.528,0,0,0,.528-.528V18.233a.528.528,0,0,0-.528-.528H27.677V14.141l1.394-.563a.528.528,0,1,0-.4-.979L18.032,16.9v-.545a1.636,1.636,0,0,0-.471-1.152l-1.676-1.708a.977.977,0,0,0-1.674.684v4.264l-1.581.639a.528.528,0,1,0,.4.979l1.185-.479V31.239l-1.526-.628V23.125A1.122,1.122,0,0,0,11.564,22h-.978V16.478a1.112,1.112,0,0,0-1.11-1.11H7.96V13.918h.5a.528.528,0,1,0,0-1.056h-.5v-.784a.528.528,0,1,0-1.056,0v.784H6.4a.528.528,0,1,0,0,1.056h.5v1.449H5.388a1.112,1.112,0,0,0-1.11,1.11V22H3.3a1.122,1.122,0,0,0-1.121,1.121v2.568a.528.528,0,1,0,1.056,0V23.125A.065.065,0,0,1,3.3,23.06h8.264a.065.065,0,0,1,.065.065v7.052L9.749,29.4a1.007,1.007,0,0,0-.383-.075H9.258V27.442a.864.864,0,0,0-.863-.863H6.468a.864.864,0,0,0-.864.863v1.887H3.234V27.8a.528.528,0,1,0-1.056,0v1.525H.528a.528.528,0,0,0-.492.72L2.431,36.2l.169.436a1.115,1.115,0,0,1,.076.4v3.3a3.524,3.524,0,0,0,.252,1.3,3.675,3.675,0,0,1-2.4.807.528.528,0,0,0,0,1.056c3.023,0,3.239-2.113,5.834-2.113,2.661,0,2.73,2.113,5.834,2.113s3.169-2.113,5.833-2.113,2.73,2.113,5.833,2.113,3.169-2.113,5.833-2.113S32.424,43.5,35.528,43.5a.528.528,0,0,0,0-1.056ZM5.334,22V16.478a.054.054,0,0,1,.054-.054H9.475a.054.054,0,0,1,.054.054V22Zm17.7,9.438V28.953h4.934v2.488Zm5.99-2.488H33.96v2.488H29.027ZM33.96,27.9H29.027V25.409H33.96ZM23.037,25.409h4.934V27.9H23.037Zm-1.056,3.545v2.488H18.032V28.953ZM15.267,14.371l1.539,1.569a.586.586,0,0,1,.169.413V31.442H15.267ZM6.661,27.634H8.2v1.695H6.661Zm2.7,2.751,4.78,1.965a1.945,1.945,0,0,0,.745.148H34.217a21.24,21.24,0,0,0-2.49,2.982H3.284L1.3,30.385Zm14.5,12.063c-2.662,0-2.729-2.113-5.833-2.113s-3.165,2.113-5.833,2.113-2.729-2.113-5.834-2.113a4.6,4.6,0,0,0-2.532.683,2.463,2.463,0,0,1-.1-.682V39.3H21.453a.528.528,0,0,0,0-1.056H3.732v-1.2a2.157,2.157,0,0,0-.059-.5H31.067a13.159,13.159,0,0,0-.82,1.7H23.565a.528.528,0,1,0,0,1.056H29.89q-.148.519-.241,1.04C26.588,40.358,26.511,42.448,23.862,42.448Z" transform="translate(0 -11.55)" fill="#12263f"/>
            <path id="Trazado_126580" data-name="Trazado 126580" d="M65.081,476.337c-.673,0-.8-.69-1.906-.69s-1.231.69-1.906.69a.528.528,0,0,0,0,1.056c1.11,0,1.231-.69,1.906-.69s.806.69,1.906.69a.528.528,0,1,0,0-1.056Z" transform="translate(-56.464 -442.964)" fill="#12263f"/>
            <path id="Trazado_126581" data-name="Trazado 126581" d="M225.774,476.337c-.673,0-.8-.69-1.906-.69s-1.229.69-1.906.69a.528.528,0,1,0,0,1.056c1.11,0,1.231-.69,1.906-.69s.8.69,1.906.69a.528.528,0,1,0,0-1.056Z" transform="translate(-205.84 -442.964)" fill="#12263f"/>
            <path id="Trazado_126582" data-name="Trazado 126582" d="M379.769,476.337c-.664,0-.806-.69-1.906-.69s-1.232.69-1.906.69a.528.528,0,1,0,0,1.056c1.11,0,1.231-.69,1.906-.69s.8.69,1.906.69a.528.528,0,1,0,0-1.056Z" transform="translate(-348.991 -442.964)" fill="#12263f"/>
            <path id="Trazado_126583" data-name="Trazado 126583" d="M389.281,324.809h.968a.528.528,0,1,0,0-1.056h-.968a.528.528,0,1,0,0,1.056Z" transform="translate(-361.376 -301.767)" fill="#12263f"/>
          </g>
        </g>
        <path id="Trazado_116172" data-name="Trazado 116172" d="M144.833,298.147a10.847,10.847,0,1,0-10.847,10.847A10.846,10.846,0,0,0,144.833,298.147Z" transform="translate(159.845 -279.343)" fill="#ffba5b"/>
      </g>
    </g>
    <g id="Grupo_81900" data-name="Grupo 81900" transform="translate(901.613 1804.854)">
      <g id="Grupo_81899" data-name="Grupo 81899" transform="translate(0)">
        <circle id="Elipse_4124" data-name="Elipse 4124" cx="18.805" cy="18.805" r="18.805" transform="translate(0 102.549)" fill="#fff"/>
        <path id="Trazado_116173" data-name="Trazado 116173" d="M175.27,290.517,261.2,199.3a4.593,4.593,0,0,1,3.248-1.344H399.275" transform="translate(-150.61 -174.358)" fill="none" stroke="#ff7758" stroke-linecap="round" stroke-linejoin="round" stroke-width="1.5"/>
        <g id="Grupo_81898" data-name="Grupo 81898" transform="translate(132.5)">
          <rect id="Rectángulo_6936" data-name="Rectángulo 6936" width="185.309" height="87.767" rx="3.373" transform="translate(185.309 87.767) rotate(180)" fill="#ff7758"/>
          <path id="Trazado_134880" data-name="Trazado 134880" d="M-54.743-9.1H-63.4V0h-2.719V-20.617h12.772v2.223H-63.4v7.066h8.652ZM-44.435.283A6.694,6.694,0,0,1-49.5-1.763a7.594,7.594,0,0,1-1.954-5.473v-.481a9.194,9.194,0,0,1,.871-4.071,6.793,6.793,0,0,1,2.436-2.8A6.123,6.123,0,0,1-44.76-15.6a5.738,5.738,0,0,1,4.645,1.968A8.522,8.522,0,0,1-38.459-8v1.09H-48.838a5.446,5.446,0,0,0,1.324,3.66,4.162,4.162,0,0,0,3.221,1.395,4.563,4.563,0,0,0,2.351-.566,5.906,5.906,0,0,0,1.685-1.5l1.6,1.246A6.434,6.434,0,0,1-44.435.283Zm-.326-13.735A3.494,3.494,0,0,0-47.422-12.3a5.609,5.609,0,0,0-1.331,3.236h7.675v-.2a4.99,4.99,0,0,0-1.076-3.094A3.29,3.29,0,0,0-44.76-13.452Zm16.737.481a7.85,7.85,0,0,0-1.289-.1,3.452,3.452,0,0,0-3.5,2.195V0h-2.62V-15.321h2.549l.042,1.77A4.079,4.079,0,0,1-29.184-15.6a2.676,2.676,0,0,1,1.161.2Zm9.813,0a7.85,7.85,0,0,0-1.289-.1A3.452,3.452,0,0,0-23-10.875V0h-2.62V-15.321h2.549l.042,1.77A4.079,4.079,0,0,1-19.371-15.6a2.676,2.676,0,0,1,1.161.2ZM-16.78-7.8a9.05,9.05,0,0,1,.885-4.05,6.6,6.6,0,0,1,2.464-2.775,6.707,6.707,0,0,1,3.6-.977,6.461,6.461,0,0,1,5.062,2.167A8.335,8.335,0,0,1-2.832-7.675v.184a9.128,9.128,0,0,1-.857,4.014A6.5,6.5,0,0,1-6.138-.708,6.784,6.784,0,0,1-9.8.283a6.445,6.445,0,0,1-5.048-2.167A8.293,8.293,0,0,1-16.78-7.618Zm2.634.312A6.555,6.555,0,0,0-12.964-3.4,3.784,3.784,0,0,0-9.8-1.855,3.761,3.761,0,0,0-6.627-3.42,7.168,7.168,0,0,0-5.452-7.8a6.543,6.543,0,0,0-1.2-4.085,3.8,3.8,0,0,0-3.179-1.565,3.762,3.762,0,0,0-3.129,1.543A7.114,7.114,0,0,0-14.146-7.491ZM5.3-3.554,9.091-15.321h2.676L6.273,0h-2L-1.274-15.321H1.4ZM17.134,0h-2.62V-15.321h2.62ZM14.3-19.385a1.564,1.564,0,0,1,.389-1.076,1.462,1.462,0,0,1,1.154-.439,1.485,1.485,0,0,1,1.161.439,1.547,1.547,0,0,1,.4,1.076,1.5,1.5,0,0,1-.4,1.062,1.512,1.512,0,0,1-1.161.425,1.488,1.488,0,0,1-1.154-.425A1.512,1.512,0,0,1,14.3-19.385ZM30.784,0a5.5,5.5,0,0,1-.368-1.614,5.845,5.845,0,0,1-4.361,1.9A5.408,5.408,0,0,1,22.338-1a4.146,4.146,0,0,1-1.451-3.25,4.331,4.331,0,0,1,1.82-3.717,8.579,8.579,0,0,1,5.119-1.324h2.549v-1.2a2.942,2.942,0,0,0-.821-2.188,3.3,3.3,0,0,0-2.421-.814,3.82,3.82,0,0,0-2.351.708,2.086,2.086,0,0,0-.949,1.713H21.2a3.615,3.615,0,0,1,.814-2.216,5.557,5.557,0,0,1,2.209-1.692,7.431,7.431,0,0,1,3.066-.623,6.057,6.057,0,0,1,4.149,1.324,4.776,4.776,0,0,1,1.558,3.646v7.052a8.621,8.621,0,0,0,.538,3.356V0ZM26.437-2a4.6,4.6,0,0,0,2.336-.637,3.854,3.854,0,0,0,1.6-1.657V-7.434H28.32q-4.814,0-4.814,2.818a2.385,2.385,0,0,0,.821,1.926A3.157,3.157,0,0,0,26.437-2ZM44.505-12.971a7.85,7.85,0,0,0-1.289-.1,3.452,3.452,0,0,0-3.5,2.195V0H37.1V-15.321h2.549l.042,1.77A4.079,4.079,0,0,1,43.344-15.6a2.676,2.676,0,0,1,1.161.2ZM49.759,0h-2.62V-15.321h2.62ZM46.927-19.385a1.564,1.564,0,0,1,.389-1.076A1.462,1.462,0,0,1,48.47-20.9a1.485,1.485,0,0,1,1.161.439,1.547,1.547,0,0,1,.4,1.076,1.5,1.5,0,0,1-.4,1.062,1.512,1.512,0,0,1-1.161.425,1.488,1.488,0,0,1-1.154-.425A1.512,1.512,0,0,1,46.927-19.385ZM53.256-7.8a9.05,9.05,0,0,1,.885-4.05,6.6,6.6,0,0,1,2.464-2.775,6.707,6.707,0,0,1,3.6-.977,6.461,6.461,0,0,1,5.062,2.167A8.335,8.335,0,0,1,67.2-7.675v.184a9.128,9.128,0,0,1-.857,4.014A6.5,6.5,0,0,1,63.9-.708a6.784,6.784,0,0,1-3.66.991,6.445,6.445,0,0,1-5.048-2.167,8.293,8.293,0,0,1-1.933-5.735Zm2.634.312A6.555,6.555,0,0,0,57.073-3.4a3.784,3.784,0,0,0,3.165,1.543A3.761,3.761,0,0,0,63.409-3.42,7.168,7.168,0,0,0,64.584-7.8a6.543,6.543,0,0,0-1.2-4.085,3.8,3.8,0,0,0-3.179-1.565,3.762,3.762,0,0,0-3.129,1.543A7.114,7.114,0,0,0,55.89-7.491Z" transform="translate(94.571 32.358)" fill="#fff"/>
          <path id="Trazado_134881" data-name="Trazado 134881" d="M-33.735,0H-48.618V-3.223l6.855-7.207q2.534-2.886,2.534-4.585a3.189,3.189,0,0,0-.6-2.095,2.144,2.144,0,0,0-1.743-.718,2.171,2.171,0,0,0-1.831.959,3.943,3.943,0,0,0-.7,2.4h-4.951a7,7,0,0,1,.981-3.625,6.882,6.882,0,0,1,2.725-2.6,8.094,8.094,0,0,1,3.9-.937,7.962,7.962,0,0,1,5.325,1.6,5.7,5.7,0,0,1,1.868,4.585A6.658,6.658,0,0,1-34.731-13a10.76,10.76,0,0,1-1.458,2.5,36.715,36.715,0,0,1-3.186,3.508l-2.754,3.179h8.394ZM-16.86-15.63a4.924,4.924,0,0,1-.769,2.739,5.6,5.6,0,0,1-2.117,1.9,6.164,6.164,0,0,1,2.417,2.043,5.273,5.273,0,0,1,.894,3.069,5.582,5.582,0,0,1-1.97,4.512A8.182,8.182,0,0,1-23.833.293,8.331,8.331,0,0,1-29.312-1.37a5.542,5.542,0,0,1-2.007-4.5,5.339,5.339,0,0,1,.879-3.032,5.977,5.977,0,0,1,2.49-2.08,5.633,5.633,0,0,1-2.139-1.9,4.889,4.889,0,0,1-.776-2.739,5.473,5.473,0,0,1,1.89-4.395,7.6,7.6,0,0,1,5.1-1.611,7.643,7.643,0,0,1,5.127,1.611A5.473,5.473,0,0,1-16.86-15.63Zm-4.526,9.36A2.816,2.816,0,0,0-22.068-8.3a2.372,2.372,0,0,0-1.794-.71,2.4,2.4,0,0,0-1.8.71,2.8,2.8,0,0,0-.688,2.029,2.821,2.821,0,0,0,.7,2.014,2.388,2.388,0,0,0,1.824.74,2.3,2.3,0,0,0,1.772-.732A2.872,2.872,0,0,0-21.387-6.27Zm-2.49-11.558a1.824,1.824,0,0,0-1.516.652,2.829,2.829,0,0,0-.52,1.809,3,3,0,0,0,.527,1.846,1.819,1.819,0,0,0,1.553.7,1.745,1.745,0,0,0,1.516-.7,3.093,3.093,0,0,0,.505-1.846,2.835,2.835,0,0,0-.52-1.8A1.849,1.849,0,0,0-23.877-17.827ZM-12.056,5.742l-2.49-1.172.5-1A8.124,8.124,0,0,0-12.979-.059V-3.721h3.955L-9.038-.542A7.945,7.945,0,0,1-9.9,2.886,8.709,8.709,0,0,1-12.056,5.742Zm6.563-16.16,1.3-10.91H8.276v3.809H-.176l-.483,4.266A5.822,5.822,0,0,1,.725-13.8,6.316,6.316,0,0,1,2.4-14.033a6.257,6.257,0,0,1,4.885,1.882A7.582,7.582,0,0,1,8.994-6.87a7.569,7.569,0,0,1-.916,3.713A6.293,6.293,0,0,1,5.508-.6,8.116,8.116,0,0,1,1.6.293,8.733,8.733,0,0,1-2.168-.534,6.754,6.754,0,0,1-4.922-2.8,5.513,5.513,0,0,1-5.9-6.059H-.952A2.8,2.8,0,0,0-.205-4.2a2.371,2.371,0,0,0,1.772.687q2.49,0,2.49-3.684,0-3.406-3.047-3.406A3.04,3.04,0,0,0-1.567-9.494Zm31.89,1.7a10.184,10.184,0,0,1-1.941,6.665A6.707,6.707,0,0,1,18.984.293a6.743,6.743,0,0,1-5.508-2.358,10.168,10.168,0,0,1-1.948-6.65v-3.9a10.184,10.184,0,0,1,1.941-6.665,6.724,6.724,0,0,1,5.486-2.344,6.726,6.726,0,0,1,5.493,2.358A10.193,10.193,0,0,1,26.4-12.6ZM21.46-13.242a7.607,7.607,0,0,0-.6-3.435,2.008,2.008,0,0,0-1.9-1.135A1.96,1.96,0,0,0,17.1-16.758a7.166,7.166,0,0,0-.623,3.193v5.449a7.664,7.664,0,0,0,.6,3.494,2.015,2.015,0,0,0,1.9,1.106,1.988,1.988,0,0,0,1.86-1.077,7.317,7.317,0,0,0,.615-3.376Zm7.515-3.984a4.186,4.186,0,0,1,1.289-3.193,4.833,4.833,0,0,1,3.457-1.216,4.839,4.839,0,0,1,3.472,1.208,4.3,4.3,0,0,1,1.274,3.274V-16.1a4.164,4.164,0,0,1-1.274,3.179,4.815,4.815,0,0,1-3.442,1.2,4.946,4.946,0,0,1-3.464-1.194,4.206,4.206,0,0,1-1.311-3.274ZM32.153-16.1a1.771,1.771,0,0,0,.425,1.23,1.5,1.5,0,0,0,1.172.473q1.538,0,1.538-1.95v-.873a1.867,1.867,0,0,0-.41-1.244,1.429,1.429,0,0,0-1.157-.488,1.459,1.459,0,0,0-1.143.473,1.857,1.857,0,0,0-.425,1.288ZM39.111-5.229a4.146,4.146,0,0,1,1.3-3.193,4.874,4.874,0,0,1,3.45-1.2,4.926,4.926,0,0,1,3.472,1.187,4.275,4.275,0,0,1,1.289,3.311V-4.1A4.182,4.182,0,0,1,47.344-.908a4.836,4.836,0,0,1-3.457,1.2A4.946,4.946,0,0,1,40.422-.9a4.206,4.206,0,0,1-1.311-3.274Zm3.164,1.124a1.732,1.732,0,0,0,.469,1.2,1.485,1.485,0,0,0,1.143.517,1.347,1.347,0,0,0,1.538-1.339l.015-1.5a1.792,1.792,0,0,0-.425-1.245,1.477,1.477,0,0,0-1.157-.473,1.489,1.489,0,0,0-1.128.444,1.769,1.769,0,0,0-.454,1.2ZM34.688-1.6l-2.3-1.157L42.8-19.424l2.3,1.157Z" transform="translate(120.738 70.418)" fill="#fff"/>
          <g id="tren" transform="translate(25.571 47.113)">
            <path id="Trazado_126564" data-name="Trazado 126564" d="M440.21,356.994a.5.5,0,1,0-.9.45l.923,1.839a.5.5,0,0,0,.9-.45Z" transform="translate(-410.177 -336.508)" fill="#fff"/>
            <path id="Trazado_126565" data-name="Trazado 126565" d="M33.541,74.9l-2.056-4.041a1.657,1.657,0,0,0-1.3-.972V68.75h.6a1.6,1.6,0,0,0,1.6-1.6V63.587a1.6,1.6,0,0,0-1.6-1.6h-.6v-.629a1.42,1.42,0,0,0-1.419-1.417h-.925V56.3h.469a1.445,1.445,0,0,0,1.443-1.443v-.944a1.445,1.445,0,0,0-1.443-1.443H21.962a1.445,1.445,0,0,0-1.443,1.443v.944A1.445,1.445,0,0,0,21.962,56.3h.469v3.639H20V58.6a1.283,1.283,0,0,0-1.282-1.282h-.925A1.284,1.284,0,0,0,16.506,58.6v1.346h-2.9V55.4a1.972,1.972,0,0,0-.4-3.9H2.571a1.972,1.972,0,0,0-.4,3.9V69.848H1.12A1.122,1.122,0,0,0,0,70.969v1.959a1.122,1.122,0,0,0,1.12,1.121H2.693a5.027,5.027,0,0,0,10.005,0H16a5.027,5.027,0,0,0,10.005,0h.722c.149,0,.3,0,.383.007.028.047.069.125.105.2s.093.178.154.29l.006.011.391.671a1.882,1.882,0,0,0,1.728,1c.141.017.286.034.445.059l2.525.4a3.656,3.656,0,0,0,.569.061.832.832,0,0,0,.723-.311C34.034,76.053,33.879,75.565,33.541,74.9ZM30.184,62.99h.6a.6.6,0,0,1,.6.6v3.562a.6.6,0,0,1-.6.6h-.6ZM21.962,55.3a.441.441,0,0,1-.441-.441v-.944a.441.441,0,0,1,.441-.441H28.31a.441.441,0,0,1,.441.441v.944a.441.441,0,0,1-.441.441H21.962Zm4.876,1v3.639h-3.4V56.3ZM17.508,58.6a.284.284,0,0,1,.281-.28h.925a.28.28,0,0,1,.279.28v1.346H17.508ZM1.6,53.468a.97.97,0,0,1,.97-.968H13.206a.969.969,0,1,1,0,1.939H2.571a.971.971,0,0,1-.97-.97ZM8.031,66.6h0l4.572-.017v3.262H3.173V66.584H6.094a.5.5,0,0,0,0-1H3.173V55.441H12.6V65.583L8.029,65.6a.5.5,0,0,0,0,1ZM7.695,77.575A4.032,4.032,0,0,1,3.7,74.049H4.977a2.764,2.764,0,0,0,5.437,0H11.69A4.033,4.033,0,0,1,7.695,77.575ZM6.006,74.049h3.38a1.762,1.762,0,0,1-3.38,0Zm15,3.527a4.033,4.033,0,0,1-4-3.527h1.276a2.764,2.764,0,0,0,5.437,0H25a4.031,4.031,0,0,1-3.993,3.527Zm-1.691-3.527h3.38a1.762,1.762,0,0,1-3.38,0Zm13.311,1.643-2.526-.4c-.179-.029-.342-.048-.486-.065-.59-.069-.749-.088-.97-.491l-.006-.011-.391-.67c-.056-.1-.1-.189-.141-.264-.351-.673-.559-.741-1.357-.741H1.12A.12.12,0,0,1,1,72.928V70.969a.12.12,0,0,1,.118-.118H18.009a.5.5,0,1,0,0-1h-4.4v-8.9H28.765a.421.421,0,0,1,.416.415v8.489H20.3a.5.5,0,0,0,0,1h9.383c.628,0,.762.174.908.462l2.056,4.041c.079.156.134.276.17.367l-.192-.028Z" transform="translate(0 -51.497)" fill="#fff"/>
            <path id="Trazado_126566" data-name="Trazado 126566" d="M316.04,228.709h4.152a.5.5,0,0,0,0-1H316.04a.5.5,0,0,0,0,1Z" transform="translate(-294.647 -216.039)" fill="#fff"/>
            <path id="Trazado_126567" data-name="Trazado 126567" d="M316.04,270.182h4.152a.5.5,0,0,0,0-1H316.04a.5.5,0,0,0,0,1Z" transform="translate(-294.647 -254.766)" fill="#fff"/>
            <path id="Trazado_126568" data-name="Trazado 126568" d="M71.877,129.316v-4.475a1.144,1.144,0,0,0-1.143-1.143H65.923a1.144,1.144,0,0,0-1.143,1.143v4.475a1.144,1.144,0,0,0,1.143,1.143h4.811A1.144,1.144,0,0,0,71.877,129.316Zm-6.094,0v-4.475a.142.142,0,0,1,.14-.141h4.811a.142.142,0,0,1,.14.141v4.475a.142.142,0,0,1-.14.141H65.923A.142.142,0,0,1,65.783,129.316Z" transform="translate(-60.491 -118.917)" fill="#fff"/>
          </g>
        </g>
        <path id="Trazado_116174" data-name="Trazado 116174" d="M190.935,229.831a10.848,10.848,0,1,0,10.847-10.847A10.848,10.848,0,0,0,190.935,229.831Z" transform="translate(-182.979 -108.477)" fill="#ff7758"/>
      </g>
    </g>
    <g id="Grupo_81903" data-name="Grupo 81903" transform="translate(962.292 2096.754)">
      <g id="Grupo_81902" data-name="Grupo 81902">
        <circle id="Elipse_4125" data-name="Elipse 4125" cx="18.805" cy="18.805" r="18.805" fill="#fff"/>
        <path id="Trazado_116175" data-name="Trazado 116175" d="M207.726,311.185l31.1,31.1a4.592,4.592,0,0,0,3.248,1.344H376.907" transform="translate(-188.921 -292.381)" fill="none" stroke="#675d84" stroke-linecap="round" stroke-linejoin="round" stroke-width="1.5"/>
        <g id="Grupo_81901" data-name="Grupo 81901" transform="translate(71.821 27.659)">
          <rect id="Rectángulo_6937" data-name="Rectángulo 6937" width="152.881" height="80.034" rx="3.373" transform="translate(152.881 80.034) rotate(180)" fill="#675d84"/>
          <path id="Trazado_134884" data-name="Trazado 134884" d="M-42.437-19.028h-6.855V0h-2.8V-19.028h-6.841v-2.3h16.494ZM-34.57.293a6.925,6.925,0,0,1-5.244-2.117,7.856,7.856,0,0,1-2.021-5.662v-.5a9.511,9.511,0,0,1,.9-4.211,7.028,7.028,0,0,1,2.52-2.9,6.335,6.335,0,0,1,3.508-1.047,5.936,5.936,0,0,1,4.8,2.036,8.816,8.816,0,0,1,1.714,5.83v1.128H-39.126a5.634,5.634,0,0,0,1.37,3.787,4.305,4.305,0,0,0,3.333,1.443A4.72,4.72,0,0,0-31.992-2.5a6.11,6.11,0,0,0,1.743-1.553l1.655,1.289A6.656,6.656,0,0,1-34.57.293Zm-.337-14.209a3.615,3.615,0,0,0-2.754,1.194,5.8,5.8,0,0,0-1.377,3.347H-31.1V-9.58a5.162,5.162,0,0,0-1.113-3.2A3.4,3.4,0,0,0-34.907-13.916Zm17.314.5a8.121,8.121,0,0,0-1.333-.1,3.571,3.571,0,0,0-3.618,2.271V0h-2.71V-15.85h2.637l.044,1.831a4.22,4.22,0,0,1,3.779-2.124,2.769,2.769,0,0,1,1.2.205Zm10.151,0a8.121,8.121,0,0,0-1.333-.1,3.571,3.571,0,0,0-3.618,2.271V0H-15.1V-15.85h2.637l.044,1.831a4.22,4.22,0,0,1,3.779-2.124,2.769,2.769,0,0,1,1.2.205ZM1.348.293A6.925,6.925,0,0,1-3.9-1.824,7.856,7.856,0,0,1-5.918-7.485v-.5a9.511,9.511,0,0,1,.9-4.211A7.028,7.028,0,0,1-2.5-15.1a6.335,6.335,0,0,1,3.508-1.047,5.936,5.936,0,0,1,4.8,2.036,8.816,8.816,0,0,1,1.714,5.83v1.128H-3.208a5.634,5.634,0,0,0,1.37,3.787A4.305,4.305,0,0,0,1.494-1.919,4.72,4.72,0,0,0,3.926-2.5,6.11,6.11,0,0,0,5.669-4.058L7.324-2.769A6.656,6.656,0,0,1,1.348.293ZM1.011-13.916a3.615,3.615,0,0,0-2.754,1.194A5.8,5.8,0,0,0-3.12-9.375H4.819V-9.58a5.162,5.162,0,0,0-1.113-3.2A3.4,3.4,0,0,0,1.011-13.916ZM19.893-4.2a2,2,0,0,0-.828-1.707,7.966,7.966,0,0,0-2.886-1.047,13.644,13.644,0,0,1-3.267-1.055,4.647,4.647,0,0,1-1.787-1.465,3.5,3.5,0,0,1-.579-2.021,4.111,4.111,0,0,1,1.648-3.3,6.436,6.436,0,0,1,4.211-1.348,6.623,6.623,0,0,1,4.373,1.392,4.42,4.42,0,0,1,1.677,3.56H19.731a2.446,2.446,0,0,0-.945-1.919,3.54,3.54,0,0,0-2.38-.806,3.7,3.7,0,0,0-2.314.645,2.029,2.029,0,0,0-.835,1.685,1.644,1.644,0,0,0,.776,1.479,9.552,9.552,0,0,0,2.805.952,14.616,14.616,0,0,1,3.289,1.084,4.8,4.8,0,0,1,1.868,1.516A3.728,3.728,0,0,1,22.6-4.395,4.056,4.056,0,0,1,20.9-.989,7.128,7.128,0,0,1,16.494.293a7.981,7.981,0,0,1-3.369-.674,5.48,5.48,0,0,1-2.292-1.882A4.537,4.537,0,0,1,10-4.878h2.71a2.806,2.806,0,0,0,1.091,2.161,4.234,4.234,0,0,0,2.688.8,4.37,4.37,0,0,0,2.468-.623A1.913,1.913,0,0,0,19.893-4.2ZM29.81-19.687v3.838h2.959v2.095H29.81v9.841a2.2,2.2,0,0,0,.4,1.43,1.665,1.665,0,0,0,1.348.477,6.561,6.561,0,0,0,1.289-.176V0a7.9,7.9,0,0,1-2.08.291,3.375,3.375,0,0,1-2.739-1.1,4.72,4.72,0,0,1-.923-3.12v-9.829H24.214V-15.85H27.1v-3.838Zm13.784,6.27a8.121,8.121,0,0,0-1.333-.1,3.571,3.571,0,0,0-3.618,2.271V0h-2.71V-15.85h2.637l.044,1.831a4.22,4.22,0,0,1,3.779-2.124,2.769,2.769,0,0,1,1.2.205ZM52.383.293a6.925,6.925,0,0,1-5.244-2.117,7.856,7.856,0,0,1-2.021-5.662v-.5a9.511,9.511,0,0,1,.9-4.211,7.028,7.028,0,0,1,2.52-2.9,6.335,6.335,0,0,1,3.508-1.047,5.936,5.936,0,0,1,4.8,2.036,8.816,8.816,0,0,1,1.714,5.83v1.128H47.827A5.634,5.634,0,0,0,49.2-3.362a4.305,4.305,0,0,0,3.333,1.443A4.72,4.72,0,0,0,54.961-2.5,6.11,6.11,0,0,0,56.7-4.058l1.655,1.289A6.656,6.656,0,0,1,52.383.293Zm-.337-14.209a3.615,3.615,0,0,0-2.754,1.194,5.8,5.8,0,0,0-1.377,3.347h7.939V-9.58a5.162,5.162,0,0,0-1.113-3.2A3.4,3.4,0,0,0,52.046-13.916Z" transform="translate(76.218 33.105)" fill="#fff"/>
          <path id="Trazado_134885" data-name="Trazado 134885" d="M-11.965-18.068-19.668,0h-5.041l7.717-16.936h-9.827v-3.682h14.854ZM4.814-8.425A9.844,9.844,0,0,1,2.938-1.982,6.484,6.484,0,0,1-2.351.283,6.518,6.518,0,0,1-7.675-2,9.829,9.829,0,0,1-9.558-8.425v-3.767a9.844,9.844,0,0,1,1.876-6.443,6.5,6.5,0,0,1,5.3-2.266,6.5,6.5,0,0,1,5.31,2.28,9.854,9.854,0,0,1,1.883,6.443ZM.042-12.8a7.353,7.353,0,0,0-.581-3.321,1.941,1.941,0,0,0-1.841-1.1A1.9,1.9,0,0,0-4.17-16.2a6.927,6.927,0,0,0-.6,3.087v5.268a7.409,7.409,0,0,0,.581,3.377A1.948,1.948,0,0,0-2.351-3.4a1.922,1.922,0,0,0,1.8-1.041A7.073,7.073,0,0,0,.042-7.7Zm7.264-3.852a4.047,4.047,0,0,1,1.246-3.087,4.672,4.672,0,0,1,3.342-1.175,4.678,4.678,0,0,1,3.356,1.168,4.154,4.154,0,0,1,1.232,3.165v1.02a4.025,4.025,0,0,1-1.232,3.073,4.655,4.655,0,0,1-3.328,1.161,4.781,4.781,0,0,1-3.349-1.154,4.066,4.066,0,0,1-1.267-3.165Zm3.073,1.087a1.712,1.712,0,0,0,.411,1.189,1.445,1.445,0,0,0,1.133.457q1.487,0,1.487-1.885v-.844a1.8,1.8,0,0,0-.4-1.2,1.381,1.381,0,0,0-1.119-.471,1.411,1.411,0,0,0-1.1.457,1.8,1.8,0,0,0-.411,1.245Zm6.726,10.51a4.007,4.007,0,0,1,1.253-3.087A4.712,4.712,0,0,1,21.693-9.3a4.762,4.762,0,0,1,3.356,1.147,4.132,4.132,0,0,1,1.246,3.2v.991A4.042,4.042,0,0,1,25.063-.878,4.675,4.675,0,0,1,21.722.283,4.781,4.781,0,0,1,18.373-.871a4.066,4.066,0,0,1-1.267-3.165Zm3.059,1.087a1.674,1.674,0,0,0,.453,1.161,1.436,1.436,0,0,0,1.1.5A1.3,1.3,0,0,0,23.208-3.6l.014-1.449a1.732,1.732,0,0,0-.411-1.2,1.428,1.428,0,0,0-1.119-.457,1.439,1.439,0,0,0-1.09.429,1.71,1.71,0,0,0-.439,1.161ZM12.829-1.543,10.606-2.662,20.674-18.776,22.9-17.658Z" transform="translate(111.389 65.691)" fill="#fff"/>
        </g>
        <path id="Trazado_116176" data-name="Trazado 116176" d="M203.448,317.754A10.847,10.847,0,1,1,214.3,328.6,10.848,10.848,0,0,1,203.448,317.754Z" transform="translate(-195.49 -298.95)" fill="#675d84"/>
      </g>
    </g>
    <g id="truck" transform="translate(1053.667 2165.843)">
      <g id="Grupo_86907" data-name="Grupo 86907" transform="translate(8.946 22.76)">
        <g id="Grupo_86906" data-name="Grupo 86906" transform="translate(0 0)">
          <path id="Trazado_126559" data-name="Trazado 126559" d="M88.983,344.692h-.008a.765.765,0,1,0,.008,0Z" transform="translate(-88.218 -344.692)" fill="#fff"/>
        </g>
      </g>
      <g id="Grupo_86909" data-name="Grupo 86909" transform="translate(15.448 22.76)">
        <g id="Grupo_86908" data-name="Grupo 86908" transform="translate(0 0)">
          <path id="Trazado_126560" data-name="Trazado 126560" d="M153.112,344.692H153.1a.765.765,0,1,0,.008,0Z" transform="translate(-152.347 -344.692)" fill="#fff"/>
        </g>
      </g>
      <g id="Grupo_86911" data-name="Grupo 86911" transform="translate(42.273 22.76)">
        <g id="Grupo_86910" data-name="Grupo 86910" transform="translate(0 0)">
          <path id="Trazado_126561" data-name="Trazado 126561" d="M417.644,344.692h-.008a.765.765,0,1,0,.008,0Z" transform="translate(-416.879 -344.692)" fill="#fff"/>
        </g>
      </g>
      <g id="Grupo_86913" data-name="Grupo 86913" transform="translate(0 0)">
        <g id="Grupo_86912" data-name="Grupo 86912">
          <path id="Trazado_126562" data-name="Trazado 126562" d="M51.22,133.81,50.2,132.787l-2.06-6.18a.76.76,0,0,0-.23-1.485H40.539v-3.3a1.575,1.575,0,0,0-1.573-1.573H1.573A1.575,1.575,0,0,0,0,121.818V139.7a1.575,1.575,0,0,0,1.573,1.573h.865v1.678a1.575,1.575,0,0,0,1.573,1.573H5.763a4.009,4.009,0,0,0,7.19,1.586,4.009,4.009,0,0,0,7.19-1.586H39.091a4.012,4.012,0,0,0,7.951-.761c0-.017,0-.035,0-.052h3.305a1.575,1.575,0,0,0,1.573-1.573V135.5A2.37,2.37,0,0,0,51.22,133.81ZM5.763,143H4.012a.052.052,0,0,1-.052-.052v-1.678h2.6A4,4,0,0,0,5.763,143ZM9.7,146.256a2.491,2.491,0,0,1-.016-4.981h.031a2.491,2.491,0,0,1-.016,4.981Zm6.5,0a2.491,2.491,0,0,1-.016-4.981h.031a2.491,2.491,0,0,1-.016,4.981ZM39.091,143H20.144a4,4,0,0,0-.8-1.73H34.088a.761.761,0,0,0,0-1.521H1.573a.052.052,0,0,1-.052-.052V121.818a.052.052,0,0,1,.052-.052H38.965a.052.052,0,0,1,.052.052v17.935H37.34a.761.761,0,0,0,0,1.521h2.548A4,4,0,0,0,39.091,143Zm9.657-9.754H43.842a.052.052,0,0,1-.052-.052v-3.3h3.839Zm-5.719,13.006a2.491,2.491,0,0,1-.016-4.981h.021a2.491,2.491,0,0,1-.005,4.982ZM50.4,142.14a.052.052,0,0,1-.052.052H46.72a4.018,4.018,0,0,0-3.69-2.439H40.539V126.7h0a.052.052,0,0,1,.052-.052h5.955l.577,1.73H43.029a.761.761,0,0,0-.761.761V133.2a1.575,1.575,0,0,0,1.573,1.573H50.03l.114.114a.86.86,0,0,1,.253.612v1.818h-.865a.761.761,0,1,0,0,1.521H50.4Z" transform="translate(0 -120.245)" fill="#fff"/>
        </g>
      </g>
      <g id="Grupo_86915" data-name="Grupo 86915" transform="translate(3.251 16.257)">
        <g id="Grupo_86914" data-name="Grupo 86914" transform="translate(0 0)">
          <path id="Trazado_126563" data-name="Trazado 126563" d="M65.339,280.567H32.825a.761.761,0,1,0,0,1.521H65.339a.761.761,0,1,0,0-1.521Z" transform="translate(-32.064 -280.567)" fill="#fff"/>
        </g>
      </g>
    </g>
  </g>
</svg>
