<svg xmlns="http://www.w3.org/2000/svg" width="46.333" height="46.327" viewBox="0 0 46.333 46.327">
  <g id="Filled_outline" data-name="Filled outline" transform="translate(-16 -16.068)">
    <path id="Trazado_126334" data-name="Trazado 126334" d="M203.582,236.677a.771.771,0,0,1-.692-.427l-4.715-9.43-4.715,9.43a.772.772,0,0,1-1.382-.691l5.406-10.811a.8.8,0,0,1,1.382,0l5.406,10.811a.772.772,0,0,1-.69,1.118Z" transform="translate(-159.009 -188.182)" fill="#95573a"/>
    <path id="Trazado_126335" data-name="Trazado 126335" d="M27.585,236.677a.771.771,0,0,1-.692-.427l-4.715-9.43-4.715,9.43a.772.772,0,0,1-1.382-.691l5.406-10.811a.8.8,0,0,1,1.382,0l5.406,10.811a.772.772,0,0,1-.69,1.118Z" transform="translate(-0.001 -188.182)" fill="#95573a"/>
    <path id="Trazado_126336" data-name="Trazado 126336" d="M100.356,427.089A3.089,3.089,0,0,0,97.267,424H94.178a3.089,3.089,0,0,0-3.089,3.089A3.089,3.089,0,0,0,88,430.178h15.444A3.089,3.089,0,0,0,100.356,427.089Z" transform="translate(-65.05 -368.555)" fill="#ffb531"/>
    <path id="Trazado_126337" data-name="Trazado 126337" d="M150.95,427.089A3.089,3.089,0,0,0,147.861,424h-3.089a3.064,3.064,0,0,0-.772.109,3.082,3.082,0,0,1,2.317,2.98,3.089,3.089,0,0,1,3.089,3.089h4.633A3.089,3.089,0,0,0,150.95,427.089Z" transform="translate(-115.644 -368.555)" fill="#ffa912"/>
    <path id="Trazado_126338" data-name="Trazado 126338" d="M16,344H28.356a3.089,3.089,0,0,1-3.089,3.089H19.089A3.089,3.089,0,0,1,16,344Z" transform="translate(0 -296.277)" fill="#ffb531"/>
    <path id="Trazado_126339" data-name="Trazado 126339" d="M75.861,344c0,1.706-2.155,3.089-3.861,3.089h3.861A3.089,3.089,0,0,0,78.95,344Z" transform="translate(-50.594 -296.277)" fill="#ffa912"/>
    <path id="Trazado_126340" data-name="Trazado 126340" d="M64.708,211.071a5,5,0,0,1-2.066-.442l-1.742-.793a3.492,3.492,0,0,0-3.066.106,5.014,5.014,0,0,1-3.839.386l-.323-.1.449-1.478.323.1a3.456,3.456,0,0,0,2.649-.263,5,5,0,0,1,4.446-.157l1.742.793a3.483,3.483,0,0,0,2.853,0l1.741-.793a5,5,0,0,1,4.447.157,3.458,3.458,0,0,0,2.65.263l.322-.1.449,1.478-.323.1a5.014,5.014,0,0,1-3.839-.386,3.493,3.493,0,0,0-3.066-.106l-1.74.793A5,5,0,0,1,64.708,211.071Z" transform="translate(-34.036 -173.391)" fill="#f7a116"/>
    <path id="Trazado_126341" data-name="Trazado 126341" d="M148.633,186.209a2.317,2.317,0,1,0-3.861,1.715v19.135h3.089V187.924A2.3,2.3,0,0,0,148.633,186.209Z" transform="translate(-115.644 -151.614)" fill="#ffb531"/>
    <rect id="Rectángulo_6982" data-name="Rectángulo 6982" width="10.811" height="1.544" rx="0.772" transform="translate(25.267 57.761)" fill="#f7a116"/>
    <path id="Trazado_126342" data-name="Trazado 126342" d="M274.317,213.406V208h7.722v5.406l2.317,2.317-6.178,16.217L272,215.722Z" transform="translate(-231.289 -173.405)" fill="#fec9a3"/>
    <path id="Trazado_126343" data-name="Trazado 126343" d="M284.356,266.317l-6.178,16.217L272,266.317,274.317,264l3.861,3.861L282.039,264Z" transform="translate(-231.289 -224)" fill="#bfbfbd"/>
    <path id="Trazado_126344" data-name="Trazado 126344" d="M272,266.317l6.178,16.217,6.178-16.217L282.039,264l-3.861,3.861L274.317,264Z" transform="translate(-231.289 -224)" fill="#bfbfbd"/>
    <path id="Trazado_126345" data-name="Trazado 126345" d="M323.089,288v16.217H320V288l1.544,1.544Z" transform="translate(-274.656 -245.683)" fill="#95573a"/>
    <path id="Trazado_126346" data-name="Trazado 126346" d="M323.089,383.25v7.022H320v-4.283C321.053,385.13,322.083,384.223,323.089,383.25Z" transform="translate(-274.656 -331.739)" fill="#8f4d2e"/>
    <path id="Trazado_126347" data-name="Trazado 126347" d="M278.178,267.861l-3.87,4.515L272,266.317,274.317,264Z" transform="translate(-231.289 -224)" fill="#e0e0de"/>
    <path id="Trazado_126348" data-name="Trazado 126348" d="M342.178,266.317l-2.308,6.059L336,267.861,339.861,264Z" transform="translate(-289.111 -224)" fill="#e0e0de"/>
    <path id="Trazado_126349" data-name="Trazado 126349" d="M303.722,225.917V224H296v1.917a6.946,6.946,0,0,0,7.722,0Z" transform="translate(-252.972 -187.861)" fill="#feb784"/>
    <path id="Trazado_126350" data-name="Trazado 126350" d="M408,109.586h.772a2.317,2.317,0,1,1,0,4.633H408Z" transform="translate(-354.161 -84.491)" fill="#feb784"/>
    <path id="Trazado_126351" data-name="Trazado 126351" d="M235.089,109.586h-.772a2.317,2.317,0,1,0,0,4.633h.819" transform="translate(-195.15 -84.491)" fill="#feb784"/>
    <path id="Trazado_126352" data-name="Trazado 126352" d="M277.9,38.95v6.178a6.95,6.95,0,0,1-13.9,0V38.95A6.95,6.95,0,0,1,270.949,32h.059A6.949,6.949,0,0,1,277.9,38.95Z" transform="translate(-224.061 -14.394)" fill="#fec9a3"/>
    <path id="Trazado_126353" data-name="Trazado 126353" d="M321.529,38.959v6.178A6.954,6.954,0,0,1,312.29,51.7a8.5,8.5,0,0,0,5.957-8.108V38.959a8.5,8.5,0,0,0-3.61-6.949,6.949,6.949,0,0,1,6.892,6.949Z" transform="translate(-267.69 -14.403)" fill="#fec093"/>
    <circle id="Elipse_4189" data-name="Elipse 4189" cx="1.158" cy="1.158" r="1.158" transform="translate(42.256 25.328)" fill="#7a432a"/>
    <circle id="Elipse_4190" data-name="Elipse 4190" cx="1.158" cy="1.158" r="1.158" transform="translate(49.205 25.328)" fill="#7a432a"/>
    <path id="Trazado_126354" data-name="Trazado 126354" d="M277.9,29.173v3.089a18.759,18.759,0,0,1-2.807-4.633h0a11.593,11.593,0,0,1-1.315.4,11.847,11.847,0,0,1-6.97-.4A18.793,18.793,0,0,1,264,32.262V29.173a5.286,5.286,0,0,1,.647-2.567,4.161,4.161,0,0,1,1.67-1.679,12,12,0,0,1,3.47-.871A11.519,11.519,0,0,1,270.949,24a12.029,12.029,0,0,1,4.635.928A4.737,4.737,0,0,1,277.9,29.173Z" transform="translate(-224.06 -7.166)" fill="#7a432a"/>
    <path id="Trazado_126355" data-name="Trazado 126355" d="M313.437,163.3H312v-1.544h1.437a5.75,5.75,0,0,0,2.807-.667l.778,1.334A7.222,7.222,0,0,1,313.437,163.3Z" transform="translate(-267.428 -131.023)" fill="#f7a468"/>
    <path id="Trazado_126356" data-name="Trazado 126356" d="M213.344,293.331v14.747H184V293.331a3.861,3.861,0,0,1,2.925-3.745l3.253-.814,2.317-.772,6.178,16.217L204.85,288l2.317.772,3.253.814A3.861,3.861,0,0,1,213.344,293.331Z" transform="translate(-151.783 -245.683)" fill="#3d4d63"/>
    <path id="Trazado_126357" data-name="Trazado 126357" d="M292.751,345.82v14.5H271.89C278.965,358.265,287.537,354.128,292.751,345.82Z" transform="translate(-231.19 -297.922)" fill="#374559"/>
    <g id="Grupo_86856" data-name="Grupo 86856" transform="translate(36.85 55.445)">
      <path id="Trazado_126358" data-name="Trazado 126358" d="M328,456h1.544v3.861H328Z" transform="translate(-318.733 -452.911)" fill="#22303d"/>
      <path id="Trazado_126359" data-name="Trazado 126359" d="M296,464h1.544v1.544H296Z" transform="translate(-289.822 -460.139)" fill="#22303d"/>
      <path id="Trazado_126360" data-name="Trazado 126360" d="M232,424h1.544v6.95H232Z" transform="translate(-232 -424)" fill="#22303d"/>
      <path id="Trazado_126361" data-name="Trazado 126361" d="M424,424h1.544v6.95H424Z" transform="translate(-405.467 -424)" fill="#22303d"/>
    </g>
    <path id="Trazado_126362" data-name="Trazado 126362" d="M240.772,288.772,240,296.494h3.089l-.772,3.089,6.95,4.633L243.089,288Z" transform="translate(-202.378 -245.683)" fill="#4c5d72"/>
    <path id="Trazado_126363" data-name="Trazado 126363" d="M344.494,288.772l.772,7.722h-3.089l.772,3.089L336,304.217,342.178,288Z" transform="translate(-289.111 -245.683)" fill="#4c5d72"/>
    <path id="Trazado_126364" data-name="Trazado 126364" d="M332.063,29.173v3.089a18.759,18.759,0,0,1-2.807-4.633h0a11.593,11.593,0,0,1-1.315.4,8.535,8.535,0,0,0-3.99-3.976A11.52,11.52,0,0,1,325.113,24a12.029,12.029,0,0,1,4.635.928A4.737,4.737,0,0,1,332.063,29.173Z" transform="translate(-278.224 -7.166)" fill="#743b20"/>
    <path id="Trazado_126365" data-name="Trazado 126365" d="M58.824,43.153l-5.34-1.511L51.522,39.68v-2.77a7.713,7.713,0,0,0,3.089-6.177V30.5a3.089,3.089,0,1,0,0-6.178V22.006a5.521,5.521,0,0,0-2.73-4.929q-.03-.016-.062-.029a12.89,12.89,0,0,0-9.861,0q-.031.013-.062.029a5.521,5.521,0,0,0-2.73,4.929v2.317a3.089,3.089,0,1,0,0,6.178v.233a7.709,7.709,0,0,0,1.642,4.761,3.451,3.451,0,0,1-2.523-.3,5.013,5.013,0,0,0-4.445-.156l-.122.056a3.027,3.027,0,0,0,.043-.5,3.089,3.089,0,1,0-6.178,0,3.027,3.027,0,0,0,.043.5L27.5,35.04a5,5,0,0,0-4.446.157,3.486,3.486,0,0,1-2.651.262l-.323-.1-.446,1.479.321.1a5,5,0,0,0,1.237.211L16.082,47.377h0a.768.768,0,0,0-.082.345,3.865,3.865,0,0,0,3.861,3.861h4.633a3.865,3.865,0,0,0,3.861-3.861.768.768,0,0,0-.082-.345h0l-5.245-10.49a4.848,4.848,0,0,0,.77-.336,3.492,3.492,0,0,1,3.065-.106l1.492.679V54.75a3.863,3.863,0,0,0-3.024,3.077,3.86,3.86,0,0,0-3.154,3.8.772.772,0,0,0,.772.772H32.989V47.648a3.084,3.084,0,0,1,2.34-3l2.188-.547-.663,6.63a.772.772,0,0,0,.768.849h2.1l-.532,2.129a.772.772,0,0,0,.321.83l6.606,4.4v3.448h1.544V58.947l6.606-4.4a.772.772,0,0,0,.321-.83l-.532-2.129h2.1a.772.772,0,0,0,.768-.849l-.663-6.63,2.188.547a3.084,3.084,0,0,1,2.34,3V62.395h1.544V47.648a4.627,4.627,0,0,0-3.51-4.495ZM24.494,50.039H19.861a2.321,2.321,0,0,1-2.184-1.544h9A2.321,2.321,0,0,1,24.494,50.039ZM18.022,46.95l4.156-8.312,4.156,8.312Zm19.167-4.356,1.978-3.956,1.377,2.754-.25.25Zm8.928,3.354.772-.9.772.9v8.388l-.772,2.027-.772-2.027Zm-1.544,4.334L43.9,48.53l.668-.779Zm4.633,0V47.751l.668.779Zm-5.927-3.4-1.668-4.378,1.417-1.417L45.837,43.9Zm7.221,0L47.941,43.9l2.809-2.809,1.417,1.417Zm-.522-7.206-3.089,3.089L43.8,39.68V37.812a7.733,7.733,0,0,0,6.178,0Zm-7.722-2.77v2.77l-.561.561-1.546-3.093a5,5,0,0,0,1.234-.211l.663-.189q.1.083.209.162Zm13.9-9.5a1.546,1.546,0,0,1-1.544,1.544V25.867A1.546,1.546,0,0,1,56.155,27.412ZM40.711,22.006a3.98,3.98,0,0,1,1.874-3.546,11.338,11.338,0,0,1,8.607,0,3.981,3.981,0,0,1,1.874,3.546v.7a18.838,18.838,0,0,1-1.325-2.55.772.772,0,0,0-.98-.42,11.087,11.087,0,0,1-7.745,0,.772.772,0,0,0-.98.42,18.829,18.829,0,0,1-1.325,2.55Zm-3.089,5.406a1.546,1.546,0,0,1,1.544-1.544v3.089A1.546,1.546,0,0,1,37.622,27.412Zm3.089-2.044a19.361,19.361,0,0,0,2.452-3.948,12.632,12.632,0,0,0,7.451,0,19.359,19.359,0,0,0,2.452,3.948v5.366a6.178,6.178,0,1,1-12.356,0ZM30.672,33.05a1.546,1.546,0,0,1,1.544,1.544,1.523,1.523,0,0,1-.517,1.142.772.772,0,0,0-.255.574V54.673H29.9V36.31a.772.772,0,0,0-.255-.574,1.523,1.523,0,0,1-.517-1.142A1.546,1.546,0,0,1,30.672,33.05ZM27.489,56.9a2.3,2.3,0,0,1,1.638-.678h2.317v1.544h-4.5A2.308,2.308,0,0,1,27.489,56.9ZM23.853,60.85a2.32,2.32,0,0,1,2.186-1.544h5.406V60.85Zm9.136-16.657V37.125l1.492-.679a3.465,3.465,0,0,1,1.426-.306,3.425,3.425,0,0,1,1.638.412,4.855,4.855,0,0,0,.77.336l-3.1,6.2-.261.065a4.626,4.626,0,0,0-1.965,1.04ZM40.82,53.56,41.46,51a.772.772,0,0,0-.749-.959H38.475l.637-6.376,1.14-.38,5.054,13.267Zm12.247-3.52a.772.772,0,0,0-.749.959l.64,2.561L48.47,56.551l5.054-13.267,1.14.38.637,6.376Z" transform="translate(0)"/>
    <path id="Trazado_126366" data-name="Trazado 126366" d="M289.158,114.317A1.158,1.158,0,1,0,288,113.158,1.158,1.158,0,0,0,289.158,114.317Z" transform="translate(-245.744 -86.672)"/>
    <path id="Trazado_126367" data-name="Trazado 126367" d="M361.158,114.317A1.158,1.158,0,1,0,360,113.158,1.158,1.158,0,0,0,361.158,114.317Z" transform="translate(-310.795 -86.672)"/>
    <path id="Trazado_126368" data-name="Trazado 126368" d="M312,163.3h1.437a7.223,7.223,0,0,0,3.585-.877l-.778-1.334a5.75,5.75,0,0,1-2.807.667H312Z" transform="translate(-267.428 -131.023)"/>
    <path id="Trazado_126369" data-name="Trazado 126369" d="M296,464h1.544v1.544H296Z" transform="translate(-252.972 -404.694)"/>
    <path id="Trazado_126370" data-name="Trazado 126370" d="M232,424h1.544v6.95H232Z" transform="translate(-195.15 -368.555)"/>
    <path id="Trazado_126371" data-name="Trazado 126371" d="M424,424h1.544v6.95H424Z" transform="translate(-368.617 -368.555)"/>
  </g>
</svg>
