<svg xmlns="http://www.w3.org/2000/svg" width="49.674" height="49.651" viewBox="0 0 49.674 49.651">
  <g id="mascaras-de-teatro" transform="translate(0 -0.115)">
    <g id="Grupo_86892" data-name="Grupo 86892" transform="translate(0.727 0.681)">
      <g id="Grupo_86885" data-name="Grupo 86885">
        <path id="Trazado_126492" data-name="Trazado 126492" d="M212.27,37.868a19.417,19.417,0,0,1-7.9-14.7L203.757,10.7a4.518,4.518,0,0,1,6.282-4.379l4.91,2.09a8.675,8.675,0,0,0,6.8,0l4.91-2.09a4.518,4.518,0,0,1,6.282,4.379l-.613,12.473a19.417,19.417,0,0,1-7.9,14.7A10.266,10.266,0,0,1,212.27,37.868Z" transform="translate(-184.723 -5.952)" fill="#f37c7c"/>
        <g id="Grupo_86884" data-name="Grupo 86884">
          <path id="Trazado_126493" data-name="Trazado 126493" d="M217.362,37.588q-.615-.451-1.188-.946a2.31,2.31,0,0,1-.8-1.862l.469-9.538a6.385,6.385,0,0,0-1.762-4.761,6.5,6.5,0,0,0-4.683-2.019h0a.16.16,0,0,1-.162-.151l-.388-7.894a4.476,4.476,0,0,1,1.807-3.838l-.617-.263a4.518,4.518,0,0,0-6.282,4.379l.613,12.473a19.417,19.417,0,0,0,7.9,14.7,10.266,10.266,0,0,0,9.165,1.516,10.242,10.242,0,0,1-4.073-1.794Z" transform="translate(-184.723 -5.951)" fill="#ee6161"/>
          <path id="Trazado_126494" data-name="Trazado 126494" d="M296.6,223.61a.326.326,0,0,0,.415-.486l-2.127-2.7a5.96,5.96,0,0,0-9.362,0l-2.127,2.7a.326.326,0,0,0,.415.486A13.083,13.083,0,0,1,296.6,223.61Z" transform="translate(-256.582 -197.58)" fill="#f3f0f3"/>
          <path id="Trazado_126495" data-name="Trazado 126495" d="M287.612,224.251a5.926,5.926,0,0,0-2.088,1.68l-2.127,2.7a.326.326,0,0,0,.415.486,13.074,13.074,0,0,1,3.628-1.372Z" transform="translate(-256.582 -203.085)" fill="#e2dee2"/>
          <path id="Trazado_126496" data-name="Trazado 126496" d="M16.017,186.908a19.417,19.417,0,0,1-7.9-14.7L7.5,159.737a4.518,4.518,0,0,1,6.282-4.379l4.91,2.09a8.675,8.675,0,0,0,6.8,0l4.91-2.09a4.518,4.518,0,0,1,6.282,4.379l-.613,12.473a19.417,19.417,0,0,1-7.9,14.7A10.266,10.266,0,0,1,16.017,186.908Z" transform="translate(-7.498 -140.541)" fill="#99e6fc"/>
          <path id="Trazado_126497" data-name="Trazado 126497" d="M31.514,184.712a10.266,10.266,0,0,1-12.154,0,19.417,19.417,0,0,1-7.9-14.7l-.613-12.473a4.575,4.575,0,0,1,.1-1.214A4.518,4.518,0,0,0,7.5,160.943l.613,12.473a19.417,19.417,0,0,0,7.9,14.7,10.266,10.266,0,0,0,12.154,0,19.416,19.416,0,0,0,3.925-3.848C31.905,184.417,31.711,184.567,31.514,184.712Z" transform="translate(-7.498 -141.747)" fill="#62dbfb"/>
          <path id="Trazado_126498" data-name="Trazado 126498" d="M100.344,389.62a.326.326,0,0,1,.415.486l-2.127,2.7a5.96,5.96,0,0,1-9.362,0l-2.127-2.7a.326.326,0,0,1,.415-.486A13.083,13.083,0,0,0,100.344,389.62Z" transform="translate(-79.356 -352.381)" fill="#f3f0f3"/>
        </g>
      </g>
      <g id="Grupo_86886" data-name="Grupo 86886" transform="translate(3.311 19.499)">
        <path id="Trazado_126499" data-name="Trazado 126499" d="M49.14,209.382a.725.725,0,0,1-.3-.067,6.294,6.294,0,0,0-6.1-.031.727.727,0,0,1-.727-1.26,7.745,7.745,0,0,1,7.435-.031.727.727,0,0,1-.3,1.388Z" transform="translate(-41.645 -207.062)" fill="#f3f0f3"/>
      </g>
      <path id="Trazado_126500" data-name="Trazado 126500" d="M59.017,251.363a7.221,7.221,0,0,0-4.312-.027.591.591,0,0,1-.763-.567v-.963a2.933,2.933,0,0,1,2.89-2.946h.058a2.933,2.933,0,0,1,2.89,2.946v.991A.593.593,0,0,1,59.017,251.363Z" transform="translate(-49.439 -223.501)" fill="#f3f0f3"/>
      <g id="Grupo_86887" data-name="Grupo 86887" transform="translate(17.39 19.499)">
        <path id="Trazado_126501" data-name="Trazado 126501" d="M187.589,209.384a.727.727,0,0,1-.3-1.388,7.745,7.745,0,0,1,7.435.031.727.727,0,0,1-.727,1.26,6.294,6.294,0,0,0-6.1.031A.727.727,0,0,1,187.589,209.384Z" transform="translate(-186.861 -207.063)" fill="#f3f0f3"/>
      </g>
      <path id="Trazado_126502" data-name="Trazado 126502" d="M199.919,251.363a7.221,7.221,0,0,1,4.312-.027.591.591,0,0,0,.763-.567v-.963a2.933,2.933,0,0,0-2.89-2.946h-.058a2.933,2.933,0,0,0-2.89,2.946v.991A.593.593,0,0,0,199.919,251.363Z" transform="translate(-180.573 -223.501)" fill="#f3f0f3"/>
      <g id="Grupo_86888" data-name="Grupo 86888" transform="translate(22.473 4.453)">
        <path id="Trazado_126503" data-name="Trazado 126503" d="M246.773,54.2a.725.725,0,0,1-.3-.067,6.294,6.294,0,0,0-6.1-.031.727.727,0,0,1-.727-1.26,7.745,7.745,0,0,1,7.435-.031.727.727,0,0,1-.3,1.388Z" transform="translate(-239.278 -51.879)" fill="#f3f0f3"/>
      </g>
      <path id="Trazado_126504" data-name="Trazado 126504" d="M240.369,57.534a6.059,6.059,0,0,1,.655-.327l-.075-1.527a7.321,7.321,0,0,0-1.307.595.727.727,0,1,0,.727,1.26Z" transform="translate(-216.805 -50.858)" fill="#e2dee2"/>
      <path id="Trazado_126505" data-name="Trazado 126505" d="M252.336,90.7a7.221,7.221,0,0,0,4.312.027.591.591,0,0,1,.763.567v.963a2.933,2.933,0,0,1-2.89,2.946h-.058a2.933,2.933,0,0,1-2.89-2.946v-.991A.593.593,0,0,1,252.336,90.7Z" transform="translate(-227.908 -82.46)" fill="#f3f0f3"/>
      <g id="Grupo_86890" data-name="Grupo 86890" transform="translate(23.665 8.216)">
        <g id="Grupo_86889" data-name="Grupo 86889">
          <path id="Trazado_126506" data-name="Trazado 126506" d="M252.219,90.687a.592.592,0,0,0-.646.588v.991a2.961,2.961,0,0,0,.824,2.051Z" transform="translate(-251.573 -90.684)" fill="#e2dee2"/>
        </g>
      </g>
      <g id="Grupo_86891" data-name="Grupo 86891" transform="translate(36.552 4.453)">
        <path id="Trazado_126507" data-name="Trazado 126507" d="M385.221,54.2a.727.727,0,0,1-.3-1.388,7.745,7.745,0,0,1,7.435.031.727.727,0,0,1-.727,1.26,6.294,6.294,0,0,0-6.1.031A.727.727,0,0,1,385.221,54.2Z" transform="translate(-384.493 -51.88)" fill="#f3f0f3"/>
      </g>
      <path id="Trazado_126508" data-name="Trazado 126508" d="M401.865,90.7a7.221,7.221,0,0,1-4.312.027.591.591,0,0,0-.763.567v.963a2.933,2.933,0,0,0,2.89,2.946h.058a2.933,2.933,0,0,0,2.89-2.946v-.991A.593.593,0,0,0,401.865,90.7Z" transform="translate(-359.045 -82.46)" fill="#f3f0f3"/>
    </g>
    <g id="Grupo_86893" data-name="Grupo 86893" transform="translate(0 0.115)">
      <path id="Trazado_126509" data-name="Trazado 126509" d="M26.381,180.22a.727.727,0,0,0-1.01.193,18.64,18.64,0,0,1-4.4,4.571,9.5,9.5,0,0,1-11.293,0,18.616,18.616,0,0,1-7.6-14.149l-.613-11.89a3.791,3.791,0,0,1,5.271-3.674l.392.167a.727.727,0,1,0,.57-1.338l-.392-.167a5.245,5.245,0,0,0-7.293,5.085l.613,11.89a20.064,20.064,0,0,0,8.2,15.248,10.993,10.993,0,0,0,13.014,0,20.092,20.092,0,0,0,4.744-4.926A.727.727,0,0,0,26.381,180.22Z" transform="translate(0 -138.638)"/>
      <path id="Trazado_126510" data-name="Trazado 126510" d="M117.555,154.454a5.216,5.216,0,0,0-5.054-.523l-4.91,2.09a7.987,7.987,0,0,1-6.226,0l-1.625-.692a.727.727,0,1,0-.57,1.338l1.625.692a9.449,9.449,0,0,0,7.365,0l4.91-2.09a3.791,3.791,0,0,1,5.271,3.672l-.613,11.893a18.6,18.6,0,0,1-1.695,6.905.727.727,0,1,0,1.321.609,20.055,20.055,0,0,0,1.826-7.441l.613-11.893a5.216,5.216,0,0,0-2.24-4.56Z" transform="translate(-89.156 -138.636)"/>
      <path id="Trazado_126511" data-name="Trazado 126511" d="M81.138,382.212a1.053,1.053,0,0,0-1.341,1.57l2.127,2.7a6.687,6.687,0,0,0,10.5,0l2.127-2.7a1.053,1.053,0,0,0-1.341-1.57,12.356,12.356,0,0,1-12.075,0Zm10.147,3.369a5.233,5.233,0,0,1-8.22,0l-1.059-1.344a13.8,13.8,0,0,0,10.338,0Z" transform="translate(-71.853 -345.041)"/>
      <path id="Trazado_126512" data-name="Trazado 126512" d="M224.651,1.061A5.217,5.217,0,0,0,219.6.538l-4.91,2.09a7.987,7.987,0,0,1-6.226,0l-4.91-2.09a5.246,5.246,0,0,0-7.294,5.084l.4,8.226a.727.727,0,1,0,1.453-.071l-.4-8.226a3.791,3.791,0,0,1,5.271-3.674l4.91,2.09a9.449,9.449,0,0,0,7.365,0l4.91-2.09a3.791,3.791,0,0,1,5.271,3.674l-.613,12.473a18.7,18.7,0,0,1-.8,4.558.727.727,0,1,0,1.391.426,20.157,20.157,0,0,0,.86-4.913l.613-12.473a5.216,5.216,0,0,0-2.24-4.561Z" transform="translate(-177.223 -0.115)"/>
      <path id="Trazado_126513" data-name="Trazado 126513" d="M338.036,257.553a.727.727,0,0,0-.976.325,18.775,18.775,0,0,1-5.651,6.7,9.531,9.531,0,0,1-7.817,1.6.727.727,0,1,0-.33,1.416,10.986,10.986,0,0,0,9.008-1.844,20.235,20.235,0,0,0,6.091-7.222A.727.727,0,0,0,338.036,257.553Z" transform="translate(-291.412 -232.523)"/>
      <path id="Trazado_126514" data-name="Trazado 126514" d="M328.889,216.746a.727.727,0,0,0,.2,1.441,12.429,12.429,0,0,1,7.734,1.457,1.058,1.058,0,0,0,.518.137,1.056,1.056,0,0,0,.823-1.707l-2.127-2.7a6.679,6.679,0,0,0-7.063-2.3.727.727,0,1,0,.391,1.4,5.228,5.228,0,0,1,5.529,1.8l1.061,1.346a13.91,13.91,0,0,0-7.067-.874Z" transform="translate(-296.435 -192.201)"/>
      <path id="Trazado_126515" data-name="Trazado 126515" d="M49.443,208a7.745,7.745,0,0,0-7.435.031.727.727,0,0,0,.727,1.26,6.294,6.294,0,0,1,6.1.031A.727.727,0,0,0,49.443,208Z" transform="translate(-37.606 -186.998)"/>
      <path id="Trazado_126516" data-name="Trazado 126516" d="M52.037,245.286a1.339,1.339,0,0,0,.38.056,1.321,1.321,0,0,0,1.317-1.319v-.991a3.664,3.664,0,0,0-3.614-3.673h-.066a3.663,3.663,0,0,0-3.613,3.673v.963a1.327,1.327,0,0,0,.54,1.066,1.3,1.3,0,0,0,1.168.2A6.484,6.484,0,0,1,52.037,245.286ZM47.9,243.814v-.782a2.205,2.205,0,0,1,2.166-2.219h.05a2.206,2.206,0,0,1,2.167,2.219v.811a8.582,8.582,0,0,0-2.291-.322A7.565,7.565,0,0,0,47.9,243.814Z" transform="translate(-41.938 -216.162)"/>
      <path id="Trazado_126517" data-name="Trazado 126517" d="M194.985,209.02a.727.727,0,0,0-.266-.993,7.745,7.745,0,0,0-7.435-.031.727.727,0,1,0,.607,1.322,6.294,6.294,0,0,1,6.1-.031A.727.727,0,0,0,194.985,209.02Z" transform="translate(-168.742 -186.998)"/>
      <path id="Trazado_126518" data-name="Trazado 126518" d="M195.335,239.359h-.066a3.663,3.663,0,0,0-3.613,3.673v.991a1.321,1.321,0,0,0,1.317,1.319,1.338,1.338,0,0,0,.38-.056,6.481,6.481,0,0,1,3.888-.031,1.3,1.3,0,0,0,1.168-.2,1.327,1.327,0,0,0,.54-1.066v-.963A3.663,3.663,0,0,0,195.335,239.359Zm2.159,4.455a7.983,7.983,0,0,0-4.384.029v-.811a2.205,2.205,0,0,1,2.166-2.219h.051a2.206,2.206,0,0,1,2.167,2.219v.782Z" transform="translate(-173.074 -216.163)"/>
      <path id="Trazado_126519" data-name="Trazado 126519" d="M247.076,52.812a7.745,7.745,0,0,0-7.435.031.727.727,0,0,0,.727,1.26,6.294,6.294,0,0,1,6.1.031.727.727,0,0,0,.607-1.322Z" transform="translate(-216.077 -46.861)"/>
      <path id="Trazado_126520" data-name="Trazado 126520" d="M250.826,83.45a1.3,1.3,0,0,0-1.168-.2,6.482,6.482,0,0,1-3.888-.031,1.32,1.32,0,0,0-1.7,1.264v.991a3.663,3.663,0,0,0,3.612,3.673h.068a3.663,3.663,0,0,0,3.613-3.673v-.963A1.327,1.327,0,0,0,250.826,83.45Zm-.915,2.029a2.206,2.206,0,0,1-2.168,2.219h-.049a2.205,2.205,0,0,1-2.167-2.219v-.811a7.985,7.985,0,0,0,4.384.029Z" transform="translate(-220.408 -75.116)"/>
      <path id="Trazado_126521" data-name="Trazado 126521" d="M392.617,53.836a.727.727,0,0,0-.266-.993,7.745,7.745,0,0,0-7.435-.031.727.727,0,1,0,.607,1.322,6.294,6.294,0,0,1,6.1-.031A.727.727,0,0,0,392.617,53.836Z" transform="translate(-347.213 -46.861)"/>
      <path id="Trazado_126522" data-name="Trazado 126522" d="M396.053,83.432a1.312,1.312,0,0,0-1.168-.208,6.483,6.483,0,0,1-3.888.031,1.3,1.3,0,0,0-1.168.2,1.327,1.327,0,0,0-.54,1.066v.963a3.663,3.663,0,0,0,3.612,3.673h.068a3.663,3.663,0,0,0,3.613-3.673v-.991A1.306,1.306,0,0,0,396.053,83.432Zm-.925,2.046a2.206,2.206,0,0,1-2.168,2.219h-.049a2.205,2.205,0,0,1-2.167-2.219V84.7a7.984,7.984,0,0,0,4.384-.029Z" transform="translate(-351.545 -75.116)"/>
    </g>
  </g>
</svg>
