<svg xmlns="http://www.w3.org/2000/svg" width="50" height="46.875" viewBox="0 0 50 46.875">
  <g id="educacion-en-linea" transform="translate(0 0.001)">
    <path id="Trazado_126404" data-name="Trazado 126404" d="M288,399.8h17.188a1.562,1.562,0,0,0,1.563-1.562v-4.687a1.562,1.562,0,0,0-1.562-1.562H288Zm0,0" transform="translate(-259.875 -353.712)" fill="#33c0db"/>
    <path id="Trazado_126405" data-name="Trazado 126405" d="M43.938,118.457a17.969,17.969,0,1,0-35.938,0c0,.058.007.113.008.171S8,118.741,8,118.8a17.969,17.969,0,0,0,35.938,0c0-.058-.008-.113-.008-.171S43.938,118.515,43.938,118.457Zm0,0" transform="translate(-7.219 -90.676)" fill="#33c0db"/>
    <path id="Trazado_126406" data-name="Trazado 126406" d="M119.12,308.68v3.906a.782.782,0,0,1-.781.781h-1.144a.782.782,0,0,1-.65-.348l-1.1-1.648a.781.781,0,0,0-.65-.349h-1.362a.782.782,0,0,0-.742.534l-2.325,6.976a17.961,17.961,0,0,0,20.472-3.2v-5.871a.782.782,0,0,0-.781-.781h-2.707a.782.782,0,0,1-.65-.348l-2.661-3.991a.781.781,0,0,0-.65-.349H119.9a.782.782,0,0,0-.781.781v2.344" transform="translate(-99.589 -274.306)" fill="#fcb641"/>
    <path id="Trazado_126407" data-name="Trazado 126407" d="M162.8,100.921l2.01-.206A17.93,17.93,0,0,0,162.8,100.921Zm0,0" transform="translate(-146.903 -90.88)" fill="#33c0db"/>
    <path id="Trazado_126408" data-name="Trazado 126408" d="M94.126,102.938a17.575,17.575,0,0,0-6.2,2.81,17.862,17.862,0,0,1,7.312-2.924Zm0,0" transform="translate(-79.343 -92.783)" fill="#33c0db"/>
    <path id="Trazado_126409" data-name="Trazado 126409" d="M72.265,112.384a.78.78,0,0,0,.7.432h1.861a.782.782,0,0,1,.781.781V117.5a.782.782,0,0,0,.781.781h4.954a.779.779,0,0,0,.718-.473L84,113.29a.781.781,0,0,1,.718-.474h3.391a.782.782,0,0,0,.781-.781v-5.84a18.476,18.476,0,0,0-6.25-1.081c-.282,0-.563.008-.842.02l-2.01.2a17.222,17.222,0,0,0-8.984,4.125Zm0,0" transform="translate(-63.887 -94.849)" fill="#fcb641"/>
    <path id="Trazado_126410" data-name="Trazado 126410" d="M37.5,118.99a18.709,18.709,0,0,0-4.848-12.581l-1.158,1.049a17.17,17.17,0,0,1,.537,22.429v-3.866a1.564,1.564,0,0,0-1.563-1.562H27.762L25.1,120.467a1.559,1.559,0,0,0-1.3-.7H20.312a1.564,1.564,0,0,0-1.562,1.562v2.344h1.563v-2.344H23.8l2.661,3.992a1.56,1.56,0,0,0,1.3.7h2.707v5.526l-.1.1c-.313.288-.637.561-.969.822-.1.079-.2.159-.3.236-.323.245-.655.475-.994.7-.119.078-.239.156-.361.232-.336.207-.679.4-1.027.584-.13.068-.259.135-.391.2q-.536.264-1.088.49c-.126.051-.252.1-.379.149-.387.148-.779.283-1.177.4-.108.033-.217.063-.326.093-.423.118-.851.222-1.284.307-.083.016-.166.029-.249.044-.463.084-.928.153-1.4.2-.05,0-.1.007-.15.012-.5.043-1.012.07-1.524.07-.3,0-.595-.008-.89-.023-.235-.012-.468-.032-.7-.053-.056-.006-.113-.008-.169-.013-.269-.027-.535-.063-.8-.1l-.057-.008c-.262-.04-.521-.087-.778-.139l-.072-.013c-.242-.05-.481-.107-.72-.166l-.125-.031c-.215-.056-.427-.118-.639-.182l-.206-.061c-.187-.06-.373-.124-.558-.189-.093-.033-.186-.065-.278-.1-.165-.062-.328-.127-.491-.194-.11-.045-.22-.09-.329-.137-.066-.029-.131-.06-.2-.089l2.1-6.313h1.362l1.1,1.648a1.56,1.56,0,0,0,1.3.7H18.75a1.564,1.564,0,0,0,1.563-1.562V125.24H18.75v3.906H17.605l-1.1-1.648a1.559,1.559,0,0,0-1.3-.7H13.845a1.559,1.559,0,0,0-1.481,1.068l-2.032,6.1A17.124,17.124,0,0,1,6.7,106.791l.98,1.96a1.552,1.552,0,0,0,1.4.864h1.861v3.906a1.564,1.564,0,0,0,1.563,1.562h4.954a1.56,1.56,0,0,0,1.436-.947l1.937-4.522h3.391a1.564,1.564,0,0,0,1.563-1.563V106.49H24.219v1.562H20.827a1.56,1.56,0,0,0-1.436.947l-1.937,4.522H12.5v-3.906a1.564,1.564,0,0,0-1.563-1.563H9.077L7.9,105.7a17.2,17.2,0,0,1,2.833-1.907c.069-.036.137-.073.206-.108.389-.2.784-.389,1.191-.56.041-.017.084-.031.124-.048.352-.145.711-.275,1.074-.4.13-.044.262-.086.394-.126.376-.116.756-.222,1.143-.311.03-.007.06-.016.089-.023l-.114-.5-.23-1.021c-.025.005-.049.014-.074.02-.435.1-.866.22-1.293.352-.152.047-.3.1-.452.148-.332.111-.661.233-.987.364-.119.048-.239.092-.356.142q-.669.283-1.315.619l-.058.031c-.446.233-.881.488-1.308.758l-.022.014A18.837,18.837,0,0,0,6.4,104.889a.72.72,0,0,0-.089.109A18.71,18.71,0,0,0,10.4,135.772c.011.006.018.016.029.022.044.022.088.04.132.061.157.076.316.147.476.219.266.121.533.233.8.341.161.064.32.13.483.19.188.069.377.13.566.192.121.04.241.082.364.119.2.06.393.114.59.168.119.032.238.065.359.1.2.049.4.1.6.138q.19.041.381.077c.193.038.386.073.582.1.145.023.291.043.437.063.18.024.359.049.539.069s.373.034.561.048c.145.011.288.026.433.033.338.019.677.029,1.02.029.584,0,1.161-.03,1.732-.083l.126-.009c.54-.053,1.072-.134,1.6-.232.077-.014.155-.026.231-.042.495-.1.981-.221,1.46-.358.109-.031.218-.06.326-.093.45-.137.892-.294,1.328-.465.132-.051.265-.1.4-.156.414-.172.819-.362,1.217-.563.142-.071.282-.142.422-.217.389-.209.769-.433,1.141-.668.134-.084.266-.168.4-.255.377-.251.742-.517,1.1-.794.114-.089.228-.176.34-.267.364-.3.716-.608,1.056-.93.057-.054.119-.1.176-.155.011-.011.015-.026.026-.038A18.69,18.69,0,0,0,37.5,118.99Zm0,0" transform="translate(0 -90.867)"/>
    <path id="Trazado_126411" data-name="Trazado 126411" d="M56.2,274.719l-.852-.851a.782.782,0,0,0-.742-.206l-2.162.541a.782.782,0,0,1-.84-.324l-1.025-1.537a.778.778,0,0,0-.649-.349H48.781a.782.782,0,0,0-.781.781v2.021a.78.78,0,0,0,.229.552l2.667,2.667a.78.78,0,0,0,.552.229h3.1a.78.78,0,0,0,.7-.432l1.094-2.19a.779.779,0,0,0-.146-.9Zm0,0" transform="translate(-43.313 -245.431)" fill="#fcb641"/>
    <path id="Trazado_126412" data-name="Trazado 126412" d="M47.33,271.8h-3.1a1.571,1.571,0,0,1-1.1-.458l-2.667-2.667a1.552,1.552,0,0,1-.458-1.1v-2.021a1.564,1.564,0,0,1,1.563-1.562h1.144a1.559,1.559,0,0,1,1.3.7l1.025,1.538,2.163-.541a1.568,1.568,0,0,1,1.484.412l.851.851a1.561,1.561,0,0,1,.293,1.8l-1.094,2.19a1.552,1.552,0,0,1-1.4.863Zm-5.767-6.25v2.021l2.667,2.667h3.1l1.095-2.19-.852-.851-2.163.541a1.566,1.566,0,0,1-1.678-.649l-1.025-1.538Zm0,0" transform="translate(-36.094 -238.212)"/>
    <path id="Trazado_126413" data-name="Trazado 126413" d="M264.189,226.828l-1.2-2.4a.782.782,0,0,0-.7-.432h-1.624a.779.779,0,0,0-.434.132l-1.574,1.048a.781.781,0,0,0-.266,1l1.152,2.3a.783.783,0,0,0,.3.32l3.526,2.116a.78.78,0,0,0,.4.111H265.9a.782.782,0,0,0,.781-.781v-1.78a.781.781,0,0,0-.534-.741l-1.5-.5a.78.78,0,0,1-.452-.391Zm0,0" transform="translate(-233.083 -202.119)" fill="#fcb641"/>
    <path id="Trazado_126414" data-name="Trazado 126414" d="M258.676,224.586h-2.127a1.565,1.565,0,0,1-.8-.222l-3.526-2.116a1.565,1.565,0,0,1-.594-.641l-1.153-2.3a1.565,1.565,0,0,1,.531-2l1.573-1.048a1.555,1.555,0,0,1,.866-.263h1.624a1.552,1.552,0,0,1,1.4.864l1.2,2.4,0,0,1.5.5a1.562,1.562,0,0,1,1.069,1.483v1.78a1.564,1.564,0,0,1-1.562,1.563Zm-3.608-7.031h-1.624L251.87,218.6l1.153,2.3,3.525,2.116h2.127v-1.78l-1.5-.5a1.555,1.555,0,0,1-.9-.782h0Zm0,0" transform="translate(-225.863 -194.9)"/>
    <path id="Trazado_126415" data-name="Trazado 126415" d="M224,62.44l7.813,2.7,7.813-2.7V57.327l-2.935-.873a17.183,17.183,0,0,0-9.878.023L224,57.327Zm0,0" transform="translate(-202.125 -50.297)" fill="#9c9792"/>
    <path id="Trazado_126416" data-name="Trazado 126416" d="M152.406,7.992,136,14.242l8.594,3.906V14.242l2.874-.863a17.189,17.189,0,0,1,9.877,0l2.874.863v3.906l8.594-3.906Zm0,0" transform="translate(-122.719 -7.213)" fill="#706d69"/>
    <path id="Trazado_126417" data-name="Trazado 126417" d="M456,131.9v-2.344a1.563,1.563,0,0,1,3.125,0V131.9" transform="translate(-411.469 -115.494)" fill="#9bc53d"/>
    <path id="Trazado_126418" data-name="Trazado 126418" d="M452.688,124.679h-1.563v-2.344a.781.781,0,0,0-1.562,0v2.344H448v-2.344a2.344,2.344,0,0,1,4.688,0Zm0,0" transform="translate(-404.25 -108.275)"/>
    <path id="Trazado_126419" data-name="Trazado 126419" d="M464,191.992h1.563v2.344H464Zm0,0" transform="translate(-418.688 -173.244)"/>
    <path id="Trazado_126420" data-name="Trazado 126420" d="M483.086,182.364l1.353-.782,1.172,2.03-1.353.782Zm0,0" transform="translate(-435.91 -163.85)"/>
    <path id="Trazado_126421" data-name="Trazado 126421" d="M435.07,183.616l1.172-2.03,1.353.781-1.172,2.03Zm0,0" transform="translate(-392.583 -163.854)"/>
    <path id="Trazado_126422" data-name="Trazado 126422" d="M162.367,7.03c0-.008,0-.016,0-.024a.78.78,0,0,0-.5-.705L145.462.05a.783.783,0,0,0-.557,0L128.5,6.3a.781.781,0,0,0-.045,1.44l8.137,3.7v.7a.782.782,0,0,0,.526.738l7.813,2.7a.786.786,0,0,0,.255.042.767.767,0,0,0,.255-.043l7.813-2.7a.78.78,0,0,0,.526-.738v-.7l7.031-3.2v2.694h1.563V7.03Zm-10.152,4.557-7.031,2.429-7.031-2.429V7.611l2.317-.7a16.385,16.385,0,0,1,3.521-.65c.05,0,.1,0,.15-.006.088-.005.177-.005.266-.009l0,5.466h1.563l0-5.466.132,0c.073,0,.145,0,.218.008a16.455,16.455,0,0,1,3.52.642l2.377.707Zm1.562-1.864V7.03a.78.78,0,0,0-.04-.248.848.848,0,0,0-.076-.145.734.734,0,0,0-.039-.072.735.735,0,0,0-.113-.11.876.876,0,0,0-.063-.062.761.761,0,0,0-.1-.05.848.848,0,0,0-.122-.06l-2.874-.863a18.024,18.024,0,0,0-3.924-.714l-.036,0c-.4-.026-.8-.043-1.2-.043l-.039,0c-.28,0-.559.017-.838.031-.146.007-.293.006-.439.017a17.968,17.968,0,0,0-3.912.723l-2.782.842-.027.008h0a.763.763,0,0,0-.179.087c-.014.008-.032.013-.045.022a.779.779,0,0,0-.331.637V9.723l-5.784-2.629,14.378-5.478,14.378,5.477Zm0,0" transform="translate(-115.496 0)"/>
    <path id="Trazado_126423" data-name="Trazado 126423" d="M392,247.992h7.813a1.562,1.562,0,0,1,1.563,1.563v4.688a1.562,1.562,0,0,1-1.562,1.562H392Zm0,0" transform="translate(-353.719 -223.775)" fill="#fcb641"/>
    <path id="Trazado_126424" data-name="Trazado 126424" d="M408,391.992h3.125V399.8H408Zm0,0" transform="translate(-368.156 -353.712)" fill="#c7ebf2"/>
    <path id="Trazado_126425" data-name="Trazado 126425" d="M392,327.992h9.375a1.562,1.562,0,0,1,1.563,1.563v3.125a1.562,1.562,0,0,1-1.562,1.563H392Zm0,0" transform="translate(-353.719 -295.962)" fill="#9bc53d"/>
    <path id="Trazado_126426" data-name="Trazado 126426" d="M432,327.992h3.125v6.25H432Zm0,0" transform="translate(-389.813 -295.962)" fill="#c5d998"/>
    <path id="Trazado_126427" data-name="Trazado 126427" d="M408,247.992h3.125V255.8H408Zm0,0" transform="translate(-368.156 -223.775)" fill="#fce0b0"/>
    <path id="Trazado_126428" data-name="Trazado 126428" d="M308.14,247.9a2.33,2.33,0,0,0,.172-.872v-4.688a2.347,2.347,0,0,0-2.344-2.344h-7.813v1.563h.781v6.25h-.781v1.563h3.125v4.688h-5.469v1.563h3.125v6.25H288v1.563h17.188a2.347,2.347,0,0,0,2.344-2.344V256.4a2.315,2.315,0,0,0-.144-.781h.144a2.347,2.347,0,0,0,2.344-2.344v-3.125A2.339,2.339,0,0,0,308.14,247.9Zm-1.39-5.56v4.688a.782.782,0,0,1-.781.781h-2.344v-6.25h2.344A.782.782,0,0,1,306.75,242.336Zm-6.25-.781h1.563v6.25H300.5Zm2.344,7.813h1.563v4.688h-1.563Zm-2.344,12.5v-6.25h1.563v6.25Zm5.469-5.469v4.687a.782.782,0,0,1-.781.781h-1.562v-6.25h1.563A.782.782,0,0,1,305.968,256.4Zm2.344-3.125a.782.782,0,0,1-.781.781h-1.562v-4.688h1.563a.782.782,0,0,1,.781.781Zm0,0" transform="translate(-259.875 -216.556)"/>
  </g>
</svg>
