<svg xmlns="http://www.w3.org/2000/svg" width="1227" height="524" viewBox="0 0 1227 524">
  <g id="Grupo_91070" data-name="Grupo 91070" transform="translate(-180 -1016)">
    <rect id="Rectángulo_7017" data-name="Rectángulo 7017" width="1227" height="524" rx="10" transform="translate(180 1016)" fill="#ffba5b" opacity="0.25"/>
    <path id="Trazado_134853" data-name="Trazado 134853" d="M9.789-9.258H6.375V0H3.633V-9.258H.281v-2.117H9.789ZM8.867-4.3a4.989,4.989,0,0,1,.492-2.254,3.52,3.52,0,0,1,1.414-1.52,4.259,4.259,0,0,1,2.164-.531A3.887,3.887,0,0,1,15.93-7.434a4.512,4.512,0,0,1,1.094,3.2v.094A4.378,4.378,0,0,1,15.926-1,3.9,3.9,0,0,1,12.953.156a3.942,3.942,0,0,1-2.9-1.082,4.232,4.232,0,0,1-1.18-2.934Zm2.633.164a3.145,3.145,0,0,0,.367,1.719,1.223,1.223,0,0,0,1.086.547q1.406,0,1.438-2.164V-4.3q0-2.273-1.453-2.273-1.32,0-1.43,1.961Zm9.1-4.312.086.992A2.867,2.867,0,0,1,23.1-8.609a2.412,2.412,0,0,1,1.973.789,3.757,3.757,0,0,1,.676,2.375V0H23.109V-5.336a1.426,1.426,0,0,0-.258-.941,1.193,1.193,0,0,0-.937-.3,1.256,1.256,0,0,0-1.148.609V0H18.133V-8.453ZM31.3.156A4.345,4.345,0,0,1,28.148-1a4.006,4.006,0,0,1-1.2-3.02v-.219a5.191,5.191,0,0,1,.48-2.289,3.516,3.516,0,0,1,1.4-1.535,4.233,4.233,0,0,1,2.188-.543A3.659,3.659,0,0,1,33.828-7.5a4.344,4.344,0,0,1,1.031,3.082V-3.4H29.625a1.9,1.9,0,0,0,.617,1.117,1.836,1.836,0,0,0,1.234.406A2.366,2.366,0,0,0,33.43-2.75l1.2,1.422A3.363,3.363,0,0,1,33.238-.246,4.713,4.713,0,0,1,31.3.156ZM31-6.578q-1.156,0-1.375,1.531h2.656v-.2a1.3,1.3,0,0,0-.32-.98A1.275,1.275,0,0,0,31-6.578ZM38.7,0H36.055V-12H38.7Zm6.383,0a2.973,2.973,0,0,1-.25-.758A2.448,2.448,0,0,1,42.8.156a3,3,0,0,1-2.031-.723,2.3,2.3,0,0,1-.836-1.816,2.364,2.364,0,0,1,1.016-2.078,5.174,5.174,0,0,1,2.953-.7h.813v-.448q0-1.17-1.008-1.17a.824.824,0,0,0-.937.926H40.133a2.36,2.36,0,0,1,1.043-1.99,4.383,4.383,0,0,1,2.66-.765,3.843,3.843,0,0,1,2.555.789,2.743,2.743,0,0,1,.961,2.164v3.742a3.832,3.832,0,0,0,.359,1.781V0ZM43.43-1.719a1.469,1.469,0,0,0,.816-.211,1.322,1.322,0,0,0,.465-.477V-3.758h-.766q-1.375,0-1.375,1.234a.754.754,0,0,0,.242.582A.876.876,0,0,0,43.43-1.719Zm5.047-2.57a5.164,5.164,0,0,1,.867-3.164,2.854,2.854,0,0,1,2.422-1.156,2.428,2.428,0,0,1,1.906.891V-12h2.641V0H53.945l-.133-.906A2.493,2.493,0,0,1,51.75.156,2.849,2.849,0,0,1,49.359-1,5.327,5.327,0,0,1,48.477-4.289Zm2.633.164q0,2.25,1.313,2.25a1.3,1.3,0,0,0,1.25-.734V-5.828a1.261,1.261,0,0,0-1.234-.75q-1.219,0-1.32,1.969ZM62.57,0a2.973,2.973,0,0,1-.25-.758,2.448,2.448,0,0,1-2.031.914,3,3,0,0,1-2.031-.723,2.3,2.3,0,0,1-.836-1.816,2.364,2.364,0,0,1,1.016-2.078,5.174,5.174,0,0,1,2.953-.7H62.2v-.448q0-1.17-1.008-1.17a.824.824,0,0,0-.937.926H57.625a2.36,2.36,0,0,1,1.043-1.99,4.383,4.383,0,0,1,2.66-.765,3.843,3.843,0,0,1,2.555.789,2.743,2.743,0,0,1,.961,2.164v3.742A3.832,3.832,0,0,0,65.2-.133V0ZM60.922-1.719a1.469,1.469,0,0,0,.816-.211,1.322,1.322,0,0,0,.465-.477V-3.758h-.766q-1.375,0-1.375,1.234a.754.754,0,0,0,.242.582A.876.876,0,0,0,60.922-1.719Zm9.8-.656a.608.608,0,0,0-.352-.539,5.348,5.348,0,0,0-1.336-.422,6.092,6.092,0,0,1-1.625-.574,2.722,2.722,0,0,1-.977-.863A2.061,2.061,0,0,1,66.1-5.937a2.336,2.336,0,0,1,.961-1.918,3.958,3.958,0,0,1,2.516-.754,4.386,4.386,0,0,1,2.688.758,2.37,2.37,0,0,1,1.016,1.992H70.641q0-1.016-1.07-1.016a1.061,1.061,0,0,0-.7.23.714.714,0,0,0-.281.574.655.655,0,0,0,.344.57,3.248,3.248,0,0,0,1.1.359,9.486,9.486,0,0,1,1.324.336,2.406,2.406,0,0,1,1.906,2.352A2.214,2.214,0,0,1,72.238-.57a4.505,4.505,0,0,1-2.66.727,4.6,4.6,0,0,1-1.937-.391A3.24,3.24,0,0,1,66.313-1.3a2.406,2.406,0,0,1-.477-1.414H68.3a1.017,1.017,0,0,0,.391.855,1.607,1.607,0,0,0,.961.27,1.264,1.264,0,0,0,.809-.219A.7.7,0,0,0,70.727-2.375Zm15.6-1.789a5.1,5.1,0,0,1-.887,3.145A2.843,2.843,0,0,1,83.047.156,2.437,2.437,0,0,1,81.133-.7V3.25H78.5v-11.7h2.461l.078.781a2.437,2.437,0,0,1,1.992-.937,2.866,2.866,0,0,1,2.43,1.152,5.16,5.16,0,0,1,.867,3.168ZM83.7-4.328q0-2.25-1.312-2.25a1.239,1.239,0,0,0-1.25.672v3.328a1.279,1.279,0,0,0,1.266.7q1.258,0,1.3-2.172Zm3.461.023a4.989,4.989,0,0,1,.492-2.254,3.52,3.52,0,0,1,1.414-1.52,4.259,4.259,0,0,1,2.164-.531,3.887,3.887,0,0,1,2.992,1.176,4.512,4.512,0,0,1,1.094,3.2v.094A4.378,4.378,0,0,1,94.215-1,3.9,3.9,0,0,1,91.242.156a3.942,3.942,0,0,1-2.9-1.082,4.232,4.232,0,0,1-1.18-2.934Zm2.633.164a3.145,3.145,0,0,0,.367,1.719,1.223,1.223,0,0,0,1.086.547q1.406,0,1.438-2.164V-4.3q0-2.273-1.453-2.273-1.32,0-1.43,1.961Zm11.8-1.93-.867-.062a1.558,1.558,0,0,0-1.594.781V0H96.492V-8.453h2.469l.086,1.086A2.039,2.039,0,0,1,100.9-8.609a2.567,2.567,0,0,1,.734.094Zm9.7,6.07a2.973,2.973,0,0,1-.25-.758A2.448,2.448,0,0,1,109,.156a3,3,0,0,1-2.031-.723,2.3,2.3,0,0,1-.836-1.816,2.364,2.364,0,0,1,1.016-2.078,5.174,5.174,0,0,1,2.953-.7h.813v-.448q0-1.17-1.008-1.17a.824.824,0,0,0-.937.926h-2.633a2.36,2.36,0,0,1,1.043-1.99,4.383,4.383,0,0,1,2.66-.765,3.843,3.843,0,0,1,2.555.789,2.743,2.743,0,0,1,.961,2.164v3.742a3.832,3.832,0,0,0,.359,1.781V0Zm-1.648-1.719a1.469,1.469,0,0,0,.816-.211,1.322,1.322,0,0,0,.465-.477V-3.758h-.766q-1.375,0-1.375,1.234a.754.754,0,0,0,.242.582A.876.876,0,0,0,109.633-1.719Zm7.8-6.734.086.992a2.867,2.867,0,0,1,2.414-1.148,2.412,2.412,0,0,1,1.973.789,3.757,3.757,0,0,1,.676,2.375V0h-2.641V-5.336a1.426,1.426,0,0,0-.258-.941,1.193,1.193,0,0,0-.937-.3,1.256,1.256,0,0,0-1.148.609V0h-2.633V-8.453Zm4.367-3.484a2.278,2.278,0,0,1-.52,1.512,1.612,1.612,0,0,1-1.285.621,2.535,2.535,0,0,1-1.148-.328,2.4,2.4,0,0,0-1.023-.328.587.587,0,0,0-.426.172.714.714,0,0,0-.176.531l-1.461-.078a2.29,2.29,0,0,1,.52-1.5,1.593,1.593,0,0,1,1.277-.633,2.637,2.637,0,0,1,1.023.289,6.285,6.285,0,0,0,.8.328,1.547,1.547,0,0,0,.355.04.6.6,0,0,0,.43-.174.717.717,0,0,0,.18-.537ZM123.7-4.3a4.989,4.989,0,0,1,.492-2.254,3.52,3.52,0,0,1,1.414-1.52,4.259,4.259,0,0,1,2.164-.531,3.887,3.887,0,0,1,2.992,1.176,4.512,4.512,0,0,1,1.094,3.2v.094A4.378,4.378,0,0,1,130.762-1a3.9,3.9,0,0,1-2.973,1.16,3.942,3.942,0,0,1-2.9-1.082,4.232,4.232,0,0,1-1.18-2.934Zm2.633.164a3.145,3.145,0,0,0,.367,1.719,1.223,1.223,0,0,0,1.086.547q1.406,0,1.438-2.164V-4.3q0-2.273-1.453-2.273-1.32,0-1.43,1.961Z" transform="translate(229 1046)" fill="#12263f"/>
    <path id="Trazado_134854" data-name="Trazado 134854" d="M5.576-14.219,8.75-4.326l3.164-9.893h4.512V0H12.988V-3.32l.332-6.8L9.883,0H7.617L4.17-10.127,4.5-3.32V0H1.074V-14.219ZM18.037-5.381A6.236,6.236,0,0,1,18.652-8.2a4.4,4.4,0,0,1,1.768-1.9,5.323,5.323,0,0,1,2.705-.664,4.858,4.858,0,0,1,3.74,1.47,5.64,5.64,0,0,1,1.367,4v.117A5.472,5.472,0,0,1,26.86-1.255,4.871,4.871,0,0,1,23.145.2a4.927,4.927,0,0,1-3.623-1.353,5.29,5.29,0,0,1-1.475-3.667Zm3.291.205a3.932,3.932,0,0,0,.459,2.148,1.529,1.529,0,0,0,1.357.684q1.758,0,1.8-2.705v-.332q0-2.842-1.816-2.842-1.65,0-1.787,2.451Zm7.939-.186a6.455,6.455,0,0,1,1.084-3.955,3.568,3.568,0,0,1,3.027-1.445,3.035,3.035,0,0,1,2.383,1.113V-15h3.3V0H36.1l-.166-1.133A3.116,3.116,0,0,1,33.359.2,3.562,3.562,0,0,1,30.371-1.25,6.659,6.659,0,0,1,29.268-5.361Zm3.291.205q0,2.813,1.641,2.813a1.62,1.62,0,0,0,1.563-.918V-7.285a1.576,1.576,0,0,0-1.543-.937q-1.523,0-1.65,2.461Zm7.959-.225A6.236,6.236,0,0,1,41.133-8.2,4.4,4.4,0,0,1,42.9-10.1a5.323,5.323,0,0,1,2.705-.664,4.858,4.858,0,0,1,3.74,1.47,5.64,5.64,0,0,1,1.367,4v.117a5.472,5.472,0,0,1-1.372,3.921A4.871,4.871,0,0,1,45.625.2,4.927,4.927,0,0,1,42-1.157a5.29,5.29,0,0,1-1.475-3.667Zm3.291.205a3.932,3.932,0,0,0,.459,2.148,1.529,1.529,0,0,0,1.357.684q1.758,0,1.8-2.705v-.332q0-2.842-1.816-2.842-1.65,0-1.787,2.451Z" transform="translate(222 1097)" fill="#12263f"/>
    <path id="Trazado_134855" data-name="Trazado 134855" d="M7.6-2.977H2.836L1.766,0H.219L4.563-11.375H5.875L10.227,0H8.688ZM3.289-4.2H7.156L5.219-9.523ZM15.039.156a3.693,3.693,0,0,1-2.8-1.129,4.19,4.19,0,0,1-1.078-3.02v-.266a5.073,5.073,0,0,1,.48-2.246,3.748,3.748,0,0,1,1.344-1.547,3.378,3.378,0,0,1,1.871-.559,3.166,3.166,0,0,1,2.563,1.086,4.7,4.7,0,0,1,.914,3.109v.6H12.609a3,3,0,0,0,.73,2.02,2.3,2.3,0,0,0,1.777.77,2.517,2.517,0,0,0,1.3-.312,3.259,3.259,0,0,0,.93-.828l.883.688A3.55,3.55,0,0,1,15.039.156Zm-.18-7.578a1.928,1.928,0,0,0-1.469.637A3.1,3.1,0,0,0,12.656-5h4.234v-.109A2.753,2.753,0,0,0,16.3-6.816,1.815,1.815,0,0,0,14.859-7.422Zm.7-4.562h1.75l-2.094,2.3-1.164,0Zm8.531,4.828a4.331,4.331,0,0,0-.711-.055A1.9,1.9,0,0,0,21.453-6V0H20.008V-8.453h1.406l.023.977a2.251,2.251,0,0,1,2.016-1.133,1.477,1.477,0,0,1,.641.109ZM28.781.156a3.693,3.693,0,0,1-2.8-1.129,4.19,4.19,0,0,1-1.078-3.02v-.266a5.073,5.073,0,0,1,.48-2.246A3.748,3.748,0,0,1,26.73-8.051,3.378,3.378,0,0,1,28.6-8.609a3.166,3.166,0,0,1,2.563,1.086,4.7,4.7,0,0,1,.914,3.109v.6H26.352a3,3,0,0,0,.73,2.02,2.3,2.3,0,0,0,1.777.77,2.517,2.517,0,0,0,1.3-.312,3.259,3.259,0,0,0,.93-.828l.883.688A3.55,3.55,0,0,1,28.781.156ZM28.6-7.422a1.928,1.928,0,0,0-1.469.637A3.1,3.1,0,0,0,26.4-5h4.234v-.109a2.753,2.753,0,0,0-.594-1.707A1.815,1.815,0,0,0,28.6-7.422ZM33.367-4.3a4.993,4.993,0,0,1,.488-2.234A3.643,3.643,0,0,1,35.215-8.07,3.7,3.7,0,0,1,37.2-8.609,3.565,3.565,0,0,1,40-7.414a4.6,4.6,0,0,1,1.066,3.18v.1a5.036,5.036,0,0,1-.473,2.215A3.589,3.589,0,0,1,39.238-.391a3.743,3.743,0,0,1-2.02.547,3.556,3.556,0,0,1-2.785-1.2A4.575,4.575,0,0,1,33.367-4.2Zm1.453.172a3.616,3.616,0,0,0,.652,2.258,2.088,2.088,0,0,0,1.746.852,2.075,2.075,0,0,0,1.75-.863A3.955,3.955,0,0,0,39.617-4.3a3.61,3.61,0,0,0-.66-2.254A2.1,2.1,0,0,0,37.2-7.422a2.075,2.075,0,0,0-1.727.852A3.925,3.925,0,0,0,34.82-4.133Z" transform="translate(316 1097)" fill="#12263f"/>
    <path id="Trazado_134856" data-name="Trazado 134856" d="M9.688-3.609A4.185,4.185,0,0,1,8.355-.824a4.365,4.365,0,0,1-2.98.98,4.008,4.008,0,0,1-3.23-1.445A5.815,5.815,0,0,1,.93-5.156V-6.25A6.481,6.481,0,0,1,1.5-9.039,4.231,4.231,0,0,1,3.1-10.887a4.47,4.47,0,0,1,2.406-.645A4.11,4.11,0,0,1,8.414-10.52a4.235,4.235,0,0,1,1.273,2.8H8.18a3.268,3.268,0,0,0-.848-1.975A2.565,2.565,0,0,0,5.508-10.3,2.684,2.684,0,0,0,3.254-9.241a4.882,4.882,0,0,0-.816,3.026v1.1a5.018,5.018,0,0,0,.773,2.948A2.5,2.5,0,0,0,5.375-1.07a2.887,2.887,0,0,0,1.918-.566A3.143,3.143,0,0,0,8.18-3.609ZM16.727,0a3.036,3.036,0,0,1-.2-.891A3.225,3.225,0,0,1,14.117.156a2.984,2.984,0,0,1-2.051-.707,2.287,2.287,0,0,1-.8-1.793,2.39,2.39,0,0,1,1-2.051,4.733,4.733,0,0,1,2.824-.73H16.5v-.664A1.623,1.623,0,0,0,16.047-7a1.821,1.821,0,0,0-1.336-.449,2.107,2.107,0,0,0-1.3.391,1.151,1.151,0,0,0-.523.945H11.438a2,2,0,0,1,.449-1.223,3.066,3.066,0,0,1,1.219-.934A4.1,4.1,0,0,1,14.8-8.609a3.342,3.342,0,0,1,2.289.73,2.635,2.635,0,0,1,.859,2.012v3.891a4.757,4.757,0,0,0,.3,1.852V0Zm-2.4-1.1a2.54,2.54,0,0,0,1.289-.352,2.127,2.127,0,0,0,.883-.914V-4.1H15.367q-2.656,0-2.656,1.555a1.316,1.316,0,0,0,.453,1.063A1.742,1.742,0,0,0,14.328-1.1ZM27.367-4.133a5.026,5.026,0,0,1-.891,3.113A2.846,2.846,0,0,1,24.086.156,2.947,2.947,0,0,1,21.609-.977L21.539,0H20.211V-12h1.445v4.477A2.93,2.93,0,0,1,24.07-8.609a2.863,2.863,0,0,1,2.418,1.164,5.177,5.177,0,0,1,.879,3.188ZM25.922-4.3a3.906,3.906,0,0,0-.57-2.281,1.888,1.888,0,0,0-1.641-.8,2.122,2.122,0,0,0-2.055,1.328V-2.4a2.181,2.181,0,0,0,2.07,1.328,1.878,1.878,0,0,0,1.617-.8A4.153,4.153,0,0,0,25.922-4.3ZM28.8-4.3a4.993,4.993,0,0,1,.488-2.234A3.643,3.643,0,0,1,30.652-8.07a3.7,3.7,0,0,1,1.988-.539,3.565,3.565,0,0,1,2.793,1.2A4.6,4.6,0,0,1,36.5-4.234v.1a5.036,5.036,0,0,1-.473,2.215A3.589,3.589,0,0,1,34.676-.391a3.743,3.743,0,0,1-2.02.547,3.556,3.556,0,0,1-2.785-1.2A4.575,4.575,0,0,1,28.8-4.2Zm1.453.172a3.616,3.616,0,0,0,.652,2.258,2.088,2.088,0,0,0,1.746.852,2.075,2.075,0,0,0,1.75-.863A3.955,3.955,0,0,0,35.055-4.3a3.61,3.61,0,0,0-.66-2.254,2.1,2.1,0,0,0-1.754-.863,2.075,2.075,0,0,0-1.727.852A3.925,3.925,0,0,0,30.258-4.133ZM40.273-10.5v2.047h1.578v1.117H40.273v5.249a1.173,1.173,0,0,0,.211.763.888.888,0,0,0,.719.254,3.5,3.5,0,0,0,.688-.094V0a4.215,4.215,0,0,1-1.109.155A1.8,1.8,0,0,1,39.32-.43a2.517,2.517,0,0,1-.492-1.664V-7.336H37.289V-8.453h1.539V-10.5ZM48.758,0a3.036,3.036,0,0,1-.2-.891A3.225,3.225,0,0,1,46.148.156,2.984,2.984,0,0,1,44.1-.551a2.287,2.287,0,0,1-.8-1.793,2.39,2.39,0,0,1,1-2.051,4.733,4.733,0,0,1,2.824-.73h1.406v-.664A1.623,1.623,0,0,0,48.078-7a1.821,1.821,0,0,0-1.336-.449,2.107,2.107,0,0,0-1.3.391,1.151,1.151,0,0,0-.523.945H43.469a2,2,0,0,1,.449-1.223,3.066,3.066,0,0,1,1.219-.934,4.1,4.1,0,0,1,1.691-.344,3.342,3.342,0,0,1,2.289.73,2.635,2.635,0,0,1,.859,2.012v3.891a4.757,4.757,0,0,0,.3,1.852V0Zm-2.4-1.1a2.54,2.54,0,0,0,1.289-.352,2.127,2.127,0,0,0,.883-.914V-4.1H47.4q-2.656,0-2.656,1.555A1.316,1.316,0,0,0,45.2-1.484,1.742,1.742,0,0,0,46.359-1.1Zm7.375-7.352V.977q0,2.437-2.211,2.438a2.7,2.7,0,0,1-.883-.14V2.125a2.794,2.794,0,0,0,.656.063.982.982,0,0,0,.738-.262,1.3,1.3,0,0,0,.254-.911V-8.453ZM52.141-10.7a.867.867,0,0,1,.215-.59.79.79,0,0,1,.629-.246.819.819,0,0,1,.641.242.854.854,0,0,1,.219.594.826.826,0,0,1-.219.586.834.834,0,0,1-.641.234.808.808,0,0,1-.633-.234A.843.843,0,0,1,52.141-10.7ZM59.57.156a3.693,3.693,0,0,1-2.8-1.129A4.19,4.19,0,0,1,55.7-3.992v-.266a5.073,5.073,0,0,1,.48-2.246A3.748,3.748,0,0,1,57.52-8.051a3.378,3.378,0,0,1,1.871-.559,3.166,3.166,0,0,1,2.563,1.086,4.7,4.7,0,0,1,.914,3.109v.6H57.141a3,3,0,0,0,.73,2.02,2.3,2.3,0,0,0,1.777.77,2.517,2.517,0,0,0,1.3-.312,3.259,3.259,0,0,0,.93-.828l.883.688A3.55,3.55,0,0,1,59.57.156Zm-.18-7.578a1.928,1.928,0,0,0-1.469.637A3.1,3.1,0,0,0,57.188-5h4.234v-.109a2.753,2.753,0,0,0-.594-1.707A1.815,1.815,0,0,0,59.391-7.422Z" transform="translate(403 1097)" fill="#12263f"/>
    <path id="Trazado_134857" data-name="Trazado 134857" d="M7.594-5.023H2.82V0H1.32V-11.375H8.367v1.227H2.82v3.9H7.594ZM13.281.156a3.693,3.693,0,0,1-2.8-1.129,4.19,4.19,0,0,1-1.078-3.02v-.266A5.073,5.073,0,0,1,9.887-6.5,3.748,3.748,0,0,1,11.23-8.051,3.378,3.378,0,0,1,13.1-8.609a3.166,3.166,0,0,1,2.563,1.086,4.7,4.7,0,0,1,.914,3.109v.6H10.852a3,3,0,0,0,.73,2.02,2.3,2.3,0,0,0,1.777.77,2.517,2.517,0,0,0,1.3-.312,3.259,3.259,0,0,0,.93-.828l.883.688A3.55,3.55,0,0,1,13.281.156ZM13.1-7.422a1.928,1.928,0,0,0-1.469.637A3.1,3.1,0,0,0,10.9-5h4.234v-.109a2.753,2.753,0,0,0-.594-1.707A1.815,1.815,0,0,0,13.1-7.422Zm9.234.266a4.331,4.331,0,0,0-.711-.055A1.9,1.9,0,0,0,19.7-6V0H18.25V-8.453h1.406l.023.977A2.251,2.251,0,0,1,21.7-8.609a1.477,1.477,0,0,1,.641.109Zm5.414,0a4.331,4.331,0,0,0-.711-.055A1.9,1.9,0,0,0,25.109-6V0H23.664V-8.453H25.07l.023.977a2.251,2.251,0,0,1,2.016-1.133,1.477,1.477,0,0,1,.641.109ZM28.539-4.3a4.993,4.993,0,0,1,.488-2.234A3.643,3.643,0,0,1,30.387-8.07a3.7,3.7,0,0,1,1.988-.539,3.565,3.565,0,0,1,2.793,1.2,4.6,4.6,0,0,1,1.066,3.18v.1a5.036,5.036,0,0,1-.473,2.215A3.589,3.589,0,0,1,34.41-.391a3.743,3.743,0,0,1-2.02.547,3.556,3.556,0,0,1-2.785-1.2A4.575,4.575,0,0,1,28.539-4.2Zm1.453.172a3.616,3.616,0,0,0,.652,2.258,2.088,2.088,0,0,0,1.746.852,2.075,2.075,0,0,0,1.75-.863A3.955,3.955,0,0,0,34.789-4.3a3.61,3.61,0,0,0-.66-2.254,2.1,2.1,0,0,0-1.754-.863,2.075,2.075,0,0,0-1.727.852A3.925,3.925,0,0,0,29.992-4.133ZM40.719-1.961l2.094-6.492h1.477L41.258,0h-1.1L37.094-8.453H38.57ZM47.25,0H45.8V-8.453H47.25ZM45.688-10.7a.863.863,0,0,1,.215-.594.807.807,0,0,1,.637-.242.819.819,0,0,1,.641.242.854.854,0,0,1,.219.594.826.826,0,0,1-.219.586.834.834,0,0,1-.641.234.821.821,0,0,1-.637-.234A.834.834,0,0,1,45.688-10.7ZM54.781,0a3.036,3.036,0,0,1-.2-.891A3.225,3.225,0,0,1,52.172.156a2.984,2.984,0,0,1-2.051-.707,2.287,2.287,0,0,1-.8-1.793,2.39,2.39,0,0,1,1-2.051,4.733,4.733,0,0,1,2.824-.73h1.406v-.664A1.623,1.623,0,0,0,54.1-7a1.821,1.821,0,0,0-1.336-.449,2.107,2.107,0,0,0-1.3.391,1.151,1.151,0,0,0-.523.945H49.492a2,2,0,0,1,.449-1.223,3.066,3.066,0,0,1,1.219-.934,4.1,4.1,0,0,1,1.691-.344,3.342,3.342,0,0,1,2.289.73A2.635,2.635,0,0,1,56-5.867v3.891a4.757,4.757,0,0,0,.3,1.852V0Zm-2.4-1.1a2.54,2.54,0,0,0,1.289-.352,2.127,2.127,0,0,0,.883-.914V-4.1H53.422q-2.656,0-2.656,1.555a1.316,1.316,0,0,0,.453,1.063A1.742,1.742,0,0,0,52.383-1.1Zm9.969-6.055a4.331,4.331,0,0,0-.711-.055A1.9,1.9,0,0,0,59.711-6V0H58.266V-8.453h1.406l.023.977a2.251,2.251,0,0,1,2.016-1.133,1.477,1.477,0,0,1,.641.109ZM65.25,0H63.8V-8.453H65.25ZM63.688-10.7a.863.863,0,0,1,.215-.594.807.807,0,0,1,.637-.242.819.819,0,0,1,.641.242.854.854,0,0,1,.219.594.826.826,0,0,1-.219.586.834.834,0,0,1-.641.234.821.821,0,0,1-.637-.234A.834.834,0,0,1,63.688-10.7ZM67.18-4.3a4.993,4.993,0,0,1,.488-2.234A3.643,3.643,0,0,1,69.027-8.07a3.7,3.7,0,0,1,1.988-.539,3.565,3.565,0,0,1,2.793,1.2,4.6,4.6,0,0,1,1.066,3.18v.1A5.036,5.036,0,0,1,74.4-1.918,3.589,3.589,0,0,1,73.051-.391a3.743,3.743,0,0,1-2.02.547,3.556,3.556,0,0,1-2.785-1.2A4.575,4.575,0,0,1,67.18-4.2Zm1.453.172a3.616,3.616,0,0,0,.652,2.258,2.088,2.088,0,0,0,1.746.852,2.075,2.075,0,0,0,1.75-.863A3.955,3.955,0,0,0,73.43-4.3a3.61,3.61,0,0,0-.66-2.254,2.1,2.1,0,0,0-1.754-.863,2.075,2.075,0,0,0-1.727.852A3.925,3.925,0,0,0,68.633-4.133Z" transform="translate(513 1097)" fill="#12263f"/>
    <path id="Trazado_134858" data-name="Trazado 134858" d="M7.594-5.023H2.82V0H1.32V-11.375H8.367v1.227H2.82v3.9H7.594ZM11.508,0H10.063V-12h1.445Zm7.531-.836a3.07,3.07,0,0,1-2.477.992A2.628,2.628,0,0,1,14.5-.629a3.4,3.4,0,0,1-.715-2.324v-5.5h1.445v5.461q0,1.922,1.563,1.922A2.163,2.163,0,0,0,19-2.3V-8.453h1.445V0H19.07ZM25.43-1.961l2.094-6.492H29L25.969,0h-1.1L21.8-8.453h1.477ZM31.961,0H30.516V-8.453h1.445ZM30.4-10.7a.863.863,0,0,1,.215-.594.807.807,0,0,1,.637-.242.819.819,0,0,1,.641.242.854.854,0,0,1,.219.594.826.826,0,0,1-.219.586.834.834,0,0,1-.641.234.821.821,0,0,1-.637-.234A.834.834,0,0,1,30.4-10.7ZM39.492,0a3.036,3.036,0,0,1-.2-.891A3.225,3.225,0,0,1,36.883.156a2.984,2.984,0,0,1-2.051-.707,2.287,2.287,0,0,1-.8-1.793,2.39,2.39,0,0,1,1-2.051,4.733,4.733,0,0,1,2.824-.73h1.406v-.664A1.623,1.623,0,0,0,38.813-7a1.821,1.821,0,0,0-1.336-.449,2.107,2.107,0,0,0-1.3.391,1.151,1.151,0,0,0-.523.945H34.2a2,2,0,0,1,.449-1.223,3.066,3.066,0,0,1,1.219-.934,4.1,4.1,0,0,1,1.691-.344,3.342,3.342,0,0,1,2.289.73,2.635,2.635,0,0,1,.859,2.012v3.891a4.757,4.757,0,0,0,.3,1.852V0Zm-2.4-1.1a2.54,2.54,0,0,0,1.289-.352,2.127,2.127,0,0,0,.883-.914V-4.1H38.133q-2.656,0-2.656,1.555a1.316,1.316,0,0,0,.453,1.063A1.742,1.742,0,0,0,37.094-1.1ZM44.547,0H43.1V-12h1.445Z" transform="translate(636 1097)" fill="#12263f"/>
    <path id="Trazado_134859" data-name="Trazado 134859" d="M9.18-10.148H5.523V0H4.031V-10.148H.383v-1.227h8.8Zm4.2,10.3a3.693,3.693,0,0,1-2.8-1.129A4.19,4.19,0,0,1,9.5-3.992v-.266A5.073,5.073,0,0,1,9.98-6.5a3.748,3.748,0,0,1,1.344-1.547A3.378,3.378,0,0,1,13.2-8.609a3.166,3.166,0,0,1,2.563,1.086,4.7,4.7,0,0,1,.914,3.109v.6H10.945a3,3,0,0,0,.73,2.02,2.3,2.3,0,0,0,1.777.77,2.517,2.517,0,0,0,1.3-.312,3.259,3.259,0,0,0,.93-.828l.883.688A3.55,3.55,0,0,1,13.375.156ZM13.2-7.422a1.928,1.928,0,0,0-1.469.637A3.1,3.1,0,0,0,10.992-5h4.234v-.109a2.753,2.753,0,0,0-.594-1.707A1.815,1.815,0,0,0,13.2-7.422Zm9.234.266a4.331,4.331,0,0,0-.711-.055A1.9,1.9,0,0,0,19.789-6V0H18.344V-8.453H19.75l.023.977a2.251,2.251,0,0,1,2.016-1.133,1.477,1.477,0,0,1,.641.109Zm5.414,0a4.331,4.331,0,0,0-.711-.055A1.9,1.9,0,0,0,25.2-6V0H23.758V-8.453h1.406l.023.977A2.251,2.251,0,0,1,27.2-8.609a1.477,1.477,0,0,1,.641.109ZM32.531.156a3.693,3.693,0,0,1-2.8-1.129,4.19,4.19,0,0,1-1.078-3.02v-.266a5.073,5.073,0,0,1,.48-2.246A3.748,3.748,0,0,1,30.48-8.051a3.378,3.378,0,0,1,1.871-.559,3.166,3.166,0,0,1,2.563,1.086,4.7,4.7,0,0,1,.914,3.109v.6H30.1a3,3,0,0,0,.73,2.02,2.3,2.3,0,0,0,1.777.77,2.517,2.517,0,0,0,1.3-.312,3.259,3.259,0,0,0,.93-.828l.883.688A3.55,3.55,0,0,1,32.531.156Zm-.18-7.578a1.928,1.928,0,0,0-1.469.637A3.1,3.1,0,0,0,30.148-5h4.234v-.109a2.753,2.753,0,0,0-.594-1.707A1.815,1.815,0,0,0,32.352-7.422Zm10.07,5.18a1.064,1.064,0,0,0-.441-.91,4.249,4.249,0,0,0-1.539-.559A7.277,7.277,0,0,1,38.7-4.273a2.479,2.479,0,0,1-.953-.781,1.869,1.869,0,0,1-.309-1.078,2.193,2.193,0,0,1,.879-1.758,3.432,3.432,0,0,1,2.246-.719,3.532,3.532,0,0,1,2.332.742,2.357,2.357,0,0,1,.895,1.9H42.336a1.3,1.3,0,0,0-.5-1.023,1.888,1.888,0,0,0-1.27-.43,1.976,1.976,0,0,0-1.234.344,1.082,1.082,0,0,0-.445.9.877.877,0,0,0,.414.789,5.1,5.1,0,0,0,1.5.508,7.8,7.8,0,0,1,1.754.578,2.558,2.558,0,0,1,1,.809,1.988,1.988,0,0,1,.324,1.152,2.163,2.163,0,0,1-.906,1.816,3.8,3.8,0,0,1-2.352.684,4.257,4.257,0,0,1-1.8-.359,2.922,2.922,0,0,1-1.223-1A2.42,2.42,0,0,1,37.148-2.6h1.445a1.5,1.5,0,0,0,.582,1.152,2.258,2.258,0,0,0,1.434.426,2.331,2.331,0,0,0,1.316-.332A1.02,1.02,0,0,0,42.422-2.242ZM47.711-10.5v2.047h1.578v1.117H47.711v5.249a1.173,1.173,0,0,0,.211.763.888.888,0,0,0,.719.254,3.5,3.5,0,0,0,.688-.094V0a4.215,4.215,0,0,1-1.109.155A1.8,1.8,0,0,1,46.758-.43a2.517,2.517,0,0,1-.492-1.664V-7.336H44.727V-8.453h1.539V-10.5Zm7.352,3.344a4.331,4.331,0,0,0-.711-.055A1.9,1.9,0,0,0,52.422-6V0H50.977V-8.453h1.406l.023.977a2.251,2.251,0,0,1,2.016-1.133,1.477,1.477,0,0,1,.641.109ZM59.75.156a3.693,3.693,0,0,1-2.8-1.129,4.19,4.19,0,0,1-1.078-3.02v-.266a5.073,5.073,0,0,1,.48-2.246A3.748,3.748,0,0,1,57.7-8.051a3.378,3.378,0,0,1,1.871-.559,3.166,3.166,0,0,1,2.563,1.086,4.7,4.7,0,0,1,.914,3.109v.6H57.32a3,3,0,0,0,.73,2.02,2.3,2.3,0,0,0,1.777.77,2.517,2.517,0,0,0,1.3-.312,3.259,3.259,0,0,0,.93-.828l.883.688A3.55,3.55,0,0,1,59.75.156Zm-.18-7.578a1.928,1.928,0,0,0-1.469.637A3.1,3.1,0,0,0,57.367-5H61.6v-.109a2.753,2.753,0,0,0-.594-1.707A1.815,1.815,0,0,0,59.57-7.422Z" transform="translate(729 1097)" fill="#12263f"/>
    <g id="Grupo_86923" data-name="Grupo 86923" transform="translate(-1238.713 1188.279)">
      <path id="Trazado_126584" data-name="Trazado 126584" d="M2233.679,250.327H1836.415V-21.842l-32.29-35.809h429.554Z" transform="translate(376.034 6.511)" fill="#d2e1f1"/>
      <g id="Grupo_86921" data-name="Grupo 86921" transform="translate(1455.713 -63.684)">
        <path id="Trazado_126585" data-name="Trazado 126585" d="M1956.137,65.838,1914.8,68.773l-91.733-8.806-95.4,18.347-43.3-48.435-91,3.669L1546.4,44.556V148.031h409.74Z" transform="translate(-1357.84 164.664)" fill="#ffba5b"/>
        <path id="Trazado_134873" data-name="Trazado 134873" d="M12.32,0H1.112V-2.224L6.4-7.861A13.049,13.049,0,0,0,8.013-9.939a3.338,3.338,0,0,0,.522-1.685,2.5,2.5,0,0,0-.55-1.713,1.986,1.986,0,0,0-1.572-.623,2.142,2.142,0,0,0-1.735.758,3,3,0,0,0-.635,1.993H.786A5.361,5.361,0,0,1,1.5-13.937a5.026,5.026,0,0,1,2.016-1.937,6.127,6.127,0,0,1,2.954-.7,5.8,5.8,0,0,1,3.925,1.213,4.291,4.291,0,0,1,1.4,3.425,5.5,5.5,0,0,1-.629,2.471A13.73,13.73,0,0,1,9.007-6.536L5.29-2.617h7.03ZM25.313-6.761a8.284,8.284,0,0,1-1.4,5.188A4.9,4.9,0,0,1,19.8.225a4.934,4.934,0,0,1-4.088-1.763,8.041,8.041,0,0,1-1.449-5.054V-9.6a8.175,8.175,0,0,1,1.421-5.2,4.937,4.937,0,0,1,4.094-1.774,4.941,4.941,0,0,1,4.088,1.758,8.016,8.016,0,0,1,1.449,5.048ZM22.068-10.07a5.988,5.988,0,0,0-.556-2.962,1.879,1.879,0,0,0-1.735-.927,1.845,1.845,0,0,0-1.69.882,5.6,5.6,0,0,0-.578,2.76v3.979a6.285,6.285,0,0,0,.545,2.973,1.854,1.854,0,0,0,1.746.972,1.823,1.823,0,0,0,1.718-.933,6.135,6.135,0,0,0,.55-2.855ZM35.387,0H32.142V-12.528l-3.875,1.2v-2.617l6.772-2.426h.348ZM51.705-6.761a8.284,8.284,0,0,1-1.4,5.188,4.9,4.9,0,0,1-4.11,1.8A4.934,4.934,0,0,1,42.1-1.539a8.041,8.041,0,0,1-1.449-5.054V-9.6a8.175,8.175,0,0,1,1.421-5.2,4.937,4.937,0,0,1,4.094-1.774,4.941,4.941,0,0,1,4.088,1.758,8.016,8.016,0,0,1,1.449,5.048ZM48.459-10.07a5.988,5.988,0,0,0-.556-2.962,1.879,1.879,0,0,0-1.735-.927,1.845,1.845,0,0,0-1.69.882,5.6,5.6,0,0,0-.578,2.76v3.979a6.285,6.285,0,0,0,.545,2.973,1.854,1.854,0,0,0,1.746.972,1.823,1.823,0,0,0,1.718-.933,6.135,6.135,0,0,0,.55-2.855Z" transform="translate(162.871 347.537)" fill="#12263f"/>
        <path id="Trazado_134875" data-name="Trazado 134875" d="M12.32,0H1.112V-2.224L6.4-7.861A13.049,13.049,0,0,0,8.013-9.939a3.338,3.338,0,0,0,.522-1.685,2.5,2.5,0,0,0-.55-1.713,1.986,1.986,0,0,0-1.572-.623,2.142,2.142,0,0,0-1.735.758,3,3,0,0,0-.635,1.993H.786A5.361,5.361,0,0,1,1.5-13.937a5.026,5.026,0,0,1,2.016-1.937,6.127,6.127,0,0,1,2.954-.7,5.8,5.8,0,0,1,3.925,1.213,4.291,4.291,0,0,1,1.4,3.425,5.5,5.5,0,0,1-.629,2.471A13.73,13.73,0,0,1,9.007-6.536L5.29-2.617h7.03ZM25.313-6.761a8.284,8.284,0,0,1-1.4,5.188A4.9,4.9,0,0,1,19.8.225a4.934,4.934,0,0,1-4.088-1.763,8.041,8.041,0,0,1-1.449-5.054V-9.6a8.175,8.175,0,0,1,1.421-5.2,4.937,4.937,0,0,1,4.094-1.774,4.941,4.941,0,0,1,4.088,1.758,8.016,8.016,0,0,1,1.449,5.048ZM22.068-10.07a5.988,5.988,0,0,0-.556-2.962,1.879,1.879,0,0,0-1.735-.927,1.845,1.845,0,0,0-1.69.882,5.6,5.6,0,0,0-.578,2.76v3.979a6.285,6.285,0,0,0,.545,2.973,1.854,1.854,0,0,0,1.746.972,1.823,1.823,0,0,0,1.718-.933,6.135,6.135,0,0,0,.55-2.855ZM38.509-6.761a8.284,8.284,0,0,1-1.4,5.188A4.9,4.9,0,0,1,33,.225a4.934,4.934,0,0,1-4.088-1.763,8.041,8.041,0,0,1-1.449-5.054V-9.6a8.175,8.175,0,0,1,1.421-5.2,4.937,4.937,0,0,1,4.094-1.774,4.941,4.941,0,0,1,4.088,1.758,8.016,8.016,0,0,1,1.449,5.048ZM35.264-10.07a5.988,5.988,0,0,0-.556-2.962,1.879,1.879,0,0,0-1.735-.927,1.845,1.845,0,0,0-1.69.882,5.6,5.6,0,0,0-.578,2.76v3.979a6.285,6.285,0,0,0,.545,2.973A1.854,1.854,0,0,0,33-2.392a1.823,1.823,0,0,0,1.718-.933,6.135,6.135,0,0,0,.55-2.855ZM41-1.595a1.634,1.634,0,0,1,.522-1.258,1.853,1.853,0,0,1,1.308-.483,1.868,1.868,0,0,1,1.32.483,1.634,1.634,0,0,1,.522,1.258,1.612,1.612,0,0,1-.517,1.241,1.876,1.876,0,0,1-1.325.477,1.861,1.861,0,0,1-1.314-.477A1.612,1.612,0,0,1,41-1.595ZM58.387-6.761a8.284,8.284,0,0,1-1.4,5.188,4.9,4.9,0,0,1-4.11,1.8,4.934,4.934,0,0,1-4.088-1.763,8.041,8.041,0,0,1-1.449-5.054V-9.6a8.175,8.175,0,0,1,1.421-5.2,4.937,4.937,0,0,1,4.094-1.774,4.941,4.941,0,0,1,4.088,1.758,8.016,8.016,0,0,1,1.449,5.048ZM55.142-10.07a5.988,5.988,0,0,0-.556-2.962,1.879,1.879,0,0,0-1.735-.927,1.845,1.845,0,0,0-1.69.882,5.6,5.6,0,0,0-.578,2.76v3.979a6.285,6.285,0,0,0,.545,2.973,1.854,1.854,0,0,0,1.746.972,1.823,1.823,0,0,0,1.718-.933,6.135,6.135,0,0,0,.55-2.855ZM71.583-6.761a8.284,8.284,0,0,1-1.4,5.188,4.9,4.9,0,0,1-4.11,1.8,4.934,4.934,0,0,1-4.088-1.763,8.041,8.041,0,0,1-1.449-5.054V-9.6a8.175,8.175,0,0,1,1.421-5.2,4.937,4.937,0,0,1,4.094-1.774,4.941,4.941,0,0,1,4.088,1.758,8.016,8.016,0,0,1,1.449,5.048ZM68.337-10.07a5.988,5.988,0,0,0-.556-2.962,1.879,1.879,0,0,0-1.735-.927,1.845,1.845,0,0,0-1.69.882,5.6,5.6,0,0,0-.578,2.76v3.979a6.285,6.285,0,0,0,.545,2.973,1.854,1.854,0,0,0,1.746.972,1.823,1.823,0,0,0,1.718-.933,6.135,6.135,0,0,0,.55-2.855ZM84.779-6.761a8.284,8.284,0,0,1-1.4,5.188,4.9,4.9,0,0,1-4.11,1.8,4.934,4.934,0,0,1-4.088-1.763,8.041,8.041,0,0,1-1.449-5.054V-9.6a8.175,8.175,0,0,1,1.421-5.2,4.937,4.937,0,0,1,4.094-1.774,4.941,4.941,0,0,1,4.088,1.758,8.016,8.016,0,0,1,1.449,5.048ZM81.533-10.07a5.988,5.988,0,0,0-.556-2.962,1.879,1.879,0,0,0-1.735-.927,1.845,1.845,0,0,0-1.69.882,5.6,5.6,0,0,0-.578,2.76v3.979a6.285,6.285,0,0,0,.545,2.973,1.854,1.854,0,0,0,1.746.972,1.823,1.823,0,0,0,1.718-.933,6.135,6.135,0,0,0,.55-2.855Z" transform="translate(64.342 170.395)" fill="#12263f"/>
        <path id="Trazado_134874" data-name="Trazado 134874" d="M12.118-6.761a8.284,8.284,0,0,1-1.4,5.188A4.9,4.9,0,0,1,6.6.225,4.934,4.934,0,0,1,2.516-1.539,8.041,8.041,0,0,1,1.067-6.592V-9.6a8.175,8.175,0,0,1,1.421-5.2,4.937,4.937,0,0,1,4.094-1.774,4.941,4.941,0,0,1,4.088,1.758,8.016,8.016,0,0,1,1.449,5.048ZM8.872-10.07a5.988,5.988,0,0,0-.556-2.962,1.879,1.879,0,0,0-1.735-.927,1.845,1.845,0,0,0-1.69.882,5.6,5.6,0,0,0-.578,2.76v3.979a6.285,6.285,0,0,0,.545,2.973A1.854,1.854,0,0,0,6.6-2.392a1.823,1.823,0,0,0,1.718-.933,6.135,6.135,0,0,0,.55-2.855Z" transform="translate(143.18 324.603)" fill="#12263f"/>
        <path id="Trazado_134876" data-name="Trazado 134876" d="M10.714-6.154h1.853v2.617H10.714V0H7.468V-3.538H.764L.618-5.582l6.817-10.77h3.279Zm-6.862,0H7.468v-5.772l-.213.371Zm21.461-.606a8.284,8.284,0,0,1-1.4,5.188A4.9,4.9,0,0,1,19.8.225a4.934,4.934,0,0,1-4.088-1.763,8.041,8.041,0,0,1-1.449-5.054V-9.6a8.175,8.175,0,0,1,1.421-5.2,4.937,4.937,0,0,1,4.094-1.774,4.941,4.941,0,0,1,4.088,1.758,8.016,8.016,0,0,1,1.449,5.048ZM22.068-10.07a5.988,5.988,0,0,0-.556-2.962,1.879,1.879,0,0,0-1.735-.927,1.845,1.845,0,0,0-1.69.882,5.6,5.6,0,0,0-.578,2.76v3.979a6.285,6.285,0,0,0,.545,2.973,1.854,1.854,0,0,0,1.746.972,1.823,1.823,0,0,0,1.718-.933,6.135,6.135,0,0,0,.55-2.855ZM38.509-6.761a8.284,8.284,0,0,1-1.4,5.188A4.9,4.9,0,0,1,33,.225a4.934,4.934,0,0,1-4.088-1.763,8.041,8.041,0,0,1-1.449-5.054V-9.6a8.175,8.175,0,0,1,1.421-5.2,4.937,4.937,0,0,1,4.094-1.774,4.941,4.941,0,0,1,4.088,1.758,8.016,8.016,0,0,1,1.449,5.048ZM35.264-10.07a5.988,5.988,0,0,0-.556-2.962,1.879,1.879,0,0,0-1.735-.927,1.845,1.845,0,0,0-1.69.882,5.6,5.6,0,0,0-.578,2.76v3.979a6.285,6.285,0,0,0,.545,2.973A1.854,1.854,0,0,0,33-2.392a1.823,1.823,0,0,0,1.718-.933,6.135,6.135,0,0,0,.55-2.855ZM41-1.595a1.634,1.634,0,0,1,.522-1.258,1.853,1.853,0,0,1,1.308-.483,1.868,1.868,0,0,1,1.32.483,1.634,1.634,0,0,1,.522,1.258,1.612,1.612,0,0,1-.517,1.241,1.876,1.876,0,0,1-1.325.477,1.861,1.861,0,0,1-1.314-.477A1.612,1.612,0,0,1,41-1.595ZM58.387-6.761a8.284,8.284,0,0,1-1.4,5.188,4.9,4.9,0,0,1-4.11,1.8,4.934,4.934,0,0,1-4.088-1.763,8.041,8.041,0,0,1-1.449-5.054V-9.6a8.175,8.175,0,0,1,1.421-5.2,4.937,4.937,0,0,1,4.094-1.774,4.941,4.941,0,0,1,4.088,1.758,8.016,8.016,0,0,1,1.449,5.048ZM55.142-10.07a5.988,5.988,0,0,0-.556-2.962,1.879,1.879,0,0,0-1.735-.927,1.845,1.845,0,0,0-1.69.882,5.6,5.6,0,0,0-.578,2.76v3.979a6.285,6.285,0,0,0,.545,2.973,1.854,1.854,0,0,0,1.746.972,1.823,1.823,0,0,0,1.718-.933,6.135,6.135,0,0,0,.55-2.855ZM71.583-6.761a8.284,8.284,0,0,1-1.4,5.188,4.9,4.9,0,0,1-4.11,1.8,4.934,4.934,0,0,1-4.088-1.763,8.041,8.041,0,0,1-1.449-5.054V-9.6a8.175,8.175,0,0,1,1.421-5.2,4.937,4.937,0,0,1,4.094-1.774,4.941,4.941,0,0,1,4.088,1.758,8.016,8.016,0,0,1,1.449,5.048ZM68.337-10.07a5.988,5.988,0,0,0-.556-2.962,1.879,1.879,0,0,0-1.735-.927,1.845,1.845,0,0,0-1.69.882,5.6,5.6,0,0,0-.578,2.76v3.979a6.285,6.285,0,0,0,.545,2.973,1.854,1.854,0,0,0,1.746.972,1.823,1.823,0,0,0,1.718-.933,6.135,6.135,0,0,0,.55-2.855ZM84.779-6.761a8.284,8.284,0,0,1-1.4,5.188,4.9,4.9,0,0,1-4.11,1.8,4.934,4.934,0,0,1-4.088-1.763,8.041,8.041,0,0,1-1.449-5.054V-9.6a8.175,8.175,0,0,1,1.421-5.2,4.937,4.937,0,0,1,4.094-1.774,4.941,4.941,0,0,1,4.088,1.758,8.016,8.016,0,0,1,1.449,5.048ZM81.533-10.07a5.988,5.988,0,0,0-.556-2.962,1.879,1.879,0,0,0-1.735-.927,1.845,1.845,0,0,0-1.69.882,5.6,5.6,0,0,0-.578,2.76v3.979a6.285,6.285,0,0,0,.545,2.973,1.854,1.854,0,0,0,1.746.972,1.823,1.823,0,0,0,1.718-.933,6.135,6.135,0,0,0,.55-2.855Z" transform="translate(64.342 22)" fill="#12263f"/>
        <path id="Trazado_134871" data-name="Trazado 134871" d="M12.32,0H1.112V-2.224L6.4-7.861A13.049,13.049,0,0,0,8.013-9.939a3.338,3.338,0,0,0,.522-1.685,2.5,2.5,0,0,0-.55-1.713,1.986,1.986,0,0,0-1.572-.623,2.142,2.142,0,0,0-1.735.758,3,3,0,0,0-.635,1.993H.786A5.361,5.361,0,0,1,1.5-13.937a5.026,5.026,0,0,1,2.016-1.937,6.127,6.127,0,0,1,2.954-.7,5.8,5.8,0,0,1,3.925,1.213,4.291,4.291,0,0,1,1.4,3.425,5.5,5.5,0,0,1-.629,2.471A13.73,13.73,0,0,1,9.007-6.536L5.29-2.617h7.03ZM25.313-6.761a8.284,8.284,0,0,1-1.4,5.188A4.9,4.9,0,0,1,19.8.225a4.934,4.934,0,0,1-4.088-1.763,8.041,8.041,0,0,1-1.449-5.054V-9.6a8.175,8.175,0,0,1,1.421-5.2,4.937,4.937,0,0,1,4.094-1.774,4.941,4.941,0,0,1,4.088,1.758,8.016,8.016,0,0,1,1.449,5.048ZM22.068-10.07a5.988,5.988,0,0,0-.556-2.962,1.879,1.879,0,0,0-1.735-.927,1.845,1.845,0,0,0-1.69.882,5.6,5.6,0,0,0-.578,2.76v3.979a6.285,6.285,0,0,0,.545,2.973,1.854,1.854,0,0,0,1.746.972,1.823,1.823,0,0,0,1.718-.933,6.135,6.135,0,0,0,.55-2.855ZM35.387,0H32.142V-12.528l-3.875,1.2v-2.617l6.772-2.426h.348Zm5.795-8.041.943-8.311H51.29v2.707h-6.5l-.4,3.515a5.146,5.146,0,0,1,2.459-.618A4.713,4.713,0,0,1,50.5-9.3a5.787,5.787,0,0,1,1.325,4.054,5.928,5.928,0,0,1-.668,2.836A4.716,4.716,0,0,1,49.246-.466,5.978,5.978,0,0,1,46.3.225a6.348,6.348,0,0,1-2.751-.6,4.88,4.88,0,0,1-2-1.69,4.606,4.606,0,0,1-.781-2.482h3.212a2.4,2.4,0,0,0,.713,1.589,2.261,2.261,0,0,0,1.6.567,2,2,0,0,0,1.7-.792,3.668,3.668,0,0,0,.6-2.24A3.033,3.033,0,0,0,47.9-7.558,2.514,2.514,0,0,0,45.955-8.3a2.809,2.809,0,0,0-1.875.606l-.314.292Z" transform="translate(393.427 347.537)" fill="#12263f"/>
        <path id="Trazado_134872" data-name="Trazado 134872" d="M10.927-4.279H4.077L2.538,0H.314L6.559-16.352H8.445L14.7,0H12.488Zm-6.2-1.763h5.559L7.5-13.69Zm13.813-6.109.067,1.527a4.428,4.428,0,0,1,3.639-1.752q3.852,0,3.886,4.346V0H24.056V-8.041a2.8,2.8,0,0,0-.6-1.943,2.408,2.408,0,0,0-1.836-.629,3,3,0,0,0-1.774.539,3.661,3.661,0,0,0-1.19,1.415V0H16.576V-12.151Zm6.873-4.739a2.792,2.792,0,0,1-.691,1.965A2.243,2.243,0,0,1,23-14.173a2.529,2.529,0,0,1-.8-.112,4.3,4.3,0,0,1-.882-.46,3.818,3.818,0,0,0-.786-.421,1.924,1.924,0,0,0-.556-.073,1.03,1.03,0,0,0-.786.354,1.283,1.283,0,0,0-.326.9l-1.393-.079a2.931,2.931,0,0,1,.679-1.988,2.179,2.179,0,0,1,1.724-.786,2.094,2.094,0,0,1,.708.112,5.156,5.156,0,0,1,.854.438,5.022,5.022,0,0,0,.825.427,1.9,1.9,0,0,0,.635.1,1,1,0,0,0,.8-.382,1.34,1.34,0,0,0,.32-.887Zm3.3,10.7a7.177,7.177,0,0,1,.7-3.212,5.236,5.236,0,0,1,1.954-2.2,5.319,5.319,0,0,1,2.858-.775,5.124,5.124,0,0,1,4.015,1.718,6.611,6.611,0,0,1,1.533,4.571v.146A7.24,7.24,0,0,1,39.1-2.757a5.159,5.159,0,0,1-1.943,2.2,5.38,5.38,0,0,1-2.9.786,5.112,5.112,0,0,1-4-1.718,6.577,6.577,0,0,1-1.533-4.548Zm2.089.247A5.2,5.2,0,0,0,31.743-2.7a3,3,0,0,0,2.51,1.224,2.983,2.983,0,0,0,2.516-1.241A5.685,5.685,0,0,0,37.7-6.188a5.189,5.189,0,0,0-.949-3.24,3.017,3.017,0,0,0-2.521-1.241,2.983,2.983,0,0,0-2.482,1.224A5.642,5.642,0,0,0,30.805-5.941Z" transform="translate(393.427 377.283)" fill="#12263f"/>
        <path id="Trazado_134870" data-name="Trazado 134870" d="M12.32,0H1.112V-2.224L6.4-7.861A13.049,13.049,0,0,0,8.013-9.939a3.338,3.338,0,0,0,.522-1.685,2.5,2.5,0,0,0-.55-1.713,1.986,1.986,0,0,0-1.572-.623,2.142,2.142,0,0,0-1.735.758,3,3,0,0,0-.635,1.993H.786A5.361,5.361,0,0,1,1.5-13.937a5.026,5.026,0,0,1,2.016-1.937,6.127,6.127,0,0,1,2.954-.7,5.8,5.8,0,0,1,3.925,1.213,4.291,4.291,0,0,1,1.4,3.425,5.5,5.5,0,0,1-.629,2.471A13.73,13.73,0,0,1,9.007-6.536L5.29-2.617h7.03ZM25.313-6.761a8.284,8.284,0,0,1-1.4,5.188A4.9,4.9,0,0,1,19.8.225a4.934,4.934,0,0,1-4.088-1.763,8.041,8.041,0,0,1-1.449-5.054V-9.6a8.175,8.175,0,0,1,1.421-5.2,4.937,4.937,0,0,1,4.094-1.774,4.941,4.941,0,0,1,4.088,1.758,8.016,8.016,0,0,1,1.449,5.048ZM22.068-10.07a5.988,5.988,0,0,0-.556-2.962,1.879,1.879,0,0,0-1.735-.927,1.845,1.845,0,0,0-1.69.882,5.6,5.6,0,0,0-.578,2.76v3.979a6.285,6.285,0,0,0,.545,2.973,1.854,1.854,0,0,0,1.746.972,1.823,1.823,0,0,0,1.718-.933,6.135,6.135,0,0,0,.55-2.855ZM38.711,0H27.5V-2.224l5.29-5.638A13.049,13.049,0,0,0,34.4-9.939a3.338,3.338,0,0,0,.522-1.685,2.5,2.5,0,0,0-.55-1.713,1.986,1.986,0,0,0-1.572-.623,2.142,2.142,0,0,0-1.735.758,3,3,0,0,0-.635,1.993H27.178a5.361,5.361,0,0,1,.713-2.729,5.026,5.026,0,0,1,2.016-1.937,6.127,6.127,0,0,1,2.954-.7,5.8,5.8,0,0,1,3.925,1.213,4.291,4.291,0,0,1,1.4,3.425,5.5,5.5,0,0,1-.629,2.471A13.73,13.73,0,0,1,35.4-6.536L31.681-2.617h7.03ZM51.705-6.761a8.284,8.284,0,0,1-1.4,5.188,4.9,4.9,0,0,1-4.11,1.8A4.934,4.934,0,0,1,42.1-1.539a8.041,8.041,0,0,1-1.449-5.054V-9.6a8.175,8.175,0,0,1,1.421-5.2,4.937,4.937,0,0,1,4.094-1.774,4.941,4.941,0,0,1,4.088,1.758,8.016,8.016,0,0,1,1.449,5.048ZM48.459-10.07a5.988,5.988,0,0,0-.556-2.962,1.879,1.879,0,0,0-1.735-.927,1.845,1.845,0,0,0-1.69.882,5.6,5.6,0,0,0-.578,2.76v3.979a6.285,6.285,0,0,0,.545,2.973,1.854,1.854,0,0,0,1.746.972,1.823,1.823,0,0,0,1.718-.933,6.135,6.135,0,0,0,.55-2.855Z" transform="translate(606.111 347.537)" fill="#12263f"/>
        <line id="Línea_174" data-name="Línea 174" x2="454.674" transform="translate(173.635 12.544)" fill="none" stroke="#000" stroke-linecap="round" stroke-linejoin="round" stroke-width="1" stroke-dasharray="1 5"/>
        <line id="Línea_175" data-name="Línea 175" x2="454.674" transform="translate(173.635 320.522)" fill="none" stroke="#000" stroke-linecap="round" stroke-linejoin="round" stroke-width="1" stroke-dasharray="1 5"/>
        <path id="Trazado_126586" data-name="Trazado 126586" d="M1956.137-32.038l-87.121,9.961L1821.6-29.1l-89.729,20.67L1683.14-49.651l-36.2,14.677-53.817,9.785-43.57,22.505L1546.4-.727V130.39l46.967-11.008,91-3.669,43.3,48.435,95.4-18.347,91.733,8.806,41.341-2.935Z" transform="translate(-1357.84 78.829)" fill="#e268bf"/>
        <path id="Trazado_126587" data-name="Trazado 126587" d="M1546.4,43.556l46.967-11.008,91-3.669L1726.912,82.7l96.151-23.728L1914.8,69.853l41.341-5.015" transform="translate(-1357.84 163.585)" fill="none" stroke="#c96f45" stroke-linecap="round" stroke-linejoin="round" stroke-width="4"/>
        <path id="Trazado_126588" data-name="Trazado 126588" d="M1546.4,44.556l46.967-11.008,91-3.669,43.3,48.435,95.4-18.347,91.733,8.806,41.341-2.935" transform="translate(-1357.84 162.664)" fill="none" stroke="#5c117f" stroke-linecap="round" stroke-linejoin="round" stroke-width="4"/>
        <path id="Trazado_126589" data-name="Trazado 126589" d="M1547.675-2.684l43.57-22.505,53.816-9.785,36.2-14.677,48.727,41.219,89.729-20.67,47.421,7.026,87.121-9.961" transform="translate(-1356.459 78.829)" fill="none" stroke="#bf4ca5" stroke-linecap="round" stroke-linejoin="round" stroke-width="4"/>
        <line id="Línea_176" data-name="Línea 176" x2="454.674" transform="translate(173.635 162.619)" fill="none" stroke="#000" stroke-linecap="round" stroke-linejoin="round" stroke-width="1" stroke-dasharray="1 5"/>
        <path id="Trazado_126590" data-name="Trazado 126590" d="M1874.969,83.7l81.168,6.238H1546.4Z" transform="translate(-1357.84 222.754)" fill="#5590fc"/>
        <path id="Trazado_134877" data-name="Trazado 134877" d="M4.683-16.352,10.029-3.01l5.346-13.342h2.8V0H16.015V-6.368l.2-6.873L10.849,0H9.2L3.841-13.207l.213,6.839V0H1.9V-16.352Zm33.837,1.763H33.265V0H31.12V-14.588H25.875v-1.763H38.521Zm.438,8.4a7.177,7.177,0,0,1,.7-3.212,5.236,5.236,0,0,1,1.954-2.2,5.319,5.319,0,0,1,2.858-.775,5.124,5.124,0,0,1,4.015,1.718,6.611,6.611,0,0,1,1.533,4.571v.146a7.24,7.24,0,0,1-.679,3.184A5.159,5.159,0,0,1,47.4-.562a5.38,5.38,0,0,1-2.9.786,5.112,5.112,0,0,1-4-1.718,6.577,6.577,0,0,1-1.533-4.548Zm2.089.247A5.2,5.2,0,0,0,41.985-2.7,3,3,0,0,0,44.5-1.471a2.983,2.983,0,0,0,2.516-1.241,5.685,5.685,0,0,0,.932-3.476,5.189,5.189,0,0,0-.949-3.24,3.017,3.017,0,0,0-2.521-1.241,2.983,2.983,0,0,0-2.482,1.224A5.642,5.642,0,0,0,41.047-5.941Zm13.544-6.21.067,1.527A4.428,4.428,0,0,1,58.3-12.376q3.852,0,3.886,4.346V0H60.105V-8.041a2.8,2.8,0,0,0-.6-1.943,2.408,2.408,0,0,0-1.836-.629,3,3,0,0,0-1.774.539A3.661,3.661,0,0,0,54.7-8.659V0H52.626V-12.151ZM70.359.225A5.309,5.309,0,0,1,66.338-1.4a6.023,6.023,0,0,1-1.55-4.341v-.382a7.292,7.292,0,0,1,.691-3.229,5.388,5.388,0,0,1,1.932-2.224,4.857,4.857,0,0,1,2.69-.8,4.551,4.551,0,0,1,3.684,1.561A6.759,6.759,0,0,1,75.1-6.345v.865H66.866a4.319,4.319,0,0,0,1.05,2.9,3.3,3.3,0,0,0,2.555,1.106,3.619,3.619,0,0,0,1.864-.449,4.684,4.684,0,0,0,1.336-1.19l1.269.988A5.1,5.1,0,0,1,70.359.225ZM70.1-10.669a2.771,2.771,0,0,0-2.111.915,4.449,4.449,0,0,0-1.056,2.566h6.087v-.157A3.957,3.957,0,0,0,72.167-9.8,2.609,2.609,0,0,0,70.1-10.669ZM79.759,0H77.681V-17.25h2.078ZM90.585,0a4.364,4.364,0,0,1-.292-1.28,4.636,4.636,0,0,1-3.459,1.5A4.289,4.289,0,0,1,83.886-.792a3.288,3.288,0,0,1-1.151-2.577,3.435,3.435,0,0,1,1.443-2.948,6.8,6.8,0,0,1,4.06-1.05h2.021v-.955a2.333,2.333,0,0,0-.651-1.735,2.618,2.618,0,0,0-1.92-.646,3.03,3.03,0,0,0-1.864.562,1.655,1.655,0,0,0-.752,1.359H82.982a2.867,2.867,0,0,1,.646-1.758,4.407,4.407,0,0,1,1.752-1.342,5.894,5.894,0,0,1,2.431-.494,4.8,4.8,0,0,1,3.291,1.05,3.788,3.788,0,0,1,1.235,2.892v5.593A6.838,6.838,0,0,0,92.764-.18V0ZM87.137-1.583a3.651,3.651,0,0,0,1.853-.505A3.057,3.057,0,0,0,90.259-3.4V-5.9H88.631q-3.818,0-3.818,2.235a1.891,1.891,0,0,0,.651,1.527A2.5,2.5,0,0,0,87.137-1.583Zm7.951-4.593a7.118,7.118,0,0,1,1.325-4.5,4.191,4.191,0,0,1,3.47-1.7,4.214,4.214,0,0,1,3.38,1.46V-17.25h2.078V0h-1.909l-.1-1.3A4.231,4.231,0,0,1,99.861.225,4.15,4.15,0,0,1,96.419-1.5,7.2,7.2,0,0,1,95.088-6.02Zm2.078.236a5.39,5.39,0,0,0,.854,3.234,2.759,2.759,0,0,0,2.358,1.168,3.031,3.031,0,0,0,2.886-1.774V-8.895a3.054,3.054,0,0,0-2.864-1.718A2.772,2.772,0,0,0,98.02-9.434,5.934,5.934,0,0,0,97.166-5.941ZM116.067,0a4.364,4.364,0,0,1-.292-1.28,4.636,4.636,0,0,1-3.459,1.5,4.289,4.289,0,0,1-2.948-1.016,3.288,3.288,0,0,1-1.151-2.577,3.435,3.435,0,0,1,1.443-2.948,6.8,6.8,0,0,1,4.06-1.05h2.021v-.955a2.333,2.333,0,0,0-.651-1.735,2.618,2.618,0,0,0-1.92-.646,3.03,3.03,0,0,0-1.864.562,1.655,1.655,0,0,0-.752,1.359h-2.089a2.867,2.867,0,0,1,.646-1.758,4.407,4.407,0,0,1,1.752-1.342,5.894,5.894,0,0,1,2.431-.494,4.8,4.8,0,0,1,3.291,1.05,3.788,3.788,0,0,1,1.235,2.892v5.593a6.838,6.838,0,0,0,.427,2.662V0Zm-3.448-1.583a3.651,3.651,0,0,0,1.853-.505A3.057,3.057,0,0,0,115.741-3.4V-5.9h-1.628q-3.818,0-3.818,2.235a1.891,1.891,0,0,0,.651,1.527A2.5,2.5,0,0,0,112.619-1.583Zm15.532-1.64a1.53,1.53,0,0,0-.635-1.308,6.108,6.108,0,0,0-2.212-.8,10.46,10.46,0,0,1-2.5-.809,3.563,3.563,0,0,1-1.37-1.123,2.686,2.686,0,0,1-.444-1.55,3.152,3.152,0,0,1,1.263-2.527,4.934,4.934,0,0,1,3.229-1.033,5.077,5.077,0,0,1,3.352,1.067,3.389,3.389,0,0,1,1.286,2.729h-2.089a1.876,1.876,0,0,0-.724-1.471,2.714,2.714,0,0,0-1.825-.618,2.84,2.84,0,0,0-1.774.494,1.555,1.555,0,0,0-.64,1.292,1.26,1.26,0,0,0,.6,1.134,7.323,7.323,0,0,0,2.151.73,11.206,11.206,0,0,1,2.521.831,3.678,3.678,0,0,1,1.432,1.162,2.858,2.858,0,0,1,.466,1.656,3.11,3.11,0,0,1-1.3,2.611,5.464,5.464,0,0,1-3.38.983,6.119,6.119,0,0,1-2.583-.517A4.2,4.2,0,0,1,121.2-1.735a3.478,3.478,0,0,1-.635-2h2.078a2.151,2.151,0,0,0,.837,1.656,3.246,3.246,0,0,0,2.061.612,3.351,3.351,0,0,0,1.892-.477A1.467,1.467,0,0,0,128.151-3.223Z" transform="translate(22 235.429) rotate(-90)" fill="#12263f"/>
        <path id="Trazado_126591" data-name="Trazado 126591" d="M1956.137,89.94,1874.969,83.7,1546.4,89.94" transform="translate(-1357.84 222.754)" fill="none" stroke="#263096" stroke-linecap="round" stroke-linejoin="round" stroke-width="4"/>
      </g>
      <g id="Grupo_86922" data-name="Grupo 86922" transform="translate(2256.618 -30.911)">
        <path id="Trazado_134862" data-name="Trazado 134862" d="M12.32,0H1.112V-2.224L6.4-7.861A13.049,13.049,0,0,0,8.013-9.939a3.338,3.338,0,0,0,.522-1.685,2.5,2.5,0,0,0-.55-1.713,1.986,1.986,0,0,0-1.572-.623,2.142,2.142,0,0,0-1.735.758,3,3,0,0,0-.635,1.993H.786A5.361,5.361,0,0,1,1.5-13.937a5.026,5.026,0,0,1,2.016-1.937,6.127,6.127,0,0,1,2.954-.7,5.8,5.8,0,0,1,3.925,1.213,4.291,4.291,0,0,1,1.4,3.425,5.5,5.5,0,0,1-.629,2.471A13.73,13.73,0,0,1,9.007-6.536L5.29-2.617h7.03ZM23.91-6.154h1.853v2.617H23.91V0H20.664V-3.538h-6.7l-.146-2.044,6.817-10.77H23.91Zm-6.862,0h3.616v-5.772l-.213.371ZM36.308-16.52v2.673h-.314A5.514,5.514,0,0,0,32.45-12.7a4.654,4.654,0,0,0-1.612,3.088,4.421,4.421,0,0,1,3.291-1.325,4.165,4.165,0,0,1,3.392,1.527,6.123,6.123,0,0,1,1.258,4.021A6.023,6.023,0,0,1,38.088-2.5a4.953,4.953,0,0,1-1.954,2.01,5.677,5.677,0,0,1-2.858.719,5.3,5.3,0,0,1-4.172-1.8,6.975,6.975,0,0,1-1.589-4.8V-7.536a10.5,10.5,0,0,1,1.005-4.7,7.37,7.37,0,0,1,2.886-3.156,8.458,8.458,0,0,1,4.363-1.129Zm-3.167,8.2a2.593,2.593,0,0,0-1.426.409,2.465,2.465,0,0,0-.943,1.082v.986a4.37,4.37,0,0,0,.64,2.539,2.069,2.069,0,0,0,1.8.914,2.046,2.046,0,0,0,1.69-.824,3.36,3.36,0,0,0,.646-2.135A3.354,3.354,0,0,0,34.893-7.5,2.123,2.123,0,0,0,33.141-8.322ZM41-1.595a1.634,1.634,0,0,1,.522-1.258,1.853,1.853,0,0,1,1.308-.483,1.868,1.868,0,0,1,1.32.483,1.634,1.634,0,0,1,.522,1.258,1.612,1.612,0,0,1-.517,1.241,1.876,1.876,0,0,1-1.325.477,1.861,1.861,0,0,1-1.314-.477A1.612,1.612,0,0,1,41-1.595ZM54.973-6.536A4.1,4.1,0,0,1,52.008-5.29a4.383,4.383,0,0,1-3.47-1.488,5.881,5.881,0,0,1-1.3-4.015,6.264,6.264,0,0,1,.7-2.948,5.149,5.149,0,0,1,1.96-2.089,5.437,5.437,0,0,1,2.83-.747,5.2,5.2,0,0,1,2.875.809,5.316,5.316,0,0,1,1.954,2.325,8.347,8.347,0,0,1,.708,3.47v1.2a9.458,9.458,0,0,1-2.033,6.424A7.685,7.685,0,0,1,50.47.146l-.8.011V-2.549l.719-.011Q54.625-2.751,54.973-6.536ZM52.806-7.771a2.27,2.27,0,0,0,1.353-.4,2.7,2.7,0,0,0,.859-.977v-1.336a4.463,4.463,0,0,0-.629-2.561,1.952,1.952,0,0,0-1.685-.91,1.9,1.9,0,0,0-1.606.893,3.8,3.8,0,0,0-.629,2.24,3.694,3.694,0,0,0,.612,2.2A1.994,1.994,0,0,0,52.806-7.771Zm18.429-4.234a3.8,3.8,0,0,1-.6,2.111A4.284,4.284,0,0,1,69-8.423a4.742,4.742,0,0,1,1.887,1.578,4.048,4.048,0,0,1,.7,2.364A4.286,4.286,0,0,1,70.1-1.039,6.013,6.013,0,0,1,66.069.225a6.04,6.04,0,0,1-4.043-1.269,4.275,4.275,0,0,1-1.494-3.437,4.074,4.074,0,0,1,.7-2.37A4.656,4.656,0,0,1,63.1-8.423,4.24,4.24,0,0,1,61.47-9.894a3.83,3.83,0,0,1-.59-2.111,4.238,4.238,0,0,1,1.393-3.33,5.483,5.483,0,0,1,3.785-1.241,5.519,5.519,0,0,1,3.779,1.23A4.222,4.222,0,0,1,71.235-12.005ZM68.326-4.717a2.354,2.354,0,0,0-.618-1.707,2.2,2.2,0,0,0-1.662-.64,2.2,2.2,0,0,0-1.651.635,2.35,2.35,0,0,0-.618,1.713,2.349,2.349,0,0,0,.606,1.685,2.209,2.209,0,0,0,1.685.64,2.2,2.2,0,0,0,1.656-.618A2.345,2.345,0,0,0,68.326-4.717Zm-.337-7.131a2.246,2.246,0,0,0-.505-1.533,1.793,1.793,0,0,0-1.426-.578,1.806,1.806,0,0,0-1.415.562,2.233,2.233,0,0,0-.505,1.55,2.347,2.347,0,0,0,.505,1.572,1.769,1.769,0,0,0,1.426.6,1.752,1.752,0,0,0,1.421-.6A2.364,2.364,0,0,0,67.989-11.848ZM81.365-6.536A4.1,4.1,0,0,1,78.4-5.29a4.383,4.383,0,0,1-3.47-1.488,5.881,5.881,0,0,1-1.3-4.015,6.264,6.264,0,0,1,.7-2.948,5.149,5.149,0,0,1,1.96-2.089,5.437,5.437,0,0,1,2.83-.747,5.2,5.2,0,0,1,2.875.809,5.316,5.316,0,0,1,1.954,2.325,8.347,8.347,0,0,1,.708,3.47v1.2a9.458,9.458,0,0,1-2.033,6.424A7.685,7.685,0,0,1,76.861.146l-.8.011V-2.549l.719-.011Q81.017-2.751,81.365-6.536ZM79.2-7.771a2.27,2.27,0,0,0,1.353-.4,2.7,2.7,0,0,0,.859-.977v-1.336a4.463,4.463,0,0,0-.629-2.561,1.952,1.952,0,0,0-1.685-.91,1.9,1.9,0,0,0-1.606.893,3.8,3.8,0,0,0-.629,2.24,3.694,3.694,0,0,0,.612,2.2A1.994,1.994,0,0,0,79.2-7.771ZM87.946,4.1l-1.7-.887.4-.73a5.835,5.835,0,0,0,.775-2.729V-2.763h2.74L90.158-.517A5.835,5.835,0,0,1,89.529,2,6.449,6.449,0,0,1,87.946,4.1ZM101.389-16.52v2.673h-.314A5.514,5.514,0,0,0,97.531-12.7a4.654,4.654,0,0,0-1.612,3.088,4.421,4.421,0,0,1,3.291-1.325A4.165,4.165,0,0,1,102.6-9.411a6.123,6.123,0,0,1,1.258,4.021,6.023,6.023,0,0,1-.691,2.886,4.953,4.953,0,0,1-1.954,2.01,5.677,5.677,0,0,1-2.858.719,5.3,5.3,0,0,1-4.172-1.8,6.975,6.975,0,0,1-1.589-4.8V-7.536a10.5,10.5,0,0,1,1.005-4.7,7.37,7.37,0,0,1,2.886-3.156,8.458,8.458,0,0,1,4.363-1.129Zm-3.167,8.2a2.593,2.593,0,0,0-1.426.409,2.465,2.465,0,0,0-.943,1.082v.986a4.37,4.37,0,0,0,.64,2.539,2.069,2.069,0,0,0,1.8.914,2.046,2.046,0,0,0,1.69-.824,3.36,3.36,0,0,0,.646-2.135A3.354,3.354,0,0,0,99.974-7.5,2.123,2.123,0,0,0,98.222-8.322Zm18.564,1.561a8.284,8.284,0,0,1-1.4,5.188,4.9,4.9,0,0,1-4.11,1.8,4.934,4.934,0,0,1-4.088-1.763,8.041,8.041,0,0,1-1.449-5.054V-9.6a8.175,8.175,0,0,1,1.421-5.2,4.937,4.937,0,0,1,4.094-1.774,4.941,4.941,0,0,1,4.088,1.758,8.016,8.016,0,0,1,1.449,5.048ZM113.54-10.07a5.988,5.988,0,0,0-.556-2.962,1.879,1.879,0,0,0-1.735-.927,1.845,1.845,0,0,0-1.69.882,5.6,5.6,0,0,0-.578,2.76v3.979a6.285,6.285,0,0,0,.545,2.973,1.854,1.854,0,0,0,1.746.972,1.823,1.823,0,0,0,1.718-.933,6.135,6.135,0,0,0,.55-2.855Z" transform="translate(180.708 81.09)" fill="#12263f"/>
        <path id="Trazado_134865" data-name="Trazado 134865" d="M9,0H5.75V-12.528l-3.875,1.2v-2.617l6.772-2.426H9ZM25.313-6.761a8.284,8.284,0,0,1-1.4,5.188A4.9,4.9,0,0,1,19.8.225a4.934,4.934,0,0,1-4.088-1.763,8.041,8.041,0,0,1-1.449-5.054V-9.6a8.175,8.175,0,0,1,1.421-5.2,4.937,4.937,0,0,1,4.094-1.774,4.941,4.941,0,0,1,4.088,1.758,8.016,8.016,0,0,1,1.449,5.048ZM22.068-10.07a5.988,5.988,0,0,0-.556-2.962,1.879,1.879,0,0,0-1.735-.927,1.845,1.845,0,0,0-1.69.882,5.6,5.6,0,0,0-.578,2.76v3.979a6.285,6.285,0,0,0,.545,2.973,1.854,1.854,0,0,0,1.746.972,1.823,1.823,0,0,0,1.718-.933,6.135,6.135,0,0,0,.55-2.855ZM38.509-6.761a8.284,8.284,0,0,1-1.4,5.188A4.9,4.9,0,0,1,33,.225a4.934,4.934,0,0,1-4.088-1.763,8.041,8.041,0,0,1-1.449-5.054V-9.6a8.175,8.175,0,0,1,1.421-5.2,4.937,4.937,0,0,1,4.094-1.774,4.941,4.941,0,0,1,4.088,1.758,8.016,8.016,0,0,1,1.449,5.048ZM35.264-10.07a5.988,5.988,0,0,0-.556-2.962,1.879,1.879,0,0,0-1.735-.927,1.845,1.845,0,0,0-1.69.882,5.6,5.6,0,0,0-.578,2.76v3.979a6.285,6.285,0,0,0,.545,2.973A1.854,1.854,0,0,0,33-2.392a1.823,1.823,0,0,0,1.718-.933,6.135,6.135,0,0,0,.55-2.855ZM41-1.595a1.634,1.634,0,0,1,.522-1.258,1.853,1.853,0,0,1,1.308-.483,1.868,1.868,0,0,1,1.32.483,1.634,1.634,0,0,1,.522,1.258,1.612,1.612,0,0,1-.517,1.241,1.876,1.876,0,0,1-1.325.477,1.861,1.861,0,0,1-1.314-.477A1.612,1.612,0,0,1,41-1.595ZM58.5-14.54,52.177,0H48.751l6.334-13.735H46.955v-2.617H58.5ZM71.785,0H60.577V-2.224l5.29-5.638a13.049,13.049,0,0,0,1.612-2.078A3.338,3.338,0,0,0,68-11.624a2.5,2.5,0,0,0-.55-1.713,1.986,1.986,0,0,0-1.572-.623,2.142,2.142,0,0,0-1.735.758,3,3,0,0,0-.635,1.993H60.251a5.361,5.361,0,0,1,.713-2.729,5.026,5.026,0,0,1,2.016-1.937,6.127,6.127,0,0,1,2.954-.7,5.8,5.8,0,0,1,3.925,1.213,4.291,4.291,0,0,1,1.4,3.425,5.5,5.5,0,0,1-.629,2.471,13.73,13.73,0,0,1-2.156,2.931L64.755-2.617h7.03Zm2.471-8.041.943-8.311h9.164v2.707h-6.5l-.4,3.515a5.146,5.146,0,0,1,2.459-.618A4.713,4.713,0,0,1,83.577-9.3,5.787,5.787,0,0,1,84.9-5.245a5.928,5.928,0,0,1-.668,2.836A4.716,4.716,0,0,1,82.319-.466a5.978,5.978,0,0,1-2.942.691,6.348,6.348,0,0,1-2.751-.6,4.88,4.88,0,0,1-2-1.69,4.606,4.606,0,0,1-.781-2.482h3.212a2.4,2.4,0,0,0,.713,1.589,2.261,2.261,0,0,0,1.6.567,2,2,0,0,0,1.7-.792,3.668,3.668,0,0,0,.6-2.24,3.033,3.033,0,0,0-.685-2.134A2.514,2.514,0,0,0,79.029-8.3a2.809,2.809,0,0,0-1.875.606l-.314.292ZM87.946,4.1l-1.7-.887.4-.73a5.835,5.835,0,0,0,.775-2.729V-2.763h2.74L90.158-.517A5.835,5.835,0,0,1,89.529,2,6.449,6.449,0,0,1,87.946,4.1ZM103.792,0H92.584V-2.224l5.29-5.638a13.049,13.049,0,0,0,1.612-2.078,3.338,3.338,0,0,0,.522-1.685,2.5,2.5,0,0,0-.55-1.713,1.986,1.986,0,0,0-1.572-.623,2.142,2.142,0,0,0-1.735.758,3,3,0,0,0-.635,1.993H92.258a5.361,5.361,0,0,1,.713-2.729,5.026,5.026,0,0,1,2.016-1.937,6.127,6.127,0,0,1,2.954-.7,5.8,5.8,0,0,1,3.925,1.213,4.291,4.291,0,0,1,1.4,3.425,5.5,5.5,0,0,1-.629,2.471,13.73,13.73,0,0,1-2.156,2.931L96.762-2.617h7.03Zm12.994-6.761a8.284,8.284,0,0,1-1.4,5.188,4.9,4.9,0,0,1-4.11,1.8,4.934,4.934,0,0,1-4.088-1.763,8.041,8.041,0,0,1-1.449-5.054V-9.6a8.175,8.175,0,0,1,1.421-5.2,4.937,4.937,0,0,1,4.094-1.774,4.941,4.941,0,0,1,4.088,1.758,8.016,8.016,0,0,1,1.449,5.048ZM113.54-10.07a5.988,5.988,0,0,0-.556-2.962,1.879,1.879,0,0,0-1.735-.927,1.845,1.845,0,0,0-1.69.882,5.6,5.6,0,0,0-.578,2.76v3.979a6.285,6.285,0,0,0,.545,2.973,1.854,1.854,0,0,0,1.746.972,1.823,1.823,0,0,0,1.718-.933,6.135,6.135,0,0,0,.55-2.855Z" transform="translate(180.708 140.18)" fill="#12263f"/>
        <path id="Trazado_134868" data-name="Trazado 134868" d="M12.32,0H1.112V-2.224L6.4-7.861A13.049,13.049,0,0,0,8.013-9.939a3.338,3.338,0,0,0,.522-1.685,2.5,2.5,0,0,0-.55-1.713,1.986,1.986,0,0,0-1.572-.623,2.142,2.142,0,0,0-1.735.758,3,3,0,0,0-.635,1.993H.786A5.361,5.361,0,0,1,1.5-13.937a5.026,5.026,0,0,1,2.016-1.937,6.127,6.127,0,0,1,2.954-.7,5.8,5.8,0,0,1,3.925,1.213,4.291,4.291,0,0,1,1.4,3.425,5.5,5.5,0,0,1-.629,2.471A13.73,13.73,0,0,1,9.007-6.536L5.29-2.617h7.03Zm2.291-1.595a1.634,1.634,0,0,1,.522-1.258,1.853,1.853,0,0,1,1.308-.483,1.868,1.868,0,0,1,1.32.483,1.634,1.634,0,0,1,.522,1.258,1.612,1.612,0,0,1-.517,1.241,1.876,1.876,0,0,1-1.325.477,1.861,1.861,0,0,1-1.314-.477A1.612,1.612,0,0,1,14.611-1.595Zm17.5-12.945L25.785,0H22.36l6.334-13.735H20.563v-2.617H32.108ZM45.191-6.761a8.284,8.284,0,0,1-1.4,5.188,4.9,4.9,0,0,1-4.11,1.8,4.934,4.934,0,0,1-4.088-1.763,8.041,8.041,0,0,1-1.449-5.054V-9.6a8.175,8.175,0,0,1,1.421-5.2,4.937,4.937,0,0,1,4.094-1.774,4.941,4.941,0,0,1,4.088,1.758,8.016,8.016,0,0,1,1.449,5.048ZM41.946-10.07a5.988,5.988,0,0,0-.556-2.962,1.879,1.879,0,0,0-1.735-.927,1.845,1.845,0,0,0-1.69.882,5.6,5.6,0,0,0-.578,2.76v3.979a6.285,6.285,0,0,0,.545,2.973,1.854,1.854,0,0,0,1.746.972A1.823,1.823,0,0,0,41.4-3.325a6.135,6.135,0,0,0,.55-2.855ZM56.983-6.154h1.853v2.617H56.983V0H53.738V-3.538h-6.7l-.146-2.044L53.7-16.352h3.279Zm-6.862,0h3.616v-5.772l-.213.371ZM61.554,4.1l-1.7-.887.4-.73a5.835,5.835,0,0,0,.775-2.729V-2.763h2.74L63.767-.517A5.835,5.835,0,0,1,63.138,2,6.449,6.449,0,0,1,61.554,4.1Zm7.94-13.712h1.729a2.437,2.437,0,0,0,1.831-.618,2.263,2.263,0,0,0,.6-1.64,2,2,0,0,0-.59-1.539,2.285,2.285,0,0,0-1.623-.55,2.4,2.4,0,0,0-1.561.511,1.634,1.634,0,0,0-.629,1.331H66a3.991,3.991,0,0,1,.691-2.3A4.6,4.6,0,0,1,68.624-16a6.447,6.447,0,0,1,2.735-.573,6.114,6.114,0,0,1,4.065,1.241,4.234,4.234,0,0,1,1.471,3.42,3.441,3.441,0,0,1-.685,2.066,4.451,4.451,0,0,1-1.8,1.449,4.063,4.063,0,0,1,2.061,1.482,4.021,4.021,0,0,1,.679,2.336,4.3,4.3,0,0,1-1.589,3.493A6.389,6.389,0,0,1,71.358.225a6.058,6.058,0,0,1-4-1.292A4.218,4.218,0,0,1,65.8-4.481h3.246a1.88,1.88,0,0,0,.691,1.5,2.545,2.545,0,0,0,1.7.584A2.557,2.557,0,0,0,73.251-3a2.113,2.113,0,0,0,.657-1.623q0-2.448-2.7-2.448H69.494Zm20.9,2.853a8.284,8.284,0,0,1-1.4,5.188,4.9,4.9,0,0,1-4.11,1.8,4.934,4.934,0,0,1-4.088-1.763,8.041,8.041,0,0,1-1.449-5.054V-9.6a8.175,8.175,0,0,1,1.421-5.2,4.937,4.937,0,0,1,4.094-1.774,4.941,4.941,0,0,1,4.088,1.758,8.016,8.016,0,0,1,1.449,5.048ZM87.148-10.07a5.988,5.988,0,0,0-.556-2.962,1.879,1.879,0,0,0-1.735-.927,1.845,1.845,0,0,0-1.69.882,5.6,5.6,0,0,0-.578,2.76v3.979a6.285,6.285,0,0,0,.545,2.973,1.854,1.854,0,0,0,1.746.972A1.823,1.823,0,0,0,86.6-3.325a6.135,6.135,0,0,0,.55-2.855Z" transform="translate(180.708 258.361)" fill="#12263f"/>
        <path id="Trazado_134860" data-name="Trazado 134860" d="M9,0H5.75V-12.528l-3.875,1.2v-2.617l6.772-2.426H9ZM23.112-16.52v2.673H22.8A5.514,5.514,0,0,0,19.255-12.7a4.654,4.654,0,0,0-1.612,3.088,4.421,4.421,0,0,1,3.291-1.325,4.165,4.165,0,0,1,3.392,1.527,6.123,6.123,0,0,1,1.258,4.021A6.023,6.023,0,0,1,24.892-2.5a4.953,4.953,0,0,1-1.954,2.01A5.677,5.677,0,0,1,20.08.225a5.3,5.3,0,0,1-4.172-1.8,6.975,6.975,0,0,1-1.589-4.8V-7.536a10.5,10.5,0,0,1,1.005-4.7,7.37,7.37,0,0,1,2.886-3.156,8.458,8.458,0,0,1,4.363-1.129Zm-3.167,8.2a2.593,2.593,0,0,0-1.426.409,2.465,2.465,0,0,0-.943,1.082v.986a4.37,4.37,0,0,0,.64,2.539,2.069,2.069,0,0,0,1.8.914,2.046,2.046,0,0,0,1.69-.824,3.36,3.36,0,0,0,.646-2.135A3.354,3.354,0,0,0,21.7-7.5,2.123,2.123,0,0,0,19.945-8.322ZM38.622-14.54,32.3,0H28.874l6.334-13.735H27.077v-2.617H38.622ZM41.676,4.1l-1.7-.887.4-.73A5.835,5.835,0,0,0,41.16-.247V-2.763H43.9L43.889-.517A5.835,5.835,0,0,1,43.26,2,6.449,6.449,0,0,1,41.676,4.1ZM57.32-6.761a8.284,8.284,0,0,1-1.4,5.188,4.9,4.9,0,0,1-4.11,1.8,4.934,4.934,0,0,1-4.088-1.763A8.041,8.041,0,0,1,46.27-6.592V-9.6a8.175,8.175,0,0,1,1.421-5.2,4.937,4.937,0,0,1,4.094-1.774,4.941,4.941,0,0,1,4.088,1.758A8.016,8.016,0,0,1,57.32-9.771ZM54.075-10.07a5.988,5.988,0,0,0-.556-2.962,1.879,1.879,0,0,0-1.735-.927,1.845,1.845,0,0,0-1.69.882,5.6,5.6,0,0,0-.578,2.76v3.979a6.285,6.285,0,0,0,.545,2.973,1.854,1.854,0,0,0,1.746.972,1.823,1.823,0,0,0,1.718-.933,6.135,6.135,0,0,0,.55-2.855ZM70.516-6.761a8.284,8.284,0,0,1-1.4,5.188A4.9,4.9,0,0,1,65,.225a4.934,4.934,0,0,1-4.088-1.763,8.041,8.041,0,0,1-1.449-5.054V-9.6a8.175,8.175,0,0,1,1.421-5.2,4.937,4.937,0,0,1,4.094-1.774,4.941,4.941,0,0,1,4.088,1.758,8.016,8.016,0,0,1,1.449,5.048ZM67.271-10.07a5.988,5.988,0,0,0-.556-2.962,1.879,1.879,0,0,0-1.735-.927,1.845,1.845,0,0,0-1.69.882,5.6,5.6,0,0,0-.578,2.76v3.979a6.285,6.285,0,0,0,.545,2.973A1.854,1.854,0,0,0,65-2.392a1.823,1.823,0,0,0,1.718-.933,6.135,6.135,0,0,0,.55-2.855Z" transform="translate(180.708 22)" fill="#12263f"/>
        <path id="Trazado_134861" data-name="Trazado 134861" d="M10.691-3.369H4.784L3.661,0H.079L6.166-16.352H9.288L15.408,0H11.826Zm-5-2.729H9.782L7.727-12.219ZM22.315.225a5.965,5.965,0,0,1-4.352-1.64,5.828,5.828,0,0,1-1.679-4.369V-6.1a7.341,7.341,0,0,1,.708-3.274A5.192,5.192,0,0,1,19-11.6a5.627,5.627,0,0,1,2.959-.781A5.043,5.043,0,0,1,25.881-10.8a6.389,6.389,0,0,1,1.432,4.458V-5.02H19.575a3.015,3.015,0,0,0,.949,1.909,2.869,2.869,0,0,0,2,.719,3.5,3.5,0,0,0,2.931-1.359l1.595,1.786A4.872,4.872,0,0,1,25.078-.354,6.485,6.485,0,0,1,22.315.225Zm-.371-9.984a2.028,2.028,0,0,0-1.567.654,3.388,3.388,0,0,0-.769,1.873h4.515v-.26a2.416,2.416,0,0,0-.584-1.675A2.092,2.092,0,0,0,21.944-9.759Zm.292-7.491h3.538l-3.111,3.481H20.024ZM35.982-9.108a8.818,8.818,0,0,0-1.168-.09A2.377,2.377,0,0,0,32.4-7.951V0H29.154V-12.151H32.22l.09,1.449a3.007,3.007,0,0,1,2.707-1.673,3.4,3.4,0,0,1,1.011.146ZM42.923.225a5.965,5.965,0,0,1-4.352-1.64,5.828,5.828,0,0,1-1.679-4.369V-6.1A7.341,7.341,0,0,1,37.6-9.372a5.192,5.192,0,0,1,2-2.224,5.627,5.627,0,0,1,2.959-.781A5.043,5.043,0,0,1,46.489-10.8,6.389,6.389,0,0,1,47.92-6.345V-5.02H40.183a3.015,3.015,0,0,0,.949,1.909,2.869,2.869,0,0,0,2,.719,3.5,3.5,0,0,0,2.931-1.359l1.595,1.786A4.872,4.872,0,0,1,45.686-.354,6.485,6.485,0,0,1,42.923.225Zm-.371-9.984a2.028,2.028,0,0,0-1.567.654,3.388,3.388,0,0,0-.769,1.873h4.515v-.26a2.416,2.416,0,0,0-.584-1.675A2.092,2.092,0,0,0,42.552-9.759Zm6.7,3.571a7.206,7.206,0,0,1,.7-3.223,5.1,5.1,0,0,1,2-2.19A5.849,5.849,0,0,1,55-12.376a5.533,5.533,0,0,1,4.015,1.5,6.04,6.04,0,0,1,1.735,4.088l.022.831a6.351,6.351,0,0,1-1.561,4.487A5.426,5.426,0,0,1,55.018.225,5.453,5.453,0,0,1,50.823-1.46a6.463,6.463,0,0,1-1.567-4.582Zm3.246.23a4.542,4.542,0,0,0,.651,2.649,2.149,2.149,0,0,0,1.864.917A2.154,2.154,0,0,0,56.86-3.3a4.97,4.97,0,0,0,.663-2.9,4.5,4.5,0,0,0-.663-2.632A2.154,2.154,0,0,0,55-9.759a2.119,2.119,0,0,0-1.842.928A5.054,5.054,0,0,0,52.5-5.958Z" transform="translate(38.45 22)" fill="#12263f"/>
        <path id="Trazado_134863" data-name="Trazado 134863" d="M14.3-5.447a5.786,5.786,0,0,1-1.948,4.155A6.843,6.843,0,0,1,7.715.225,6.153,6.153,0,0,1,2.768-1.892,8.68,8.68,0,0,1,.966-7.7v-1A9.8,9.8,0,0,1,1.8-12.859a6.228,6.228,0,0,1,2.375-2.757,6.654,6.654,0,0,1,3.588-.96,6.666,6.666,0,0,1,4.56,1.516,6.218,6.218,0,0,1,2,4.256H10.95a3.415,3.415,0,0,0-.882-2.3,3.265,3.265,0,0,0-2.308-.713,2.863,2.863,0,0,0-2.521,1.207A6.766,6.766,0,0,0,4.38-8.861v1.235a7.242,7.242,0,0,0,.8,3.875A2.81,2.81,0,0,0,7.715-2.527a3.326,3.326,0,0,0,2.33-.713,3.221,3.221,0,0,0,.882-2.207ZM23.337,0a3.6,3.6,0,0,1-.326-1.089A3.927,3.927,0,0,1,19.945.225,4.314,4.314,0,0,1,16.986-.809a3.323,3.323,0,0,1-1.174-2.605,3.434,3.434,0,0,1,1.432-2.965,7.065,7.065,0,0,1,4.138-1.044h1.494v-.7a2,2,0,0,0-.432-1.348,1.7,1.7,0,0,0-1.365-.505,1.934,1.934,0,0,0-1.286.393A1.335,1.335,0,0,0,19.328-8.5H16.082a3.26,3.26,0,0,1,.651-1.954,4.306,4.306,0,0,1,1.842-1.409,6.712,6.712,0,0,1,2.673-.511,5.3,5.3,0,0,1,3.566,1.129,3.948,3.948,0,0,1,1.32,3.173v5.267a5.809,5.809,0,0,0,.483,2.617V0ZM20.653-2.257a2.8,2.8,0,0,0,1.325-.32,2.1,2.1,0,0,0,.9-.859V-5.525H21.664q-2.437,0-2.594,1.685l-.011.191a1.3,1.3,0,0,0,.427,1A1.658,1.658,0,0,0,20.653-2.257ZM39.576-5.963A7.358,7.358,0,0,1,38.33-1.409,4.129,4.129,0,0,1,34.848.225a3.794,3.794,0,0,1-3.156-1.516L31.546,0h-2.92V-17.25h3.246v6.188a3.7,3.7,0,0,1,2.954-1.314,4.163,4.163,0,0,1,3.487,1.634,7.369,7.369,0,0,1,1.263,4.6Zm-3.246-.247a4.861,4.861,0,0,0-.584-2.7,1.973,1.973,0,0,0-1.741-.851,2.14,2.14,0,0,0-2.134,1.273v4.81a2.169,2.169,0,0,0,2.156,1.284,2,2,0,0,0,2.066-1.555A8.042,8.042,0,0,0,36.331-6.211Zm4.739.023a7.206,7.206,0,0,1,.7-3.223,5.1,5.1,0,0,1,2-2.19,5.849,5.849,0,0,1,3.038-.775,5.533,5.533,0,0,1,4.015,1.5,6.04,6.04,0,0,1,1.735,4.088l.022.831A6.351,6.351,0,0,1,51.02-1.466,5.426,5.426,0,0,1,46.831.225,5.453,5.453,0,0,1,42.636-1.46,6.463,6.463,0,0,1,41.07-6.042Zm3.246.23a4.542,4.542,0,0,0,.651,2.649,2.149,2.149,0,0,0,1.864.917A2.154,2.154,0,0,0,48.673-3.3a4.97,4.97,0,0,0,.663-2.9,4.5,4.5,0,0,0-.663-2.632,2.154,2.154,0,0,0-1.864-.934,2.119,2.119,0,0,0-1.842.928A5.054,5.054,0,0,0,44.315-5.958Zm14.15-9.181v2.987h2.078v2.381H58.466v6.064a1.448,1.448,0,0,0,.258.966,1.3,1.3,0,0,0,.988.292,5.176,5.176,0,0,0,.955-.079V-.067A6.682,6.682,0,0,1,58.7.225q-3.414,0-3.481-3.448V-9.771H53.446v-2.381H55.22v-2.987ZM69.393,0a3.6,3.6,0,0,1-.326-1.089A3.927,3.927,0,0,1,66,.225,4.314,4.314,0,0,1,63.042-.809a3.323,3.323,0,0,1-1.174-2.605A3.434,3.434,0,0,1,63.3-6.379a7.065,7.065,0,0,1,4.138-1.044h1.494v-.7A2,2,0,0,0,68.5-9.467a1.7,1.7,0,0,0-1.365-.505,1.934,1.934,0,0,0-1.286.393A1.335,1.335,0,0,0,65.384-8.5H62.138a3.26,3.26,0,0,1,.651-1.954,4.306,4.306,0,0,1,1.842-1.409,6.712,6.712,0,0,1,2.673-.511,5.3,5.3,0,0,1,3.566,1.129,3.948,3.948,0,0,1,1.32,3.173v5.267a5.809,5.809,0,0,0,.483,2.617V0ZM66.709-2.257a2.8,2.8,0,0,0,1.325-.32,2.1,2.1,0,0,0,.9-.859V-5.525H67.72q-2.437,0-2.594,1.685l-.011.191a1.3,1.3,0,0,0,.427,1A1.658,1.658,0,0,0,66.709-2.257Zm11.41-9.894V.663A4.347,4.347,0,0,1,77.052,3.79a4.055,4.055,0,0,1-3.077,1.117,6.6,6.6,0,0,1-1.606-.191V2.145a6.092,6.092,0,0,0,1.022.1q1.471,0,1.471-1.561V-12.151ZM74.6-15.3a1.6,1.6,0,0,1,.489-1.2,1.835,1.835,0,0,1,1.331-.472,1.835,1.835,0,0,1,1.331.472,1.6,1.6,0,0,1,.489,1.2,1.593,1.593,0,0,1-.5,1.213,1.844,1.844,0,0,1-1.32.472,1.844,1.844,0,0,1-1.32-.472A1.593,1.593,0,0,1,74.6-15.3ZM86.25.225A5.965,5.965,0,0,1,81.9-1.415a5.828,5.828,0,0,1-1.679-4.369V-6.1a7.341,7.341,0,0,1,.708-3.274,5.192,5.192,0,0,1,2-2.224,5.627,5.627,0,0,1,2.959-.781A5.043,5.043,0,0,1,89.816-10.8a6.389,6.389,0,0,1,1.432,4.458V-5.02H83.51a3.015,3.015,0,0,0,.949,1.909,2.869,2.869,0,0,0,2,.719,3.5,3.5,0,0,0,2.931-1.359l1.595,1.786A4.872,4.872,0,0,1,89.013-.354,6.485,6.485,0,0,1,86.25.225Zm-.371-9.984a2.028,2.028,0,0,0-1.567.654,3.388,3.388,0,0,0-.769,1.873h4.515v-.26a2.416,2.416,0,0,0-.584-1.675A2.092,2.092,0,0,0,85.879-9.759Z" transform="translate(38.669 81.09)" fill="#12263f"/>
        <path id="Trazado_134864" data-name="Trazado 134864" d="M11.3-6.682H4.829V0H1.46V-16.352H12.106v2.729H4.829V-9.4H11.3ZM19.2.225a5.965,5.965,0,0,1-4.352-1.64,5.828,5.828,0,0,1-1.679-4.369V-6.1a7.341,7.341,0,0,1,.708-3.274,5.192,5.192,0,0,1,2-2.224,5.627,5.627,0,0,1,2.959-.781A5.043,5.043,0,0,1,22.77-10.8,6.389,6.389,0,0,1,24.2-6.345V-5.02H16.464a3.015,3.015,0,0,0,.949,1.909,2.869,2.869,0,0,0,2,.719,3.5,3.5,0,0,0,2.931-1.359l1.595,1.786A4.872,4.872,0,0,1,21.967-.354,6.485,6.485,0,0,1,19.2.225Zm-.371-9.984a2.028,2.028,0,0,0-1.567.654A3.388,3.388,0,0,0,16.5-7.232h4.515v-.26a2.416,2.416,0,0,0-.584-1.675A2.092,2.092,0,0,0,18.833-9.759Zm14.038.651A8.818,8.818,0,0,0,31.7-9.2a2.377,2.377,0,0,0-2.415,1.247V0H26.043V-12.151h3.066L29.2-10.7a3.007,3.007,0,0,1,2.707-1.673,3.4,3.4,0,0,1,1.011.146Zm8.389,0a8.818,8.818,0,0,0-1.168-.09,2.377,2.377,0,0,0-2.415,1.247V0H34.433V-12.151H37.5l.09,1.449a3.007,3.007,0,0,1,2.707-1.673,3.4,3.4,0,0,1,1.011.146Zm.651,2.92a7.206,7.206,0,0,1,.7-3.223,5.1,5.1,0,0,1,2-2.19,5.849,5.849,0,0,1,3.038-.775,5.533,5.533,0,0,1,4.015,1.5A6.04,6.04,0,0,1,53.4-6.783l.022.831a6.351,6.351,0,0,1-1.561,4.487A5.426,5.426,0,0,1,47.673.225,5.453,5.453,0,0,1,43.479-1.46a6.463,6.463,0,0,1-1.567-4.582Zm3.246.23a4.542,4.542,0,0,0,.651,2.649,2.149,2.149,0,0,0,1.864.917A2.154,2.154,0,0,0,49.515-3.3a4.97,4.97,0,0,0,.663-2.9,4.5,4.5,0,0,0-.663-2.632,2.154,2.154,0,0,0-1.864-.934,2.119,2.119,0,0,0-1.842.928A5.054,5.054,0,0,0,45.158-5.958ZM59.8-3.964l2.257-8.187h3.392L61.352,0h-3.1l-4.1-12.151h3.392ZM70.3,0H67.046V-12.151H70.3ZM66.855-15.3a1.6,1.6,0,0,1,.489-1.2,1.835,1.835,0,0,1,1.331-.472A1.839,1.839,0,0,1,70-16.5a1.589,1.589,0,0,1,.494,1.2,1.593,1.593,0,0,1-.5,1.213,1.844,1.844,0,0,1-1.32.472,1.844,1.844,0,0,1-1.32-.472A1.593,1.593,0,0,1,66.855-15.3ZM80.017,0a3.6,3.6,0,0,1-.326-1.089A3.927,3.927,0,0,1,76.625.225,4.314,4.314,0,0,1,73.666-.809a3.323,3.323,0,0,1-1.174-2.605,3.434,3.434,0,0,1,1.432-2.965,7.065,7.065,0,0,1,4.138-1.044h1.494v-.7a2,2,0,0,0-.432-1.348,1.7,1.7,0,0,0-1.365-.505,1.934,1.934,0,0,0-1.286.393A1.335,1.335,0,0,0,76.008-8.5H72.762a3.26,3.26,0,0,1,.651-1.954,4.306,4.306,0,0,1,1.842-1.409,6.712,6.712,0,0,1,2.673-.511,5.3,5.3,0,0,1,3.566,1.129,3.948,3.948,0,0,1,1.32,3.173v5.267A5.809,5.809,0,0,0,83.3-.191V0ZM77.333-2.257a2.8,2.8,0,0,0,1.325-.32,2.1,2.1,0,0,0,.9-.859V-5.525H78.344q-2.437,0-2.594,1.685l-.011.191a1.3,1.3,0,0,0,.427,1A1.658,1.658,0,0,0,77.333-2.257Zm14.8-6.851a8.818,8.818,0,0,0-1.168-.09,2.377,2.377,0,0,0-2.415,1.247V0H85.307V-12.151h3.066l.09,1.449a3.007,3.007,0,0,1,2.707-1.673,3.4,3.4,0,0,1,1.011.146ZM97.121,0H93.864V-12.151h3.257ZM93.673-15.3a1.6,1.6,0,0,1,.489-1.2,1.835,1.835,0,0,1,1.331-.472,1.839,1.839,0,0,1,1.325.472,1.589,1.589,0,0,1,.494,1.2,1.593,1.593,0,0,1-.5,1.213,1.844,1.844,0,0,1-1.32.472,1.844,1.844,0,0,1-1.32-.472A1.593,1.593,0,0,1,93.673-15.3Zm5.615,9.108a7.206,7.206,0,0,1,.7-3.223,5.1,5.1,0,0,1,2-2.19,5.849,5.849,0,0,1,3.038-.775,5.533,5.533,0,0,1,4.015,1.5,6.04,6.04,0,0,1,1.735,4.088l.022.831a6.351,6.351,0,0,1-1.561,4.487A5.426,5.426,0,0,1,105.05.225a5.453,5.453,0,0,1-4.195-1.685,6.463,6.463,0,0,1-1.567-4.582Zm3.246.23a4.542,4.542,0,0,0,.651,2.649,2.149,2.149,0,0,0,1.864.917,2.154,2.154,0,0,0,1.842-.905,4.97,4.97,0,0,0,.663-2.9,4.5,4.5,0,0,0-.663-2.632,2.154,2.154,0,0,0-1.864-.934,2.119,2.119,0,0,0-1.842.928A5.054,5.054,0,0,0,102.534-5.958Z" transform="translate(38.669 140.18)" fill="#12263f"/>
        <path id="Trazado_134866" data-name="Trazado 134866" d="M11.3-6.682H4.829V0H1.46V-16.352H12.106v2.729H4.829V-9.4H11.3ZM17.272,0H14.016V-17.25h3.257Zm9.95-1.235A4.07,4.07,0,0,1,23.9.225,3.839,3.839,0,0,1,20.917-.9a4.794,4.794,0,0,1-1.05-3.291v-7.962h3.246v7.859q0,1.9,1.729,1.9A2.343,2.343,0,0,0,27.11-3.539v-8.612h3.257V0H27.313ZM37.364-3.964l2.257-8.187h3.392L38.914,0h-3.1l-4.1-12.151h3.392ZM47.864,0H44.607V-12.151h3.257ZM44.417-15.3a1.6,1.6,0,0,1,.489-1.2,1.835,1.835,0,0,1,1.331-.472,1.839,1.839,0,0,1,1.325.472,1.589,1.589,0,0,1,.494,1.2,1.593,1.593,0,0,1-.5,1.213,1.844,1.844,0,0,1-1.32.472,1.844,1.844,0,0,1-1.32-.472A1.593,1.593,0,0,1,44.417-15.3ZM57.579,0a3.6,3.6,0,0,1-.326-1.089A3.927,3.927,0,0,1,54.187.225,4.314,4.314,0,0,1,51.228-.809a3.323,3.323,0,0,1-1.174-2.605,3.434,3.434,0,0,1,1.432-2.965,7.065,7.065,0,0,1,4.138-1.044h1.494v-.7a2,2,0,0,0-.432-1.348,1.7,1.7,0,0,0-1.365-.505,1.934,1.934,0,0,0-1.286.393A1.335,1.335,0,0,0,53.569-8.5H50.324a3.26,3.26,0,0,1,.651-1.954,4.306,4.306,0,0,1,1.842-1.409,6.712,6.712,0,0,1,2.673-.511,5.3,5.3,0,0,1,3.566,1.129,3.948,3.948,0,0,1,1.32,3.173v5.267a5.809,5.809,0,0,0,.483,2.617V0ZM54.895-2.257a2.8,2.8,0,0,0,1.325-.32,2.1,2.1,0,0,0,.9-.859V-5.525H55.905q-2.437,0-2.594,1.685L53.3-3.65a1.3,1.3,0,0,0,.427,1A1.658,1.658,0,0,0,54.895-2.257ZM66.293,0H63.037V-17.25h3.257Z" transform="translate(40.301 199.27)" fill="#12263f"/>
        <path id="Trazado_134869" data-name="Trazado 134869" d="M13.769-13.623H8.76V0H5.391V-13.623H.449v-2.729H13.769ZM20.069.225a5.965,5.965,0,0,1-4.352-1.64,5.828,5.828,0,0,1-1.679-4.369V-6.1a7.341,7.341,0,0,1,.708-3.274,5.192,5.192,0,0,1,2-2.224,5.627,5.627,0,0,1,2.959-.781A5.043,5.043,0,0,1,23.635-10.8a6.389,6.389,0,0,1,1.432,4.458V-5.02H17.329a3.015,3.015,0,0,0,.949,1.909,2.869,2.869,0,0,0,2,.719,3.5,3.5,0,0,0,2.931-1.359l1.595,1.786A4.872,4.872,0,0,1,22.832-.354,6.485,6.485,0,0,1,20.069.225ZM19.7-9.759a2.028,2.028,0,0,0-1.567.654,3.388,3.388,0,0,0-.769,1.873h4.515v-.26a2.416,2.416,0,0,0-.584-1.675A2.092,2.092,0,0,0,19.7-9.759Zm14.038.651a8.818,8.818,0,0,0-1.168-.09,2.377,2.377,0,0,0-2.415,1.247V0H26.908V-12.151h3.066l.09,1.449a3.007,3.007,0,0,1,2.707-1.673,3.4,3.4,0,0,1,1.011.146Zm8.389,0a8.818,8.818,0,0,0-1.168-.09,2.377,2.377,0,0,0-2.415,1.247V0H35.3V-12.151h3.066l.09,1.449a3.007,3.007,0,0,1,2.707-1.673,3.4,3.4,0,0,1,1.011.146ZM49.066.225a5.965,5.965,0,0,1-4.352-1.64,5.828,5.828,0,0,1-1.679-4.369V-6.1a7.341,7.341,0,0,1,.708-3.274,5.192,5.192,0,0,1,2-2.224,5.627,5.627,0,0,1,2.959-.781A5.043,5.043,0,0,1,52.632-10.8a6.389,6.389,0,0,1,1.432,4.458V-5.02H46.326a3.015,3.015,0,0,0,.949,1.909,2.869,2.869,0,0,0,2,.719A3.5,3.5,0,0,0,52.21-3.751l1.595,1.786A4.872,4.872,0,0,1,51.829-.354,6.485,6.485,0,0,1,49.066.225ZM48.7-9.759a2.028,2.028,0,0,0-1.567.654,3.388,3.388,0,0,0-.769,1.873h4.515v-.26a2.416,2.416,0,0,0-.584-1.675A2.092,2.092,0,0,0,48.7-9.759Zm13.791,6.4A1.046,1.046,0,0,0,61.9-4.3,6.7,6.7,0,0,0,60-4.908q-4.335-.91-4.335-3.684a3.339,3.339,0,0,1,1.342-2.7,5.414,5.414,0,0,1,3.51-1.084,5.827,5.827,0,0,1,3.7,1.089,3.433,3.433,0,0,1,1.387,2.83H62.363a1.57,1.57,0,0,0-.449-1.151,1.9,1.9,0,0,0-1.4-.455,1.943,1.943,0,0,0-1.269.371,1.17,1.17,0,0,0-.449.943,1,1,0,0,0,.511.87,5.257,5.257,0,0,0,1.724.573,14.08,14.08,0,0,1,2.044.545,3.358,3.358,0,0,1,2.572,3.268A3.17,3.17,0,0,1,64.216-.8,6.153,6.153,0,0,1,60.532.225,6.426,6.426,0,0,1,57.82-.32a4.551,4.551,0,0,1-1.859-1.494,3.471,3.471,0,0,1-.674-2.05h3.077A1.694,1.694,0,0,0,59-2.538a2.539,2.539,0,0,0,1.595.46,2.35,2.35,0,0,0,1.409-.354A1.1,1.1,0,0,0,62.486-3.358Zm9.13-11.781v2.987h2.078v2.381H71.617v6.064a1.448,1.448,0,0,0,.258.966,1.3,1.3,0,0,0,.988.292,5.176,5.176,0,0,0,.955-.079V-.067a6.682,6.682,0,0,1-1.965.292q-3.414,0-3.481-3.448V-9.771H66.6v-2.381h1.774v-2.987ZM82.331-9.108a8.818,8.818,0,0,0-1.168-.09,2.377,2.377,0,0,0-2.415,1.247V0H75.5V-12.151h3.066l.09,1.449a3.007,3.007,0,0,1,2.707-1.673,3.4,3.4,0,0,1,1.011.146ZM89.271.225a5.965,5.965,0,0,1-4.352-1.64A5.828,5.828,0,0,1,83.24-5.784V-6.1a7.341,7.341,0,0,1,.708-3.274,5.192,5.192,0,0,1,2-2.224,5.627,5.627,0,0,1,2.959-.781A5.043,5.043,0,0,1,92.837-10.8a6.389,6.389,0,0,1,1.432,4.458V-5.02H86.531a3.015,3.015,0,0,0,.949,1.909,2.869,2.869,0,0,0,2,.719,3.5,3.5,0,0,0,2.931-1.359L94.01-1.965A4.872,4.872,0,0,1,92.034-.354,6.485,6.485,0,0,1,89.271.225ZM88.9-9.759a2.028,2.028,0,0,0-1.567.654,3.388,3.388,0,0,0-.769,1.873h4.515v-.26A2.416,2.416,0,0,0,90.5-9.167,2.092,2.092,0,0,0,88.9-9.759Z" transform="translate(38.669 258.36)" fill="#12263f"/>
        <path id="Trazado_134867" data-name="Trazado 134867" d="M10.714-6.154h1.853v2.617H10.714V0H7.468V-3.538H.764L.618-5.582l6.817-10.77h3.279Zm-6.862,0H7.468v-5.772l-.213.371Zm10.759,4.56a1.634,1.634,0,0,1,.522-1.258,1.853,1.853,0,0,1,1.308-.483,1.868,1.868,0,0,1,1.32.483,1.634,1.634,0,0,1,.522,1.258,1.612,1.612,0,0,1-.517,1.241,1.876,1.876,0,0,1-1.325.477,1.861,1.861,0,0,1-1.314-.477A1.612,1.612,0,0,1,14.611-1.595ZM31.647-12.005a3.8,3.8,0,0,1-.6,2.111,4.284,4.284,0,0,1-1.64,1.471A4.742,4.742,0,0,1,31.3-6.845,4.048,4.048,0,0,1,32-4.481a4.286,4.286,0,0,1-1.482,3.442A6.013,6.013,0,0,1,26.481.225a6.04,6.04,0,0,1-4.043-1.269,4.275,4.275,0,0,1-1.494-3.437,4.074,4.074,0,0,1,.7-2.37,4.656,4.656,0,0,1,1.875-1.572,4.24,4.24,0,0,1-1.634-1.471,3.83,3.83,0,0,1-.59-2.111,4.238,4.238,0,0,1,1.393-3.33,5.483,5.483,0,0,1,3.785-1.241,5.519,5.519,0,0,1,3.779,1.23A4.222,4.222,0,0,1,31.647-12.005ZM28.739-4.717a2.354,2.354,0,0,0-.618-1.707,2.2,2.2,0,0,0-1.662-.64,2.2,2.2,0,0,0-1.651.635,2.35,2.35,0,0,0-.618,1.713A2.349,2.349,0,0,0,24.8-3.032a2.209,2.209,0,0,0,1.685.64,2.2,2.2,0,0,0,1.656-.618A2.345,2.345,0,0,0,28.739-4.717ZM28.4-11.848a2.246,2.246,0,0,0-.505-1.533,1.793,1.793,0,0,0-1.426-.578,1.806,1.806,0,0,0-1.415.562,2.233,2.233,0,0,0-.505,1.55,2.347,2.347,0,0,0,.505,1.572,1.769,1.769,0,0,0,1.426.6,1.752,1.752,0,0,0,1.421-.6A2.364,2.364,0,0,0,28.4-11.848Zm6.267,3.807.943-8.311h9.164v2.707h-6.5l-.4,3.515a5.146,5.146,0,0,1,2.459-.618A4.713,4.713,0,0,1,43.99-9.3a5.787,5.787,0,0,1,1.325,4.054,5.928,5.928,0,0,1-.668,2.836A4.716,4.716,0,0,1,42.732-.466,5.978,5.978,0,0,1,39.79.225a6.348,6.348,0,0,1-2.751-.6,4.88,4.88,0,0,1-2-1.69,4.606,4.606,0,0,1-.781-2.482h3.212a2.4,2.4,0,0,0,.713,1.589,2.261,2.261,0,0,0,1.6.567,2,2,0,0,0,1.7-.792,3.668,3.668,0,0,0,.6-2.24,3.033,3.033,0,0,0-.685-2.134A2.514,2.514,0,0,0,39.441-8.3a2.809,2.809,0,0,0-1.875.606l-.314.292ZM56.186-16.52v2.673h-.314A5.514,5.514,0,0,0,52.328-12.7a4.654,4.654,0,0,0-1.612,3.088,4.421,4.421,0,0,1,3.291-1.325A4.165,4.165,0,0,1,57.4-9.411a6.123,6.123,0,0,1,1.258,4.021A6.023,6.023,0,0,1,57.966-2.5a4.953,4.953,0,0,1-1.954,2.01,5.677,5.677,0,0,1-2.858.719,5.3,5.3,0,0,1-4.172-1.8,6.975,6.975,0,0,1-1.589-4.8V-7.536a10.5,10.5,0,0,1,1.005-4.7,7.37,7.37,0,0,1,2.886-3.156,8.458,8.458,0,0,1,4.363-1.129Zm-3.167,8.2a2.593,2.593,0,0,0-1.426.409,2.465,2.465,0,0,0-.943,1.082v.986a4.37,4.37,0,0,0,.64,2.539,2.069,2.069,0,0,0,1.8.914,2.046,2.046,0,0,0,1.69-.824,3.36,3.36,0,0,0,.646-2.135A3.354,3.354,0,0,0,54.771-7.5,2.123,2.123,0,0,0,53.019-8.322ZM61.554,4.1l-1.7-.887.4-.73a5.835,5.835,0,0,0,.775-2.729V-2.763h2.74L63.767-.517A5.835,5.835,0,0,1,63.138,2,6.449,6.449,0,0,1,61.554,4.1Zm15.3-16.1a3.8,3.8,0,0,1-.6,2.111,4.284,4.284,0,0,1-1.64,1.471A4.742,4.742,0,0,1,76.5-6.845a4.048,4.048,0,0,1,.7,2.364,4.286,4.286,0,0,1-1.482,3.442A6.013,6.013,0,0,1,71.684.225a6.04,6.04,0,0,1-4.043-1.269,4.275,4.275,0,0,1-1.494-3.437,4.073,4.073,0,0,1,.7-2.37,4.656,4.656,0,0,1,1.875-1.572,4.24,4.24,0,0,1-1.634-1.471,3.83,3.83,0,0,1-.59-2.111,4.238,4.238,0,0,1,1.393-3.33,5.483,5.483,0,0,1,3.785-1.241,5.519,5.519,0,0,1,3.779,1.23A4.222,4.222,0,0,1,76.85-12.005ZM73.941-4.717a2.354,2.354,0,0,0-.618-1.707,2.2,2.2,0,0,0-1.662-.64,2.2,2.2,0,0,0-1.651.635,2.35,2.35,0,0,0-.618,1.713A2.349,2.349,0,0,0,70-3.032a2.209,2.209,0,0,0,1.685.64,2.2,2.2,0,0,0,1.656-.618A2.345,2.345,0,0,0,73.941-4.717ZM73.6-11.848a2.246,2.246,0,0,0-.505-1.533,1.793,1.793,0,0,0-1.426-.578,1.806,1.806,0,0,0-1.415.562,2.233,2.233,0,0,0-.505,1.55,2.347,2.347,0,0,0,.505,1.572,1.769,1.769,0,0,0,1.426.6,1.752,1.752,0,0,0,1.421-.6A2.364,2.364,0,0,0,73.6-11.848ZM86.98-6.536A4.1,4.1,0,0,1,84.015-5.29a4.383,4.383,0,0,1-3.47-1.488,5.881,5.881,0,0,1-1.3-4.015,6.264,6.264,0,0,1,.7-2.948,5.149,5.149,0,0,1,1.96-2.089,5.437,5.437,0,0,1,2.83-.747,5.2,5.2,0,0,1,2.875.809,5.316,5.316,0,0,1,1.954,2.325,8.347,8.347,0,0,1,.708,3.47v1.2a9.458,9.458,0,0,1-2.033,6.424A7.685,7.685,0,0,1,82.477.146l-.8.011V-2.549l.719-.011Q86.632-2.751,86.98-6.536ZM84.813-7.771a2.27,2.27,0,0,0,1.353-.4,2.7,2.7,0,0,0,.859-.977v-1.336A4.463,4.463,0,0,0,86.4-13.05a1.952,1.952,0,0,0-1.685-.91,1.9,1.9,0,0,0-1.606.893,3.8,3.8,0,0,0-.629,2.24,3.694,3.694,0,0,0,.612,2.2A1.994,1.994,0,0,0,84.813-7.771Z" transform="translate(180.708 199.269)" fill="#12263f"/>
        <circle id="Elipse_4193" data-name="Elipse 4193" cx="12.151" cy="12.151" r="12.151" transform="translate(0 3.43)" fill="#5794f9"/>
        <circle id="Elipse_4194" data-name="Elipse 4194" cx="12.151" cy="12.151" r="12.151" transform="translate(0 120.707)" fill="#ffba5b"/>
        <circle id="Elipse_4195" data-name="Elipse 4195" cx="12.151" cy="12.151" r="12.151" transform="translate(0 234.809)" fill="#c54fa3"/>
        <circle id="Elipse_4196" data-name="Elipse 4196" cx="12.151" cy="12.151" r="12.151" transform="translate(0 62.069)" fill="#263096"/>
        <circle id="Elipse_4197" data-name="Elipse 4197" cx="12.151" cy="12.151" r="12.151" transform="translate(0 177.758)" fill="#5d1676"/>
      </g>
    </g>
    <circle id="Elipse_4199" data-name="Elipse 4199" cx="9" cy="9" r="9" transform="translate(378 1082)" fill="#263096"/>
    <circle id="Elipse_4203" data-name="Elipse 4203" cx="9" cy="9" r="9" transform="translate(488 1082)" fill="#ffba5b"/>
    <circle id="Elipse_4201" data-name="Elipse 4201" cx="9" cy="9" r="9" transform="translate(611 1082)" fill="#5d1676"/>
    <circle id="Elipse_4202" data-name="Elipse 4202" cx="9" cy="9" r="9" transform="translate(704 1082)" fill="#e268bf"/>
    <circle id="Elipse_4200" data-name="Elipse 4200" cx="9" cy="9" r="9" transform="translate(291 1082)" fill="#5794f9"/>
  </g>
</svg>
