<svg id="recepcion" xmlns="http://www.w3.org/2000/svg" width="49" height="49" viewBox="0 0 49 49">
  <g id="_x3C_Group_x3E__16_" transform="translate(0.718 0.718)">
    <path id="Trazado_126372" data-name="Trazado 126372" d="M71.309,7.5H69.552c-.2,0-.412.1-.636.1s-.467-.1-.718-.1H31.353c-.251,0-.49.1-.718.1-.254,0-.494-.1-.718-.1a8.166,8.166,0,0,1-1.488.253.479.479,0,0,0-.479.479l.271,23.756h42.9l.662-2.857V7.979a.479.479,0,0,0-.479-.479Z" transform="translate(-25.994 -7.5)" fill="#f7f9fa"/>
    <path id="Trazado_126373" data-name="Trazado 126373" d="M28.153,7.5V31.987h-1.7L26,29.13V7.979a.479.479,0,0,1,.479-.479Z" transform="translate(-24.23 -7.5)" fill="#e9edf1"/>
    <path id="Trazado_126374" data-name="Trazado 126374" d="M74.038,233.51v2.858H30.473l-.033-2.858Z" transform="translate(-28.245 -211.88)" fill="#e9edf1"/>
    <path id="Trazado_126375" data-name="Trazado 126375" d="M108.412,127.5H94.536a.479.479,0,0,0-.479.479v1.675l.1.718-.1.718v1.818l.1.718-.1.718v1.77a.479.479,0,0,0,.479.479h13.877a.479.479,0,0,0,.479-.479v-1.77l-.1-.718.1-.718v-1.818l-.1-.718.1-.718v-1.675A.479.479,0,0,0,108.412,127.5Z" transform="translate(-85.773 -116.016)" fill="#8c818f"/>
    <path id="Trazado_126376" data-name="Trazado 126376" d="M158.806,197.938h-1.9l-.348-2.417V191.5h2.871v4.02Z" transform="translate(-142.292 -173.891)" fill="#766d78"/>
    <path id="Trazado_126377" data-name="Trazado 126377" d="M156.56,233.51h2.871v2.417H156.56Z" transform="translate(-142.295 -211.88)" fill="#655e67"/>
    <path id="Trazado_126378" data-name="Trazado 126378" d="M330.474,153.165h3.549v5.108h-3.549Z" transform="translate(-299.565 -139.224)" fill="#f2bb88"/>
    <path id="Trazado_126379" data-name="Trazado 126379" d="M317.515,127.98a7.485,7.485,0,0,1,.254,1.317c0,.1-.25.212-.242.31.141,1.635,1.431,3.254,3,3.254s2.861-1.619,3-3.254c.008-.1-.25-.212-.25-.31a7.332,7.332,0,0,1,.263-1.317Z" transform="translate(-287.846 -116.45)" fill="#f2d1a5"/>
    <path id="Trazado_126380" data-name="Trazado 126380" d="M291.346,195.1l-3.821-.919a3.2,3.2,0,0,1-3.549,0l-3.006.723-.762.46a1.164,1.164,0,0,0-.9,1.295l-.253,4.144h12.982l.409-2.857v-1.45A1.436,1.436,0,0,0,291.346,195.1Z" transform="translate(-253.067 -176.312)" fill="#ff8086"/>
    <path id="Trazado_126381" data-name="Trazado 126381" d="M319.319,92.712h-6.326c-.264,0-.479-.023-.479-.287V89.459a.479.479,0,0,1,.479-.479h6.326a.479.479,0,0,1,.479.479v2.01l-.175.887C319.622,92.62,319.583,92.712,319.319,92.712Z" transform="translate(-283.324 -81.182)" fill="#ff8086"/>
    <path id="Trazado_126382" data-name="Trazado 126382" d="M323.539,127.98v1.333c0,.1,0,.2-.012.294h-6c-.008-.1-.012-.2-.012-.294V127.98Z" transform="translate(-287.841 -116.45)" fill="#f2bb88"/>
    <path id="Trazado_126383" data-name="Trazado 126383" d="M317.17,91.468v.957a.479.479,0,0,1-.479.479h-6.6a.479.479,0,0,1-.479-.479V89.459a.479.479,0,0,1,.479-.479h.861v2.2a.287.287,0,0,0,.287.287Z" transform="translate(-280.697 -81.182)" fill="#e5646e"/>
    <path id="Trazado_126384" data-name="Trazado 126384" d="M280.974,204.2V201.73l-.814.2a1.435,1.435,0,0,0-1.1,1.4v4.308h13.39v-2.858h-10.9A.574.574,0,0,1,280.974,204.2Z" transform="translate(-253.071 -183.142)" fill="#e5646e"/>
    <path id="Trazado_126385" data-name="Trazado 126385" d="M26,233.51h2.153v2.858H26Z" transform="translate(-24.23 -211.88)" fill="#dce6eb"/>
    <path id="Trazado_126386" data-name="Trazado 126386" d="M69.618,464.5H26l.457,2.987a.479.479,0,0,0,.479.479l.5.362H69.545a.479.479,0,0,0,.479-.479v-.957Z" transform="translate(-24.23 -420.764)" fill="#f7f9fa"/>
    <path id="Trazado_126387" data-name="Trazado 126387" d="M70.023,464.5v2.393h-42.2a.383.383,0,0,0-.383.383v1.053h-.957A.479.479,0,0,1,26,467.85V464.5Z" transform="translate(-24.23 -420.764)" fill="#e9edf1"/>
    <path id="Trazado_126388" data-name="Trazado 126388" d="M55.064,254.946v.956l-.1.718.1.718v4.978l-.1,1.923.1,1.905v4.929l-.1.718.1.718v.718a1.436,1.436,0,0,1-1.436,1.436H8.936A1.436,1.436,0,0,1,7.5,273.225l.1-.718V256.619l-.1-.718.144-1c0-.792.643-1.148,1.436-1.148l.625-.238H53.629A1.436,1.436,0,0,1,55.064,254.946Z" transform="translate(-7.5 -229.966)" fill="#c3ddff"/>
    <g id="Grupo_86857" data-name="Grupo 86857" transform="translate(11.769 31.631)">
      <path id="Trazado_126389" data-name="Trazado 126389" d="M354.571,341.835h0l-.619,0v-3.11a.718.718,0,0,0-1.436,0v3.825a.718.718,0,0,0,.6.708,3.238,3.238,0,0,0,.518.014l.948,0a.718.718,0,0,0,0-1.435Z" transform="translate(-331.264 -338.01)" fill="#f7f9fa"/>
      <path id="Trazado_126390" data-name="Trazado 126390" d="M133.846,338.011a.718.718,0,0,0-.718.718v1.131h-1.214v-1.131a.718.718,0,0,0-1.436,0v3.828a.718.718,0,0,0,1.436,0v-1.262h1.214v1.262a.718.718,0,0,0,1.436,0v-3.828A.718.718,0,0,0,133.846,338.011Z" transform="translate(-130.479 -338.011)" fill="#f7f9fa"/>
      <path id="Trazado_126391" data-name="Trazado 126391" d="M308.129,339.629a.718.718,0,0,0,0-1.436h-1.6a.718.718,0,0,0-.718.718V342.7a.718.718,0,0,0,.718.718h1.6a.718.718,0,0,0,0-1.436h-.881v-.461h.763a.718.718,0,0,0,0-1.436h-.763v-.461h.881Z" transform="translate(-289.033 -338.176)" fill="#f7f9fa"/>
      <path id="Trazado_126392" data-name="Trazado 126392" d="M256.555,338.011h-2.114a.718.718,0,1,0,0,1.436h.335v3.11a.718.718,0,1,0,1.436,0v-3.11h.344a.718.718,0,0,0,0-1.436Z" transform="translate(-241.928 -338.011)" fill="#f7f9fa"/>
      <path id="Trazado_126393" data-name="Trazado 126393" d="M190.792,338.011a2.632,2.632,0,1,0,2.632,2.632A2.635,2.635,0,0,0,190.792,338.011Zm0,3.828a1.2,1.2,0,1,1,1.2-1.2A1.2,1.2,0,0,1,190.792,341.839Z" transform="translate(-182.64 -338.011)" fill="#f7f9fa"/>
    </g>
    <path id="Trazado_126394" data-name="Trazado 126394" d="M413.636,349.339h-9.329a.287.287,0,0,1-.287-.287V345.8a.287.287,0,0,1,.287-.287h9.329Z" transform="translate(-366.072 -313.162)" fill="#f7f9fa"/>
    <path id="Trazado_126395" data-name="Trazado 126395" d="M55.064,272.507v.718a1.436,1.436,0,0,1-1.436,1.436H8.936A1.436,1.436,0,0,1,7.5,273.225v-.718l.1-.7-.1-.731v-4.929l.1-1.914-.1-1.9v-4.995l.1-.718-.1-.718v-.956a1.436,1.436,0,0,1,1.436-1.436H9.7l0,2.392-.339.718.341.718.006,4.995-.747,1.906.752,1.905.006,4.929,0,1.436,24.886-.718Z" transform="translate(-7.5 -229.966)" fill="#a4ccff"/>
    <path id="Trazado_126396" data-name="Trazado 126396" d="M21.246,349.5H12.384v-3.811h8.862a.287.287,0,0,1,.287.287v3.236A.287.287,0,0,1,21.246,349.5Z" transform="translate(-11.917 -313.328)" fill="#f7f9fa"/>
    <path id="Trazado_126397" data-name="Trazado 126397" d="M9.72,349.5H7.5V345.69H9.715Z" transform="translate(-7.5 -313.324)" fill="#e9edf1"/>
  </g>
  <g id="Grupo_86858" data-name="Grupo 86858">
    <path id="Trazado_126398" data-name="Trazado 126398" d="M47.229,23.579V1.2a1.2,1.2,0,0,0-1.2-1.2H2.967a1.2,1.2,0,0,0-1.2,1.2V11.307a.718.718,0,0,0,1.436,0V1.436H4.642V23.544H3.206v-8.8a.718.718,0,1,0-1.436,0v8.834A2.156,2.156,0,0,0,0,25.7V43.976a2.156,2.156,0,0,0,1.77,2.119V47.8a1.2,1.2,0,0,0,1.2,1.2H46.033a1.2,1.2,0,0,0,1.2-1.2V46.095A2.156,2.156,0,0,0,49,43.976V25.7A2.156,2.156,0,0,0,47.229,23.579Zm.335,12.6H39.384V33.784h8.181ZM2.153,24.979h18.51a.718.718,0,0,0,0-1.436H18.572V22.012h4.785a1.2,1.2,0,0,0,1.2-1.2V12.681a1.2,1.2,0,0,0-1.2-1.2H9.48a1.2,1.2,0,0,0-1.2,1.2v8.135a1.2,1.2,0,0,0,1.2,1.2h4.785v1.532H6.077V1.436H42.923v4.4a.718.718,0,1,0,1.436,0v-4.4h1.436V23.544H44.358V9.145a.718.718,0,1,0-1.436,0v14.4H40.815V20.9a2.147,2.147,0,0,0-1.65-2.094l-3.271-.786V16a4.706,4.706,0,0,0,1.24-3.088v-.5a1.2,1.2,0,0,0,.775-1.118V8.324a1.2,1.2,0,0,0-1.2-1.2h-6.6a1.2,1.2,0,0,0-1.2,1.2v2.967a1.2,1.2,0,0,0,.756,1.111v.509A4.706,4.706,0,0,0,30.909,16v2.019l-3.271.786a2.147,2.147,0,0,0-1.65,2.094v2.646H24.019a.718.718,0,1,0,0,1.436H46.846a.719.719,0,0,1,.718.718v.956H1.436V25.7a.719.719,0,0,1,.718-.718Zm12.83-7.37H9.719V15.791h13.4v1.818H14.983Zm3.589,1.436h4.546v1.531H18.572Zm4.546-4.689H9.719V12.92h13.4Zm-13.4,4.689h4.546v1.531H9.719Zm5.981,0h1.436v4.5H15.7Zm14.648-7.993V8.563h6.125v2.488Zm2,5.933a3.011,3.011,0,0,0,2.113,0v1.182a2.472,2.472,0,0,1-2.113,0Zm3.354-4.5v.424c0,1.282-1.025,2.83-2.3,2.83s-2.3-1.548-2.3-2.83v-.424ZM31.508,19.35a3.9,3.9,0,0,0,3.788,0l3.534.849a.716.716,0,0,1,.55.7v2.646H27.424V20.9a.716.716,0,0,1,.55-.7ZM1.436,33.8H9.616v2.375H1.436ZM45.794,47.564H3.206V46.129H45.794Zm1.053-2.87H2.153a.719.719,0,0,1-.718-.718v-.718H29.812a.718.718,0,0,0,0-1.436H1.436V37.612h8.611a1.006,1.006,0,0,0,1-1V33.371a1.006,1.006,0,0,0-1-1H1.436V28.089H47.564v4.26H38.953a1.006,1.006,0,0,0-1,1v3.254a1.006,1.006,0,0,0,1,1h8.611v4.211H33.184a.718.718,0,0,0,0,1.436h14.38v.718A.719.719,0,0,1,46.846,44.694Z"/>
    <path id="Trazado_126399" data-name="Trazado 126399" d="M353.111,343.26c.223.025.874.01,1.466.01a.718.718,0,0,0,0-1.436h0l-.619,0v-3.11a.718.718,0,0,0-1.436,0v3.825A.718.718,0,0,0,353.111,343.26Z" transform="translate(-318.777 -305.662)"/>
    <path id="Trazado_126400" data-name="Trazado 126400" d="M133.846,338.011a.718.718,0,0,0-.718.718v1.131h-1.214v-1.131a.718.718,0,0,0-1.436,0v3.828a.718.718,0,0,0,1.436,0v-1.262h1.214v1.262a.718.718,0,0,0,1.436,0v-3.828A.718.718,0,0,0,133.846,338.011Z" transform="translate(-117.992 -305.662)"/>
    <path id="Trazado_126401" data-name="Trazado 126401" d="M308.129,339.629a.718.718,0,0,0,0-1.436h-1.6a.718.718,0,0,0-.718.718V342.7a.718.718,0,0,0,.718.718h1.6a.718.718,0,0,0,0-1.436h-.881v-.461h.763a.718.718,0,0,0,0-1.436h-.763v-.461h.881Z" transform="translate(-276.546 -305.827)"/>
    <path id="Trazado_126402" data-name="Trazado 126402" d="M256.555,338.011h-2.114a.718.718,0,1,0,0,1.436h.335v3.11a.718.718,0,1,0,1.436,0v-3.11h.344a.718.718,0,0,0,0-1.436Z" transform="translate(-229.441 -305.662)"/>
    <path id="Trazado_126403" data-name="Trazado 126403" d="M190.792,338.011a2.632,2.632,0,1,0,2.632,2.632A2.635,2.635,0,0,0,190.792,338.011Zm0,3.828a1.2,1.2,0,1,1,1.2-1.2A1.2,1.2,0,0,1,190.792,341.839Z" transform="translate(-170.153 -305.662)"/>
  </g>
</svg>
