<?xml version="1.0" encoding="UTF-8" standalone="no"?><!DOCTYPE svg PUBLIC "-//W3C//DTD SVG 1.1//EN" "http://www.w3.org/Graphics/SVG/1.1/DTD/svg11.dtd"><svg width="100%" height="100%" viewBox="0 0 90 90" version="1.1" xmlns="http://www.w3.org/2000/svg" xmlns:xlink="http://www.w3.org/1999/xlink" xml:space="preserve" xmlns:serif="http://www.serif.com/" style="fill-rule:evenodd;clip-rule:evenodd;stroke-linejoin:round;stroke-miterlimit:2;"><g id="Grupo_81911"></g><rect id="Mesa-de-trabajo1" serif:id="Mesa de trabajo1" x="0" y="0" width="90" height="90" style="fill:none;"/><g><g id="Grupo_81909"><path id="Trazado_116182" d="M59.535,57.533c-0.152,6.588 -1.665,7.514 -1.642,12.628c0.018,4.333 1.109,4.74 1.447,10.959c0.067,1.234 0.087,2.379 0.078,3.409c-0.02,2.037 -1.7,3.702 -3.736,3.704l-21.524,0.025c-2.03,0.005 -3.708,-1.654 -3.727,-3.683c-0.003,-0.293 -0.003,-0.597 -0.002,-0.907c0.001,-0.311 0.006,-0.644 0.017,-0.978c0.163,-6.654 1.402,-7.288 1.477,-12.279c0.071,-4.925 -1.114,-5.575 -1.334,-12.899c-0.072,-2.342 -0.01,-4.255 0.052,-5.482l24.087,-0.032l4.586,-0.009c0.19,1.842 0.263,3.693 0.221,5.544Z" style="fill:#eef0f5;fill-rule:nonzero;"/><path id="Trazado_116183" d="M59.534,57.532c-0.145,6.581 -1.661,7.51 -1.637,12.626c0.019,4.333 1.11,4.74 1.447,10.96c0.068,1.233 0.088,2.378 0.079,3.409c-0.02,2.036 -1.7,3.701 -3.737,3.704l-21.528,0.027c-2.03,0.005 -3.708,-1.654 -3.727,-3.683c-0.003,-0.293 -0.003,-0.597 -0.002,-0.907l24.377,-0.028c0,-0 0.039,-0.807 -0.057,-2.52c-0.339,-6.22 -1.429,-6.626 -1.447,-10.959c-0.022,-5.114 1.491,-6.041 1.642,-12.628c0.044,-1.848 -0.028,-3.697 -0.215,-5.536l4.588,-0.006c0.192,1.84 0.267,3.691 0.225,5.54l-0.008,0.001Z" style="fill:#dae1ea;fill-rule:nonzero;"/><path id="Trazado_116184" d="M54.852,83.67l-19.835,-0.001c0.002,-0.293 0,-0.577 0.014,-0.867c0.023,-1.221 0.115,-2.439 0.274,-3.649c0.133,-0.977 0.299,-1.758 0.468,-2.563c0.472,-2.004 0.721,-4.055 0.745,-6.114c0.036,-2.109 -0.167,-4.216 -0.604,-6.281c-0.451,-2.246 -0.699,-4.528 -0.739,-6.818c-0.093,-1.783 -0.041,-3.571 0.156,-5.346l19.207,0c0.197,1.775 0.25,3.563 0.157,5.346c-0.041,2.292 -0.287,4.575 -0.736,6.823c-0.851,4.092 -0.802,8.32 0.142,12.391c0.469,2.038 0.716,4.12 0.736,6.211c0.007,0.289 0.006,0.571 0.014,0.867l0.001,0.001Z" style="fill:#f79e60;fill-rule:nonzero;"/><path id="Trazado_116185" d="M54.852,83.67l-19.834,-0c0.002,-0.293 0,-0.577 0.014,-0.867c0.022,-1.222 0.112,-2.441 0.271,-3.653l12.164,-0c0.557,-0 1.093,-0.222 1.488,-0.617c0.502,-0.502 0.717,-1.227 0.571,-1.923l-0.005,-0.024c-0.948,-4.068 -0.999,-8.295 -0.151,-12.386c0.449,-2.248 0.695,-4.531 0.736,-6.823c0.093,-1.783 0.041,-3.571 -0.157,-5.346l4.589,0c0.197,1.775 0.25,3.563 0.157,5.346c-0.041,2.292 -0.287,4.575 -0.736,6.823c-0.851,4.092 -0.802,8.32 0.142,12.391c0.469,2.038 0.716,4.12 0.736,6.211c0.007,0.289 0.006,0.571 0.014,0.867l0.001,0.001Z" style="fill:#d77d41;fill-rule:nonzero;"/><path id="Trazado_116186" d="M59.338,34.87l-4.639,0.006l-24.034,0.033c-0.171,-1.896 -0.072,-3.807 0.294,-5.675c0.807,-4.041 2.601,-6.356 3.854,-8.765c1.993,-4.254 2.89,-8.939 2.61,-13.628l10.529,-0.014l4.701,-0.006c-0.293,4.683 0.592,9.366 2.574,13.619c1.249,2.402 3.035,4.717 3.826,8.759c0.364,1.867 0.461,3.775 0.288,5.669l-0.003,0.002Z" style="fill:#eef0f5;fill-rule:nonzero;"/><path id="Trazado_116187" d="M59.338,34.87l-4.639,0.006l-0.062,-0.006c0.171,-1.894 0.074,-3.802 -0.288,-5.669c-0.793,-4.042 -2.581,-6.353 -3.828,-8.759c-1.98,-4.251 -2.864,-8.933 -2.57,-13.614l4.701,-0.006c-0.293,4.683 0.592,9.366 2.574,13.619c1.249,2.402 3.035,4.717 3.826,8.759c0.364,1.867 0.461,3.775 0.289,5.669l-0.003,0.001Z" style="fill:#dae1ea;fill-rule:nonzero;"/><path id="Trazado_116188" d="M28.885,34.91l32.237,-0.047l-0.02,17.123l-32.237,0.047l0.02,-17.123Z" style="fill:#ed2061;fill-rule:nonzero;"/><path id="Trazado_116189" d="M57.02,34.91l4.096,-0.043l-0.02,17.123l-4.096,0.043l0.02,-17.123Z" style="fill:#c71e54;fill-rule:nonzero;"/><path id="Trazado_116190" d="M54.634,34.892l-1.693,0.002l-17.513,0.009c-0.22,-1.584 -0.209,-3.191 0.034,-4.771c0.453,-2.027 1.263,-3.957 2.392,-5.7c0.344,-0.595 0.696,-1.204 1.03,-1.845c3.074,-0 3.074,3.059 6.15,3.058c1,0.013 1.961,-0.391 2.652,-1.114c0.938,-0.874 1.682,-1.942 3.499,-1.943c0.335,0.643 0.682,1.259 1.032,1.85c1.129,1.743 1.939,3.673 2.391,5.699c0.239,1.575 0.248,3.177 0.026,4.755Z" style="fill:#f79e60;fill-rule:nonzero;"/><path id="Trazado_116191" d="M54.602,30.123c0.243,1.579 0.255,3.186 0.034,4.769l-1.693,0.002l-2.895,-0.001c0.221,-1.583 0.209,-3.19 -0.034,-4.769c-0.441,-1.988 -1.23,-3.882 -2.331,-5.594c0.934,-0.869 1.682,-1.942 3.499,-1.943c0.335,0.643 0.682,1.259 1.032,1.85c1.129,1.743 1.939,3.673 2.392,5.699l-0.004,-0.013Z" style="fill:#d77d41;fill-rule:nonzero;"/><path id="Trazado_116192" d="M55.07,4.273c-0.003,1.397 -1.152,2.546 -2.548,2.549l-4.584,0.005l-10.684,0.014c-0.658,-0.012 -1.286,-0.28 -1.751,-0.745c-0.987,-0.986 -0.987,-2.61 -0,-3.597c0.466,-0.467 1.097,-0.734 1.757,-0.745l10.848,-0.014l4.42,-0c0.674,-0.002 1.322,0.265 1.798,0.742c0.477,0.477 0.744,1.124 0.743,1.798l0.001,-0.007Z" style="fill:#56788b;fill-rule:nonzero;"/><path id="Trazado_116193" d="M55.07,4.273c-0.003,1.397 -1.152,2.546 -2.548,2.549l-4.583,0.006l-0.006,-0.006c1.396,-0.003 2.545,-1.152 2.548,-2.549c0.004,-1.331 -1.044,-2.449 -2.373,-2.533l4.42,-0c0.674,-0.002 1.322,0.265 1.799,0.742c0.477,0.476 0.744,1.124 0.742,1.798l0.001,-0.007Z" style="fill:#415e6f;fill-rule:nonzero;"/></g><g id="Grupo_81910"><path id="Trazado_116194" d="M58.257,73.848c-0.213,0.048 -0.408,0.155 -0.562,0.309c-0.277,0.277 -0.393,0.678 -0.308,1.061c0.459,1.961 0.732,3.961 0.815,5.974c0.059,1.105 0.082,2.223 0.074,3.341c-0.018,1.41 -1.181,2.562 -2.592,2.566l-21.529,0.02c-1.405,-0 -2.564,-1.147 -2.581,-2.552c-0.006,-0.625 -0.002,-1.245 0.014,-1.844c0.025,-2.303 0.296,-4.596 0.808,-6.841c0.424,-1.787 0.649,-3.615 0.671,-5.451c0.033,-1.88 -0.149,-3.758 -0.544,-5.596c-0.138,-0.737 -0.28,-1.498 -0.409,-2.424c-0.025,-0.265 -0.142,-0.514 -0.33,-0.702c-0.445,-0.445 -1.177,-0.445 -1.622,-0c-0.267,0.267 -0.385,0.648 -0.317,1.019c0.135,0.979 0.289,1.803 0.421,2.534c0.367,1.687 0.538,3.411 0.509,5.137c-0.019,1.69 -0.225,3.372 -0.617,5.016c-0.54,2.382 -0.828,4.815 -0.857,7.258c-0.015,0.624 -0.021,1.272 -0.014,1.924c0.034,2.653 2.223,4.817 4.876,4.821l21.524,-0.033c2.66,-0.009 4.852,-2.183 4.883,-4.843c0.007,-1.159 -0.02,-2.326 -0.081,-3.479c-0.09,-2.137 -0.379,-4.261 -0.862,-6.344c-0.048,-0.213 -0.155,-0.408 -0.309,-0.562c-0.277,-0.278 -0.679,-0.394 -1.061,-0.309Z" style="fill:#12263f;fill-rule:nonzero;"/><path id="Trazado_116195" d="M52.527,0.586l-15.269,0.021c-2.024,0.007 -3.687,1.67 -3.694,3.694c-0.002,1.664 1.124,3.134 2.732,3.565c0.144,4.167 -0.714,8.309 -2.503,12.075c-0.277,0.532 -0.583,1.064 -0.908,1.627c-0.432,0.749 -0.879,1.525 -1.311,2.394c-0.218,0.44 -0.13,0.974 0.217,1.321c0.445,0.445 1.177,0.445 1.622,0c0.088,-0.088 0.161,-0.19 0.217,-0.301c0.399,-0.806 0.827,-1.548 1.242,-2.267c0.337,-0.585 0.657,-1.138 0.957,-1.714c1.94,-4.056 2.887,-8.517 2.761,-13.012l12.891,-0.015c-0.137,4.489 0.798,8.946 2.728,13.001c0.298,0.576 0.615,1.127 0.951,1.71c1.319,2.062 2.257,4.345 2.77,6.739c0.275,1.417 0.387,2.861 0.333,4.303l-2.393,0.003c0.116,-1.281 0.068,-2.572 -0.143,-3.84c-0.479,-2.146 -1.333,-4.191 -2.522,-6.04c-0.334,-0.581 -0.68,-1.18 -1.003,-1.801c-0.216,-0.411 -0.663,-0.651 -1.125,-0.604c-1.465,0.05 -2.841,0.729 -3.772,1.862c-0.096,0.14 -0.205,0.271 -0.325,0.391c-1.065,1.066 -2.818,1.066 -3.883,0c-0.121,-0.12 -0.229,-0.251 -0.325,-0.391c-0.955,-1.165 -2.379,-1.848 -3.885,-1.863c-0.427,-0 -0.82,0.239 -1.017,0.618c-0.323,0.618 -0.668,1.217 -1.004,1.801c-1.189,1.849 -2.043,3.893 -2.522,6.038c-0.211,1.275 -0.258,2.572 -0.141,3.86l-2.456,0.004c-0.05,-1.442 0.066,-2.884 0.344,-4.299c0.052,-0.358 -0.069,-0.719 -0.324,-0.974c-0.445,-0.445 -1.177,-0.445 -1.622,-0c-0.146,0.146 -0.251,0.33 -0.301,0.531c-0.308,1.563 -0.439,3.156 -0.39,4.748l-0.565,0c-0.628,0.001 -1.145,0.518 -1.145,1.146l-0.022,17.123c-0.001,0.307 0.12,0.601 0.336,0.818c0.217,0.216 0.511,0.337 0.817,0.335l0.577,0c-0.046,1.453 -0.048,2.918 -0.006,4.368c0.009,0.293 0.129,0.571 0.336,0.778c0.445,0.445 1.177,0.445 1.622,-0c0.224,-0.224 0.345,-0.53 0.336,-0.846c-0.043,-1.428 -0.041,-2.871 0.006,-4.301l2.306,-0c-0.097,1.424 -0.063,3.116 -0.024,4.159l0.002,0.058c0.041,2.352 0.294,4.695 0.755,7.002c0.42,1.99 0.614,4.02 0.579,6.053c-0.024,1.986 -0.266,3.963 -0.721,5.896c-0.483,2.107 -0.737,4.26 -0.758,6.421c-0.008,0.294 -0.012,0.589 -0.014,0.887c-0.002,0.306 0.119,0.601 0.336,0.817c0.216,0.217 0.511,0.338 0.817,0.336l19.827,0.002c0.306,-0 0.599,-0.122 0.814,-0.339c0.216,-0.217 0.337,-0.512 0.335,-0.819c-0.002,-0.298 -0.012,-0.588 -0.015,-0.887c-0.021,-2.162 -0.275,-4.315 -0.759,-6.422c-0.914,-3.924 -0.961,-8 -0.137,-11.944c0.461,-2.307 0.714,-4.65 0.755,-7.002l0.003,-0.076c0.038,-1.048 0.073,-2.754 -0.026,-4.185l2.45,-0.006c0.116,1.449 0.158,2.902 0.127,4.355c-0.027,2.293 -0.326,4.574 -0.891,6.796c-0.507,1.911 -0.758,3.882 -0.747,5.859c0.001,0.302 0.122,0.592 0.336,0.806c0.445,0.446 1.178,0.446 1.623,0c0.216,-0.216 0.337,-0.51 0.336,-0.817c-0.009,-1.799 0.222,-3.591 0.688,-5.328c0.602,-2.378 0.922,-4.818 0.955,-7.27c0.034,-1.471 -0.005,-2.951 -0.114,-4.417l0.527,-0.001c0.628,-0.001 1.145,-0.517 1.145,-1.145l0.022,-17.124c0.001,-0.306 -0.12,-0.601 -0.336,-0.817c-0.217,-0.217 -0.511,-0.338 -0.817,-0.336l-0.559,0.001c0.049,-1.584 -0.081,-3.168 -0.387,-4.722c-0.557,-2.644 -1.583,-5.166 -3.028,-7.449c-0.323,-0.561 -0.629,-1.091 -0.904,-1.622c-1.792,-3.797 -2.639,-7.971 -2.468,-12.167c1.457,-0.531 2.435,-1.922 2.44,-3.473c0.002,-0.979 -0.387,-1.919 -1.079,-2.611c-0.692,-0.692 -1.632,-1.081 -2.611,-1.079l-0.002,0.004Zm-15.949,29.81l0.008,-0.039c0.428,-1.905 1.194,-3.718 2.262,-5.353c0.223,-0.388 0.452,-0.785 0.679,-1.196c0.636,0.211 1.199,0.601 1.619,1.123c0.114,0.141 0.235,0.277 0.363,0.405c1.932,1.932 5.111,1.932 7.043,-0c0.129,-0.128 0.25,-0.264 0.363,-0.405c0.421,-0.524 0.985,-0.915 1.623,-1.125c0.222,0.414 0.455,0.804 0.678,1.192c1.067,1.635 1.832,3.449 2.259,5.354l0.008,0.034c0.165,1.109 0.193,2.234 0.082,3.349l-17.078,0.025c-0.11,-1.119 -0.082,-2.248 0.084,-3.36l0.007,-0.004Zm23.366,20.448l-9.005,0.029c-0.303,0.001 -0.594,0.122 -0.808,0.336c-0.446,0.446 -0.446,1.179 -0,1.625c0.216,0.216 0.51,0.338 0.817,0.336l2.569,-0.013c0.086,1.364 0.097,2.731 0.035,4.096l-0.003,0.091c-0.038,2.234 -0.278,4.459 -0.716,6.649c-0.877,4.239 -0.825,8.619 0.152,12.836c0.43,1.869 0.664,3.778 0.7,5.696l-17.499,0.003c0.036,-1.917 0.27,-3.826 0.7,-5.695c0.488,-2.08 0.745,-4.206 0.768,-6.342c0.039,-2.185 -0.169,-4.368 -0.62,-6.506c-0.438,-2.191 -0.678,-4.416 -0.717,-6.649l-0.003,-0.092c-0.062,-1.358 -0.052,-2.719 0.032,-4.076l9.198,-0.003c0.304,-0.001 0.595,-0.122 0.81,-0.336c0.445,-0.445 0.445,-1.178 0,-1.623c-0.215,-0.215 -0.508,-0.336 -0.812,-0.336l-15.534,0.018l0.02,-14.828l29.94,-0.038l-0.024,14.822Zm-6.024,-46.568c-0.002,0.769 -0.634,1.401 -1.402,1.403l-15.267,0.018c-0.37,0.001 -0.725,-0.146 -0.986,-0.407c-0.261,-0.262 -0.408,-0.617 -0.407,-0.986c0.002,-0.769 0.634,-1.401 1.403,-1.403l15.267,-0.017c0.37,-0.002 0.725,0.145 0.987,0.406c0.261,0.262 0.407,0.617 0.406,0.987l-0.001,-0.001Z" style="fill:#12263f;fill-rule:nonzero;"/><path id="Trazado_116196" d="M34.325,44.068c0.209,0.338 0.58,0.544 0.977,0.544l1.689,-0.001l-0.986,2.12c-0.203,0.436 -0.111,0.955 0.229,1.295c0.445,0.445 1.178,0.445 1.623,-0c0.095,-0.096 0.172,-0.207 0.229,-0.328l1.742,-3.749c0.203,-0.435 0.111,-0.954 -0.229,-1.294c-0.215,-0.215 -0.507,-0.336 -0.812,-0.336l-1.627,-0l1.057,-2.108c0.25,-0.447 0.173,-1.01 -0.19,-1.373c-0.444,-0.444 -1.177,-0.444 -1.621,0c-0.1,0.1 -0.181,0.218 -0.238,0.347l-1.895,3.774c-0.178,0.355 -0.16,0.779 0.049,1.117l0.003,-0.008Z" style="fill:#12263f;fill-rule:nonzero;"/><path id="Trazado_116197" d="M54.704,41.567c0.305,0 0.597,-0.121 0.812,-0.336c0.445,-0.445 0.445,-1.177 -0,-1.622c-0.215,-0.215 -0.507,-0.336 -0.812,-0.336l-10.24,-0c-0.304,-0 -0.596,0.121 -0.811,0.336c-0.445,0.445 -0.445,1.177 -0,1.622c0.215,0.215 0.507,0.336 0.811,0.336l10.24,0Z" style="fill:#12263f;fill-rule:nonzero;"/><path id="Trazado_116198" d="M44.464,45.34c-0.304,-0 -0.596,0.121 -0.811,0.336c-0.445,0.445 -0.445,1.177 -0,1.622c0.215,0.215 0.507,0.336 0.811,0.336l10.24,0c0.305,0 0.597,-0.121 0.812,-0.336c0.445,-0.445 0.445,-1.177 -0,-1.622c-0.215,-0.215 -0.507,-0.336 -0.812,-0.336l-10.24,-0Z" style="fill:#12263f;fill-rule:nonzero;"/></g></g></svg>