<svg xmlns="http://www.w3.org/2000/svg" width="190" height="118" viewBox="0 0 190 118">
  <g id="Grupo_91071" data-name="Grupo 91071" transform="translate(-180 -3207)">
    <rect id="Rect치ngulo_6951" data-name="Rect치ngulo 6951" width="190" height="118" rx="10" transform="translate(180 3207)" fill="#ffba5b" opacity="0.5"/>
    <g id="botellas" transform="translate(220.039 3154.49)">
      <path id="Trazado_104449" data-name="Trazado 104449" d="M239.022,312.442a1.53,1.53,0,1,0,0-3.06h-7.588a1.53,1.53,0,1,0,0,3.06Z" transform="translate(-182.998 -187.7)" fill="#12263f"/>
      <path id="Trazado_104450" data-name="Trazado 104450" d="M100.89,109.336h-5.1v-5.772a5.64,5.64,0,0,0-2.229-4.477l-.748-.565a10.624,10.624,0,0,1-4.191-7.684L88.5,89.085a3.568,3.568,0,0,0,.445-1.725v-4.9a3.559,3.559,0,0,0,1.2-2.662V77.14a3.575,3.575,0,0,0-3.57-3.57H78.523a3.575,3.575,0,0,0-3.57,3.57V79.8a3.559,3.559,0,0,0,1.2,2.662v4.9a3.566,3.566,0,0,0,.447,1.728l-.131,1.749a10.625,10.625,0,0,1-4.192,7.684l-.748.565a5.64,5.64,0,0,0-2.23,4.478v26.844h-3.82V103.563a5.64,5.64,0,0,0-2.229-4.477l-.748-.565a10.625,10.625,0,0,1-4.191-7.683l-.131-1.753a3.567,3.567,0,0,0,.445-1.725v-4.9a3.559,3.559,0,0,0,1.2-2.661V77.14a3.575,3.575,0,0,0-3.57-3.57H48.207a3.575,3.575,0,0,0-3.57,3.57V79.8a3.559,3.559,0,0,0,1.2,2.661v4.9a3.567,3.567,0,0,0,.447,1.728l-.131,1.749a10.626,10.626,0,0,1-4.192,7.684l-.748.565a5.64,5.64,0,0,0-2.23,4.478v26.844H35.5v-9.6a1.53,1.53,0,0,0-3.06,0v9.6H26.894a9.65,9.65,0,0,1-8.8-5.709,1.532,1.532,0,0,0,.359.044h7.588a1.53,1.53,0,0,0,0-3.06H18.456a1.525,1.525,0,0,0-1.1.467,9.665,9.665,0,0,1-.1-1.379v-2.945a8.012,8.012,0,0,0,10.99-11.514l.151-.3a2.679,2.679,0,0,0-2.4-3.877H18.164a2.679,2.679,0,0,0-2.4,3.877l.151.3a7.936,7.936,0,0,0-1.589,3.086,3.574,3.574,0,0,0-.643-.061H12.062v-5.772a2.564,2.564,0,0,1,1.013-2.035l.748-.565a13.684,13.684,0,0,0,5.354-9.448l1.057.722a3.548,3.548,0,0,0,4.029,0l1.061-.725a13.684,13.684,0,0,0,5.353,9.45l.748.565a2.564,2.564,0,0,1,1.013,2.035v10.026a1.53,1.53,0,0,0,3.06,0V103.563a5.64,5.64,0,0,0-2.229-4.477l-.748-.565a10.626,10.626,0,0,1-4.191-7.683L28.2,89.085a3.568,3.568,0,0,0,.446-1.725v-4.9a3.559,3.559,0,0,0,1.2-2.662V77.14a3.575,3.575,0,0,0-3.57-3.57H18.227a3.575,3.575,0,0,0-3.57,3.57V79.8a3.559,3.559,0,0,0,1.2,2.661v4.9a3.566,3.566,0,0,0,.447,1.728l-.131,1.749a10.626,10.626,0,0,1-4.192,7.684l-.748.565A5.64,5.64,0,0,0,9,103.564v5.772H3.57A3.575,3.575,0,0,0,0,112.906V142.4a5.617,5.617,0,0,0,5.611,5.611H23.247a1.53,1.53,0,0,0,0-3.06H17.433l11.483-11.483H46.981c-3.935,3.922-7.724,7.706-11.5,11.483H30.469a1.53,1.53,0,0,0,0,3.06H98.85a5.617,5.617,0,0,0,5.611-5.611V112.906a3.574,3.574,0,0,0-3.57-3.57ZM22.537,89.712a.507.507,0,0,1-.576,0l-2.823-1.93a.51.51,0,0,1-.222-.421V83.366h6.669V87.36a.509.509,0,0,1-.222.421ZM17.717,77.14a.511.511,0,0,1,.51-.51h8.046a.511.511,0,0,1,.51.51V79.8a.511.511,0,0,1-.51.51H18.227a.511.511,0,0,1-.51-.51ZM79.434,87.781a.509.509,0,0,1-.222-.421V83.366h6.669V87.36a.509.509,0,0,1-.222.421l-2.825,1.93a.507.507,0,0,1-.576,0ZM78.013,77.14a.511.511,0,0,1,.51-.51H86.57a.511.511,0,0,1,.51.51V79.8a.511.511,0,0,1-.51.51H78.523a.511.511,0,0,1-.51-.51ZM49.118,87.781a.51.51,0,0,1-.222-.421V83.366h6.669V87.36a.509.509,0,0,1-.222.421l-2.825,1.93a.507.507,0,0,1-.576,0ZM47.7,77.14a.511.511,0,0,1,.51-.51h8.046a.511.511,0,0,1,.51.51V79.8a.511.511,0,0,1-.51.51H48.207a.511.511,0,0,1-.51-.51Zm-5.655,26.423a2.564,2.564,0,0,1,1.013-2.035l.748-.565a13.684,13.684,0,0,0,5.354-9.448l1.057.722a3.548,3.548,0,0,0,4.029,0l1.061-.725a13.685,13.685,0,0,0,5.353,9.45l.748.565a2.564,2.564,0,0,1,1.013,2.035v26.844H42.042V103.563Zm-16.658,1.629-3.3,6.6-3.3-6.6Zm-5.7,8.654a2.679,2.679,0,0,0,4.792,0l2.171-4.341a4.954,4.954,0,1,1-9.133,0ZM5.611,144.95a2.553,2.553,0,0,1-2.55-2.55V112.906a.511.511,0,0,1,.51-.51H13.686a.511.511,0,0,1,.51.51v7.864a12.716,12.716,0,0,0,10.573,12.517L13.1,144.95Zm45.706-11.483h4.364L44.2,144.95H39.81C43.563,141.2,47.355,137.413,51.317,133.468Zm-2.79,11.483,11.483-11.483h8.884c-3.929,3.916-7.784,7.766-11.5,11.483ZM101.4,142.4a2.553,2.553,0,0,1-2.55,2.55H61.722c3.732-3.732,7.589-7.58,11.507-11.483h4.337a12.633,12.633,0,0,0,4.741-.918,1.53,1.53,0,0,0-1.144-2.839,9.582,9.582,0,0,1-3.6.7H72.358V103.564a2.564,2.564,0,0,1,1.013-2.035l.748-.565a13.685,13.685,0,0,0,5.354-9.448l1.057.722a3.548,3.548,0,0,0,4.029,0l1.061-.725a13.684,13.684,0,0,0,5.353,9.45l.748.565a2.564,2.564,0,0,1,1.013,2.035v5.772h-1.96a3.559,3.559,0,0,0-.642.061,7.93,7.93,0,0,0-1.589-3.086l.151-.3a2.679,2.679,0,0,0-2.4-3.877H78.46a2.679,2.679,0,0,0-2.4,3.877l.151.3A8.011,8.011,0,0,0,87.2,117.826v2.944a9.652,9.652,0,0,1-.071,1.135,1.52,1.52,0,0,0-.793-.223H78.752a1.53,1.53,0,1,0,0,3.06h7.589a9.592,9.592,0,0,1-.467.91,1.53,1.53,0,1,0,2.637,1.553,12.688,12.688,0,0,0,1.753-6.436v-7.864a.511.511,0,0,1,.51-.51H100.89a.511.511,0,0,1,.51.51V142.4ZM78.8,104.641Zm3.578,7.155-3.3-6.6h6.6Zm-4.566-2.29,2.17,4.341a2.679,2.679,0,0,0,4.792,0l2.171-4.341a4.954,4.954,0,1,1-9.133,0Z" transform="translate(0)" fill="#12263f"/>
      <path id="Trazado_104451" data-name="Trazado 104451" d="M433.888,370.554h-2.519a1.53,1.53,0,0,0,0,3.06h2.519a1.53,1.53,0,0,0,0-3.06Z" transform="translate(-342.141 -236.392)" fill="#12263f"/>
      <path id="Trazado_104452" data-name="Trazado 104452" d="M407.35,392.783h-9.321a1.53,1.53,0,1,0,0,3.06h9.321a1.53,1.53,0,0,0,0-3.06Z" transform="translate(-315.603 -254.086)" fill="#12263f"/>
      <path id="Trazado_104453" data-name="Trazado 104453" d="M232.748,222.864a7.951,7.951,0,0,0-1.85-5.121l.151-.3a2.679,2.679,0,0,0-2.4-3.877h-7.838a2.679,2.679,0,0,0-2.4,3.877l.151.3a8.014,8.014,0,1,0,14.178,5.121Zm-4.713-6.239-3.3,6.6-3.3-6.6Zm-6.879-.552h0Zm-1.376,6.791a4.942,4.942,0,0,1,.387-1.926l2.17,4.341a2.679,2.679,0,0,0,4.792,0l2.171-4.341a4.955,4.955,0,1,1-9.52,1.926Z" transform="translate(-172.504 -111.433)" fill="#12263f"/>
    </g>
    <rect id="Rect치ngulo_6941" data-name="Rect치ngulo 6941" width="11" height="118" transform="translate(359 3207)" fill="#ffba5b"/>
  </g>
</svg>
