<?xml version="1.0" encoding="UTF-8" standalone="no"?><!DOCTYPE svg PUBLIC "-//W3C//DTD SVG 1.1//EN" "http://www.w3.org/Graphics/SVG/1.1/DTD/svg11.dtd"><svg width="100%" height="100%" viewBox="0 0 90 90" version="1.1" xmlns="http://www.w3.org/2000/svg" xmlns:xlink="http://www.w3.org/1999/xlink" xml:space="preserve" xmlns:serif="http://www.serif.com/" style="fill-rule:evenodd;clip-rule:evenodd;stroke-linejoin:round;stroke-miterlimit:2;"><g id="caja"></g><rect id="Mesa-de-trabajo1" serif:id="Mesa de trabajo1" x="0" y="0" width="90" height="90" style="fill:none;"/><clipPath id="_clip1"><rect x="0" y="0" width="90" height="90"/></clipPath><g clip-path="url(#_clip1)"><g><g id="Grupo_81942"><path id="Trazado_116233" d="M20.54,55.478l16.288,-11.827l0,-26.877l-16.288,0" style="fill:#d1a184;fill-rule:nonzero;"/><g id="Grupo_81935"><path id="Trazado_116234" d="M20.54,70.042l0,3.184l16.288,-0l0,-15.011l-16.288,11.827Z" style="fill:#d1a184;fill-rule:nonzero;"/></g><g id="Grupo_81936"><rect id="Trazado_116235" x="1.757" y="7.615" width="86.484" height="9.159" style="fill:#fff2a0;fill-rule:nonzero;"/><rect id="Trazado_116236" x="1.757" y="73.225" width="86.484" height="9.159" style="fill:#fff2a0;fill-rule:nonzero;"/></g><g id="Grupo_81937"><path id="Trazado_116237" d="M16.149,73.225l4.386,-0l-0,-3.184l-4.386,3.184Z" style="fill:#ddb9a3;fill-rule:nonzero;"/><path id="Trazado_116238" d="M20.54,16.774l-16.288,0l0,50.533l16.288,-11.826" style="fill:#ddb9a3;fill-rule:nonzero;"/></g><g id="Grupo_81938"><path id="Trazado_116239" d="M53.115,31.825l-0,-15.051l-16.288,0l-0,26.877l16.288,-11.826Z" style="fill:#ddb9a3;fill-rule:nonzero;"/><path id="Trazado_116240" d="M36.827,58.215l-0,15.01l16.288,-0l-0,-26.84l-16.288,11.83Z" style="fill:#ddb9a3;fill-rule:nonzero;"/></g><g id="Grupo_81940"><path id="Trazado_116241" d="M53.115,46.394l-0,26.836l16.288,-0l-0,-38.667l-16.288,11.831Z" style="fill:#d1a184;fill-rule:nonzero;"/><g id="Grupo_81939"><path id="Trazado_116242" d="M69.403,19.999l-0,-3.225l-16.288,0l-0,15.051l16.288,-11.826Z" style="fill:#d1a184;fill-rule:nonzero;"/></g></g><g id="Grupo_81941"><path id="Trazado_116243" d="M73.845,16.774l-4.385,0l0,3.184l4.385,-3.184Z" style="fill:#ddb9a3;fill-rule:nonzero;"/><path id="Trazado_116244" d="M69.46,34.522l0,38.703l16.288,-0l0,-50.534l-16.288,11.831Z" style="fill:#ddb9a3;fill-rule:nonzero;"/></g><path id="Trazado_116245" d="M85.748,16.774l0,5.923l-16.283,11.824l-48.92,35.52l-4.385,3.184l-11.908,-0l0,-5.923l16.288,-11.825l48.925,-35.519l4.386,-3.184l11.897,0Z" style="fill:#fff7bf;fill-rule:nonzero;"/></g><g id="Grupo_81943"><path id="Trazado_116246" d="M88.243,18.533c0.964,-0 1.757,-0.794 1.757,-1.758l-0,-9.16c-0,-0.964 -0.793,-1.757 -1.757,-1.757l-86.486,0c-0.964,0 -1.757,0.793 -1.757,1.757l0,9.159c0,0.964 0.793,1.757 1.757,1.757l0.736,0l0,52.934l-0.736,-0c-0.964,-0 -1.757,0.793 -1.757,1.757c-0,0.001 0,0.002 0,0.003l0,9.16c0,0.964 0.793,1.757 1.757,1.757l86.486,-0c0.964,-0 1.757,-0.793 1.757,-1.757l-0,-9.16c-0,-0.964 -0.793,-1.758 -1.757,-1.758l-0.736,0l-0,-52.933l0.736,-0.001Zm-1.759,62.092l-82.968,-0l0,-5.642l82.968,0l0,5.642Zm-65.944,-49c0.964,-0 1.757,-0.794 1.757,-1.758l0,-11.333l12.77,0l-0,24.224l-12.772,9.273l-0,-6.266c-0,-0.965 -0.794,-1.758 -1.758,-1.758c-0.965,-0 -1.758,0.793 -1.758,1.758l-0,8.822l-12.77,9.268l0,-45.322l12.772,-0l0,11.333c0,0 0,0.001 0,0.001c0,0.964 0.794,1.758 1.758,1.758c0,-0 0.001,-0 0.001,-0Zm53.876,-13.092l9.573,-0l0,3.266l-68.4,49.668l-9.58,0l0,-3.266l68.407,-49.668Zm-35.831,21.67l0,-21.67l12.772,-0l0,12.4l-12.772,9.27Zm16.288,-11.826l0,-9.844l12.83,-0l-0,0.533l-12.83,9.311Zm29.118,-2.232l-0,45.322l-12.774,0l0,-36.049l12.774,-9.273Zm-16.346,11.866l0,33.456l-12.772,0l0,-24.176l12.772,-9.28Zm-16.288,11.827l0,21.629l-12.772,0l0,-12.356l12.772,-9.273Zm-16.29,11.827l-0,9.802l-12.77,0l0,-0.533l12.77,-9.269Zm51.417,-46.648l-82.968,-0l0,-5.643l82.968,0l0,5.643Z" style="fill:#12263f;fill-rule:nonzero;"/><path id="Trazado_116247" d="M19.297,39.089c0.33,0.329 0.777,0.514 1.243,0.514c0.964,0 1.757,-0.793 1.757,-1.757c0,-0.964 -0.793,-1.757 -1.757,-1.757c-0.566,-0 -1.098,0.273 -1.428,0.733c-0.492,0.698 -0.413,1.657 0.185,2.267Z" style="fill:#12263f;fill-rule:nonzero;"/></g></g></g></svg>