<svg xmlns="http://www.w3.org/2000/svg" width="195" height="145" viewBox="0 0 195 145">
  <g id="Grupo_91072" data-name="Grupo 91072" transform="translate(-180 -4039)">
    <rect id="Rect치ngulo_6950" data-name="Rect치ngulo 6950" width="190" height="145" rx="10" transform="translate(180 4039)" fill="#ffba5b" opacity="0.5"/>
    <rect id="Rect치ngulo_6942" data-name="Rect치ngulo 6942" width="11" height="145" transform="translate(364 4039)" fill="#ffba5b"/>
    <g id="cajas" transform="translate(220.039 4005.342)">
      <path id="Trazado_116279" data-name="Trazado 116279" d="M102.93,127.019h-1.658V70.268a2.521,2.521,0,0,0-2.518-2.518H56.5a1.53,1.53,0,1,0,0,3.06h4.369L60.886,91.8a1.53,1.53,0,0,0,2.449,1.223l3.026-2.274,3.032,2.274a1.53,1.53,0,0,0,1.835,0l3.04-2.276L77.3,93.019a1.53,1.53,0,0,0,2.448-1.225L79.739,70.81H98.212v56.209H88.95a1.53,1.53,0,1,0,0,3.06H101.4v3.264H3.06V130.08H81.809a1.53,1.53,0,0,0,0-3.06H42V70.81h7.36a1.53,1.53,0,1,0,0-3.06h-7.87a2.553,2.553,0,0,0-2.55,2.55v56.719h-3.06v-8.912a1.53,1.53,0,1,0-3.06,0v8.912H6.248V100.445h7.806v8.743a1.53,1.53,0,0,0,2.318,1.312l3.164-1.9,3.164,1.9a1.53,1.53,0,0,0,2.317-1.312v-8.743h7.806v10.521a1.53,1.53,0,0,0,3.06,0V70.3a2.553,2.553,0,0,0-2.55-2.55H5.706a2.521,2.521,0,0,0-2.518,2.518v8.441a1.53,1.53,0,1,0,3.06,0v-7.9h7.9v8.743a1.53,1.53,0,0,0,2.317,1.312l3.164-1.9,3.164,1.9a1.53,1.53,0,0,0,2.318-1.312V70.81h7.707V97.385H6.248V85.85a1.53,1.53,0,1,0-3.06,0v41.17H1.53A1.53,1.53,0,0,0,0,128.549v14.486a1.53,1.53,0,0,0,1.53,1.53H19.892a1.53,1.53,0,0,0,1.53-1.53V136.4h20.1v6.631a1.53,1.53,0,0,0,1.53,1.53H61.411a1.53,1.53,0,0,0,1.53-1.53V136.4h20.1v6.631a1.53,1.53,0,0,0,1.53,1.53h18.362a1.53,1.53,0,0,0,1.53-1.53V128.549a1.53,1.53,0,0,0-1.53-1.53ZM76.69,88.733l-1.5-1.126a1.53,1.53,0,0,0-1.835,0l-3.04,2.276-3.034-2.275a1.531,1.531,0,0,0-1.837,0l-1.5,1.125L63.934,70.81H76.679ZM22.055,76.851l-1.634-.98a1.531,1.531,0,0,0-1.574,0l-1.634.98V70.81h4.842v6.041Zm-.1,29.635-1.634-.98a1.53,1.53,0,0,0-1.574,0l-1.634.98v-6.041h4.842v6.041ZM18.362,141.5H3.06v-5.1h15.3Zm41.519,0h-15.3v-5.1h15.3Zm26.217,0v-5.1h15.3v5.1Z" transform="translate(0)" fill="#12263f"/>
      <path id="Trazado_116280" data-name="Trazado 116280" d="M104.305,300.15a1.53,1.53,0,0,0-1.53,1.53v5.927a1.53,1.53,0,0,0,1.53,1.53h5.927a1.53,1.53,0,0,0,1.53-1.53V301.68a1.53,1.53,0,0,0-1.53-1.53Zm4.4,5.927h-2.867V303.21H108.7Z" transform="translate(-81.806 -184.985)" fill="#12263f"/>
      <path id="Trazado_116281" data-name="Trazado 116281" d="M46.205,329.2a1.53,1.53,0,1,0,0,3.06h3.951a1.53,1.53,0,1,0,0-3.06Z" transform="translate(-35.56 -208.108)" fill="#12263f"/>
      <path id="Trazado_116282" data-name="Trazado 116282" d="M219.925,330.73a1.53,1.53,0,0,0,1.53,1.53h11.854a1.53,1.53,0,1,0,0-3.06H221.455A1.53,1.53,0,0,0,219.925,330.73Z" transform="translate(-175.055 -208.108)" fill="#12263f"/>
      <path id="Trazado_116283" data-name="Trazado 116283" d="M219.925,301.68a1.53,1.53,0,0,0,1.53,1.53h5.927a1.53,1.53,0,0,0,0-3.06h-5.927A1.53,1.53,0,0,0,219.925,301.68Z" transform="translate(-175.055 -184.985)" fill="#12263f"/>
      <path id="Trazado_116284" data-name="Trazado 116284" d="M316.836,283.031a1.53,1.53,0,0,0,0,3.06h15.805a1.53,1.53,0,1,0,0-3.06H331.8v-6.783A1.53,1.53,0,0,0,333.867,274l-2.235-2.235a1.925,1.925,0,0,0-2.723,0L326.674,274a1.53,1.53,0,0,0,2.066,2.252v6.783h-7.806v-6.782A1.53,1.53,0,0,0,323,274l-2.236-2.236a1.928,1.928,0,0,0-2.723,0L315.808,274a1.53,1.53,0,0,0,2.067,2.252v6.783Z" transform="translate(-250.976 -161.939)" fill="#12263f"/>
      <path id="Trazado_116285" data-name="Trazado 116285" d="M424.321,282.954a1.53,1.53,0,0,0,0,3.06h5.927a1.53,1.53,0,1,0,0-3.06h-1.433v-3.135a4.5,4.5,0,0,0,2.963-4.225V272.63a1.53,1.53,0,0,0-1.53-1.53h-5.927a1.53,1.53,0,0,0-1.53,1.53v2.963a4.5,4.5,0,0,0,2.963,4.225v3.135Zm1.53-8.793h2.867v1.433a1.433,1.433,0,1,1-2.866,0V274.16Z" transform="translate(-336.531 -161.862)" fill="#12263f"/>
      <path id="Trazado_116286" data-name="Trazado 116286" d="M110.232,163.887a1.53,1.53,0,0,0,1.53-1.53V156.43a1.53,1.53,0,0,0-1.53-1.53h-5.927a1.53,1.53,0,0,0-1.53,1.53v5.927a1.53,1.53,0,0,0,1.53,1.53Zm-4.4-5.927H108.7v2.867h-2.867Z" transform="translate(-81.806 -69.369)" fill="#12263f"/>
      <path id="Trazado_116287" data-name="Trazado 116287" d="M50.64,187.01a1.53,1.53,0,1,0,0-3.06H46.689a1.53,1.53,0,1,0,0,3.06Z" transform="translate(-35.945 -92.492)" fill="#12263f"/>
    </g>
  </g>
</svg>
