<svg xmlns="http://www.w3.org/2000/svg" width="230" height="230" viewBox="0 0 230 230">
  <g id="Grupo_91073" data-name="Grupo 91073" transform="translate(-685 -4310)">
    <circle id="Elipse_4131" data-name="Elipse 4131" cx="115" cy="115" r="115" transform="translate(685 4310)" fill="#fff"/>
    <path id="Trazado_134887" data-name="Trazado 134887" d="M16.113-28.345a10.563,10.563,0,0,0-3.992-8.789Q8.13-40.283-1.9-43.652a134.56,134.56,0,0,1-16.406-6.519Q-39.038-60.352-39.038-78.149a25.089,25.089,0,0,1,5.164-15.637q5.164-6.775,14.612-10.547a56.862,56.862,0,0,1,21.24-3.772A49.738,49.738,0,0,1,22.6-104,32.643,32.643,0,0,1,36.768-92.322,30.507,30.507,0,0,1,41.821-75H16.187q0-6.519-3.992-10.107T1.392-88.7q-6.885,0-10.876,3.04a9.324,9.324,0,0,0-3.992,7.727q0,4.1,4.395,7.434T6.372-63.611a94.67,94.67,0,0,1,18.164,7.654Q41.821-46,41.821-28.491q0,13.989-10.547,21.973T2.344,1.465A57.4,57.4,0,0,1-21.13-3.186q-10.51-4.651-15.82-12.744a33.206,33.206,0,0,1-5.31-18.64h25.781q0,8.569,4.431,12.634T2.344-17.871q6.372,0,10.071-2.747A9.065,9.065,0,0,0,16.113-28.345Z" transform="translate(801 4478)" fill="#ffba5b"/>
  </g>
</svg>
