<svg xmlns="http://www.w3.org/2000/svg" width="230" height="230" viewBox="0 0 230 230">
  <g id="Grupo_91073" data-name="Grupo 91073" transform="translate(-179 -137)">
    <circle id="Elipse_4135" data-name="Elipse 4135" cx="115" cy="115" r="115" transform="translate(179 137)" fill="#fff"/>
    <path id="Trazado_134886" data-name="Trazado 134886" d="M-15.051-36.182V0H-40.759V-106.641H1.794a49.564,49.564,0,0,1,21.643,4.5A33.947,33.947,0,0,1,38.013-89.319a35,35,0,0,1,5.164,18.86q0,15.6-11.169,24.939T1.355-36.182Zm0-19.849H1.794q7.471,0,11.389-3.735T17.1-70.312q0-7.471-4.028-11.938T2.087-86.792H-15.051Z" transform="translate(294 305)" fill="#c3b5ec"/>
  </g>
</svg>
