<svg xmlns="http://www.w3.org/2000/svg" width="400" height="199.029" viewBox="0 0 400 199.029">
  <g id="Grupo_91067" data-name="Grupo 91067" transform="translate(-430.91 -4867.471)">
    <g id="truck" transform="translate(430.91 4763.755)">
      <g id="Grupo_53768" data-name="Grupo 53768" transform="translate(48.088 242.591)">
        <g id="Grupo_53767" data-name="Grupo 53767" transform="translate(0 0)">
          <path id="Trazado_100469" data-name="Trazado 100469" d="M92.328,344.692h-.044a4.11,4.11,0,1,0,.044,0Z" transform="translate(-88.218 -344.692)" fill="#c3b5ec"/>
        </g>
      </g>
      <g id="Grupo_53770" data-name="Grupo 53770" transform="translate(83.044 242.591)">
        <g id="Grupo_53769" data-name="Grupo 53769" transform="translate(0 0)">
          <path id="Trazado_100470" data-name="Trazado 100470" d="M156.457,344.692h-.044a4.11,4.11,0,1,0,.044,0Z" transform="translate(-152.347 -344.692)" fill="#c3b5ec"/>
        </g>
      </g>
      <g id="Grupo_53772" data-name="Grupo 53772" transform="translate(227.241 242.591)">
        <g id="Grupo_53771" data-name="Grupo 53771" transform="translate(0 0)">
          <path id="Trazado_100471" data-name="Trazado 100471" d="M420.989,344.692h-.044a4.11,4.11,0,1,0,.044,0Z" transform="translate(-416.879 -344.692)" fill="#c3b5ec"/>
        </g>
      </g>
      <g id="Grupo_53774" data-name="Grupo 53774" transform="translate(0 120.245)">
        <g id="Grupo_53773" data-name="Grupo 53773">
          <path id="Trazado_100472" data-name="Trazado 100472" d="M275.334,193.164l-5.5-5.5-11.074-33.222a4.088,4.088,0,0,0-1.238-7.984H217.917V128.7a8.467,8.467,0,0,0-8.458-8.458h-201A8.467,8.467,0,0,0,0,128.7v96.13a8.467,8.467,0,0,0,8.458,8.458h4.651v9.018a8.467,8.467,0,0,0,8.458,8.458h9.414a21.552,21.552,0,0,0,38.651,8.523,21.553,21.553,0,0,0,38.651-8.523H210.134a21.565,21.565,0,0,0,42.739-4.088c0-.094-.006-.186-.007-.279h17.767a8.467,8.467,0,0,0,8.458-8.458V202.233A12.74,12.74,0,0,0,275.334,193.164ZM30.981,242.591H21.566a.281.281,0,0,1-.281-.281v-9.018H35.264A21.482,21.482,0,0,0,30.981,242.591ZM52.154,260.07a13.389,13.389,0,0,1-.083-26.778h.168a13.389,13.389,0,0,1-.084,26.778Zm34.957,0a13.389,13.389,0,0,1-.084-26.778h.168a13.389,13.389,0,0,1-.084,26.778Zm123.024-17.479H108.284a21.479,21.479,0,0,0-4.284-9.3h79.242a4.088,4.088,0,1,0,0-8.176H8.458a.281.281,0,0,1-.281-.281V128.7a.281.281,0,0,1,.281-.281h201a.281.281,0,0,1,.281.281v96.412h-9.019a4.088,4.088,0,0,0,0,8.177h13.7A21.476,21.476,0,0,0,210.134,242.591Zm51.914-52.435H235.677a.281.281,0,0,1-.281-.281v-17.76h20.639ZM231.307,260.07a13.389,13.389,0,0,1-.083-26.778h.084l.028,0a13.39,13.39,0,0,1-.029,26.78Zm39.607-22.127a.281.281,0,0,1-.281.281H251.145a21.6,21.6,0,0,0-19.838-13.111l-.084,0H217.917v-70.2a.281.281,0,0,1,.281-.281h32.01l3.1,9.3h-22a4.088,4.088,0,0,0-4.088,4.088v21.848a8.467,8.467,0,0,0,8.458,8.458H268.94l.613.613a4.622,4.622,0,0,1,1.362,3.289v9.773h-4.651a4.088,4.088,0,0,0,0,8.176h4.651Z" transform="translate(0 -120.245)" fill="#c3b5ec"/>
        </g>
      </g>
      <g id="Grupo_53776" data-name="Grupo 53776" transform="translate(17.478 207.636)">
        <g id="Grupo_53775" data-name="Grupo 53775">
          <path id="Trazado_100473" data-name="Trazado 100473" d="M210.936,280.567H36.152a4.088,4.088,0,0,0,0,8.177H210.936a4.088,4.088,0,0,0,0-8.177Z" transform="translate(-32.064 -280.567)" fill="#c3b5ec"/>
        </g>
      </g>
    </g>
    <path id="Trazado_100474" data-name="Trazado 100474" d="M-8527.09-6829H-8568v188.029h40.911" transform="translate(9358 11701.971)" fill="none" stroke="#c3b5ec" stroke-width="11"/>
    <path id="Trazado_100475" data-name="Trazado 100475" d="M-8527.091-6767.5H-8568" transform="translate(9358 11700)" fill="none" stroke="#c3b5ec" stroke-width="11"/>
    <path id="Trazado_100476" data-name="Trazado 100476" d="M-8527.091-6702H-8568" transform="translate(9358 11700)" fill="none" stroke="#c3b5ec" stroke-width="11"/>
    <path id="Trazado_100477" data-name="Trazado 100477" d="M-8568-6735.5h-85" transform="translate(9358 11700)" fill="none" stroke="#c3b5ec" stroke-width="11"/>
  </g>
</svg>
