<svg id="Grupo_90648" data-name="Grupo 90648" xmlns="http://www.w3.org/2000/svg" width="329.877" height="87.987" viewBox="0 0 329.877 87.987">
  <g id="Grupo_90621" data-name="Grupo 90621" transform="translate(100.215 65.45)">
    <rect id="Rectángulo_7067" data-name="Rectángulo 7067" width="201.071" height="9.442" transform="translate(0.685 0.687)"/>
    <path id="Trazado_134348" data-name="Trazado 134348" d="M994.026,1089.138H792.956a.685.685,0,0,1-.686-.686v-9.443a.685.685,0,0,1,.686-.686h201.07a.686.686,0,0,1,.686.686v9.443A.686.686,0,0,1,994.026,1089.138Zm-200.384-1.372h199.7v-8.071h-199.7Z" transform="translate(-792.27 -1078.323)"/>
  </g>
  <g id="Grupo_90622" data-name="Grupo 90622" transform="translate(0 54.557)">
    <path id="Trazado_134349" data-name="Trazado 134349" d="M719.724,1081.081a1.691,1.691,0,0,1,1.782-1.583h9.554l7.112-8.616H767.12l14.165,5.812h11.441v8.716h-8.171v5.81H725.717l-2.659-1.795a7.248,7.248,0,0,1-3.334-5.972Z" transform="translate(-719.038 -1070.197)"/>
    <path id="Trazado_134350" data-name="Trazado 134350" d="M784.741,1092.091H725.9a.685.685,0,0,1-.384-.118l-2.659-1.794a7.972,7.972,0,0,1-3.636-6.54v-2.372a2.376,2.376,0,0,1,2.467-2.269h9.233l6.9-8.366a.685.685,0,0,1,.53-.248h28.948a.7.7,0,0,1,.261.051l14.039,5.758h11.306a.686.686,0,0,1,.686.686v8.717a.686.686,0,0,1-.686.686h-7.485v5.124A.686.686,0,0,1,784.741,1092.091Zm-58.629-1.372h57.943v-5.124a.685.685,0,0,1,.686-.686h7.485v-7.345H781.472a.7.7,0,0,1-.261-.051l-14.039-5.758H738.681l-6.9,8.365a.682.682,0,0,1-.53.25h-9.556a1.013,1.013,0,0,0-1.095.9v2.372a6.6,6.6,0,0,0,3.032,5.4Z" transform="translate(-719.224 -1070.383)"/>
  </g>
  <g id="Grupo_90623" data-name="Grupo 90623" transform="translate(114.978 2.744)">
    <rect id="Rectángulo_7068" data-name="Rectángulo 7068" width="5.488" height="24.856" transform="translate(0.686 0.687)" fill="#fff"/>
    <path id="Trazado_134351" data-name="Trazado 134351" d="M809.2,1058.846h-5.488a.685.685,0,0,1-.686-.686V1033.3a.686.686,0,0,1,.686-.686H809.2a.685.685,0,0,1,.686.686v24.857A.684.684,0,0,1,809.2,1058.846Zm-4.8-1.372h4.116v-23.485H804.4Z" transform="translate(-803.031 -1032.617)"/>
  </g>
  <g id="Grupo_90624" data-name="Grupo 90624" transform="translate(113.045 27.601)">
    <rect id="Rectángulo_7069" data-name="Rectángulo 7069" width="9.358" height="21.628" transform="translate(0.686 0.686)" fill="#fff"/>
    <path id="Trazado_134352" data-name="Trazado 134352" d="M811.666,1073.735h-9.358a.686.686,0,0,1-.686-.686v-21.629a.686.686,0,0,1,.686-.686h9.358a.685.685,0,0,1,.686.686v21.629A.685.685,0,0,1,811.666,1073.735Zm-8.672-1.372h7.986v-20.257h-7.986Z" transform="translate(-801.622 -1050.735)"/>
  </g>
  <g id="Grupo_90625" data-name="Grupo 90625" transform="translate(113.045 49.229)">
    <rect id="Rectángulo_7070" data-name="Rectángulo 7070" width="12.102" height="3.712" transform="translate(0.686 0.686)" fill="#fff"/>
    <path id="Trazado_134353" data-name="Trazado 134353" d="M814.41,1071.584h-12.1a.686.686,0,0,1-.686-.686v-3.713a.686.686,0,0,1,.686-.686h12.1a.685.685,0,0,1,.686.686v3.713A.685.685,0,0,1,814.41,1071.584Zm-11.416-1.372h10.73v-2.341h-10.73Z" transform="translate(-801.622 -1066.5)"/>
  </g>
  <g id="Grupo_90626" data-name="Grupo 90626" transform="translate(243.688 63.171)">
    <ellipse id="Elipse_4224" data-name="Elipse 4224" cx="15.555" cy="11.722" rx="15.555" ry="11.722" transform="translate(0.686 0.686)"/>
    <path id="Trazado_134354" data-name="Trazado 134354" d="M913.088,1101.478c-8.956,0-16.241-5.566-16.241-12.408s7.285-12.408,16.241-12.408,16.241,5.566,16.241,12.408S922.044,1101.478,913.088,1101.478Zm0-23.444c-8.2,0-14.869,4.951-14.869,11.036s6.67,11.036,14.869,11.036,14.869-4.95,14.869-11.036S921.287,1078.034,913.088,1078.034Z" transform="translate(-896.847 -1076.662)"/>
  </g>
  <g id="Grupo_90627" data-name="Grupo 90627" transform="translate(205.512 63.171)">
    <ellipse id="Elipse_4225" data-name="Elipse 4225" cx="15.555" cy="11.722" rx="15.555" ry="11.722" transform="translate(0.686 0.686)"/>
    <path id="Trazado_134355" data-name="Trazado 134355" d="M885.262,1101.478c-8.956,0-16.241-5.566-16.241-12.408s7.285-12.408,16.241-12.408,16.241,5.566,16.241,12.408S894.218,1101.478,885.262,1101.478Zm0-23.444c-8.2,0-14.869,4.951-14.869,11.036s6.67,11.036,14.869,11.036,14.869-4.95,14.869-11.036S893.461,1078.034,885.262,1078.034Z" transform="translate(-869.021 -1076.662)"/>
  </g>
  <g id="Grupo_90628" data-name="Grupo 90628" transform="translate(17.387 63.171)">
    <ellipse id="Elipse_4226" data-name="Elipse 4226" cx="15.555" cy="11.722" rx="15.555" ry="11.722" transform="translate(0.686 0.686)"/>
    <path id="Trazado_134356" data-name="Trazado 134356" d="M748.138,1101.478c-8.955,0-16.241-5.566-16.241-12.408s7.286-12.408,16.241-12.408,16.241,5.566,16.241,12.408S757.094,1101.478,748.138,1101.478Zm0-23.444c-8.2,0-14.869,4.951-14.869,11.036s6.672,11.036,14.869,11.036,14.869-4.95,14.869-11.036S756.337,1078.034,748.138,1078.034Z" transform="translate(-731.897 -1076.662)"/>
  </g>
  <g id="Grupo_90632" data-name="Grupo 90632" transform="translate(112.012 65.653)">
    <g id="Grupo_90629" data-name="Grupo 90629">
      <rect id="Rectángulo_7071" data-name="Rectángulo 7071" width="26.269" height="11.016" transform="translate(0.687 0.685)" fill="#fff"/>
      <path id="Trazado_134357" data-name="Trazado 134357" d="M827.825,1090.858h-26.27a.686.686,0,0,1-.686-.686v-11.015a.685.685,0,0,1,.686-.686h26.27a.685.685,0,0,1,.686.686v11.015A.686.686,0,0,1,827.825,1090.858Zm-25.584-1.372h24.9v-9.644h-24.9Z" transform="translate(-800.869 -1078.471)"/>
    </g>
    <g id="Grupo_90630" data-name="Grupo 90630" transform="translate(3.444)">
      <rect id="Rectángulo_7072" data-name="Rectángulo 7072" width="3.443" height="11.016" transform="translate(0.686 0.685)" fill="#fff"/>
      <path id="Trazado_134358" data-name="Trazado 134358" d="M807.508,1090.858h-3.443a.686.686,0,0,1-.686-.686v-11.015a.685.685,0,0,1,.686-.686h3.443a.685.685,0,0,1,.686.686v11.015A.686.686,0,0,1,807.508,1090.858Zm-2.757-1.372h2.072v-9.644h-2.072Z" transform="translate(-803.379 -1078.471)"/>
    </g>
    <g id="Grupo_90631" data-name="Grupo 90631" transform="translate(18.447)">
      <rect id="Rectángulo_7073" data-name="Rectángulo 7073" width="3.443" height="11.016" transform="translate(0.686 0.685)" fill="#fff"/>
      <path id="Trazado_134359" data-name="Trazado 134359" d="M818.445,1090.858H815a.686.686,0,0,1-.686-.686v-11.015a.685.685,0,0,1,.686-.686h3.444a.684.684,0,0,1,.686.686v11.015A.685.685,0,0,1,818.445,1090.858Zm-2.758-1.372h2.072v-9.644h-2.072Z" transform="translate(-814.315 -1078.471)"/>
    </g>
  </g>
  <g id="Grupo_90633" data-name="Grupo 90633" transform="translate(73.002 72.935)">
    <path id="Trazado_134360" data-name="Trazado 134360" d="M811.946,1084.279H772.935v5.811h8.036v-1.937h30.975Z" transform="translate(-772.249 -1083.593)" fill="#fff"/>
    <path id="Trazado_134361" data-name="Trazado 134361" d="M781.156,1090.962h-8.035a.685.685,0,0,1-.686-.686v-5.812a.685.685,0,0,1,.686-.686h39.01a.685.685,0,0,1,.686.686v3.874a.685.685,0,0,1-.686.686H781.842v1.251A.686.686,0,0,1,781.156,1090.962Zm-7.349-1.372h6.663v-1.251a.685.685,0,0,1,.686-.686h30.288v-2.5H773.807Z" transform="translate(-772.435 -1083.779)"/>
  </g>
  <g id="Grupo_90634" data-name="Grupo 90634" transform="translate(249.014 67.184)">
    <ellipse id="Elipse_4227" data-name="Elipse 4227" cx="10.229" cy="7.708" rx="10.229" ry="7.708" transform="translate(0.686 0.686)" fill="#fff"/>
    <path id="Trazado_134362" data-name="Trazado 134362" d="M911.644,1096.375c-6.019,0-10.915-3.765-10.915-8.393s4.9-8.395,10.915-8.395,10.915,3.766,10.915,8.395S917.661,1096.375,911.644,1096.375Zm0-15.416c-5.261,0-9.543,3.151-9.543,7.023s4.282,7.021,9.543,7.021,9.543-3.15,9.543-7.021S916.907,1080.959,911.644,1080.959Z" transform="translate(-900.729 -1079.587)"/>
  </g>
  <g id="Grupo_90635" data-name="Grupo 90635" transform="translate(255.819 72.312)">
    <ellipse id="Elipse_4228" data-name="Elipse 4228" cx="3.423" cy="2.58" rx="3.423" ry="2.58" transform="translate(0.687 0.687)" fill="#fff"/>
    <path id="Trazado_134363" data-name="Trazado 134363" d="M909.8,1089.857c-2.266,0-4.11-1.464-4.11-3.265s1.844-3.267,4.11-3.267,4.109,1.467,4.109,3.267S912.064,1089.857,909.8,1089.857Zm0-5.16c-1.483,0-2.738.869-2.738,1.895s1.255,1.893,2.738,1.893,2.737-.867,2.737-1.893S911.282,1084.7,909.8,1084.7Z" transform="translate(-905.689 -1083.325)"/>
  </g>
  <g id="Grupo_90636" data-name="Grupo 90636" transform="translate(210.838 67.184)">
    <ellipse id="Elipse_4229" data-name="Elipse 4229" cx="10.229" cy="7.708" rx="10.229" ry="7.708" transform="translate(0.686 0.686)" fill="#fff"/>
    <path id="Trazado_134364" data-name="Trazado 134364" d="M883.818,1096.375c-6.017,0-10.915-3.765-10.915-8.393s4.9-8.395,10.915-8.395,10.914,3.766,10.914,8.395S889.837,1096.375,883.818,1096.375Zm0-15.416c-5.263,0-9.543,3.151-9.543,7.023s4.28,7.021,9.543,7.021,9.542-3.15,9.542-7.021S889.079,1080.959,883.818,1080.959Z" transform="translate(-872.903 -1079.587)"/>
  </g>
  <g id="Grupo_90637" data-name="Grupo 90637" transform="translate(217.645 72.312)">
    <ellipse id="Elipse_4230" data-name="Elipse 4230" cx="3.423" cy="2.58" rx="3.423" ry="2.58" transform="translate(0.686 0.687)" fill="#fff"/>
    <path id="Trazado_134365" data-name="Trazado 134365" d="M881.973,1089.857c-2.265,0-4.109-1.464-4.109-3.265s1.844-3.267,4.109-3.267,4.109,1.467,4.109,3.267S884.239,1089.857,881.973,1089.857Zm0-5.16c-1.483,0-2.737.869-2.737,1.895s1.254,1.893,2.737,1.893,2.737-.867,2.737-1.893S883.456,1084.7,881.973,1084.7Z" transform="translate(-877.864 -1083.325)"/>
  </g>
  <g id="Grupo_90638" data-name="Grupo 90638" transform="translate(22.712 67.184)">
    <ellipse id="Elipse_4231" data-name="Elipse 4231" cx="10.229" cy="7.708" rx="10.229" ry="7.708" transform="translate(0.686 0.686)" fill="#fff"/>
    <path id="Trazado_134366" data-name="Trazado 134366" d="M746.694,1096.375c-6.017,0-10.915-3.765-10.915-8.393s4.9-8.395,10.915-8.395,10.915,3.766,10.915,8.395S752.713,1096.375,746.694,1096.375Zm0-15.416c-5.263,0-9.543,3.151-9.543,7.023s4.28,7.021,9.543,7.021,9.543-3.15,9.543-7.021S751.957,1080.959,746.694,1080.959Z" transform="translate(-735.779 -1079.587)"/>
  </g>
  <g id="Grupo_90639" data-name="Grupo 90639" transform="translate(29.519 72.312)">
    <ellipse id="Elipse_4232" data-name="Elipse 4232" cx="3.423" cy="2.58" rx="3.423" ry="2.58" transform="translate(0.686 0.687)" fill="#fff"/>
    <path id="Trazado_134367" data-name="Trazado 134367" d="M744.849,1089.857c-2.265,0-4.109-1.464-4.109-3.265s1.844-3.267,4.109-3.267,4.109,1.467,4.109,3.267S747.115,1089.857,744.849,1089.857Zm0-5.16c-1.483,0-2.737.869-2.737,1.895s1.254,1.893,2.737,1.893,2.737-.867,2.737-1.893S746.332,1084.7,744.849,1084.7Z" transform="translate(-740.74 -1083.325)"/>
  </g>
  <g id="Grupo_90640" data-name="Grupo 90640" transform="translate(277.307 74.893)">
    <path id="Trazado_134368" data-name="Trazado 134368" d="M921.851,1085.706v4.438h2.26v3.551" transform="translate(-921.166 -1085.02)" fill="#fff"/>
    <path id="Trazado_134369" data-name="Trazado 134369" d="M924.3,1094.567a.685.685,0,0,1-.686-.686v-2.865h-1.572a.685.685,0,0,1-.686-.686v-4.438a.686.686,0,1,1,1.372,0v3.752H924.3a.686.686,0,0,1,.686.686v3.551A.685.685,0,0,1,924.3,1094.567Z" transform="translate(-921.352 -1085.206)"/>
  </g>
  <g id="Grupo_90641" data-name="Grupo 90641" transform="translate(132.883)">
    <rect id="Rectángulo_7074" data-name="Rectángulo 7074" width="195.622" height="62.302" transform="translate(0.686 0.687)" fill="#fff"/>
    <path id="Trazado_134370" data-name="Trazado 134370" d="M1012.39,1094.292H816.768a.685.685,0,0,1-.686-.686v-62.3a.686.686,0,0,1,.686-.686H1012.39a.686.686,0,0,1,.686.686v62.3A.685.685,0,0,1,1012.39,1094.292Zm-194.936-1.372H1011.7v-60.931H817.454Z" transform="translate(-816.082 -1030.617)"/>
  </g>
  <g id="Grupo_90642" data-name="Grupo 90642" transform="translate(140.691 4.521)">
    <rect id="Rectángulo_7075" data-name="Rectángulo 7075" width="180.005" height="57.783" transform="translate(0.687 0.686)" fill="#fff"/>
    <path id="Trazado_134371" data-name="Trazado 134371" d="M1002.466,1093.066H822.459a.685.685,0,0,1-.686-.686V1034.6a.686.686,0,0,1,.686-.686h180.007a.686.686,0,0,1,.686.686v57.782A.685.685,0,0,1,1002.466,1093.066Zm-179.321-1.372H1001.78v-56.41H823.145Z" transform="translate(-821.773 -1033.912)"/>
  </g>
  <g id="Grupo_90643" data-name="Grupo 90643" transform="translate(73.002 60.365)">
    <path id="Trazado_134372" data-name="Trazado 134372" d="M819.029,1075.118H772.935v12.569h27.212V1080.4h18.882Z" transform="translate(-772.249 -1074.431)" fill="#fff"/>
    <path id="Trazado_134373" data-name="Trazado 134373" d="M800.333,1088.559H773.121a.685.685,0,0,1-.686-.686V1075.3a.685.685,0,0,1,.686-.686h46.093a.685.685,0,0,1,.686.686v5.287a.685.685,0,0,1-.686.686H801.019v6.6A.685.685,0,0,1,800.333,1088.559Zm-26.526-1.372h25.84v-6.6a.685.685,0,0,1,.686-.686h18.195v-3.916H773.807Z" transform="translate(-772.435 -1074.617)"/>
  </g>
  <g id="Grupo_90644" data-name="Grupo 90644" transform="translate(7.909 23.566)">
    <path id="Trazado_134374" data-name="Trazado 134374" d="M831.9,1085.095v-7.909s-1.859-17.861-6.587-26.157a5.5,5.5,0,0,0-4.795-2.734H784.065a5.249,5.249,0,0,0-4.511,2.565l-8.749,14.7L733.822,1067a7.069,7.069,0,0,0-6.312,4.024l-2.021,4.711h46.137l7.07,9.362Z" transform="translate(-724.802 -1047.608)" fill="#fff"/>
    <path id="Trazado_134375" data-name="Trazado 134375" d="M832.088,1085.965H778.882a.687.687,0,0,1-.549-.272l-6.862-9.089h-45.8a.687.687,0,0,1-.631-.956l2.022-4.713a7.75,7.75,0,0,1,6.917-4.438l36.61-1.417,8.558-14.386a5.966,5.966,0,0,1,5.1-2.9h36.455a6.192,6.192,0,0,1,5.392,3.082c4.744,8.325,6.595,25.69,6.672,26.425l0,7.979A.685.685,0,0,1,832.088,1085.965Zm-52.865-1.372H831.4v-7.222c-.015-.107-1.895-17.743-6.5-25.817a4.815,4.815,0,0,0-4.2-2.389H784.251a4.589,4.589,0,0,0-3.922,2.231l-8.747,14.706a.69.69,0,0,1-.562.335l-36.983,1.432a6.366,6.366,0,0,0-5.709,3.608l-1.612,3.755h45.1a.689.689,0,0,1,.549.272Z" transform="translate(-724.989 -1047.794)"/>
  </g>
  <g id="Grupo_90645" data-name="Grupo 90645" transform="translate(2.582 51.005)">
    <path id="Trazado_134376" data-name="Trazado 134376" d="M721.606,1080.46v-7.848a3.858,3.858,0,0,1,3.124-3.621l2.895-.7h45.861l7.026,9.362,3.283,5.084h-8.572l-8.935-10.9H737.472l-7.112,8.616Z" transform="translate(-720.92 -1067.608)" fill="#fff"/>
    <path id="Trazado_134377" data-name="Trazado 134377" d="M783.981,1083.611h-8.572a.689.689,0,0,1-.53-.25l-8.731-10.643H737.981l-6.905,8.365a.682.682,0,0,1-.53.25h-8.754a.686.686,0,0,1-.686-.686V1072.8a4.546,4.546,0,0,1,3.649-4.286l2.895-.7a.7.7,0,0,1,.161-.019h45.861a.681.681,0,0,1,.547.274l7.026,9.361,3.311,5.124a.684.684,0,0,1-.575,1.058Zm-8.247-1.372h6.987l-2.6-4.025-6.792-9.048H727.893l-2.817.681a3.182,3.182,0,0,0-2.6,2.951v7.163h7.746l6.9-8.366a.685.685,0,0,1,.53-.248h28.815a.691.691,0,0,1,.531.25Z" transform="translate(-721.106 -1067.794)"/>
  </g>
  <g id="Grupo_90646" data-name="Grupo 90646" transform="translate(73.002 26.472)">
    <rect id="Rectángulo_7076" data-name="Rectángulo 7076" width="25.179" height="14.244" transform="translate(0.686 0.686)" fill="#fff"/>
    <path id="Trazado_134378" data-name="Trazado 134378" d="M798.3,1065.527H773.121a.685.685,0,0,1-.686-.686V1050.6a.685.685,0,0,1,.686-.686H798.3a.686.686,0,0,1,.686.686v14.243A.686.686,0,0,1,798.3,1065.527Zm-24.493-1.372h23.807v-12.871H773.807Z" transform="translate(-772.435 -1049.912)"/>
  </g>
  <g id="Grupo_90647" data-name="Grupo 90647" transform="translate(59.768 26.472)">
    <path id="Trazado_134379" data-name="Trazado 134379" d="M763.288,1064.656h10.007v-14.244h-2.744Z" transform="translate(-762.602 -1049.726)" fill="#fff"/>
    <path id="Trazado_134380" data-name="Trazado 134380" d="M773.481,1065.527H763.474a.685.685,0,0,1-.61-1l7.263-14.242a.687.687,0,0,1,.61-.375h2.744a.686.686,0,0,1,.686.686v14.243A.686.686,0,0,1,773.481,1065.527Zm-8.887-1.372h8.2v-12.871h-1.637Z" transform="translate(-762.788 -1049.912)"/>
  </g>
</svg>
