<svg id="Grupo_90620" data-name="Grupo 90620" xmlns="http://www.w3.org/2000/svg" width="290.932" height="87.987" viewBox="0 0 290.932 87.987">
  <g id="Grupo_90594" data-name="Grupo 90594" transform="translate(0 54.555)">
    <path id="Trazado_134315" data-name="Trazado 134315" d="M719.724,990.758a1.584,1.584,0,0,1,1.583-1.585h8.746l6.3-8.614h25.5l12.589,5.81h10.169v8.716h-7.263v5.81h-52.3l-2.362-1.795a7.5,7.5,0,0,1-2.963-5.972Z" transform="translate(-719.038 -979.873)"/>
    <path id="Trazado_134316" data-name="Trazado 134316" d="M777.531,1001.768h-52.3a.686.686,0,0,1-.414-.14l-2.364-1.795a8.231,8.231,0,0,1-3.234-6.518v-2.373a2.272,2.272,0,0,1,2.269-2.269h8.4l6.09-8.333a.687.687,0,0,1,.554-.281h25.5a.7.7,0,0,1,.288.062l12.452,5.748H784.8a.686.686,0,0,1,.686.686v8.716a.685.685,0,0,1-.686.686h-6.578v5.126A.686.686,0,0,1,777.531,1001.768Zm-52.065-1.372h51.379v-5.126a.685.685,0,0,1,.686-.686h6.578v-7.344h-9.484a.7.7,0,0,1-.288-.063l-12.452-5.747h-25l-6.091,8.333a.684.684,0,0,1-.553.281h-8.746a.9.9,0,0,0-.9.9v2.373a6.844,6.844,0,0,0,2.693,5.425Z" transform="translate(-719.224 -980.059)"/>
  </g>
  <g id="Grupo_90595" data-name="Grupo 90595" transform="translate(88.288 65.45)">
    <rect id="Rectángulo_7057" data-name="Rectángulo 7057" width="185.615" height="9.442" transform="translate(0.686 0.686)"/>
    <path id="Trazado_134317" data-name="Trazado 134317" d="M969.878,998.815H784.263a.686.686,0,0,1-.686-.686v-9.443a.686.686,0,0,1,.686-.686H969.878a.686.686,0,0,1,.686.686v9.443A.686.686,0,0,1,969.878,998.815Zm-184.929-1.372H969.192v-8.071H784.949Z" transform="translate(-783.577 -988)"/>
  </g>
  <g id="Grupo_90596" data-name="Grupo 90596" transform="translate(97.206 65.651)">
    <rect id="Rectángulo_7058" data-name="Rectángulo 7058" width="26.269" height="11.016" transform="translate(0.686 0.686)" fill="#fff"/>
    <path id="Trazado_134318" data-name="Trazado 134318" d="M817.031,1000.536H790.763a.686.686,0,0,1-.686-.686V988.833a.686.686,0,0,1,.686-.686h26.269a.686.686,0,0,1,.686.686V999.85A.686.686,0,0,1,817.031,1000.536Zm-25.583-1.372h24.9v-9.645h-24.9Z" transform="translate(-790.077 -988.147)"/>
  </g>
  <g id="Grupo_90597" data-name="Grupo 90597" transform="translate(100.65 65.651)">
    <rect id="Rectángulo_7059" data-name="Rectángulo 7059" width="3.443" height="11.016" transform="translate(0.686 0.686)" fill="#fff"/>
    <path id="Trazado_134319" data-name="Trazado 134319" d="M796.716,1000.536h-3.444a.686.686,0,0,1-.686-.686V988.833a.686.686,0,0,1,.686-.686h3.444a.686.686,0,0,1,.686.686V999.85A.686.686,0,0,1,796.716,1000.536Zm-2.758-1.372h2.072v-9.645h-2.072Z" transform="translate(-792.587 -988.147)"/>
  </g>
  <g id="Grupo_90598" data-name="Grupo 90598" transform="translate(115.652 65.651)">
    <rect id="Rectángulo_7060" data-name="Rectángulo 7060" width="3.443" height="11.016" transform="translate(0.687 0.686)" fill="#fff"/>
    <path id="Trazado_134320" data-name="Trazado 134320" d="M807.651,1000.536h-3.444a.686.686,0,0,1-.686-.686V988.833a.686.686,0,0,1,.686-.686h3.444a.685.685,0,0,1,.686.686V999.85A.685.685,0,0,1,807.651,1000.536Zm-2.758-1.372h2.072v-9.645h-2.072Z" transform="translate(-803.522 -988.147)"/>
  </g>
  <g id="Grupo_90599" data-name="Grupo 90599" transform="translate(64.886 72.935)">
    <path id="Trazado_134321" data-name="Trazado 134321" d="M799.339,993.956H767.018v5.811h6.658v-1.937h25.663Z" transform="translate(-766.333 -993.27)" fill="#fff"/>
    <path id="Trazado_134322" data-name="Trazado 134322" d="M773.862,1000.638H767.2a.685.685,0,0,1-.686-.686v-5.81a.685.685,0,0,1,.686-.686h32.32a.685.685,0,0,1,.686.686v3.873a.685.685,0,0,1-.686.686H774.548v1.251A.685.685,0,0,1,773.862,1000.638Zm-5.971-1.372h5.285v-1.251a.686.686,0,0,1,.686-.686h24.978v-2.5H767.891Z" transform="translate(-766.519 -993.456)"/>
  </g>
  <g id="Grupo_90600" data-name="Grupo 90600" transform="translate(216.307 63.17)">
    <ellipse id="Elipse_4215" data-name="Elipse 4215" cx="15.555" cy="11.722" rx="15.555" ry="11.722" transform="translate(0.685 0.686)"/>
    <path id="Trazado_134323" data-name="Trazado 134323" d="M893.13,1011.155c-8.956,0-16.241-5.566-16.241-12.408s7.285-12.409,16.241-12.409,16.24,5.567,16.24,12.409S902.085,1011.155,893.13,1011.155Zm0-23.445c-8.2,0-14.869,4.951-14.869,11.037s6.67,11.036,14.869,11.036S908,1004.832,908,998.747,901.327,987.71,893.13,987.71Z" transform="translate(-876.889 -986.338)"/>
  </g>
  <g id="Grupo_90601" data-name="Grupo 90601" transform="translate(221.633 67.184)">
    <ellipse id="Elipse_4216" data-name="Elipse 4216" cx="10.229" cy="7.708" rx="10.229" ry="7.708" transform="translate(0.686 0.686)" fill="#fff"/>
    <path id="Trazado_134324" data-name="Trazado 134324" d="M891.686,1006.052c-6.019,0-10.915-3.765-10.915-8.393s4.9-8.4,10.915-8.4,10.915,3.766,10.915,8.4S897.7,1006.052,891.686,1006.052Zm0-15.417c-5.263,0-9.543,3.151-9.543,7.023s4.28,7.021,9.543,7.021,9.543-3.15,9.543-7.021S896.948,990.636,891.686,990.636Z" transform="translate(-880.771 -989.264)"/>
  </g>
  <g id="Grupo_90602" data-name="Grupo 90602" transform="translate(228.438 72.312)">
    <ellipse id="Elipse_4217" data-name="Elipse 4217" cx="3.423" cy="2.58" rx="3.423" ry="2.58" transform="translate(0.687 0.686)" fill="#fff"/>
    <path id="Trazado_134325" data-name="Trazado 134325" d="M889.841,999.534c-2.266,0-4.11-1.465-4.11-3.265s1.844-3.267,4.11-3.267,4.109,1.465,4.109,3.267S892.106,999.534,889.841,999.534Zm0-5.16c-1.483,0-2.738.868-2.738,1.895s1.255,1.893,2.738,1.893,2.737-.867,2.737-1.893S891.324,994.374,889.841,994.374Z" transform="translate(-885.731 -993.002)"/>
  </g>
  <g id="Grupo_90603" data-name="Grupo 90603" transform="translate(178.13 63.17)">
    <ellipse id="Elipse_4218" data-name="Elipse 4218" cx="15.555" cy="11.722" rx="15.555" ry="11.722" transform="translate(0.686 0.686)"/>
    <path id="Trazado_134326" data-name="Trazado 134326" d="M865.3,1011.155c-8.955,0-16.241-5.566-16.241-12.408s7.286-12.409,16.241-12.409,16.241,5.567,16.241,12.409S874.259,1011.155,865.3,1011.155Zm0-23.445c-8.2,0-14.869,4.951-14.869,11.037s6.672,11.036,14.869,11.036,14.869-4.951,14.869-11.036S873.5,987.71,865.3,987.71Z" transform="translate(-849.062 -986.338)"/>
  </g>
  <g id="Grupo_90604" data-name="Grupo 90604" transform="translate(183.456 67.184)">
    <ellipse id="Elipse_4219" data-name="Elipse 4219" cx="10.229" cy="7.708" rx="10.229" ry="7.708" transform="translate(0.687 0.686)" fill="#fff"/>
    <path id="Trazado_134327" data-name="Trazado 134327" d="M863.859,1006.052c-6.017,0-10.915-3.765-10.915-8.393s4.9-8.4,10.915-8.4,10.915,3.766,10.915,8.4S869.878,1006.052,863.859,1006.052Zm0-15.417c-5.263,0-9.543,3.151-9.543,7.023s4.281,7.021,9.543,7.021,9.543-3.15,9.543-7.021S869.122,990.636,863.859,990.636Z" transform="translate(-852.944 -989.264)"/>
  </g>
  <g id="Grupo_90605" data-name="Grupo 90605" transform="translate(190.262 72.312)">
    <ellipse id="Elipse_4220" data-name="Elipse 4220" cx="3.423" cy="2.58" rx="3.423" ry="2.58" transform="translate(0.686 0.686)" fill="#fff"/>
    <path id="Trazado_134328" data-name="Trazado 134328" d="M862.014,999.534c-2.265,0-4.109-1.465-4.109-3.265S859.749,993,862.014,993s4.11,1.465,4.11,3.267S864.28,999.534,862.014,999.534Zm0-5.16c-1.483,0-2.737.868-2.737,1.895s1.254,1.893,2.737,1.893,2.738-.867,2.738-1.893S863.5,994.374,862.014,994.374Z" transform="translate(-857.905 -993.002)"/>
  </g>
  <g id="Grupo_90606" data-name="Grupo 90606" transform="translate(17.387 63.17)">
    <ellipse id="Elipse_4221" data-name="Elipse 4221" cx="15.555" cy="11.722" rx="15.555" ry="11.722" transform="translate(0.686 0.686)"/>
    <path id="Trazado_134329" data-name="Trazado 134329" d="M748.138,1011.155c-8.955,0-16.241-5.566-16.241-12.408s7.286-12.409,16.241-12.409,16.241,5.567,16.241,12.409S757.094,1011.155,748.138,1011.155Zm0-23.445c-8.2,0-14.869,4.951-14.869,11.037s6.672,11.036,14.869,11.036,14.869-4.951,14.869-11.036S756.337,987.71,748.138,987.71Z" transform="translate(-731.897 -986.338)"/>
  </g>
  <g id="Grupo_90607" data-name="Grupo 90607" transform="translate(22.712 67.184)">
    <ellipse id="Elipse_4222" data-name="Elipse 4222" cx="10.229" cy="7.708" rx="10.229" ry="7.708" transform="translate(0.686 0.686)" fill="#fff"/>
    <path id="Trazado_134330" data-name="Trazado 134330" d="M746.694,1006.052c-6.017,0-10.915-3.765-10.915-8.393s4.9-8.4,10.915-8.4,10.915,3.766,10.915,8.4S752.713,1006.052,746.694,1006.052Zm0-15.417c-5.263,0-9.543,3.151-9.543,7.023s4.28,7.021,9.543,7.021,9.543-3.15,9.543-7.021S751.957,990.636,746.694,990.636Z" transform="translate(-735.779 -989.264)"/>
  </g>
  <g id="Grupo_90608" data-name="Grupo 90608" transform="translate(29.519 72.312)">
    <ellipse id="Elipse_4223" data-name="Elipse 4223" cx="3.423" cy="2.58" rx="3.423" ry="2.58" transform="translate(0.686 0.686)" fill="#fff"/>
    <path id="Trazado_134331" data-name="Trazado 134331" d="M744.849,999.534c-2.265,0-4.109-1.465-4.109-3.265S742.584,993,744.849,993s4.109,1.465,4.109,3.267S747.115,999.534,744.849,999.534Zm0-5.16c-1.483,0-2.737.868-2.737,1.895s1.254,1.893,2.737,1.893,2.737-.867,2.737-1.893S746.332,994.374,744.849,994.374Z" transform="translate(-740.74 -993.002)"/>
  </g>
  <g id="Grupo_90609" data-name="Grupo 90609" transform="translate(249.925 74.893)">
    <path id="Trazado_134332" data-name="Trazado 134332" d="M901.893,995.382v4.439h2.26v3.551" transform="translate(-901.207 -994.697)" fill="#fff"/>
    <path id="Trazado_134333" data-name="Trazado 134333" d="M904.339,1004.244a.686.686,0,0,1-.686-.686v-2.866h-1.574a.685.685,0,0,1-.686-.686v-4.437a.686.686,0,1,1,1.372,0v3.751h1.574a.686.686,0,0,1,.686.686v3.552A.686.686,0,0,1,904.339,1004.244Z" transform="translate(-901.393 -994.883)"/>
  </g>
  <g id="Grupo_90610" data-name="Grupo 90610" transform="translate(115.696)">
    <rect id="Rectángulo_7061" data-name="Rectángulo 7061" width="173.864" height="62.302" transform="translate(0.686 0.686)" fill="#fff"/>
    <path id="Trazado_134334" data-name="Trazado 134334" d="M978.1,1003.968H804.24a.685.685,0,0,1-.686-.686v-62.3a.685.685,0,0,1,.686-.686H978.1a.685.685,0,0,1,.686.686v62.3A.685.685,0,0,1,978.1,1003.968ZM804.926,1002.6H977.419V941.666H804.926Z" transform="translate(-803.554 -940.294)"/>
  </g>
  <g id="Grupo_90611" data-name="Grupo 90611" transform="translate(122.636 4.519)">
    <rect id="Rectángulo_7062" data-name="Rectángulo 7062" width="159.983" height="57.783" transform="translate(0.686 0.686)" fill="#fff"/>
    <path id="Trazado_134335" data-name="Trazado 134335" d="M969.282,1002.743H809.3a.686.686,0,0,1-.686-.686V944.274a.686.686,0,0,1,.686-.686H969.282a.686.686,0,0,1,.686.686v57.783A.686.686,0,0,1,969.282,1002.743Zm-159.3-1.372H968.6V944.96H809.985Z" transform="translate(-808.613 -943.588)"/>
  </g>
  <g id="Grupo_90612" data-name="Grupo 90612" transform="translate(64.886 60.365)">
    <path id="Trazado_134336" data-name="Trazado 134336" d="M807.208,984.794h-40.19v12.569h23.727v-8.11h16.463Z" transform="translate(-766.333 -984.108)" fill="#fff"/>
    <path id="Trazado_134337" data-name="Trazado 134337" d="M790.93,998.236H767.2a.685.685,0,0,1-.686-.686V984.98a.685.685,0,0,1,.686-.686h40.188a.685.685,0,0,1,.686.686v4.46a.685.685,0,0,1-.686.686H791.616v7.424A.685.685,0,0,1,790.93,998.236Zm-23.039-1.372h22.353V989.44a.686.686,0,0,1,.686-.686h15.777v-3.088H767.891Z" transform="translate(-766.519 -984.294)"/>
  </g>
  <g id="Grupo_90613" data-name="Grupo 90613" transform="translate(7.908 23.566)">
    <path id="Trazado_134338" data-name="Trazado 134338" d="M819.1,994.771v-7.909s-2.1-22.918-7.585-28.89H777.073a4.423,4.423,0,0,0-3.92,2.372l-7.8,14.9-32.535,1.434a6.225,6.225,0,0,0-5.554,4.023l-1.778,4.713h40.587l6.219,9.361Z" transform="translate(-724.802 -957.285)" fill="#fff"/>
    <path id="Trazado_134339" data-name="Trazado 134339" d="M819.289,995.642H772.482a.683.683,0,0,1-.571-.307l-6.016-9.053H725.674a.686.686,0,0,1-.641-.929l1.777-4.713a6.911,6.911,0,0,1,6.167-4.466l32.14-1.417,7.613-14.545a5.1,5.1,0,0,1,4.529-2.741H811.7a.679.679,0,0,1,.5.222c5.581,6.072,7.677,28.347,7.765,29.291l0,7.972A.686.686,0,0,1,819.289,995.642Zm-46.439-1.372H818.6v-7.223c-.018-.162-2.085-22.136-7.209-28.2H777.259a3.725,3.725,0,0,0-3.312,2l-7.8,14.9a.692.692,0,0,1-.578.369l-32.536,1.434a5.536,5.536,0,0,0-4.943,3.579l-1.428,3.784h39.6a.686.686,0,0,1,.571.306Z" transform="translate(-724.988 -957.471)"/>
  </g>
  <g id="Grupo_90614" data-name="Grupo 90614" transform="translate(2.582 51.005)">
    <path id="Trazado_134340" data-name="Trazado 134340" d="M721.606,990.136v-7.848a3.752,3.752,0,0,1,2.764-3.619l2.563-.7h40.587l6.219,9.361,2.906,5.084H769.06l-7.909-10.895h-25.5l-6.3,8.614Z" transform="translate(-720.92 -977.285)" fill="#fff"/>
    <path id="Trazado_134341" data-name="Trazado 134341" d="M776.831,993.288h-7.587a.686.686,0,0,1-.554-.283l-7.7-10.612h-24.8l-6.091,8.333a.684.684,0,0,1-.553.281h-7.747a.686.686,0,0,1-.686-.686v-7.848a4.45,4.45,0,0,1,3.269-4.282l2.562-.7a.733.733,0,0,1,.181-.023h40.589a.686.686,0,0,1,.571.306l6.219,9.362,2.931,5.123a.686.686,0,0,1-.6,1.026Zm-7.237-1.372h6.054l-2.319-4.058-5.99-9.015H727.211l-2.474.674a3.073,3.073,0,0,0-2.26,2.958v7.162h6.713l6.09-8.333a.687.687,0,0,1,.554-.281h25.5a.686.686,0,0,1,.554.283Z" transform="translate(-721.106 -977.471)"/>
  </g>
  <g id="Grupo_90615" data-name="Grupo 90615" transform="translate(64.886 26.47)">
    <rect id="Rectángulo_7063" data-name="Rectángulo 7063" width="25.179" height="12.751" transform="translate(0.685 0.686)" fill="#fff"/>
    <path id="Trazado_134342" data-name="Trazado 134342" d="M792.383,973.712H767.2a.685.685,0,0,1-.686-.686V960.274a.685.685,0,0,1,.686-.686h25.178a.686.686,0,0,1,.686.686v12.752A.686.686,0,0,1,792.383,973.712Zm-24.492-1.372H791.7V960.96H767.891Z" transform="translate(-766.519 -959.588)"/>
  </g>
  <g id="Grupo_90616" data-name="Grupo 90616" transform="translate(51.65 26.47)">
    <path id="Trazado_134343" data-name="Trazado 134343" d="M757.371,972.839h10.007V960.088h-2.744Z" transform="translate(-756.686 -959.402)" fill="#fff"/>
    <path id="Trazado_134344" data-name="Trazado 134344" d="M767.564,973.712H757.557a.684.684,0,0,1-.6-1.025l7.262-12.752a.688.688,0,0,1,.6-.347h2.744a.686.686,0,0,1,.686.686v12.752A.686.686,0,0,1,767.564,973.712Zm-8.827-1.372h8.141V960.96h-1.659Z" transform="translate(-756.871 -959.588)"/>
  </g>
  <g id="Grupo_90617" data-name="Grupo 90617" transform="translate(101.524 2.744)">
    <rect id="Rectángulo_7064" data-name="Rectángulo 7064" width="5.488" height="24.856" transform="translate(0.686 0.686)" fill="#fff"/>
    <path id="Trazado_134345" data-name="Trazado 134345" d="M799.4,968.523H793.91a.685.685,0,0,1-.686-.686V942.98a.685.685,0,0,1,.686-.686H799.4a.686.686,0,0,1,.686.686v24.857A.686.686,0,0,1,799.4,968.523Zm-4.8-1.372h4.116V943.666H794.6Z" transform="translate(-793.224 -942.294)"/>
  </g>
  <g id="Grupo_90618" data-name="Grupo 90618" transform="translate(99.589 27.601)">
    <rect id="Rectángulo_7065" data-name="Rectángulo 7065" width="9.358" height="21.628" transform="translate(0.687 0.686)" fill="#fff"/>
    <path id="Trazado_134346" data-name="Trazado 134346" d="M801.859,983.413H792.5a.686.686,0,0,1-.686-.686V961.1a.686.686,0,0,1,.686-.686h9.359a.686.686,0,0,1,.686.686v21.629A.686.686,0,0,1,801.859,983.413Zm-8.673-1.372h7.987V961.784h-7.987Z" transform="translate(-791.814 -960.412)"/>
  </g>
  <g id="Grupo_90619" data-name="Grupo 90619" transform="translate(99.589 49.229)">
    <rect id="Rectángulo_7066" data-name="Rectángulo 7066" width="12.102" height="3.712" transform="translate(0.687 0.685)" fill="#fff"/>
    <path id="Trazado_134347" data-name="Trazado 134347" d="M804.6,981.261H792.5a.686.686,0,0,1-.686-.686v-3.713a.685.685,0,0,1,.686-.686h12.1a.685.685,0,0,1,.686.686v3.713A.686.686,0,0,1,804.6,981.261Zm-11.417-1.372h10.731v-2.34H793.186Z" transform="translate(-791.814 -976.177)"/>
  </g>
</svg>
