<svg id="Grupo_90679" data-name="Grupo 90679" xmlns="http://www.w3.org/2000/svg" width="281.248" height="70.829" viewBox="0 0 281.248 70.829">
  <g id="Grupo_90649" data-name="Grupo 90649" transform="translate(107.98 51.357)">
    <rect id="Rectángulo_7077" data-name="Rectángulo 7077" width="159.306" height="7.908" transform="translate(0.686 0.686)"/>
    <path id="Trazado_134381" data-name="Trazado 134381" d="M957.923,1267.655H798.616a.685.685,0,0,1-.686-.686v-7.908a.685.685,0,0,1,.686-.686H957.923a.686.686,0,0,1,.686.686v7.908A.686.686,0,0,1,957.923,1267.655ZM799.3,1266.283H957.237v-6.536H799.3Z" transform="translate(-797.93 -1258.375)"/>
  </g>
  <g id="Grupo_90650" data-name="Grupo 90650" transform="translate(0 43.823)">
    <path id="Trazado_134382" data-name="Trazado 134382" d="M807.1,1256.893v8.05h-7.24v3.883H723.6l-3.874-3.954v-6.239h1.533l13.523-5.251h53.168l10.88,3.39Z" transform="translate(-719.038 -1252.697)"/>
    <path id="Trazado_134383" data-name="Trazado 134383" d="M800.048,1269.7H723.784a.686.686,0,0,1-.491-.207l-3.874-3.954a.681.681,0,0,1-.195-.479v-6.238a.685.685,0,0,1,.686-.686h1.4l13.4-5.2a.693.693,0,0,1,.247-.047h53.168a.727.727,0,0,1,.2.03l10.786,3.36,8.174.119a.687.687,0,0,1,.675.686v8.05a.686.686,0,0,1-.686.686h-6.554v3.2A.686.686,0,0,1,800.048,1269.7Zm-75.975-1.372h75.289v-3.2a.685.685,0,0,1,.686-.686H806.6v-6.687l-7.6-.113a.713.713,0,0,1-.193-.032l-10.781-3.357H735.095l-13.4,5.2a.692.692,0,0,1-.247.047H720.6v5.272Z" transform="translate(-719.224 -1252.883)"/>
  </g>
  <g id="Grupo_90651" data-name="Grupo 90651" transform="translate(186.095 49.073)">
    <ellipse id="Elipse_4233" data-name="Elipse 4233" cx="11.905" cy="10.193" rx="11.905" ry="10.193" transform="translate(0.687 0.685)"/>
    <path id="Trazado_134384" data-name="Trazado 134384" d="M867.46,1278.466c-6.943,0-12.592-4.88-12.592-10.878s5.648-10.878,12.592-10.878,12.592,4.88,12.592,10.878S874.4,1278.466,867.46,1278.466Zm0-20.384c-6.186,0-11.22,4.264-11.22,9.506s5.034,9.506,11.22,9.506,11.22-4.264,11.22-9.506S873.646,1258.082,867.46,1258.082Z" transform="translate(-854.868 -1256.71)"/>
  </g>
  <g id="Grupo_90652" data-name="Grupo 90652" transform="translate(15.134 49.073)">
    <ellipse id="Elipse_4234" data-name="Elipse 4234" cx="11.905" cy="10.193" rx="11.905" ry="10.193" transform="translate(0.686 0.685)"/>
    <path id="Trazado_134385" data-name="Trazado 134385" d="M742.847,1278.466c-6.943,0-12.592-4.88-12.592-10.878s5.648-10.878,12.592-10.878,12.59,4.88,12.59,10.878S749.789,1278.466,742.847,1278.466Zm0-20.384c-6.186,0-11.22,4.264-11.22,9.506s5.034,9.506,11.22,9.506,11.218-4.264,11.218-9.506S749.031,1258.082,742.847,1258.082Z" transform="translate(-730.255 -1256.71)"/>
  </g>
  <g id="Grupo_90653" data-name="Grupo 90653" transform="translate(47.351 49.073)">
    <ellipse id="Elipse_4235" data-name="Elipse 4235" cx="11.905" cy="10.193" rx="11.905" ry="10.193" transform="translate(0.687 0.685)"/>
    <path id="Trazado_134386" data-name="Trazado 134386" d="M766.33,1278.466c-6.943,0-12.592-4.88-12.592-10.878s5.648-10.878,12.592-10.878,12.592,4.88,12.592,10.878S773.273,1278.466,766.33,1278.466Zm0-20.384c-6.186,0-11.22,4.264-11.22,9.506s5.034,9.506,11.22,9.506,11.22-4.264,11.22-9.506S772.516,1258.082,766.33,1258.082Z" transform="translate(-753.738 -1256.71)"/>
  </g>
  <g id="Grupo_90654" data-name="Grupo 90654" transform="translate(218.601 49.073)">
    <ellipse id="Elipse_4236" data-name="Elipse 4236" cx="11.905" cy="10.193" rx="11.905" ry="10.193" transform="translate(0.685 0.685)"/>
    <path id="Trazado_134387" data-name="Trazado 134387" d="M891.151,1278.466c-6.942,0-12.59-4.88-12.59-10.878s5.648-10.878,12.59-10.878,12.592,4.88,12.592,10.878S898.095,1278.466,891.151,1278.466Zm0-20.384c-6.186,0-11.218,4.264-11.218,9.506s5.032,9.506,11.218,9.506,11.22-4.264,11.22-9.506S897.337,1258.082,891.151,1258.082Z" transform="translate(-878.561 -1256.71)"/>
  </g>
  <g id="Grupo_90655" data-name="Grupo 90655" transform="translate(245.382 58.145)">
    <path id="Trazado_134388" data-name="Trazado 134388" d="M898.582,1263.823v4.439h2.26v3.551" transform="translate(-897.896 -1263.137)" fill="#fff"/>
    <path id="Trazado_134389" data-name="Trazado 134389" d="M901.028,1272.684a.684.684,0,0,1-.686-.686v-2.865h-1.574a.686.686,0,0,1-.686-.686v-4.438a.686.686,0,0,1,1.372,0v3.752h1.574a.685.685,0,0,1,.686.686V1272A.685.685,0,0,1,901.028,1272.684Z" transform="translate(-898.082 -1263.323)"/>
  </g>
  <g id="Grupo_90659" data-name="Grupo 90659" transform="translate(116.629 51.357)">
    <g id="Grupo_90656" data-name="Grupo 90656">
      <rect id="Rectángulo_7078" data-name="Rectángulo 7078" width="20.168" height="9.089" transform="translate(0.687 0.686)" fill="#fff"/>
      <path id="Trazado_134390" data-name="Trazado 134390" d="M825.09,1268.836H804.92a.686.686,0,0,1-.686-.686v-9.089a.686.686,0,0,1,.686-.686h20.17a.686.686,0,0,1,.686.686v9.089A.686.686,0,0,1,825.09,1268.836Zm-19.484-1.372h18.8v-7.717h-18.8Z" transform="translate(-804.234 -1258.375)"/>
    </g>
    <g id="Grupo_90657" data-name="Grupo 90657" transform="translate(2.644)">
      <rect id="Rectángulo_7079" data-name="Rectángulo 7079" width="2.644" height="9.089" transform="translate(0.687 0.686)" fill="#fff"/>
      <path id="Trazado_134391" data-name="Trazado 134391" d="M809.491,1268.836h-2.644a.686.686,0,0,1-.686-.686v-9.089a.686.686,0,0,1,.686-.686h2.644a.686.686,0,0,1,.686.686v9.089A.686.686,0,0,1,809.491,1268.836Zm-1.958-1.372H808.8v-7.717h-1.272Z" transform="translate(-806.161 -1258.375)"/>
    </g>
    <g id="Grupo_90658" data-name="Grupo 90658" transform="translate(14.164)">
      <rect id="Rectángulo_7080" data-name="Rectángulo 7080" width="2.644" height="9.089" transform="translate(0.686 0.686)" fill="#fff"/>
      <path id="Trazado_134392" data-name="Trazado 134392" d="M817.886,1268.836h-2.642a.685.685,0,0,1-.686-.686v-9.089a.685.685,0,0,1,.686-.686h2.642a.685.685,0,0,1,.686.686v9.089A.685.685,0,0,1,817.886,1268.836Zm-1.956-1.372H817.2v-7.717H815.93Z" transform="translate(-814.558 -1258.375)"/>
    </g>
  </g>
  <g id="Grupo_90660" data-name="Grupo 90660" transform="translate(87.377 55.382)">
    <path id="Trazado_134393" data-name="Trazado 134393" d="M812.665,1261.809H783.413v5.811h4.865v-1.937h24.386Z" transform="translate(-782.727 -1261.123)" fill="#fff"/>
    <path id="Trazado_134394" data-name="Trazado 134394" d="M788.464,1268.491H783.6a.686.686,0,0,1-.686-.686v-5.81a.685.685,0,0,1,.686-.686H812.85a.685.685,0,0,1,.686.686v3.873a.685.685,0,0,1-.686.686h-23.7v1.251A.686.686,0,0,1,788.464,1268.491Zm-4.179-1.372h3.493v-1.251a.685.685,0,0,1,.686-.686h23.7v-2.5H784.285Z" transform="translate(-782.913 -1261.309)"/>
  </g>
  <g id="Grupo_90661" data-name="Grupo 90661" transform="translate(87.377 47.332)">
    <path id="Trazado_134395" data-name="Trazado 134395" d="M815.717,1255.941h-32.3v8.05h20.6v-4.025h11.7Z" transform="translate(-782.727 -1255.255)" fill="#fff"/>
    <path id="Trazado_134396" data-name="Trazado 134396" d="M804.2,1264.863H783.6a.686.686,0,0,1-.686-.686v-8.05a.686.686,0,0,1,.686-.686h32.3a.686.686,0,0,1,.686.686v4.025a.686.686,0,0,1-.686.686H804.887v3.339A.686.686,0,0,1,804.2,1264.863Zm-19.916-1.372h19.23v-3.339a.685.685,0,0,1,.686-.686h11.015v-2.653H784.285Z" transform="translate(-782.913 -1255.441)"/>
  </g>
  <g id="Grupo_90662" data-name="Grupo 90662" transform="translate(189.804 52.246)">
    <ellipse id="Elipse_4237" data-name="Elipse 4237" cx="8.197" cy="7.018" rx="8.197" ry="7.018" transform="translate(0.687 0.687)" fill="#fff"/>
    <path id="Trazado_134397" data-name="Trazado 134397" d="M866.454,1274.431c-4.9,0-8.883-3.456-8.883-7.7s3.986-7.7,8.883-7.7,8.883,3.456,8.883,7.7S871.352,1274.431,866.454,1274.431Zm0-14.036c-4.142,0-7.511,2.841-7.511,6.333s3.37,6.332,7.511,6.332,7.511-2.84,7.511-6.332S870.6,1260.395,866.454,1260.395Z" transform="translate(-857.571 -1259.023)"/>
  </g>
  <g id="Grupo_90663" data-name="Grupo 90663" transform="translate(194.644 56.391)">
    <ellipse id="Elipse_4238" data-name="Elipse 4238" cx="3.358" cy="2.875" rx="3.358" ry="2.875" transform="translate(0.686 0.685)" fill="#fff"/>
    <path id="Trazado_134398" data-name="Trazado 134398" d="M865.142,1269.164a3.589,3.589,0,1,1,4.044-3.56A3.829,3.829,0,0,1,865.142,1269.164Zm0-5.748a2.232,2.232,0,1,0,2.672,2.188A2.47,2.47,0,0,0,865.142,1263.416Z" transform="translate(-861.099 -1262.044)"/>
  </g>
  <g id="Grupo_90664" data-name="Grupo 90664" transform="translate(18.842 52.246)">
    <ellipse id="Elipse_4239" data-name="Elipse 4239" cx="8.197" cy="7.018" rx="8.197" ry="7.018" transform="translate(0.686 0.687)" fill="#fff"/>
    <path id="Trazado_134399" data-name="Trazado 134399" d="M741.841,1274.431c-4.9,0-8.883-3.456-8.883-7.7s3.984-7.7,8.883-7.7,8.883,3.456,8.883,7.7S746.739,1274.431,741.841,1274.431Zm0-14.036c-4.142,0-7.511,2.841-7.511,6.333s3.369,6.332,7.511,6.332,7.511-2.84,7.511-6.332S745.983,1260.395,741.841,1260.395Z" transform="translate(-732.958 -1259.023)"/>
  </g>
  <g id="Grupo_90665" data-name="Grupo 90665" transform="translate(23.681 56.391)">
    <ellipse id="Elipse_4240" data-name="Elipse 4240" cx="3.358" cy="2.875" rx="3.358" ry="2.875" transform="translate(0.687 0.685)" fill="#fff"/>
    <path id="Trazado_134400" data-name="Trazado 134400" d="M740.529,1269.164a3.589,3.589,0,1,1,4.044-3.56A3.83,3.83,0,0,1,740.529,1269.164Zm0-5.748a2.232,2.232,0,1,0,2.673,2.188A2.47,2.47,0,0,0,740.529,1263.416Z" transform="translate(-736.485 -1262.044)"/>
  </g>
  <g id="Grupo_90666" data-name="Grupo 90666" transform="translate(51.059 52.246)">
    <ellipse id="Elipse_4241" data-name="Elipse 4241" cx="8.197" cy="7.018" rx="8.197" ry="7.018" transform="translate(0.687 0.687)" fill="#fff"/>
    <path id="Trazado_134401" data-name="Trazado 134401" d="M765.324,1274.431c-4.9,0-8.883-3.456-8.883-7.7s3.986-7.7,8.883-7.7,8.883,3.456,8.883,7.7S770.222,1274.431,765.324,1274.431Zm0-14.036c-4.142,0-7.511,2.841-7.511,6.333s3.37,6.332,7.511,6.332,7.511-2.84,7.511-6.332S769.466,1260.395,765.324,1260.395Z" transform="translate(-756.441 -1259.023)"/>
  </g>
  <g id="Grupo_90667" data-name="Grupo 90667" transform="translate(55.9 56.391)">
    <ellipse id="Elipse_4242" data-name="Elipse 4242" cx="3.358" cy="2.875" rx="3.358" ry="2.875" transform="translate(0.686 0.685)" fill="#fff"/>
    <path id="Trazado_134402" data-name="Trazado 134402" d="M764.012,1269.164a3.589,3.589,0,1,1,4.044-3.56A3.829,3.829,0,0,1,764.012,1269.164Zm0-5.748a2.232,2.232,0,1,0,2.672,2.188A2.47,2.47,0,0,0,764.012,1263.416Z" transform="translate(-759.969 -1262.044)"/>
  </g>
  <g id="Grupo_90668" data-name="Grupo 90668" transform="translate(222.309 52.246)">
    <ellipse id="Elipse_4243" data-name="Elipse 4243" cx="8.197" cy="7.018" rx="8.197" ry="7.018" transform="translate(0.685 0.687)" fill="#fff"/>
    <path id="Trazado_134403" data-name="Trazado 134403" d="M890.146,1274.431c-4.9,0-8.882-3.456-8.882-7.7s3.984-7.7,8.882-7.7,8.883,3.456,8.883,7.7S895.045,1274.431,890.146,1274.431Zm0-14.036c-4.141,0-7.51,2.841-7.51,6.333s3.37,6.332,7.51,6.332,7.511-2.84,7.511-6.332S894.288,1260.395,890.146,1260.395Z" transform="translate(-881.264 -1259.023)"/>
  </g>
  <g id="Grupo_90669" data-name="Grupo 90669" transform="translate(227.148 56.391)">
    <ellipse id="Elipse_4244" data-name="Elipse 4244" cx="3.358" cy="2.875" rx="3.358" ry="2.875" transform="translate(0.685 0.685)" fill="#fff"/>
    <path id="Trazado_134404" data-name="Trazado 134404" d="M888.834,1269.164a3.589,3.589,0,1,1,4.044-3.56A3.829,3.829,0,0,1,888.834,1269.164Zm0-5.748a2.232,2.232,0,1,0,2.672,2.188A2.47,2.47,0,0,0,888.834,1263.416Z" transform="translate(-884.791 -1262.044)"/>
  </g>
  <g id="Grupo_90670" data-name="Grupo 90670" transform="translate(116.629 38.656)">
    <rect id="Rectángulo_7081" data-name="Rectángulo 7081" width="9.553" height="2.502" transform="translate(0.687 0.687)" fill="#fff"/>
    <path id="Trazado_134405" data-name="Trazado 134405" d="M814.473,1252.991H804.92a.685.685,0,0,1-.686-.686v-2.5a.686.686,0,0,1,.686-.686h9.553a.685.685,0,0,1,.686.686v2.5A.685.685,0,0,1,814.473,1252.991Zm-8.867-1.372h8.181v-1.131h-8.181Z" transform="translate(-804.234 -1249.117)"/>
  </g>
  <g id="Grupo_90671" data-name="Grupo 90671" transform="translate(117.795 20.773)">
    <rect id="Rectángulo_7082" data-name="Rectángulo 7082" width="6.823" height="17.883" transform="translate(0.686 0.687)" fill="#fff"/>
    <path id="Trazado_134406" data-name="Trazado 134406" d="M812.594,1255.337H805.77a.685.685,0,0,1-.686-.686v-17.883a.686.686,0,0,1,.686-.686h6.824a.686.686,0,0,1,.686.686v17.883A.685.685,0,0,1,812.594,1255.337Zm-6.138-1.372h5.452v-16.511h-5.452Z" transform="translate(-805.084 -1236.082)"/>
  </g>
  <g id="Grupo_90672" data-name="Grupo 90672" transform="translate(118.988 2.179)">
    <rect id="Rectángulo_7083" data-name="Rectángulo 7083" width="4.435" height="18.594" transform="translate(0.687 0.686)" fill="#fff"/>
    <path id="Trazado_134407" data-name="Trazado 134407" d="M811.075,1242.495H806.64a.686.686,0,0,1-.686-.686v-18.594a.686.686,0,0,1,.686-.686h4.436a.685.685,0,0,1,.686.686v18.594A.685.685,0,0,1,811.075,1242.495Zm-3.75-1.372h3.064V1223.9h-3.064Z" transform="translate(-805.954 -1222.529)"/>
  </g>
  <g id="Grupo_90673" data-name="Grupo 90673" transform="translate(1.534 18.468)">
    <path id="Trazado_134408" data-name="Trazado 134408" d="M720.842,1266.228V1265.1a15.334,15.334,0,0,1,15.333-15.334l55.765-1.613,7.506-13.235h31.782s4.21-1.615,7.761,28.73H798.411l-5.906-7.425H734.364l-6.069,10.007Z" transform="translate(-720.156 -1234.217)" fill="#fff"/>
    <path id="Trazado_134409" data-name="Trazado 134409" d="M728.48,1267.1h-7.452a.685.685,0,0,1-.686-.686v-1.129a16.039,16.039,0,0,1,16.02-16.02l55.358-1.6,7.315-12.9a.688.688,0,0,1,.6-.347h31.712a1.517,1.517,0,0,1,1.025.245c2,1.213,4.932,7.244,7.488,29.091a.687.687,0,0,1-.682.766H798.6a.69.69,0,0,1-.538-.259l-5.7-7.166H734.935l-5.868,9.678A.685.685,0,0,1,728.48,1267.1Zm-6.766-1.372h6.381l5.869-9.676a.682.682,0,0,1,.586-.331h58.141a.69.69,0,0,1,.538.259l5.7,7.166H838.4c-3.066-25.658-6.585-27.281-6.867-27.369a.719.719,0,0,1-.121.011H800.031l-7.308,12.888a.689.689,0,0,1-.576.347l-55.765,1.613a14.67,14.67,0,0,0-14.667,14.648Zm109.938-29.981Zm0,0h0Zm0,0h0Zm0,0h0Zm0,0h0Z" transform="translate(-720.342 -1234.402)"/>
  </g>
  <g id="Grupo_90674" data-name="Grupo 90674" transform="translate(1.534 39.948)">
    <path id="Trazado_134410" data-name="Trazado 134410" d="M801.625,1261.7h-7.263l-6.829-7.263H734.364l-6.069,5.972h-7.452v-7.1a2.743,2.743,0,0,1,2.744-2.744h68.919Z" transform="translate(-720.156 -1249.873)" fill="#fff"/>
    <path id="Trazado_134411" data-name="Trazado 134411" d="M801.811,1262.568h-7.263a.691.691,0,0,1-.5-.215l-6.625-7.048H734.831l-5.869,5.775a.689.689,0,0,1-.482.2h-7.452a.685.685,0,0,1-.686-.686v-7.1a3.433,3.433,0,0,1,3.43-3.43h68.919a.684.684,0,0,1,.531.251l9.118,11.137a.685.685,0,0,1-.53,1.121Zm-6.967-1.372h5.518l-8-9.766H723.772a2.06,2.06,0,0,0-2.058,2.058v6.415H728.2l5.871-5.774a.689.689,0,0,1,.48-.2h53.168a.68.68,0,0,1,.5.215Z" transform="translate(-720.342 -1250.059)"/>
  </g>
  <g id="Grupo_90675" data-name="Grupo 90675" transform="translate(131.948)">
    <rect id="Rectángulo_7084" data-name="Rectángulo 7084" width="147.927" height="49.072" transform="translate(0.687 0.686)" fill="#fff"/>
    <path id="Trazado_134412" data-name="Trazado 134412" d="M964.014,1271.386H816.086a.686.686,0,0,1-.686-.686v-49.073a.686.686,0,0,1,.686-.686H964.014a.686.686,0,0,1,.686.686V1270.7A.686.686,0,0,1,964.014,1271.386Zm-147.242-1.372H963.328v-47.7H816.772Z" transform="translate(-815.4 -1220.941)"/>
  </g>
  <g id="Grupo_90676" data-name="Grupo 90676" transform="translate(138.242 3.147)">
    <rect id="Rectángulo_7085" data-name="Rectángulo 7085" width="135.338" height="45.925" transform="translate(0.687 0.686)" fill="#fff"/>
    <path id="Trazado_134413" data-name="Trazado 134413" d="M956.013,1270.532H820.674a.686.686,0,0,1-.686-.686v-45.926a.686.686,0,0,1,.686-.686H956.013a.686.686,0,0,1,.686.686v45.926A.686.686,0,0,1,956.013,1270.532Zm-134.653-1.372H955.327v-44.554H821.36Z" transform="translate(-819.988 -1223.235)"/>
  </g>
  <g id="Grupo_90677" data-name="Grupo 90677" transform="translate(88.209 20.773)">
    <rect id="Rectángulo_7086" data-name="Rectángulo 7086" width="20.983" height="10.459" transform="translate(0.685 0.687)" fill="#fff"/>
    <path id="Trazado_134414" data-name="Trazado 134414" d="M805.186,1247.914H784.2a.685.685,0,0,1-.686-.686v-10.46a.685.685,0,0,1,.686-.686h20.981a.685.685,0,0,1,.686.686v10.46A.685.685,0,0,1,805.186,1247.914Zm-20.3-1.372H804.5v-9.088H784.891Z" transform="translate(-783.519 -1236.082)"/>
  </g>
  <g id="Grupo_90678" data-name="Grupo 90678" transform="translate(78.04 20.773)">
    <path id="Trazado_134415" data-name="Trazado 134415" d="M776.606,1247.041H782.9l1.614-10.459h-3.954Z" transform="translate(-775.921 -1235.896)" fill="#fff"/>
    <path id="Trazado_134416" data-name="Trazado 134416" d="M783.086,1247.914h-6.294a.686.686,0,0,1-.641-.929l3.954-10.46a.685.685,0,0,1,.641-.443H784.7a.689.689,0,0,1,.521.24.678.678,0,0,1,.156.55l-1.615,10.46A.686.686,0,0,1,783.086,1247.914Zm-5.3-1.372H782.5l1.4-9.088H781.22Z" transform="translate(-776.107 -1236.082)"/>
  </g>
</svg>
