<svg id="Grupo_91014" data-name="Grupo 91014" xmlns="http://www.w3.org/2000/svg" width="532.002" height="87.411" viewBox="0 0 532.002 87.411">
  <g id="Grupo_90970" data-name="Grupo 90970" transform="translate(92.819 62.759)">
    <path id="Trazado_134750" data-name="Trazado 134750" d="M2747.513,1204.915h8.475v1.292h186.565v-8.359h-195.04Z" transform="translate(-2746.641 -1196.977)"/>
    <path id="Trazado_134751" data-name="Trazado 134751" d="M2942.925,1207.455H2756.361a.874.874,0,0,1-.873-.873v-.419h-7.6a.872.872,0,0,1-.873-.873v-7.066a.871.871,0,0,1,.873-.873h195.038a.871.871,0,0,1,.873.873v8.359A.872.872,0,0,1,2942.925,1207.455Zm-185.691-1.747h184.817V1199.1H2748.76v5.32h7.6a.871.871,0,0,1,.873.873Z" transform="translate(-2747.014 -1197.35)"/>
  </g>
  <g id="Grupo_90971" data-name="Grupo 90971" transform="translate(0 52.762)">
    <path id="Trazado_134752" data-name="Trazado 134752" d="M2753.6,1211.557H2701.17l-6.8-2.37v-8.143h9.589l8.655-8.919h24.583l15.065,5.86h8.95v8.315h-7.4Z" transform="translate(-2693.493 -1191.253)"/>
    <path id="Trazado_134753" data-name="Trazado 134753" d="M2753.977,1212.8h-52.432a.931.931,0,0,1-.286-.047l-6.8-2.37a.875.875,0,0,1-.587-.824v-8.145a.874.874,0,0,1,.874-.873h9.219l8.4-8.654a.88.88,0,0,1,.625-.264h24.583a.9.9,0,0,1,.316.059l14.911,5.8h8.788a.873.873,0,0,1,.873.873v8.315a.872.872,0,0,1-.873.873h-6.565l-.168,4.417A.875.875,0,0,1,2753.977,1212.8Zm-52.284-1.747h51.444l.166-4.415a.877.877,0,0,1,.873-.842h6.534v-6.568h-8.077a.861.861,0,0,1-.318-.059l-14.911-5.8h-24.049l-8.4,8.654a.875.875,0,0,1-.627.264h-8.715v6.65Z" transform="translate(-2693.867 -1191.626)"/>
  </g>
  <g id="Grupo_90972" data-name="Grupo 90972" transform="translate(18.794 60.672)">
    <ellipse id="Elipse_4338" data-name="Elipse 4338" cx="14.627" cy="12.495" rx="14.627" ry="12.495" transform="translate(0.873 0.874)"/>
    <path id="Trazado_134754" data-name="Trazado 134754" d="M2720.128,1222.893c-8.547,0-15.5-6-15.5-13.368s6.953-13.371,15.5-13.371,15.5,6,15.5,13.371S2728.675,1222.893,2720.128,1222.893Zm0-24.992c-7.585,0-13.753,5.215-13.753,11.624s6.168,11.621,13.753,11.621,13.755-5.215,13.755-11.621S2727.713,1197.9,2720.128,1197.9Z" transform="translate(-2704.628 -1196.155)"/>
  </g>
  <g id="Grupo_90973" data-name="Grupo 90973" transform="translate(24.543 65.585)">
    <ellipse id="Elipse_4339" data-name="Elipse 4339" cx="8.877" cy="7.583" rx="8.877" ry="7.583" transform="translate(0.874 0.873)" fill="#fff"/>
    <path id="Trazado_134755" data-name="Trazado 134755" d="M2717.67,1215.881c-5.375,0-9.75-3.793-9.75-8.455s4.375-8.458,9.75-8.458,9.75,3.8,9.75,8.458S2723.046,1215.881,2717.67,1215.881Zm0-15.166c-4.413,0-8,3.009-8,6.712s3.591,6.708,8,6.708,8-3.009,8-6.708S2722.084,1200.715,2717.67,1200.715Z" transform="translate(-2707.92 -1198.968)"/>
  </g>
  <g id="Grupo_90974" data-name="Grupo 90974" transform="translate(29.589 69.895)">
    <ellipse id="Elipse_4340" data-name="Elipse 4340" cx="3.833" cy="3.275" rx="3.833" ry="3.275" transform="translate(0.872 0.872)" fill="#fff"/>
    <path id="Trazado_134756" data-name="Trazado 134756" d="M2715.514,1209.73a4.18,4.18,0,1,1,4.707-4.146A4.459,4.459,0,0,1,2715.514,1209.73Zm0-6.547a2.453,2.453,0,1,0,2.96,2.4A2.726,2.726,0,0,0,2715.514,1203.183Z" transform="translate(-2710.809 -1201.436)"/>
  </g>
  <g id="Grupo_90975" data-name="Grupo 90975" transform="translate(227.667 59.49)">
    <ellipse id="Elipse_4341" data-name="Elipse 4341" cx="16.231" cy="13.087" rx="16.231" ry="13.087" transform="translate(0.872 0.873)"/>
    <path id="Trazado_134757" data-name="Trazado 134757" d="M2841.33,1223.4c-9.432,0-17.1-6.263-17.1-13.96s7.672-13.961,17.1-13.961,17.1,6.261,17.1,13.961S2850.762,1223.4,2841.33,1223.4Zm0-26.174c-8.468,0-15.358,5.478-15.358,12.215s6.89,12.213,15.358,12.213,15.357-5.479,15.357-12.213S2849.8,1197.224,2841.33,1197.224Z" transform="translate(-2824.226 -1195.478)"/>
  </g>
  <g id="Grupo_90976" data-name="Grupo 90976" transform="translate(234.047 64.635)">
    <ellipse id="Elipse_4342" data-name="Elipse 4342" cx="9.851" cy="7.942" rx="9.851" ry="7.942" transform="translate(0.874 0.873)" fill="#fff"/>
    <path id="Trazado_134758" data-name="Trazado 134758" d="M2838.6,1216.055c-5.913,0-10.725-3.954-10.725-8.814s4.812-8.816,10.725-8.816,10.723,3.954,10.723,8.816S2844.516,1216.055,2838.6,1216.055Zm0-15.884c-4.951,0-8.978,3.17-8.978,7.07s4.027,7.068,8.978,7.068,8.977-3.172,8.977-7.068S2843.554,1200.17,2838.6,1200.17Z" transform="translate(-2827.879 -1198.424)"/>
  </g>
  <g id="Grupo_90977" data-name="Grupo 90977" transform="translate(239.644 69.148)">
    <ellipse id="Elipse_4343" data-name="Elipse 4343" cx="4.254" cy="3.43" rx="4.254" ry="3.43" transform="translate(0.873 0.872)" fill="#fff"/>
    <path id="Trazado_134759" data-name="Trazado 134759" d="M2836.211,1209.613c-2.829,0-5.128-1.93-5.128-4.3s2.3-4.3,5.128-4.3,5.127,1.93,5.127,4.3S2839.039,1209.613,2836.211,1209.613Zm0-6.859c-1.865,0-3.381,1.146-3.381,2.557s1.516,2.555,3.381,2.555,3.38-1.147,3.38-2.555S2838.075,1202.754,2836.211,1202.754Z" transform="translate(-2831.083 -1201.008)"/>
  </g>
  <g id="Grupo_90978" data-name="Grupo 90978" transform="translate(188.494 59.49)">
    <ellipse id="Elipse_4344" data-name="Elipse 4344" cx="16.231" cy="13.087" rx="16.231" ry="13.087" transform="translate(0.873 0.873)"/>
    <path id="Trazado_134760" data-name="Trazado 134760" d="M2818.9,1223.4c-9.433,0-17.1-6.263-17.1-13.96s7.672-13.961,17.1-13.961,17.1,6.261,17.1,13.961S2828.332,1223.4,2818.9,1223.4Zm0-26.174c-8.469,0-15.359,5.478-15.359,12.215s6.89,12.213,15.359,12.213,15.358-5.479,15.358-12.213S2827.367,1197.224,2818.9,1197.224Z" transform="translate(-2801.796 -1195.478)"/>
  </g>
  <g id="Grupo_90979" data-name="Grupo 90979" transform="translate(194.874 64.635)">
    <ellipse id="Elipse_4345" data-name="Elipse 4345" cx="9.851" cy="7.942" rx="9.851" ry="7.942" transform="translate(0.874 0.873)" fill="#fff"/>
    <path id="Trazado_134761" data-name="Trazado 134761" d="M2816.174,1216.055c-5.913,0-10.725-3.954-10.725-8.814s4.812-8.816,10.725-8.816,10.724,3.954,10.724,8.816S2822.087,1216.055,2816.174,1216.055Zm0-15.884c-4.951,0-8.979,3.17-8.979,7.07s4.027,7.068,8.979,7.068,8.977-3.172,8.977-7.068S2821.125,1200.17,2816.174,1200.17Z" transform="translate(-2805.449 -1198.424)"/>
  </g>
  <g id="Grupo_90980" data-name="Grupo 90980" transform="translate(200.471 69.148)">
    <ellipse id="Elipse_4346" data-name="Elipse 4346" cx="4.254" cy="3.43" rx="4.254" ry="3.43" transform="translate(0.873 0.872)" fill="#fff"/>
    <path id="Trazado_134762" data-name="Trazado 134762" d="M2813.781,1209.613c-2.828,0-5.127-1.93-5.127-4.3s2.3-4.3,5.127-4.3,5.126,1.93,5.126,4.3S2816.609,1209.613,2813.781,1209.613Zm0-6.859c-1.865,0-3.381,1.146-3.381,2.557s1.516,2.555,3.381,2.555,3.379-1.147,3.379-2.555S2815.645,1202.754,2813.781,1202.754Z" transform="translate(-2808.654 -1201.008)"/>
  </g>
  <g id="Grupo_90981" data-name="Grupo 90981" transform="translate(328.848 59.49)">
    <ellipse id="Elipse_4347" data-name="Elipse 4347" cx="16.231" cy="13.087" rx="16.231" ry="13.087" transform="translate(0.873 0.873)"/>
    <path id="Trazado_134763" data-name="Trazado 134763" d="M2899.266,1223.4c-9.431,0-17.1-6.263-17.1-13.96s7.674-13.961,17.1-13.961,17.1,6.261,17.1,13.961S2908.7,1223.4,2899.266,1223.4Zm0-26.174c-8.469,0-15.358,5.478-15.358,12.215s6.89,12.213,15.358,12.213,15.358-5.479,15.358-12.213S2907.734,1197.224,2899.266,1197.224Z" transform="translate(-2882.161 -1195.478)"/>
  </g>
  <g id="Grupo_90982" data-name="Grupo 90982" transform="translate(335.228 64.635)">
    <ellipse id="Elipse_4348" data-name="Elipse 4348" cx="9.851" cy="7.942" rx="9.851" ry="7.942" transform="translate(0.874 0.873)" fill="#fff"/>
    <path id="Trazado_134764" data-name="Trazado 134764" d="M2896.539,1216.055c-5.913,0-10.725-3.954-10.725-8.814s4.812-8.816,10.725-8.816,10.723,3.954,10.723,8.816S2902.453,1216.055,2896.539,1216.055Zm0-15.884c-4.951,0-8.979,3.17-8.979,7.07s4.028,7.068,8.979,7.068,8.977-3.172,8.977-7.068S2901.489,1200.17,2896.539,1200.17Z" transform="translate(-2885.814 -1198.424)"/>
  </g>
  <g id="Grupo_90983" data-name="Grupo 90983" transform="translate(340.828 69.148)">
    <ellipse id="Elipse_4349" data-name="Elipse 4349" cx="4.254" cy="3.43" rx="4.254" ry="3.43" transform="translate(0.872 0.872)" fill="#fff"/>
    <path id="Trazado_134765" data-name="Trazado 134765" d="M2894.146,1209.613c-2.828,0-5.126-1.93-5.126-4.3s2.3-4.3,5.126-4.3,5.128,1.93,5.128,4.3S2896.973,1209.613,2894.146,1209.613Zm0-6.859c-1.864,0-3.379,1.146-3.379,2.557s1.516,2.555,3.379,2.555,3.381-1.147,3.381-2.555S2896.009,1202.754,2894.146,1202.754Z" transform="translate(-2889.02 -1201.008)"/>
  </g>
  <g id="Grupo_90984" data-name="Grupo 90984" transform="translate(490.613 59.49)">
    <ellipse id="Elipse_4350" data-name="Elipse 4350" cx="16.231" cy="13.087" rx="16.231" ry="13.087" transform="translate(0.873 0.873)"/>
    <path id="Trazado_134766" data-name="Trazado 134766" d="M2991.888,1223.4c-9.429,0-17.1-6.263-17.1-13.96s7.674-13.961,17.1-13.961,17.1,6.261,17.1,13.961S3001.321,1223.4,2991.888,1223.4Zm0-26.174c-8.469,0-15.357,5.478-15.357,12.215s6.888,12.213,15.357,12.213,15.358-5.479,15.358-12.213S3000.356,1197.224,2991.888,1197.224Z" transform="translate(-2974.785 -1195.478)"/>
  </g>
  <g id="Grupo_90985" data-name="Grupo 90985" transform="translate(496.993 64.635)">
    <ellipse id="Elipse_4351" data-name="Elipse 4351" cx="9.851" cy="7.942" rx="9.851" ry="7.942" transform="translate(0.874 0.873)" fill="#fff"/>
    <path id="Trazado_134767" data-name="Trazado 134767" d="M2989.161,1216.055c-5.914,0-10.723-3.954-10.723-8.814s4.809-8.816,10.723-8.816,10.725,3.954,10.725,8.816S2995.075,1216.055,2989.161,1216.055Zm0-15.884c-4.95,0-8.977,3.17-8.977,7.07s4.027,7.068,8.977,7.068,8.979-3.172,8.979-7.068S2994.113,1200.17,2989.161,1200.17Z" transform="translate(-2978.438 -1198.424)"/>
  </g>
  <g id="Grupo_90986" data-name="Grupo 90986" transform="translate(502.59 69.148)">
    <ellipse id="Elipse_4352" data-name="Elipse 4352" cx="4.254" cy="3.43" rx="4.254" ry="3.43" transform="translate(0.873 0.872)" fill="#fff"/>
    <path id="Trazado_134768" data-name="Trazado 134768" d="M2986.769,1209.613c-2.827,0-5.126-1.93-5.126-4.3s2.3-4.3,5.126-4.3,5.128,1.93,5.128,4.3S2989.6,1209.613,2986.769,1209.613Zm0-6.859c-1.864,0-3.379,1.146-3.379,2.557s1.516,2.555,3.379,2.555,3.381-1.147,3.381-2.555S2988.634,1202.754,2986.769,1202.754Z" transform="translate(-2981.643 -1201.008)"/>
  </g>
  <g id="Grupo_90991" data-name="Grupo 90991" transform="translate(105.137 60.545)">
    <g id="Grupo_90987" data-name="Grupo 90987">
      <rect id="Rectángulo_7175" data-name="Rectángulo 7175" width="22.022" height="11.011" transform="translate(0.875 0.873)" fill="#fff"/>
      <path id="Trazado_134769" data-name="Trazado 134769" d="M2776.963,1208.84H2754.94a.874.874,0,0,1-.873-.873v-11.011a.874.874,0,0,1,.873-.873h22.023a.874.874,0,0,1,.873.873v11.011A.873.873,0,0,1,2776.963,1208.84Zm-21.15-1.746h20.277v-9.265h-20.277Z" transform="translate(-2754.067 -1196.082)"/>
    </g>
    <g id="Grupo_90990" data-name="Grupo 90990" transform="translate(2.844)">
      <g id="Grupo_90988" data-name="Grupo 90988">
        <rect id="Rectángulo_7176" data-name="Rectángulo 7176" width="2.798" height="11.011" transform="translate(0.874 0.873)" fill="#fff"/>
        <path id="Trazado_134770" data-name="Trazado 134770" d="M2759.368,1208.84h-2.8a.874.874,0,0,1-.873-.873v-11.011a.874.874,0,0,1,.873-.873h2.8a.874.874,0,0,1,.873.873v11.011A.874.874,0,0,1,2759.368,1208.84Zm-1.927-1.746h1.053v-9.265h-1.053Z" transform="translate(-2755.695 -1196.082)"/>
      </g>
      <g id="Grupo_90989" data-name="Grupo 90989" transform="translate(13.538)">
        <rect id="Rectángulo_7177" data-name="Rectángulo 7177" width="2.798" height="11.011" transform="translate(0.874 0.873)" fill="#fff"/>
        <path id="Trazado_134771" data-name="Trazado 134771" d="M2767.118,1208.84h-2.8a.873.873,0,0,1-.873-.873v-11.011a.873.873,0,0,1,.873-.873h2.8a.874.874,0,0,1,.873.873v11.011A.873.873,0,0,1,2767.118,1208.84Zm-1.925-1.746h1.051v-9.265h-1.051Z" transform="translate(-2763.447 -1196.082)"/>
      </g>
    </g>
  </g>
  <g id="Grupo_90992" data-name="Grupo 90992" transform="translate(66.842 58.622)">
    <path id="Trazado_134772" data-name="Trazado 134772" d="M2775.111,1195.481H2732.64v11.2h25.976v-7.066h16.5Z" transform="translate(-2731.767 -1194.608)" fill="#fff"/>
    <path id="Trazado_134773" data-name="Trazado 134773" d="M2758.99,1207.931h-25.977a.872.872,0,0,1-.873-.873v-11.2a.872.872,0,0,1,.873-.873h42.47a.874.874,0,0,1,.873.873v4.137a.874.874,0,0,1-.873.873h-15.62v6.193A.874.874,0,0,1,2758.99,1207.931Zm-25.1-1.746h24.231v-6.193a.871.871,0,0,1,.873-.873h15.62v-2.391h-40.724Z" transform="translate(-2732.14 -1194.981)"/>
  </g>
  <g id="Grupo_90993" data-name="Grupo 90993" transform="translate(66.842 69.825)">
    <path id="Trazado_134774" data-name="Trazado 134774" d="M2774.176,1203.188v2.844H2738.5v2.483h-5.856V1201.9h34.3v1.293Z" transform="translate(-2731.767 -1201.023)" fill="#fff"/>
    <path id="Trazado_134775" data-name="Trazado 134775" d="M2738.869,1209.762h-5.856a.872.872,0,0,1-.873-.873v-6.619a.871.871,0,0,1,.873-.873h34.3a.871.871,0,0,1,.873.873v.419h6.368a.873.873,0,0,1,.873.873v2.843a.874.874,0,0,1-.873.873h-34.807v1.61A.872.872,0,0,1,2738.869,1209.762Zm-4.983-1.746H2738v-1.61a.873.873,0,0,1,.873-.873h34.807v-1.1h-6.368a.874.874,0,0,1-.873-.873v-.419h-32.549Z" transform="translate(-2732.14 -1201.396)"/>
  </g>
  <g id="Grupo_90994" data-name="Grupo 90994" transform="translate(7.321 20.879)">
    <path id="Trazado_134776" data-name="Trazado 134776" d="M2797.983,1211.613s-1.024-19.178-8.422-35.647a3.929,3.929,0,0,0-3.636-2.1H2752.63a4.289,4.289,0,0,0-3.813,2.083l-7.778,14.461-33.955,2a8.081,8.081,0,0,0-7.214,4.778l-1.312,3.386h34.882a12.509,12.509,0,0,1,9.29,3.909l6.4,7.122Z" transform="translate(-2697.686 -1172.997)" fill="#fff"/>
    <path id="Trazado_134777" data-name="Trazado 134777" d="M2798.355,1212.859H2749.5a.867.867,0,0,1-.649-.29l-6.4-7.122a11.7,11.7,0,0,0-8.641-3.619h-34.881a.875.875,0,0,1-.815-1.189l1.31-3.386a8.924,8.924,0,0,1,7.979-5.334l33.468-1.975,7.549-14.031a5.177,5.177,0,0,1,4.581-2.543H2786.3a4.762,4.762,0,0,1,4.432,2.609c7.381,16.429,8.486,35.767,8.5,35.961a.87.87,0,0,1-.872.919Zm-48.465-1.746h47.528c-.316-4-1.949-20.317-8.281-34.417a3.064,3.064,0,0,0-2.84-1.579H2753a3.423,3.423,0,0,0-3.045,1.626l-7.778,14.459a.876.876,0,0,1-.718.458l-33.953,2a7.189,7.189,0,0,0-6.455,4.221l-.848,2.2h33.607a13.466,13.466,0,0,1,9.94,4.2Z" transform="translate(-2698.058 -1173.37)"/>
  </g>
  <g id="Grupo_90995" data-name="Grupo 90995" transform="translate(2.113 47.591)">
    <path id="Trazado_134778" data-name="Trazado 134778" d="M2695.578,1203.255h7.473l8.655-8.919h24.583l9.665,9.995h6.666V1200.2h-1.573l-6.6-7.555a10.675,10.675,0,0,0-8.032-3.475h-35.632l-1.168,1.051a6.6,6.6,0,0,0-4.036,5.884Z" transform="translate(-2694.703 -1188.292)" fill="#fff"/>
    <path id="Trazado_134779" data-name="Trazado 134779" d="M2752.995,1205.579h-6.666a.872.872,0,0,1-.629-.267l-9.406-9.73h-23.843l-8.4,8.654a.875.875,0,0,1-.627.264h-7.475a.872.872,0,0,1-.873-.873v-7.154a7.432,7.432,0,0,1,4.42-6.617l1.078-.968a.876.876,0,0,1,.583-.223h35.629a11.622,11.622,0,0,1,8.691,3.774l6.339,7.256h1.177a.872.872,0,0,1,.873.873v4.137A.872.872,0,0,1,2752.995,1205.579Zm-6.3-1.747h5.423v-2.391h-.7a.881.881,0,0,1-.659-.3l-6.6-7.557a9.849,9.849,0,0,0-7.374-3.177h-35.3l-.921.829a.838.838,0,0,1-.214.141,5.728,5.728,0,0,0-3.533,5.091v6.28h6.233l8.4-8.654a.878.878,0,0,1,.625-.264h24.583a.874.874,0,0,1,.627.266Z" transform="translate(-2695.077 -1188.665)"/>
  </g>
  <g id="Grupo_90996" data-name="Grupo 90996" transform="translate(106.854)">
    <rect id="Rectángulo_7178" data-name="Rectángulo 7178" width="5.957" height="23.827" transform="translate(0.872 0.873)" fill="#fff"/>
    <path id="Trazado_134780" data-name="Trazado 134780" d="M2761.879,1186.988h-5.955a.872.872,0,0,1-.873-.873v-23.827a.872.872,0,0,1,.873-.873h5.955a.873.873,0,0,1,.873.873v23.827A.873.873,0,0,1,2761.879,1186.988Zm-5.082-1.746h4.209v-22.081H2756.8Z" transform="translate(-2755.05 -1161.415)"/>
  </g>
  <g id="Grupo_90997" data-name="Grupo 90997" transform="translate(105.409 23.827)">
    <rect id="Rectángulo_7179" data-name="Rectángulo 7179" width="10.108" height="22.563" transform="translate(0.873 0.873)" fill="#fff"/>
    <path id="Trazado_134781" data-name="Trazado 134781" d="M2765.2,1199.369H2755.1a.873.873,0,0,1-.873-.873v-22.564a.872.872,0,0,1,.873-.873H2765.2a.872.872,0,0,1,.873.873V1198.5A.873.873,0,0,1,2765.2,1199.369Zm-9.236-1.747h8.363V1176.8h-8.363Z" transform="translate(-2754.223 -1175.058)"/>
  </g>
  <g id="Grupo_90998" data-name="Grupo 90998" transform="translate(105.409 46.391)">
    <rect id="Rectángulo_7180" data-name="Rectángulo 7180" width="12.635" height="3.294" transform="translate(0.873 0.872)" fill="#fff"/>
    <path id="Trazado_134782" data-name="Trazado 134782" d="M2767.732,1193.016H2755.1a.872.872,0,0,1-.873-.873v-3.292a.872.872,0,0,1,.873-.873h12.636a.873.873,0,0,1,.873.873v3.292A.873.873,0,0,1,2767.732,1193.016Zm-11.763-1.746h10.89v-1.546h-10.89Z" transform="translate(-2754.223 -1187.978)"/>
  </g>
  <g id="Grupo_90999" data-name="Grupo 90999" transform="translate(66.379 24.843)">
    <path id="Trazado_134783" data-name="Trazado 134783" d="M2732.375,1188.893h21.963c2.471,0,4.474-1.7,4.474-3.792v-8.963h-25.219Z" transform="translate(-2731.501 -1175.267)" fill="#fff"/>
    <path id="Trazado_134784" data-name="Trazado 134784" d="M2754.711,1190.138h-21.963a.875.875,0,0,1-.87-.955l1.219-12.753a.874.874,0,0,1,.87-.79h25.221a.872.872,0,0,1,.873.873v8.961C2760.061,1188.045,2757.661,1190.138,2754.711,1190.138Zm-21-1.746h21c1.988,0,3.6-1.31,3.6-2.917v-8.088H2734.76Z" transform="translate(-2731.875 -1175.64)"/>
  </g>
  <g id="Grupo_91000" data-name="Grupo 91000" transform="translate(55.395 23.808)">
    <path id="Trazado_134785" data-name="Trazado 134785" d="M2726.084,1189.335h8.134l1.626-13.787h-3.578Z" transform="translate(-2725.212 -1174.674)" fill="#fff"/>
    <path id="Trazado_134786" data-name="Trazado 134786" d="M2734.59,1190.58h-8.132a.872.872,0,0,1-.8-1.23l6.181-13.787a.868.868,0,0,1,.8-.517h3.579a.877.877,0,0,1,.653.293.858.858,0,0,1,.213.681l-1.627,13.788A.87.87,0,0,1,2734.59,1190.58Zm-6.784-1.747h6.008l1.42-12.04h-2.03Z" transform="translate(-2725.585 -1175.047)"/>
  </g>
  <g id="Grupo_91001" data-name="Grupo 91001" transform="translate(123.589 1.186)">
    <rect id="Rectángulo_7181" data-name="Rectángulo 7181" width="180.759" height="58.005" transform="translate(0.872 0.873)" fill="#fff"/>
    <path id="Trazado_134787" data-name="Trazado 134787" d="M2946.264,1221.846H2765.505a.873.873,0,0,1-.873-.873v-58.005a.872.872,0,0,1,.873-.873h180.759a.873.873,0,0,1,.873.873v58.005A.874.874,0,0,1,2946.264,1221.846Zm-179.886-1.746h179.013V1163.84H2766.378Z" transform="translate(-2764.632 -1162.094)"/>
  </g>
  <g id="Grupo_91002" data-name="Grupo 91002" transform="translate(129.762 4.81)">
    <rect id="Rectángulo_7182" data-name="Rectángulo 7182" width="168.409" height="54.381" transform="translate(0.874 0.872)" fill="#fff"/>
    <path id="Trazado_134788" data-name="Trazado 134788" d="M2937.45,1220.3H2769.04a.874.874,0,0,1-.873-.873v-54.382a.874.874,0,0,1,.873-.873h168.41a.873.873,0,0,1,.873.873v54.382A.873.873,0,0,1,2937.45,1220.3Zm-167.536-1.746h166.663v-52.635H2769.914Z" transform="translate(-2768.167 -1164.169)"/>
  </g>
  <g id="Grupo_91003" data-name="Grupo 91003" transform="translate(313.792 0.585)">
    <rect id="Rectángulo_7183" data-name="Rectángulo 7183" width="216.464" height="59.206" transform="translate(0.873 0.873)" fill="#fff"/>
    <path id="Trazado_134789" data-name="Trazado 134789" d="M3090.876,1222.7H2874.413a.872.872,0,0,1-.873-.873v-59.205a.873.873,0,0,1,.873-.873h216.464a.872.872,0,0,1,.874.873v59.205A.871.871,0,0,1,3090.876,1222.7Zm-215.59-1.747H3090V1163.5H2875.286Z" transform="translate(-2873.54 -1161.75)"/>
  </g>
  <g id="Grupo_91004" data-name="Grupo 91004" transform="translate(321.187 4.282)">
    <rect id="Rectángulo_7184" data-name="Rectángulo 7184" width="201.675" height="55.508" transform="translate(0.874 0.874)" fill="#fff"/>
    <path id="Trazado_134790" data-name="Trazado 134790" d="M3080.322,1221.121H2878.647a.873.873,0,0,1-.873-.873V1164.74a.874.874,0,0,1,.873-.873h201.675a.874.874,0,0,1,.873.873v55.508A.873.873,0,0,1,3080.322,1221.121Zm-200.8-1.747h199.928v-53.761H2879.521Z" transform="translate(-2877.774 -1163.867)"/>
  </g>
  <g id="Grupo_91008" data-name="Grupo 91008" transform="translate(289.965 59.191)">
    <g id="Grupo_91005" data-name="Grupo 91005">
      <rect id="Rectángulo_7185" data-name="Rectángulo 7185" width="14.177" height="2.987" transform="translate(0.874 0.872)"/>
      <path id="Trazado_134791" data-name="Trazado 134791" d="M2874.948,1200.04H2860.77a.874.874,0,0,1-.873-.873v-2.986a.873.873,0,0,1,.873-.873h14.178a.872.872,0,0,1,.873.873v2.986A.873.873,0,0,1,2874.948,1200.04Zm-13.3-1.746h12.431v-1.24h-12.431Z" transform="translate(-2859.897 -1195.307)"/>
    </g>
    <g id="Grupo_91006" data-name="Grupo 91006" transform="translate(2.569 2.986)">
      <rect id="Rectángulo_7186" data-name="Rectángulo 7186" width="9.041" height="1.758" transform="translate(0.873 0.873)"/>
      <path id="Trazado_134792" data-name="Trazado 134792" d="M2871.281,1200.52h-9.04a.872.872,0,0,1-.873-.873v-1.757a.873.873,0,0,1,.873-.873h9.04a.872.872,0,0,1,.873.873v1.757A.872.872,0,0,1,2871.281,1200.52Zm-8.167-1.746,7.293-.011Z" transform="translate(-2861.368 -1197.017)"/>
    </g>
    <g id="Grupo_91007" data-name="Grupo 91007" transform="translate(14.471 0.821)">
      <rect id="Rectángulo_7187" data-name="Rectángulo 7187" width="62.475" height="1.348" transform="translate(0.874 0.874)"/>
      <rect id="Rectángulo_7188" data-name="Rectángulo 7188" width="64.222" height="3.096" rx="0.5"/>
    </g>
  </g>
  <g id="Grupo_91009" data-name="Grupo 91009" transform="translate(364.496 61.362)">
    <path id="Trazado_134793" data-name="Trazado 134793" d="M2903.073,1197.05v14.64h1.9v5.034" transform="translate(-2902.198 -1196.177)" fill="#fff"/>
    <path id="Trazado_134794" data-name="Trazado 134794" d="M2905.347,1217.968a.873.873,0,0,1-.874-.873v-4.16h-1.028a.873.873,0,0,1-.873-.873v-14.639a.873.873,0,0,1,1.747,0v13.766h1.028a.871.871,0,0,1,.873.873v5.033A.871.871,0,0,1,2905.347,1217.968Z" transform="translate(-2902.572 -1196.55)"/>
  </g>
  <g id="Grupo_91010" data-name="Grupo 91010" transform="translate(525.633 61.238)">
    <path id="Trazado_134795" data-name="Trazado 134795" d="M2995.337,1196.979v15.487h1.9v5.034" transform="translate(-2994.463 -1196.105)" fill="#fff"/>
    <path id="Trazado_134796" data-name="Trazado 134796" d="M2997.613,1218.746a.871.871,0,0,1-.874-.873v-4.16h-1.029a.874.874,0,0,1-.873-.873v-15.488a.873.873,0,0,1,1.747,0v14.615h1.029a.873.873,0,0,1,.873.873v5.033A.873.873,0,0,1,2997.613,1218.746Z" transform="translate(-2994.837 -1196.479)"/>
  </g>
  <g id="Grupo_91011" data-name="Grupo 91011" transform="translate(487.88 59.79)">
    <path id="Trazado_134797" data-name="Trazado 134797" d="M3015.392,1198.844h-41.3a.872.872,0,0,1-.873-.873v-1.282a.873.873,0,0,1,1.747,0v.409h39.552v-.575a.873.873,0,0,1,1.747,0v1.448A.871.871,0,0,1,3015.392,1198.844Z" transform="translate(-2973.219 -1195.65)"/>
  </g>
  <g id="Grupo_91012" data-name="Grupo 91012" transform="translate(263.201 71.135)">
    <path id="Trazado_134798" data-name="Trazado 134798" d="M2845.073,1202.647v7.223h2.157v3.39" transform="translate(-2844.198 -1201.772)" fill="#fff"/>
    <path id="Trazado_134799" data-name="Trazado 134799" d="M2847.6,1214.507a.872.872,0,0,1-.873-.873v-2.518h-1.286a.872.872,0,0,1-.873-.873v-7.223a.873.873,0,1,1,1.746,0v6.35h1.286a.874.874,0,0,1,.873.873v3.392A.874.874,0,0,1,2847.6,1214.507Z" transform="translate(-2844.572 -1202.146)"/>
  </g>
  <g id="Grupo_91013" data-name="Grupo 91013" transform="translate(224.368 71.135)">
    <path id="Trazado_134800" data-name="Trazado 134800" d="M2822.837,1202.647v7.223h2.157v3.39" transform="translate(-2821.963 -1201.772)" fill="#fff"/>
    <path id="Trazado_134801" data-name="Trazado 134801" d="M2825.367,1214.507a.874.874,0,0,1-.874-.873v-2.518h-1.283a.872.872,0,0,1-.873-.873v-7.223a.873.873,0,1,1,1.746,0v6.35h1.284a.872.872,0,0,1,.873.873v3.392A.872.872,0,0,1,2825.367,1214.507Z" transform="translate(-2822.337 -1202.146)"/>
  </g>
</svg>
