<svg id="Grupo_90925" data-name="Grupo 90925" xmlns="http://www.w3.org/2000/svg" width="267.414" height="110.438" viewBox="0 0 267.414 110.438">
  <g id="Grupo_90914" data-name="Grupo 90914">
    <rect id="Rectángulo_7148" data-name="Rectángulo 7148" width="265.668" height="73.351" transform="translate(0.873 0.872)" fill="#fff"/>
    <path id="Trazado_134691" data-name="Trazado 134691" d="M3039.21,1058.6H2773.543a.874.874,0,0,1-.873-.873V984.379a.873.873,0,0,1,.873-.873H3039.21a.873.873,0,0,1,.873.873v73.352A.874.874,0,0,1,3039.21,1058.6Zm-264.794-1.746h263.921V985.252H2774.416Z" transform="translate(-2772.67 -983.506)"/>
  </g>
  <g id="Grupo_90915" data-name="Grupo 90915" transform="translate(0 73.351)">
    <rect id="Rectángulo_7149" data-name="Rectángulo 7149" width="245.121" height="13.972" transform="translate(0.873 0.873)" fill="#e00000"/>
    <path id="Trazado_134692" data-name="Trazado 134692" d="M3018.663,1041.224h-245.12a.874.874,0,0,1-.873-.873v-13.972a.873.873,0,0,1,.873-.873h245.12a.871.871,0,0,1,.873.873v13.972A.872.872,0,0,1,3018.663,1041.224Zm-244.247-1.746H3017.79v-12.225H2774.416Z" transform="translate(-2772.67 -1025.506)"/>
  </g>
  <g id="Grupo_90916" data-name="Grupo 90916" transform="translate(70.577 80.337)">
    <rect id="Rectángulo_7150" data-name="Rectángulo 7150" width="39.758" height="13.972" transform="translate(0.874 0.873)" fill="#fff"/>
    <path id="Trazado_134693" data-name="Trazado 134693" d="M2853.712,1045.224h-39.758a.874.874,0,0,1-.874-.873v-13.972a.873.873,0,0,1,.874-.873h39.758a.872.872,0,0,1,.873.873v13.972A.873.873,0,0,1,2853.712,1045.224Zm-38.885-1.746h38.012v-12.226h-38.012Z" transform="translate(-2813.08 -1029.506)"/>
  </g>
  <g id="Grupo_90917" data-name="Grupo 90917" transform="translate(77.358 80.337)">
    <rect id="Rectángulo_7151" data-name="Rectángulo 7151" width="2.774" height="13.972" transform="translate(0.873 0.873)" fill="#fff"/>
    <path id="Trazado_134694" data-name="Trazado 134694" d="M2820.61,1045.224h-2.773a.873.873,0,0,1-.873-.873v-13.972a.872.872,0,0,1,.873-.873h2.773a.872.872,0,0,1,.873.873v13.972A.873.873,0,0,1,2820.61,1045.224Zm-1.9-1.746h1.027v-12.226h-1.027Z" transform="translate(-2816.964 -1029.506)"/>
  </g>
  <g id="Grupo_90918" data-name="Grupo 90918" transform="translate(101.705 80.337)">
    <rect id="Rectángulo_7152" data-name="Rectángulo 7152" width="2.774" height="13.972" transform="translate(0.873 0.873)" fill="#fff"/>
    <path id="Trazado_134695" data-name="Trazado 134695" d="M2834.552,1045.224h-2.774a.873.873,0,0,1-.873-.873v-13.972a.872.872,0,0,1,.873-.873h2.774a.872.872,0,0,1,.873.873v13.972A.873.873,0,0,1,2834.552,1045.224Zm-1.9-1.746h1.027v-12.226h-1.027Z" transform="translate(-2830.905 -1029.506)"/>
  </g>
  <g id="Grupo_90919" data-name="Grupo 90919" transform="translate(17.568 80.337)">
    <ellipse id="Elipse_4320" data-name="Elipse 4320" cx="21.112" cy="14.177" rx="21.112" ry="14.177" transform="translate(0.872 0.873)"/>
    <path id="Trazado_134696" data-name="Trazado 134696" d="M2804.711,1059.606c-12.122,0-21.982-6.752-21.982-15.051s9.86-15.049,21.982-15.049,21.986,6.75,21.986,15.049S2816.836,1059.606,2804.711,1059.606Zm0-28.354c-11.158,0-20.236,5.968-20.236,13.3s9.078,13.3,20.236,13.3,20.24-5.969,20.24-13.3S2815.872,1031.252,2804.711,1031.252Z" transform="translate(-2782.729 -1029.506)"/>
  </g>
  <g id="Grupo_90920" data-name="Grupo 90920" transform="translate(23.422 84.269)">
    <ellipse id="Elipse_4321" data-name="Elipse 4321" cx="15.256" cy="10.245" rx="15.256" ry="10.245" transform="translate(0.874 0.874)" fill="#fff"/>
    <path id="Trazado_134697" data-name="Trazado 134697" d="M2802.209,1053.993c-8.892,0-16.128-4.986-16.128-11.118s7.236-11.118,16.128-11.118,16.13,4.986,16.13,11.118S2811.1,1053.993,2802.209,1053.993Zm0-20.49c-7.931,0-14.382,4.2-14.382,9.371s6.451,9.372,14.382,9.372,14.384-4.2,14.384-9.372S2810.14,1033.5,2802.209,1033.5Z" transform="translate(-2786.081 -1031.757)"/>
  </g>
  <g id="Grupo_90921" data-name="Grupo 90921" transform="translate(31.436 89.649)">
    <ellipse id="Elipse_4322" data-name="Elipse 4322" cx="7.243" cy="4.864" rx="7.243" ry="4.864" transform="translate(0.873 0.874)" fill="#fff"/>
    <path id="Trazado_134698" data-name="Trazado 134698" d="M2798.784,1046.312c-4.549,0-8.114-2.52-8.114-5.737s3.565-5.737,8.114-5.737,8.118,2.52,8.118,5.737S2803.337,1046.312,2798.784,1046.312Zm0-9.728c-3.451,0-6.368,1.828-6.368,3.991s2.917,3.991,6.368,3.991,6.371-1.829,6.371-3.991S2802.239,1036.584,2798.784,1036.584Z" transform="translate(-2790.67 -1034.838)"/>
  </g>
  <g id="Grupo_90922" data-name="Grupo 90922" transform="translate(195.974 80.337)">
    <ellipse id="Elipse_4323" data-name="Elipse 4323" cx="21.112" cy="14.177" rx="21.112" ry="14.177" transform="translate(0.873 0.873)"/>
    <path id="Trazado_134699" data-name="Trazado 134699" d="M2906.866,1059.606c-12.124,0-21.984-6.752-21.984-15.051s9.86-15.049,21.984-15.049,21.987,6.75,21.987,15.049S2918.988,1059.606,2906.866,1059.606Zm0-28.354c-11.159,0-20.237,5.968-20.237,13.3s9.078,13.3,20.237,13.3,20.24-5.969,20.24-13.3S2918.024,1031.252,2906.866,1031.252Z" transform="translate(-2884.882 -1029.506)"/>
  </g>
  <g id="Grupo_90923" data-name="Grupo 90923" transform="translate(201.83 84.269)">
    <ellipse id="Elipse_4324" data-name="Elipse 4324" cx="15.256" cy="10.245" rx="15.256" ry="10.245" transform="translate(0.873 0.874)" fill="#fff"/>
    <path id="Trazado_134700" data-name="Trazado 134700" d="M2904.363,1053.993c-8.893,0-16.128-4.986-16.128-11.118s7.236-11.118,16.128-11.118,16.129,4.986,16.129,11.118S2913.258,1053.993,2904.363,1053.993Zm0-20.49c-7.929,0-14.382,4.2-14.382,9.371s6.453,9.372,14.382,9.372,14.383-4.2,14.383-9.372S2912.294,1033.5,2904.363,1033.5Z" transform="translate(-2888.235 -1031.757)"/>
  </g>
  <g id="Grupo_90924" data-name="Grupo 90924" transform="translate(209.843 89.649)">
    <ellipse id="Elipse_4325" data-name="Elipse 4325" cx="7.243" cy="4.864" rx="7.243" ry="4.864" transform="translate(0.874 0.874)" fill="#fff"/>
    <path id="Trazado_134701" data-name="Trazado 134701" d="M2900.939,1046.312c-4.551,0-8.116-2.52-8.116-5.737s3.565-5.737,8.116-5.737,8.116,2.52,8.116,5.737S2905.49,1046.312,2900.939,1046.312Zm0-9.728c-3.453,0-6.369,1.828-6.369,3.991s2.917,3.991,6.369,3.991,6.37-1.829,6.37-3.991S2904.392,1036.584,2900.939,1036.584Z" transform="translate(-2892.823 -1034.838)"/>
  </g>
</svg>
