<svg id="Grupo_90969" data-name="Grupo 90969" xmlns="http://www.w3.org/2000/svg" width="542.667" height="89.278" viewBox="0 0 542.667 89.278">
  <g id="Grupo_90926" data-name="Grupo 90926" transform="translate(101.59 63.54)">
    <path id="Trazado_134702" data-name="Trazado 134702" d="M2752.536,1117.435h9.233v1.354h203.263v-8.755h-212.5Z" transform="translate(-2751.663 -1109.161)"/>
    <path id="Trazado_134703" data-name="Trazado 134703" d="M2965.405,1120.036H2762.143a.874.874,0,0,1-.873-.873v-.482h-8.361a.873.873,0,0,1-.873-.873v-7.4a.874.874,0,0,1,.873-.873h212.5a.874.874,0,0,1,.873.873v8.755A.874.874,0,0,1,2965.405,1120.036Zm-202.389-1.746h201.516v-7.008h-210.75v5.653h8.361a.872.872,0,0,1,.873.873Z" transform="translate(-2752.035 -1109.534)"/>
  </g>
  <g id="Grupo_90927" data-name="Grupo 90927" transform="translate(0 53.07)">
    <path id="Trazado_134704" data-name="Trazado 134704" d="M2760.1,1124.392h-58.184l-7.55-2.482v-8.529h10.641l9.6-9.341h27.279l16.717,6.137h9.932v8.709h-8.217Z" transform="translate(-2693.493 -1103.165)"/>
    <path id="Trazado_134705" data-name="Trazado 134705" d="M2760.473,1125.637H2702.29a.868.868,0,0,1-.272-.044l-7.55-2.482a.873.873,0,0,1-.6-.829v-8.528a.873.873,0,0,1,.874-.873h10.287l9.349-9.094a.877.877,0,0,1,.609-.248h27.278a.921.921,0,0,1,.3.052l16.572,6.086h9.777a.873.873,0,0,1,.873.873v8.708a.874.874,0,0,1-.873.873h-7.379l-.187,4.668A.874.874,0,0,1,2760.473,1125.637Zm-58.042-1.747h57.2l.189-4.667a.874.874,0,0,1,.874-.838h7.344v-6.961h-9.059a.87.87,0,0,1-.3-.054l-16.574-6.085H2715.34l-9.349,9.094a.877.877,0,0,1-.61.248h-9.768v7.023Z" transform="translate(-2693.867 -1103.539)"/>
  </g>
  <g id="Grupo_90928" data-name="Grupo 90928" transform="translate(20.855 61.355)">
    <ellipse id="Elipse_4326" data-name="Elipse 4326" cx="16.231" cy="13.087" rx="16.231" ry="13.087" transform="translate(0.873 0.875)"/>
    <path id="Trazado_134706" data-name="Trazado 134706" d="M2722.913,1136.206c-9.433,0-17.1-6.263-17.1-13.961s7.672-13.961,17.1-13.961,17.1,6.263,17.1,13.961S2732.343,1136.206,2722.913,1136.206Zm0-26.176c-8.469,0-15.358,5.481-15.358,12.215s6.889,12.215,15.358,12.215,15.358-5.479,15.358-12.215S2731.379,1110.029,2722.913,1110.029Z" transform="translate(-2705.808 -1108.283)"/>
  </g>
  <g id="Grupo_90929" data-name="Grupo 90929" transform="translate(25.829 66.5)">
    <ellipse id="Elipse_4327" data-name="Elipse 4327" cx="9.851" cy="7.942" rx="9.851" ry="7.942" transform="translate(0.873 0.874)" fill="#fff"/>
    <path id="Trazado_134707" data-name="Trazado 134707" d="M2719.381,1128.859c-5.914,0-10.725-3.952-10.725-8.814s4.811-8.816,10.725-8.816,10.723,3.956,10.723,8.816S2725.295,1128.859,2719.381,1128.859Zm0-15.884c-4.952,0-8.979,3.172-8.979,7.07s4.027,7.068,8.979,7.068,8.977-3.17,8.977-7.068S2724.331,1112.976,2719.381,1112.976Z" transform="translate(-2708.656 -1111.229)"/>
  </g>
  <g id="Grupo_90930" data-name="Grupo 90930" transform="translate(31.424 71.013)">
    <ellipse id="Elipse_4328" data-name="Elipse 4328" cx="4.254" cy="3.43" rx="4.254" ry="3.43" transform="translate(0.875 0.874)" fill="#fff"/>
    <path id="Trazado_134708" data-name="Trazado 134708" d="M2716.99,1122.419c-2.828,0-5.129-1.93-5.129-4.3s2.3-4.3,5.129-4.3,5.125,1.932,5.125,4.3S2719.816,1122.419,2716.99,1122.419Zm0-6.86c-1.866,0-3.383,1.147-3.383,2.557s1.517,2.557,3.383,2.557,3.379-1.146,3.379-2.557S2718.853,1115.56,2716.99,1115.56Z" transform="translate(-2711.86 -1113.813)"/>
  </g>
  <g id="Grupo_90931" data-name="Grupo 90931" transform="translate(250.668 61.355)">
    <ellipse id="Elipse_4329" data-name="Elipse 4329" cx="16.231" cy="13.087" rx="16.231" ry="13.087" transform="translate(0.872 0.875)"/>
    <path id="Trazado_134709" data-name="Trazado 134709" d="M2854.5,1136.206c-9.431,0-17.1-6.263-17.1-13.961s7.672-13.961,17.1-13.961,17.1,6.263,17.1,13.961S2863.932,1136.206,2854.5,1136.206Zm0-26.176c-8.467,0-15.357,5.481-15.357,12.215s6.89,12.215,15.357,12.215,15.358-5.479,15.358-12.215S2862.968,1110.029,2854.5,1110.029Z" transform="translate(-2837.396 -1108.283)"/>
  </g>
  <g id="Grupo_90932" data-name="Grupo 90932" transform="translate(255.642 66.5)">
    <ellipse id="Elipse_4330" data-name="Elipse 4330" cx="9.851" cy="7.942" rx="9.851" ry="7.942" transform="translate(0.873 0.874)" fill="#fff"/>
    <path id="Trazado_134710" data-name="Trazado 134710" d="M2850.967,1128.859c-5.914,0-10.724-3.952-10.724-8.814s4.81-8.816,10.724-8.816,10.723,3.956,10.723,8.816S2856.881,1128.859,2850.967,1128.859Zm0-15.884c-4.949,0-8.977,3.172-8.977,7.07s4.028,7.068,8.977,7.068,8.977-3.17,8.977-7.068S2855.919,1112.976,2850.967,1112.976Z" transform="translate(-2840.244 -1111.229)"/>
  </g>
  <g id="Grupo_90933" data-name="Grupo 90933" transform="translate(261.238 71.013)">
    <ellipse id="Elipse_4331" data-name="Elipse 4331" cx="4.254" cy="3.43" rx="4.254" ry="3.43" transform="translate(0.874 0.874)" fill="#fff"/>
    <path id="Trazado_134711" data-name="Trazado 134711" d="M2848.575,1122.419c-2.827,0-5.128-1.93-5.128-4.3s2.3-4.3,5.128-4.3,5.126,1.932,5.126,4.3S2851.4,1122.419,2848.575,1122.419Zm0-6.86c-1.865,0-3.381,1.147-3.381,2.557s1.516,2.557,3.381,2.557,3.38-1.146,3.38-2.557S2850.439,1115.56,2848.575,1115.56Z" transform="translate(-2843.448 -1113.813)"/>
  </g>
  <g id="Grupo_90934" data-name="Grupo 90934" transform="translate(361.141 61.355)">
    <ellipse id="Elipse_4332" data-name="Elipse 4332" cx="16.231" cy="13.087" rx="16.231" ry="13.087" transform="translate(0.875 0.875)"/>
    <path id="Trazado_134712" data-name="Trazado 134712" d="M2917.756,1136.206c-9.431,0-17.105-6.263-17.105-13.961s7.674-13.961,17.105-13.961,17.1,6.263,17.1,13.961S2927.189,1136.206,2917.756,1136.206Zm0-26.176c-8.467,0-15.359,5.481-15.359,12.215s6.892,12.215,15.359,12.215,15.358-5.479,15.358-12.215S2926.224,1110.029,2917.756,1110.029Z" transform="translate(-2900.651 -1108.283)"/>
  </g>
  <g id="Grupo_90935" data-name="Grupo 90935" transform="translate(367.522 66.5)">
    <ellipse id="Elipse_4333" data-name="Elipse 4333" cx="9.851" cy="7.942" rx="9.851" ry="7.942" transform="translate(0.873 0.874)" fill="#fff"/>
    <path id="Trazado_134713" data-name="Trazado 134713" d="M2915.029,1128.859c-5.912,0-10.724-3.952-10.724-8.814s4.812-8.816,10.724-8.816,10.725,3.956,10.725,8.816S2920.942,1128.859,2915.029,1128.859Zm0-15.884c-4.952,0-8.977,3.172-8.977,7.07s4.025,7.068,8.977,7.068,8.978-3.17,8.978-7.068S2919.98,1112.976,2915.029,1112.976Z" transform="translate(-2904.305 -1111.229)"/>
  </g>
  <g id="Grupo_90936" data-name="Grupo 90936" transform="translate(373.12 71.013)">
    <ellipse id="Elipse_4334" data-name="Elipse 4334" cx="4.254" cy="3.43" rx="4.254" ry="3.43" transform="translate(0.873 0.874)" fill="#fff"/>
    <path id="Trazado_134714" data-name="Trazado 134714" d="M2912.636,1122.419c-2.828,0-5.127-1.93-5.127-4.3s2.3-4.3,5.127-4.3,5.128,1.932,5.128,4.3S2915.463,1122.419,2912.636,1122.419Zm0-6.86c-1.864,0-3.38,1.147-3.38,2.557s1.516,2.557,3.38,2.557,3.381-1.146,3.381-2.557S2914.5,1115.56,2912.636,1115.56Z" transform="translate(-2907.51 -1113.813)"/>
  </g>
  <g id="Grupo_90937" data-name="Grupo 90937" transform="translate(497.979 61.355)">
    <ellipse id="Elipse_4335" data-name="Elipse 4335" cx="16.231" cy="13.087" rx="16.231" ry="13.087" transform="translate(0.873 0.875)"/>
    <path id="Trazado_134715" data-name="Trazado 134715" d="M2996.109,1136.206c-9.433,0-17.106-6.263-17.106-13.961s7.673-13.961,17.106-13.961,17.1,6.263,17.1,13.961S3005.539,1136.206,2996.109,1136.206Zm0-26.176c-8.469,0-15.359,5.481-15.359,12.215s6.89,12.215,15.359,12.215,15.358-5.479,15.358-12.215S3004.577,1110.029,2996.109,1110.029Z" transform="translate(-2979.003 -1108.283)"/>
  </g>
  <g id="Grupo_90938" data-name="Grupo 90938" transform="translate(504.359 66.5)">
    <ellipse id="Elipse_4336" data-name="Elipse 4336" cx="9.851" cy="7.942" rx="9.851" ry="7.942" transform="translate(0.873 0.874)" fill="#fff"/>
    <path id="Trazado_134716" data-name="Trazado 134716" d="M2993.381,1128.859c-5.914,0-10.725-3.952-10.725-8.814s4.811-8.816,10.725-8.816,10.723,3.956,10.723,8.816S2999.294,1128.859,2993.381,1128.859Zm0-15.884c-4.951,0-8.979,3.172-8.979,7.07s4.027,7.068,8.979,7.068,8.977-3.17,8.977-7.068S2998.331,1112.976,2993.381,1112.976Z" transform="translate(-2982.656 -1111.229)"/>
  </g>
  <g id="Grupo_90939" data-name="Grupo 90939" transform="translate(509.957 71.013)">
    <ellipse id="Elipse_4337" data-name="Elipse 4337" cx="4.254" cy="3.43" rx="4.254" ry="3.43" transform="translate(0.873 0.874)" fill="#fff"/>
    <path id="Trazado_134717" data-name="Trazado 134717" d="M2990.989,1122.419c-2.828,0-5.128-1.93-5.128-4.3s2.3-4.3,5.128-4.3,5.125,1.932,5.125,4.3S2993.816,1122.419,2990.989,1122.419Zm0-6.86c-1.865,0-3.381,1.147-3.381,2.557s1.516,2.557,3.381,2.557,3.379-1.146,3.379-2.557S2992.852,1115.56,2990.989,1115.56Z" transform="translate(-2985.861 -1113.813)"/>
  </g>
  <g id="Grupo_90944" data-name="Grupo 90944" transform="translate(119.261 62.412)">
    <g id="Grupo_90940" data-name="Grupo 90940">
      <rect id="Rectángulo_7153" data-name="Rectángulo 7153" width="22.022" height="11.011" transform="translate(0.875 0.873)" fill="#fff"/>
      <path id="Trazado_134718" data-name="Trazado 134718" d="M2785.05,1121.644h-22.022a.872.872,0,0,1-.873-.873v-11.01a.872.872,0,0,1,.873-.873h22.022a.872.872,0,0,1,.874.873v11.01A.872.872,0,0,1,2785.05,1121.644ZM2763.9,1119.9h20.276v-9.263H2763.9Z" transform="translate(-2762.154 -1108.888)"/>
    </g>
    <g id="Grupo_90943" data-name="Grupo 90943" transform="translate(2.843)">
      <g id="Grupo_90941" data-name="Grupo 90941">
        <rect id="Rectángulo_7154" data-name="Rectángulo 7154" width="2.798" height="11.011" transform="translate(0.875 0.873)" fill="#fff"/>
        <path id="Trazado_134719" data-name="Trazado 134719" d="M2767.455,1121.644h-2.8a.872.872,0,0,1-.873-.873v-11.01a.873.873,0,0,1,.873-.873h2.8a.873.873,0,0,1,.873.873v11.01A.872.872,0,0,1,2767.455,1121.644Zm-1.927-1.746h1.053v-9.263h-1.053Z" transform="translate(-2763.782 -1108.888)"/>
      </g>
      <g id="Grupo_90942" data-name="Grupo 90942" transform="translate(13.538)">
        <rect id="Rectángulo_7155" data-name="Rectángulo 7155" width="2.798" height="11.011" transform="translate(0.874 0.873)" fill="#fff"/>
        <path id="Trazado_134720" data-name="Trazado 134720" d="M2775.207,1121.644h-2.8a.873.873,0,0,1-.873-.873v-11.01a.873.873,0,0,1,.873-.873h2.8a.872.872,0,0,1,.873.873v11.01A.872.872,0,0,1,2775.207,1121.644Zm-1.926-1.746h1.053v-9.263h-1.053Z" transform="translate(-2771.534 -1108.888)"/>
      </g>
    </g>
  </g>
  <g id="Grupo_90945" data-name="Grupo 90945" transform="translate(72.765 59.209)">
    <path id="Trazado_134721" data-name="Trazado 134721" d="M2783.16,1107.553h-47.128v11.733h28.825v-7.4h18.3Z" transform="translate(-2735.158 -1106.681)" fill="#fff"/>
    <path id="Trazado_134722" data-name="Trazado 134722" d="M2765.229,1120.531H2736.4a.872.872,0,0,1-.873-.873v-11.731a.872.872,0,0,1,.873-.873h47.13a.873.873,0,0,1,.873.873v4.331a.873.873,0,0,1-.873.873H2766.1v6.527A.871.871,0,0,1,2765.229,1120.531Zm-27.952-1.746h27.078v-6.527a.874.874,0,0,1,.874-.873h17.432V1108.8h-45.384Z" transform="translate(-2735.531 -1107.054)"/>
  </g>
  <g id="Grupo_90946" data-name="Grupo 90946" transform="translate(72.765 70.94)">
    <path id="Trazado_134723" data-name="Trazado 134723" d="M2782.122,1115.625v2.978h-39.592v2.6h-6.5v-6.932h38.057v1.354Z" transform="translate(-2735.158 -1113.397)" fill="#fff"/>
    <path id="Trazado_134724" data-name="Trazado 134724" d="M2742.9,1122.451h-6.5a.873.873,0,0,1-.873-.874v-6.933a.873.873,0,0,1,.873-.873h38.059a.872.872,0,0,1,.873.873v.482h7.159a.874.874,0,0,1,.873.873v2.978a.874.874,0,0,1-.873.873h-38.719v1.727A.873.873,0,0,1,2742.9,1122.451Zm-5.625-1.746h4.752v-1.728a.874.874,0,0,1,.873-.873h38.719v-1.231h-7.159a.874.874,0,0,1-.873-.873v-.482h-36.312Z" transform="translate(-2735.531 -1113.771)"/>
  </g>
  <g id="Grupo_90947" data-name="Grupo 90947" transform="translate(6.718 19.676)">
    <path id="Trazado_134725" data-name="Trazado 134725" d="M2808.54,1124.449s-1.135-20.086-9.345-37.336a4.406,4.406,0,0,0-4.032-2.2h-36.947a4.833,4.833,0,0,0-4.232,2.183l-8.63,15.147-37.679,2.1c-3.685.2-6.851,2.183-8.007,5l-1.455,3.549h38.709a14.29,14.29,0,0,1,10.308,4.092l7.1,7.459Z" transform="translate(-2697.341 -1084.045)" fill="#fff"/>
    <path id="Trazado_134726" data-name="Trazado 134726" d="M2808.914,1125.7H2754.7a.873.873,0,0,1-.634-.272l-7.1-7.459a13.492,13.492,0,0,0-9.676-3.823h-38.707a.873.873,0,0,1-.808-1.2l1.453-3.547c1.289-3.145,4.731-5.321,8.769-5.545l37.2-2.073,8.4-14.733a5.72,5.72,0,0,1,4.988-2.623h36.948a5.226,5.226,0,0,1,4.82,2.693c8.191,17.206,9.419,37.46,9.431,37.663a.866.866,0,0,1-.237.65A.875.875,0,0,1,2808.914,1125.7Zm-53.836-1.746h52.895c-.344-4.123-2.143-21.273-9.193-36.089a3.544,3.544,0,0,0-3.245-1.7h-36.948a3.963,3.963,0,0,0-3.47,1.741l-8.633,15.149a.874.874,0,0,1-.712.438l-37.677,2.1c-3.367.187-6.212,1.939-7.246,4.464l-.961,2.342h37.406a15.061,15.061,0,0,1,10.942,4.366Z" transform="translate(-2697.713 -1084.418)"/>
  </g>
  <g id="Grupo_90948" data-name="Grupo 90948" transform="translate(0.94 47.654)">
    <path id="Trazado_134727" data-name="Trazado 134727" d="M2694.905,1115.695h9.7l8.85-8.607a2.587,2.587,0,0,1,1.807-.735h23.628a2.923,2.923,0,0,1,2.042.831l9.874,9.639h7.4v-4.333h-1.746l-7.324-7.913a12.184,12.184,0,0,0-8.912-3.638H2700.68l-1.3,1.1a6.929,6.929,0,0,0-4.48,6.162Z" transform="translate(-2694.032 -1100.064)" fill="#fff"/>
    <path id="Trazado_134728" data-name="Trazado 134728" d="M2758.577,1118.07h-7.4a.878.878,0,0,1-.611-.248l-9.873-9.639a2.035,2.035,0,0,0-1.432-.583h-23.628a1.722,1.722,0,0,0-1.2.487l-8.848,8.607a.875.875,0,0,1-.609.248h-9.7a.874.874,0,0,1-.874-.873v-7.492a7.747,7.747,0,0,1,4.881-6.909l1.205-1.02a.859.859,0,0,1,.564-.209h39.539a12.959,12.959,0,0,1,9.551,3.921l7.068,7.634h1.364a.872.872,0,0,1,.874.873v4.331A.872.872,0,0,1,2758.577,1118.07Zm-7.042-1.746h6.168v-2.585h-.873a.878.878,0,0,1-.641-.279l-7.326-7.915a11.359,11.359,0,0,0-8.27-3.36h-39.219l-1.053.894a.875.875,0,0,1-.213.134,6.056,6.056,0,0,0-3.958,5.363v6.619h8.474l8.594-8.358a3.441,3.441,0,0,1,2.417-.983h23.628a3.777,3.777,0,0,1,2.653,1.081Z" transform="translate(-2694.405 -1100.438)"/>
  </g>
  <g id="Grupo_90949" data-name="Grupo 90949" transform="translate(116.283)">
    <rect id="Rectángulo_7156" data-name="Rectángulo 7156" width="5.957" height="23.827" transform="translate(0.874 0.874)" fill="#fff"/>
    <path id="Trazado_134729" data-name="Trazado 134729" d="M2767.28,1098.727h-5.957a.874.874,0,0,1-.873-.873v-23.829a.874.874,0,0,1,.873-.873h5.957a.872.872,0,0,1,.873.873v23.829A.872.872,0,0,1,2767.28,1098.727Zm-5.084-1.747h4.211V1074.9H2762.2Z" transform="translate(-2760.449 -1073.152)"/>
  </g>
  <g id="Grupo_90950" data-name="Grupo 90950" transform="translate(114.839 23.829)">
    <rect id="Rectángulo_7157" data-name="Rectángulo 7157" width="10.108" height="22.563" transform="translate(0.874 0.872)" fill="#fff"/>
    <path id="Trazado_134730" data-name="Trazado 134730" d="M2770.6,1111.1H2760.5a.873.873,0,0,1-.873-.873v-22.562a.873.873,0,0,1,.873-.873H2770.6a.872.872,0,0,1,.873.873v22.562A.872.872,0,0,1,2770.6,1111.1Zm-9.235-1.746h8.362v-20.816h-8.362Z" transform="translate(-2759.622 -1086.796)"/>
  </g>
  <g id="Grupo_90951" data-name="Grupo 90951" transform="translate(114.839 46.391)">
    <rect id="Rectángulo_7158" data-name="Rectángulo 7158" width="12.635" height="3.294" transform="translate(0.874 0.873)" fill="#fff"/>
    <path id="Trazado_134731" data-name="Trazado 134731" d="M2773.131,1104.757H2760.5a.873.873,0,0,1-.873-.873v-3.3a.872.872,0,0,1,.873-.873h12.636a.871.871,0,0,1,.873.873v3.3A.872.872,0,0,1,2773.131,1104.757Zm-11.762-1.747h10.889v-1.549h-10.889Z" transform="translate(-2759.622 -1099.715)"/>
  </g>
  <g id="Grupo_90952" data-name="Grupo 90952" transform="translate(72.252 23.829)">
    <path id="Trazado_134732" data-name="Trazado 134732" d="M2735.737,1100.653h24.374c2.741,0,4.964-1.778,4.964-3.971V1087.3h-27.983Z" transform="translate(-2734.865 -1086.423)" fill="#fff"/>
    <path id="Trazado_134733" data-name="Trazado 134733" d="M2760.483,1101.9H2736.11a.872.872,0,0,1-.868-.961l1.355-13.359a.87.87,0,0,1,.867-.784h27.984a.872.872,0,0,1,.873.873v9.385C2766.322,1099.727,2763.7,1101.9,2760.483,1101.9Zm-23.406-1.747h23.406c2.256,0,4.092-1.39,4.092-3.1v-8.512h-26.321Z" transform="translate(-2735.238 -1086.796)"/>
  </g>
  <g id="Grupo_90953" data-name="Grupo 90953" transform="translate(60.062 23.829)">
    <path id="Trazado_134734" data-name="Trazado 134734" d="M2728.757,1100.653h9.026l1.8-13.358h-3.971Z" transform="translate(-2727.884 -1086.423)" fill="#fff"/>
    <path id="Trazado_134735" data-name="Trazado 134735" d="M2738.156,1101.9h-9.024a.873.873,0,0,1-.777-1.271l6.858-13.359a.869.869,0,0,1,.777-.473h3.971a.871.871,0,0,1,.865.99l-1.806,13.359A.87.87,0,0,1,2738.156,1101.9Zm-7.6-1.747h6.833l1.57-11.61h-2.439Z" transform="translate(-2728.258 -1086.796)"/>
  </g>
  <g id="Grupo_90954" data-name="Grupo 90954" transform="translate(133.48)">
    <rect id="Rectángulo_7159" data-name="Rectángulo 7159" width="198.48" height="59.206" transform="translate(0.874 0.874)" fill="#fff"/>
    <path id="Trazado_134736" data-name="Trazado 134736" d="M2969.65,1134.107H2771.169a.874.874,0,0,1-.873-.873v-59.208a.874.874,0,0,1,.873-.873H2969.65a.873.873,0,0,1,.874.873v59.208A.873.873,0,0,1,2969.65,1134.107Zm-197.608-1.746h196.735V1074.9H2772.042Z" transform="translate(-2770.296 -1073.152)"/>
  </g>
  <g id="Grupo_90955" data-name="Grupo 90955" transform="translate(140.262 3.701)">
    <rect id="Rectángulo_7160" data-name="Rectángulo 7160" width="184.92" height="55.508" transform="translate(0.872 0.872)" fill="#fff"/>
    <path id="Trazado_134737" data-name="Trazado 134737" d="M2959.971,1132.525H2775.052a.873.873,0,0,1-.873-.873v-55.508a.871.871,0,0,1,.873-.873h184.919a.873.873,0,0,1,.874.873v55.508A.874.874,0,0,1,2959.971,1132.525Zm-184.046-1.746H2959.1v-53.761H2775.925Z" transform="translate(-2774.179 -1075.271)"/>
  </g>
  <g id="Grupo_90956" data-name="Grupo 90956" transform="translate(343.786)">
    <rect id="Rectángulo_7161" data-name="Rectángulo 7161" width="197.134" height="59.206" transform="translate(0.874 0.874)" fill="#fff"/>
    <path id="Trazado_134738" data-name="Trazado 134738" d="M3088.721,1134.107H2891.587a.873.873,0,0,1-.873-.873v-59.208a.873.873,0,0,1,.873-.873h197.134a.873.873,0,0,1,.873.873v59.208A.873.873,0,0,1,3088.721,1134.107Zm-196.26-1.746h195.387V1074.9H2892.46Z" transform="translate(-2890.714 -1073.152)"/>
  </g>
  <g id="Grupo_90957" data-name="Grupo 90957" transform="translate(350.521 3.701)">
    <rect id="Rectángulo_7162" data-name="Rectángulo 7162" width="183.665" height="55.508" transform="translate(0.874 0.872)" fill="#fff"/>
    <path id="Trazado_134739" data-name="Trazado 134739" d="M3079.108,1132.525H2895.443a.874.874,0,0,1-.873-.873v-55.508a.872.872,0,0,1,.873-.873h183.665a.871.871,0,0,1,.873.873v55.508A.872.872,0,0,1,3079.108,1132.525Zm-182.792-1.746h181.919v-53.761H2896.316Z" transform="translate(-2894.57 -1075.271)"/>
  </g>
  <g id="Grupo_90958" data-name="Grupo 90958" transform="translate(317.783 59.209)">
    <rect id="Rectángulo_7163" data-name="Rectángulo 7163" width="14.177" height="3.666" transform="translate(0.875 0.872)"/>
    <path id="Trazado_134740" data-name="Trazado 134740" d="M2890.876,1112.464H2876.7a.872.872,0,0,1-.873-.873v-3.664a.872.872,0,0,1,.873-.873h14.178a.872.872,0,0,1,.873.873v3.664A.872.872,0,0,1,2890.876,1112.464Zm-13.3-1.746H2890V1108.8h-12.431Z" transform="translate(-2875.825 -1107.054)"/>
  </g>
  <g id="Grupo_90959" data-name="Grupo 90959" transform="translate(320.352 62.873)">
    <rect id="Rectángulo_7164" data-name="Rectángulo 7164" width="9.041" height="2.157" transform="translate(0.874 0.874)"/>
    <path id="Trazado_134741" data-name="Trazado 134741" d="M2887.211,1113.057h-9.042a.874.874,0,0,1-.873-.873v-2.159a.874.874,0,0,1,.873-.873h9.042a.873.873,0,0,1,.873.873v2.159A.873.873,0,0,1,2887.211,1113.057Zm-8.168-1.747h7.3v-.412h-7.3Z" transform="translate(-2877.296 -1109.152)"/>
  </g>
  <g id="Grupo_90960" data-name="Grupo 90960" transform="translate(356.258 59.653)">
    <rect id="Rectángulo_7165" data-name="Rectángulo 7165" width="1.746" height="2.604" transform="translate(0.872 0.874)"/>
    <rect id="Rectángulo_7166" data-name="Rectángulo 7166" width="3.493" height="4.351" rx="0.5"/>
  </g>
  <g id="Grupo_90961" data-name="Grupo 90961" transform="translate(343.237 59.653)">
    <rect id="Rectángulo_7167" data-name="Rectángulo 7167" width="1.746" height="2.604" transform="translate(0.873 0.874)"/>
    <rect id="Rectángulo_7168" data-name="Rectángulo 7168" width="3.493" height="4.351" rx="0.5"/>
  </g>
  <g id="Grupo_90962" data-name="Grupo 90962" transform="translate(135.822 59.653)">
    <rect id="Rectángulo_7169" data-name="Rectángulo 7169" width="1.746" height="2.604" transform="translate(0.872 0.874)"/>
    <rect id="Rectángulo_7170" data-name="Rectángulo 7170" width="3.493" height="4.351" rx="0.5"/>
  </g>
  <g id="Grupo_90963" data-name="Grupo 90963" transform="translate(400.278 59.653)">
    <rect id="Rectángulo_7171" data-name="Rectángulo 7171" width="1.746" height="2.604" transform="translate(0.874 0.874)" fill="#fff"/>
    <rect id="Rectángulo_7172" data-name="Rectángulo 7172" width="3.493" height="4.351" rx="0.5"/>
  </g>
  <g id="Grupo_90964" data-name="Grupo 90964" transform="translate(329.393 62.258)">
    <rect id="Rectángulo_7173" data-name="Rectángulo 7173" width="72.632" height="1.695" transform="translate(0.873 0.873)"/>
    <rect id="Rectángulo_7174" data-name="Rectángulo 7174" width="74.378" height="3.442" rx="0.5"/>
  </g>
  <g id="Grupo_90965" data-name="Grupo 90965" transform="translate(399.252 63.954)">
    <path id="Trazado_134742" data-name="Trazado 134742" d="M2922.972,1110.27v14.639h1.9v5.034" transform="translate(-2922.099 -1109.398)" fill="#fff"/>
    <path id="Trazado_134743" data-name="Trazado 134743" d="M2925.247,1131.19a.871.871,0,0,1-.873-.873v-4.162h-1.027a.872.872,0,0,1-.873-.873v-14.637a.873.873,0,0,1,1.747,0v13.764h1.027a.874.874,0,0,1,.873.873v5.035A.873.873,0,0,1,2925.247,1131.19Z" transform="translate(-2922.473 -1109.771)"/>
  </g>
  <g id="Grupo_90966" data-name="Grupo 90966" transform="translate(536.606 63.105)">
    <path id="Trazado_134744" data-name="Trazado 134744" d="M3001.62,1109.785v15.487h1.9v5.034" transform="translate(-3000.747 -1108.912)" fill="#fff"/>
    <path id="Trazado_134745" data-name="Trazado 134745" d="M3003.893,1131.552a.872.872,0,0,1-.873-.873v-4.162h-1.027a.872.872,0,0,1-.873-.873v-15.486a.873.873,0,1,1,1.746,0v14.613h1.027a.873.873,0,0,1,.873.873v5.035A.872.872,0,0,1,3003.893,1131.552Z" transform="translate(-3001.12 -1109.285)"/>
  </g>
  <g id="Grupo_90967" data-name="Grupo 90967" transform="translate(495.307 59.209)">
    <path id="Trazado_134746" data-name="Trazado 134746" d="M2977.973,1108v3.451h41.3v-3.9" transform="translate(-2977.1 -1106.681)" fill="#fff"/>
    <path id="Trazado_134747" data-name="Trazado 134747" d="M3019.645,1112.7h-41.3a.872.872,0,0,1-.874-.873v-3.451a.873.873,0,1,1,1.747,0v2.578h39.552v-3.023a.873.873,0,1,1,1.746,0v3.9A.873.873,0,0,1,3019.645,1112.7Z" transform="translate(-2977.473 -1107.054)"/>
  </g>
  <g id="Grupo_90968" data-name="Grupo 90968" transform="translate(287.426 72.295)">
    <path id="Trazado_134748" data-name="Trazado 134748" d="M2858.943,1115.047v7.222h2.157v3.39" transform="translate(-2858.07 -1114.174)" fill="#fff"/>
    <path id="Trazado_134749" data-name="Trazado 134749" d="M2861.475,1126.905a.872.872,0,0,1-.873-.873v-2.517h-1.285a.874.874,0,0,1-.874-.873v-7.222a.873.873,0,1,1,1.747,0v6.348h1.285a.872.872,0,0,1,.873.873v3.39A.873.873,0,0,1,2861.475,1126.905Z" transform="translate(-2858.443 -1114.547)"/>
  </g>
</svg>
