<svg id="avion" xmlns="http://www.w3.org/2000/svg" width="84.999" height="42.74" viewBox="0 0 84.999 42.74">
  <path id="Trazado_126569" data-name="Trazado 126569" d="M178.887,205.018l0-.01a6.219,6.219,0,0,0-1.949-3.295L175.2,200.18a24.36,24.36,0,0,0-16.13-6.1h-5.89a1.245,1.245,0,0,0,0,2.49h5.89a21.875,21.875,0,0,1,10.287,2.568h-7.767a2.521,2.521,0,0,0-1.492,4.552l2.379,1.748a5.491,5.491,0,0,0,3.273,1.073h10.794a3.737,3.737,0,0,1-2.138,3.229l-3.065,1.435a34.2,34.2,0,0,1-14.422,3.211H146.9l3.608-1.8a1.82,1.82,0,0,0-.813-3.449H128.37a2.926,2.926,0,0,0-2.121.916l-4.064,4.315a12.138,12.138,0,0,1-4.343-1.025l-3.337-1.471a1.245,1.245,0,1,0-1,2.279l3.336,1.471a14.657,14.657,0,0,0,3.224,1l-4.618,4.9a2.494,2.494,0,0,0,1.815,4.2h4.295a11.126,11.126,0,0,0,4.941-1.164l15.415-7.689h15.007a36.706,36.706,0,0,0,15.479-3.446L175.46,212a6.206,6.206,0,0,0,3.427-6.979Zm-53.5,17.32a8.624,8.624,0,0,1-3.83.9h-4.295l0,.007s-.007-.012,0-.012l10.806-11.473a.425.425,0,0,1,.309-.133h18.483Zm38.566-18.905-2.379-1.748-.015-.011a.16.16,0,0,1,.009-.042.1.1,0,0,1,.024,0h11.473c.165.137.328.275.489.417l1.738,1.534a3.737,3.737,0,0,1,.424.442h-9.964a3.019,3.019,0,0,1-1.8-.59Z" transform="translate(-94.039 -182.99)" fill="#12263f"/>
  <path id="Trazado_126570" data-name="Trazado 126570" d="M14.3,145.016H6.762a3.323,3.323,0,0,0-2.5,1.136l-.766.876a5.566,5.566,0,0,1-.447-2.176v-1.519a2.482,2.482,0,0,1,2.48-2.478h47.8a1.245,1.245,0,0,0,0-2.49H22.6l-8.627-8.845a7.487,7.487,0,0,0-5.329-2.246H5.691a2.063,2.063,0,0,0-1.9,2.865l3.471,8.226H5.527a4.975,4.975,0,0,0-4.97,4.969v1.519a8.08,8.08,0,0,0,1.178,4.189L.555,150.389a2.229,2.229,0,0,0,1.678,3.7H4.607a5.767,5.767,0,0,0,2.5-.572l.569-.276,6.472,2.853a1.245,1.245,0,0,0,1-2.279l-4.533-2,4.716-2.282a2.377,2.377,0,0,0-1.035-4.516ZM6.334,129.763H8.646a4.983,4.983,0,0,1,3.547,1.5l6.931,7.106H9.964Zm.8,20.97-.068.033-1.045.506a3.262,3.262,0,0,1-1.412.324h-1.8l3.326-3.8a.834.834,0,0,1,.628-.285H13.8Z" transform="translate(0 -127.273)" fill="#12263f"/>
  <path id="Trazado_126571" data-name="Trazado 126571" d="M309.786,228.006v.459a3.461,3.461,0,0,0,3.457,3.457h2.345a3.461,3.461,0,0,0,3.457-3.457v-.459a3.461,3.461,0,0,0-3.457-3.457h-2.345A3.461,3.461,0,0,0,309.786,228.006Zm2.49,0a.968.968,0,0,1,.967-.967h2.345a.968.968,0,0,1,.967.967v.459a.968.968,0,0,1-.967.967h-2.345a.968.968,0,0,1-.967-.967Z" transform="translate(-258.358 -208.4)" fill="#12263f"/>
  <path id="Trazado_126572" data-name="Trazado 126572" d="M233.378,224.55a3.461,3.461,0,0,0-3.457,3.457v.459a3.461,3.461,0,0,0,3.457,3.457h2.345a3.461,3.461,0,0,0,3.457-3.457v-.459a3.461,3.461,0,0,0-3.457-3.457Zm3.312,3.457v.459a.968.968,0,0,1-.967.967h-2.345a.968.968,0,0,1-.967-.967v-.459a.968.968,0,0,1,.967-.967h2.345A.968.968,0,0,1,236.69,228.007Z" transform="translate(-191.751 -208.401)" fill="#12263f"/>
  <path id="Trazado_126573" data-name="Trazado 126573" d="M153.514,224.55a3.461,3.461,0,0,0-3.457,3.457v.459a3.461,3.461,0,0,0,3.457,3.457h2.345a3.461,3.461,0,0,0,3.457-3.457v-.459a3.461,3.461,0,0,0-3.457-3.457Zm3.312,3.457v.459a.968.968,0,0,1-.967.967h-2.345a.968.968,0,0,1-.967-.967v-.459a.968.968,0,0,1,.967-.967h2.345A.968.968,0,0,1,156.826,228.007Z" transform="translate(-125.146 -208.401)" fill="#12263f"/>
</svg>
