<svg id="Grupo_90813" data-name="Grupo 90813" xmlns="http://www.w3.org/2000/svg" width="453.841" height="105.168" viewBox="0 0 453.841 105.168">
  <g id="Grupo_90776" data-name="Grupo 90776" transform="translate(91.156 77.801)">
    <rect id="Rectángulo_7118" data-name="Rectángulo 7118" width="124.721" height="9.386" transform="translate(0.822 0.823)"/>
    <path id="Trazado_134529" data-name="Trazado 134529" d="M1816.188,1199.595H1691.467a.822.822,0,0,1-.822-.823v-9.387a.821.821,0,0,1,.822-.823h124.722a.823.823,0,0,1,.822.823v9.387A.823.823,0,0,1,1816.188,1199.595Zm-123.9-1.645h123.076v-7.742H1692.289Z" transform="translate(-1690.644 -1188.563)"/>
  </g>
  <g id="Grupo_90777" data-name="Grupo 90777" transform="translate(0 66.575)">
    <path id="Trazado_134530" data-name="Trazado 134530" d="M1693.019,1204.061h-50.706l-6.58-2.661v-10.064h10.95l7.437-9.1h23.031l17.225,6.58h6v9.338h-7.161Z" transform="translate(-1634.909 -1181.416)"/>
    <path id="Trazado_134531" data-name="Trazado 134531" d="M1693.342,1205.206h-50.707a.853.853,0,0,1-.308-.059l-6.58-2.66a.826.826,0,0,1-.515-.763v-10.064a.822.822,0,0,1,.823-.823h10.558l7.191-8.795a.824.824,0,0,1,.636-.3h23.031a.827.827,0,0,1,.295.054l17.082,6.526h5.848a.822.822,0,0,1,.823.823v9.339a.822.822,0,0,1-.823.823h-6.365l-.166,5.108A.824.824,0,0,1,1693.342,1205.206Zm-50.546-1.645h49.748l.168-5.108a.823.823,0,0,1,.823-.795h6.338v-7.694H1694.7a.794.794,0,0,1-.295-.054l-17.082-6.526h-22.488l-7.192,8.794a.818.818,0,0,1-.635.3h-10.127v8.688Z" transform="translate(-1635.232 -1181.739)"/>
  </g>
  <g id="Grupo_90778" data-name="Grupo 90778" transform="translate(406.631 75.46)">
    <circle id="Elipse_4275" data-name="Elipse 4275" cx="14.031" cy="14.031" r="14.031" transform="translate(0.823 0.823)"/>
    <path id="Trazado_134532" data-name="Trazado 134532" d="M1897.269,1216.848a14.854,14.854,0,1,1,14.855-14.855A14.871,14.871,0,0,1,1897.269,1216.848Zm0-28.063a13.209,13.209,0,1,0,13.21,13.208A13.222,13.222,0,0,0,1897.269,1188.785Z" transform="translate(-1882.416 -1187.14)"/>
  </g>
  <g id="Grupo_90779" data-name="Grupo 90779" transform="translate(182.698 75.46)">
    <circle id="Elipse_4276" data-name="Elipse 4276" cx="14.031" cy="14.031" r="14.031" transform="translate(0.822 0.823)"/>
    <path id="Trazado_134533" data-name="Trazado 134533" d="M1761.144,1216.848A14.854,14.854,0,1,1,1776,1201.993,14.871,14.871,0,0,1,1761.144,1216.848Zm0-28.063a13.209,13.209,0,1,0,13.21,13.208A13.222,13.222,0,0,0,1761.144,1188.785Z" transform="translate(-1746.291 -1187.14)"/>
  </g>
  <g id="Grupo_90780" data-name="Grupo 90780" transform="translate(142.442 75.46)">
    <circle id="Elipse_4277" data-name="Elipse 4277" cx="14.031" cy="14.031" r="14.031" transform="translate(0.823 0.823)"/>
    <path id="Trazado_134534" data-name="Trazado 134534" d="M1736.675,1216.848a14.854,14.854,0,1,1,14.853-14.855A14.872,14.872,0,0,1,1736.675,1216.848Zm0-28.063a13.209,13.209,0,1,0,13.208,13.208A13.223,13.223,0,0,0,1736.675,1188.785Z" transform="translate(-1721.82 -1187.14)"/>
  </g>
  <g id="Grupo_90781" data-name="Grupo 90781" transform="translate(18.29 75.46)">
    <circle id="Elipse_4278" data-name="Elipse 4278" cx="14.031" cy="14.031" r="14.031" transform="translate(0.822 0.823)"/>
    <path id="Trazado_134535" data-name="Trazado 134535" d="M1661.2,1216.848a14.854,14.854,0,1,1,14.853-14.855A14.871,14.871,0,0,1,1661.2,1216.848Zm0-28.063a13.209,13.209,0,1,0,13.208,13.208A13.221,13.221,0,0,0,1661.2,1188.785Z" transform="translate(-1646.35 -1187.14)"/>
  </g>
  <g id="Grupo_90782" data-name="Grupo 90782" transform="translate(234.081 74.307)">
    <path id="Trazado_134536" data-name="Trazado 134536" d="M1778.026,1186.94h6.58v15.183h6.967V1186.94h5.806" transform="translate(-1777.203 -1186.116)" fill="#fff"/>
    <path id="Trazado_134537" data-name="Trazado 134537" d="M1791.9,1203.268h-6.969a.823.823,0,0,1-.823-.823v-14.361h-5.758a.822.822,0,1,1,0-1.645h6.58a.822.822,0,0,1,.823.823v14.361h5.323v-14.361a.822.822,0,0,1,.823-.823h5.805a.822.822,0,1,1,0,1.645h-4.983v14.361A.823.823,0,0,1,1791.9,1203.268Z" transform="translate(-1777.526 -1186.439)"/>
  </g>
  <g id="Grupo_90783" data-name="Grupo 90783" transform="translate(412.149 80.976)">
    <circle id="Elipse_4279" data-name="Elipse 4279" cx="8.516" cy="8.516" r="8.516" transform="translate(0.821 0.822)" fill="#fff"/>
    <path id="Trazado_134538" data-name="Trazado 134538" d="M1895.106,1209.169a9.338,9.338,0,1,1,9.339-9.339A9.347,9.347,0,0,1,1895.106,1209.169Zm0-17.031a7.693,7.693,0,1,0,7.694,7.692A7.7,7.7,0,0,0,1895.106,1192.138Z" transform="translate(-1885.77 -1190.493)"/>
  </g>
  <g id="Grupo_90784" data-name="Grupo 90784" transform="translate(416.985 85.814)">
    <circle id="Elipse_4280" data-name="Elipse 4280" cx="3.677" cy="3.677" r="3.677" transform="translate(0.823 0.823)" fill="#fff"/>
    <path id="Trazado_134539" data-name="Trazado 134539" d="M1893.209,1202.432a4.5,4.5,0,1,1,4.5-4.5A4.506,4.506,0,0,1,1893.209,1202.432Zm0-7.354a2.854,2.854,0,1,0,2.856,2.854A2.857,2.857,0,0,0,1893.209,1195.079Z" transform="translate(-1888.71 -1193.434)"/>
  </g>
  <g id="Grupo_90785" data-name="Grupo 90785" transform="translate(439.81 73.156)">
    <path id="Trazado_134540" data-name="Trazado 134540" d="M1903.085,1186.24v20.012l2.322,4.838" transform="translate(-1902.262 -1185.416)" fill="#fff"/>
    <path id="Trazado_134541" data-name="Trazado 134541" d="M1905.73,1212.236a.828.828,0,0,1-.742-.465l-2.323-4.84a.837.837,0,0,1-.081-.357v-20.012a.823.823,0,1,1,1.645,0v19.825l2.242,4.67a.824.824,0,0,1-.385,1.1A.838.838,0,0,1,1905.73,1212.236Z" transform="translate(-1902.585 -1185.739)"/>
  </g>
  <g id="Grupo_90786" data-name="Grupo 90786" transform="translate(404.211 73.156)">
    <path id="Trazado_134542" data-name="Trazado 134542" d="M1881.446,1186.24v2.3H1921.7v-2.3" transform="translate(-1880.622 -1185.416)" fill="#fff"/>
    <path id="Trazado_134543" data-name="Trazado 134543" d="M1922.024,1189.689h-40.256a.823.823,0,0,1-.823-.822v-2.3a.823.823,0,1,1,1.645,0v1.482H1921.2v-1.482a.823.823,0,1,1,1.645,0v2.3A.823.823,0,0,1,1922.024,1189.689Z" transform="translate(-1880.945 -1185.739)"/>
  </g>
  <g id="Grupo_90787" data-name="Grupo 90787" transform="translate(188.214 80.976)">
    <circle id="Elipse_4281" data-name="Elipse 4281" cx="8.516" cy="8.516" r="8.516" transform="translate(0.822 0.822)" fill="#fff"/>
    <path id="Trazado_134544" data-name="Trazado 134544" d="M1758.981,1209.169a9.338,9.338,0,1,1,9.339-9.339A9.349,9.349,0,0,1,1758.981,1209.169Zm0-17.031a7.693,7.693,0,1,0,7.694,7.692A7.7,7.7,0,0,0,1758.981,1192.138Z" transform="translate(-1749.644 -1190.493)"/>
  </g>
  <g id="Grupo_90788" data-name="Grupo 90788" transform="translate(193.052 85.814)">
    <circle id="Elipse_4282" data-name="Elipse 4282" cx="3.677" cy="3.677" r="3.677" transform="translate(0.823 0.823)" fill="#fff"/>
    <path id="Trazado_134545" data-name="Trazado 134545" d="M1757.084,1202.432a4.5,4.5,0,1,1,4.5-4.5A4.506,4.506,0,0,1,1757.084,1202.432Zm0-7.354a2.854,2.854,0,1,0,2.856,2.854A2.857,2.857,0,0,0,1757.084,1195.079Z" transform="translate(-1752.585 -1193.434)"/>
  </g>
  <g id="Grupo_90789" data-name="Grupo 90789" transform="translate(215.877 77.809)">
    <path id="Trazado_134546" data-name="Trazado 134546" d="M1766.96,1189.069v20.012l2.323,4.839" transform="translate(-1766.138 -1188.245)" fill="#fff"/>
    <path id="Trazado_134547" data-name="Trazado 134547" d="M1769.6,1215.065a.825.825,0,0,1-.742-.467l-2.322-4.84a.823.823,0,0,1-.081-.355v-20.012a.823.823,0,1,1,1.645,0v19.826l2.24,4.67a.823.823,0,0,1-.742,1.178Z" transform="translate(-1766.46 -1188.568)"/>
  </g>
  <g id="Grupo_90790" data-name="Grupo 90790" transform="translate(180.278 73.156)">
    <path id="Trazado_134548" data-name="Trazado 134548" d="M1745.32,1186.24v2.3h40.255v-2.3" transform="translate(-1744.497 -1185.416)" fill="#fff"/>
    <path id="Trazado_134549" data-name="Trazado 134549" d="M1785.9,1189.689h-40.256a.822.822,0,0,1-.822-.822v-2.3a.822.822,0,1,1,1.645,0v1.482h38.611v-1.482a.823.823,0,0,1,1.645,0v2.3A.823.823,0,0,1,1785.9,1189.689Z" transform="translate(-1744.82 -1185.739)"/>
  </g>
  <g id="Grupo_90791" data-name="Grupo 90791" transform="translate(147.958 80.976)">
    <circle id="Elipse_4283" data-name="Elipse 4283" cx="8.516" cy="8.516" r="8.516" transform="translate(0.823 0.822)" fill="#fff"/>
    <path id="Trazado_134550" data-name="Trazado 134550" d="M1734.512,1209.169a9.338,9.338,0,1,1,9.337-9.339A9.35,9.35,0,0,1,1734.512,1209.169Zm0-17.031a7.693,7.693,0,1,0,7.692,7.692A7.7,7.7,0,0,0,1734.512,1192.138Z" transform="translate(-1725.173 -1190.493)"/>
  </g>
  <g id="Grupo_90792" data-name="Grupo 90792" transform="translate(152.796 85.814)">
    <circle id="Elipse_4284" data-name="Elipse 4284" cx="3.677" cy="3.677" r="3.677" transform="translate(0.823 0.823)" fill="#fff"/>
    <path id="Trazado_134551" data-name="Trazado 134551" d="M1732.615,1202.432a4.5,4.5,0,1,1,4.5-4.5A4.506,4.506,0,0,1,1732.615,1202.432Zm0-7.354a2.854,2.854,0,1,0,2.854,2.854A2.858,2.858,0,0,0,1732.615,1195.079Z" transform="translate(-1728.114 -1193.434)"/>
  </g>
  <g id="Grupo_90793" data-name="Grupo 90793" transform="translate(175.621 73.156)">
    <path id="Trazado_134552" data-name="Trazado 134552" d="M1742.489,1186.24v20.012l2.323,4.838" transform="translate(-1741.666 -1185.416)" fill="#fff"/>
    <path id="Trazado_134553" data-name="Trazado 134553" d="M1745.134,1212.236a.829.829,0,0,1-.742-.465l-2.323-4.84a.837.837,0,0,1-.081-.357v-20.012a.823.823,0,0,1,1.645,0v19.825l2.244,4.67a.823.823,0,0,1-.744,1.179Z" transform="translate(-1741.989 -1185.739)"/>
  </g>
  <g id="Grupo_90794" data-name="Grupo 90794" transform="translate(140.024 73.156)">
    <path id="Trazado_134554" data-name="Trazado 134554" d="M1720.85,1186.24v2.3h40.255v-2.3" transform="translate(-1720.028 -1185.416)" fill="#fff"/>
    <path id="Trazado_134555" data-name="Trazado 134555" d="M1761.427,1189.689h-40.255a.822.822,0,0,1-.823-.822v-2.3a.823.823,0,0,1,1.645,0v1.482H1760.6v-1.482a.822.822,0,1,1,1.645,0v2.3A.821.821,0,0,1,1761.427,1189.689Z" transform="translate(-1720.35 -1185.739)"/>
  </g>
  <g id="Grupo_90795" data-name="Grupo 90795" transform="translate(23.804 80.976)">
    <circle id="Elipse_4285" data-name="Elipse 4285" cx="8.516" cy="8.516" r="8.516" transform="translate(0.824 0.822)" fill="#fff"/>
    <path id="Trazado_134556" data-name="Trazado 134556" d="M1659.041,1209.169a9.338,9.338,0,1,1,9.339-9.339A9.35,9.35,0,0,1,1659.041,1209.169Zm0-17.031a7.693,7.693,0,1,0,7.694,7.692A7.7,7.7,0,0,0,1659.041,1192.138Z" transform="translate(-1649.702 -1190.493)"/>
  </g>
  <g id="Grupo_90796" data-name="Grupo 90796" transform="translate(28.644 85.814)">
    <circle id="Elipse_4286" data-name="Elipse 4286" cx="3.677" cy="3.677" r="3.677" transform="translate(0.822 0.823)" fill="#fff"/>
    <path id="Trazado_134557" data-name="Trazado 134557" d="M1657.143,1202.432a4.5,4.5,0,1,1,4.5-4.5A4.5,4.5,0,0,1,1657.143,1202.432Zm0-7.354a2.854,2.854,0,1,0,2.854,2.854A2.857,2.857,0,0,0,1657.143,1195.079Z" transform="translate(-1652.644 -1193.434)"/>
  </g>
  <g id="Grupo_90801" data-name="Grupo 90801" transform="translate(101.026 76.592)">
    <g id="Grupo_90797" data-name="Grupo 90797">
      <rect id="Rectángulo_7119" data-name="Rectángulo 7119" width="23.611" height="11.806" transform="translate(0.822 0.822)" fill="#fff"/>
      <path id="Trazado_134558" data-name="Trazado 134558" d="M1721.078,1201.278h-23.611a.822.822,0,0,1-.823-.822v-11.8a.822.822,0,0,1,.823-.823h23.611a.823.823,0,0,1,.822.823v11.8A.823.823,0,0,1,1721.078,1201.278Zm-22.789-1.645h21.966v-10.16h-21.966Z" transform="translate(-1696.644 -1187.828)"/>
    </g>
    <g id="Grupo_90800" data-name="Grupo 90800" transform="translate(3.048)">
      <g id="Grupo_90798" data-name="Grupo 90798">
        <rect id="Rectángulo_7120" data-name="Rectángulo 7120" width="3" height="11.806" transform="translate(0.822 0.822)" fill="#fff"/>
        <path id="Trazado_134559" data-name="Trazado 134559" d="M1702.318,1201.278h-3a.823.823,0,0,1-.823-.822v-11.8a.823.823,0,0,1,.823-.823h3a.822.822,0,0,1,.822.823v11.8A.822.822,0,0,1,1702.318,1201.278Zm-2.177-1.645h1.354v-10.16h-1.354Z" transform="translate(-1698.497 -1187.828)"/>
      </g>
      <g id="Grupo_90799" data-name="Grupo 90799" transform="translate(14.514)">
        <rect id="Rectángulo_7121" data-name="Rectángulo 7121" width="3" height="11.806" transform="translate(0.823 0.822)" fill="#fff"/>
        <path id="Trazado_134560" data-name="Trazado 134560" d="M1711.143,1201.278h-3a.823.823,0,0,1-.822-.822v-11.8a.823.823,0,0,1,.822-.823h3a.823.823,0,0,1,.823.823v11.8A.823.823,0,0,1,1711.143,1201.278Zm-2.178-1.645h1.356v-10.16h-1.356Z" transform="translate(-1707.32 -1187.828)"/>
      </g>
    </g>
  </g>
  <g id="Grupo_90802" data-name="Grupo 90802" transform="translate(64.641 73.156)">
    <path id="Trazado_134561" data-name="Trazado 134561" d="M1714.218,1186.24h-39.191v12.58h26.515v-7.935h12.677Z" transform="translate(-1674.203 -1185.416)" fill="#fff"/>
    <path id="Trazado_134562" data-name="Trazado 134562" d="M1701.864,1199.965h-26.515a.823.823,0,0,1-.822-.822v-12.581a.823.823,0,0,1,.822-.823h39.192a.823.823,0,0,1,.822.823v4.646a.822.822,0,0,1-.822.823h-11.854v7.113A.823.823,0,0,1,1701.864,1199.965Zm-25.693-1.645h24.87v-7.113a.822.822,0,0,1,.823-.823h11.854v-3h-37.547Z" transform="translate(-1674.526 -1185.739)"/>
  </g>
  <g id="Grupo_90803" data-name="Grupo 90803" transform="translate(64.641 85.737)">
    <path id="Trazado_134563" data-name="Trazado 134563" d="M1710.153,1195.338v3.193h-28.16v4.354h-6.967v-9h26.515v1.452Z" transform="translate(-1674.203 -1193.065)" fill="#fff"/>
    <path id="Trazado_134564" data-name="Trazado 134564" d="M1682.317,1204.031h-6.968a.822.822,0,0,1-.822-.822v-9a.822.822,0,0,1,.822-.822h26.515a.822.822,0,0,1,.822.822v.629h7.789a.821.821,0,0,1,.822.823v3.193a.823.823,0,0,1-.822.822h-27.336v3.532A.822.822,0,0,1,1682.317,1204.031Zm-6.146-1.645h5.323v-3.532a.822.822,0,0,1,.822-.823h27.336v-1.548h-7.789a.822.822,0,0,1-.823-.823v-.629h-24.87Z" transform="translate(-1674.526 -1193.387)"/>
  </g>
  <g id="Grupo_90804" data-name="Grupo 90804" transform="translate(8.709 30.772)">
    <path id="Trazado_134565" data-name="Trazado 134565" d="M1736.15,1202.858s-.979-21.535-8.058-40.031a3.713,3.713,0,0,0-3.478-2.353H1692.76a4.016,4.016,0,0,0-3.649,2.339l-7.442,16.24-32.485,2.249a7.842,7.842,0,0,0-6.9,5.366l-1.253,3.8H1674.4a11.194,11.194,0,0,1,8.888,4.389l6.123,8Z" transform="translate(-1640.204 -1159.652)" fill="#fff"/>
    <path id="Trazado_134566" data-name="Trazado 134566" d="M1736.472,1204h-46.739a.823.823,0,0,1-.655-.323l-6.123-8a10.427,10.427,0,0,0-8.233-4.067h-33.373a.821.821,0,0,1-.78-1.079l1.252-3.8a8.63,8.63,0,0,1,7.63-5.93l32-2.216,7.241-15.794a4.837,4.837,0,0,1,4.394-2.82h31.855a4.55,4.55,0,0,1,4.244,2.882c7.046,18.4,8.1,40.07,8.112,40.287a.821.821,0,0,1-.821.859Zm-46.333-1.645H1735.6c-.273-4.183-1.795-22.828-7.954-38.914a2.9,2.9,0,0,0-2.708-1.825h-31.855a3.192,3.192,0,0,0-2.9,1.859l-7.444,16.24a.825.825,0,0,1-.691.479l-32.485,2.249a6.99,6.99,0,0,0-6.181,4.8l-.9,2.722h32.235a12.085,12.085,0,0,1,9.541,4.712Z" transform="translate(-1640.526 -1159.975)"/>
  </g>
  <g id="Grupo_90805" data-name="Grupo 90805" transform="translate(2.517 60.77)">
    <path id="Trazado_134567" data-name="Trazado 134567" d="M1637.261,1194.532h7.355l8.516-10.017h23.031l9.1,11.226h8.128V1191.1h-1.548l-6.5-8.484a9.95,9.95,0,0,0-7.9-3.9h-33.987l-2.221,1.181a7.481,7.481,0,0,0-3.973,6.606Z" transform="translate(-1636.44 -1177.887)" fill="#fff"/>
    <path id="Trazado_134568" data-name="Trazado 134568" d="M1693.709,1196.886h-8.128a.824.824,0,0,1-.64-.3l-8.849-10.922h-22.258l-8.27,9.727a.818.818,0,0,1-.627.289h-7.354a.822.822,0,0,1-.823-.823v-8.036a8.284,8.284,0,0,1,4.407-7.332l2.222-1.179a.8.8,0,0,1,.385-.1h33.987a10.843,10.843,0,0,1,8.556,4.224l6.248,8.161h1.142a.823.823,0,0,1,.823.823v4.646A.822.822,0,0,1,1693.709,1196.886Zm-7.737-1.645h6.914v-3h-.725a.824.824,0,0,1-.655-.323l-6.495-8.484a9.182,9.182,0,0,0-7.248-3.58h-33.781l-2.041,1.084a6.643,6.643,0,0,0-3.534,5.88v7.214h6.151l8.268-9.727a.828.828,0,0,1,.627-.289h23.031a.826.826,0,0,1,.64.306Z" transform="translate(-1636.762 -1178.21)"/>
  </g>
  <g id="Grupo_90806" data-name="Grupo 90806" transform="translate(102.574 9.676)">
    <rect id="Rectángulo_7122" data-name="Rectángulo 7122" width="6.387" height="25.547" transform="translate(0.823 0.823)" fill="#fff"/>
    <path id="Trazado_134569" data-name="Trazado 134569" d="M1704.8,1174.344h-6.388a.823.823,0,0,1-.822-.823v-25.547a.823.823,0,0,1,.822-.823h6.388a.823.823,0,0,1,.823.823v25.547A.823.823,0,0,1,1704.8,1174.344Zm-5.565-1.645h4.743v-23.9h-4.743Z" transform="translate(-1697.585 -1147.151)"/>
  </g>
  <g id="Grupo_90807" data-name="Grupo 90807" transform="translate(101.026 35.224)">
    <rect id="Rectángulo_7123" data-name="Rectángulo 7123" width="10.838" height="24.192" transform="translate(0.822 0.822)" fill="#fff"/>
    <path id="Trazado_134570" data-name="Trazado 134570" d="M1708.3,1188.518h-10.838a.822.822,0,0,1-.823-.823V1163.5a.821.821,0,0,1,.823-.823H1708.3a.821.821,0,0,1,.823.823V1187.7A.822.822,0,0,1,1708.3,1188.518Zm-10.015-1.645h9.193v-22.547h-9.193Z" transform="translate(-1696.644 -1162.681)"/>
  </g>
  <g id="Grupo_90808" data-name="Grupo 90808" transform="translate(101.026 59.416)">
    <rect id="Rectángulo_7124" data-name="Rectángulo 7124" width="13.548" height="3.532" transform="translate(0.822 0.822)" fill="#fff"/>
    <path id="Trazado_134571" data-name="Trazado 134571" d="M1711.014,1182.562h-13.547a.821.821,0,0,1-.823-.823v-3.53a.821.821,0,0,1,.823-.823h13.547a.822.822,0,0,1,.823.823v3.53A.822.822,0,0,1,1711.014,1182.562Zm-12.725-1.645h11.9v-1.885h-11.9Z" transform="translate(-1696.644 -1177.387)"/>
  </g>
  <g id="Grupo_90809" data-name="Grupo 90809" transform="translate(65.997 35.224)">
    <path id="Trazado_134572" data-name="Trazado 134572" d="M1675.85,1177.5h20.9a4.258,4.258,0,0,0,4.257-4.259v-10.063h-24Z" transform="translate(-1675.028 -1162.358)" fill="#fff"/>
    <path id="Trazado_134573" data-name="Trazado 134573" d="M1697.075,1178.648h-20.9a.821.821,0,0,1-.819-.888l1.161-14.322a.82.82,0,0,1,.819-.757h24a.822.822,0,0,1,.822.823v10.063A5.087,5.087,0,0,1,1697.075,1178.648ZM1677.064,1177h20.011a3.441,3.441,0,0,0,3.435-3.436v-9.24h-22.417Z" transform="translate(-1675.35 -1162.681)"/>
  </g>
  <g id="Grupo_90810" data-name="Grupo 90810" transform="translate(52.835 34.062)">
    <path id="Trazado_134574" data-name="Trazado 134574" d="M1667.85,1177.957h9.677l1.936-15.483H1675.2Z" transform="translate(-1667.027 -1161.653)" fill="#fff"/>
    <path id="Trazado_134575" data-name="Trazado 134575" d="M1677.849,1179.1h-9.676a.823.823,0,0,1-.744-1.176l7.355-15.483a.82.82,0,0,1,.742-.469h4.257a.821.821,0,0,1,.816.923l-1.933,15.483A.825.825,0,0,1,1677.849,1179.1Zm-8.375-1.645h7.65l1.729-13.838h-2.8Z" transform="translate(-1667.349 -1161.975)"/>
  </g>
  <g id="Grupo_90811" data-name="Grupo 90811" transform="translate(136.928)">
    <rect id="Rectángulo_7125" data-name="Rectángulo 7125" width="315.27" height="73.157" transform="translate(0.821 0.822)" fill="#fff"/>
    <path id="Trazado_134576" data-name="Trazado 134576" d="M2034.559,1216.07H1719.291a.821.821,0,0,1-.822-.822v-73.156a.82.82,0,0,1,.822-.822h315.268a.82.82,0,0,1,.822.822v73.156A.821.821,0,0,1,2034.559,1216.07Zm-314.446-1.645h313.623v-71.511H1720.113Z" transform="translate(-1718.468 -1141.269)"/>
  </g>
  <g id="Grupo_90812" data-name="Grupo 90812" transform="translate(143.893 7.548)">
    <rect id="Rectángulo_7126" data-name="Rectángulo 7126" width="301.335" height="65.609" transform="translate(0.824 0.823)" fill="#fff"/>
    <path id="Trazado_134577" data-name="Trazado 134577" d="M2024.861,1213.11H1723.525a.822.822,0,0,1-.823-.823V1146.68a.823.823,0,0,1,.823-.823h301.336a.823.823,0,0,1,.823.823v65.608A.822.822,0,0,1,2024.861,1213.11Zm-300.514-1.645h299.691V1147.5H1724.347Z" transform="translate(-1722.702 -1145.857)"/>
  </g>
</svg>
