<svg id="Grupo_90902" data-name="Grupo 90902" xmlns="http://www.w3.org/2000/svg" width="479" height="104.122" viewBox="0 0 479 104.122">
  <g id="Grupo_90856" data-name="Grupo 90856" transform="translate(0 65.531)">
    <path id="Trazado_134630" data-name="Trazado 134630" d="M1695.892,1419.777h-53.249l-3.823-1.472a4.818,4.818,0,0,1-3.088-4.5v-4.851a1.9,1.9,0,0,1,1.9-1.905h8.309l7.983-9.1h25.3l18.089,6.58h6.3v9.337h-7.52Z" transform="translate(-1634.909 -1397.134)"/>
    <path id="Trazado_134631" data-name="Trazado 134631" d="M1696.214,1420.924h-53.249a.826.826,0,0,1-.3-.056l-3.823-1.472a5.679,5.679,0,0,1-3.614-5.264v-4.851a2.73,2.73,0,0,1,2.727-2.728h7.938l7.737-8.816a.83.83,0,0,1,.618-.279h25.3a.821.821,0,0,1,.281.049l17.952,6.531h6.156a.823.823,0,0,1,.822.822v9.338a.823.823,0,0,1-.822.823h-6.725l-.176,5.109A.825.825,0,0,1,1696.214,1420.924Zm-53.1-1.645h52.3l.178-5.111a.823.823,0,0,1,.822-.793h6.7v-7.692h-5.478a.813.813,0,0,1-.281-.05L1679.4,1399.1h-24.778l-7.738,8.816a.822.822,0,0,1-.618.28h-8.309a1.083,1.083,0,0,0-1.082,1.082v4.851a4.018,4.018,0,0,0,2.559,3.728Z" transform="translate(-1635.232 -1397.457)"/>
  </g>
  <g id="Grupo_90857" data-name="Grupo 90857" transform="translate(15.289 74.414)">
    <ellipse id="Elipse_4302" data-name="Elipse 4302" cx="17.031" cy="14.031" rx="17.031" ry="14.031" transform="translate(0.823 0.823)"/>
    <path id="Trazado_134632" data-name="Trazado 134632" d="M1662.38,1432.565c-9.844,0-17.854-6.664-17.854-14.853s8.01-14.855,17.854-14.855,17.854,6.664,17.854,14.855S1672.224,1432.565,1662.38,1432.565Zm0-28.063c-8.937,0-16.209,5.925-16.209,13.209s7.271,13.208,16.209,13.208,16.209-5.926,16.209-13.208S1671.319,1404.5,1662.38,1404.5Z" transform="translate(-1644.526 -1402.857)"/>
  </g>
  <g id="Grupo_90858" data-name="Grupo 90858" transform="translate(348.016 74.414)">
    <ellipse id="Elipse_4303" data-name="Elipse 4303" cx="17.447" cy="14.031" rx="17.447" ry="14.031" transform="translate(0.824 0.823)"/>
    <path id="Trazado_134633" data-name="Trazado 134633" d="M1865.056,1432.565c-10.074,0-18.271-6.664-18.271-14.853s8.2-14.855,18.271-14.855,18.268,6.664,18.268,14.855S1875.131,1432.565,1865.056,1432.565Zm0-28.063c-9.168,0-16.626,5.925-16.626,13.209s7.458,13.208,16.626,13.208,16.624-5.926,16.624-13.208S1874.223,1404.5,1865.056,1404.5Z" transform="translate(-1846.785 -1402.857)"/>
  </g>
  <g id="Grupo_90859" data-name="Grupo 90859" transform="translate(391.312 74.414)">
    <ellipse id="Elipse_4304" data-name="Elipse 4304" cx="17.447" cy="14.031" rx="17.447" ry="14.031" transform="translate(0.824 0.823)"/>
    <path id="Trazado_134634" data-name="Trazado 134634" d="M1891.374,1432.565c-10.074,0-18.27-6.664-18.27-14.853s8.2-14.855,18.27-14.855,18.268,6.664,18.268,14.855S1901.448,1432.565,1891.374,1432.565Zm0-28.063c-9.166,0-16.625,5.925-16.625,13.209s7.458,13.208,16.625,13.208,16.623-5.926,16.623-13.208S1900.54,1404.5,1891.374,1404.5Z" transform="translate(-1873.104 -1402.857)"/>
  </g>
  <g id="Grupo_90860" data-name="Grupo 90860" transform="translate(433.214 74.414)">
    <ellipse id="Elipse_4305" data-name="Elipse 4305" cx="17.447" cy="14.031" rx="17.447" ry="14.031" transform="translate(0.823 0.823)"/>
    <path id="Trazado_134635" data-name="Trazado 134635" d="M1916.845,1432.565c-10.074,0-18.27-6.664-18.27-14.853s8.2-14.855,18.27-14.855,18.268,6.664,18.268,14.855S1926.92,1432.565,1916.845,1432.565Zm0-28.063c-9.168,0-16.625,5.925-16.625,13.209s7.457,13.208,16.625,13.208,16.623-5.926,16.623-13.208S1926.011,1404.5,1916.845,1404.5Z" transform="translate(-1898.575 -1402.857)"/>
  </g>
  <g id="Grupo_90861" data-name="Grupo 90861" transform="translate(96.478 76.755)">
    <rect id="Rectángulo_7136" data-name="Rectángulo 7136" width="131.604" height="9.386" transform="translate(0.823 0.823)"/>
    <path id="Trazado_134636" data-name="Trazado 134636" d="M1826.306,1415.312H1694.7a.822.822,0,0,1-.822-.822V1405.1a.823.823,0,0,1,.822-.822h131.6a.823.823,0,0,1,.823.822v9.387A.822.822,0,0,1,1826.306,1415.312Zm-130.782-1.645h129.959v-7.741H1695.524Z" transform="translate(-1693.879 -1404.28)"/>
  </g>
  <g id="Grupo_90862" data-name="Grupo 90862" transform="translate(249.058 69.163)">
    <path id="Trazado_134637" data-name="Trazado 134637" d="M1787.13,1400.165h6.581v15.183h6.967v-15.183h5.806" transform="translate(-1786.307 -1399.343)" fill="#fff"/>
    <path id="Trazado_134638" data-name="Trazado 134638" d="M1801,1416.494h-6.967a.823.823,0,0,1-.823-.823V1401.31h-5.758a.823.823,0,1,1,0-1.645h6.58a.823.823,0,0,1,.823.822v14.361h5.322v-14.361a.823.823,0,0,1,.823-.822h5.807a.823.823,0,1,1,0,1.645h-4.985v14.361A.822.822,0,0,1,1801,1416.494Z" transform="translate(-1786.63 -1399.665)"/>
  </g>
  <g id="Grupo_90863" data-name="Grupo 90863" transform="translate(472.433 72.266)">
    <path id="Trazado_134639" data-name="Trazado 134639" d="M1922.916,1402.051v20.012l2.322,4.838" transform="translate(-1922.093 -1401.229)" fill="#fff"/>
    <path id="Trazado_134640" data-name="Trazado 134640" d="M1925.562,1428.046a.826.826,0,0,1-.742-.466l-2.323-4.838a.846.846,0,0,1-.08-.357v-20.012a.822.822,0,1,1,1.645,0V1422.2l2.242,4.669a.825.825,0,0,1-.385,1.1A.814.814,0,0,1,1925.562,1428.046Z" transform="translate(-1922.416 -1401.551)"/>
  </g>
  <g id="Grupo_90864" data-name="Grupo 90864" transform="translate(428.548 68.24)">
    <path id="Trazado_134641" data-name="Trazado 134641" d="M1896.24,1399.6v23.254l2.323,5.622" transform="translate(-1895.416 -1398.782)" fill="#fff"/>
    <path id="Trazado_134642" data-name="Trazado 134642" d="M1898.884,1429.625a.823.823,0,0,1-.76-.507l-2.323-5.623a.83.83,0,0,1-.063-.316v-23.253a.823.823,0,0,1,1.645,0v23.09l2.26,5.473a.819.819,0,0,1-.446,1.073A.785.785,0,0,1,1898.884,1429.625Z" transform="translate(-1895.739 -1399.104)"/>
  </g>
  <g id="Grupo_90865" data-name="Grupo 90865" transform="translate(385.951 68.272)">
    <path id="Trazado_134643" data-name="Trazado 134643" d="M1870.345,1399.623v23.1l2.322,5.586" transform="translate(-1869.523 -1398.8)" fill="#fff"/>
    <path id="Trazado_134644" data-name="Trazado 134644" d="M1872.99,1429.458a.825.825,0,0,1-.76-.5l-2.323-5.587a.808.808,0,0,1-.063-.316v-23.1a.823.823,0,0,1,1.645,0v22.94l2.26,5.434a.822.822,0,0,1-.76,1.138Z" transform="translate(-1869.845 -1399.123)"/>
  </g>
  <g id="Grupo_90866" data-name="Grupo 90866" transform="translate(228.082 76.755)">
    <path id="Trazado_134645" data-name="Trazado 134645" d="M1774.379,1404.78v17.207l3.943,4.16" transform="translate(-1773.556 -1403.958)" fill="#fff"/>
    <path id="Trazado_134646" data-name="Trazado 134646" d="M1778.645,1427.293a.824.824,0,0,1-.6-.258l-3.943-4.159a.824.824,0,0,1-.225-.566V1405.1a.823.823,0,0,1,1.645,0v16.88l3.719,3.922a.823.823,0,0,1-.6,1.388Z" transform="translate(-1773.879 -1404.28)"/>
  </g>
  <g id="Grupo_90867" data-name="Grupo 90867" transform="translate(184.646 86.142)">
    <path id="Trazado_134647" data-name="Trazado 134647" d="M1747.975,1410.486v7.821l3.943,4.16" transform="translate(-1747.153 -1409.663)" fill="#fff"/>
    <path id="Trazado_134648" data-name="Trazado 134648" d="M1752.241,1423.612a.819.819,0,0,1-.6-.258l-3.945-4.159a.82.82,0,0,1-.224-.566v-7.82a.823.823,0,1,1,1.645,0v7.493l3.718,3.922a.823.823,0,0,1-.6,1.388Z" transform="translate(-1747.475 -1409.986)"/>
  </g>
  <g id="Grupo_90868" data-name="Grupo 90868" transform="translate(345.336 68.272)">
    <path id="Trazado_134649" data-name="Trazado 134649" d="M1845.656,1399.623v5.145h40.255v-5.145" transform="translate(-1844.834 -1398.8)" fill="#fff"/>
    <path id="Trazado_134650" data-name="Trazado 134650" d="M1886.233,1405.914h-40.254a.823.823,0,0,1-.823-.823v-5.146a.823.823,0,0,1,1.645,0v4.323h38.609v-4.323a.823.823,0,0,1,1.645,0v5.146A.823.823,0,0,1,1886.233,1405.914Z" transform="translate(-1845.156 -1399.123)"/>
  </g>
  <g id="Grupo_90869" data-name="Grupo 90869" transform="translate(388.244 68.272)">
    <path id="Trazado_134651" data-name="Trazado 134651" d="M1871.74,1399.623v5.145H1912v-5.145" transform="translate(-1870.916 -1398.8)" fill="#fff"/>
    <path id="Trazado_134652" data-name="Trazado 134652" d="M1912.318,1405.914h-40.256a.822.822,0,0,1-.823-.823v-5.146a.822.822,0,1,1,1.645,0v4.323H1911.5v-4.323a.822.822,0,1,1,1.645,0v5.146A.822.822,0,0,1,1912.318,1405.914Z" transform="translate(-1871.239 -1399.123)"/>
  </g>
  <g id="Grupo_90870" data-name="Grupo 90870" transform="translate(432.177 68.272)">
    <path id="Trazado_134653" data-name="Trazado 134653" d="M1898.446,1399.623v5.145H1938.7v-5.145" transform="translate(-1897.622 -1398.8)" fill="#fff"/>
    <path id="Trazado_134654" data-name="Trazado 134654" d="M1939.024,1405.914h-40.256a.823.823,0,0,1-.823-.823v-5.146a.823.823,0,0,1,1.645,0v4.323H1938.2v-4.323a.822.822,0,1,1,1.645,0v5.146A.822.822,0,0,1,1939.024,1405.914Z" transform="translate(-1897.945 -1399.123)"/>
  </g>
  <g id="Grupo_90871" data-name="Grupo 90871" transform="translate(158.892 68.272)">
    <path id="Trazado_134655" data-name="Trazado 134655" d="M1732.32,1399.623v8.484h35.32v-8.484" transform="translate(-1731.497 -1398.8)" fill="#fff"/>
    <path id="Trazado_134656" data-name="Trazado 134656" d="M1767.964,1409.252h-35.321a.822.822,0,0,1-.823-.822v-8.484a.822.822,0,1,1,1.645,0v7.661h33.676v-7.661a.823.823,0,0,1,1.645,0v8.484A.822.822,0,0,1,1767.964,1409.252Z" transform="translate(-1731.82 -1399.123)"/>
  </g>
  <g id="Grupo_90872" data-name="Grupo 90872" transform="translate(21.984 79.93)">
    <ellipse id="Elipse_4306" data-name="Elipse 4306" cx="10.336" cy="8.516" rx="10.336" ry="8.516" transform="translate(0.823 0.823)" fill="#fff"/>
    <path id="Trazado_134657" data-name="Trazado 134657" d="M1659.754,1424.886c-6.152,0-11.158-4.188-11.158-9.337s5.006-9.339,11.158-9.339,11.158,4.19,11.158,9.339S1665.907,1424.886,1659.754,1424.886Zm0-17.031c-5.246,0-9.513,3.451-9.513,7.694s4.267,7.692,9.513,7.692,9.514-3.45,9.514-7.692S1665,1407.855,1659.754,1407.855Z" transform="translate(-1648.596 -1406.21)"/>
  </g>
  <g id="Grupo_90873" data-name="Grupo 90873" transform="translate(27.857 84.768)">
    <ellipse id="Elipse_4307" data-name="Elipse 4307" cx="4.463" cy="3.677" rx="4.463" ry="3.677" transform="translate(0.822 0.823)" fill="#fff"/>
    <path id="Trazado_134658" data-name="Trazado 134658" d="M1657.452,1418.151c-2.915,0-5.286-2.018-5.286-4.5s2.371-4.5,5.286-4.5,5.286,2.02,5.286,4.5S1660.365,1418.151,1657.452,1418.151Zm0-7.355c-2.007,0-3.64,1.281-3.64,2.856s1.634,2.854,3.64,2.854,3.641-1.28,3.641-2.854S1659.459,1410.8,1657.452,1410.8Z" transform="translate(-1652.166 -1409.151)"/>
  </g>
  <g id="Grupo_90874" data-name="Grupo 90874" transform="translate(147.958 74.414)">
    <ellipse id="Elipse_4308" data-name="Elipse 4308" cx="17.031" cy="14.031" rx="17.031" ry="14.031" transform="translate(0.823 0.823)"/>
    <path id="Trazado_134659" data-name="Trazado 134659" d="M1743.027,1432.565c-9.844,0-17.854-6.664-17.854-14.853s8.01-14.855,17.854-14.855,17.854,6.664,17.854,14.855S1752.873,1432.565,1743.027,1432.565Zm0-28.063c-8.937,0-16.209,5.925-16.209,13.209s7.271,13.208,16.209,13.208,16.209-5.926,16.209-13.208S1751.965,1404.5,1743.027,1404.5Z" transform="translate(-1725.173 -1402.857)"/>
  </g>
  <g id="Grupo_90875" data-name="Grupo 90875" transform="translate(154.653 79.93)">
    <ellipse id="Elipse_4309" data-name="Elipse 4309" cx="10.336" cy="8.516" rx="10.336" ry="8.516" transform="translate(0.823 0.823)" fill="#fff"/>
    <path id="Trazado_134660" data-name="Trazado 134660" d="M1740.4,1424.886c-6.152,0-11.158-4.188-11.158-9.337s5.006-9.339,11.158-9.339,11.16,4.19,11.16,9.339S1746.556,1424.886,1740.4,1424.886Zm0-17.031c-5.244,0-9.513,3.451-9.513,7.694s4.269,7.692,9.513,7.692,9.515-3.45,9.515-7.692S1745.647,1407.855,1740.4,1407.855Z" transform="translate(-1729.243 -1406.21)"/>
  </g>
  <g id="Grupo_90876" data-name="Grupo 90876" transform="translate(160.526 84.768)">
    <ellipse id="Elipse_4310" data-name="Elipse 4310" cx="4.463" cy="3.677" rx="4.463" ry="3.677" transform="translate(0.823 0.823)" fill="#fff"/>
    <path id="Trazado_134661" data-name="Trazado 134661" d="M1738.1,1418.151c-2.915,0-5.285-2.018-5.285-4.5s2.371-4.5,5.285-4.5,5.286,2.02,5.286,4.5S1741.014,1418.151,1738.1,1418.151Zm0-7.355c-2.007,0-3.641,1.281-3.641,2.856s1.634,2.854,3.641,2.854,3.641-1.28,3.641-2.854S1740.106,1410.8,1738.1,1410.8Z" transform="translate(-1732.813 -1409.151)"/>
  </g>
  <g id="Grupo_90877" data-name="Grupo 90877" transform="translate(191.215 74.414)">
    <ellipse id="Elipse_4311" data-name="Elipse 4311" cx="17.031" cy="14.031" rx="17.031" ry="14.031" transform="translate(0.821 0.823)"/>
    <path id="Trazado_134662" data-name="Trazado 134662" d="M1769.32,1432.565c-9.844,0-17.852-6.664-17.852-14.853s8.008-14.855,17.852-14.855,17.854,6.664,17.854,14.855S1779.166,1432.565,1769.32,1432.565Zm0-28.063c-8.936,0-16.207,5.925-16.207,13.209s7.271,13.208,16.207,13.208,16.209-5.926,16.209-13.208S1778.258,1404.5,1769.32,1404.5Z" transform="translate(-1751.468 -1402.857)"/>
  </g>
  <g id="Grupo_90878" data-name="Grupo 90878" transform="translate(197.908 79.93)">
    <ellipse id="Elipse_4312" data-name="Elipse 4312" cx="10.336" cy="8.516" rx="10.336" ry="8.516" transform="translate(0.823 0.823)" fill="#fff"/>
    <path id="Trazado_134663" data-name="Trazado 134663" d="M1766.7,1424.886c-6.152,0-11.158-4.188-11.158-9.337s5.006-9.339,11.158-9.339,11.16,4.19,11.16,9.339S1772.85,1424.886,1766.7,1424.886Zm0-17.031c-5.244,0-9.513,3.451-9.513,7.694s4.269,7.692,9.513,7.692,9.515-3.45,9.515-7.692S1771.942,1407.855,1766.7,1407.855Z" transform="translate(-1755.537 -1406.21)"/>
  </g>
  <g id="Grupo_90879" data-name="Grupo 90879" transform="translate(203.781 84.768)">
    <ellipse id="Elipse_4313" data-name="Elipse 4313" cx="4.463" cy="3.677" rx="4.463" ry="3.677" transform="translate(0.823 0.823)" fill="#fff"/>
    <path id="Trazado_134664" data-name="Trazado 134664" d="M1764.392,1418.151c-2.913,0-5.285-2.018-5.285-4.5s2.372-4.5,5.285-4.5,5.286,2.02,5.286,4.5S1767.308,1418.151,1764.392,1418.151Zm0-7.355c-2.005,0-3.64,1.281-3.64,2.856s1.635,2.854,3.64,2.854,3.641-1.28,3.641-2.854S1766.4,1410.8,1764.392,1410.8Z" transform="translate(-1759.107 -1409.151)"/>
  </g>
  <g id="Grupo_90880" data-name="Grupo 90880" transform="translate(354.876 79.93)">
    <ellipse id="Elipse_4314" data-name="Elipse 4314" cx="10.588" cy="8.516" rx="10.588" ry="8.516" transform="translate(0.822 0.823)" fill="#fff"/>
    <path id="Trazado_134665" data-name="Trazado 134665" d="M1862.367,1424.886c-6.294,0-11.412-4.188-11.412-9.337s5.118-9.339,11.412-9.339,11.41,4.19,11.41,9.339S1868.659,1424.886,1862.367,1424.886Zm0-17.031c-5.385,0-9.767,3.451-9.767,7.694s4.381,7.692,9.767,7.692,9.765-3.45,9.765-7.692S1867.751,1407.855,1862.367,1407.855Z" transform="translate(-1850.955 -1406.21)"/>
  </g>
  <g id="Grupo_90881" data-name="Grupo 90881" transform="translate(360.89 84.768)">
    <ellipse id="Elipse_4315" data-name="Elipse 4315" cx="4.572" cy="3.677" rx="4.572" ry="3.677" transform="translate(0.824 0.823)" fill="#fff"/>
    <path id="Trazado_134666" data-name="Trazado 134666" d="M1860.008,1418.151c-2.976,0-5.4-2.018-5.4-4.5s2.421-4.5,5.4-4.5,5.394,2.02,5.394,4.5S1862.983,1418.151,1860.008,1418.151Zm0-7.355c-2.069,0-3.752,1.281-3.752,2.856s1.683,2.854,3.752,2.854,3.749-1.28,3.749-2.854S1862.074,1410.8,1860.008,1410.8Z" transform="translate(-1854.611 -1409.151)"/>
  </g>
  <g id="Grupo_90882" data-name="Grupo 90882" transform="translate(398.171 79.93)">
    <ellipse id="Elipse_4316" data-name="Elipse 4316" cx="10.588" cy="8.516" rx="10.588" ry="8.516" transform="translate(0.824 0.823)" fill="#fff"/>
    <path id="Trazado_134667" data-name="Trazado 134667" d="M1888.685,1424.886c-6.292,0-11.412-4.188-11.412-9.337s5.12-9.339,11.412-9.339,11.41,4.19,11.41,9.339S1894.977,1424.886,1888.685,1424.886Zm0-17.031c-5.384,0-9.767,3.451-9.767,7.694s4.383,7.692,9.767,7.692,9.765-3.45,9.765-7.692S1894.069,1407.855,1888.685,1407.855Z" transform="translate(-1877.273 -1406.21)"/>
  </g>
  <g id="Grupo_90883" data-name="Grupo 90883" transform="translate(404.188 84.768)">
    <ellipse id="Elipse_4317" data-name="Elipse 4317" cx="4.572" cy="3.677" rx="4.572" ry="3.677" transform="translate(0.822 0.823)" fill="#fff"/>
    <path id="Trazado_134668" data-name="Trazado 134668" d="M1886.325,1418.151c-2.976,0-5.394-2.018-5.394-4.5s2.418-4.5,5.394-4.5,5.394,2.02,5.394,4.5S1889.3,1418.151,1886.325,1418.151Zm0-7.355c-2.068,0-3.749,1.281-3.749,2.856s1.682,2.854,3.749,2.854,3.749-1.28,3.749-2.854S1888.393,1410.8,1886.325,1410.8Z" transform="translate(-1880.931 -1409.151)"/>
  </g>
  <g id="Grupo_90884" data-name="Grupo 90884" transform="translate(440.072 79.93)">
    <ellipse id="Elipse_4318" data-name="Elipse 4318" cx="10.588" cy="8.516" rx="10.588" ry="8.516" transform="translate(0.823 0.823)" fill="#fff"/>
    <path id="Trazado_134669" data-name="Trazado 134669" d="M1914.156,1424.886c-6.294,0-11.412-4.188-11.412-9.337s5.118-9.339,11.412-9.339,11.41,4.19,11.41,9.339S1920.448,1424.886,1914.156,1424.886Zm0-17.031c-5.386,0-9.767,3.451-9.767,7.694s4.381,7.692,9.767,7.692,9.765-3.45,9.765-7.692S1919.54,1407.855,1914.156,1407.855Z" transform="translate(-1902.744 -1406.21)"/>
  </g>
  <g id="Grupo_90885" data-name="Grupo 90885" transform="translate(446.088 84.768)">
    <ellipse id="Elipse_4319" data-name="Elipse 4319" cx="4.572" cy="3.677" rx="4.572" ry="3.677" transform="translate(0.823 0.823)" fill="#fff"/>
    <path id="Trazado_134670" data-name="Trazado 134670" d="M1911.8,1418.151c-2.976,0-5.4-2.018-5.4-4.5s2.42-4.5,5.4-4.5,5.394,2.02,5.394,4.5S1914.771,1418.151,1911.8,1418.151Zm0-7.355c-2.068,0-3.751,1.281-3.751,2.856s1.683,2.854,3.751,2.854,3.749-1.28,3.749-2.854S1913.864,1410.8,1911.8,1410.8Z" transform="translate(-1906.401 -1409.151)"/>
  </g>
  <g id="Grupo_90890" data-name="Grupo 90890" transform="translate(106.784 75.546)">
    <g id="Grupo_90886" data-name="Grupo 90886">
      <rect id="Rectángulo_7137" data-name="Rectángulo 7137" width="23.611" height="11.806" transform="translate(0.822 0.822)" fill="#fff"/>
      <path id="Trazado_134671" data-name="Trazado 134671" d="M1724.578,1417h-23.611a.822.822,0,0,1-.823-.823v-11.806a.822.822,0,0,1,.823-.823h23.611a.823.823,0,0,1,.822.823v11.806A.823.823,0,0,1,1724.578,1417Zm-22.789-1.645h21.966V1405.19h-21.966Z" transform="translate(-1700.144 -1403.545)"/>
    </g>
    <g id="Grupo_90889" data-name="Grupo 90889" transform="translate(3.048)">
      <g id="Grupo_90887" data-name="Grupo 90887">
        <rect id="Rectángulo_7138" data-name="Rectángulo 7138" width="3" height="11.806" transform="translate(0.822 0.822)" fill="#fff"/>
        <path id="Trazado_134672" data-name="Trazado 134672" d="M1705.818,1417h-3a.823.823,0,0,1-.822-.823v-11.806a.823.823,0,0,1,.822-.823h3a.822.822,0,0,1,.823.823v11.806A.821.821,0,0,1,1705.818,1417Zm-2.177-1.645H1705V1405.19h-1.354Z" transform="translate(-1701.997 -1403.545)"/>
      </g>
      <g id="Grupo_90888" data-name="Grupo 90888" transform="translate(14.514)">
        <rect id="Rectángulo_7139" data-name="Rectángulo 7139" width="3" height="11.806" transform="translate(0.823 0.822)" fill="#fff"/>
        <path id="Trazado_134673" data-name="Trazado 134673" d="M1714.643,1417h-3a.823.823,0,0,1-.823-.823v-11.806a.823.823,0,0,1,.823-.823h3a.823.823,0,0,1,.823.823v11.806A.823.823,0,0,1,1714.643,1417Zm-2.178-1.645h1.355V1405.19h-1.355Z" transform="translate(-1710.82 -1403.545)"/>
      </g>
    </g>
  </g>
  <g id="Grupo_90891" data-name="Grupo 90891" transform="translate(67.883 72.111)">
    <path id="Trazado_134674" data-name="Trazado 134674" d="M1721.946,1401.957H1677v11.667h28.6v-7.359h16.354Z" transform="translate(-1676.175 -1401.135)" fill="#fff"/>
    <path id="Trazado_134675" data-name="Trazado 134675" d="M1705.914,1414.769H1677.32a.823.823,0,0,1-.823-.823V1402.28a.823.823,0,0,1,.823-.822h44.948a.821.821,0,0,1,.822.822v4.307a.82.82,0,0,1-.822.822h-15.531v6.537A.823.823,0,0,1,1705.914,1414.769Zm-27.772-1.645h26.95v-6.537a.823.823,0,0,1,.822-.823h15.531V1403.1h-43.3Z" transform="translate(-1676.497 -1401.457)"/>
  </g>
  <g id="Grupo_90892" data-name="Grupo 90892" transform="translate(67.883 83.778)">
    <path id="Trazado_134676" data-name="Trazado 134676" d="M1715.9,1410.395v2.962h-31.185v4.038H1677v-8.346h29.363v1.346Z" transform="translate(-1676.175 -1408.227)" fill="#fff"/>
    <path id="Trazado_134677" data-name="Trazado 134677" d="M1685.036,1418.539h-7.717a.823.823,0,0,1-.823-.823v-8.345a.822.822,0,0,1,.823-.823h29.363a.822.822,0,0,1,.823.823v.523h8.716a.823.823,0,0,1,.822.823v2.961a.823.823,0,0,1-.822.823h-30.361v3.216A.823.823,0,0,1,1685.036,1418.539Zm-6.894-1.645h6.072v-3.216a.822.822,0,0,1,.822-.823H1715.4v-1.316h-8.715a.821.821,0,0,1-.823-.823v-.523h-27.717Z" transform="translate(-1676.497 -1408.549)"/>
  </g>
  <g id="Grupo_90893" data-name="Grupo 90893" transform="translate(8.709 29.726)">
    <path id="Trazado_134678" data-name="Trazado 134678" d="M1742.067,1418.577s1.273-21.537-6.246-40.031a3.949,3.949,0,0,0-3.693-2.354h-36.15a4.285,4.285,0,0,0-3.874,2.341l-7.906,16.238-34.505,2.249a8.259,8.259,0,0,0-7.333,5.366l-1.332,3.8h35.449a12.162,12.162,0,0,1,9.441,4.389l6.5,8Z" transform="translate(-1640.204 -1375.369)" fill="#fff"/>
    <path id="Trazado_134679" data-name="Trazado 134679" d="M1742.389,1419.722h-49.646a.815.815,0,0,1-.638-.3l-6.5-8a11.412,11.412,0,0,0-8.8-4.085h-35.449a.821.821,0,0,1-.775-1.094l1.331-3.8a9.047,9.047,0,0,1,8.057-5.916l34.028-2.218,7.7-15.809a5.119,5.119,0,0,1,4.613-2.8h36.15a4.791,4.791,0,0,1,4.455,2.867c7.5,18.452,6.318,40.17,6.306,40.387A.821.821,0,0,1,1742.389,1419.722Zm-49.255-1.645H1741.6c.131-4,.349-22.746-6.219-38.9a3.137,3.137,0,0,0-2.933-1.843H1696.3a3.475,3.475,0,0,0-3.135,1.877l-7.9,16.24a.821.821,0,0,1-.686.461l-34.507,2.251a7.4,7.4,0,0,0-6.61,4.815l-.949,2.709H1676.8a13.067,13.067,0,0,1,10.079,4.692Z" transform="translate(-1640.526 -1375.692)"/>
  </g>
  <g id="Grupo_90894" data-name="Grupo 90894" transform="translate(2.517 59.724)">
    <path id="Trazado_134680" data-name="Trazado 134680" d="M1637.261,1410.249h7.761l8.987-10.015h24.3l9.6,11.224h8.579v-4.644h-1.634l-6.855-8.485a10.716,10.716,0,0,0-8.339-3.9H1643.8l-2.344,1.181a7.436,7.436,0,0,0-4.192,6.607Z" transform="translate(-1636.44 -1393.604)" fill="#fff"/>
    <path id="Trazado_134681" data-name="Trazado 134681" d="M1696.812,1412.6h-8.577a.814.814,0,0,1-.625-.288l-9.354-10.936H1654.7l-8.74,9.742a.83.83,0,0,1-.613.273h-7.76a.822.822,0,0,1-.823-.822v-8.035a8.238,8.238,0,0,1,4.642-7.342l2.346-1.181a.816.816,0,0,1,.369-.087h35.864a11.61,11.61,0,0,1,8.979,4.206l6.61,8.181h1.24a.823.823,0,0,1,.822.823v4.644A.822.822,0,0,1,1696.812,1412.6Zm-8.2-1.645h7.377v-3h-.813a.817.817,0,0,1-.638-.306l-6.855-8.485a9.955,9.955,0,0,0-7.7-3.6h-35.666l-2.173,1.092a6.6,6.6,0,0,0-3.736,5.873v7.212h6.571l8.74-9.742a.828.828,0,0,1,.612-.273h24.306a.823.823,0,0,1,.625.288Z" transform="translate(-1636.762 -1393.927)"/>
  </g>
  <g id="Grupo_90895" data-name="Grupo 90895" transform="translate(108.962 6.097)">
    <rect id="Rectángulo_7140" data-name="Rectángulo 7140" width="6.387" height="28.081" transform="translate(0.821 0.822)" fill="#fff"/>
    <path id="Trazado_134682" data-name="Trazado 134682" d="M1708.677,1391.052h-6.386a.821.821,0,0,1-.822-.822v-28.079a.822.822,0,0,1,.822-.823h6.386a.823.823,0,0,1,.822.823v28.079A.822.822,0,0,1,1708.677,1391.052Zm-5.563-1.645h4.741v-26.434h-4.741Z" transform="translate(-1701.468 -1361.328)"/>
  </g>
  <g id="Grupo_90896" data-name="Grupo 90896" transform="translate(107.412 34.176)">
    <rect id="Rectángulo_7141" data-name="Rectángulo 7141" width="10.838" height="24.192" transform="translate(0.823 0.824)" fill="#fff"/>
    <path id="Trazado_134683" data-name="Trazado 134683" d="M1712.186,1404.236h-10.838a.823.823,0,0,1-.822-.823v-24.194a.823.823,0,0,1,.822-.822h10.838a.822.822,0,0,1,.823.822v24.194A.822.822,0,0,1,1712.186,1404.236Zm-10.015-1.645h9.193v-22.549h-9.193Z" transform="translate(-1700.526 -1378.397)"/>
  </g>
  <g id="Grupo_90897" data-name="Grupo 90897" transform="translate(107.412 58.37)">
    <rect id="Rectángulo_7142" data-name="Rectángulo 7142" width="13.548" height="3.532" transform="translate(0.823 0.822)" fill="#fff"/>
    <path id="Trazado_134684" data-name="Trazado 134684" d="M1714.9,1398.281h-13.548a.823.823,0,0,1-.822-.823v-3.532a.822.822,0,0,1,.822-.822H1714.9a.822.822,0,0,1,.823.822v3.532A.823.823,0,0,1,1714.9,1398.281Zm-12.726-1.645h11.9v-1.887h-11.9Z" transform="translate(-1700.526 -1393.104)"/>
  </g>
  <g id="Grupo_90898" data-name="Grupo 90898" transform="translate(68.709 34.176)">
    <path id="Trazado_134685" data-name="Trazado 134685" d="M1677.5,1393.22h23.07a4.5,4.5,0,0,0,4.7-4.259V1378.9h-26.486Z" transform="translate(-1676.676 -1378.074)" fill="#fff"/>
    <path id="Trazado_134686" data-name="Trazado 134686" d="M1700.89,1394.366h-23.068a.823.823,0,0,1-.819-.9l1.281-14.322a.825.825,0,0,1,.819-.75h26.487a.823.823,0,0,1,.822.822v10.066A5.321,5.321,0,0,1,1700.89,1394.366Zm-22.169-1.645h22.169a3.681,3.681,0,0,0,3.878-3.435v-9.244h-24.913Z" transform="translate(-1676.999 -1378.397)"/>
  </g>
  <g id="Grupo_90899" data-name="Grupo 90899" transform="translate(55.195 33.016)">
    <path id="Trazado_134687" data-name="Trazado 134687" d="M1669.284,1393.675h9.677l1.935-15.483h-4.258Z" transform="translate(-1668.462 -1377.37)" fill="#fff"/>
    <path id="Trazado_134688" data-name="Trazado 134688" d="M1679.283,1394.82h-9.676a.821.821,0,0,1-.742-1.176l7.355-15.482a.821.821,0,0,1,.742-.47h4.258a.821.821,0,0,1,.816.926L1680.1,1394.1A.822.822,0,0,1,1679.283,1394.82Zm-8.375-1.645h7.65l1.729-13.838h-2.8Z" transform="translate(-1668.784 -1377.692)"/>
  </g>
  <g id="Grupo_90900" data-name="Grupo 90900" transform="translate(145.443)">
    <rect id="Rectángulo_7143" data-name="Rectángulo 7143" width="331.914" height="68.24" transform="translate(0.822 0.822)" fill="#fff"/>
    <path id="Trazado_134689" data-name="Trazado 134689" d="M2056.379,1427.507H1724.467a.821.821,0,0,1-.823-.822v-68.24a.822.822,0,0,1,.823-.823h331.912a.822.822,0,0,1,.823.823v68.24A.822.822,0,0,1,2056.379,1427.507Zm-331.09-1.645h330.268v-66.6H1725.289Z" transform="translate(-1723.644 -1357.622)"/>
  </g>
  <g id="Grupo_90901" data-name="Grupo 90901" transform="translate(152.692 6.097)">
    <rect id="Rectángulo_7144" data-name="Rectángulo 7144" width="319.742" height="62.144" transform="translate(0.822 0.822)" fill="#fff"/>
    <path id="Trazado_134690" data-name="Trazado 134690" d="M2048.615,1425.117H1728.873a.822.822,0,0,1-.823-.822v-62.144a.822.822,0,0,1,.823-.823h319.741a.823.823,0,0,1,.823.823v62.144A.823.823,0,0,1,2048.615,1425.117Zm-318.919-1.645h318.1v-60.5H1729.7Z" transform="translate(-1728.051 -1361.328)"/>
  </g>
</svg>
