<svg xmlns="http://www.w3.org/2000/svg" width="65.941" height="58.441" viewBox="0 0 65.941 58.441">
  <path id="Trazado_126579" data-name="Trazado 126579" d="M64.975,68.059c-4.376,0-4.712-2.922-8.819-3.7,1.1-5.758,5.14-10.771,9.473-14.754a.966.966,0,0,0-.654-1.677h-.935v-12a.966.966,0,0,0-.966-.966H41.166a.966.966,0,0,0-.966.966v5.517H32.977V23.414l15.707-6.344v5.737H44.173a.966.966,0,0,0-.966.966v6.483a.966.966,0,0,0,.966.966h3.214a.966.966,0,1,0,0-1.932H45.139V24.738h9.023v4.551H51.249a.966.966,0,1,0,0,1.932h3.879a.966.966,0,0,0,.966-.966V23.772a.966.966,0,0,0-.966-.966H50.617V16.289l2.549-1.03a.966.966,0,1,0-.723-1.791L32.977,21.33v-1a2.992,2.992,0,0,0-.861-2.108L29.052,15.1a1.786,1.786,0,0,0-3.061,1.251v7.8L23.1,25.32a.966.966,0,1,0,.723,1.791l2.168-.876V47.558L23.2,46.41V32.718a2.053,2.053,0,0,0-2.05-2.05H19.359V20.563a2.033,2.033,0,0,0-2.031-2.031H14.557V15.882h.922a.966.966,0,1,0,0-1.932h-.922V12.516a.966.966,0,1,0-1.932,0V13.95H11.7a.966.966,0,1,0,0,1.932h.922v2.651H9.853a2.033,2.033,0,0,0-2.031,2.031V30.668H6.034a2.053,2.053,0,0,0-2.05,2.05v4.7a.966.966,0,1,0,1.932,0v-4.7a.119.119,0,0,1,.118-.118H21.148a.119.119,0,0,1,.118.118v12.9L17.83,44.2a1.841,1.841,0,0,0-.7-.138h-.2V40.614a1.581,1.581,0,0,0-1.579-1.579H11.829a1.581,1.581,0,0,0-1.579,1.579v3.452H5.915V41.277a.966.966,0,1,0-1.932,0v2.788H.966a.966.966,0,0,0-.9,1.317l4.38,11.249.31.8a2.04,2.04,0,0,1,.138.737V64.2a6.445,6.445,0,0,0,.46,2.386A6.72,6.72,0,0,1,.966,68.059a.966.966,0,0,0,0,1.932c5.529,0,5.924-3.864,10.669-3.864,4.867,0,4.993,3.864,10.669,3.864s5.795-3.864,10.668-3.864,4.993,3.864,10.668,3.864,5.8-3.864,10.668-3.864,4.991,3.864,10.668,3.864a.966.966,0,0,0,0-1.932ZM9.755,30.668V20.563a.1.1,0,0,1,.1-.1h7.475a.1.1,0,0,1,.1.1V30.668ZM42.132,47.929V43.378h9.023v4.551Zm10.955-4.551h9.023v4.551H53.086Zm9.023-1.932H53.086V36.9h9.023ZM42.132,36.9h9.023v4.551H42.132ZM40.2,43.378v4.551H32.977V43.378ZM27.922,16.71l2.815,2.869a1.071,1.071,0,0,1,.308.754v27.6H27.922ZM12.182,40.966H15v3.1H12.182ZM17.112,46l8.742,3.594a3.558,3.558,0,0,0,1.362.27H62.579a38.844,38.844,0,0,0-4.555,5.454H6.006L2.379,46ZM43.64,68.059c-4.868,0-4.991-3.864-10.668-3.864S27.183,68.059,22.3,68.059,17.312,64.2,11.635,64.2A8.406,8.406,0,0,0,7,65.444,4.5,4.5,0,0,1,6.826,64.2v-1.9H39.235a.966.966,0,1,0,0-1.932H6.826v-2.2a3.945,3.945,0,0,0-.108-.918h50.1a24.065,24.065,0,0,0-1.5,3.115H43.1a.966.966,0,0,0,0,1.932H54.665q-.27.949-.441,1.9C48.626,64.237,48.485,68.059,43.64,68.059Z" transform="translate(0 -11.55)" fill="#12263f"/>
</svg>
