<svg xmlns="http://www.w3.org/2000/svg" width="157" height="157" viewBox="0 0 157 157">
  <g id="Grupo_91072" data-name="Grupo 91072" transform="translate(-1227 -2045)">
    <circle id="Elipse_4060" data-name="Elipse 4060" cx="78.5" cy="78.5" r="78.5" transform="translate(1227 2045)" fill="#ffba5b"/>
    <g id="carbon" transform="translate(1260 2069.516)">
      <path id="Trazado_100630" data-name="Trazado 100630" d="M41.778,42.926l6.095-11.889h12.96l3.93-7.824h9.417l7.138-6.227,7.138,9.875,6.924-2.529,11.22,5.625h8.333l2.816,12.97-5.977,3.583h-63.9Z" transform="translate(-34.293 -6.158)" fill="#365e7d"/>
      <path id="Trazado_100631" data-name="Trazado 100631" d="M114.931,29.956H106.6l-11.22-5.625-6.924,2.529-7.138-9.875L78.19,19.714l7.057,9.762a1.207,1.207,0,0,0,1.392.427l5.578-2.038a1.207,1.207,0,0,1,.955.055l10.5,5.264a1.206,1.206,0,0,0,.541.128h7.074a1.207,1.207,0,0,1,1.179.951l.583,2.685a2.39,2.39,0,0,1-2.335,2.9H43.358l-1.58,3.083h75.969Z" transform="translate(-34.293 -6.158)" fill="#2b4d66"/>
      <path id="Trazado_100632" data-name="Trazado 100632" d="M112.175,178.809l-7.131-3.583H35.812l-3.952,3.583L40.682,215.1a1.664,1.664,0,0,0,1.617,1.271h59.438a1.664,1.664,0,0,0,1.617-1.271Z" transform="translate(-26.152 -136.047)" fill="#df6b57"/>
      <path id="Trazado_100633" data-name="Trazado 100633" d="M31.86,195.226l.9,3.711h72.183a2.015,2.015,0,0,1,1.958,2.491L99.28,232.783h2.456a1.663,1.663,0,0,0,1.616-1.271l8.822-36.286Z" transform="translate(-26.152 -152.464)" fill="#dd544f"/>
      <path id="Trazado_100634" data-name="Trazado 100634" d="M95.656,167.767H8.387a.887.887,0,0,1-.887-.887v-4.22a.887.887,0,0,1,.887-.887h87.27a.887.887,0,0,1,.887.887v4.22A.887.887,0,0,1,95.656,167.767Z" transform="translate(-6.156 -125.005)" fill="#eab14d"/>
      <path id="Trazado_100635" data-name="Trazado 100635" d="M483.1,161.774h-3.591a.887.887,0,0,1,.887.887v4.22a.887.887,0,0,1-.887.887H483.1a.887.887,0,0,0,.887-.887v-4.22A.887.887,0,0,0,483.1,161.774Z" transform="translate(-393.599 -125.005)" fill="#e49542"/>
      <path id="Trazado_100636" data-name="Trazado 100636" d="M155.814,411.2H103.18a1.294,1.294,0,0,1-1.294-1.294v-5.052h55.222v5.052A1.294,1.294,0,0,1,155.814,411.2Z" transform="translate(-83.632 -324.535)" fill="#365e7d"/>
      <circle id="Elipse_4068" data-name="Elipse 4068" cx="9.807" cy="9.807" r="9.807" transform="translate(22.66 76.858)" fill="#c3d5ef"/>
      <path id="Trazado_100637" data-name="Trazado 100637" d="M171.816,385.536a9.841,9.841,0,0,0-2.052.217,9.808,9.808,0,0,1,0,19.181,9.807,9.807,0,1,0,2.052-19.4Z" transform="translate(-139.349 -308.678)" fill="#b7c8ea"/>
      <circle id="Elipse_4069" data-name="Elipse 4069" cx="9.807" cy="9.807" r="9.807" transform="translate(49.456 76.858)" fill="#c3d5ef"/>
      <path id="Trazado_100638" data-name="Trazado 100638" d="M321.38,385.536a9.841,9.841,0,0,0-2.052.217,9.808,9.808,0,0,1,0,19.181,9.807,9.807,0,1,0,2.052-19.4Z" transform="translate(-262.117 -308.678)" fill="#b7c8ea"/>
      <g id="Grupo_53799" data-name="Grupo 53799" transform="translate(0 9.484)">
        <path id="Trazado_100639" data-name="Trazado 100639" d="M89.5,35.425H84.537L81.951,23.514a1.343,1.343,0,0,0-1.313-1.059H72.623L61.688,16.972a1.342,1.342,0,0,0-1.063-.061l-5.97,2.181-6.542-9.051a1.344,1.344,0,0,0-1.972-.225l-6.758,5.9H37.839a1.344,1.344,0,1,0,0,2.687h2.046a1.344,1.344,0,0,0,.883-.331L46.8,12.809l6.275,8.681a1.343,1.343,0,0,0,1.55.475L61,19.634,71.7,25a1.346,1.346,0,0,0,.6.142h7.249l2.232,10.283H9.684l4.717-9.2H26.539a1.344,1.344,0,0,0,1.2-.741L31.3,18.4h1.169a1.344,1.344,0,0,0,0-2.687h-2a1.344,1.344,0,0,0-1.2.741L25.71,23.536H13.579a1.344,1.344,0,0,0-1.2.731L6.664,35.425H2.23A2.233,2.233,0,0,0,0,37.655v4.22a2.233,2.233,0,0,0,2.23,2.23H4.652l8.572,35.26a3,3,0,0,0,2.922,2.3h.764v3.708a2.641,2.641,0,0,0,2.638,2.638H21.4a11.135,11.135,0,0,0,.531,2.3,1.344,1.344,0,0,0,2.54-.879,8.47,8.47,0,1,1,2.685,3.819,1.344,1.344,0,0,0-1.689,2.09,11.147,11.147,0,0,0,18.07-7.332H48.2a11.148,11.148,0,0,0,22.134,0h1.852a2.641,2.641,0,0,0,2.638-2.638V81.663h.764a3,3,0,0,0,2.922-2.3l1.454-5.979a1.344,1.344,0,1,0-2.612-.635L75.9,78.731a.319.319,0,0,1-.31.244H67.327a11.124,11.124,0,0,0-16.127,0H40.531a11.124,11.124,0,0,0-16.127,0H16.146a.319.319,0,0,1-.311-.244l-.546-2.248h.642a1.344,1.344,0,1,0,0-2.687h-1.3l-2.189-9h3.484a1.344,1.344,0,0,0,0-2.687H11.794l-2.6-10.691H23.951a1.344,1.344,0,1,0,0-2.687H8.541L7.418,44.106h76.9l-3.186,13.1H66.134a1.344,1.344,0,0,0,0,2.687h14.34l-1.819,7.482a1.344,1.344,0,0,0,2.612.635l5.812-23.908H89.5a2.233,2.233,0,0,0,2.23-2.23v-4.22a2.233,2.233,0,0,0-2.23-2.231ZM72.133,81.663v3.659h-1.8a11.057,11.057,0,0,0-1.106-3.659ZM59.263,78.2A8.463,8.463,0,1,1,50.8,86.665,8.473,8.473,0,0,1,59.263,78.2ZM49.3,81.663A11.057,11.057,0,0,0,48.2,85.322H43.534a11.058,11.058,0,0,0-1.106-3.659Zm-26.8,0A11.056,11.056,0,0,0,21.4,85.322H19.6V81.663ZM89.043,41.418H2.687V38.112H89.043Z" transform="translate(0 -9.484)" fill="#12263f"/>
        <path id="Trazado_100640" data-name="Trazado 100640" d="M166.743,229.865a1.344,1.344,0,0,0-1.344-1.344h-7.518a1.344,1.344,0,0,0,0,2.687H165.4A1.344,1.344,0,0,0,166.743,229.865Z" transform="translate(-128.492 -189.278)" fill="#12263f"/>
        <path id="Trazado_100641" data-name="Trazado 100641" d="M116.075,303.2a1.344,1.344,0,1,0,0,2.687h11.406a1.344,1.344,0,1,0,0-2.687Z" transform="translate(-94.176 -250.573)" fill="#12263f"/>
        <path id="Trazado_100642" data-name="Trazado 100642" d="M281.156,357.719h11.4a1.344,1.344,0,1,0,0-2.687h-11.4a1.344,1.344,0,1,0,0,2.687Z" transform="translate(-229.681 -293.123)" fill="#12263f"/>
        <path id="Trazado_100643" data-name="Trazado 100643" d="M351.8,238.223a1.344,1.344,0,1,0,0-2.687h-7.018a1.344,1.344,0,1,0,0,2.687Z" transform="translate(-281.909 -195.036)" fill="#12263f"/>
        <path id="Trazado_100644" data-name="Trazado 100644" d="M335.8,316.793a1.344,1.344,0,0,0-1.344-1.344H320.379a1.344,1.344,0,0,0,0,2.687h14.078A1.344,1.344,0,0,0,335.8,316.793Z" transform="translate(-261.876 -260.632)" fill="#12263f"/>
        <path id="Trazado_100645" data-name="Trazado 100645" d="M232.088,270.093a1.344,1.344,0,0,0-1.344-1.344H216.469a1.344,1.344,0,1,0,0,2.687h14.276A1.344,1.344,0,0,0,232.088,270.093Z" transform="translate(-176.583 -222.299)" fill="#12263f"/>
        <path id="Trazado_100646" data-name="Trazado 100646" d="M176.405,433.164v-.533a1.344,1.344,0,0,0-2.687,0v.533a1.344,1.344,0,0,0,2.687,0Z" transform="translate(-142.594 -355.717)" fill="#12263f"/>
        <path id="Trazado_100647" data-name="Trazado 100647" d="M324.626,434.508a1.343,1.343,0,0,0,1.344-1.344v-.533a1.344,1.344,0,1,0-2.687,0v.533A1.344,1.344,0,0,0,324.626,434.508Z" transform="translate(-265.362 -355.717)" fill="#12263f"/>
        <path id="Trazado_100648" data-name="Trazado 100648" d="M104.752,119.176a1.344,1.344,0,0,0,1.344-1.344v-2.088a1.344,1.344,0,0,0-.879-1.261l-2.471-.912a1.344,1.344,0,1,0-.93,2.521l1.592.587v1.152A1.344,1.344,0,0,0,104.752,119.176Z" transform="translate(-82.853 -94.855)" fill="#12263f"/>
        <path id="Trazado_100649" data-name="Trazado 100649" d="M199.178,78.837l3.636,2.068a1.344,1.344,0,0,0,.94.147l4.927-1.034a1.344,1.344,0,1,0-.552-2.63l-4.429.929L200.507,76.5a1.344,1.344,0,1,0-1.329,2.336Z" transform="translate(-162.935 -64.35)" fill="#12263f"/>
        <path id="Trazado_100650" data-name="Trazado 100650" d="M337.072,100.136h5.343a1.344,1.344,0,1,0,0-2.687h-4.521l-2.347-4.6a1.344,1.344,0,1,0-2.394,1.222l2.721,5.328A1.345,1.345,0,0,0,337.072,100.136Z" transform="translate(-273.345 -77.315)" fill="#12263f"/>
        <path id="Trazado_100651" data-name="Trazado 100651" d="M255.033,116.76a1.344,1.344,0,0,0,1.7.844l4.452-1.5a1.344,1.344,0,1,0-.858-2.547l-4.452,1.5A1.344,1.344,0,0,0,255.033,116.76Z" transform="translate(-209.283 -94.854)" fill="#12263f"/>
      </g>
    </g>
  </g>
</svg>
