<svg xmlns="http://www.w3.org/2000/svg" width="45.346" height="50.915" viewBox="0 0 45.346 50.915">
  <g id="medico" transform="translate(-28.001)">
    <g id="Grupo_86859" data-name="Grupo 86859" transform="translate(33.795 11.321)">
      <path id="Trazado_126429" data-name="Trazado 126429" d="M91.876,116.674l-2.538-2.833H87.384a1.162,1.162,0,0,0-1.112,1.166l0,1.972c0,1.285,1.033,1.992,3.066,1.992Z" transform="translate(-86.269 -113.841)" fill="#e5c093" fill-rule="evenodd"/>
    </g>
    <g id="Grupo_86860" data-name="Grupo 86860" transform="translate(55.993 11.321)">
      <path id="Trazado_126430" data-name="Trazado 126430" d="M314.841,115.007a1.162,1.162,0,0,0-1.112-1.166h-1.954l-2.282,2.565,2.282,2.565c2.036,0,3.066-.707,3.066-1.992v-1.972Z" transform="translate(-309.492 -113.841)" fill="#e5c093" fill-rule="evenodd"/>
    </g>
    <g id="Grupo_86861" data-name="Grupo 86861" transform="translate(28.745 29.248)">
      <path id="Trazado_126431" data-name="Trazado 126431" d="M67.726,304.779a2.058,2.058,0,1,1-4.117,0A2.058,2.058,0,0,1,67.726,304.779Zm5.4,8.92c0-4.037.017-6.75,0-10.706-.113-2.231-4.635-6.2-8.056-7.68l-2.788-1.2H46.335l-3.773,1.623-3.213,1.38c-2.562,1.1-3.841,2.107-3.855,5.474-.017,4.175,0,6.934,0,11.109a1.31,1.31,0,0,0,1.267,1.335h35.1a1.31,1.31,0,0,0,1.267-1.335Z" transform="translate(-35.487 -294.112)" fill="#eceaed" fill-rule="evenodd"/>
    </g>
    <g id="Grupo_86862" data-name="Grupo 86862" transform="translate(42.642 33.006)">
      <path id="Trazado_126432" data-name="Trazado 126432" d="M177.093,338.13l2.01-.679v-2.742l-1.405-2.62-1.858-.183-.605,2.443Z" transform="translate(-175.235 -331.906)" fill="#b6b1b7" fill-rule="evenodd"/>
    </g>
    <g id="Grupo_86863" data-name="Grupo 86863" transform="translate(42.876 23.546)">
      <path id="Trazado_126433" data-name="Trazado 126433" d="M177.585,236.774v6.314l4.694,2.065,4.694-2.065v-6.314c0-.017-.084.051-.1.062A8.181,8.181,0,0,1,177.585,236.774Z" transform="translate(-177.585 -236.771)" fill="#f1d0a5" fill-rule="evenodd"/>
    </g>
    <g id="Grupo_86864" data-name="Grupo 86864" transform="translate(36.862 5.691)">
      <path id="Trazado_126434" data-name="Trazado 126434" d="M138.518,65.829c-6.426-10.058-11.15-12.808-21.414,0v2.155a6.74,6.74,0,0,0,.191,1.561,12.849,12.849,0,0,0,5.209,7.131c.025-.006.543.352.614.394a11.573,11.573,0,0,0,2.01.969,7.09,7.09,0,0,0,5.364,0,11.593,11.593,0,0,0,2.013-.969c.039-.025.448-.287.451-.287a12.892,12.892,0,0,0,5.372-7.238,6.889,6.889,0,0,0,.189-1.561V65.829Z" transform="translate(-117.104 -57.223)" fill="#ffe4c1" fill-rule="evenodd"/>
    </g>
    <g id="Grupo_86865" data-name="Grupo 86865" transform="translate(36.862 0.773)">
      <path id="Trazado_126435" data-name="Trazado 126435" d="M121.442,17.2a6.976,6.976,0,0,0,1.484.865c3.9,1.707,10.249,1.124,11.587-.879.557,1.919,2.05,4.1,4.007,4.1V16.931c0-5.79-4.35-8.849-8.836-9.162h-1.529a8.987,8.987,0,0,0-6.426,3.113c-3.233.487-4.615,3.561-4.618,6.049l0,1.386,0,2.975C120.431,21.177,120.687,19.157,121.442,17.2Z" transform="translate(-117.106 -7.769)" fill="#d19a6e" fill-rule="evenodd"/>
    </g>
    <g id="Grupo_86866" data-name="Grupo 86866" transform="translate(42.299 13.324)">
      <path id="Trazado_126436" data-name="Trazado 126436" d="M185.575,133.984a15.19,15.19,0,0,1-.189,3.5,13.032,13.032,0,0,1-7.836,8.494,7.049,7.049,0,0,1-5.361,0c-.138-.048-.273-.1-.408-.158.189.13.38.254.577.372a11.572,11.572,0,0,0,2.01.969,7.09,7.09,0,0,0,5.364,0,11.594,11.594,0,0,0,2.013-.969,13.015,13.015,0,0,0,5.823-7.525,6.888,6.888,0,0,0,.189-1.561v-2.155A3.192,3.192,0,0,1,185.575,133.984Z" transform="translate(-171.781 -133.984)" fill="#f1d0a5" fill-rule="evenodd"/>
    </g>
    <g id="Grupo_86867" data-name="Grupo 86867" transform="translate(52.56 1.46)">
      <path id="Trazado_126437" data-name="Trazado 126437" d="M280.677,23.157a8.685,8.685,0,0,0-5.716-8.475,8.664,8.664,0,0,1,3.534,7.291v4.575a3.2,3.2,0,0,0,2.182.969V23.157Z" transform="translate(-274.961 -14.682)" fill="#c38c66" fill-rule="evenodd"/>
    </g>
    <g id="Grupo_86868" data-name="Grupo 86868" transform="translate(48.629 33.006)">
      <path id="Trazado_126438" data-name="Trazado 126438" d="M237.441,338.13l1.858-3.781-.761-2.443-1.7.183-1.4,2.62.172,2.841Z" transform="translate(-235.433 -331.906)" fill="#b6b1b7" fill-rule="evenodd"/>
    </g>
    <g id="Grupo_86869" data-name="Grupo 86869" transform="translate(45.106 30.933)">
      <path id="Trazado_126439" data-name="Trazado 126439" d="M203.534,315.931l1.4-2.62.531-1.9-2.992-.359-2.464.565v1.692l1.4,2.62h2.117Z" transform="translate(-200.011 -311.054)" fill="#ffe07d" fill-rule="evenodd"/>
    </g>
    <g id="Grupo_86870" data-name="Grupo 86870" transform="translate(47.57 28.87)">
      <path id="Trazado_126440" data-name="Trazado 126440" d="M229.712,296.895l3.05-6.2-3.28-.377-4.694,2.062,2.461,2.257Z" transform="translate(-224.787 -290.316)" fill="#c3ddff" fill-rule="evenodd"/>
    </g>
    <g id="Grupo_86871" data-name="Grupo 86871" transform="translate(39.593 28.87)">
      <path id="Trazado_126441" data-name="Trazado 126441" d="M150.083,294.635l2.464-2.257-4.694-2.062-3.283.377,3.049,6.2Z" transform="translate(-144.57 -290.316)" fill="#c3ddff" fill-rule="evenodd"/>
    </g>
    <g id="Grupo_86872" data-name="Grupo 86872" transform="translate(56.868 37.855)">
      <path id="Trazado_126442" data-name="Trazado 126442" d="M320.342,384.783a2.059,2.059,0,1,0-2.058-2.06A2.058,2.058,0,0,0,320.342,384.783Z" transform="translate(-318.284 -380.664)" fill="#b6b1b7" fill-rule="evenodd"/>
    </g>
    <g id="Grupo_86873" data-name="Grupo 86873" transform="translate(44.501 34.838)">
      <path id="Trazado_126443" data-name="Trazado 126443" d="M200.059,354.722l-2.008-3.42-1.06-.971-1.057.971-2.01,3.42,3.069,6.238Z" transform="translate(-193.923 -350.331)" fill="#ffe07d" fill-rule="evenodd"/>
    </g>
    <g id="Grupo_86874" data-name="Grupo 86874" transform="translate(45.757 35.809)">
      <path id="Trazado_126444" data-name="Trazado 126444" d="M211.432,363.516l-2.008-3.42h-2.117l-.755,1.285h2.033l2.12,3.612Z" transform="translate(-206.552 -360.096)" fill="#ffd064" fill-rule="evenodd"/>
    </g>
    <g id="Grupo_86875" data-name="Grupo 86875" transform="translate(45.106 30.933)">
      <path id="Trazado_126445" data-name="Trazado 126445" d="M204.936,313.311l-1.729-1.583-.732-.673-.735.673-1.729,1.583.634,1.178,1.757-1.611,1.855,1.7Z" transform="translate(-200.011 -311.054)" fill="#ffd064" fill-rule="evenodd"/>
    </g>
    <g id="Grupo_86876" data-name="Grupo 86876" transform="translate(49.811 28.87)">
      <path id="Trazado_126446" data-name="Trazado 126446" d="M253.059,290.694l-3.28-.377-.862.377-.169.073-1.422.625,1.321.414L252,292.852Z" transform="translate(-247.326 -290.316)" fill="#9dc6fb" fill-rule="evenodd"/>
    </g>
    <g id="Grupo_86877" data-name="Grupo 86877" transform="translate(54.483 29.248)">
      <path id="Trazado_126447" data-name="Trazado 126447" d="M298.15,295.312l-2.788-1.2L294.3,296.27l2.647.826a7.758,7.758,0,0,1,1.8.775c0-.24-.017-.476-.039-.71A4.457,4.457,0,0,1,298.15,295.312Z" transform="translate(-294.301 -294.112)" fill="#dad8db" fill-rule="evenodd"/>
    </g>
    <g id="Grupo_86878" data-name="Grupo 86878" transform="translate(62.223 37.103)">
      <path id="Trazado_126448" data-name="Trazado 126448" d="M376.3,384.831c0-4.037.017-6.75,0-10.706l-.51.507c-.208.163-.313.254-.417.256s-.208-.093-.42-.256l-1.543-1.533c.006,3.727-.006,8.32-.006,11.731a1.313,1.313,0,0,1-1.27,1.335h2.895A1.31,1.31,0,0,0,376.3,384.831Z" transform="translate(-372.139 -373.1)" fill="#dad8db" fill-rule="evenodd"/>
    </g>
    <g id="Grupo_86879" data-name="Grupo 86879" transform="translate(42.876 25.537)">
      <path id="Trazado_126449" data-name="Trazado 126449" d="M180.466,258.045a10.7,10.7,0,0,1-1.346-.462,11.923,11.923,0,0,1-1.535-.783v1.727c4.181,2,6.673,1.169,7.324.876.22-.1.175,0,.175.256v1.3l.859-.377,1.031-.451V256.8a.714.714,0,0,0-.062.037.009.009,0,0,0-.006,0,11.221,11.221,0,0,1-1.946.93,7.863,7.863,0,0,1-2.681.527A7.036,7.036,0,0,1,180.466,258.045Z" transform="translate(-177.585 -256.8)" fill="#e5c093" fill-rule="evenodd"/>
    </g>
    <g id="Grupo_86880" data-name="Grupo 86880" transform="translate(58.32 26.057)">
      <path id="Trazado_126450" data-name="Trazado 126450" d="M345.289,269.8l.659-.654a4.466,4.466,0,0,0,0-6.136c-1.478-1.533-3.866-1.15-5.446.276-.293.262-.4.392-.473.392s-.183-.13-.473-.392c-1.58-1.426-3.97-1.809-5.449-.276a4.4,4.4,0,0,0-1.219,3c0,.135,0,.268.011.4a4.456,4.456,0,0,0,.555,1.848,4.36,4.36,0,0,0,.653.882l.662.654,4.84,4.8c.211.163.315.254.42.256s.208-.093.417-.256l.51-.507Z" transform="translate(-332.888 -262.024)" fill="#ff8086" fill-rule="evenodd"/>
    </g>
    <g id="Grupo_86881" data-name="Grupo 86881" transform="translate(63.417 26.058)">
      <path id="Trazado_126451" data-name="Trazado 126451" d="M392.107,263.017a3.407,3.407,0,0,0-3.522-.811c.042.039.084.082.127.124a4.466,4.466,0,0,1,0,6.136l-.659.654L384.144,273l.082.082,1.543,1.533c.211.163.315.254.42.256s.208-.093.417-.256l.51-.507,4.333-4.3.659-.654A4.466,4.466,0,0,0,392.107,263.017Z" transform="translate(-384.144 -262.033)" fill="#e5646e" fill-rule="evenodd"/>
    </g>
    <g id="Grupo_86882" data-name="Grupo 86882" transform="translate(28.001 0)">
      <path id="Trazado_126452" data-name="Trazado 126452" d="M177.428,162.781a.746.746,0,0,0,.746-.746v-.524a.746.746,0,1,0-1.492,0v.524A.746.746,0,0,0,177.428,162.781Z" transform="translate(-161.897 -144.778)"/>
      <path id="Trazado_126453" data-name="Trazado 126453" d="M261.327,162.767a.746.746,0,0,0,.746-.746v-.51a.746.746,0,1,0-1.492,0v.51A.746.746,0,0,0,261.327,162.767Z" transform="translate(-237.452 -144.778)"/>
      <path id="Trazado_126454" data-name="Trazado 126454" d="M207.36,214.2h.048a2.617,2.617,0,0,0,1.893-.84.746.746,0,1,0-1.076-1.033,1.129,1.129,0,0,1-.817.381h-.019a1.025,1.025,0,0,1-.748-.36.746.746,0,1,0-1.116.99A2.5,2.5,0,0,0,207.36,214.2Z" transform="translate(-187.702 -191.008)"/>
      <path id="Trazado_126455" data-name="Trazado 126455" d="M178.4,61.442a13.984,13.984,0,0,0,4.555-.8.746.746,0,1,0-.487-1.41,11.353,11.353,0,0,1-5.959.539,4.382,4.382,0,0,1-2.824-1.477.746.746,0,0,0-1.292.746C173.122,60.3,175.365,61.442,178.4,61.442Z" transform="translate(-157.945 -52.161)"/>
      <path id="Trazado_126456" data-name="Trazado 126456" d="M71.917,26.524c-1.87-1.939-4.715-1.336-6.456.216-1.743-1.554-4.588-2.155-6.458-.216a5.053,5.053,0,0,0-.983,1.462A8.894,8.894,0,0,0,54.308,25a13.178,13.178,0,0,0,4.505-6.815,8.116,8.116,0,0,0,.17-1.015c2.783-.246,3.1-1.944,3.1-2.707V12.487a1.911,1.911,0,0,0-1.858-1.912H59.022v-.64a9.47,9.47,0,0,0-6.49-9.28,11.656,11.656,0,0,0-6.3-.395A9.34,9.34,0,0,0,41.089,3.2c-3.406.673-4.964,3.926-4.967,6.736v.641H34.91a1.911,1.911,0,0,0-1.858,1.911l0,1.973c0,.763.321,2.461,3.1,2.707a7.864,7.864,0,0,0,.173,1.016A13.066,13.066,0,0,0,40.6,24.806a8.859,8.859,0,0,0-5.39,5.512l-2.9,1.247c-2.851,1.226-4.3,2.515-4.306,6.158L28,41.64a.746.746,0,0,0,.745.747h0a.746.746,0,0,0,.746-.745l.006-3.916c.005-3.014,1.041-3.774,3.4-4.79l1.913-.822a8.724,8.724,0,0,0-.059.994v2.314a4.135,4.135,0,0,0-3.272,4.38v2.122a.746.746,0,0,0,1.492,0V39.8c0-2.041,1.247-2.954,2.482-2.954a2.343,2.343,0,0,1,1.687.7,3.132,3.132,0,0,1,.8,2.252v2.122a.746.746,0,1,0,1.492,0V39.8a4.143,4.143,0,0,0-3.185-4.363V33.108a7.152,7.152,0,0,1,.206-1.7l2.782-1.2,2.729,5.549L46.9,45.8a.753.753,0,0,0,1.339,0L55.9,30.213l1.743.75a5.189,5.189,0,0,0,.511,1.547c.016.2.026.4.026.6v4.1a2.8,2.8,0,1,0,1.492,0V34.357l0,0,4.84,4.8a1.312,1.312,0,0,0,1.129.452c0,1.851,0,3.479,0,5.18,0,1.252,0,2.555,0,4.037a.57.57,0,0,1-.53.59H60.587V45.467a.746.746,0,1,0-1.492,0v3.956H36.042V45.467a.746.746,0,1,0-1.492,0v3.956h-4.52a.57.57,0,0,1-.53-.59c0-.662,0-1.2,0-1.7,0-.669,0-1.272,0-2.019a.746.746,0,0,0-.746-.744h0a.746.746,0,0,0-.744.747c0,.745,0,1.346,0,2.013,0,.5,0,1.038,0,1.7a2.054,2.054,0,0,0,2.021,2.081H65.109a2.054,2.054,0,0,0,2.021-2.081c0-1.481,0-2.783,0-4.034,0-2.053.007-4,0-6.361l1.735-1.723a.746.746,0,1,0-1.051-1.059L65.46,38l-4.734-4.7-.655-.647a3.74,3.74,0,0,1-.688-4.065,3.6,3.6,0,0,1,.694-1.029c1.229-1.274,3.191-.79,4.412.312.08.072.144.133.2.184a1.1,1.1,0,0,0,.775.4,1.08,1.08,0,0,0,.765-.392c.055-.052.122-.115.208-.192,1.221-1.1,3.181-1.585,4.409-.312a3.706,3.706,0,0,1,.005,5.095L70.2,33.3a.746.746,0,0,0,1.051,1.059l.659-.654.012-.012a5.21,5.21,0,0,0,0-7.172Zm-12.9-14.383v-.074H60.23a.423.423,0,0,1,.366.421v1.972c0,.271,0,1.027-1.575,1.207V12.141ZM36.116,14.3h0v1.371c-1.574-.18-1.575-.936-1.575-1.206l0-1.973a.423.423,0,0,1,.366-.421h1.208l0,2.228Zm1.5-4.36c0-2.27,1.25-4.9,3.983-5.312a.746.746,0,0,0,.468-.268c2.124-2.623,6.316-3.587,9.968-2.294a7.936,7.936,0,0,1,5.5,7.873V13.4a5.306,5.306,0,0,1-2.545-3.413.753.753,0,0,0-1.336-.206c-.589.881-2.786,1.519-5.341,1.551a14.057,14.057,0,0,1-4.478-.619c-2.355-.941-2.781-1.641-2.965-1.9a.746.746,0,0,0-1.219.859,5.047,5.047,0,0,0,.672.767l-.085.237c-.524,1.483-.892,2.522-2.624,2.8Zm.166,7.9a6.017,6.017,0,0,1-.171-1.388V14.985c2.707-.344,3.406-2.054,3.968-3.634a13.84,13.84,0,0,0,6.541,1.473h.21A11.3,11.3,0,0,0,53.957,11.5a5.763,5.763,0,0,0,3.573,3.458v1.5a6.165,6.165,0,0,1-.169,1.39A12.356,12.356,0,0,1,50,25.805a6.354,6.354,0,0,1-4.856,0A12.344,12.344,0,0,1,37.779,17.839Zm5.843,10.544v-1.6c.333.158.67.3,1.011.424a7.828,7.828,0,0,0,5.872,0c.342-.124.68-.267,1.013-.425v1.6L47.57,30.118ZM49.1,33.348l-.918,1.716H46.958l-.92-1.715,1.532-1.4Zm-9.811-4.781-2.037.876A7.388,7.388,0,0,1,42.1,25.93l.031.02v2.255l-2.618.3a1.512,1.512,0,0,0-.224.06Zm1.44,1.3,2.032-.234,3.462,1.521-3.35,3.071Zm2.829,5.753L44.9,34.389l.753,1.4-1.1,1.865Zm4.011,8.156L45.348,39.26l1.59-2.7H48.2l1.588,2.706Zm3.009-6.119-1.095-1.865.751-1.4,1.344,1.233Zm1.687-3.431-3.349-3.071,3.463-1.521,2.029.233Zm3.583-5.66a.749.749,0,0,0-.223-.06l-2.616-.3v-2.1a7.38,7.38,0,0,1,3.921,2.928Zm4.39,11.347A1.312,1.312,0,1,1,58.926,38.6,1.315,1.315,0,0,1,60.238,39.914Z" transform="translate(-28.001 0)"/>
    </g>
  </g>
</svg>
