<svg xmlns="http://www.w3.org/2000/svg" width="45.089" height="45.089" viewBox="0 0 45.089 45.089">
  <g id="transmitir" transform="translate(-1 -1)">
    <g id="Grupo_86904" data-name="Grupo 86904" transform="translate(1.727 3.182)">
      <g id="Grupo_86895" data-name="Grupo 86895" transform="translate(2.909 39.271)">
        <path id="Trazado_126545" data-name="Trazado 126545" d="M16.181,59.454v1.454H6V59.454A1.459,1.459,0,0,1,7.454,58h7.272A1.459,1.459,0,0,1,16.181,59.454Z" transform="translate(-6 -58)" fill="#b27946"/>
      </g>
      <g id="Grupo_86896" data-name="Grupo 86896" transform="translate(30.544 39.271)">
        <path id="Trazado_126546" data-name="Trazado 126546" d="M54.181,59.454v1.454H44V59.454A1.459,1.459,0,0,1,45.454,58h7.272A1.459,1.459,0,0,1,54.181,59.454Z" transform="translate(-44 -58)" fill="#b27946"/>
      </g>
      <g id="Grupo_86897" data-name="Grupo 86897" transform="translate(5.818 36.362)">
        <path id="Trazado_126547" data-name="Trazado 126547" d="M10,54h4.363v2.909H10Z" transform="translate(-10 -54)" fill="#cf9e76"/>
      </g>
      <g id="Grupo_86898" data-name="Grupo 86898" transform="translate(33.453 36.362)">
        <path id="Trazado_126548" data-name="Trazado 126548" d="M48,54h4.363v2.909H48Z" transform="translate(-48 -54)" fill="#cf9e76"/>
      </g>
      <g id="Grupo_86899" data-name="Grupo 86899" transform="translate(0 11.636)">
        <path id="Trazado_126549" data-name="Trazado 126549" d="M42.725,44.726H4.909A2.909,2.909,0,0,1,2,41.817V22.909A2.909,2.909,0,0,1,4.909,20H42.725a2.909,2.909,0,0,1,2.909,2.909V41.817A2.909,2.909,0,0,1,42.725,44.726Z" transform="translate(-2 -20)" fill="#ccd1d9"/>
      </g>
      <g id="Grupo_86900" data-name="Grupo 86900" transform="translate(2.909 14.545)">
        <path id="Trazado_126550" data-name="Trazado 126550" d="M43.089,42.908H6.727A.728.728,0,0,1,6,42.181V24.727A.728.728,0,0,1,6.727,24H43.089a.728.728,0,0,1,.727.727V42.181A.728.728,0,0,1,43.089,42.908Z" transform="translate(-6 -24)" fill="#69d6f4"/>
      </g>
      <g id="Grupo_86901" data-name="Grupo 86901" transform="translate(6.916 23.272)">
        <path id="Trazado_126551" data-name="Trazado 126551" d="M38.745,41.811a16.072,16.072,0,0,0-5.3-4.182,15.994,15.994,0,0,0-14.065,0,15.991,15.991,0,0,0-7.869,8.552h29.8a16.043,16.043,0,0,0-2.567-4.371Z" transform="translate(-11.51 -36)" fill="#4fc1e9"/>
      </g>
      <g id="Grupo_86902" data-name="Grupo 86902" transform="translate(22.544 1.454)">
        <path id="Trazado_126552" data-name="Trazado 126552" d="M34.454,8.909A1.459,1.459,0,0,1,33,7.454a1.274,1.274,0,0,1,.029-.291,1.455,1.455,0,0,1,2.88.291,1.466,1.466,0,0,1-1.454,1.454Z" transform="translate(-33 -6)" fill="#fc6e51"/>
      </g>
      <g id="Grupo_86903" data-name="Grupo 86903" transform="translate(18.181)">
        <path id="Trazado_126553" data-name="Trazado 126553" d="M29.182,4a2.179,2.179,0,0,1,2.182,2.182,2.1,2.1,0,0,1-.044.429A2.181,2.181,0,1,1,29.182,4Z" transform="translate(-27 -4)" fill="#ff826e"/>
      </g>
    </g>
    <g id="Grupo_86905" data-name="Grupo 86905" transform="translate(1 1)">
      <path id="Trazado_126554" data-name="Trazado 126554" d="M42.453,14.09H28.693l-1.25-6.67a2.158,2.158,0,0,0-.99-3.378V1H25V4.043a2.257,2.257,0,0,0-.268.117,2.912,2.912,0,0,0-1.914-1.6V1H21.363V2.558a2.889,2.889,0,0,0-1.644,4.479L18.4,14.09H4.636A3.64,3.64,0,0,0,1,17.727V36.635a3.64,3.64,0,0,0,3.636,3.636H6.818v1.454H6.091a2.184,2.184,0,0,0-2.182,2.182v2.182H15.545V43.907a2.184,2.184,0,0,0-2.182-2.182h-.727V40.271H34.453v1.454h-.727a2.184,2.184,0,0,0-2.182,2.182v2.182H43.18V43.907A2.184,2.184,0,0,0,41,41.725h-.727V40.271h2.182a3.64,3.64,0,0,0,3.636-3.636V17.727A3.64,3.64,0,0,0,42.453,14.09ZM22.09,8.272a2.888,2.888,0,0,0,1.974-.785,2.168,2.168,0,0,0,1.662.785,2.145,2.145,0,0,0,.389-.039l.28,1.494h-5.7l.313-1.668A2.89,2.89,0,0,0,22.09,8.272Zm3.636-2.909A.727.727,0,1,1,25,6.091.728.728,0,0,1,25.726,5.363Zm-5.5,22.18a12.188,12.188,0,0,0-2.057,4h-5.32A15.105,15.105,0,0,1,20.226,27.544Zm3.318-.363c1.462,0,2.862,1.7,3.822,4.363H19.723C20.683,28.885,22.082,27.181,23.544,27.181Zm3.318.363a15.114,15.114,0,0,1,7.377,4h-5.32A12.173,12.173,0,0,0,26.863,27.544Zm-3.318-1.817a16.812,16.812,0,0,0-6.062,1.125l.2-1.087,5.858-7.456L29.4,25.763l.2,1.087A16.828,16.828,0,0,0,23.544,25.726Zm.924-8.595,2.676-3.406,1.678,8.947Zm-4.048-5.95h6.247l.121.644-3.244,4.129L20.3,11.826Zm2.2,5.95-4.353,5.541,1.678-8.947ZM15.866,27.583a16.633,16.633,0,0,0-7.7,8.325h-2.8V18.454H17.577ZM11.544,33h6.211a25.544,25.544,0,0,0-.523,2.909H9.749A15.392,15.392,0,0,1,11.544,33Zm7.723,0h8.556a22.977,22.977,0,0,1,.57,2.909H18.7A22.977,22.977,0,0,1,19.266,33Zm10.592,2.909A25.543,25.543,0,0,0,29.335,33h6.211a15.392,15.392,0,0,1,1.794,2.909Zm9.066,0a16.63,16.63,0,0,0-7.7-8.325l-1.711-9.129H41.725V35.908Zm-16.834-32a1.454,1.454,0,1,1-1.454,1.454A1.456,1.456,0,0,1,22.09,3.909Zm-8,40v.727H5.363v-.727a.728.728,0,0,1,.727-.727h7.272A.728.728,0,0,1,14.09,43.907Zm-2.909-2.182H8.272V40.271h2.909Zm30.544,2.182v.727H33v-.727a.728.728,0,0,1,.727-.727H41A.728.728,0,0,1,41.725,43.907Zm-2.909-2.182H35.908V40.271h2.909Zm5.818-5.091a2.184,2.184,0,0,1-2.182,2.182H4.636a2.184,2.184,0,0,1-2.182-2.182V17.727a2.184,2.184,0,0,1,2.182-2.182H18.123L17.85,17H5.363a1.456,1.456,0,0,0-1.454,1.454V35.908a1.456,1.456,0,0,0,1.454,1.454H41.725a1.456,1.456,0,0,0,1.454-1.454V18.454A1.456,1.456,0,0,0,41.725,17H29.239l-.273-1.454H42.453a2.184,2.184,0,0,1,2.182,2.182Z" transform="translate(-1 -1)"/>
      <path id="Trazado_126555" data-name="Trazado 126555" d="M21.668,7.935a.727.727,0,0,1,0-1.028L20.639,5.878a2.182,2.182,0,0,0,0,3.086Z" transform="translate(-6.182 -2.331)"/>
      <path id="Trazado_126556" data-name="Trazado 126556" d="M18.52,9.221a3.641,3.641,0,0,1,0-5.142L17.492,3.05a5.1,5.1,0,0,0,0,7.2Z" transform="translate(-5.092 -1.559)"/>
      <path id="Trazado_126557" data-name="Trazado 126557" d="M42.735,8.964a2.182,2.182,0,0,0,0-3.086L41.707,6.907a.727.727,0,0,1,0,1.028Z" transform="translate(-12.103 -2.331)"/>
      <path id="Trazado_126558" data-name="Trazado 126558" d="M45.564,10.25a5.1,5.1,0,0,0,0-7.2L44.536,4.079a3.641,3.641,0,0,1,0,5.142Z" transform="translate(-12.875 -1.559)"/>
    </g>
  </g>
</svg>
