<svg xmlns="http://www.w3.org/2000/svg" width="47.5" height="47.5" viewBox="0 0 47.5 47.5">
  <g id="Socail_network" data-name="Socail network" transform="translate(-2 -2)">
    <path id="Trazado_126523" data-name="Trazado 126523" d="M39.417,12.5a9.612,9.612,0,0,0-1.187.079,12.65,12.65,0,0,0-24.542,0A9.612,9.612,0,0,0,12.5,12.5a9.5,9.5,0,1,0,0,19H39.417a9.5,9.5,0,0,0,0-19Z" transform="translate(-0.208 -0.209)" fill="#2488ff"/>
    <path id="Trazado_126524" data-name="Trazado 126524" d="M45.146,12.5a9.612,9.612,0,0,0-1.187.079A12.66,12.66,0,0,0,31.687,3c-.4,0-.8.022-1.187.059a12.667,12.667,0,0,1,11.083,9.521,9.612,9.612,0,0,1,1.187-.079,9.5,9.5,0,1,1,0,19h2.375a9.5,9.5,0,0,0,0-19Z" transform="translate(-5.938 -0.208)" fill="#006df0"/>
    <path id="Trazado_126525" data-name="Trazado 126525" d="M6.167,43a3.167,3.167,0,1,0,0,6.333h4.75V43Z" transform="translate(-0.208 -8.542)" fill="#ed1c24"/>
    <path id="Trazado_126526" data-name="Trazado 126526" d="M25.167,52.833V37H22V52.833Z" transform="translate(-4.167 -7.292)" fill="#808285"/>
    <path id="Trazado_126527" data-name="Trazado 126527" d="M13,48.083l7.125,4.75V37L17.75,38.583,13,41.75Z" transform="translate(-2.292 -7.292)" fill="#e6e7e8"/>
    <path id="Trazado_126528" data-name="Trazado 126528" d="M20,38.055V51.778l1.583,1.055V37Z" transform="translate(-3.75 -7.292)" fill="#d1d3d4"/>
    <path id="Trazado_126529" data-name="Trazado 126529" d="M9,57.333a1.583,1.583,0,0,0,3.167,0V51H9Z" transform="translate(-1.458 -10.208)" fill="#58595b"/>
    <path id="Trazado_126530" data-name="Trazado 126530" d="M28.375,46.375A2.375,2.375,0,0,0,26,44v4.75A2.375,2.375,0,0,0,28.375,46.375Z" transform="translate(-5 -8.75)" fill="#ed1c24"/>
    <path id="Trazado_126531" data-name="Trazado 126531" d="M25.75,16H21V27.083h4.75V16Z" transform="translate(-3.958 -2.917)" fill="#00479b"/>
    <path id="Trazado_126532" data-name="Trazado 126532" d="M39.667,17.146a1.187,1.187,0,0,0-1.187-1.187H34.917V13.583A1.583,1.583,0,0,0,33.333,12H31.75v1.583a3.167,3.167,0,0,1-3.167,3.167H27v7.917h1.583l1.583.792h8.312a1.187,1.187,0,0,0,0-2.375,1.187,1.187,0,0,0,0-2.375,1.187,1.187,0,0,0,0-2.375A1.187,1.187,0,0,0,39.667,17.146Z" transform="translate(-5.208 -2.083)" fill="#ffbcab"/>
    <path id="Trazado_126533" data-name="Trazado 126533" d="M48.833,33H36.167A3.167,3.167,0,0,0,33,36.167v7.917a3.167,3.167,0,0,0,3.167,3.167H37.75V52l4.75-4.75h6.333A3.167,3.167,0,0,0,52,44.083V36.167A3.167,3.167,0,0,0,48.833,33Z" transform="translate(-6.458 -6.458)" fill="#ffcd00"/>
    <path id="Trazado_126534" data-name="Trazado 126534" d="M48.833,33H36.167A3.167,3.167,0,0,0,33,36.167v7.917a3.167,3.167,0,0,0,3.167,3.167H37.75V52l4.75-4.75h6.333A3.167,3.167,0,0,0,52,44.083V36.167A3.167,3.167,0,0,0,48.833,33Z" transform="translate(-6.458 -6.458)" fill="#ffcd00"/>
    <path id="Trazado_126535" data-name="Trazado 126535" d="M39,54.167V55.75L43.75,51H42.167Z" transform="translate(-7.708 -10.208)" fill="#ebbf00"/>
    <path id="Trazado_126536" data-name="Trazado 126536" d="M52.583,33H51a3.167,3.167,0,0,1,3.167,3.167v7.917A3.167,3.167,0,0,1,51,47.25h1.583a3.167,3.167,0,0,0,3.167-3.167V36.167A3.167,3.167,0,0,0,52.583,33Z" transform="translate(-10.208 -6.458)" fill="#ebbf00"/>
    <g id="Grupo_86894" data-name="Grupo 86894" transform="translate(2 2)">
      <path id="Trazado_126537" data-name="Trazado 126537" d="M49.5,21.792A10.3,10.3,0,0,0,39.208,11.5c-.2,0-.4.008-.586.016a13.465,13.465,0,0,0-25.745,0c-.19-.008-.388-.016-.586-.016a10.292,10.292,0,0,0,0,20.583h.554l-2.375,1.583H5.958a3.958,3.958,0,0,0,0,7.917H6.75v5.542a2.375,2.375,0,1,0,4.75,0V42.272L17.4,46.2a.766.766,0,0,0,.435.135H21a.792.792,0,0,0,.792-.792V40.681a3.153,3.153,0,0,0,0-6.112V32.083H25.75v5.542a3.958,3.958,0,0,0,3.958,3.958H30.5v3.958a.781.781,0,0,0,.491.728.663.663,0,0,0,.3.063.8.8,0,0,0,.562-.23l4.512-4.52h6.009a3.958,3.958,0,0,0,3.958-3.958V29.708a4.67,4.67,0,0,0-.048-.467,10.246,10.246,0,0,0,3.214-7.45ZM9.917,47.125a.792.792,0,0,1-1.583,0V41.583H9.917Zm0-7.125H5.958a2.375,2.375,0,1,1,0-4.75H9.917Zm7.125,4.061-5.542-3.7V34.886l5.542-3.7Zm3.167.689H18.625V30.5h1.583Zm2.375-7.125a1.571,1.571,0,0,1-.792,1.37V36.255a1.571,1.571,0,0,1,.792,1.37Zm22.167,0A2.382,2.382,0,0,1,42.375,40H36.042a.818.818,0,0,0-.562.23l-3.4,3.4V40.792A.792.792,0,0,0,31.292,40H29.708a2.382,2.382,0,0,1-2.375-2.375V29.708a2.382,2.382,0,0,1,2.375-2.375H42.375a2.382,2.382,0,0,1,2.375,2.375ZM42.375,25.75H29.708a3.958,3.958,0,0,0-3.958,3.958V30.5H21.792v-.792A.792.792,0,0,0,21,28.917H17.833a.766.766,0,0,0-.435.135L15.221,30.5H12.292a8.708,8.708,0,1,1,0-17.417,9.594,9.594,0,0,1,1.077.063.792.792,0,0,0,.863-.594,11.881,11.881,0,0,1,23.037,0,.792.792,0,0,0,.863.594,9.594,9.594,0,0,1,1.077-.063,8.7,8.7,0,0,1,6.492,14.5,3.942,3.942,0,0,0-3.325-1.837Z" transform="translate(-2 -2)" fill="#231f20"/>
      <path id="Trazado_126538" data-name="Trazado 126538" d="M38.6,18.125a1.979,1.979,0,0,0-1.583-3.167H34.25V13.375A2.382,2.382,0,0,0,31.875,11H30.292a.792.792,0,0,0-.792.792v1.583a2.382,2.382,0,0,1-2.375,2.375h-.792v-.792a.792.792,0,0,0-.792-.792h-4.75a.792.792,0,0,0-.792.792V26.042a.792.792,0,0,0,.792.792h4.75a.792.792,0,0,0,.792-.792V25.25h.6l1.417.7a.792.792,0,0,0,.356.087h8.312A1.979,1.979,0,0,0,38.6,22.875a1.979,1.979,0,0,0,0-2.375A1.979,1.979,0,0,0,38.6,18.125ZM24.75,25.25H21.583v-9.5H24.75Zm12.271-6.333a.4.4,0,0,1,0,.792.792.792,0,0,0,0,1.583.4.4,0,0,1,0,.792.792.792,0,0,0,0,1.583.4.4,0,0,1,0,.792H28.9l-1.417-.7a.792.792,0,0,0-.356-.087h-.792V17.333h.792a3.958,3.958,0,0,0,3.958-3.958v-.792h.792a.792.792,0,0,1,.792.792V15.75a.792.792,0,0,0,.792.792h3.562a.4.4,0,1,1,0,.792.792.792,0,0,0,0,1.583Z" transform="translate(-5.75 -3.875)" fill="#231f20"/>
      <path id="Trazado_126539" data-name="Trazado 126539" d="M37.583,37h-.792a.792.792,0,0,0,0,1.583h.792a.792.792,0,1,0,0-1.583Z" transform="translate(-9.083 -9.292)" fill="#231f20"/>
      <path id="Trazado_126540" data-name="Trazado 126540" d="M37.583,41h-.792a.792.792,0,0,0,0,1.583h.792a.792.792,0,1,0,0-1.583Z" transform="translate(-9.083 -10.125)" fill="#231f20"/>
      <path id="Trazado_126541" data-name="Trazado 126541" d="M37.583,45h-.792a.792.792,0,0,0,0,1.583h.792a.792.792,0,1,0,0-1.583Z" transform="translate(-9.083 -10.959)" fill="#231f20"/>
      <path id="Trazado_126542" data-name="Trazado 126542" d="M50.5,37H41.792a.792.792,0,0,0,0,1.583H50.5A.792.792,0,0,0,50.5,37Z" transform="translate(-10.125 -9.292)" fill="#231f20"/>
      <path id="Trazado_126543" data-name="Trazado 126543" d="M50.5,41H41.792a.792.792,0,0,0,0,1.583H50.5A.792.792,0,0,0,50.5,41Z" transform="translate(-10.125 -10.125)" fill="#231f20"/>
      <path id="Trazado_126544" data-name="Trazado 126544" d="M50.5,45H41.792a.792.792,0,0,0,0,1.583H50.5A.792.792,0,0,0,50.5,45Z" transform="translate(-10.125 -10.959)" fill="#231f20"/>
    </g>
  </g>
</svg>
