<?xml version="1.0" encoding="UTF-8" standalone="no"?><!DOCTYPE svg PUBLIC "-//W3C//DTD SVG 1.1//EN" "http://www.w3.org/Graphics/SVG/1.1/DTD/svg11.dtd"><svg width="100%" height="100%" viewBox="0 0 90 90" version="1.1" xmlns="http://www.w3.org/2000/svg" xmlns:xlink="http://www.w3.org/1999/xlink" xml:space="preserve" xmlns:serif="http://www.serif.com/" style="fill-rule:evenodd;clip-rule:evenodd;stroke-linejoin:round;stroke-miterlimit:2;"><g id="bolsa-de-plastico"></g><rect id="Mesa-de-trabajo1" serif:id="Mesa de trabajo1" x="0" y="0" width="90" height="90" style="fill:none;"/><g><g id="Grupo_81945"><path id="Trazado_116248" d="M75.915,77.037c0.014,0.219 0.021,0.439 0.021,0.658c-0,5.785 -4.76,10.546 -10.545,10.547l-40.781,0c-5.786,-0 -10.547,-4.761 -10.547,-10.547c0,-0.219 0.007,-0.438 0.021,-0.656l4.549,-75.281l10.547,-0l-0,22.148l31.641,0l-0,-22.148l10.546,-0l4.548,75.279Z" style="fill:#eefaff;fill-rule:nonzero;"/><ellipse id="Elipse_4128" cx="45" cy="55.898" rx="15.386" ry="16.027" style="fill:#b3f1ff;"/><g id="Grupo_81944"><rect id="Trazado_116249" x="29.181" y="13.359" width="31.641" height="10.547" style="fill:#d8ec84;fill-rule:nonzero;"/><path id="Trazado_116250" d="M59.777,49.882c2.257,5.902 0.775,12.614 -3.757,17.016c0.052,-2.037 -0.106,-4.073 -0.471,-6.078c-1.059,-4.481 -7.44,-7.044 -5.274,-10.547c1.692,-2.738 7.187,-1.191 9.502,-0.391Z" style="fill:#d8ec84;fill-rule:nonzero;"/><path id="Trazado_116251" d="M41.815,44.121c1.174,2.838 -3.826,5.115 -3.516,7.031c0.311,1.917 3.205,1.599 3.516,3.516c0.311,1.917 -3.516,7.031 -3.516,7.031c0,0 -4.611,-5.781 -9.047,-7.671c0.433,-4.524 2.799,-8.649 6.485,-11.308c2.602,0.144 5.393,-0.246 6.078,1.401Z" style="fill:#d8ec84;fill-rule:nonzero;"/></g></g><g id="Grupo_81946"><path id="Trazado_116252" d="M62.58,55.547c-0,-9.643 -7.935,-17.578 -17.578,-17.578c-9.643,-0 -17.578,7.935 -17.578,17.578c-0,9.643 7.935,17.578 17.578,17.578c9.643,-0 17.578,-7.935 17.578,-17.578Zm-4.177,-4.265c1.121,3.531 0.806,7.366 -0.876,10.668c-0.063,-0.516 -0.152,-1.027 -0.268,-1.533c-0.694,-2.188 -1.942,-4.159 -3.623,-5.721c-1.955,-2.137 -2.303,-2.791 -1.866,-3.499c0.62,-1.005 3.292,-0.956 6.632,0.085l0.001,-0Zm-22.102,-6.781c0.349,0.01 0.695,0.017 1.031,0.021c0.967,-0.059 1.937,0.042 2.87,0.301c0.183,0.538 -0.606,1.436 -1.576,2.465c-1.094,1.16 -2.333,2.475 -2.062,4.146c0.32,1.412 1.344,2.565 2.709,3.05c0.283,0.126 0.551,0.282 0.801,0.465c-0.42,1.397 -1.073,2.712 -1.931,3.891c-2.022,-2.279 -4.373,-4.242 -6.976,-5.826c0.617,-3.367 2.443,-6.396 5.133,-8.513l0.001,-0Zm8.701,25.108c-7.133,-0.009 -13.189,-5.435 -13.977,-12.524c2.181,1.67 4.163,3.586 5.906,5.71c0.333,0.417 0.84,0.661 1.374,0.661c0.554,0 1.076,-0.262 1.408,-0.705c0.041,-0.055 1.019,-1.365 1.968,-2.94c1.923,-3.181 2.011,-4.569 1.872,-5.426c-0.321,-1.411 -1.345,-2.563 -2.708,-3.048c-0.251,-0.118 -0.494,-0.253 -0.727,-0.403c0.326,-0.437 0.684,-0.85 1.068,-1.237c1.341,-1.422 3.364,-3.569 2.25,-6.251c-0.276,-0.691 -0.776,-1.271 -1.42,-1.645c5.386,-1.166 10.981,0.938 14.265,5.362c-2.898,-0.468 -6.002,-0.251 -7.505,2.185c-0.875,1.368 -0.94,3.109 -0.169,4.538c0.66,1.167 1.479,2.238 2.432,3.181c1.251,1.141 2.21,2.567 2.795,4.155c0.309,1.619 0.45,3.265 0.422,4.913c-2.558,2.246 -5.85,3.482 -9.254,3.474Z" style="fill:#12263f;fill-rule:nonzero;"/><ellipse id="Elipse_4129" cx="45" cy="87.952" rx="1.282" ry="1.924" style="fill:#12263f;"/><path id="Trazado_116253" d="M71.367,0l-10.546,0c-0.965,0 -1.758,0.794 -1.758,1.758l-0,9.844l-28.125,-0l-0,-9.844c-0,-0.964 -0.794,-1.758 -1.758,-1.758l-10.547,0c-0.925,-0 -1.699,0.729 -1.755,1.652l-4.549,75.27c-0.017,0.26 -0.025,0.521 -0.025,0.782c-0,6.745 5.551,12.296 12.296,12.296c0.003,-0 0.006,-0 0.01,-0l12.48,-0c0.964,-0 1.758,-0.794 1.758,-1.758c-0,-0.964 -0.794,-1.758 -1.758,-1.758l-12.48,0c-0.003,0 -0.006,0 -0.008,0c-4.817,0 -8.781,-3.963 -8.781,-8.78c-0,-0.187 0.006,-0.374 0.018,-0.56l4.449,-73.628l7.134,-0l0,20.39c0,0.965 0.794,1.758 1.758,1.758l31.641,0c0.964,0 1.757,-0.793 1.757,-1.758l0,-20.39l7.134,-0l4.45,73.631c0.011,0.185 0.017,0.37 0.017,0.555c0,4.818 -3.964,8.782 -8.782,8.782c-0.002,0 -0.004,0 -0.006,0l-12.481,0c-0.964,0 -1.757,0.794 -1.757,1.758c-0,0.964 0.793,1.758 1.757,1.758l12.481,-0c0.004,-0 0.008,-0 0.012,-0c6.744,-0 12.293,-5.549 12.293,-12.293c0,-0.259 -0.008,-0.517 -0.024,-0.775l-4.551,-75.28c-0.055,-0.922 -0.829,-1.651 -1.754,-1.652Zm-12.304,22.148l-28.125,0l-0,-7.031l28.125,0l-0,7.031Z" style="fill:#12263f;fill-rule:nonzero;"/></g></g></svg>