<?xml version="1.0" encoding="UTF-8" standalone="no"?><!DOCTYPE svg PUBLIC "-//W3C//DTD SVG 1.1//EN" "http://www.w3.org/Graphics/SVG/1.1/DTD/svg11.dtd"><svg width="100%" height="100%" viewBox="0 0 90 90" version="1.1" xmlns="http://www.w3.org/2000/svg" xmlns:xlink="http://www.w3.org/1999/xlink" xml:space="preserve" xmlns:serif="http://www.serif.com/" style="fill-rule:evenodd;clip-rule:evenodd;stroke-linejoin:round;stroke-miterlimit:2;"><rect id="Mesa-de-trabajo1" serif:id="Mesa de trabajo1" x="0" y="0" width="90" height="90" style="fill:none;"/><g id="lata-de-refresco"><g id="Grupo_81912"><path id="Trazado_116199" d="M59.356,6.776l-8.169,-0l-0,-2.653c0,-1.538 1.266,-2.803 2.805,-2.803l2.559,-0c1.539,-0 2.805,1.266 2.805,2.805l-0,2.652l-0,-0.001Z" style="fill:#cbc4cc;fill-rule:nonzero;"/></g><g id="Grupo_81913"><path id="Trazado_116200" d="M59.354,4.123l0,2.653l-3.41,-0l-0,-2.653c0.003,-1.38 -1.014,-2.568 -2.379,-2.778c0.141,-0.021 0.283,-0.032 0.425,-0.032l2.561,-0c1.538,-0 2.803,1.266 2.803,2.804c0,0.002 0,0.004 0,0.006Z" style="fill:#b5adb6;fill-rule:nonzero;"/></g><g id="Grupo_81914"><path id="Trazado_116201" d="M62.203,14.118l-34.404,0l-3.767,8.743l0,57.078l3.37,7.821c0.241,0.557 0.792,0.92 1.399,0.922l32.4,-0c0.607,-0.002 1.158,-0.365 1.399,-0.922l3.369,-7.821l-0,-57.079l-3.766,-8.742Z" style="fill:#cbc4cc;fill-rule:nonzero;"/></g><g id="Grupo_81915"><path id="Trazado_116202" d="M65.968,22.86l-0,57.079l-3.368,7.821c-0.242,0.557 -0.793,0.92 -1.401,0.92l-3.517,0c0.607,-0 1.158,-0.363 1.4,-0.92l3.368,-7.821l-0,-57.079l-3.767,-8.743l3.525,-0l3.76,8.743Z" style="fill:#b5adb6;fill-rule:nonzero;"/></g><g id="Grupo_81916"><path id="Trazado_116203" d="M63.454,14.118l-36.91,0c-2.014,0 -3.671,-1.657 -3.671,-3.671c0,-2.014 1.657,-3.671 3.671,-3.671l36.909,-0c2.014,-0 3.671,1.657 3.671,3.671c0,2.014 -1.657,3.671 -3.671,3.671c-0,0 0.001,0 0.001,0Z" style="fill:#f3f0f3;fill-rule:nonzero;"/></g><g id="Grupo_81917"><path id="Trazado_116204" d="M67.125,10.446c-0,0.001 -0,0.001 -0,0.002c-0,2.013 -1.656,3.669 -3.669,3.669l-3.519,-0c2.013,-0 3.67,-1.657 3.67,-3.671c0,-2.013 -1.657,-3.67 -3.67,-3.67c-0,-0 3.517,-0 3.517,-0c2.014,-0 3.671,1.657 3.671,3.67Z" style="fill:#e2dee2;fill-rule:nonzero;"/></g><g id="Grupo_81918"><rect id="Trazado_116205" x="24.032" y="22.86" width="41.937" height="57.077" style="fill:#e94444;fill-rule:nonzero;"/></g><g id="Grupo_81919"><rect id="Trazado_116206" x="62.45" y="22.86" width="3.518" height="57.077" style="fill:#d83131;fill-rule:nonzero;"/></g><g id="Grupo_81920"><path id="Trazado_116207" d="M29.925,79.925c6.583,-2.314 10.126,-9.83 10.908,-16.928c0.783,-7.098 -0.469,-14.286 0.013,-21.413c0.447,-6.581 2.37,-12.978 5.625,-18.714l13.606,-0c-3.255,5.736 -5.178,12.133 -5.625,18.714c-0.548,8.106 -0.03,16.201 -0.68,24.313c-0.453,5.651 -2.389,11.987 -8.197,14.032l-15.65,-0.004Z" style="fill:#f3f0f3;fill-rule:nonzero;"/></g><g id="Grupo_81921"><path id="Trazado_116208" d="M60.075,22.871c-3.254,5.737 -5.177,12.133 -5.625,18.714c-0.547,8.107 -0.03,16.201 -0.681,24.313c-0.451,5.653 -2.388,11.989 -8.197,14.032l-4.665,0c5.812,-2.041 9.003,-8.376 9.456,-14.032c0.649,-8.111 0.132,-16.205 0.679,-24.313c0.449,-6.581 2.372,-12.977 5.625,-18.714l3.408,-0Z" style="fill:#e2dee2;fill-rule:nonzero;"/></g><path id="Trazado_116209" d="M64.184,15.384c2.435,-0.362 4.257,-2.474 4.257,-4.936c-0,-2.736 -2.251,-4.989 -4.987,-4.991l-2.778,0l-0,-1.334c-0.003,-2.261 -1.864,-4.121 -4.125,-4.123l-2.555,0c-2.261,0.002 -4.121,1.862 -4.124,4.123l0,1.334l-14.758,0c-0.724,0 -1.32,0.596 -1.32,1.32c-0,0.724 0.596,1.32 1.32,1.32l28.342,-0c1.29,-0 2.352,1.062 2.352,2.352c-0,1.29 -1.062,2.352 -2.352,2.352l-36.91,0c-1.291,0 -2.352,-1.062 -2.352,-2.352c-0,-1.29 1.061,-2.352 2.352,-2.352l2.395,-0c0.724,-0 1.32,-0.596 1.32,-1.32c-0,-0.724 -0.596,-1.32 -1.32,-1.32l-2.395,0c-2.736,0.002 -4.987,2.255 -4.987,4.991c0,2.462 1.822,4.574 4.257,4.936l-2.995,6.955c-0.072,0.165 -0.108,0.343 -0.108,0.522l-0,57.078c-0,0.179 0.036,0.357 0.108,0.522l3.369,7.822c0.448,1.041 1.478,1.718 2.611,1.717l32.4,-0c1.133,0.001 2.163,-0.677 2.61,-1.719l3.369,-7.82c0.072,-0.165 0.109,-0.343 0.109,-0.522l-0,-57.078c-0,-0.179 -0.037,-0.357 -0.109,-0.522l-2.996,-6.955Zm-6.148,-9.927l-5.53,0l0,-1.334c0.002,-0.814 0.673,-1.483 1.487,-1.483c0.001,-0 0.002,-0 0.003,-0l2.559,-0c0.814,0 1.484,0.67 1.485,1.485l-0.004,1.332Zm-29.37,9.981l32.668,0l2.63,6.105l-37.928,-0l2.63,-6.105Zm-3.315,8.736l18.92,0c-2.72,5.399 -4.334,11.287 -4.748,17.318c-0.163,3.333 -0.14,6.673 0.068,10.003c0.264,3.779 0.239,7.573 -0.075,11.348c-0.35,3.421 -1.407,6.733 -3.103,9.725c-1.491,2.731 -3.883,4.864 -6.766,6.033l-4.307,-0l0.011,-54.427Zm36.036,63.064c-0.032,0.075 -0.106,0.124 -0.188,0.124l-32.398,-0c-0.082,-0 -0.156,-0.049 -0.188,-0.124l-2.576,-5.974l37.929,-0l-2.579,5.974Zm3.262,-8.614l-14.507,0c2.618,-2.793 4.254,-6.366 4.657,-10.174c0.007,-0.054 0.01,-0.109 0.01,-0.163c0,-0.725 -0.596,-1.32 -1.32,-1.32c-0.631,-0 -1.179,0.453 -1.297,1.073c-0.884,5.633 -3.195,9.187 -6.856,10.572l-10.536,-0c1.55,-1.33 2.865,-2.911 3.89,-4.678c1.896,-3.312 3.074,-6.988 3.455,-10.785c0.331,-3.91 0.36,-7.84 0.087,-11.754c-0.202,-3.235 -0.226,-6.478 -0.07,-9.715c0.418,-6.126 2.152,-12.09 5.083,-17.485l10.626,-0c-2.715,5.396 -4.325,11.28 -4.738,17.307c-0.264,3.908 -0.278,7.859 -0.301,11.678c-0.014,2.893 -0.028,5.883 -0.15,8.814c-0.001,0.018 -0.002,0.037 -0.002,0.055c0,0.725 0.597,1.321 1.321,1.321c0.704,0 1.291,-0.563 1.32,-1.266c0.124,-2.979 0.139,-5.995 0.153,-8.911c0.018,-3.779 0.038,-7.689 0.296,-11.513c0.417,-6.134 2.154,-12.105 5.092,-17.506l3.787,0l0,54.45Z" style="fill:#12263f;fill-rule:nonzero;"/></g></svg>