<?xml version="1.0" encoding="UTF-8" standalone="no"?><!DOCTYPE svg PUBLIC "-//W3C//DTD SVG 1.1//EN" "http://www.w3.org/Graphics/SVG/1.1/DTD/svg11.dtd"><svg width="100%" height="100%" viewBox="0 0 90 90" version="1.1" xmlns="http://www.w3.org/2000/svg" xmlns:xlink="http://www.w3.org/1999/xlink" xml:space="preserve" xmlns:serif="http://www.serif.com/" style="fill-rule:evenodd;clip-rule:evenodd;stroke-linejoin:round;stroke-miterlimit:2;"><g id="sack"></g><rect id="Mesa-de-trabajo1" serif:id="Mesa de trabajo1" x="0" y="0" width="90" height="90" style="fill:none;"/><clipPath id="_clip1"><rect x="0" y="0" width="90" height="90"/></clipPath><g clip-path="url(#_clip1)"><g><g id="Grupo_81922"><path id="Trazado_116210" d="M72.66,18.043l-16.42,-13.034c-6.56,-5.207 -15.92,-5.207 -22.48,-0l-16.42,13.034l55.321,-0l-0.001,-0Z" style="fill:#986b54;fill-rule:nonzero;"/></g><g id="Grupo_81923"><path id="Trazado_116211" d="M56.24,5.009c-4.29,-3.41 -9.908,-4.687 -15.25,-3.466c2.64,0.599 5.112,1.784 7.233,3.466l16.42,13.034l8.017,-0l-16.42,-13.034Z" style="fill:#845c47;fill-rule:nonzero;"/></g><g id="Grupo_81924"><path id="Trazado_116212" d="M82.856,81.827c-1.766,-2.381 -2.83,-5.21 -3.072,-8.164l-3.379,-41.343l-62.814,-0l-3.377,41.343c-0.243,2.954 -1.307,5.783 -3.072,8.164c-0.565,0.763 -0.871,1.687 -0.871,2.636c0,2.429 1.999,4.428 4.428,4.428l68.598,-0c2.429,-0 4.428,-1.999 4.428,-4.428c-0,-0.949 -0.306,-1.873 -0.871,-2.636l0.002,0Z" style="fill:#d8aa8b;fill-rule:nonzero;"/></g><g id="Grupo_81925"><path id="Trazado_116213" d="M82.856,81.827c-1.766,-2.381 -2.83,-5.21 -3.072,-8.164l-3.379,-41.343l-62.815,-0l-0.408,4.997l55.341,-0c1.849,-0 3.407,1.436 3.558,3.278l2.701,33.068c0.243,2.954 1.307,5.783 3.072,8.164c0.565,0.763 0.87,1.687 0.87,2.636c0,2.429 -1.998,4.428 -4.427,4.428c-0,-0 -0,-0 -0.001,-0l5.004,-0c2.429,-0 4.427,-1.999 4.427,-4.428c0,-0.949 -0.305,-1.873 -0.87,-2.636l-0.001,0Z" style="fill:#ce9875;fill-rule:nonzero;"/></g><g id="Grupo_81926"><path id="Trazado_116214" d="M76.408,32.32l-62.817,-0c-1.958,-0 -3.569,-1.611 -3.569,-3.569l0,-7.138c0,-1.958 1.611,-3.569 3.569,-3.569l62.817,0c1.957,0 3.569,1.611 3.569,3.569l-0,7.138c-0,1.958 -1.612,3.569 -3.569,3.569Z" style="fill:#d8aa8b;fill-rule:nonzero;"/></g><g id="Grupo_81927"><path id="Trazado_116215" d="M76.408,18.043l-4.468,-0c1.957,-0 3.568,1.611 3.568,3.569l0,7.137c0,1.958 -1.611,3.569 -3.568,3.569l4.468,0c1.957,0 3.569,-1.611 3.569,-3.569l-0,-7.137c-0,-1.958 -1.612,-3.569 -3.569,-3.569Z" style="fill:#ce9875;fill-rule:nonzero;"/></g><g id="Grupo_81932"><g id="Grupo_81928"><circle id="Elipse_4126" cx="44.999" cy="62.122" r="17.846" style="fill:#f4fbff;"/></g><g id="Grupo_81931"><g id="Grupo_81929"><path id="Elipse_4127" d="M38.932,56.062c4.457,-4.458 10.79,-5.362 14.133,-2.019c3.343,3.343 2.439,9.676 -2.019,14.133c-4.457,4.457 -10.79,5.362 -14.133,2.019c-3.343,-3.343 -2.438,-9.676 2.019,-14.133Z" style="fill:#986b54;"/></g><g id="Grupo_81930"><path id="Trazado_116216" d="M54.662,56.605c-0.53,2.737 -1.887,5.246 -3.887,7.188c-4.46,4.46 -10.788,5.364 -14.133,2.019c-0.717,-0.721 -1.26,-1.597 -1.588,-2.559c-0.555,2.479 0.144,5.079 1.869,6.945c3.351,3.351 9.673,2.44 14.133,-2.019c3.488,-3.49 4.801,-8.121 3.606,-11.574Z" style="fill:#845c47;fill-rule:nonzero;"/></g></g></g><g id="Grupo_81933"><path id="Trazado_116217" d="M84.759,82.659c-0.191,-0.582 -0.474,-1.13 -0.838,-1.622c-1.617,-2.183 -2.592,-4.775 -2.812,-7.483l-0.222,-2.717c-0.039,-0.698 -0.624,-1.252 -1.323,-1.252c-0.727,0 -1.325,0.599 -1.325,1.325c-0,0.048 0.002,0.096 0.008,0.143l0.222,2.718c0.26,3.2 1.412,6.264 3.324,8.844c0.197,0.266 0.351,0.563 0.454,0.878c0.104,0.312 0.157,0.64 0.156,0.969c-0.002,1.701 -1.402,3.101 -3.104,3.102l-68.597,0c-1.702,0 -3.102,-1.4 -3.102,-3.102c-0,-0.665 0.213,-1.312 0.608,-1.846c1.912,-2.58 3.064,-5.644 3.325,-8.844l1.184,-14.479c0.005,-0.048 0.008,-0.095 0.008,-0.143c-0,-0.727 -0.598,-1.325 -1.325,-1.325c-0.7,-0 -1.285,0.553 -1.323,1.251l-1.184,14.48c-0.221,2.707 -1.196,5.3 -2.814,7.482c-0.733,0.991 -1.13,2.191 -1.13,3.424c0,3.156 2.597,5.752 5.753,5.752l68.595,0c3.154,-0.003 5.75,-2.597 5.754,-5.752c-0,-0.613 -0.099,-1.222 -0.292,-1.803Z" style="fill:#12263f;fill-rule:nonzero;"/><path id="Trazado_116218" d="M12.174,33.434l-1.595,19.481c-0.003,0.035 -0.004,0.071 -0.004,0.107c-0,0.727 0.598,1.325 1.325,1.325c0.687,0 1.265,-0.533 1.321,-1.217l1.592,-19.487l60.374,0l2.553,31.249c0.055,0.683 0.633,1.217 1.319,1.217l0.109,0c0.684,-0.055 1.218,-0.634 1.218,-1.32c-0,-0.036 -0.002,-0.072 -0.005,-0.108l-2.552,-31.243c2.056,-0.626 3.471,-2.534 3.474,-4.683l-0,-7.143c-0.007,-2.679 -2.209,-4.88 -4.887,-4.887l-3.292,-0l-16.057,-12.748c-7.042,-5.589 -17.089,-5.589 -24.131,-0l-16.057,12.748l-3.288,-0c-2.678,0.007 -4.88,2.208 -4.887,4.887l0,7.139c0.002,2.148 1.416,4.055 3.47,4.683Zm-0.824,-11.821c0.002,-1.23 1.014,-2.242 2.244,-2.244l43.54,0c0.727,0 1.326,-0.598 1.326,-1.326c0,-0.728 -0.599,-1.327 -1.326,-1.327l-35.996,0l13.445,-10.668c6.079,-4.827 14.755,-4.827 20.835,-0l13.444,10.671l-5.542,0c-0.727,0 -1.326,0.599 -1.326,1.327c0,0.727 0.599,1.326 1.326,1.326l13.082,0c1.23,0.002 2.242,1.014 2.244,2.244l-0,7.135c-0.002,1.23 -1.014,2.242 -2.244,2.244l-62.811,-0c-1.23,-0.002 -2.242,-1.014 -2.244,-2.244l0.003,-7.138Z" style="fill:#12263f;fill-rule:nonzero;"/><path id="Trazado_116219" d="M25.828,62.122c-0,10.516 8.654,19.17 19.171,19.17c10.516,0 19.17,-8.654 19.17,-19.17c0,-10.517 -8.654,-19.171 -19.17,-19.171c-10.512,0.012 -19.159,8.658 -19.171,19.171Zm35.691,-0c0,9.063 -7.457,16.52 -16.52,16.52c-9.063,0 -16.521,-7.457 -16.521,-16.52c0,-9.063 7.458,-16.521 16.521,-16.521c9.059,0.01 16.51,7.461 16.52,16.521Z" style="fill:#12263f;fill-rule:nonzero;"/><path id="Trazado_116220" d="M35.987,71.134c1.652,1.592 3.876,2.454 6.169,2.391c3.728,-0.129 7.261,-1.712 9.838,-4.41c4.969,-4.969 5.875,-12.147 2.019,-16.006c-3.857,-3.86 -11.031,-2.951 -16.007,2.019c-4.976,4.969 -5.874,12.15 -2.019,16.006Zm11.841,-17.795c1.599,-0.054 3.154,0.539 4.311,1.643c2.823,2.824 1.917,8.324 -2.019,12.26c-3.936,3.936 -9.436,4.842 -12.259,2.019c-2.823,-2.824 -1.917,-8.323 2.019,-12.26c2.074,-2.204 4.925,-3.518 7.948,-3.665l-0,0.003Z" style="fill:#12263f;fill-rule:nonzero;"/><path id="Trazado_116221" d="M40.586,67.355c0.352,0 0.689,-0.14 0.937,-0.388c0.12,-0.132 0.285,-0.214 0.463,-0.229c1.317,-0.284 2.352,-1.319 2.636,-2.637c0.047,-0.363 0.335,-0.651 0.698,-0.698c1.318,-0.284 2.352,-1.318 2.636,-2.636c0.048,-0.362 0.335,-0.65 0.698,-0.698c0.65,-0.13 1.245,-0.454 1.706,-0.93c0.242,-0.247 0.378,-0.58 0.378,-0.926c-0,-0.727 -0.598,-1.325 -1.325,-1.325c-0.346,-0 -0.679,0.136 -0.926,0.377c-0.121,0.133 -0.286,0.215 -0.464,0.231c-1.318,0.284 -2.351,1.318 -2.636,2.636c-0.048,0.363 -0.335,0.651 -0.698,0.698c-1.318,0.284 -2.352,1.318 -2.636,2.636c-0.047,0.363 -0.335,0.651 -0.699,0.698c-0.649,0.13 -1.245,0.454 -1.706,0.93c-0.248,0.249 -0.388,0.586 -0.388,0.937c0,0.727 0.598,1.325 1.325,1.325l0.001,-0.001Z" style="fill:#12263f;fill-rule:nonzero;"/></g></g></g></svg>