<?xml version="1.0" encoding="UTF-8" standalone="no"?><!DOCTYPE svg PUBLIC "-//W3C//DTD SVG 1.1//EN" "http://www.w3.org/Graphics/SVG/1.1/DTD/svg11.dtd"><svg width="100%" height="100%" viewBox="0 0 90 90" version="1.1" xmlns="http://www.w3.org/2000/svg" xmlns:xlink="http://www.w3.org/1999/xlink" xml:space="preserve" xmlns:serif="http://www.serif.com/" style="fill-rule:evenodd;clip-rule:evenodd;stroke-linejoin:round;stroke-miterlimit:2;"><g id="paquete"></g><rect id="Mesa-de-trabajo1" serif:id="Mesa de trabajo1" x="0" y="0" width="90" height="90" style="fill:none;"/><clipPath id="_clip1"><rect x="0" y="0" width="90" height="90"/></clipPath><g clip-path="url(#_clip1)"><g><path id="Trazado_116222" d="M34.628,74.455l40.937,0c1.129,0 2.059,-0.929 2.059,-2.058l-0,-56.856l-42.996,0l-0,58.914Z" style="fill:#e49542;fill-rule:nonzero;"/><path id="Trazado_116223" d="M73.336,15.545l-0,58.91l2.229,0c1.129,0 2.059,-0.929 2.059,-2.058l-0,-56.856l-4.288,0.004Z" style="fill:#e28424;fill-rule:nonzero;"/><path id="Trazado_116224" d="M34.629,74.455l-20.188,0c-1.13,0 -2.059,-0.929 -2.059,-2.058l0,-56.856l22.247,0l-0,58.914Z" style="fill:#eab14d;fill-rule:nonzero;"/><path id="Trazado_116225" d="M23.566,32.268l-22.247,-0l11.063,-16.723l22.246,0l-11.062,16.723Z" style="fill:#f1cb86;fill-rule:nonzero;"/><path id="Trazado_116226" d="M45.691,32.268l42.996,-0l-11.063,-16.723l-42.996,0l11.063,16.723Z" style="fill:#eab14d;fill-rule:nonzero;"/><rect id="Trazado_116227" x="50.495" y="66.719" width="11.266" height="7.736" style="fill:#df6b57;fill-rule:nonzero;"/><rect id="Trazado_116228" x="58.575" y="66.719" width="3.183" height="7.736" style="fill:#dd544f;fill-rule:nonzero;"/><g id="Grupo_81934"><path id="Trazado_116229" d="M67.072,62.858c0.001,-0 0.001,-0 0.001,-0c0.723,-0 1.318,-0.595 1.318,-1.318l0,-3.699l1.194,0.838c0.222,0.156 0.486,0.239 0.757,0.239c0.724,0 1.319,-0.595 1.319,-1.318c-0,-0.429 -0.21,-0.832 -0.561,-1.079l-3.27,-2.297c-0.454,-0.318 -1.062,-0.318 -1.515,0l-3.269,2.297c-0.351,0.247 -0.561,0.65 -0.561,1.079c0,0.723 0.595,1.318 1.318,1.318c0.271,0 0.536,-0.083 0.758,-0.239l1.193,-0.838l0,3.699c0,0.723 0.595,1.318 1.318,1.318Z" style="fill:#12263f;fill-rule:nonzero;"/><path id="Trazado_116230" d="M42.077,40.526l12.498,0c0.012,0.001 0.024,0.001 0.037,0.001c0.723,-0 1.318,-0.595 1.318,-1.319c0,-0.723 -0.595,-1.319 -1.318,-1.319c-0.013,0 -0.025,0 -0.037,0.001l-12.498,-0c-0.012,-0.001 -0.024,-0.001 -0.037,-0.001c-0.723,0 -1.319,0.596 -1.319,1.319c0,0.724 0.596,1.319 1.319,1.319c0.013,-0 0.025,-0 0.037,-0.001Z" style="fill:#12263f;fill-rule:nonzero;"/><path id="Trazado_116231" d="M42.077,45.744l7.607,-0c0.012,-0 0.025,0 0.037,0c0.723,0 1.319,-0.595 1.319,-1.319c-0,-0.723 -0.596,-1.319 -1.319,-1.319c-0.012,0 -0.025,0 -0.037,0.001l-7.607,-0c-0.012,-0.001 -0.024,-0.001 -0.037,-0.001c-0.723,0 -1.319,0.596 -1.319,1.319c0,0.724 0.596,1.319 1.319,1.319c0.013,0 0.025,-0 0.037,-0Z" style="fill:#12263f;fill-rule:nonzero;"/><path id="Trazado_116232" d="M89.787,31.543l-11.064,-16.726c-0.244,-0.369 -0.657,-0.591 -1.099,-0.591l-65.242,0c-0.442,0 -0.855,0.222 -1.099,0.591l-4.04,6.101c-0.151,0.22 -0.233,0.481 -0.233,0.748c0,0.723 0.596,1.319 1.319,1.319c0.451,-0 0.872,-0.231 1.114,-0.612l3.644,-5.51l19.087,0l-9.317,14.086l-19.085,-0l2.765,-4.181c0.152,-0.22 0.233,-0.481 0.233,-0.748c-0,-0.724 -0.595,-1.319 -1.319,-1.319c-0.451,-0 -0.872,0.231 -1.113,0.612l-4.119,6.23c-0.143,0.215 -0.219,0.469 -0.219,0.728c-0,0.721 0.593,1.316 1.314,1.318l9.744,-0l0,38.807c0.003,1.852 1.526,3.375 3.377,3.377l25.658,0c0.013,0.001 0.025,0.001 0.037,0.001c0.723,-0 1.319,-0.596 1.319,-1.319c-0,-0.724 -0.596,-1.319 -1.319,-1.319c-0.012,-0 -0.024,0 -0.037,0l-4.146,0l-0,-53.208l8.644,13.07c0.244,0.369 0.658,0.591 1.1,0.591l15.476,-0c0.709,-0.02 1.282,-0.609 1.282,-1.319c-0,-0.71 -0.573,-1.299 -1.282,-1.318l-14.767,-0l-9.319,-14.089l39.835,0l9.318,14.086l-19.794,-0c-0.709,0.019 -1.282,0.608 -1.282,1.318c-0,0.71 0.573,1.299 1.282,1.319l9.868,-0l-0,38.807c-0.001,0.406 -0.335,0.74 -0.741,0.74l-12.492,0l0,-6.414c0,-0.001 0,-0.001 0,-0.001c0,-0.723 -0.595,-1.318 -1.318,-1.318c0,-0 -0,-0 -0.001,-0l-11.261,-0c-0,-0 -0,-0 -0.001,-0c-0.723,-0 -1.318,0.595 -1.318,1.318c0,0 0,0 0,0.001l0,6.417l-3.811,0c-0.012,0 -0.024,-0 -0.036,-0c-0.724,-0 -1.319,0.595 -1.319,1.319c-0,0.723 0.595,1.319 1.319,1.319c0.012,-0 0.024,-0 0.036,-0.001l30.195,0c1.852,-0.002 3.375,-1.525 3.377,-3.377l0,-38.807l9.745,-0c0.723,-0.001 1.318,-0.596 1.318,-1.319c-0,-0.259 -0.076,-0.512 -0.219,-0.727l0.006,-0Zm-76.087,40.853l0,-38.807l9.866,-0c0.442,-0 0.856,-0.222 1.1,-0.591l8.644,-13.07l0,53.208l-18.867,0c-0.406,-0 -0.74,-0.334 -0.741,-0.74l-0.002,0Zm38.114,0.74l0,-5.098l8.624,-0l0,5.098l-8.624,0Z" style="fill:#12263f;fill-rule:nonzero;"/></g></g></g></svg>